<svg xmlns="http://www.w3.org/2000/svg" xml:space="preserve" width="3072" height="2048" viewBox="0 0 812.79998 541.86666"><path fill="#2060c0" d="M609.60051 16.932816c-28.43595 0-50.80052 22.364602-50.80052 50.800516v67.732298c0 28.43242 22.35924 50.79502 50.79018 50.80052H745.0775c28.43095-.0055 50.78864-22.3681 50.78864-50.80052V67.733332c0-28.435914-22.36305-50.800516-50.79897-50.800516H609.60051zm-.01034 338.667174c-28.43094.0055-50.79018 22.36759-50.79018 50.8v67.7323c0 28.43591 22.36457 50.80103 50.80052 50.80103h135.46666c28.43592 0 50.79897-22.36512 50.79897-50.80103v-67.7323c0-28.43241-22.35769-50.7945-50.78864-50.8H609.59017z" color="#000"/><path d="M67.733332 152.40051c-28.435922 0-50.800516 22.36252-50.800516 50.79845v135.46718c0 28.43595 22.364594 50.80052 50.800516 50.80052H203.20051c28.43593 0 50.79845-22.36457 50.79845-50.80052V203.19896c0-28.43593-22.36252-50.79845-50.79845-50.79845z" color="#000"/><path fill="#fff" d="M609.59999 0c-37.52415 0-67.73333 30.209185-67.73333 67.733332v25.4h-42.33334c-37.52395 0-67.73333 30.209378-67.73333 67.733328l-.00051 50.79897c0 28.43582-22.36315 50.80103-50.79897 50.80103H270.93333V203.2c0-37.52414-30.20922-67.73334-67.73333-67.73334H67.733332C30.209227 135.46666 0 165.67586 0 203.2v135.46666c0 37.52411 30.209227 67.73333 67.733332 67.73333H203.2c37.52411 0 67.73333-30.20922 67.73333-67.73333v-59.26667h110.06718c28.43582 0 50.79897 22.36522 50.79897 50.80104l.00051 50.79896c0 37.52398 30.20938 67.73334 67.73333 67.73334h42.33334v25.39999c0 37.52417 30.20918 67.73334 67.73333 67.73334h135.46666c37.52417 0 67.73333-30.20917 67.73333-67.73334v-67.73333c0-37.52414-30.20916-67.73333-67.73333-67.73333H609.59999c-37.52415 0-67.73333 30.20919-67.73333 67.73333v25.39949h-42.33282c-28.43583 0-50.80103-22.36263-50.80103-50.79845l.00052-50.80104c0-25.57952-14.05322-47.7378-34.87695-59.26666 20.82385-11.52883 34.87695-33.68703 34.87695-59.26667l-.00052-50.80103c0-28.43582 22.3652-50.79845 50.80103-50.79845h42.33282v25.39948c0 37.52417 30.20918 67.73334 67.73333 67.73334h135.46666c37.52417 0 67.73333-30.20917 67.73333-67.73334V67.733332C812.79998 30.209185 782.59082 0 745.06665 0H609.59999zm.00052 16.932816h135.46666c28.43598 0 50.79897 22.364544 50.79897 50.800516v67.732298c0 28.43597-22.36299 50.80103-50.79897 50.80103H609.60051c-28.43599 0-50.80052-22.36506-50.80052-50.80103V67.733332c0-28.435972 22.36453-50.800516 50.80052-50.800516zM67.733332 152.40051H203.20051c28.43593 0 50.79845 22.36252 50.79845 50.79845v135.46718c0 28.43595-22.36252 50.80052-50.79845 50.80052H67.733332c-28.435922 0-50.800516-22.36457-50.800516-50.80052V203.19896c0-28.43593 22.364594-50.79845 50.800516-50.79845zM132.51852 203.2c-22.01426 0-30.03403 12.89405-32.549947 17.53278l9.041827 19.97035c3.38076-8.01949 12.34354-12.8943 22.09271-12.8943 10.14229 0 16.66823 4.87481 16.66823 13.99501 0 5.03184-3.06654 9.6705-6.29006 12.10779-14.54514 11.16439-22.48596 20.59928-22.48596 34.82991v2.27997l24.05848-.07855c-.15724-1.25796-.1571-2.43758-.1571-3.53829 0-13.83752 9.67046-14.85958 17.61133-23.03632 7.39051-7.62635 10.45673-15.41 10.45673-27.3606 0-15.56724-15.40987-33.80775-38.44624-33.80775zm-1.41541 103.30997c-8.80571 0-16.11788 7.07595-16.11788 15.96026 0 8.80572 7.15477 16.19643 16.27497 16.19643 8.88433 0 16.27498-6.99738 16.27498-15.88172 0-8.80569-7.39049-16.27497-16.43207-16.27497zm478.4974 49.08951h135.46666c28.43598 0 50.79897 22.36454 50.79897 50.80051v67.7323c0 28.43597-22.36299 50.80103-50.79897 50.80103H609.60051c-28.43599 0-50.80052-22.36506-50.80052-50.80103v-67.7323c0-28.43597 22.36453-50.80051 50.80052-50.80051z" color="#000"/><path fill="#ffe0c0" d="M677.3328 38.099483c-.24348.000204-1.20726.346258-2.14198.768945-7.26187 3.28437-13.40662 4.605406-20.38067 4.380094-5.78375-.186875-11.37931-1.534804-17.12867-4.126363-2.51125-1.131873-3.15078-1.224026-4.06797-.586527-.7125.494686-3.8602 3.597051-7.02644 6.923608-2.6125 2.745308-2.68719 3.103378-1.17719 5.683374 2.87999 4.920617 4.47014 12.852073 4.14858 20.69331-.17375 4.232806-.50956 6.387279-2.02675 13.020394-2.4325 10.630607-2.96721 15.182222-2.97346 25.304402-.004 7.05998.04112 7.89696.55242 10.21694 2.65032 12.02374 9.93404 20.82959 25.23463 30.5077 4.36313 2.75937 10.03048 5.88152 18.67328 10.28464 4.23625 2.15812 7.95462 3.92636 8.26306 3.92948.56937.006 9.44245-4.33045 15.33964-7.4967 23.92714-12.84811 33.82414-22.79458 36.91195-37.09799.99624-4.61562.91911-15.89593-.16433-23.987169-.43812-3.270307-1.02663-6.31952-2.466-12.775447-.59282-2.660309-1.22344-5.729933-1.40094-6.821806-.425-2.612496-.42481-11.529926.00051-14.138672.73749-4.524367 2.19138-8.994496 3.78168-11.62668 1.07281-1.776247 1.23499-2.881189.57-3.884-.60125-.905624-7.26249-7.618857-8.38812-8.453231-.53281-.394999-1.24689-.718302-1.58595-.718302-.33906 0-1.70854.493557-3.04323 1.096057-2.99873 1.354059-7.01428 2.66454-10.43709 3.405476-2.23061.482812-3.33648.562721-7.81554.567408-4.52874.0047-5.56106-.069121-7.81606-.56224-3.39093-.741249-7.4791-2.068374-10.53941-3.421496-1.34968-.596738-2.65188-1.084983-2.89543-1.085205h-.00052zm.00052 21.167183a42.33341 42.33341 0 0 1 42.33333 42.332814 42.33341 42.33341 0 0 1-42.33333 42.33333 42.33341 42.33341 0 0 1-42.33385-42.33333 42.33341 42.33341 0 0 1 42.33385-42.332814zm.00879 8.103898c-1.77188 0-2.08636.512095-6.09886 9.922391-2.00718 4.706867-3.66454 8.576867-3.68298 8.599992-.0181.02313-3.97719.607079-8.79687 1.297078-4.81968.69-8.97797 1.369361-9.24078 1.509986-.80625.430623-1.24902 1.302108-1.24902 2.457731v1.103291l6.42544 6.469373 6.42597 6.469374-2.44326 9.67383c-1.34375 5.32092-2.44643 10.07831-2.4505 10.57144-.0125 1.57844 1.35684 2.81044 2.84996 2.56419.40999-.0678 4.69655-2.37341 9.52655-5.12372 6.93217-3.9475 8.86834-4.94822 9.19272-4.75165.22593.13687 4.19944 2.41524 8.82943 5.06274 9.34967 5.34562 9.6463 5.45619 11.05411 4.10931.40438-.38687.79648-.94451.87023-1.2392.0741-.29437-1.01972-5.1262-2.43035-10.73681l-2.56521-10.20145 6.06939-6.042003c3.33813-3.32312 6.23003-6.343299 6.42597-6.711735.7125-1.340623.30066-3.037212-.89245-3.674711-.26313-.140312-4.42162-.819986-9.2413-1.509986-4.81968-.689999-8.77813-1.273953-8.79688-1.297078-.0181-.02312-1.67528-3.893125-3.68246-8.599992-4.0125-9.410296-4.3273-9.922391-6.09885-9.922391zM654.04947 376.76614c-4.23312 2.86562-8.79429 10.87427-8.79429 10.87427a130.76242 130.76242 0 0 1 12.94339 4.03542l4.67-3.05873a83.934321 83.934321 0 0 1 6.61458-3.90777c-.005-.005-8.39839-5.78163-15.43368-7.94319zm44.78125 8.46719s-11.25341.095-22.78621 5.63531a74.17839 74.17839 0 0 0-8.53798 4.83381 79.316824 79.316824 0 0 1 1.95802 1.02682c.91032.49468 1.87594 1.05805 2.88406 1.66398a50.19153 50.19153 0 0 1 8.32353 6.39289c6.50092-2.75437 19.31454-6.90587 24.0161-8.2765-2.11687-5.06655-5.85752-11.27631-5.85752-11.27631zm-70.18125 8.46615s6.14677 7.45896 7.71271 14.65802c1.56656 7.19936 1.7308 12.86137.77049 23.44198 4.74656-5.41875 10.73925-9.82912 18.34049-14.21567l1.18545-.68833c5.85781-3.405 8.03524-4.67499 13.26586-7.21248a287.00294 287.00294 0 0 1 2.27066-1.08728 45.182784 45.182784 0 0 0-6.76806-4.43177c-13.36936-7.2678-30.23698-10.46447-36.7776-10.46447zm97.36718 8.46666s-4.66258.00013-8.07289.36794c-5.02717.52938-11.12838 2.11673-15.80369 3.49798-9.27623 2.74905-18.34335 6.32856-28.5352 11.26856-4.92625 2.39437-6.87907 3.53203-12.7 6.91327l-1.19063.70642c-8.7178 5.02717-15.10461 10.58355-19.52335 17.01291-4.84999 7.03531-7.30757 15.26629-7.30757 24.43159 0 10.77905 4.1565 20.39975 11.70523 27.08568 7.60936 6.74936 18.20844 10.31565 30.6281 10.31565 12.37185 0 22.98898-3.7888 30.69115-10.9616 7.50093-6.97187 11.64167-16.77181 11.64167-27.59367 0-6.61436-1.63725-12.43518-3.21944-18.04954-3.33125-11.82436-6.2074-22.03726 6.53758-38.13411 1.11406-1.405 5.14904-6.86108 5.14904-6.86108z"/></svg>