<?xml version="1.0" encoding="UTF-8" standalone="no"?>
<!-- Created with Inkscape (http://www.inkscape.org/) -->

<svg
   width="2161.8184"
   height="462.72461"
   viewBox="0 0 571.9811 122.42922"
   version="1.1"
   id="svg1"
   inkscape:version="1.3 (0e150ed6c4, 2023-07-21)"
   sodipodi:docname="title.svg"
   inkscape:export-filename="title.png"
   inkscape:export-xdpi="96"
   inkscape:export-ydpi="96"
   xml:space="preserve"
   xmlns:inkscape="http://www.inkscape.org/namespaces/inkscape"
   xmlns:sodipodi="http://sodipodi.sourceforge.net/DTD/sodipodi-0.dtd"
   xmlns="http://www.w3.org/2000/svg"
   xmlns:svg="http://www.w3.org/2000/svg"><sodipodi:namedview
     id="namedview1"
     pagecolor="#505050"
     bordercolor="#eeeeee"
     borderopacity="1"
     inkscape:showpageshadow="0"
     inkscape:pageopacity="0"
     inkscape:pagecheckerboard="0"
     inkscape:deskcolor="#d1d1d1"
     inkscape:document-units="px"
     inkscape:zoom="0.68944087"
     inkscape:cx="974.70288"
     inkscape:cy="248.7523"
     inkscape:window-width="1920"
     inkscape:window-height="1017"
     inkscape:window-x="-8"
     inkscape:window-y="-8"
     inkscape:window-maximized="1"
     inkscape:current-layer="svg1" /><defs
     id="defs1" /><path
     id="path362"
     style="font-weight:bold;font-size:33.8667px;font-family:'LEMON MILK';-inkscape-font-specification:'LEMON MILK Bold';text-align:center;text-anchor:middle;fill:#808080;fill-opacity:1;stroke:none;stroke-width:2.11667;stroke-linecap:round;stroke-linejoin:round;stroke-dasharray:none;stroke-opacity:1"
     d="m 233.04314,0 v 15.875 h -48.38413 c -4.20999,0 -8.24815,1.672649 -11.22515,4.649846 -2.977,2.977097 -4.64985,7.014859 -4.64985,11.225154 v 16.70234 c -15.98098,3.309697 -27.40711,16.483533 -27.40711,33.159217 0,9.30639 3.60511,17.530419 9.6051,23.529313 l 7.07089,7.07089 c 6.35799,6.35799 15.40525,10.21746 25.70024,10.21746 20.04798,0 35.38388,-14.5774 35.38388,-33.746777 0,-9.40449 -3.63418,-17.695157 -9.66917,-23.730851 l -7.07192,-7.070887 c -3.00839,-3.008777 -6.61624,-5.45289 -10.66602,-7.19956 V 38.820887 h 105.57185 v 9.631453 c -15.98098,3.309697 -27.40659,16.483433 -27.40659,33.159217 0,9.30639 3.60507,17.530419 9.60406,23.529313 l 7.07089,7.07089 c 6.35899,6.35799 15.40577,10.21746 25.70075,10.21746 20.04798,0 35.38389,-14.5774 35.38389,-33.746777 0,-9.40439 -3.6337,-17.695157 -9.66969,-23.730851 l -7.07089,-7.070887 C 327.9054,54.87219 324.29731,52.428329 320.24816,50.681661 V 38.820887 c 0,-4.210296 -1.67337,-8.247958 -4.65037,-11.225155 l -7.07088,-7.070886 C 305.54991,17.547649 301.51175,15.875 297.30175,15.875 H 255.98903 V 7.0708863 L 248.91814,0 Z m 7.07089,7.0708863 h 8.80411 V 15.875 l 7.07089,7.070886 h 48.38413 c 2.49438,0 4.92608,0.591574 7.11481,1.689303 1.09768,2.188613 1.68878,4.62044 1.68878,7.114811 v 16.70234 l 7.07141,7.070886 c 5.20186,1.077326 9.92087,3.20112 13.92059,6.149496 4.06214,5.529814 6.41512,12.373295 6.41512,19.938835 0,19.169383 -15.33594,33.746263 -35.38492,33.746263 -8.3781,0 -15.93039,-2.55627 -21.87929,-6.9355 -4.02535,-5.48681 -6.35362,-12.263426 -6.35362,-19.739877 0,-16.675683 11.42613,-29.84952 27.40712,-33.159217 V 38.820887 L 297.30175,31.75 H 184.65901 v 16.70234 l 7.07089,7.070886 c 5.2022,1.077241 9.92038,3.200479 13.92008,6.148462 4.06244,5.529934 6.41615,12.373944 6.41615,19.939869 0,19.169383 -15.33591,33.746263 -35.38389,33.746263 -8.37892,0 -15.93112,-2.55626 -21.8798,-6.9355 -4.0256,-5.48681 -6.35465,-12.263426 -6.35465,-19.739877 0,-16.675683 11.42613,-29.84952 27.40711,-33.159217 V 38.820887 c 0,-4.210296 1.67285,-8.247958 4.64985,-11.225155 2.97699,-2.977097 7.01516,-4.649846 11.22515,-4.649846 h 48.38413 z m 2.34404,41.3127247 c -12.22099,0 -22.80429,7.947918 -22.80429,19.090307 0,5.162195 1.97799,9.092403 5.05499,12.1698 l 7.0714,7.071403 c 2.708,2.707998 6.26804,4.755128 10.08104,6.400127 1.95597,0.866486 3.93728,1.744896 5.74228,2.642732 -0.56297,2.176994 -3.7998,3.265951 -7.10241,3.265951 -3.56306,0 -6.94845,-1.049307 -9.60923,-2.900082 l -3.44992,-3.449918 -10.34407,10.144079 c 0.74,1.627 1.81605,3.12712 3.16105,4.47312 l 7.07089,7.07088 c 4.53099,4.531 12.12197,7.30912 20.28196,7.30912 12.89999,0 24.32203,-7.62824 24.32203,-19.88923 0,-5.166293 -1.97072,-9.341746 -5.38572,-12.756842 l -7.07088,-7.070886 c -2.868,-2.867798 -6.75415,-5.199567 -11.34815,-7.131865 -1.38051,-0.579211 -2.65783,-1.077486 -3.83232,-1.53324 0.94553,-1.311933 2.93684,-2.218986 5.43223,-2.218986 2.03447,0 4.88734,0.650112 7.1422,2.070675 l 2.80189,2.801896 9.86503,-9.505363 c -0.704,-1.774998 -1.809,-3.41572 -3.252,-4.858618 l -7.07088,-7.070886 c -3.72,-3.719297 -9.67913,-6.124174 -16.75712,-6.124174 z M 0,49.342208 v 64.379022 l 7.0708863,7.07088 H 24.1639 V 56.413095 l -7.070886,-7.070887 z m 49.282264,0 -21.006987,0.03979 v 64.339232 l 7.070886,7.07088 H 56.35315 c 21.885478,0 35.264514,-12.14129 35.264514,-32.109668 0,-9.56779 -3.02262,-17.348878 -8.545214,-22.871472 L 76.001046,58.740084 C 69.905453,52.64449 60.764652,49.300308 49.282264,49.342208 Z m 43.651599,0 v 64.379022 l 7.070887,7.07088 h 41.7344 v -16.01504 l -7.0714,-7.070888 h -17.76997 v -2.154391 h 20.44836 V 81.293747 l -7.07089,-7.070887 h -13.37747 v -1.914611 h 24.84137 V 56.413095 l -7.0714,-7.070887 z m 256.036057,0 0.0811,64.379022 7.07089,7.07088 h 17.09301 V 97.249879 l 10.14098,16.471351 7.07192,7.07088 H 410.4359 L 393.18324,94.952345 c 6.30999,-2.875397 11.14196,-9.58507 11.14196,-17.612362 0,-5.376095 -2.15735,-10.284182 -5.86735,-13.993978 l -7.07088,-7.070886 c -4.255,-4.254596 -10.55114,-6.932911 -17.97513,-6.932911 z m 55.03385,0 v 15.974736 l 7.0714,7.070886 h 8.38502 v 41.3334 l 7.07089,7.07088 h 17.1328 V 72.38783 h 15.41508 V 56.413095 l -7.07089,-7.070887 z m 55.27311,0 v 64.379022 l 7.07089,7.07088 h 41.7344 v -16.01504 l -7.0714,-7.070888 h -17.76998 v -2.154391 h 20.44837 V 81.293747 l -7.07141,-7.070887 h -13.37696 v -1.914611 h 24.84138 V 56.413095 l -7.0714,-7.070887 z m 51.23925,0 0.0801,64.379022 7.07089,7.07088 h 17.09301 V 97.248845 l 10.14202,16.472385 7.07088,7.07088 h 20.00808 L 554.72894,94.952345 c 6.30999,-2.875397 11.14195,-9.58507 11.14195,-17.612362 0,-5.376095 -2.15683,-10.284182 -5.86682,-13.993978 l -7.07089,-7.070886 c -4.255,-4.254596 -10.55114,-6.932911 -17.97513,-6.932911 z m -260.98717,6.112289 c 4.81179,0 9.10543,1.112332 12.53102,2.992582 0.14747,0.302158 0.28397,0.608599 0.40721,0.919324 l -9.68675,9.33328 -1.34256,-1.342553 c -2.32399,-2.324098 -6.20782,-3.357935 -8.77982,-3.357935 -3.514,0 -6.03116,1.796957 -6.03116,3.993555 0,0.757299 0.29893,1.383501 0.86093,1.945101 l 7.07141,7.071403 c 1.62999,1.629998 5.47269,2.715642 10.64069,4.883939 2.6657,1.121231 5.09126,2.378205 7.21971,3.795118 1.57485,2.61857 2.44327,5.602343 2.44327,9.022705 0,12.260984 -11.42205,19.889224 -24.32203,19.889224 -5.99331,0 -11.6779,-1.50014 -16.07034,-4.09122 -0.10589,-0.20451 -0.20675,-0.41132 -0.30179,-0.62012 l 10.18181,-9.98492 1.70739,1.70687 c 2.82899,2.829 7.03303,4.48397 11.51402,4.48397 3.634,0 7.18923,-1.31777 7.18923,-3.95377 0,-0.915 -0.50323,-1.7999 -1.36323,-2.6603 l -7.07088,-7.071403 c -2.255,-2.255197 -6.96929,-4.341488 -11.53728,-6.364986 -2.08001,-0.897409 -4.08321,-1.915617 -5.91541,-3.094385 -1.3579,-2.373881 -2.14922,-5.143084 -2.14922,-8.405171 0,-11.142389 10.58279,-19.090308 22.80378,-19.090308 z M 7.0708863,56.413095 H 17.093014 V 113.72123 H 7.0708863 Z m 49.2822637,0 c 9.259634,-0.03379 16.995329,2.135949 22.840467,6.173266 3.483496,5.084489 5.353161,11.502153 5.353161,19.025196 0,19.968383 -13.379036,32.109673 -35.264514,32.109673 H 35.346163 V 56.452885 Z m 43.6516,0 h 34.663 v 8.824267 h -24.84086 v 8.985498 l 7.07089,7.070887 h 13.37747 v 7.187158 h -20.44836 v 9.225277 l 7.07089,7.070888 h 17.76997 v 8.94416 h -34.663 z m 256.03605,0 h 24.44244 c 5.35855,0 10.12875,1.396129 13.96866,3.772379 1.80345,2.992435 2.80189,6.429396 2.80189,10.083623 0,8.027292 -4.83196,14.736864 -11.14195,17.612361 l 17.25321,25.839772 h -17.29094 l -12.85916,-20.885552 -7.07089,-7.070886 v 27.956438 h -10.03091 z m 55.03437,0 h 40.9329 v 8.903849 h -15.41611 v 48.404286 h -10.06088 v -41.3334 l -7.07089,-7.070886 h -8.38502 z m 55.2726,0 h 34.663 v 8.824267 h -24.84086 v 8.985498 l 7.07088,7.070887 h 13.37696 v 7.187158 h -20.44784 v 9.225277 l 7.07088,7.070888 h 17.76998 v 8.94416 h -34.663 z m 51.23925,0 h 24.44192 c 5.35783,0 10.12798,1.39568 13.96762,3.771346 1.80382,2.992672 2.80345,6.430016 2.80345,10.084656 0,8.027292 -4.83197,14.736864 -11.14196,17.612361 l 17.25218,25.839772 h -17.29094 l -12.85916,-20.885552 -7.07089,-7.070886 v 27.956438 h -10.03091 z m -340.86499,7.466211 c -10.22399,0 -18.05213,7.667971 -18.05213,17.612361 0,4.863696 1.88785,9.178263 5.01985,12.31036 l 7.0714,7.070883 c 3.246,3.246 7.82777,5.22191 13.03177,5.22191 10.22299,0 18.05109,-7.627876 18.05109,-17.532266 0,-4.898295 -1.89927,-9.244162 -5.04827,-12.393559 l -7.07088,-7.070886 c -3.245,-3.244297 -7.81583,-5.218803 -13.00283,-5.218803 z m 128.51722,0 c -10.22399,0 -18.05109,7.667971 -18.05109,17.612361 0,4.863696 1.88682,9.178263 5.01881,12.31036 l 7.07089,7.070883 c 3.246,3.246 7.82928,5.22191 13.03228,5.22191 10.22399,0 18.05161,-7.627876 18.05161,-17.532266 0,-4.898295 -1.89879,-9.244162 -5.04879,-12.393559 l -7.07088,-7.070886 c -3.244,-3.244297 -7.81483,-5.218803 -13.00283,-5.218803 z m 60.82368,0.838708 v 12.899988 l 7.07192,7.070886 6.98924,0.03979 c 3.63399,0.0399 6.94893,-2.516193 6.94893,-6.469889 0,-1.820498 -0.69728,-3.325437 -1.79627,-4.424536 l -7.07089,-7.070887 c -1.312,-1.311998 -3.19666,-2.045353 -5.15266,-2.045353 z m 161.54621,0 v 12.899988 l 7.07089,7.070886 6.98872,0.03979 c 3.634,0.0399 6.94945,-2.516193 6.94945,-6.469889 0,-1.820398 -0.69728,-3.325021 -1.79627,-4.42402 l -7.07089,-7.071403 c -1.312,-1.312098 -3.19718,-2.045353 -5.15318,-2.045353 z m -482.680099,0.59893 v 32.309139 l 7.070886,7.070887 h 4.073653 c 11.421989,0 18.41128,-6.070028 18.41128,-16.054318 0,-4.679395 -1.50731,-8.5105 -4.272608,-11.275797 L 63.140849,70.295452 C 59.935153,67.089755 55.039508,65.316944 48.843014,65.316944 Z m 138.863879,5.633248 c 3.28485,0 6.32132,0.794117 8.93175,2.198832 1.31288,2.464097 2.04846,5.296248 2.04846,8.342643 0,9.904391 -7.82811,17.532264 -18.0511,17.532264 -3.29583,0 -6.34056,-0.794661 -8.95604,-2.200383 -1.29781,-2.44221 -2.0252,-5.245693 -2.0252,-8.260994 0,-9.94429 7.82814,-17.612362 18.05213,-17.612362 z m 128.51722,0 c 3.28549,0 6.32201,0.794117 8.93227,2.198832 1.31312,2.464097 2.04845,5.296248 2.04845,8.342643 0,9.904391 -7.82762,17.532264 -18.05161,17.532264 -3.29519,0 -6.34035,-0.794661 -8.95604,-2.200383 -1.29751,-2.44221 -2.02417,-5.245693 -2.02417,-8.260994 0,-9.94429 7.82711,-17.612362 18.0511,-17.612362 z m 60.82471,0.838708 h 6.83886 c -0.31507,3.580537 -3.4248,5.868752 -6.83886,5.867859 z m 161.54518,0 h 6.83886 c -0.31505,3.5804 -3.42496,5.868577 -6.83886,5.867859 z M 51.999927,72.38783 H 55.9139 c 3.903973,0 7.290502,0.705379 10.064502,2.027784 0.940053,2.081143 1.435572,4.479088 1.435572,7.156152 0,9.078037 -5.779437,14.918776 -15.414047,15.904456 z" /><path
     id="path5"
     style="fill:#c02020;fill-opacity:1;stroke:none;stroke-width:9.9902;stroke-linecap:round;stroke-linejoin:round;stroke-opacity:1"
     d="M 176.72151,60.284692 A 21.166666,21.166666 0 0 0 155.55485,81.451359 21.166666,21.166666 0 0 0 176.72151,102.61803 21.166666,21.166666 0 0 0 197.88818,81.451359 21.166666,21.166666 0 0 0 176.72151,60.284692 Z" /><path
     id="path5-9"
     style="fill:#20c020;fill-opacity:1;stroke:none;stroke-width:9.9902;stroke-linecap:round;stroke-linejoin:round;stroke-opacity:1"
     d="M 305.23924,60.284948 A 21.166666,21.166666 0 0 0 284.07258,81.451615 21.166666,21.166666 0 0 0 305.23924,102.61829 21.166666,21.166666 0 0 0 326.40591,81.451615 21.166666,21.166666 0 0 0 305.23924,60.284948 Z" /><path
     id="path1"
     style="font-weight:bold;font-size:33.8667px;font-family:'LEMON MILK';-inkscape-font-specification:'LEMON MILK Bold';text-align:center;text-anchor:middle;display:inline;fill:#ffffff;stroke:none;stroke-width:4.23333;stroke-linecap:round;stroke-linejoin:round;stroke-dasharray:none;stroke-opacity:1"
     d="m 233.04262,0 v 15.875 h -48.38361 a 15.875,15.875 0 0 0 -15.875,15.875 v 16.702339 c -15.98104,3.309684 -27.40659,16.483574 -27.40659,33.159217 0,19.169714 15.29591,33.746774 35.3043,33.746774 20.04832,0 35.3844,-14.57706 35.3844,-33.746774 0,-16.675816 -11.42577,-29.849703 -27.40711,-33.159217 V 31.75 h 112.64274 v 16.702339 c -15.98113,3.309651 -27.4066,16.48354 -27.4066,33.159217 0,19.169714 15.29592,33.746774 35.30431,33.746774 20.04832,0 35.3844,-14.57706 35.3844,-33.746774 0,-16.675677 -11.426,-29.849566 -27.40711,-33.159217 V 31.75 a 15.875,15.875 0 0 0 -15.875,-15.875 H 248.91762 V 0 Z m 9.41545,48.38361 c -12.2207,0 -22.80378,7.947912 -22.80378,19.090307 0,9.704673 6.98891,15.055993 15.13603,18.570443 6.31002,2.795578 12.89947,5.711038 12.89947,9.025806 0,2.635828 -3.55443,3.953763 -7.18871,3.953763 -5.39145,0 -10.38336,-2.396246 -13.05915,-6.35 l -10.34407,10.144081 c 3.23491,7.1088 12.86025,11.78171 23.44353,11.78171 12.89964,0 24.32151,-7.62807 24.32151,-19.888706 0,-9.504991 -6.66976,-15.655396 -16.73386,-19.888708 -6.949,-2.915395 -11.50162,-3.874226 -11.50162,-6.829557 0,-2.196531 2.51617,-3.993555 6.03064,-3.993555 3.07513,0 8.02712,1.477933 9.94409,4.872571 l 9.86452,-9.505363 C 259.95064,53.016435 252.28255,48.38361 242.45807,48.38361 Z M 0,49.342208 V 113.72071 H 17.093013 V 49.342208 Z m 49.282263,0 -21.006986,0.03979 v 64.338712 h 21.006986 c 21.885422,0 35.264514,-12.1407 35.264514,-32.109154 0,-20.128202 -13.379092,-32.349223 -35.264514,-32.269348 z m 43.651599,0 V 113.72071 H 134.66775 V 97.70618 h -24.84086 v -9.225276 h 20.44784 V 74.222859 h -20.44784 v -8.985498 h 24.84086 V 49.342208 Z m 256.036568,0 0.0801,64.378502 h 17.09301 V 85.76479 l 17.2129,27.95592 h 20.0086 L 386.11183,87.881457 c 6.31002,-2.875458 11.14247,-9.585046 11.14247,-17.612361 0,-11.541767 -9.94442,-20.926888 -23.84247,-20.926888 z m 55.03333,0 v 15.974735 h 15.45591 v 48.403767 h 17.1328 V 65.316943 h 15.4156 V 49.342208 Z m 55.27311,0 v 64.378502 h 41.73389 V 97.70618 H 476.1699 v -9.225276 h 20.44785 V 74.222859 H 476.1699 v -8.985498 h 24.84086 V 49.342208 Z m 51.23925,0 0.0796,64.378502 h 17.09353 V 85.76479 l 17.21291,27.95592 h 20.00808 L 547.65753,87.881457 C 553.96755,85.005999 558.8,78.296411 558.8,70.269096 558.8,58.727329 548.85557,49.342208 534.95753,49.342208 Z M 176.72151,60.284692 a 21.166666,21.166666 0 0 1 2.73885,0.195854 21.166666,21.166666 0 0 1 0.42995,0.05374 21.166666,21.166666 0 0 1 2.56212,0.557072 21.166666,21.166666 0 0 1 0.48007,0.143144 21.166666,21.166666 0 0 1 2.47582,0.923458 21.166666,21.166666 0 0 1 0.32039,0.156063 21.166666,21.166666 0 0 1 2.28927,1.250052 21.166666,21.166666 0 0 1 0.19534,0.116789 21.166666,21.166666 0 0 1 2.14147,1.603003 21.166666,21.166666 0 0 1 0.37465,0.317293 21.166666,21.166666 0 0 1 1.84227,1.842265 21.166666,21.166666 0 0 1 0.31729,0.374654 21.166666,21.166666 0 0 1 1.603,2.141472 21.166666,21.166666 0 0 1 0.11679,0.195337 21.166666,21.166666 0 0 1 1.25006,2.289266 21.166666,21.166666 0 0 1 0.15606,0.320393 21.166666,21.166666 0 0 1 0.92346,2.475818 21.166666,21.166666 0 0 1 0.14314,0.480074 21.166666,21.166666 0 0 1 0.55707,2.562118 21.166666,21.166666 0 0 1 0.0537,0.429948 21.166666,21.166666 0 0 1 0.19586,2.738851 21.166666,21.166666 0 0 1 -0.19586,2.738851 21.166666,21.166666 0 0 1 -0.0537,0.429947 21.166666,21.166666 0 0 1 -0.55707,2.562118 21.166666,21.166666 0 0 1 -0.14314,0.480074 21.166666,21.166666 0 0 1 -0.92346,2.475818 21.166666,21.166666 0 0 1 -0.15606,0.320394 21.166666,21.166666 0 0 1 -1.25006,2.289266 21.166666,21.166666 0 0 1 -0.11679,0.195337 21.166666,21.166666 0 0 1 -1.603,2.141471 21.166666,21.166666 0 0 1 -0.31729,0.374654 21.166666,21.166666 0 0 1 -1.84227,1.842265 21.166666,21.166666 0 0 1 -0.37465,0.317293 21.166666,21.166666 0 0 1 -2.14147,1.603003 21.166666,21.166666 0 0 1 -0.19534,0.116789 21.166666,21.166666 0 0 1 -2.28927,1.250054 21.166666,21.166666 0 0 1 -0.32039,0.15606 21.166666,21.166666 0 0 1 -2.47582,0.92346 21.166666,21.166666 0 0 1 -0.48007,0.14315 21.166666,21.166666 0 0 1 -2.56212,0.55707 21.166666,21.166666 0 0 1 -0.42995,0.0537 21.166666,21.166666 0 0 1 -2.73885,0.19586 21.166666,21.166666 0 0 1 -7.40058,-1.47227 21.166666,21.166666 0 0 1 -1.03146,-0.3607 21.166666,21.166666 0 0 1 -5.96811,-3.987871 21.166666,21.166666 0 0 1 -0.94568,-0.945679 21.166666,21.166666 0 0 1 -3.98787,-5.968111 21.166666,21.166666 0 0 1 -0.3607,-1.031462 21.166666,21.166666 0 0 1 -1.47226,-7.400581 21.166666,21.166666 0 0 1 1.47226,-7.400582 21.166666,21.166666 0 0 1 0.3607,-1.031462 21.166666,21.166666 0 0 1 3.98787,-5.968111 21.166666,21.166666 0 0 1 0.94568,-0.945679 21.166666,21.166666 0 0 1 5.96811,-3.98787 21.166666,21.166666 0 0 1 1.03146,-0.360701 21.166666,21.166666 0 0 1 7.40058,-1.472262 z m 128.51774,0 a 21.166666,21.166666 0 0 1 21.16666,21.166667 21.166666,21.166666 0 0 1 -21.16666,21.167181 21.166666,21.166666 0 0 1 -21.16667,-21.167181 21.166666,21.166666 0 0 1 21.16667,-21.166667 z m 60.82419,4.433321 h 6.98924 c 3.59433,0 6.94893,2.476198 6.94893,6.469889 0,3.953756 -3.31466,6.509828 -6.94893,6.46989 l -6.98924,-0.03979 z m 161.5457,0 h 6.98872 c 3.5943,0 6.94944,2.476198 6.94944,6.469889 0,3.953756 -3.3152,6.509828 -6.94944,6.46989 l -6.98872,-0.03979 z m -482.6801,0.59893 h 3.913973 c 11.541766,0 18.57096,6.150784 18.57096,16.254822 0,9.984225 -6.989322,16.054317 -18.41128,16.054317 H 44.92904 Z m 126.50081,5.551082 -5.29167,5.291667 5.29167,5.291667 -5.29167,5.292183 5.29167,5.291667 5.29166,-5.291667 5.29167,5.291667 5.29167,-5.291667 -5.29167,-5.292183 5.29167,-5.291667 -5.29167,-5.291667 -5.29167,5.291667 z m 141.7469,5.17e-4 -10.58334,10.583333 -5.29166,-5.292183 -5.29167,5.292183 10.58333,10.583334 15.875,-15.875517 z" /></svg>
