<svg xmlns="http://www.w3.org/2000/svg" xml:space="preserve" width="512" height="512" viewBox="0 0 135.46666 135.46667"><path d="M 135.46666,67.733332 127.00103,59.267699 87.57191,19.838581 V 59.267699 H 10e-7 V 76.198966 H 87.57191 v 39.429114 l 39.42912,-39.429114 z" style="fill:#eb8b47;fill-opacity:1;stroke:none;stroke-width:33.8667;stroke-miterlimit:128;stroke-dasharray:none;stroke-opacity:1;paint-order:stroke fill markers"/><path d="m 88.459199,57.150516 c -1.413912,0 -2.844898,0.285461 -4.150651,0.853178 -0.176784,0.07686 -0.303656,0.240099 -0.476457,0.326595 -0.860895,-0.571862 -1.842947,-0.963248 -2.59364,-0.963249 h -8.848038 c -0.616935,10e-7 -1.298244,0.204668 -1.939417,0.500228 -1.248569,-0.449716 -2.552084,-0.666111 -3.857129,-0.666109 -0.843842,0 -1.681934,0.0991 -2.50424,0.273368 -0.674539,0.134927 -1.295896,0.479065 -1.931665,0.773596 -0.77762,-0.499173 -1.701134,-0.881082 -2.533178,-0.881083 h -8.529195 c -0.372996,10e-7 -0.785273,0.143118 -1.189592,0.259933 -0.274929,-0.06883 -0.581835,-0.259933 -0.820105,-0.259933 h -2.781225 c -1.076397,0 -2.053672,0.40956 -2.708879,0.855762 -0.398795,0.270527 -0.707632,0.710567 -1.033529,1.118795 -0.349764,-0.425295 -0.692943,-0.866273 -1.093473,-1.126546 -0.698823,-0.461671 -1.645118,-0.84801 -2.621029,-0.848011 h -2.730582 c -0.227932,0 -0.600634,0.209228 -0.902271,0.289388 -0.449869,-0.143274 -0.910225,-0.289387 -1.326017,-0.289388 h -2.478918 c -0.947086,0 -2.045402,0.464237 -2.853573,1.084172 -0.220903,-0.152408 -0.423228,-0.401607 -0.636654,-0.505912 -0.585329,-0.299301 -1.329704,-0.578259 -2.22467,-0.57826 H 23.18153 c -0.489884,10e-7 -1.03683,0.145784 -1.562178,0.340031 -0.502587,-0.177364 -1.022469,-0.322461 -1.486731,-0.322461 h -2.529045 c -1.016376,0 -2.429087,0.491716 -3.294889,1.35754 -0.07657,0.07656 -0.150179,0.156027 -0.220658,0.238229 -0.715672,0.83495 -1.119312,2.082184 -1.119312,3.03909 v 11.443229 c 0,0.956863 0.40352,2.206114 1.119312,3.041158 0.07048,0.0822 0.144086,0.16167 0.220658,0.238229 0.865765,0.865765 2.27849,1.35754 3.294889,1.35754 h 2.529045 c 0.475971,0 1.00896,-0.148076 1.523421,-0.33383 0.515043,0.186175 1.048925,0.33383 1.525488,0.33383 h 2.498039 c 0.932065,0 2.014485,-0.45703 2.824117,-1.068152 0.17934,0.126706 0.355658,0.358466 0.525549,0.451135 0.598795,0.326621 1.423796,0.617017 2.380734,0.617017 h 2.478918 c 1.094565,0 2.485834,-0.564475 3.27887,-1.35754 0.180632,-0.180632 0.292198,-0.464517 0.445451,-0.697115 0.291975,0.387873 0.578253,0.801207 0.914156,1.062467 0.134655,0.104165 0.275471,0.200112 0.421679,0.287321 0.64468,0.386815 1.557121,0.704867 2.514059,0.704867 h 2.228287 c 0.956862,0 1.962858,-0.34357 2.665988,-0.812354 0.02622,-0.01797 0.05223,-0.03623 0.07803,-0.05478 0.350091,-0.245068 0.669173,-0.693235 0.996322,-1.09554 0.136653,0.197325 0.229252,0.44785 0.386539,0.605131 0.792988,0.792988 2.182722,1.35754 3.27732,1.35754 h 8.529195 c 0.786774,0 1.659181,-0.350326 2.420007,-0.808736 0.146936,0.06281 0.282782,0.149824 0.432015,0.207222 0.692103,0.266194 1.409146,0.457309 2.136304,0.589628 0.798609,0.156798 1.605469,0.22841 2.41639,0.22841 1.001521,0 1.992868,-0.09927 2.970361,-0.343648 0.01829,-0.0044 0.03655,-0.0088 0.05478,-0.01344 0.820798,-0.216814 1.610048,-0.655106 2.375049,-1.132748 0.806587,0.738952 2.09743,1.273308 3.14451,1.273308 h 2.513542 c 0.979713,0 2.460883,-0.532199 3.374988,-1.509986 0.185224,-0.204719 0.318374,-0.478998 0.470772,-0.735872 0.751943,0.602081 1.497492,1.227657 2.375049,1.609204 1.305753,0.567717 2.736739,0.853178 4.150651,0.853178 1.413913,0 2.844381,-0.285461 4.150134,-0.853178 0.39321,-0.170961 0.692364,-0.504019 1.064535,-0.720886 4.68e-4,-2.72e-4 0.0016,2.73e-4 0.0021,0 0.79628,0.79628 2.182729,1.35754 3.277319,1.35754 h 2.495972 c 0.687794,0 1.444764,-0.268828 2.144574,-0.63097 0.0114,0.0063 0.0238,0.02329 0.0351,0.02946 0.12939,0.07063 0.26238,0.134448 0.39842,0.191203 0.52266,0.217774 1.18342,0.410311 1.99626,0.410311 h 3.11713 c 0.50352,0 1.20212,-0.288366 1.86345,-0.57826 0.66711,0.250639 1.35344,0.43915 2.05259,0.566374 0.79862,0.156808 1.60701,0.228927 2.41794,0.228927 1.00155,0 1.99168,-0.0999 2.96881,-0.344165 0.0183,-0.0044 0.0365,-0.0088 0.0548,-0.01344 1.02108,-0.26972 2.04373,-0.724693 2.95693,-1.41025 0.94831,-0.704649 1.7488,-1.668144 2.26188,-2.718697 0.006,-0.01169 0.0118,-0.0234 0.0176,-0.03514 0.55689,-1.166863 0.76326,-2.400788 0.76326,-3.56464 0,-1.26689 -0.27399,-2.668681 -1.04077,-3.939295 -0.0588,-0.0997 -0.17653,-0.163994 -0.24029,-0.261999 0.59022,-0.858835 0.94332,-2.112515 0.84181,-3.124874 -0.11298,-1.12679 -0.79966,-2.371154 -1.57407,-3.04891 -0.0666,-0.05741 -0.13506,-0.112732 -0.20515,-0.165881 -0.98695,-0.760432 -2.08729,-1.37489 -3.26182,-1.800923 -1.28383,-0.481176 -2.63252,-0.687107 -3.97857,-0.687297 h -0.002 c -0.8432,1.47e-4 -1.68204,0.09923 -2.50373,0.273368 -1.0422,0.208471 -2.07201,0.611731 -2.98431,1.195276 -0.16445,0.104603 -0.24307,0.292958 -0.39843,0.410311 -0.5409,-0.376815 -1.0363,-0.836637 -1.6309,-1.070219 -1.07817,-0.434161 -2.23307,-0.642855 -3.35535,-0.642855 h -5.211056 c -1.101134,10e-7 -2.484283,0.564515 -3.277319,1.35754 -0.0015,0.0015 -0.0026,0.0041 -0.0041,0.0057 -0.372349,-0.218288 -0.668437,-0.555253 -1.062468,-0.726571 -1.305753,-0.567717 -2.736221,-0.853178 -4.150134,-0.853178 z m -17.92397,0.716752 0.07235,0.02739 c -0.01071,-0.0041 -0.02287,-0.0021 -0.03359,-0.0062 -0.01405,-0.0051 -0.02469,-0.01615 -0.03876,-0.02119 z m -9.425782,0.794784 c -0.0032,0.002 -0.0046,0.0058 -0.0078,0.0078 -0.0042,0.0027 -0.0098,0.0035 -0.01395,0.0062 z m 23.406323,0.06253 0.220659,0.238229 c -0.03243,-0.03784 -0.08884,-0.04925 -0.12299,-0.08578 -0.03835,-0.04239 -0.05816,-0.112938 -0.09767,-0.152446 z m -31.572232,0.783415 0.111104,0.187069 c -0.01581,-0.02845 -0.06298,-0.04564 -0.0801,-0.0739 -0.01679,-0.02946 -0.01351,-0.08517 -0.03101,-0.113171 z m -20.812683,0.187069 c -0.03607,0.06493 -0.02078,0.154785 -0.05271,0.222725 -0.02427,0.04757 -0.09153,0.06654 -0.113171,0.115238 z m 76.210855,0.152445 0.0429,0.04289 c -0.007,-0.0075 -0.018,-0.01007 -0.0253,-0.01757 -0.007,-0.0074 -0.0102,-0.01797 -0.0176,-0.02532 z m -12.445239,0.390674 0.05839,0.05684 c -0.01056,-0.01077 -0.02607,-0.0146 -0.03669,-0.02532 -0.0091,-0.0089 -0.01262,-0.02261 -0.0217,-0.03152 z m -14.904516,0.02739 c -0.005,0.005 -0.0063,0.01254 -0.01137,0.01757 -0.005,0.0051 -0.0126,0.0069 -0.01757,0.01189 z m -16.337504,0.293006 c -0.033,0.0076 -0.06641,0.04217 -0.09974,0.05064 -0.06381,0.01717 -0.130193,0.01006 -0.19327,0.02945 z m 26.7286,0.439249 0.0956,0.04496 c -0.01445,-0.007 -0.03252,-0.0044 -0.04703,-0.01137 -0.0178,-0.0083 -0.03073,-0.02548 -0.04858,-0.03359 z m 13.226579,0.101803 0.29663,0.173633 c -0.0539,-0.03464 -0.10574,-0.0129 -0.1602,-0.04496 -0.0506,-0.02939 -0.086,-0.101766 -0.13643,-0.128674 z m 14.55415,2.705261 h 5.2e-4 l 0.10542,0.0739 c -0.0206,-0.01505 -0.0479,-0.02025 -0.0687,-0.03514 -0.0151,-0.01049 -0.0221,-0.02839 -0.0372,-0.03876 z m -3.64008,1.659847 0.0682,0.0217 c -0.016,-0.005 -0.0291,-0.0049 -0.045,-0.0098 -0.007,-0.002 -0.0164,-0.0099 -0.0232,-0.01189 z M 59.064611,75.494099 c 0.04025,0.03306 0.08598,0.05938 0.126607,0.09198 0.0081,0.0062 0.01356,0.01921 0.0217,0.02532 z m 46.445229,0 c 0.0403,0.03308 0.0865,0.05935 0.12712,0.09198 0.007,0.0057 0.0117,0.01765 0.0191,0.02325 z m -32.474506,1.04283 -0.04289,0.03359 c 0.0075,-0.0055 0.01013,-0.01618 0.01757,-0.0217 0.0078,-0.0059 0.01754,-0.006 0.02532,-0.01189 z" style="color:#000;-inkscape-font-specification:Heavitas;fill:#eb8b47;stroke-linecap:round;stroke-linejoin:round;stroke-miterlimit:128;-inkscape-stroke:none;paint-order:stroke fill markers"/><path d="m 88.459027,61.383333 c -0.871245,0 -1.692279,0.167527 -2.462996,0.502621 -0.770717,0.335094 -1.440823,0.793068 -2.010483,1.373898 -0.569661,0.56966 -1.022188,1.239767 -1.357282,2.010484 -0.335094,0.770717 -0.50262,1.591751 -0.50262,2.462996 0,0.871245 0.167526,1.692279 0.50262,2.462996 0.335094,0.770716 0.787621,1.446527 1.357282,2.027357 0.56966,0.56966 1.239766,1.021931 2.010483,1.357025 0.770717,0.335094 1.591751,0.502621 2.462996,0.502621 0.871245,0 1.692279,-0.167527 2.462996,-0.502621 0.770717,-0.335094 1.440822,-0.787365 2.010485,-1.357025 0.58083,-0.58083 1.038802,-1.256641 1.373895,-2.027357 0.335099,-0.770717 0.502619,-1.591751 0.502619,-2.462996 0,-0.871245 -0.16752,-1.692279 -0.502619,-2.462996 -0.335093,-0.770717 -0.793065,-1.440824 -1.373895,-2.010484 -0.569663,-0.58083 -1.239768,-1.038804 -2.010485,-1.373898 -0.770717,-0.335094 -1.591751,-0.502621 -2.462996,-0.502621 z m -21.865032,0.05036 c -0.536151,0 -1.089041,0.06146 -1.6587,0.184328 -0.569661,0.111698 -1.089096,0.318126 -1.558228,0.619711 -0.457962,0.290415 -0.837621,0.686929 -1.139205,1.189571 -0.301585,0.502641 -0.452257,1.139549 -0.452257,1.910265 0,0.524982 0.07806,0.982956 0.234437,1.373899 0.167547,0.379774 0.385383,0.709124 0.653459,0.988368 0.268075,0.279246 0.569674,0.508234 0.904768,0.686951 0.346265,0.178716 0.692469,0.329643 1.038733,0.452511 0.346264,0.111698 0.681318,0.20091 1.005242,0.267929 0.335094,0.05585 0.625542,0.106158 0.871278,0.150838 0.256905,0.05585 0.508195,0.100454 0.75393,0.133963 0.245736,0.03351 0.458125,0.07837 0.636841,0.13422 0.189887,0.05585 0.340559,0.128462 0.452257,0.21782 0.111698,0.07819 0.167455,0.189702 0.167455,0.334909 0,0.279245 -0.128369,0.491634 -0.385275,0.636841 -0.256905,0.134037 -0.631116,0.200946 -1.122588,0.200946 -0.513811,0 -1.0667,-0.111769 -1.658699,-0.335166 -0.592,-0.223396 -1.189495,-0.530443 -1.792664,-0.921386 -0.08936,-0.05585 -0.189978,-0.07271 -0.301676,-0.05036 -0.111698,0.02234 -0.200909,0.07835 -0.267928,0.16771 l -1.290299,1.859646 c -0.06702,0.08936 -0.09477,0.195425 -0.0836,0.318293 0.01117,0.111698 0.06122,0.201165 0.150583,0.268184 0.312753,0.256906 0.653511,0.502492 1.022115,0.737058 0.379773,0.223395 0.787439,0.418929 1.223061,0.586476 0.435622,0.167547 0.904748,0.296172 1.407389,0.38553 0.502641,0.100528 1.04438,0.150582 1.62521,0.150582 0.714867,0 1.362927,-0.07261 1.943756,-0.21782 0.592,-0.156377 1.09458,-0.390812 1.507863,-0.703566 0.424453,-0.312756 0.753803,-0.70927 0.988369,-1.189571 0.234566,-0.491472 0.352039,-1.072367 0.352039,-1.742556 0,-0.714867 -0.145224,-1.306914 -0.435639,-1.776046 -0.279245,-0.480301 -0.631153,-0.865664 -1.055606,-1.156079 -0.413283,-0.301585 -0.860106,-0.524869 -1.340408,-0.670076 -0.480301,-0.156378 -0.92142,-0.273595 -1.323534,-0.351784 -0.07819,-0.01117 -0.256866,-0.03918 -0.536112,-0.08385 -0.279245,-0.05585 -0.569693,-0.128461 -0.871277,-0.21782 -0.301585,-0.08936 -0.56973,-0.195424 -0.804296,-0.318291 -0.234566,-0.122869 -0.351784,-0.262644 -0.351784,-0.419022 0,-0.156378 0.0446,-0.279043 0.133965,-0.368401 0.100527,-0.08936 0.223449,-0.150819 0.368656,-0.184329 0.145208,-0.04468 0.29588,-0.06698 0.452257,-0.06698 0.167547,-0.01118 0.312771,-0.01687 0.435639,-0.01687 0.413283,0 0.865809,0.07806 1.357281,0.234438 0.491471,0.145207 1.022057,0.396753 1.591718,0.754186 0.08936,0.06702 0.18972,0.08932 0.301419,0.06698 0.111698,-0.02234 0.201165,-0.07835 0.268184,-0.167712 l 1.306916,-1.859645 c 0.06702,-0.08936 0.09477,-0.189977 0.0836,-0.301675 -0.01117,-0.111698 -0.06148,-0.206612 -0.150838,-0.284801 -0.681358,-0.524982 -1.39607,-0.921495 -2.144447,-1.189571 -0.737207,-0.279245 -1.575097,-0.418765 -2.51336,-0.418764 z m 46.444125,0 c -0.53616,0 -1.08905,0.06146 -1.65871,0.184328 -0.56966,0.111698 -1.08909,0.318126 -1.55822,0.619711 -0.45797,0.290415 -0.83763,0.686929 -1.13921,1.189571 -0.30159,0.502641 -0.45251,1.139549 -0.45251,1.910265 0,0.524982 0.0783,0.982956 0.23469,1.373899 0.16754,0.379774 0.38538,0.709124 0.65345,0.988368 0.26808,0.279246 0.56968,0.508234 0.90477,0.686951 0.34627,0.178716 0.69248,0.329643 1.03874,0.452511 0.34626,0.111698 0.68132,0.20091 1.00524,0.267929 0.3351,0.05585 0.62554,0.106158 0.87128,0.150838 0.2569,0.05585 0.50819,0.100454 0.75393,0.133963 0.24573,0.03351 0.45786,0.07837 0.63658,0.13422 0.18989,0.05585 0.34082,0.128462 0.45251,0.21782 0.1117,0.07819 0.16746,0.189702 0.16746,0.334909 0,0.279245 -0.12837,0.491634 -0.38527,0.636841 -0.25691,0.134037 -0.63112,0.200946 -1.12259,0.200946 -0.51381,0 -1.0667,-0.111769 -1.6587,-0.335166 -0.592,-0.223396 -1.18949,-0.530443 -1.79267,-0.921386 -0.0894,-0.05585 -0.18997,-0.07271 -0.30167,-0.05036 -0.1117,0.02234 -0.20116,0.07835 -0.26818,0.16771 l -1.29005,1.859646 c -0.067,0.08936 -0.095,0.195425 -0.0839,0.318293 0.0112,0.111698 0.0615,0.201165 0.15084,0.268184 0.31276,0.256906 0.65351,0.502492 1.02211,0.737058 0.37978,0.223395 0.78744,0.418929 1.22307,0.586476 0.43562,0.167547 0.90474,0.296172 1.40739,0.38553 0.50264,0.10053 1.04438,0.150584 1.6252,0.150584 0.71487,0 1.36268,-0.07262 1.94351,-0.21782 0.592,-0.156378 1.09483,-0.390813 1.50812,-0.703567 0.42445,-0.312756 0.7538,-0.70927 0.98837,-1.18957 0.23456,-0.491472 0.35179,-1.072368 0.35179,-1.742556 0,-0.714868 -0.14523,-1.306915 -0.43565,-1.776046 -0.27925,-0.480302 -0.6309,-0.865665 -1.05535,-1.15608 -0.41328,-0.301584 -0.86011,-0.524868 -1.34041,-0.670076 -0.4803,-0.156377 -0.92168,-0.273595 -1.32379,-0.351784 -0.0782,-0.01117 -0.25687,-0.03918 -0.53611,-0.08385 -0.27925,-0.05585 -0.56969,-0.12846 -0.87128,-0.217819 -0.30159,-0.08936 -0.56947,-0.195425 -0.80404,-0.318292 -0.23456,-0.122869 -0.35204,-0.262644 -0.35204,-0.419022 0,-0.156377 0.0449,-0.279043 0.13422,-0.368401 0.10053,-0.08936 0.22345,-0.150819 0.36865,-0.184329 0.14522,-0.04468 0.29588,-0.06698 0.45227,-0.06698 0.16754,-0.01118 0.31276,-0.01688 0.43563,-0.01688 0.41328,0 0.86556,0.07806 1.35702,0.234437 0.49148,0.145208 1.02207,0.396753 1.59173,0.754187 0.0893,0.06702 0.18997,0.08932 0.30167,0.06698 0.1117,-0.02234 0.20117,-0.07835 0.26819,-0.167711 l 1.30667,-1.859646 c 0.067,-0.08936 0.095,-0.189978 0.0838,-0.301676 -0.0112,-0.111698 -0.0615,-0.206613 -0.15084,-0.284802 -0.68136,-0.524981 -1.39607,-0.921495 -2.14445,-1.18957 -0.73721,-0.279245 -1.5751,-0.418766 -2.51336,-0.418766 z m -89.855642,0.167458 c -0.111698,0 -0.206613,0.03916 -0.284802,0.117346 -0.07819,0.07819 -0.11709,0.173103 -0.11709,0.284802 v 11.460319 c 0,0.111698 0.0389,0.206613 0.11709,0.284801 0.07819,0.07819 0.173104,0.117091 0.284802,0.117091 h 2.496487 c 0.111698,0 0.206613,-0.0389 0.284801,-0.117091 0.07819,-0.07819 0.117347,-0.173103 0.117347,-0.284801 v -5.998216 c 0,-0.111698 0.03346,-0.173159 0.100472,-0.184328 0.07819,-0.02233 0.150801,0.01112 0.21782,0.100473 l 4.373007,6.149052 c 0.06702,0.08936 0.161934,0.167419 0.284801,0.234438 0.122868,0.06702 0.240341,0.100473 0.352039,0.100473 h 2.479614 c 0.111698,0 0.206613,-0.0389 0.284801,-0.117091 0.07819,-0.07819 0.117347,-0.173103 0.117347,-0.284801 V 62.0033 c 0,-0.111698 -0.03916,-0.206613 -0.117347,-0.284802 -0.07819,-0.07819 -0.173103,-0.117346 -0.284801,-0.117346 h -2.479614 c -0.111698,0 -0.206613,0.03916 -0.284801,0.117346 -0.07819,0.07819 -0.117346,0.173104 -0.117346,0.284802 v 5.998215 c 0,0.111699 -0.03916,0.17316 -0.117347,0.184329 -0.06702,0.01117 -0.133927,-0.02798 -0.200946,-0.117347 l -4.356389,-6.149052 c -0.06702,-0.08936 -0.161934,-0.161971 -0.284802,-0.21782 -0.122867,-0.06702 -0.240085,-0.100473 -0.351783,-0.100473 z m 12.934691,0 c -0.145208,0 -0.240122,0.05031 -0.284801,0.150837 -0.05585,0.100528 -0.05585,0.212298 0,0.335166 l 5.059955,11.409955 c 0.05585,0.100528 0.134165,0.189739 0.234693,0.267928 0.111698,0.06702 0.223212,0.100473 0.33491,0.100473 h 2.228559 c 0.111698,0 0.217764,-0.03345 0.318292,-0.100473 0.111698,-0.07819 0.195462,-0.1674 0.251311,-0.267928 l 5.110065,-11.477193 c 0.04468,-0.08936 0.03923,-0.178569 -0.01662,-0.267928 -0.05585,-0.100529 -0.145316,-0.150837 -0.268183,-0.150837 h -2.781287 c -0.111698,0 -0.223468,0.03916 -0.335167,0.117346 -0.100527,0.06702 -0.178587,0.150782 -0.234436,0.25131 l -2.932126,6.735274 c -0.05585,0.100529 -0.128461,0.150838 -0.21782,0.150838 -0.08936,0 -0.16197,-0.05031 -0.217819,-0.150838 l -2.948743,-6.735274 c -0.05585,-0.100528 -0.139613,-0.184291 -0.251311,-0.25131 -0.100529,-0.07819 -0.206594,-0.117346 -0.318293,-0.117346 z m 14.978665,0 c -0.111697,0 -0.206612,0.03916 -0.284801,0.117346 -0.07819,0.07819 -0.117091,0.173103 -0.117091,0.284802 v 11.460319 c 0,0.111698 0.0389,0.206613 0.117091,0.284801 0.07819,0.07819 0.173104,0.117091 0.284801,0.117091 h 8.528194 c 0.111698,0 0.206613,-0.0389 0.284802,-0.117091 0.07819,-0.07819 0.117346,-0.173103 0.117346,-0.284801 v -2.312159 c 0,-0.111698 -0.03916,-0.206868 -0.117346,-0.285057 -0.07819,-0.07819 -0.173104,-0.117091 -0.284802,-0.117091 h -5.210537 c -0.111699,0 -0.206613,-0.03916 -0.284802,-0.117346 -0.07819,-0.07819 -0.117346,-0.173103 -0.117346,-0.284802 v -0.63684 c 0,-0.111699 0.03916,-0.206613 0.117346,-0.284802 0.07819,-0.07819 0.173103,-0.11709 0.284802,-0.11709 h 4.540462 c 0.111697,0 0.206612,-0.03916 0.284801,-0.117347 0.07819,-0.07819 0.117346,-0.173103 0.117346,-0.284801 v -2.312157 c 0,-0.111698 -0.03916,-0.206613 -0.117346,-0.284802 -0.07819,-0.07819 -0.173104,-0.117346 -0.284801,-0.117346 h -4.540462 c -0.111699,0 -0.206613,-0.03916 -0.284802,-0.117346 -0.07819,-0.07819 -0.117346,-0.173104 -0.117346,-0.284802 v -0.703567 c 0,-0.111698 0.03916,-0.206868 0.117346,-0.285057 0.07819,-0.07819 0.173103,-0.117091 0.284802,-0.117091 h 5.210537 c 0.111698,0 0.206613,-0.03916 0.284802,-0.117346 0.07819,-0.07819 0.117346,-0.173104 0.117346,-0.284802 V 62.0033 c 0,-0.111698 -0.03916,-0.206613 -0.117346,-0.284802 -0.07819,-0.07819 -0.173104,-0.117346 -0.284802,-0.117346 z m 21.29543,0 c -0.111698,0 -0.206613,0.03916 -0.284801,0.117346 -0.07819,0.07819 -0.117347,0.173103 -0.117347,0.284802 v 2.278667 c 0,0.111698 0.03916,0.206613 0.117347,0.284802 0.07819,0.07819 0.173103,0.117345 0.284801,0.117345 h 2.379141 c 0.122868,0 0.217782,0.0389 0.284802,0.117092 0.07819,0.07819 0.117345,0.173359 0.117345,0.285057 v 8.377356 c 0,0.111698 0.03916,0.206613 0.117347,0.284801 0.07819,0.07819 0.173104,0.117091 0.284802,0.117091 h 2.513104 c 0.122868,0 0.217783,-0.0389 0.284801,-0.117091 0.07819,-0.07819 0.117347,-0.173103 0.117347,-0.284801 v -8.377355 c 0,-0.111698 0.03916,-0.206868 0.117346,-0.285057 0.07819,-0.07819 0.173104,-0.117091 0.284801,-0.117091 h 2.34565 c 0.122868,0 0.217783,-0.03916 0.284801,-0.117346 0.07819,-0.07819 0.117347,-0.173104 0.117347,-0.284802 V 62.0033 c 0,-0.111698 -0.03916,-0.206613 -0.117347,-0.284802 -0.06702,-0.07819 -0.161933,-0.117346 -0.284801,-0.117346 z m 24.562466,0 c -0.111698,0 -0.206873,0.03916 -0.28506,0.117346 -0.07819,0.07819 -0.11709,0.173103 -0.11709,0.284802 v 11.460319 c 0,0.111698 0.03893,0.206613 0.11709,0.284801 0.07819,0.07819 0.173362,0.117091 0.28506,0.117091 h 2.496232 c 0.111697,0 0.206865,-0.0389 0.285052,-0.117091 0.07819,-0.07819 0.117098,-0.173103 0.117098,-0.284801 v -2.714307 c 0,-0.111698 0.03915,-0.206612 0.117345,-0.284801 0.07819,-0.07819 0.173103,-0.117347 0.284793,-0.117347 h 0.36866 c 0.1117,0 0.22892,0.03346 0.35179,0.100473 0.12286,0.05585 0.21778,0.128462 0.28479,0.21782 0.34627,0.491472 0.69273,0.977452 1.03899,1.457754 0.35744,0.480302 0.7148,0.954876 1.07223,1.424007 0.067,0.08936 0.16194,0.167675 0.2848,0.234693 0.13404,0.05585 0.25696,0.0836 0.36866,0.0836 h 3.11646 c 0.11169,0 0.18405,-0.05006 0.21756,-0.150582 0.0335,-0.111698 0.017,-0.212316 -0.0501,-0.301675 -0.36861,-0.491471 -0.78742,-1.033209 -1.25656,-1.625209 -0.46913,-0.592 -0.91595,-1.167191 -1.34041,-1.725682 -0.067,-0.08936 -0.0893,-0.178825 -0.067,-0.268183 0.0335,-0.100529 0.095,-0.184293 0.18433,-0.251311 0.26808,-0.167547 0.50821,-0.374232 0.72044,-0.619967 0.21223,-0.256906 0.39635,-0.54165 0.55274,-0.854405 0.15636,-0.312754 0.27384,-0.64236 0.35203,-0.988624 0.0894,-0.357434 0.13396,-0.714791 0.13396,-1.072224 0,-0.647849 -0.11177,-1.239895 -0.33516,-1.776046 -0.21222,-0.536151 -0.51383,-0.999573 -0.90476,-1.390517 -0.37978,-0.390943 -0.84321,-0.692542 -1.39053,-0.904769 -0.54732,-0.223396 -1.14507,-0.335165 -1.79292,-0.335165 z m -79.350446,0.01688 c -0.122869,0 -0.223487,0.0389 -0.301676,0.117091 -0.06702,0.07819 -0.100472,0.173103 -0.100472,0.284802 v 11.443701 c 0,0.111698 0.03345,0.206613 0.100472,0.284801 0.07819,0.07819 0.178807,0.117091 0.301676,0.117091 h 2.529977 c 0.111698,0 0.206613,-0.0389 0.284802,-0.117091 0.07819,-0.07819 0.117346,-0.173103 0.117346,-0.284801 V 62.019919 c 0,-0.111699 -0.03916,-0.206613 -0.117346,-0.284802 -0.07819,-0.07819 -0.173104,-0.117091 -0.284802,-0.117091 z m 70.855743,2.965356 c 0.413283,0 0.804093,0.08947 1.172697,0.268184 0.368603,0.167547 0.692506,0.396535 0.971751,0.68695 0.279245,0.279244 0.497081,0.614298 0.653459,1.005241 0.156376,0.379774 0.234692,0.776288 0.234692,1.189571 0,0.424452 -0.07832,0.82667 -0.234692,1.206443 -0.156378,0.379773 -0.374214,0.714827 -0.653459,1.005242 -0.279245,0.290415 -0.603148,0.524851 -0.971751,0.703567 -0.368604,0.167547 -0.759414,0.251566 -1.172697,0.251566 -0.413283,0 -0.804349,-0.08402 -1.172952,-0.251566 -0.368604,-0.178716 -0.692507,-0.413152 -0.971751,-0.703567 -0.268076,-0.290415 -0.480208,-0.625469 -0.636585,-1.005242 -0.156377,-0.379773 -0.234693,-0.781991 -0.234693,-1.206443 0,-0.413283 0.07832,-0.809797 0.234693,-1.189571 0.156377,-0.390943 0.368509,-0.725997 0.636585,-1.005241 0.279244,-0.290415 0.603147,-0.519403 0.971751,-0.68695 0.368603,-0.178717 0.759669,-0.268184 1.172952,-0.268184 z m 11.795223,0.100729 h 1.77605 c 0.23457,0 0.4301,0.05006 0.58648,0.150582 0.16755,0.08936 0.29592,0.206832 0.38527,0.352039 0.10053,0.134037 0.16769,0.279262 0.2012,0.435638 0.0447,0.145209 0.067,0.273578 0.067,0.385275 0,0.212226 -0.0391,0.396608 -0.11734,0.552986 -0.0782,0.156377 -0.17881,0.290449 -0.30167,0.402147 -0.12288,0.100529 -0.25695,0.178589 -0.40215,0.234438 -0.14521,0.04468 -0.28473,0.06698 -0.41877,0.06698 h -1.77605 c -0.1117,0 -0.20661,-0.03916 -0.284796,-0.117346 -0.07819,-0.07819 -0.117345,-0.173103 -0.117345,-0.284802 v -1.775791 c 0,-0.111698 0.03915,-0.206869 0.117345,-0.285057 0.07819,-0.07819 0.173096,-0.117091 0.284796,-0.117091 z" style="color:#000;-inkscape-font-specification:Heavitas;fill:#fff;stroke-linecap:round;stroke-linejoin:round;stroke-miterlimit:128;-inkscape-stroke:none;paint-order:stroke fill markers"/></svg>