<svg xmlns="http://www.w3.org/2000/svg" xml:space="preserve" width="512" height="512" viewBox="0 0 135.46666 135.46667"><path d="M 135.46666,0 H 123.49426 67.733328 L 95.613796,27.880468 0,123.49427 v 11.97239 h 11.97239 l 95.6138,-95.613796 27.88047,27.880468 V 11.972396 Z" style="fill:#987de8;fill-opacity:1;stroke:none;stroke-width:33.8667;stroke-miterlimit:128;stroke-dasharray:none;stroke-opacity:1;paint-order:stroke fill markers"/><path d="m 46.533076,55.033333 c -1.704325,0 -3.409961,0.341847 -4.972306,1.021126 -0.825478,0.358904 -1.480887,0.993843 -2.213301,1.51567 -0.1799,-0.292728 -0.32318,-0.628073 -0.54467,-0.849561 -0.819082,-0.819098 -2.241075,-1.396297 -3.372921,-1.396297 h -3.306775 c -1.131858,0 -2.553872,0.577257 -3.37292,1.396297 -0.125303,0.125303 -0.196071,0.330027 -0.309025,0.480591 -0.496418,-0.553107 -1.053042,-1.004488 -1.593701,-1.267623 -0.624119,-0.320138 -1.408824,-0.609265 -2.34146,-0.609265 h -3.351733 c -1.131859,0 -2.550618,0.574003 -3.372921,1.396297 -0.819064,0.819056 -1.396814,2.241579 -1.396814,3.373438 v 15.27917 c 0,1.131853 0.577775,2.553881 1.396814,3.372921 0.81905,0.819049 2.234619,1.396297 3.372921,1.396297 h 3.330029 c 1.138302,0 2.553855,-0.577224 3.372921,-1.396297 0.129995,-0.129995 0.201866,-0.341348 0.318327,-0.498161 0.468154,0.526939 0.972231,0.9829 1.451591,1.244369 0.637585,0.347779 1.501802,0.650089 2.495971,0.650089 h 3.306775 c 1.138308,0 2.557103,-0.580463 3.372921,-1.396297 0.218393,-0.218393 0.358864,-0.549772 0.536918,-0.837675 0.733986,0.518711 1.395139,1.144691 2.221053,1.503784 1.562347,0.679282 3.267981,1.021643 4.972306,1.021643 1.704327,0 3.408095,-0.342224 4.970756,-1.021643 0.877957,-0.38172 1.58879,-1.036239 2.361613,-1.597835 0.192071,0.326502 0.354498,0.688844 0.59738,0.931726 0.815794,0.815794 2.23462,1.396297 3.372921,1.396297 h 7.082255 c 1.026398,0 2.046325,-0.102932 3.041158,-0.324011 0.02209,-0.005 0.04414,-0.01016 0.06615,-0.0155 0.765338,-0.183015 1.463465,-0.606215 2.176095,-0.978752 0.894099,0.827236 2.250056,1.318266 3.273185,1.318266 H 84.62119 c 0.408488,0 0.856949,-0.14587 1.296562,-0.279053 0.438993,0.132822 0.887111,0.279053 1.295011,0.279053 h 11.371399 c 1.060968,0 2.324808,-0.528127 3.160018,-1.259355 0.38351,0.184661 0.75034,0.398586 1.15031,0.552421 0.84242,0.324 1.72041,0.556964 2.61741,0.71882 0.96168,0.188603 1.94545,0.279052 2.94711,0.279052 1.23983,0 2.4463,-0.124788 3.61735,-0.417545 0.0181,-0.0045 0.0362,-0.0092 0.0543,-0.01395 1.21879,-0.321943 2.40796,-0.852642 3.45716,-1.640727 1.09114,-0.80897 2.00177,-1.906732 2.59364,-3.118672 0.006,-0.01117 0.0121,-0.02237 0.0181,-0.03359 0.63439,-1.329178 0.88057,-2.758247 0.88057,-4.146517 0,-1.503359 -0.32017,-3.10162 -1.18339,-4.528922 -0.21665,-0.368595 -0.60879,-0.612888 -0.87902,-0.95343 l 0.54674,-0.779281 c 0.66653,-0.888281 1.04635,-2.274226 0.93741,-3.363102 -0.11583,-1.157777 -0.81896,-2.437821 -1.62677,-3.144511 -0.0659,-0.05808 -0.13367,-0.114086 -0.20309,-0.167948 -1.21437,-0.93566 -2.5526,-1.681959 -3.9765,-2.197282 -1.52982,-0.574438 -3.15831,-0.828374 -4.81832,-0.828374 -1.02009,0 -2.03964,0.121836 -3.0489,0.335897 -1.05632,0.209813 -2.05579,0.666715 -3.00189,1.19941 -0.8342,-0.76752 -2.157503,-1.310514 -3.242178,-1.310514 H 87.212763 c -1.131864,0 -2.550585,0.573954 -3.37292,1.396297 -0.819046,0.819054 -1.396297,2.241579 -1.396297,3.373438 h -0.848011 c 0,-1.138302 -0.580488,-2.557636 -1.396297,-3.373438 -0.819066,-0.819073 -2.241081,-1.396297 -3.372921,-1.396297 h -3.351733 c -1.057395,0 -2.504848,0.504454 -3.396692,1.396297 -0.01634,0.01743 -0.03253,0.035 -0.04858,0.05271 -0.779724,-0.445719 -1.57135,-0.889484 -2.420007,-1.085722 -0.990277,-0.242536 -2.007198,-0.363285 -3.025138,-0.363285 h -6.748425 c -1.131858,0 -2.553874,0.577257 -3.372921,1.396297 -0.246335,0.246334 -0.411714,0.613676 -0.605648,0.945679 -0.771295,-0.565317 -1.475518,-1.230123 -2.353345,-1.611788 -1.562659,-0.679416 -3.266429,-1.021126 -4.970756,-1.021126 z m 54.789424,1.796789 c -0.004,0.0025 -0.006,0.0073 -0.0103,0.0098 -0.004,0.0027 -0.009,0.003 -0.0134,0.0057 z m -30.521655,0.273369 0.04703,0.03514 c -0.0082,-0.006 -0.01917,-0.006 -0.02739,-0.01188 -0.0084,-0.006 -0.01123,-0.01731 -0.01964,-0.02325 z m -15.338081,1.642793 0.05684,0.05839 c -0.0089,-0.0091 -0.02258,-0.01265 -0.03152,-0.0217 -0.01073,-0.0106 -0.01455,-0.02613 -0.02532,-0.03669 z m -17.888314,0.02894 c -0.005,0.005 -0.0069,0.01255 -0.01188,0.01757 -0.005,0.005 -0.01261,0.0069 -0.01757,0.01189 z m 68.03306,0.767912 c -0.0315,0.0073 -0.0618,0.04058 -0.0935,0.04858 -0.0656,0.01778 -0.13461,0.0095 -0.19947,0.02946 z m 9.6423,4.114994 0.10542,0.07441 c -0.0207,-0.0151 -0.0474,-0.02019 -0.0682,-0.03514 -0.015,-0.01042 -0.0221,-0.02895 -0.0372,-0.03927 z m -16.515269,13.33407 c 0.03987,0.03275 0.08637,0.05954 0.126607,0.09198 0.0075,0.0057 0.01217,0.01764 0.01964,0.02325 z" style="color:#000;-inkscape-font-specification:Heavitas;fill:#987de8;stroke-linecap:round;stroke-linejoin:round;stroke-miterlimit:128;-inkscape-stroke:none;paint-order:stroke fill markers"/><path d="m 46.532748,59.266665 c -1.16166,0 -2.256031,0.223369 -3.283653,0.670161 -1.027623,0.446792 -1.921439,1.057425 -2.680987,1.831865 -0.759546,0.759548 -1.362574,1.653023 -1.809367,2.680646 -0.446792,1.027622 -0.670161,2.122334 -0.670161,3.283994 0,1.16166 0.223369,2.256373 0.670161,3.283996 0.446793,1.027622 1.049821,1.928361 1.809367,2.702801 0.759548,0.759548 1.653364,1.362916 2.680987,1.809708 1.027622,0.446793 2.121993,0.670162 3.283653,0.670162 1.16166,0 2.256373,-0.223369 3.283995,-0.670162 1.027622,-0.446792 1.921439,-1.05016 2.680986,-1.809708 0.774441,-0.77444 1.385073,-1.675179 1.831866,-2.702801 0.446792,-1.027623 0.67016,-2.122336 0.67016,-3.283996 0,-1.16166 -0.223368,-2.256372 -0.67016,-3.283994 -0.446793,-1.027623 -1.057425,-1.921098 -1.831866,-2.680646 -0.759547,-0.77444 -1.653364,-1.385073 -2.680986,-1.831865 -1.027622,-0.446792 -2.122335,-0.670161 -3.283995,-0.670161 z m 61.344652,0.06681 c -0.71487,0 -1.45206,0.08195 -2.2116,0.245772 -0.75956,0.14893 -1.4518,0.42451 -2.0773,0.826623 -0.61062,0.38722 -1.11718,0.915905 -1.51928,1.586094 -0.40212,0.670189 -0.60302,1.519059 -0.60302,2.546681 0,0.699975 0.10408,1.310607 0.31258,1.831865 0.2234,0.506364 0.51385,0.945839 0.87128,1.318166 0.35744,0.372327 0.75957,0.677644 1.20636,0.915932 0.46169,0.23829 0.9233,0.439185 1.38498,0.603009 0.46169,0.148931 0.90843,0.26822 1.34033,0.357579 0.44679,0.07447 0.83405,0.141544 1.1617,0.201116 0.34255,0.07447 0.67759,0.13394 1.00525,0.178619 0.32764,0.04467 0.61082,0.104153 0.84912,0.178619 0.25318,0.07447 0.45408,0.171282 0.603,0.290426 0.14894,0.104251 0.22362,0.253278 0.22362,0.446888 0,0.372326 -0.1715,0.65517 -0.51404,0.84878 -0.34254,0.178716 -0.84149,0.268269 -1.49678,0.268269 -0.68509,0 -1.42228,-0.149027 -2.2116,-0.446888 -0.78934,-0.297861 -1.586,-0.707599 -2.39023,-1.228857 -0.11915,-0.07447 -0.25331,-0.0966 -0.40223,-0.06681 -0.14894,0.02979 -0.26788,0.10413 -0.35724,0.223274 l -1.7204,2.479869 c -0.0894,0.119146 -0.12636,0.260566 -0.11146,0.42439 0.0149,0.148932 0.082,0.26788 0.20111,0.357238 0.41701,0.342541 0.87101,0.67033 1.36248,0.983085 0.50637,0.297862 1.04992,0.558573 1.63075,0.781969 0.58084,0.223396 1.20634,0.394554 1.87652,0.5137 0.67019,0.134036 1.39251,0.201116 2.16695,0.201116 0.95315,0 1.81723,-0.09682 2.59167,-0.290426 0.78934,-0.208504 1.45944,-0.521424 2.01049,-0.93843 0.56593,-0.417007 1.00507,-0.945692 1.31782,-1.586094 0.31276,-0.655296 0.46939,-1.429481 0.46939,-2.323067 0,-0.953157 -0.19363,-1.742553 -0.58085,-2.368062 -0.37233,-0.640402 -0.84154,-1.15422 -1.40748,-1.54144 -0.55104,-0.402112 -1.14681,-0.700165 -1.78721,-0.893775 -0.6404,-0.208503 -1.22856,-0.364793 -1.76471,-0.469045 -0.10425,-0.01489 -0.34249,-0.05224 -0.71481,-0.111807 -0.37234,-0.07446 -0.7596,-0.170941 -1.16171,-0.290085 -0.40211,-0.119144 -0.75964,-0.260908 -1.07239,-0.424731 -0.31276,-0.163824 -0.46905,-0.349851 -0.46905,-0.558354 0,-0.208503 0.0595,-0.372398 0.17862,-0.491542 0.13403,-0.119145 0.29793,-0.201092 0.49154,-0.245772 0.19361,-0.05957 0.39451,-0.08931 0.60301,-0.08931 0.2234,-0.01489 0.41703,-0.02216 0.58085,-0.02216 0.55105,0 1.15441,0.10408 1.80971,0.312583 0.6553,0.19361 1.36274,0.528663 2.12229,1.005242 0.11914,0.08936 0.25296,0.119095 0.40189,0.08931 0.14893,-0.02979 0.26822,-0.104129 0.35758,-0.223274 l 1.74256,-2.479869 c 0.0894,-0.119144 0.12636,-0.252962 0.11146,-0.401892 -0.0149,-0.14893 -0.0816,-0.275483 -0.20077,-0.379735 -0.90848,-0.699975 -1.86177,-1.22866 -2.85961,-1.586094 -0.98294,-0.372327 -2.10012,-0.558695 -3.35114,-0.558695 z M 21.155247,59.55709 c -0.148931,0 -0.275824,0.05187 -0.380076,0.156121 -0.104252,0.104251 -0.156122,0.230804 -0.156122,0.379735 v 15.280427 c 0,0.148932 0.05187,0.275484 0.156122,0.379736 0.104252,0.104252 0.231145,0.156462 0.380076,0.156462 h 3.328308 c 0.148931,0 0.275825,-0.05221 0.380076,-0.156462 0.104252,-0.104252 0.156122,-0.230804 0.156122,-0.379736 v -7.99762 c 0,-0.14893 0.04495,-0.230878 0.134305,-0.245771 0.104251,-0.02979 0.201067,0.01516 0.290426,0.134305 l 5.830334,8.198397 c 0.08936,0.119144 0.216252,0.223565 0.380077,0.312924 0.163824,0.08936 0.320114,0.133964 0.469045,0.133964 h 3.306152 c 0.14893,0 0.275484,-0.05221 0.379734,-0.156462 0.104252,-0.104252 0.156462,-0.230804 0.156462,-0.379736 V 60.092947 c 0,-0.148931 -0.05221,-0.275484 -0.156462,-0.379735 -0.10425,-0.104252 -0.230804,-0.156121 -0.379734,-0.156121 H 32.12394 c -0.148931,0 -0.275484,0.05187 -0.379736,0.156121 -0.104251,0.104251 -0.156463,0.230804 -0.156463,0.379735 v 7.997622 c 0,0.148931 -0.05221,0.230878 -0.156461,0.245771 -0.08936,0.01489 -0.17857,-0.03698 -0.267928,-0.156121 l -5.808519,-8.198738 c -0.08936,-0.119145 -0.215911,-0.215961 -0.379735,-0.290426 -0.163824,-0.08936 -0.320114,-0.133964 -0.469045,-0.133964 z m 36.681616,0 c -0.148931,0 -0.275484,0.05187 -0.379736,0.156121 -0.104251,0.104251 -0.156462,0.230804 -0.156462,0.379735 v 15.280427 c 0,0.148932 0.05221,0.275484 0.156462,0.379736 0.104252,0.104252 0.230805,0.156462 0.379736,0.156462 h 7.081688 c 0.744654,0 1.452103,-0.07434 2.122292,-0.223274 0.685082,-0.163824 1.28811,-0.432139 1.809367,-0.804466 0.521258,-0.38722 0.930654,-0.893432 1.228515,-1.518942 0.312756,-0.640402 0.469386,-1.444665 0.469386,-2.412716 0,-0.476579 -0.06708,-0.901184 -0.201116,-1.273511 -0.119145,-0.372327 -0.28304,-0.699776 -0.491543,-0.982744 -0.19361,-0.282969 -0.409374,-0.521206 -0.647663,-0.714816 -0.23829,-0.19361 -0.476868,-0.357506 -0.715157,-0.491543 -0.297862,-0.148931 -0.312731,-0.320089 -0.04465,-0.513699 0.38722,-0.282968 0.744747,-0.670232 1.072394,-1.161704 0.342542,-0.491472 0.5137,-1.072367 0.5137,-1.742556 0,-0.834012 -0.15629,-1.534197 -0.469044,-2.100134 -0.297864,-0.58083 -0.699996,-1.0497 -1.206362,-1.407134 -0.491471,-0.357434 -1.064762,-0.610881 -1.720058,-0.759812 -0.655295,-0.163824 -1.34027,-0.24543 -2.055138,-0.24543 z m 15.637665,0 c -0.163824,0 -0.297982,0.05187 -0.402233,0.156121 -0.08936,0.104251 -0.133964,0.230804 -0.133964,0.379735 v 15.280427 c 0,0.148932 0.04461,0.275484 0.133964,0.379736 0.104251,0.104252 0.238409,0.156462 0.402233,0.156462 H 84.62184 c 0.14893,0 0.275825,-0.05221 0.380075,-0.156462 0.10425,-0.104252 0.15612,-0.230804 0.15612,-0.379736 V 72.33515 c 0,-0.14893 -0.05187,-0.275483 -0.15612,-0.379735 -0.10425,-0.104251 -0.231145,-0.156462 -0.380075,-0.156462 h -6.724112 c -0.163823,0 -0.297981,-0.05187 -0.402233,-0.156121 -0.08936,-0.104252 -0.133964,-0.231145 -0.133964,-0.380076 v -11.16981 c 0,-0.148931 -0.05221,-0.275484 -0.156462,-0.379735 -0.104251,-0.104252 -0.230804,-0.156121 -0.379735,-0.156121 z m 13.738987,0 c -0.14893,0 -0.275825,0.05187 -0.380075,0.156121 -0.10425,0.104251 -0.15612,0.230804 -0.15612,0.379735 v 15.280427 c 0,0.148932 0.05187,0.275484 0.15612,0.379736 0.10425,0.104252 0.231145,0.156462 0.380075,0.156462 h 11.370587 c 0.148927,0 0.27582,-0.05221 0.38008,-0.156462 0.104247,-0.104252 0.15612,-0.230804 0.15612,-0.379736 v -3.082877 c 0,-0.148931 -0.05187,-0.275484 -0.15612,-0.379736 -0.10426,-0.104251 -0.231153,-0.156462 -0.38008,-0.156462 h -6.947386 c -0.148934,0 -0.27548,-0.05187 -0.379734,-0.15612 -0.104253,-0.104252 -0.15646,-0.231146 -0.15646,-0.380077 v -0.84878 c 0,-0.148931 0.0522,-0.275483 0.15646,-0.379735 0.104254,-0.104252 0.2308,-0.156462 0.379734,-0.156462 h 6.053946 c 0.148934,0 0.275487,-0.05221 0.37974,-0.156462 0.104254,-0.104252 0.15646,-0.230804 0.15646,-0.379736 v -3.082878 c 0,-0.14893 -0.0522,-0.275484 -0.15646,-0.379736 -0.104253,-0.10425 -0.230806,-0.156461 -0.37974,-0.156461 h -6.053946 c -0.148934,0 -0.27548,-0.05187 -0.379734,-0.156121 -0.104253,-0.104252 -0.15646,-0.230804 -0.15646,-0.379736 v -0.938429 c 0,-0.148931 0.0522,-0.275484 0.15646,-0.379736 0.104254,-0.104251 0.2308,-0.156462 0.379734,-0.156462 h 6.947386 c 0.148927,0 0.27582,-0.05221 0.38008,-0.156462 0.104247,-0.104251 0.15612,-0.230804 0.15612,-0.379735 v -3.038224 c 0,-0.148931 -0.05187,-0.275484 -0.15612,-0.379735 -0.10426,-0.104252 -0.231153,-0.156121 -0.38008,-0.156121 z m -40.680767,3.976313 c 0.551044,0 1.072466,0.11929 1.563938,0.357579 0.491471,0.223396 0.92334,0.528712 1.295667,0.915932 0.372327,0.372327 0.662775,0.819065 0.871278,1.340322 0.208503,0.506365 0.312923,1.035051 0.312923,1.586094 0,0.565938 -0.10442,1.101886 -0.312923,1.608251 -0.208503,0.506365 -0.498951,0.953443 -0.871278,1.340663 -0.372327,0.387221 -0.804196,0.699801 -1.295667,0.93809 -0.491472,0.223397 -1.012894,0.335081 -1.563938,0.335081 -0.551044,0 -1.072124,-0.111684 -1.563596,-0.335081 -0.491471,-0.238289 -0.92334,-0.550869 -1.295668,-0.93809 -0.357433,-0.38722 -0.640617,-0.834298 -0.849121,-1.340663 -0.208503,-0.506365 -0.312583,-1.042313 -0.312583,-1.608251 0,-0.551043 0.10408,-1.079729 0.312583,-1.586094 0.208504,-0.521257 0.491688,-0.967995 0.849121,-1.340322 0.372328,-0.38722 0.804197,-0.692536 1.295668,-0.915932 0.491472,-0.238289 1.012552,-0.357579 1.563596,-0.357579 z m 15.727315,0.133964 h 2.122292 c 0.19361,0 0.394505,0.09682 0.603008,0.290426 0.223396,0.19361 0.335081,0.424584 0.335081,0.692659 0,0.282969 -0.08921,0.54368 -0.267928,0.781968 -0.178717,0.223397 -0.416955,0.335082 -0.714816,0.335082 h -2.077637 c -0.14893,0 -0.275484,-0.05221 -0.379735,-0.156462 -0.104251,-0.104252 -0.156462,-0.230806 -0.156462,-0.379736 v -1.027739 c 0,-0.148931 0.05221,-0.275484 0.156462,-0.379736 0.104251,-0.104251 0.230805,-0.156462 0.379735,-0.156462 z m 0,5.786021 h 2.345565 c 0.38722,0 0.692537,0.141422 0.915933,0.424391 0.238289,0.268075 0.357578,0.53639 0.357578,0.804465 0,0.297862 -0.119289,0.558232 -0.357578,0.781628 -0.23829,0.223397 -0.491396,0.335081 -0.759471,0.335081 h -2.502027 c -0.14893,0 -0.275484,-0.05187 -0.379735,-0.156121 -0.104251,-0.104252 -0.156462,-0.231145 -0.156462,-0.380076 v -1.27317 c 0,-0.148931 0.05221,-0.275484 0.156462,-0.379736 0.104251,-0.104252 0.230805,-0.156462 0.379735,-0.156462 z" style="color:#000;-inkscape-font-specification:Heavitas;fill:#fff;stroke-linecap:round;stroke-linejoin:round;stroke-miterlimit:128;-inkscape-stroke:none;paint-order:stroke fill markers"/></svg>