<svg xmlns="http://www.w3.org/2000/svg" xml:space="preserve" width="512" height="512" viewBox="0 0 135.46666 135.46667"><path fill="#fff" d="M62.708877 135.38764c-2.93948-.27349-7.132462-.93381-9.991526-1.57349-24.237873-5.42293-44.3606652-24.94845-50.4873986-48.988866-3.05064609-11.970295-2.97215884-23.412514.2410115-35.135717C7.4672423 31.460722 20.54125 15.656796 37.835995 6.9401422 51.691647-.04318849 68.36244-1.8509576 83.883676 1.9467637 95.91661 4.8909704 106.56248 10.936314 115.52116 19.912368c10.15026 10.169941 16.72667 22.860283 19.01915 36.700791 3.59325 21.693762-3.37541 43.295377-19.01732 58.950351-10.57056 10.57939-23.903808 17.2724-38.521123 19.33681-2.927542.41345-11.825977.71685-14.29299.48732zm11.910825-24.29507v-4.06406l1.073677-.32195c1.639405-.49158 4.765686-2.18868 6.518586-3.53862 5.928353-4.565509 9.211595-11.227286 9.170697-18.607559-.03456-6.237441-2.481058-12.045894-6.962993-16.531513-4.392088-4.3957-9.424531-6.57537-16.474697-7.135583-3.485-.276922-5.538715-1.164493-7.466052-3.226665-1.820518-1.947882-2.633606-3.874609-2.753546-6.524913-.172398-3.809488 1.138977-6.672619 3.940242-8.602739 4.655451-3.207687 11.684171-2.039028 14.541793 2.417849.981454 1.530721 1.588513 3.369262 1.588513 4.810976v1.01751h13.80171l-.175822-1.52319c-.096707-.837755-.342631-2.27192-.546508-3.187035-1.638009-7.352321-7.512864-14.315359-14.270001-16.913198l-1.979005-.760846-.0033-4.039764-.0033-4.039764h-13.76362l-.0029 4.039764-.0029 4.039764-1.968034.738164c-4.042999 1.516435-8.544788 5.176459-11.083848 9.011339-2.499913 3.775755-3.699114 7.875605-3.695653 12.634766.0046 6.34106 2.364818 12.007416 6.918798 16.610567 4.375718 4.422964 9.424199 6.626306 16.463146 7.185119 3.348468.265831 5.132922.978456 7.128804 2.846905 3.546376 3.319946 4.250303 8.947861 1.627215 13.009625-2.946948 4.56325-9.860791 5.749927-14.575157 2.501648-2.363077-1.628202-3.985754-4.573628-3.985754-7.234804v-1.01153H43.866494l.171863 1.390738c.528038 4.272938 1.670472 7.62273 3.65086 10.704882 2.878238 4.479507 7.016594 7.953567 11.508625 9.661237l1.650397.62741.0039 4.03976.0039 4.03977h13.76362z"/></svg>