<svg xmlns="http://www.w3.org/2000/svg" xml:space="preserve" width="512" height="512" viewBox="0 0 135.46666 135.46667"><path fill="#fff" d="M131.62922 115.21802c-2.15732 1.29125-4.81497 1.53634-7.2526.66883l-1.48612-.52888-13.65108-13.45997c-7.5081-7.402986-13.464637-13.234264-13.236753-12.958395.704094.85235 1.413206 3.173244 1.413207 4.625361 0 4.419457-3.808467 8.225264-8.231047 8.225234-2.191905 0-3.977295-.79637-6.296243-2.808441-1.091335-.946911-1.791193-1.502545-1.555242-1.234744.705668.80092 1.427875 3.132965 1.427876 4.610695 0 4.41946-3.808468 8.22526-8.231048 8.22523-2.191906 0-3.977294-.79638-6.296243-2.80844-1.091335-.94691-1.791194-1.50255-1.555242-1.23474.703082.79798 1.396855 3.08395 1.39784 4.60586.0029 4.47481-3.723269 8.20098-8.200979 8.20098-.783208.00007-2.092825-.23794-2.910195-.52882l-1.486124-.52889-16.394861-16.39485-16.39486-16.394865-.92668-1.941168c-1.101036-2.306402-1.683441-4.695061-1.718021-7.04624l-.02522-1.715014L39.54457 55.290032l19.524987-19.506723 24.897162 4.38069c13.69344 2.409382 25.410323 4.574114 26.037513 4.810519 1.64371.619548 3.75199 2.748147 4.36829 4.410383.65496 1.766471.68248 4.196251.068 5.996835-.44599 1.306703-.75019 1.76217-2.00132 2.996461-1.23956 1.222875-1.71381 1.531555-2.96698 1.93113-1.88359.600575-1.80135.604009-11.572638-.483443l-8.172262-.909497 22.35187 22.450538 22.35187 22.450535.52889 1.48613c1.0248 2.87961.47543 5.95846-1.46855 8.23027-.54953.64217-1.38754 1.4-1.86213 1.68416zM11.613503 71.125881c-.285873.11713-.89904.222805-1.362593.234834-1.6242197.04215-2.3250662-.442019-6.0907397-4.207693-3.1599893-3.15999-3.55855234-3.63406-3.89585534-4.633911-.206659-.61259-.315116-1.504155-.241018-1.981255.132673-.854244.461798-1.195983 21.61099404-22.439144 20.662421-20.754225 21.513343-21.582859 22.454622-21.866483.578352-.174267 1.470927-.142981 2.183123.07652 1.135347.349919 1.412565.579111 4.810803 3.977349 3.398237 3.398238 3.627432 3.675453 3.977348 4.810803.218987.710523.250766 1.604172.07747 2.178351-.281568.932881-1.18661 1.865369-21.649117 22.305624-11.745382 11.73264-21.589164 21.427877-21.875037 21.545005z"/></svg>