<svg xmlns="http://www.w3.org/2000/svg" xml:space="preserve" width="512" height="512" viewBox="0 0 135.46666 135.46667"><path fill="#fff" d="M67.966448 19.262549c-1.120583-.01392-2.22384.04577-2.817773.179745-.03276.0099-.05915.01679-.09601.03041-.125694.04641-.314929.120236-.554168.21388-.478477.187294-1.159137.459057-2.009723.804316-1.701174.690514-4.087701 1.672905-6.979096 2.87271-5.782789 2.399609-13.588724 5.668819-22.013621 9.226701L3.2360661 45.370821l-1.2358093 1.225676c-2.66701037 2.645521-2.66701037 6.361434 0 9.006954l1.2358093 1.227809L33.496061 69.61178c8.425636 3.559104 16.209725 6.827474 21.959217 9.222433 2.874746 1.19748 5.242378 2.177124 6.922559 2.86471.840093.343793 1.508455.613817 1.977189.800049.234364.09312.419906.165374.542434.211746.02781.01053.04802.01547.0768.02453.929225.21617 4.925573.194145 5.884095-.05867-.353336.09319.205597-.07632.717912-.278417.512314-.202107 1.231046-.492201 2.11853-.854454 1.774965-.724502 4.228633-1.74029 7.132172-2.949514 5.807079-2.418449 13.412688-5.612785 21.007161-8.819209 7.59448-3.206426 15.17953-6.424641 20.94903-8.89388 2.88474-1.234621 5.31713-2.283667 7.06389-3.046054.87339-.381195 1.5763-.691734 2.07213-.915257.49582-.22352 1.03943-.530686.66138-.298152.71843-.441896 2.36356-2.524726 2.59642-3.225799.38625-1.162902.38625-3.42938 0-4.592282-.23286-.701073-1.87799-2.78337-2.59642-3.225265.37805.232534-.16556-.07463-.66138-.298152-.49583-.223522-1.19874-.534062-2.07213-.915256-1.74676-.762388-4.17915-1.811433-7.06389-3.046054-5.7695-2.469241-13.35455-5.687455-20.94903-8.89388-7.594469-3.206428-15.200078-6.401296-21.007157-8.819745-2.903539-1.209225-5.357206-2.224479-7.132172-2.948982-.887484-.362251-1.606216-.652878-2.11853-.854985-.512315-.202112-1.071248-.371075-.717911-.277884-.598806-.15794-1.747134-.246595-2.891912-.260816zm56.143192 52.207479-1.21341.518431-.0566 2.416682-.0886 3.822102a2.1848861 2.1848861 0 0 1-.98992 1.778243l-1.26195.824584c-2.19918 1.435642-2.69258 5.095912-.83045 7.27138l.99152 1.161138a2.1848861 2.1848861 0 0 1 0 2.840175l-.98939 1.156871c-.59729.697794-.78479 1.018237-.98193 1.921185-.1972.902947-.29441 2.421856-.29441 4.910701 0 2.41852.1122 3.79887.22775 4.22533.021.0776.0135.10166.009.13014.0353-.002.0835.003.18669.0475-.5207-.22645.42516.0667 1.34461.13067.91946.0641 2.10246.0988 3.2818.10084 1.17935.002 2.3625-.0298 3.28767-.0907.92517-.061 1.86467-.33284 1.39102-.13494.26643-.11137.2612-.11553.28215-.12482.0843-.33699.18658-1.7673.18348-4.473334-.003-2.726838-.0959-4.260839-.28428-5.049911-.18845-.789072-.32558-.96646-1.09021-1.757975l-.86298-.894988a2.1848861 2.1848861 0 0 1 0-3.033787l.86298-.894988c2.24896-2.328049 1.75687-6.105112-1.08486-7.86395l-.88699-.548301a2.1848861 2.1848861 0 0 1-1.0342-1.824112l-.0747-4.906969zm-98.015635 6.158778c-.03896 1.591011-.05867 3.685627-.05867 8.335446 0 3.64997.02806 6.662996.07894 8.859745.05087 2.196749.216361 3.907329.177078 3.717562.43644 2.108331 1.771308 4.552821 3.479681 6.261181 1.529573 1.52957 1.869955 1.73151 5.930498 3.7597 8.16041 4.07602 15.263587 6.23589 23.870268 7.27298 4.002482.48231 12.051181.497 16.118859.0261 9.130336-1.0569 16.440748-3.27403 24.674051-7.48472 5.54489-2.83578 7.01704-4.28484 8.53332-8.20637l.5883-1.520095.0848-11.899932c.0243-3.373681.0242-6.441078.006-8.653866-.002-.178532-.004-.252062-.006-.419225-.80489.334453-1.51992.63103-2.62256 1.092334-3.37461 1.411808-8.008426 3.361888-13.080801 5.505405-5.082547 2.147815-9.917362 4.155685-13.623239 5.662748-1.852939.753531-3.422553 1.381188-4.606683 1.842247-1.18413.461058-1.756314.708404-2.459351.886988-3.163699.803647-7.540819.804021-10.696125-.0037-.69326-.177473-1.260769-.42309-2.42895-.878988-1.168181-.455896-2.71515-1.076455-4.540012-1.820379-3.649722-1.487843-8.408938-3.46811-13.407225-5.585943-4.988352-2.113623-9.577024-4.051771-12.950131-5.469137-1.27701-.536594-2.178788-.91144-3.062055-1.280078z" color="#000" style="-inkscape-stroke:none"/></svg>