<svg xmlns="http://www.w3.org/2000/svg" xml:space="preserve" width="512" height="512" viewBox="0 0 135.46666 135.46667"><path fill="#fff" d="M39.160893 134.93241c-8.804345-1.88636-16.754431-8.37001-21.027784-17.14907-3.897188-8.00628-4.610577-17.24986-2.230059-28.895469 2.923577-14.302265 11.286665-30.840409 23.494232-46.460222l2.836636-3.629529H93.243535l2.836631 3.629529c12.281694 15.714655 20.694494 32.40258 23.508474 46.632278 2.33959 11.830743 1.6438 20.735823-2.24429 28.723413-4.30486 8.84379-12.37176 15.36792-21.237174 17.17563-3.397915.69285-53.698008.66939-56.946283-.0265zM70.3891 115.26863c1.755965-1.31102 2.030257-2.01668 2.138472-5.50156l.1007-3.24298 2.067937-.32562c5.737975-.90351 10.464792-5.20103 11.936879-10.852751 1.976969-7.590095-2.819216-15.496884-10.635158-17.532679-1.261315-.328531-3.408463-.45117-7.898966-.45117-6.92466 0-7.62217-.158416-9.073061-2.060631-1.065381-1.396788-1.160803-4.085572-.191083-5.384405 1.539072-2.061422 1.629105-2.082479 8.903903-2.082479 7.477485 0 7.457404-.0056 9.188281 2.55098 1.182171 1.7461 2.401266 2.437099 4.30211 2.438492 1.803224.0014 3.246359-.814804 4.136802-2.339453 2.465968-4.22232-3.562935-11.16132-10.669707-12.28036l-2.067937-.32562-.1007-3.242979c-.108783-3.503029-.378896-4.187845-2.183182-5.53494-1.171186-.874416-4.040142-.874416-5.211327 0-1.804288 1.347095-2.074404 2.031911-2.183182 5.53494l-.100701 3.242979-2.067935.32562c-5.737976.903508-10.464793 5.201028-11.93688 10.852753-1.976968 7.590094 2.819216 15.496883 10.635158 17.532676 1.261315.328531 3.408463.451172 7.898967.451172 6.924659 0 7.62217.158415 9.07306 2.060629.66268.868821.814694 1.387305.814694 2.778745 0 1.39144-.152014 1.90992-.814694 2.77874-1.489739 1.95315-2.192671 2.10694-9.151707 2.00226-6.968697-.10483-7.046267-.12827-8.749393-2.64384-1.182173-1.7461-2.401267-2.4371-4.302112-2.43849-3.919006-.003-5.906282 3.82258-3.900369 7.5081 1.919564 3.526871 6.21136 6.446931 10.458364 7.115661l2.093024.32958v2.78673c0 3.81868.686655 5.33565 2.873378 6.34789 1.205379.55799 3.614083.35033 4.616368-.39799zM39.681246 17.606512C34.443941 7.1061731 34.014349 6.1219191 34.014349 4.6228771c0-2.784165 1.810027-4.53973695 4.680557-4.53973695 1.520519 0 1.943598.1357862 3.078043.98788965 3.461804 2.6002273 6.845523 3.6913113 11.44766 3.6913113 4.609762 0 7.807184-1.010531 11.33458-3.5822417C65.865718.22463455 66.281277.08314015 67.776878.08314015c1.468872 0 1.907202.1428032 3.032306.98788965 3.461803 2.6002273 6.845523 3.6913113 11.44766 3.6913113 4.577022 0 7.994679-1.095105 11.390262-3.6497354 1.70791-1.28492715 3.42628-1.45518475 5.24508-.51968805 1.744424.89723825 2.832404 2.82609345 2.612754 4.63205645-.0908.746583-2.296904 5.5239469-5.761394 12.4765069l-5.614238 11.266663H45.348143Z"/></svg>