<svg xmlns="http://www.w3.org/2000/svg" xml:space="preserve" width="512" height="512" viewBox="0 0 135.46666 135.46667"><path fill="#fffffa" d="M2.1962505 134.91628c-.7933559-.3927-1.26619332-.87045-1.65364572-1.67082-.54179172-1.11919-.54260205-1.20372-.54260205-56.59983V21.166668H44.97582l.06782 19.789816.06782 19.789815 18.917707-11.079971c19.791061-11.591488 21.16009-12.353289 22.207608-12.357493 1.050524-.0042 2.768803.981221 3.330461 1.910025.491111.812141.531545 1.502623.655679 11.196692l.132291 10.331176 18.917704-11.080185c19.79085-11.591589 21.16006-12.353504 22.20761-12.357708 1.2732-.0051 2.86171 1.016728 3.44107 2.213521.54393 1.123604.54507 1.221887.54507 46.864101 0 45.642213-.001 45.740493-.54507 46.864103-.39574.81748-.85355 1.27529-1.67103 1.67103l-1.12597.54507-64.408647-.00021-64.4086488-.00021zm56.5135925-23.92357c.494111-.29105 1.148955-.86532 1.455208-1.27618.541456-.72639.556824-1.00516.556824-10.100908 0-9.095747-.01537-9.37452-.556824-10.100909-.306253-.410854-.961097-.985132-1.455208-1.276173-.850154-.500758-1.374235-.529167-9.761926-.529167s-8.911772.02841-9.761926.529167c-.494112.291041-1.148955.865127-1.455208 1.275747-.537068.720091-.559346 1.067422-.627914 9.789582-.06459 8.215771-.02828 9.125991.396875 9.950241.560289 1.08622 1.533412 1.84481 2.749415 2.14328.491452.12063 4.644018.19799 9.227924.17191 7.810822-.0444 8.39081-.0807 9.23276-.57659zm45.243747 0c.49411-.29105 1.14896-.86532 1.45521-1.27618.54145-.72639.55682-1.00516.55682-10.100908 0-9.095747-.0154-9.37452-.55682-10.100909-.30625-.410854-.9611-.985132-1.45521-1.276173-.85015-.500758-1.37423-.529167-9.761926-.529167-8.38769 0-8.911772.02841-9.761925.529167-.494112.291041-1.148956.865127-1.455209 1.275747-.537067.720091-.559346 1.067422-.627913 9.789582-.06459 8.215771-.02828 9.125991.396875 9.950241.560288 1.08622 1.533411 1.84481 2.749415 2.14328.491452.12063 4.644018.19799 9.227924.17191 7.810819-.0444 8.390809-.0807 9.232759-.57659zM.00000273 8.285621c0-4.4508677.05432236-5.0557627.5450703-6.0695127C.94081186 1.398621 1.398621.94081186 2.2161083.54507303 3.321225.01009526 3.6966089.00000273 22.489585.00000273c18.792976 0 19.16836.01009253 20.273476.5450703.817488.39573883 1.275297.85354797 1.671036 1.67103527.490748 1.01375.54507 1.618645.54507 6.0695127v4.943548H.00000273Z"/></svg>