<svg xmlns="http://www.w3.org/2000/svg" xml:space="preserve" width="512" height="512" viewBox="0 0 135.46666 135.46667"><path fill="#fff" d="M-.00000114 127.52841v-7.93825H135.46667v15.87651H-.00000114ZM11.906249 85.058752V58.4656h15.875v53.18631h-15.875zm32.014584 0V58.4656H59.795832v53.18631H43.920833zm31.749999 0V58.4656h15.875v53.18631h-15.875zm32.014588 0V58.4656h15.875v53.18631h-15.875zM-.00000114 42.589091v-7.938254H135.46667V50.527346H-.00000114ZM3.8364572 26.460712c.2910416-.12008 14.7869008-6.122863 32.2130208-13.33952L67.733332-3e-7 99.417187 13.121192c17.426123 7.216657 31.921983 13.21944 32.213023 13.33952.29105.120079-28.46255.218325-63.896878.218325-35.434323 0-64.1879165-.09825-63.8968748-.218325z"/></svg>