<svg xmlns="http://www.w3.org/2000/svg" xml:space="preserve" width="512" height="512" viewBox="0 0 135.46666 135.46667"><path fill="#fff" d="m8.2594258 129.7248-5.5675776-5.74187 9.2927628-9.47896 9.292763-9.47898 5.628083 5.74257 5.628083 5.74256-9.353268 9.47827-9.353268 9.47827zm103.8929442-3.80629-9.21893-9.40935 5.62759-5.74207 5.62761-5.74208 9.22175 9.40646c5.07197 5.17355 9.22176 9.52986 9.22176 9.68067 0 .35498-10.64883 11.2157-10.9969 11.2157-.14517 0-4.41247-4.23419-9.48288-9.40933zM44.805272 115.1024c-1.173444-.41682-2.723076-1.16227-3.443629-1.65656-1.704628-1.16936-15.935943-15.690162-17.08199-17.429465-.484437-.735208-1.21503-2.316363-1.623538-3.513677-.611685-1.792805-.742815-2.630011-.743144-4.744621-.000645-4.142741 1.207248-7.499392 3.714995-10.323717l1.272894-1.433585 4.255272 4.319068 4.255272 4.319067L67.929442 51.5127c22.184533-22.599442 33.443988-33.879574 35.431878-35.496938 8.5552-6.9605915 18.37854-12.128246 28.8401-15.17156944 1.74509-.5076554 3.21134-.8837765 3.25833-.8358246.11869.1211069-1.31727 5.23999744-2.24875 8.01628224-2.86683 8.5446398-7.591 17.2351038-13.4438 24.7308758-1.58938 2.035532-12.56009 13.436204-34.788678 36.152114l-32.467223 33.179 4.233455 4.34233 4.233456 4.34234-1.456919 1.34736c-2.738671 2.53274-5.993362 3.74266-10.065988 3.74199-2.072451-.00034-2.892967-.13413-4.650031-.75826zm36.49561.10373c-2.061683-.68119-4.762864-2.32605-6.022016-3.66705l-.77099-.8211 4.225353-4.31764 4.225353-4.31763-4.763529-4.866057-4.763529-4.866062 8.540083-8.713802 8.540084-8.713804 4.76905 4.860429 4.769049 4.860428 4.23156-4.311305 4.23155-4.311304.82205.80062c1.3739 1.338061 2.87614 3.928179 3.5685 6.152658 1.32219 4.248076.7117 9.067088-1.62732 12.845517-1.18388 1.912437-15.29075 16.347792-17.318565 17.721852-3.42065 2.31782-8.612386 3.0005-12.656683 1.66425zM31.412755 49.44549c-8.008496-8.209437-14.315467-14.910577-15.708233-16.689964C9.5373415 24.876401 4.789718 15.957547 1.8205731 6.6732362.84435714 3.6206763-.10570087.12262526.00952049.00506016.11681535-.10441734 5.882112 1.5901202 8.2642206 2.4312838 14.430522 4.6087108 21.334315 8.1818756 26.939277 12.096846c5.060922 3.53497 8.352382 6.588686 21.588896 20.029517l13.509615 13.718151-8.47507 8.658913c-4.661287 4.762404-8.541169 8.658916-8.62196 8.658916-.0808 0-6.168391-6.172584-13.528003-13.716853z"/></svg>