<svg xmlns="http://www.w3.org/2000/svg" xml:space="preserve" width="512" height="512" viewBox="0 0 135.46666 135.46667"><path fill="#f6ffff" d="M62.205014 119.0344c-9.156305-.95711-18.425887-4.68735-26.091201-10.49956-2.111011-1.60067-6.433447-5.81466-8.325596-8.11671-2.268481-2.759912-4.863899-6.85222-6.487724-10.229474-2.326809-4.839331-4.370003-11.662008-4.370003-14.59241 0-2.871037 3.047295-4.73263 5.560677-3.397018 1.345443.71497 1.956179 1.799303 2.500197 4.438981 2.742802 13.308585 11.572519 24.598341 23.76777 30.389721 5.56862 2.64446 10.771506 3.97737 16.693523 4.27665 3.825612.19333 4.89071.62966 5.720307 2.34337.668799 1.38156.665674 2.06477-.01588 3.47268-1.028519 2.12463-2.968095 2.53928-8.95207 1.91377zm51.216956-8.19319c-1.46982-.7755-2.01702-2.14459-2.02435-5.06498l-.006-2.31524H92.793697l1.294889-.97496c6.579284-4.953784 12.470494-13.096289 14.844514-20.517292.72742-2.273876.7517-2.309039 1.59857-2.315229l.85995-.0063V77.25529c0-1.875081.11512-2.617566.53276-3.436207.94414-1.850682 3.38418-2.61907 5.1941-1.635664.45748.248576 4.64459 4.214716 9.30467 8.813647 7.13061 7.037042 8.52497 8.535583 8.80174 9.459362.67606 2.25648.54607 2.428755-8.79392 11.654702-4.89691 4.83712-8.87474 8.55395-9.43698 8.81779-1.26976.59589-2.3257.56996-3.57221-.0877zm-50.283548-7.66216c-6.171065-.85455-12.472218-3.525007-17.563249-7.443405-2.05376-1.58071-5.836151-5.64889-7.34318-7.898013-2.698951-4.027974-4.516666-8.407839-5.59803-13.488695-.665347-3.126179-.665347-10.091028 0-13.217207 1.616265-7.594127 4.545245-13.087793 9.82767-18.433017 5.297136-5.360109 10.984066-8.4221 18.689789-10.063067 3.087473-.657492 10.070807-.656559 13.196736.0018 7.609281 1.602513 13.146732 4.579405 18.527658 9.96033 5.383463 5.383464 8.316794 10.843101 9.957894 18.533992.6608 3.096817.65757 10.066483-.006 13.217207-1.61033 7.644564-4.564909 13.147135-9.951764 18.533992-5.356091 5.356089-10.905709 8.347723-18.395359 9.916403-2.511302.52598-8.772137.73559-11.342035.37972zm6.451109-8.146564c.50708-.269825 1.187909-.954471 1.512955-1.521437.508354-.886702.5916-1.422254.595345-3.830039l.0044-2.799194 1.387055-.640574c.775387-.358091 2.088074-1.34142 2.976724-2.229853 4.773574-4.772407 4.781252-11.914295.01794-16.686955-2.223226-2.22759-5.135891-3.529194-7.936392-3.546596-4.324165-.02687-5.954727-5.209523-2.262083-7.189909 1.498106-.803442 3.114926-.651496 4.645298.436559 1.663752 1.182885 2.709657 1.382143 4.222403.804418 1.46176-.558251 2.288032-1.676384 2.444851-3.308437.200772-2.089471-1.125491-3.798004-4.068782-5.241528l-1.427011-.699872v-2.749315c0-3.125263-.351033-4.197236-1.686356-5.149731-1.154655-.823623-3.410559-.823623-4.565214 0-1.336504.953339-1.686356 2.023754-1.686356 5.159622v2.759206l-1.382684.640574c-.760476.352315-2.102642 1.354987-2.982593 2.228159-4.779041 4.742231-4.787482 11.932644-.01959 16.682607 2.170991 2.162824 5.263485 3.547892 7.93954 3.555966 1.68489.0051 3.199055.89917 3.870005 2.285168 1.306124 2.69809-.560068 5.391301-3.735762 5.391301-.963457 0-1.483647-.191435-2.517458-.926446-1.663752-1.182886-2.709657-1.382143-4.222403-.80442-1.46176.558251-2.288032 1.676385-2.444852 3.308438-.200265 2.084211 1.125975 3.798241 4.047646 5.231162l1.405873.689504.08728 3.064268c.0757 2.657787.165144 3.173415.674214 3.887084 1.152115 1.615158 3.353751 2.132693 5.106049 1.20027zM18.346589 63.297234c-.45814-.248576-4.646335-4.218361-9.3071013-8.821748C-.29916923 45.2518-.43195746 45.076191.23892511 42.836984c.27351322-.912905 1.70044529-2.446655 8.80056259-9.459361 4.6607663-4.603387 8.8489613-8.573173 9.3071013-8.821749 1.123053-.609341 2.355755-.585448 3.641682.07058 1.528903.779988 2.073088 2.108182 2.080542 5.07798l.0058 2.315229H42.63111l-1.968543 1.564329c-4.028164 3.201034-7.897476 7.648042-10.583647 12.163808-1.382379 2.323939-3.412032 6.88582-3.928075 8.828804-.312689 1.177321-.388928 1.256838-1.20502 1.256838h-.871212v2.297838c0 1.795393-.121812 2.549468-.557083 3.448618-.942488 1.94692-3.302961 2.73086-5.170953 1.717334zm92.648921-7.865656c-1.32098-.713724-1.63166-1.130358-2.52442-3.385377-5.35505-13.526261-16.417365-23.187839-30.662939-26.780334-2.246236-.566463-6.872257-1.17251-8.999151-1.178963-2.212275-.0067-3.681678-.694842-4.466838-2.091847-.728042-1.295375-.733504-2.45947-.01752-3.733396 1.156654-2.057989 2.845456-2.427917 8.43593-1.847869C91.643623 18.373031 107.89881 30.357 115.27549 47.757465c1.77794 4.193893 1.67366 5.741065-.49619 7.361082-.93789.700241-2.78441.853002-3.78379.313031z"/></svg>