<svg xmlns="http://www.w3.org/2000/svg" xml:space="preserve" width="512" height="512" viewBox="0 0 135.46666 135.46667"><path fill="#fff" d="M60.328368 134.89618c-2.915108-.76188-5.538658-2.60309-7.128158-5.00255-1.374633-2.07511-1.918172-3.8994-2.099543-7.04677l-.165532-2.87251-2.115532-.77027c-1.163543-.42365-3.033414-1.20096-4.15527-1.72737l-2.039739-.95708-1.832284 1.69624c-2.117246 1.96003-3.810993 2.95432-6.006909 3.52622-2.869589.74735-5.908941.42462-8.787067-.93305-1.756998-.82881-10.600782-9.67168-11.429679-11.42849-1.357812-2.87784-1.680575-5.91687-.933143-8.78617.570813-2.191271 1.565722-3.888586 3.510489-5.988897l1.680315-1.814708-1.210615-2.640783c-.66584-1.45243-1.210616-2.700417-1.210616-2.773307 0-.07289-.246694-.791803-.548208-1.597588l-.548207-1.465064h-2.174481c-6.2832315 0-11.1687623-3.568234-12.64910521-9.238496-.65609664-2.513094-.65609664-12.345828 0-14.858922C1.9654267 54.546353 6.8509575 50.97812 13.134189 50.97812h2.174481l.548207-1.465064c.301514-.805785.548208-1.5247.548208-1.597589 0-.07289.544776-1.320877 1.210616-2.773307l1.210615-2.640782-1.680315-1.814708c-1.944767-2.10031-2.939676-3.797627-3.510489-5.988901-.747432-2.869292-.424669-5.90833.933143-8.786159.828897-1.756816 9.672681-10.599687 11.429679-11.428499 2.878126-1.35767 5.917478-1.680401 8.787067-.933045 2.198253.572514 3.890018 1.56651 6.016185 3.534812l1.84156 1.704827 1.500014-.751091c.825007-.4131 2.690704-1.196303 4.145995-1.740452l2.64598-.989361.165532-2.868001c.298121-5.1652495 2.11909-8.3583338 6.143361-10.7724379C59.619759.24319403 61.569808-.08403367 67.687082-.08403367c6.017106 0 7.436045.19781126 9.84016 1.37179597 4.340554 2.1195913 6.879551 6.4552802 6.879551 11.7477837v2.161008l1.653738.606065c.909557.333335 2.827777 1.120727 4.262713 1.749761l2.608975 1.143695 1.790991-1.658012c2.077554-1.923298 3.780263-2.918843 5.96562-3.487997 2.99782-.780752 6.07839-.407113 9.06965 1.100048 1.67492.843918 8.88747 7.779558 10.35642 9.958807 1.18092 1.751933 1.91102 3.923264 2.06343 6.136676.25478 3.700242-.93316 6.790831-3.8005 9.887507l-1.72992 1.868274 1.21062 2.640782c.66584 1.45243 1.21062 2.700419 1.21062 2.773307 0 .07289.24669.791804.5482 1.597589l.54821 1.465064h2.17448c4.95785 0 8.96031 2.118673 11.27522 5.968456 1.52961 2.543802 1.82631 4.235929 1.84371 10.514987.0177 6.371159-.29057 8.265286-1.73733 10.676514-2.41813 4.030164-5.60746 5.845476-10.79218 6.142727l-2.88694.165515-.6068 1.801284c-.33375.990707-1.09807 2.867633-1.6985 4.170946l-1.09168 2.369661 1.7311 1.869555c2.86856 3.097987 4.0565 6.188035 3.80169 9.888795-.15284 2.21959-.88472 4.39081-2.06857 6.13667-1.10814 1.63422-7.65329 8.17261-9.33105 9.32141-1.73609 1.18875-3.90713 1.92349-6.1373 2.07702-3.69105.2541-6.792038-.93352-9.864629-3.77798l-1.844562-1.70761-2.608975 1.1437c-1.434936.62904-3.353156 1.41643-4.262713 1.74977l-1.653738.60606v2.161c0 6.26876-3.573756 11.15571-9.239451 12.63455-2.500959.6528-12.347728.65613-14.838974.005zm15.08209-38.791275C85.545533 93.30195 93.383626 85.418506 96.242771 75.15206c.672967-2.41645.727267-2.976865.727267-7.505984 0-4.529118-.0543-5.089534-.727267-7.505984-3.180679-11.420995-12.657242-19.953304-24.00404-21.612254-3.39714-.496676-9.074673-.187481-12.146713.661504-10.147285 2.80429-18.029203 10.709326-20.8553 20.916469-.678558 2.450778-.732529 3.006324-.732529 7.540265 0 4.533943.05397 5.089487.732529 7.540267C42.34017 86.395219 51.42103 94.656548 62.95302 96.762288c.66661.121723 3.17666.180024 5.577887.129558 3.716037-.0781 4.740015-.195231 6.879551-.786941z"/></svg>