<svg xmlns="http://www.w3.org/2000/svg" xml:space="preserve" width="3072" height="2048" viewBox="0 0 812.8 541.867"><path fill="#00a000" d="M0 0h812.80025v270.93342H0Z" paint-order="stroke fill markers"/><path fill="#e00000" d="M.00000195 270.93342H812.80025v270.93342H.00000195Z" paint-order="stroke fill markers"/><path fill="#ffc000" d="m401.40061 471.94111-2.19237-2.19237v-52.50095l-6.9818-.98735c-31.58814-4.46715-54.63149-28.86852-57.78042-61.18564-.47875-4.91338-.30217-6.51209.92638-8.38709 1.49521-2.28198 1.63978-2.30916 9.67729-1.81946 4.48769.27342 9.16426.87377 10.39239 1.33411 7.2033 2.69999 7.08313 2.09026-1.23657-6.27439-6.23925-6.27295-9.10656-9.98751-11.92906-15.45388-6.34367-12.28584-9.95588-30.29267-6.98603-34.82525 1.27219-1.9416 2.07007-2.1897 6.99774-2.17596 5.09779.0142 14.59398 1.59124 18.95963 3.1486.98251.35049.17864-.70151-1.78637-2.33777-14.737-12.27151-23.07012-28.11492-25.00282-47.53686-.49045-4.9286-.31822-6.50679.9156-8.38984 1.50115-2.29105 1.61912-2.31273 9.6773-1.7784 4.48668.29751 10.5597 1.3359 13.49559 2.30754 2.93589.97163 5.46052 1.64407 5.61029 1.49429.14978-.14977-.84554-1.00355-2.21182-1.89728-4.51431-2.95298-12.02828-10.59376-15.64755-15.91161-6.86641-10.08896-10.52136-20.4522-11.86408-33.63948-.50637-4.97316-.34199-6.13863 1.12052-7.94476 1.54137-1.90351 2.35727-2.1004 8.10291-1.9554 11.72809.29597 26.11023 5.35648 35.45418 12.47491 1.96501 1.49699 4.77458 3.64527 6.24349 4.77396l2.67075 2.05217-2.05398-2.89205c-1.12969-1.59063-3.42109-5.85098-5.09199-9.46744-14.81918-32.07414-10.89028-70.26702 10.13717-98.543605 7.01625-9.43507 11.85089-13.696503 15.53884-13.696503 2.35432 0 3.80421.974947 7.98716 5.370789 22.23205 23.363608 31.20379 58.352339 23.10058 90.089519-2.0516 8.03532-6.75002 19.49653-10.29353 25.10982l-2.38982 3.78572 5.63686-4.561c10.6294-8.60064 25.35926-14.16585 38.3624-14.49401 8.49855-.21447 9.26719.59828 8.98305 9.49845-.28169 8.82387-3.69768 20.54269-8.44139 28.95895-3.62378 6.42929-13.365 17.38635-18.93462 21.29793l-2.67956 1.88187 5.78073-1.77935c3.17941-.97865 9.41549-2.01813 13.85796-2.30994 10.21464-.67097 10.7152-.22982 10.41483 9.17881-.28759 9.00852-2.89275 18.61036-7.43662 27.40926-2.91396 5.64268-5.70949 9.26731-12.11117 15.70312-4.57752 4.60193-7.60813 8.09178-6.73469 7.75523 4.28153-1.64972 12.91784-3.1461 18.22597-3.15794 7.64056-.0171 8.34554.78931 8.06295 9.22255-.5776 17.23819-8.03853 32.92767-21.73466 45.70552-3.59642 3.35529-5.73507 5.79656-4.75256 5.42504 4.06046-1.5354 13.75356-3.17233 18.87086-3.18684 7.1426-.0203 7.89545.89116 7.61636 9.22025-.31281 9.33564-2.32446 16.91097-7.03497 26.49173-5.55742 11.30333-16.64873 22.72551-27.51538 28.33623-7.65667 3.95334-16.87713 6.8635-24.93638 7.87044l-4.96094.61983V469.74874l-2.19237 2.19237c-1.38197 1.38197-3.21287 2.19237-4.95313 2.19237-1.74026 0-3.57116-.8104-4.95313-2.19237zm-2.19237-102.22671v-9.74125l-4.68923-.60531c-4.55241-.58765-13.26411-2.56906-16.49524-3.75171-.87548-.32045.41788 1.02571 2.87414 2.99145 5.78154 4.62696 13.22214 12.79876 15.75189 17.29985 1.09681 1.95151 2.12116 3.54821 2.27633 3.54821.15516 0 .28211-4.38356.28211-9.74124zm24.74372-4.12262c1.86543-1.97572 5.19144-5.06211 7.39115-6.85867l3.99948-3.26645-5.78585 1.59801c-3.18222.87891-8.09697 1.88408-10.92167 2.23371l-5.13583.63569v19.72513l3.53052-5.2376c1.94178-2.88069 5.05677-6.8541 6.9222-8.82982zm-24.74372-53.02225v-9.72214l-5.13582-.60936c-4.62011-.54815-9.26059-1.50174-13.92408-2.86128-.90352-.2634 1.50809 2.53424 5.35912 6.21698 3.85104 3.68274 8.40866 8.94123 10.12804 11.68555 1.71938 2.74432 3.22664 4.99478 3.34945 5.00103.12281.006.22329-4.36361.22329-9.71078zm25.09953-4.62284c2.16098-2.24033 5.50129-5.3334 7.42291-6.87348l3.49386-2.80016-5.28023 1.63334c-2.90413.89833-7.79232 1.92071-10.86265 2.27194l-5.58242.63862v19.75167l3.43974-5.2743c1.89185-2.90086 5.2078-7.1073 7.36879-9.34763zm-25.09953-52.9611v-10.1421l-6.02901-.51788c-3.31595-.28484-8.64158-1.32818-11.83473-2.31855l-5.80571-1.80066 2.67956 1.93657c5.30902 3.83694 13.4682 12.27601 16.97055 17.55271 1.96501 2.96051 3.67324 5.39383 3.79605 5.40739.12281.0136.22329-4.53932.22329-10.11748zm24.20404-3.00934c1.76777-1.89683 5.18422-5.18607 7.59209-7.30941 2.40788-2.12335 3.57408-3.58637 2.59158-3.25116-4.45388 1.51955-12.84272 3.14349-16.30066 3.15551l-3.79605.0132v20.95155l3.34945-5.05545c1.8422-2.78051 4.79581-6.60742 6.56359-8.50425zm-23.31084-44.34976c0-.18547-.61211-.84522-1.36023-1.46611-1.13734-.9439-1.26805-.88865-.79763.33723.48044 1.25201 2.15786 2.12955 2.15786 1.12888zm14.40492-1.22584c1.11101-1.41665 1.07942-1.44824-.33723-.33723-1.48783 1.16683-1.96097 1.9003-1.22585 1.9003.18547 0 .88886-.70339 1.56308-1.56307zm-176.90015 189.4585c-1.79436-2.28115-1.8512-3.33337-1.8512-34.26542v-31.91199l-5.58242-.48683c-27.15547-2.36814-50.61207-26.80887-52.25662-54.44908-.62881-10.56835-.31577-10.90256 9.59155-10.24023 4.18412.27972 9.36624 1.13702 11.51583 1.90512 2.14958.7681 4.02618 1.39654 4.17021 1.39654.14403 0-3.23387-3.51692-7.50644-7.81539-11.69916-11.77004-17.98927-25.7736-17.98927-40.0492 0-7.89567 1.07751-8.79777 9.58743-8.02662 12.12985 1.09918 22.50418 5.19587 32.6993 12.91252l5.83201 4.41423-2.56122-4.16393c-3.93854-6.40311-8.08867-17.54286-10.03219-26.92829-2.28512-11.035-1.85324-27.2603 1.01881-38.27648 3.8276-14.68133 11.21448-28.2381 20.85946-38.28234 6.8637-7.14784 8.68092-7.32284 14.36794-1.38367 10.03479 10.47972 18.53456 25.69186 22.08373 39.52353 2.87647 11.21004 3.30808 27.39239 1.02472 38.41896-1.95264 9.42944-6.09691 20.53049-10.085 27.01411l-2.61403 4.24977 5.13195-4.18523c5.5109-4.49428 16.84806-10.16328 23.54538-11.77357 2.26733-.54515 6.91098-1.25035 10.31922-1.56711 8.10099-.75291 9.2278.23058 9.2278 8.05412 0 15.97956-8.96547 33.56238-22.71858 44.55503-2.48799 1.9886-3.71975 3.31145-2.73725 2.93965 7.43411-2.8132 22.39439-4.12064 24.38401-2.13102 1.31641 1.31641 1.39044 9.38116.14781 16.10315-4.54412 24.58142-27.42002 45.79605-51.55073 47.80704l-5.58241.46522v31.91199c0 30.93205-.0569 31.98427-1.85121 34.26542-1.4279 1.81527-2.63851 2.35342-5.29429 2.35342-2.65579 0-3.8664-.53815-5.2943-2.35342zm-1.8512-109.74155c0-8.1995-.0677-8.4858-2.00967-8.50079-2.29863-.0177-12.73551-2.17647-15.40748-3.18683-.98251-.37153 1.06137 1.98199 4.54195 5.23003 3.48056 3.24803 7.70087 7.92855 9.37846 10.40116 1.67758 2.4726 3.15063 4.506 3.27344 4.51867.12281.0127.2233-3.79534.2233-8.46224zm26.93235-6.24108c3.60919-3.36712 5.7583-5.81807 4.77579-5.44654-2.67196 1.01036-13.10885 3.16909-15.40747 3.18683-1.94545.015-2.00967.29346-2.00967 8.71215v8.69666l3.03958-4.51354c1.67178-2.48243 5.99257-7.26844 9.60177-10.63556zm-26.93235-37.97169c-.52582-.98251-1.157-1.78638-1.40263-1.78638-.24563 0-.0164.80387.50944 1.78638.52583.98251 1.15701 1.78638 1.40264 1.78638.24562 0 .0164-.80387-.50945-1.78638zm328.75767 153.95432c-1.79436-2.28115-1.8512-3.33337-1.8512-34.26542v-31.91199l-5.58242-.48683c-12.76415-1.11312-25.05816-7.1441-35.05759-17.19794-10.84199-10.90098-16.27067-22.67345-17.17777-37.25114-.65763-10.56851-.34494-10.90308 9.57029-10.24023 4.18412.27972 9.36624 1.13702 11.51583 1.90512 2.14958.7681 4.03757 1.39654 4.19552 1.39654.15795 0-3.23238-3.51692-7.53405-7.81539-11.81689-11.80805-17.98697-25.57868-17.98697-40.14404 0-8.08576.91595-8.80397 10.07656-7.90131 11.56458 1.13955 21.73046 5.11352 31.50658 12.31631l5.40907 3.98527-3.84464-7.68592c-2.11456-4.22726-4.92482-11.30333-6.24503-15.72462-2.20736-7.3923-2.40037-9.29552-2.40037-23.66945 0-14.49864.17763-16.21301 2.45247-23.66946 4.45435-14.60043 11.29269-26.51803 20.99849-36.59541 6.4775-6.72548 8.12001-6.6528 14.9625.66209 16.07823 17.18823 24.34138 39.58482 23.3084 63.17553-.57992 13.24387-3.202 23.4537-9.03768 35.19071l-4.56655 9.18447 4.91254-4.03602c5.30093-4.35513 16.68232-10.02698 23.32595-11.62436 2.26734-.54515 6.91098-1.25035 10.31922-1.56711 7.97323-.74104 9.23443.28945 9.2123 7.52711-.0496 16.23571-8.70752 33.58481-22.31417 44.7143-2.70189 2.20999-4.10866 3.70615-3.12616 3.32479 7.23918-2.80991 22.38781-4.14462 24.38401-2.14842 2.92456 2.92456.005 20.81059-5.02275 30.77045-9.24593 18.31609-27.7708 31.54885-46.38017 33.13049l-5.58241.47447v31.91199c0 30.93205-.0569 31.98427-1.85121 34.26542-1.4279 1.81527-2.63851 2.35342-5.29429 2.35342-2.65579 0-3.8664-.53815-5.2943-2.35342zm-1.8512-109.74155c0-8.1995-.0677-8.4858-2.00967-8.50079-2.29863-.0177-12.73551-2.17647-15.40748-3.18683-.98251-.37153 1.1168 2.03331 4.66512 5.34406 3.54832 3.31077 7.73584 8.00165 9.3056 10.4242 1.56975 2.42254 2.98737 4.40463 3.15026 4.40463.1629 0 .29617-3.81837.29617-8.48527zm22.92077-2.67957c1.3961-1.47376 4.34631-4.24548 6.55605-6.15938 2.20973-1.9139 3.21383-3.18582 2.23132-2.8265-2.76628 1.01169-13.16395 3.14734-15.40747 3.16466-1.94545.015-2.00967.29346-2.00967 8.71215v8.69666l3.04571-4.45401c1.67513-2.44971 4.18796-5.65982 5.58406-7.13358z"/></svg>