<svg xmlns="http://www.w3.org/2000/svg" xml:space="preserve" id="svg1" width="4608" height="3072" version="1.1" viewBox="0 0 1219.2 812.8"><defs id="defs1"><style id="style1">.cls-1{fill:#0283c0}.cls-2{fill:#fff}.cls-3{fill:#ef483f}</style></defs><path id="rect1" d="M 0 0 L 0 812.8 L 1219.2 812.8 L 1219.2 0 L 0 0 z" style="fill:#000;fill-rule:evenodd;stroke:none;stroke-width:8.46667;stroke-linecap:round;stroke-linejoin:round;fill-opacity:1"/><path id="path1" d="M 0,0 V 812.79994 L 1219.2,0 Z" style="fill:#d00000;stroke-width:4.23333;stroke-linecap:round;stroke-linejoin:round;stroke-miterlimit:128;fill-opacity:1"/><path id="path3" d="m 237.06666,33.866667 c -7.73672,0.11065 -15.4608,0.66311 -23.1345,1.65468 l -5.90662,35.010777 c -9.87506,1.77213 -19.57308,4.41839 -28.97963,7.90753 L 156.26746,50.881647 c -14.16111,6.24954 -27.56177,14.09668 -39.94123,23.388747 l 12.28762,32.998496 c -7.73624,6.46536 -14.8796,13.60871 -21.34495,21.34495 L 74.270394,116.32622 c -9.292067,12.37947 -17.139207,25.78013 -23.388747,39.94123 l 27.558007,22.77846 c -3.48914,9.40654 -6.1354,19.10457 -7.90753,28.97963 l -35.010777,5.90661 c -0.99157,7.67371 -1.54403,15.39779 -1.65468,23.13451 0.11065,7.73671 0.66311,15.4608 1.65468,23.13451 l 35.010777,5.90661 c 1.77213,9.87507 4.41839,19.57308 7.90753,28.97963 l -27.558007,22.77845 c 6.24954,14.16111 14.09668,27.56178 23.388747,39.94124 L 107.2689,345.51947 c 6.46535,7.73624 13.60871,14.87959 21.34495,21.34495 l -12.28762,32.99851 c 12.37946,9.29206 25.78012,17.13921 39.94123,23.38875 l 22.77845,-27.55802 c 9.40655,3.48914 19.10457,6.13539 28.97963,7.90754 l 5.90662,35.01078 c 7.6737,0.99158 15.39778,1.54403 23.1345,1.65468 7.71506,-0.0177 15.42285,-0.47506 23.08592,-1.36943 l 5.91387,-35.05057 c 9.97825,-1.72733 19.78146,-4.34629 29.29175,-7.82537 l 22.6291,27.37715 c 14.16703,-6.13397 27.5889,-13.86245 40.00582,-23.03581 L 345.5789,367.02409 c 7.77544,-6.49255 14.95263,-13.66975 21.44522,-21.44519 l 33.33853,12.41422 c 9.17337,-12.41692 16.90182,-25.83878 23.03579,-40.00582 l -27.37713,-22.62912 c 3.47906,-9.51029 6.09801,-19.3135 7.82534,-29.29176 l 35.05057,-5.91383 c 0.89438,-7.66307 1.3516,-15.37086 1.36943,-23.08593 -0.0177,-7.71507 -0.47505,-15.42286 -1.36943,-23.08593 l -35.05057,-5.91385 c -1.72733,-9.97827 -4.34628,-19.78147 -7.82534,-29.29176 l 27.37713,-22.62911 c -6.13397,-14.16704 -13.86242,-27.58891 -23.03579,-40.00582 l -33.33853,12.41423 c -6.49259,-7.77545 -13.66976,-14.95263 -21.44522,-21.44521 L 357.99312,73.770684 C 345.5762,64.597317 332.15433,56.868857 317.9873,50.734887 l -22.6291,27.377137 c -9.51029,-3.47908 -19.3135,-6.09803 -29.29175,-7.82536 l -5.91387,-35.050567 c -7.66307,-0.89437 -15.37086,-1.35159 -23.08592,-1.36943 z m 0,67.733323 c 35.92801,-1e-5 70.38448,14.27234 95.7894,39.67726 25.40492,25.40494 39.67726,59.86142 39.67726,95.78941 0,35.92798 -14.27234,70.38449 -39.67726,95.78941 -25.40492,25.40492 -59.86142,39.67726 -95.7894,39.67726 -35.928,0 -70.38448,-14.27234 -95.7894,-39.67726 -25.40493,-25.40492 -39.67727,-59.86143 -39.67727,-95.78941 0,-35.92799 14.27233,-70.38447 39.67726,-95.78941 25.40493,-25.40492 59.86141,-39.67727 95.78941,-39.67726 z m -86.12497,52.83037 v 5.3e-4 0.001 c -0.0398,0.0397 0.20436,0.88023 0.54415,1.86811 1.53155,4.472 1.87322,6.99042 1.5384,11.30163 -0.18233,2.32054 -0.9432,6.68462 -1.55649,8.91729 -1.18182,4.31287 -2.45823,8.56763 -2.59416,8.66045 -0.0912,0.063 -0.23059,0.28662 -0.3085,0.49713 -0.22376,0.60831 -1.10353,0.45235 -2.15439,-0.38137 -1.16359,-0.92657 -1.61962,-0.96167 -2.03399,-0.16278 -0.40444,0.78233 -0.93302,3.85923 -1.21646,7.06985 -0.6398,7.24997 -0.73499,8.71494 -0.75654,11.84269 -0.0282,3.89185 0.21542,5.13554 1.30276,6.6306 1.61939,2.23103 3.77947,3.3031 7.3365,3.63957 4.59797,0.43593 11.75026,0.22359 12.34033,-0.36483 0.34311,-0.34475 0.0184,-0.95257 -1.24953,-2.33991 -0.66136,-0.72267 -1.20528,-1.4377 -1.21027,-1.58854 -0.005,-0.15082 -0.0945,-0.27492 -0.19895,-0.27492 -0.10774,0 -0.31777,-0.29968 -0.47026,-0.66766 -0.57517,-1.38569 0.22145,-1.96256 2.71767,-1.96422 1.88129,-0.002 3.99555,-0.67478 4.20439,-1.33945 0.22709,-0.71272 -0.0785,-1.17161 -1.15755,-1.74511 -0.57516,-0.30333 -1.1601,-0.79564 -1.30431,-1.09399 -0.77903,-1.61443 -0.91694,-5.93198 -0.39481,-12.41785 0.44422,-5.51291 0.45283,-5.5547 1.18546,-5.5547 0.75914,0 2.49596,0.86557 4.84466,2.41536 3.0399,2.00559 5.92301,3.08576 8.2734,3.09903 2.70673,0.0182 3.45853,-0.83987 4.63538,-5.29528 0.89669,-3.38301 1.72227,-8.68056 2.11511,-13.57023 0.23205,-2.86586 0.37346,-3.70304 0.70332,-4.14394 0.61328,-0.81881 1.18289,-0.95013 2.18901,-0.49764 0.92491,0.41439 2.49029,1.67406 2.49029,2.00556 0,0.10942 0.29486,0.50876 0.65784,0.88832 0.36134,0.37793 0.79058,0.94546 0.95136,1.26039 0.16245,0.31327 0.5421,1.01397 0.84543,1.55598 0.30499,0.54366 1.32062,2.46787 2.25878,4.27622 1.80502,3.48079 2.89549,5.3058 3.44578,5.7583 0.2768,0.22874 0.43309,0.17939 0.90382,-0.293 0.83705,-0.83704 1.77378,-2.89413 2.73678,-6.01358 0.50224,-1.62603 0.57668,-2.25619 0.58498,-4.95629 0.005,-1.74868 -0.0909,-3.31951 -0.22531,-3.61787 -1.47519,-3.31007 -2.33436,-4.41168 -4.65656,-5.97638 -1.30445,-0.8785 -4.13833,-2.33629 -4.54443,-2.33629 -0.0829,0 -0.4611,-0.14138 -0.84232,-0.31213 -0.847,-0.38122 -5.31898,-1.52009 -7.74061,-1.97094 -4.67587,-0.86854 -12.59723,-1.64091 -22.78931,-2.22105 -3.37803,-0.19392 -7.3094,-0.42035 -8.73487,-0.50488 -1.42545,-0.0845 -2.6262,-0.12142 -2.66598,-0.0832 z m 117.67137,0.66714 c -2.11997,0 -4.21034,0.0824 -5.45341,0.24805 -4.50016,0.60501 -9.98921,2.35914 -14.26064,4.56199 -1.14702,0.59007 -3.12142,1.60759 -4.38939,2.26395 l -2.30375,1.18907 7.13034,0.13849 c 8.90084,0.17239 13.15259,0.6802 17.44387,2.08412 3.83717,1.2564 6.39413,2.70795 8.34006,4.73511 2.5526,2.65866 3.072,4.4189 3.05875,10.36939 -0.008,4.24327 -0.40797,7.14455 -1.28313,9.32088 -1.12212,2.79292 -1.53135,3.65821 -2.1513,4.56819 -0.38454,0.56356 -0.77967,1.05885 -0.87746,1.09864 -0.0977,0.0397 -0.17725,0.20405 -0.17725,0.36484 0,0.16078 -0.0722,0.32453 -0.1633,0.36432 -0.17571,0.0795 -0.91186,0.95322 -1.81022,2.15491 -0.30166,0.40112 -0.64641,0.83881 -0.7674,0.97306 -0.12097,0.13261 -0.81201,0.92935 -1.53633,1.77302 -4.51676,5.256 -13.53264,14.4253 -18.43559,18.74976 -2.61225,2.30395 -3.9815,3.31131 -5.58932,4.1119 -1.14369,0.56852 -1.71479,0.61127 -2.69441,0.19688 -0.84532,-0.35802 -3.53425,-3.01237 -5.80996,-5.73401 -0.79444,-0.95131 -1.59028,-1.90147 -2.38747,-2.85048 -0.62632,-0.75863 -1.24097,-1.52681 -1.8438,-2.30425 -0.60833,-0.78234 -1.53358,-1.96732 -2.0557,-2.63033 -1.21827,-1.55144 -4.84448,-6.59309 -5.5025,-7.65225 -0.0986,-0.16408 -0.2119,-0.31888 -0.33848,-0.4625 -0.063,-0.0596 -0.46936,-0.65373 -0.89865,-1.31672 -3.18078,-4.90627 -3.92018,-6.40791 -3.92018,-7.94938 0,-1.23155 0.71242,-4.54997 1.63401,-7.61142 1.18513,-3.92833 0.41449,-8.26445 -1.86294,-10.49549 -0.99782,-0.97791 -2.19886,-1.35536 -2.79724,-0.87798 l -0.78238,0.61599 c -1.34259,1.04589 -7.69312,6.6306 -10.10481,8.88317 -5.7483,5.37367 -11.07166,10.49262 -23.41356,22.51129 -4.89946,4.75779 -9.8127,9.50137 -14.73967,14.23066 -0.82213,0.7807 -2.20374,2.09715 -3.07061,2.92592 -0.86853,0.82875 -2.69083,2.49624 -4.04833,3.70623 -1.35751,1.20998 -2.46756,2.27551 -2.46756,2.36833 0,0.18234 4.31406,4.44183 5.37487,5.30873 1.72052,1.40391 2.86128,1.5521 5.26635,0.68522 3.09291,-1.11383 4.58484,-1.4387 7.15563,-1.55804 3.17417,-0.14918 5.08036,0.23157 7.80366,1.56423 1.62933,0.7956 5.18443,3.11428 5.55573,3.62149 0.0596,0.0829 0.31536,0.2921 0.56896,0.46614 0.5188,0.35803 1.18511,0.90725 5.98361,4.92011 5.98366,5.00571 10.87489,9.80538 11.7998,11.58224 0.38952,0.74589 0.27686,1.12578 -0.63975,2.16006 -0.38361,0.43172 -0.75936,0.87035 -1.12707,1.31569 -1.50004,1.84981 -4.89839,5.46058 -12.32741,13.09841 -3.80567,3.91176 -3.9978,4.1039 -20.70726,20.73879 l -11.43858,11.38692 5.81256,5.82962 c 3.19902,3.20564 7.68628,7.72835 9.972,10.05054 2.28739,2.32055 4.24323,4.22196 4.34599,4.22196 0.10275,0 11.34574,-11.15486 24.97884,-24.78297 13.63475,-13.62813 24.89771,-24.78352 25.02534,-24.78352 0.1293,0 0.42818,0.17243 0.66352,0.38293 0.23704,0.21217 1.21775,1.02283 2.18075,1.80351 0.96136,0.77904 1.80007,1.47489 1.8614,1.54614 0.0596,0.0697 0.85095,0.71478 1.75596,1.43248 0.63653,0.49972 1.26635,1.00791 1.88928,1.52445 0.39119,0.34806 2.69055,2.28762 5.44206,4.58164 0.59171,0.49559 1.18657,0.99938 1.32085,1.12035 0.13258,0.12099 0.78351,0.6631 1.44486,1.20509 1.71059,1.4056 2.03364,1.67754 4.14031,3.48094 1.03759,0.88675 2.33275,1.98898 2.87478,2.4448 0.54366,0.4575 1.78345,1.50879 2.75643,2.33424 3.77489,3.18029 7.53678,6.37598 11.28559,9.58699 0.30167,0.25858 1.37607,1.16025 2.38384,2.00557 2.111,1.76109 4.2069,3.54023 6.28748,5.33715 0.36465,0.32157 1.5494,1.32257 2.63342,2.2226 0.7438,0.61296 1.48093,1.23397 2.21123,1.86293 0.13261,0.12264 0.81828,0.71917 1.52601,1.32086 0.70776,0.60333 1.74022,1.49222 2.29547,1.97456 0.55528,0.48233 1.59319,1.37236 2.30426,1.97403 0.71273,0.60332 1.44878,1.24454 1.63608,1.42523 0.1873,0.18232 1.11069,0.94535 2.05052,1.70119 0.98787,0.79063 1.92249,1.37046 2.21588,1.37046 1.42381,0 5.71855,-2.87057 8.7054,-5.81927 1.86971,-1.8465 2.51669,-2.63536 5.46375,-6.63991 l 1.98541,-2.70269 -0.49763,-0.69712 c -0.24566,-0.34878 -0.49982,-0.69149 -0.76223,-1.02783 -0.95872,-1.20438 -1.91456,-2.41104 -2.86753,-3.61995 -2.92841,-3.70147 -5.8688,-7.39341 -8.82116,-11.0758 -1.59123,-1.98901 -3.32838,-4.16195 -3.85715,-4.82658 -1.22319,-1.53758 -2.44964,-3.07253 -3.67935,-4.60489 -0.1475,-0.18233 -0.56181,-0.72382 -0.91985,-1.20613 -0.24458,-0.33835 -0.50175,-0.66741 -0.77099,-0.9865 -0.63442,-0.78322 -1.25667,-1.5762 -1.86656,-2.37866 -0.76472,-1.00205 -1.54826,-1.98958 -2.35024,-2.96209 -0.33152,-0.38123 -0.65841,-0.8654 -0.72969,-1.0759 -0.068,-0.2105 -0.20553,-0.38293 -0.30332,-0.38293 -0.0994,0 -0.75253,-0.76528 -1.45367,-1.70016 -0.48983,-0.66207 -0.99275,-1.31434 -1.50845,-1.95646 -0.2423,-0.28432 -0.47532,-0.57645 -0.69866,-0.87593 -1.14591,-1.48331 -2.30748,-2.95444 -3.48453,-4.41317 -0.88191,-1.10678 -1.75715,-2.21888 -2.62567,-3.33621 -1.38195,-1.78205 -2.77329,-3.55682 -4.17391,-5.32424 -0.63897,-0.76888 -1.26061,-1.55196 -1.86449,-2.34868 -1.07593,-1.38639 -2.16271,-2.76428 -3.26028,-4.13361 -1.49175,-1.87301 -3.06454,-3.90332 -3.49382,-4.51496 -0.97793,-1.389 -2.24174,-4.09381 -2.24174,-4.7966 0,-0.57515 0.62389,-1.5086 2.81845,-4.21526 1.33757,-1.64759 4.38774,-5.13556 5.39552,-6.16655 0.24865,-0.25526 1.98379,-2.07597 3.85505,-4.04678 7.0561,-7.43728 16.04844,-16.22451 19.95848,-19.50475 0.64645,-0.54366 1.28241,-1.08564 1.41335,-1.20664 0.94147,-0.86689 3.1592,-2.31881 4.8333,-3.16415 1.96583,-0.9912 2.01052,-1.00304 4.18682,-1.00304 1.70061,0 2.42414,0.0985 3.18328,0.4284 1.13541,0.49725 2.97786,1.6355 3.6127,2.23552 0.24199,0.22707 0.73626,0.64293 1.0976,0.92139 0.54864,0.42432 2.38477,2.09062 5.61361,5.09736 0.31327,0.29174 0.93049,1.00738 1.37306,1.5875 0.66466,0.87848 0.8015,1.24015 0.8015,2.11202 0,0.57846 -0.14023,1.45045 -0.31419,1.93942 -0.42101,1.19672 -2.5145,5.59549 -2.73164,5.7397 -0.0945,0.0647 -0.28369,0.44038 -0.4196,0.83819 -0.3083,0.90168 -0.0843,1.53813 0.92344,2.62878 0.41439,0.44918 0.93348,1.01466 1.15396,1.25832 1.14369,1.25972 4.40729,3.73462 5.9836,4.54184 1.89455,0.968 2.38964,0.81232 5.60689,-1.78335 2.2592,-1.81997 3.0298,-2.53285 6.91174,-6.37998 5.51614,-5.46482 8.62563,-8.96385 10.65774,-11.99048 0.84367,-1.25309 0.98819,-1.61903 0.89037,-2.23397 -0.35967,-2.23434 -3.39132,-5.8728 -6.30192,-7.56181 -1.69236,-0.98457 -2.54786,-0.85095 -8.20831,1.28726 -1.15191,0.43426 -1.81607,0.55732 -2.65977,0.48937 -5.95546,-0.47738 -13.70918,-12.11173 -12.9036,-19.36006 0.16907,-1.51663 0.53472,-2.35054 1.46296,-3.32847 0.60333,-0.63483 0.64016,-0.75682 0.41807,-1.39165 -0.80224,-2.29897 -6.25681,-8.13233 -12.20237,-13.0452 -0.49472,-0.41309 -1.00187,-0.81101 -1.52083,-1.19321 -0.19986,-0.13265 -0.38986,-0.27962 -0.56845,-0.43976 -0.32653,-0.36464 -1.98033,-1.54565 -2.16266,-1.54565 -0.11763,0 -0.24921,-0.0752 -0.28731,-0.16639 -0.0944,-0.21051 -2.65456,-1.90417 -4.89222,-3.23185 -1.83986,-1.09395 -7.52221,-3.88646 -8.45373,-4.15995 -0.73843,-0.24494 -1.47008,-0.50979 -2.19419,-0.79427 -2.21776,-0.85529 -8.15851,-2.28787 -10.86186,-2.62103 -1.35919,-0.16741 -3.50938,-0.25166 -5.62602,-0.25166 z" style="display:inline;fill:#000;fill-opacity:1;stroke-width:1.12007;stroke-linecap:round;stroke-linejoin:round;stroke-miterlimit:128"/></svg>