<svg xmlns="http://www.w3.org/2000/svg" width="3072" height="2048" viewBox="0 0 812.8 541.867"><path d="M0 541.867 812.8 0v541.867z" paint-order="stroke fill markers"/><path fill="#800020" d="M0 541.867 812.8 0H0Z" paint-order="stroke fill markers"/><path d="M406.4 67.733a203.2 203.2 0 0 0-203.2 203.2 203.2 203.2 0 0 0 34.205 112.664l56.363-37.576a135.467 135.467 0 0 1-22.835-75.088A135.467 135.467 0 0 1 406.4 135.467a135.467 135.467 0 0 1 95.79 39.677l47.882-47.883A203.2 203.2 0 0 0 406.4 67.733z" paint-order="stroke fill markers"/><path fill="#800020" d="m293.768 346.021-56.363 37.576A203.2 203.2 0 0 0 406.4 474.133a203.2 203.2 0 0 0 143.584-59.616l-47.897-47.896A135.467 135.467 0 0 1 406.4 406.4a135.467 135.467 0 0 1-112.632-60.379z" paint-order="stroke fill markers"/></svg>