<svg xmlns="http://www.w3.org/2000/svg" xml:space="preserve" width="3072" height="2048" viewBox="0 0 812.8 541.867"><path d="M0 0v541.867h270.933V206.974l-88.031 63.96 33.625-103.488-88.032-63.959h108.814L270.933 0H0zm270.933 0v206.974l84.14 61.132 3.892 2.827-.92-2.827-32.705-100.66 88.032-63.959H304.558L270.933 0z" paint-order="stroke markers fill"/><path fill="#fff" d="M270.986 270.933v270.934H812.8V270.933Z" paint-order="stroke markers fill"/><path fill="#ff8020" d="m270.933 0 33.625 103.487h108.814l-88.032 63.96 32.706 100.659.919 2.827H812.8V0H270.933zm0 0L237.31 103.487H128.495l88.032 63.96-33.625 103.486 88.031-63.959V0zm0 206.974v63.96h88.032l-3.893-2.828-84.139-61.132zm391.382 73.606c-1.129-.05-12.12 17.659-11.39 18.35.388.366 1.49.855 2.448 1.086 4.815 1.162 5.074.929 9.046-8.164 3.685-8.434 3.763-8.792 2.177-9.996-.904-.687-1.93-1.261-2.28-1.276zm28.739 4.82c-.878.003-.728 1.475-.728 4.419 0 4.722.188 5.26 1.96 5.602 1.077.208 3.778.431 6.002.496 6.09.18 5.988-1.613-.345-6.128-4.107-2.928-6.012-4.392-6.89-4.389zm-59.227 10.635c-.394 0-.716 1.413-.716 3.14 0 2.488.392 3.24 1.895 3.634l1.895.498-1.951.724c-1.55.575-1.894 1.286-1.677 3.47.269 2.699.541 2.852 15.73 8.859 9.507 3.759 15.457 6.57 15.457 7.304 0 1.51-.666 1.495-5.225-.118-5.12-1.812-5.365-1.723-5.06 1.825.268 3.097.378 3.18 9.168 6.813 4.893 2.023 9.09 3.872 9.328 4.11.237.237.009 4.148-.505 8.69l-.936 8.259-11.005 7.573c-6.052 4.165-14.727 10.15-19.277 13.299l-8.273 5.725-14.99 3.5-14.99 3.5-28.985-3.035c-15.943-1.67-33.69-3.796-39.437-4.727l-10.45-1.693-12.663 3.5-12.664 3.501-8.568 8.445c-8.142 8.025-8.688 8.795-10.95 15.47-1.722 5.078-2.545 9.674-2.974 16.593-.326 5.264-1.991 16.405-3.701 24.76-4.102 20.033-7.044 25.919-16.042 32.085l-6.09 4.172-7.38-3.67c-10.51-5.229-14.81-4.785-12.825 1.322.569 1.748 2.73 3.593 7.702 6.575 5.923 3.552 7.573 4.146 11.54 4.149 5.304.005 11.985-2.507 16.972-6.38 2.349-1.823 4.58-5.107 7.664-11.269 3.768-7.53 4.743-10.646 7.27-23.25 1.607-8.006 3.373-19.666 3.925-25.91.553-6.245 1.833-14.101 2.845-17.459 1.95-6.474 3.259-6.48 1.633-.006-.529 2.105-.961 4.671-.961 5.702 0 1.031 3.527 7.917 7.838 15.303 7.716 13.221 7.836 13.517 7.836 19.17 0 5.572-.154 5.97-5.258 13.585-2.893 4.314-5.492 8.452-5.776 9.196-.289.754 4.241 12.52 10.248 26.62l10.767 25.269h2.827c2.041 0 3.216.597 4.227 2.144.77 1.18 3.188 3.194 5.371 4.478 3.854 2.265 4.24 2.315 13.206 1.723 5.08-.336 9.574-.942 9.988-1.346.419-.41-.548-2.886-2.178-5.583-2.774-4.59-3.268-4.963-9.33-7.031-4.369-1.491-7.61-3.302-10.212-5.708-2.097-1.938-4.395-3.524-5.108-3.524-.896 0-2.263-3.168-4.428-10.263-1.723-5.644-3.652-11.873-4.287-13.843l-1.154-3.581 8.813-5.173c8.348-4.9 9.262-5.736 17.353-15.865l8.542-10.692 2.197-12.37c1.209-6.802 1.97-13.28 1.69-14.396-.279-1.115-.205-2.023.163-2.018.938.013 9.004 5.794 23.753 17.021 11.818 8.997 13.47 9.952 26.007 15.032 12.752 5.168 13.506 5.365 15.86 4.144 4.403-2.284 4.508-.956 2.498 31.744l-1.818 29.57 4.93 8.445 4.93 8.445h20.82l1.68-3.712c.924-2.042 1.684-4.105 1.684-4.585.002-.48-3.306-3.232-7.35-6.114-4.803-3.421-7.712-6.15-8.383-7.86-.566-1.441-1.701-7.53-2.524-13.53l-1.494-10.91 2.503-8.741c1.416-4.943 2.743-12.156 3.055-16.601.784-11.197.904-11.413 4.838-8.732 1.76 1.2 3.63 2.182 4.156 2.182.525 0 3.387-2.012 6.36-4.47 9.815-8.119 25.319-36.116 27.857-50.306.956-5.345 1.32-6.04 3.742-7.11 2.377-1.05 3.955-3.886 13.856-24.89 12.432-26.376 15.246-34.028 15.246-41.466 0-4.712.217-5.243 3.463-8.422 2.58-2.526 4.026-5.083 5.661-10.006 1.208-3.637 2.196-6.932 2.196-7.321 0-.603-14.043-7.582-15.255-7.582-.23 0-.42 2.42-.42 5.379 0 5.275.077 5.45 4.004 9.065 2.695 2.482 3.664 3.898 2.963 4.332-.639.396-2.858-1.154-5.746-4.014-4.186-4.147-4.704-5.057-4.704-8.276v-3.618l-5.352-.56c-2.944-.31-11.446-.562-18.893-.562-13.137 0-13.606.063-15.765 2.117l-2.225 2.118-14.74-2.99c-8.108-1.646-15.064-2.991-15.457-2.991zm-122.035 6.168c-.151.155 6.763 5.555 15.367 12.002 8.605 6.448 15.64 12.127 15.633 12.62-.048 3.225-1.755 2.8-17.048-4.251l-15.706-7.242-13.006 1.032c-12.215.969-13.294 1.203-17.723 3.855l-4.715 2.824-11.83-.6c-11.14-.563-12.925-.922-30.643-6.175l-18.813-5.578-12.972.006c-11.783.006-58.668 2.303-59.268 2.906-.139.138 3.854 1.582 8.872 3.209 5.018 1.626 9.124 3.19 9.124 3.473 0 .284-5.193 1.437-11.54 2.563l-11.54 2.048-10.624-5.34c-5.843-2.938-10.8-5.053-11.018-4.7-.218.353 1.125 3.245 2.983 6.426l3.379 5.783 16.977 3.257 16.98 3.257 24.232-5.33 24.234-5.33h33.025l12.399 6.073c6.819 3.34 12.398 6.233 12.398 6.429 0 .196-2.975 2.641-6.611 5.435-6.246 4.798-7.017 5.139-13.968 6.17l-7.358 1.09-11.067-6.394c-6.087-3.516-11.198-6.271-11.357-6.122-.216.202 12.599 18.488 14.297 20.4.161.182 6.937-1.33 15.058-3.36 10.214-2.553 15.593-3.509 17.45-3.1 1.477.326 2.685.776 2.685 1 0 .223-1.94 3.288-4.31 6.812l-4.31 6.406-6.246 1.414c-3.436.779-6.787 1.415-7.446 1.415-.66 0-1.2.341-1.2.758 0 .734 8.97 3.61 11.259 3.61.621 0 5.52-3.516 10.885-7.811l9.755-7.81 15.453-3.895c8.5-2.14 16.116-4.49 16.924-5.221 1.214-1.098 2.184-1.165 5.564-.386 3.949.909 4.124 1.085 4.95 4.954.47 2.206 1.129 6.074 1.461 8.596.333 2.522.899 4.585 1.258 4.585s1.955-2.902 3.546-6.45l2.894-6.45 4.397-.529c8.832-1.064 8.863-1.052 27.509 10.346 11.029 6.742 18.717 10.9 20.184 10.917 1.303.015 12.08-1.154 23.947-2.596l21.578-2.622 3.365-3.71c1.85-2.04 5.65-6.293 8.444-9.451l5.08-5.742-7.166-7.15-7.166-7.15.336-5.957.336-5.957-5.857-4.674-5.857-4.674-16.656-3.748c-9.161-2.062-17.04-3.76-17.508-3.771-.467-.012 2.266 3.123 6.075 6.966 3.81 3.843 6.348 6.98 5.64 6.972-.707-.008-5.008-.592-9.558-1.295-4.55-.704-8.833-1.286-9.517-1.294-.684-.008 2.278 2.244 6.583 5.006 6.952 4.46 9.38 5.447 21.708 8.829l13.882 3.808 3.265 4.19c1.796 2.304 3.265 4.404 3.265 4.666 0 .262-2.58 1.253-5.736 2.203l-5.736 1.726-20.51-8.823-20.509-8.823-8.979-10.564-8.978-10.565-17.153-2.838c-9.434-1.56-17.277-2.712-17.431-2.559zm172.736 1.694-1.425 2.184v-.002c-1.7 2.602-1.425 2.601-6.887.02l-4.354-2.056 6.333-.073 6.333-.073zm-44.15 12.717-6 7.872c-3.3 4.329-6.3 8.372-6.665 8.985-.43.72.8 2.514 3.484 5.08 2.28 2.183 4.216 3.979 4.3 3.99.75.099 14.26-20.439 13.96-21.22-.217-.567-2.349-1.858-4.737-2.869l-4.341-1.838zm44.575 94.786-5.44 10.66c-2.993 5.862-5.448 10.703-5.457 10.757-.01.055 3.608 1.382 8.038 2.95 4.43 1.569 8.365 3.132 8.745 3.475 1.16 1.05-12.647 37.516-14.421 38.088-.939.302-2.933-.532-5.107-2.136-3.174-2.34-4.06-2.58-8.04-2.173-6.227.637-7.179 1-5.923 2.26 1.585 1.59 1.226 2.231-1.597 2.853-7.104 1.565 1.991 9.092 12.192 10.089 3.113.304 6.253.615 6.976.69.724.076 3.907-1.606 7.073-3.736l5.757-3.873 8.411-21.088c8.409-21.08 8.412-21.09 8.602-29.44l.191-8.352-10-5.511-10-5.513zm-128.866 17.51c-.163.174-.756 4.633-1.317 9.91l-1.02 9.594-9.575 13.44-9.574 13.438 2.667 8.844c2.127 7.057 3.238 9.355 5.496 11.368 1.557 1.387 4.996 6.298 7.642 10.912 4.067 7.09 5.208 8.459 7.366 8.834 1.958.34 3.17 1.507 5.202 5.01v.001l2.649 4.568 8.467.015c6.916.012 9.175-.33 12.33-1.867 3.501-1.706 3.918-2.246 4.443-5.757.318-2.13.452-3.976.296-4.1-.155-.125-6.357-2.722-13.78-5.773-11.581-4.758-14.032-6.11-17.26-9.519-4.665-4.93-5.617-6.77-7.468-14.453-.81-3.363-1.658-6.74-1.885-7.504-.227-.765.722-2.82 2.107-4.569 1.386-1.749 4.567-8.002 7.07-13.895 3.439-8.1 5.495-11.692 8.425-14.72l3.876-4.007-7.93-5.042c-4.363-2.774-8.065-4.901-8.227-4.728z" paint-order="stroke markers fill"/></svg>