<svg xmlns="http://www.w3.org/2000/svg" xml:space="preserve" width="3072" height="2048" viewBox="0 0 812.8 541.867"><path d="M0 541.867h812.8V0Z" paint-order="stroke fill markers"/><path fill="#e00000" d="M812.8 0H0v541.867Z" paint-order="stroke fill markers"/><path d="M166.368 33.871a94.01 94.01 0 0 0-3.532.073c-2.945.143-3.7.29-4.238.83-.277.276-.66 1.773-1.115 4.354a373.86 373.86 0 0 1-.536 2.977c-.109.582-.312 1.743-.452 2.58-.345 2.062-.735 4.32-.995 5.756a73.922 73.922 0 0 0-.341 2.051 87.31 87.31 0 0 1-.39 2.316 258.7 258.7 0 0 0-1.333 8.27 87.122 87.122 0 0 1-.324 2.199c-.064.313-1.503 1.135-2.384 1.363-1.626.42-3.694.931-4.56 1.13a46.99 46.99 0 0 0-2.052.53c-.582.167-1.535.436-2.118.596-.582.161-1.386.4-1.787.533-3.305 1.09-6.258 1.836-7.665 1.936l-1.005.07-.827-1.036a77.322 77.322 0 0 0-1.223-1.5 22.92 22.92 0 0 1-.497-.595c-.227-.298-1.293-1.592-1.363-1.654a30.25 30.25 0 0 1-.861-1.058 87.8 87.8 0 0 0-1.648-2.003 148.932 148.932 0 0 1-1.59-1.9c-.4-.49-.787-.958-.86-1.041a101.85 101.85 0 0 1-1.39-1.674 98.69 98.69 0 0 0-1.39-1.639c-.51-.59-1.523-1.816-2.248-2.726a76.697 76.697 0 0 0-1.394-1.72 48.077 48.077 0 0 1-1.06-1.257c-1.603-1.941-3.367-3.856-3.732-4.051-.19-.102-.71.114-2.456 1.017-1.218.63-2.273 1.19-2.346 1.245-.073.054-.58.336-1.125.627-.546.29-1.559.845-2.25 1.232-.692.388-1.496.828-1.788.979-.29.15-.559.304-.595.34-.072.072-.13.104-1.523.86-.51.276-.986.545-1.058.597-.073.053-.4.246-.729.429-1.577.882-4 2.34-4.416 2.657l-.464.354.25.893c.137.49.407 1.34.6 1.885.192.546.398 1.171.458 1.39.101.371 1.146 3.392 2.106 6.086.233.655.604 1.727.824 2.382.22.655.454 1.31.52 1.455.066.146.364.95.662 1.787.298.837.748 2.087 1 2.778a1611.54 1611.54 0 0 1 2.364 6.55c.313.874.79 2.184 1.06 2.911.269.728.552 1.513.629 1.745l.139.422-5.57 5.599a1430.64 1430.64 0 0 0-7.53 7.618c-1.08 1.11-2.03 2.018-2.11 2.018-.081 0-2.077-.722-4.435-1.603a482.205 482.205 0 0 0-4.618-1.71c-.182-.06-.659-.235-1.06-.39-.4-.153-1.114-.422-1.588-.595-.473-.174-1.665-.621-2.647-.994-.983-.372-2.383-.89-3.11-1.15-.729-.259-1.622-.578-1.986-.71-5.26-1.891-9.218-3.191-10.283-3.376-.479-.084-.5-.069-1.136.797-.745 1.015-3.148 4.895-4.059 6.554a86.7 86.7 0 0 1-.735 1.323c-.17.285-1.325 2.398-1.99 3.639-.312.582-.613 1.118-.668 1.19-.38.5-2.374 4.647-2.374 4.936 0 .296.237.55 1.356 1.45a79.49 79.49 0 0 1 1.77 1.454c.227.2 1.027.871 1.777 1.49.75.618 1.428 1.184 1.507 1.257.078.072.589.49 1.135.926.546.436 1.23 1.01 1.522 1.275.291.265.738.652.993.86.254.207.527.437.606.51.08.074.461.402.847.729 1.537 1.302 2.72 2.312 2.782 2.378.143.15 1.165 1.02 1.714 1.46.32.254.645.525.724.6.079.077.888.731 1.798 1.454 4.773 3.795 5.676 4.873 5.318 6.348-.24.985-.828 3.171-1.105 4.102-.15.51-.51 1.82-.797 2.91-.287 1.092-.729 2.76-.982 3.706a453.49 453.49 0 0 0-.92 3.506c-.253.983-.582 2.233-.731 2.779-.231.842-.366 1.348-.585 2.189-.02.076-1.04.299-2.268.495-2.931.47-7.423 1.22-9.247 1.545-.8.142-2.23.383-3.177.535-3.001.482-12.497 2.164-14.296 2.532-2.268.463-2.276.467-2.64 1.227-.563 1.173-.656 2.649-.655 10.399 0 6.98.071 8.44.476 9.82.287.979.679 1.14 4.474 1.833 1.2.22 2.66.488 3.243.597.582.108 1.744.312 2.58.452.838.14 2.744.467 4.237.727 1.492.26 4.47.767 6.618 1.126 2.147.359 4.59.775 5.427.925.837.15 2.382.409 3.434.575l1.91.303.298 1.381c.163.76.421 1.917.573 2.572.152.655.34 1.519.417 1.919.078.4.32 1.383.538 2.183.219.8.51 1.873.646 2.382.474 1.761.762 2.784 1.12 3.97.417 1.377.42 1.39 1.1 3.837.824 2.974.955 2.476-1.072 4.122-.963.781-1.78 1.46-1.816 1.51-.036.049-.602.524-1.257 1.055a39.277 39.277 0 0 0-1.258 1.046c-.098.119-3.134 2.663-3.676 3.082a18.2 18.2 0 0 0-.944.795c-.577.525-2.955 2.566-4.05 3.474-.437.363-.87.731-.963.82-.093.088-.45.387-.793.663s-1.22 1-1.95 1.605c-.727.607-1.445 1.203-1.592 1.324-.148.12-.773.638-1.39 1.15a82.67 82.67 0 0 1-1.717 1.39c-1.002.773-1.06.837-1.06 1.19 0 .326 1.183 2.868 1.785 3.834.159.254.515.876.79 1.382.277.505.643 1.16.814 1.455.172.295.477.864.679 1.265.202.4.404.757.45.794.045.036.329.542.631 1.124.302.583.657 1.238.788 1.456.132.218.497.873.812 1.455.477.884 1.361 2.447 1.922 3.398.073.123.334.57.58.994.563.964.988 1.365 1.445 1.362.939-.005 4.67-1.192 9.954-3.168.619-.231 1.28-.469 1.468-.528.487-.154 5.163-1.86 5.482-2 .324-.143 6.552-2.429 7.743-2.842.473-.164 1.903-.69 3.177-1.168l2.316-.87 2.118 2.088c1.165 1.149 4.606 4.557 7.647 7.572l5.53 5.483-.284.728c-.155.4-.547 1.472-.87 2.382-.64 1.807-1.59 4.41-1.762 4.83-.06.145-.48 1.277-.933 2.514a599.719 599.719 0 0 1-1.123 3.043 516.93 516.93 0 0 0-1.986 5.36 253.312 253.312 0 0 1-1.054 2.844c-.47 1.224-1.74 5.026-2.115 6.333-.395 1.38-.433 2.405-.102 2.817.126.156.578.483 1.005.727.426.244 1.112.638 1.522.876.41.237.866.49 1.011.562.146.072.355.189.464.26.507.333 5.588 3.19 6.998 3.936.628.332 1.5.808 1.937 1.058 1.155.659 1.159.661 3.137 1.648.997.496 1.85.904 1.894.904.227 0 2.852-2.824 4.212-4.53.274-.343.572-.7.662-.793.09-.093.519-.615.953-1.161.434-.546.82-1.022.857-1.059.038-.036.333-.393.657-.794.323-.4.68-.824.792-.943a9.42 9.42 0 0 0 .406-.463c.647-.8 1.636-1.977 1.707-2.034.046-.036.38-.423.742-.859.363-.436 1.017-1.212 1.453-1.722.784-.917 1.165-1.38 2.374-2.883.339-.421.7-.868.802-.992.101-.124.676-.851 1.277-1.616 1.336-1.7 3.23-3.681 3.72-3.894.244-.105.66-.126 1.258-.062 1.02.11 3.86.794 4.906 1.183 2.341.87 7.336 2.202 11.687 3.116l2.99.628.5 2.988.598 3.584c.387 2.37 1.228 7.093 1.276 7.17.032.053.115.917.184 1.921.26 3.776.834 7.255 1.918 11.64.768 3.101 1.08 4.023 1.464 4.311.528.398 1.898.66 3.963.757 2.983.141 10.266.143 13.038.004 3.53-.177 4.483-.483 4.748-1.522.447-1.75 1.425-7.107 2.923-16.011a522.907 522.907 0 0 1 1.933-10.773c.487-2.578 1.174-4.065 2.03-4.396.175-.067 2.44-.658 5.03-1.312a464.292 464.292 0 0 0 10.34-2.704c1.273-.345 2.584-.635 2.912-.645 1.132-.035 2.264.822 4.084 3.091a51.107 51.107 0 0 0 1.177 1.434c.093.097.332.395.53.662.2.266.396.514.437.55.04.037.635.752 1.32 1.588a90.794 90.794 0 0 0 1.318 1.588c.038.037.397.453.797.925.4.473.884 1.038 1.074 1.257.191.22.608.704.927 1.077.319.372.848.99 1.176 1.37.327.382.744.877.926 1.1a294.203 294.203 0 0 1 3.38 4.13c2.32 2.877 3.96 4.708 4.46 4.977.234.126 1.967-.67 4.206-1.933.546-.308 1.407-.783 1.915-1.055.507-.273 1.656-.906 2.553-1.408.897-.502 1.688-.913 1.758-.913.07 0 .128-.044.128-.099 0-.054.135-.163.298-.24.527-.25 2.14-1.15 2.481-1.383.182-.125.688-.417 1.125-.649a33.658 33.658 0 0 0 1.655-.957 26.739 26.739 0 0 1 1.324-.777c.254-.133.662-.41.906-.617l.443-.375-.224-.793c-.35-1.237-1.431-4.536-2.321-7.077a765.522 765.522 0 0 1-.924-2.646 90.916 90.916 0 0 0-.532-1.456 36.08 36.08 0 0 1-.536-1.522 5.456 5.456 0 0 0-.245-.661c-.174-.362-1.862-4.925-1.862-5.034 0-.048-.088-.274-.195-.504-.108-.23-.517-1.25-.91-2.27a123.413 123.413 0 0 0-1.59-3.865c-.882-2.032-1.409-3.448-1.409-3.785 0-.391 1.967-2.537 7.166-7.82 1.94-1.97 4.501-4.585 5.69-5.81 2.032-2.09 2.188-2.222 2.56-2.148.357.072 5.615 1.983 7.749 2.817.473.185 1.01.384 1.191.441.182.058.66.23 1.06.385.4.154 1.204.452 1.786.66.583.21 1.297.471 1.589.581.29.11.976.359 1.522.551.546.193 1.112.4 1.257.461.146.061.444.17.662.242.219.072.814.29 1.324.484 2.106.801 7.02 2.493 8.074 2.78 4.155 1.13 4.25 1.124 5.067-.294.271-.471.603-1.044.738-1.273.134-.23.373-.655.53-.946.156-.291.317-.56.357-.596.04-.036.24-.393.445-.794.204-.4.455-.821.556-.936.1-.115.183-.243.183-.284 0-.042.483-.93 1.072-1.975a183.218 183.218 0 0 0 1.74-3.156c.368-.692.86-1.585 1.094-1.985.235-.4.913-1.696 1.508-2.878.824-1.64 1.052-2.206.957-2.382-.143-.267-1.478-1.548-2.518-2.415-.393-.327-.995-.833-1.338-1.124s-1.083-.887-1.643-1.324c-.56-.436-1.21-.952-1.442-1.145-.232-.192-1.024-.848-1.76-1.455-1.08-.893-4.009-3.39-6.474-5.523-.22-.19-.934-.79-1.588-1.332-.655-.543-1.22-1.024-1.256-1.069-.036-.045-.603-.517-1.258-1.048-.655-.532-1.22-1.004-1.257-1.049a18.448 18.448 0 0 0-.86-.74 23.918 23.918 0 0 1-.86-.734c-.037-.041-.427-.35-.867-.684-1.179-.897-1.147-.82-.838-2.031.324-1.27 1.44-5.115 1.525-5.253.113-.182.992-3.328 1.656-5.922.679-2.654 1.211-5.256 1.377-6.725.112-.988.146-1.019 1.845-1.592 1.644-.554 5.999-1.4 14.098-2.735 1.128-.185 2.826-.483 3.772-.66.947-.178 2.466-.45 3.376-.605.91-.155 1.922-.332 2.25-.393.327-.062 1.46-.266 2.515-.455 2.353-.42 3.946-.808 4.211-1.027.355-.293.658-1.194.833-2.481.123-.897.172-3.264.172-8.27 0-9.637-.164-10.765-1.632-11.184-.413-.118-1.553-.338-6.562-1.266-.583-.107-1.744-.31-2.582-.449-.836-.14-2.028-.347-2.647-.462a213.58 213.58 0 0 0-3.11-.539c-1.093-.181-2.82-.476-3.84-.654-2.565-.45-7.109-1.21-9.795-1.64l-2.25-.36-.357-1.647c-.195-.906-.427-2.034-.512-2.507-.086-.473-.201-.92-.256-.993-.309-.412-1.143-3.314-1.73-6.02-.372-1.71-.876-3.735-1.121-4.5-.653-2.035-1.003-3.516-1.084-4.58-.082-1.072-.248-.831 1.685-2.426.546-.45 1.111-.92 1.257-1.042a440.02 440.02 0 0 1 2.052-1.675c2.657-2.16 5.852-4.83 7.21-6.03.293-.258 1.1-.943 1.79-1.521a719.28 719.28 0 0 1 8.469-7.011c.544-.434 1.096-.877 1.225-.984a.758.758 0 0 0 .235-.515c0-.367-1.043-2.559-2.285-4.8-.47-.848-.892-1.622-.94-1.72a11.852 11.852 0 0 0-.367-.643c-.154-.255-.44-.761-.638-1.125a158.73 158.73 0 0 0-2.107-3.744c-.228-.385-.414-.727-.414-.759 0-.031-.247-.46-.548-.953-2.41-3.943-3.295-4.685-5.047-4.232-1.549.4-2.678.738-3.87 1.157-.655.23-1.37.467-1.588.528-.56.155-4.275 1.421-4.832 1.647-.254.103-2.22.823-4.368 1.6-4.363 1.577-8.474 3.185-11.45 4.477l-1.985.862-7.738-7.729-7.738-7.729.212-.634a169.34 169.34 0 0 1 1.385-3.876c.113-.274.689-1.857 1.42-3.904.337-.945.671-1.839.741-1.984.07-.146.305-.771.521-1.39.217-.618.671-1.869 1.01-2.778.339-.91.784-2.13.99-2.713.205-.582.681-1.922 1.057-2.977 1.147-3.217 1.193-3.347 1.47-4.235.518-1.653.638-2.06.961-3.241.713-2.606.641-2.994-.696-3.734-.481-.267-.905-.518-.942-.56-.036-.04-.453-.276-.926-.523-.474-.247-.955-.53-1.07-.629-.114-.098-.241-.178-.281-.178-.182 0-5.051-2.804-5.113-2.944-.025-.055-.105-.1-.18-.1-.074 0-1.305-.666-2.735-1.48s-2.75-1.562-2.932-1.662c-.182-.1-.628-.356-.992-.57a22.04 22.04 0 0 0-1.112-.612c-.439-.218-.454-.216-.703.09-.14.173-.8.907-1.47 1.631-.669.724-1.276 1.384-1.348 1.465-.356.397-2.166 2.445-2.515 2.847-.218.25-.487.55-.596.666-.466.492-3.407 3.914-3.743 4.355-.203.265-.445.542-.54.614a1.41 1.41 0 0 0-.294.345c-.101.176-.923 1.174-1.447 1.757-.073.081-.4.475-.727.876-.326.4-.952 1.145-1.389 1.656a405.585 405.585 0 0 0-5.332 6.374c-.675.823-1.264 1.497-1.307 1.497-.189 0-4.386-1.09-5.06-1.315a32.38 32.38 0 0 0-1.605-.474 84.027 84.027 0 0 1-2.133-.609c-1.11-.333-2.732-.763-5.61-1.49-1.484-.374-5.293-1.26-5.89-1.37l-.596-.11-.16-.988c-.34-2.1-.7-4.269-1.14-6.876l-.526-3.11c-.036-.218-.278-1.618-.537-3.11a3046.894 3046.894 0 0 1-1.797-10.387c-.635-3.85-1.253-6.638-1.541-6.956-.303-.335-1.131-.626-2.242-.788-1.06-.155-7.145-.253-11.502-.224zm2.967 55.03a84.55 84.55 0 0 1 5.16.175c7.202.459 13.906 1.764 20.517 3.997 1.753.591 4.303 1.558 5.372 2.036.297.133.855.365 1.24.517.853.336 6.031 2.88 6.493 3.188.182.122.807.477 1.39.788.582.31 1.148.635 1.257.721.165.13.972.64 3.105 1.96a5.4 5.4 0 0 1 .425.293c.092.072.558.4 1.037.727 1.16.794 4.084 2.945 4.627 3.405.238.201.72.605 1.07.896 2.738 2.28 4.945 4.36 7.74 7.298.68.716 3.38 3.839 3.87 4.478l.872 1.125c.423.546.943 1.26 1.155 1.588.213.327.42.625.46.662.357.32 3.13 4.652 4.153 6.483.573 1.026 2.66 5.202 3.107 6.214.625 1.417 1.89 4.575 2.146 5.359.144.44.317.918.385 1.064.123.262 1.414 4.276 1.787 5.558.539 1.85.811 2.968 1.595 6.55.536 2.444 1.168 7.27 1.378 10.517.171 2.648.173 7.603.004 10.125-.147 2.193-.492 5.402-.654 6.086-.06.255-.183 1-.273 1.654-.201 1.457-1.046 5.38-1.576 7.31-.792 2.892-.963 3.455-1.688 5.592-2.573 7.578-6.753 15.904-10.398 20.708a870 870 0 0 0-1.377 1.852c-1.034 1.394-2.32 3.003-2.697 3.375-.037.036-.537.602-1.112 1.257-1.472 1.677-6.007 6.163-7.426 7.344a71.246 71.246 0 0 0-1.456 1.236c-.146.135-.623.52-1.06.854-.436.335-.823.646-.86.69-.177.216-2.551 1.927-4.541 3.272-5.774 3.903-11.545 6.859-18.004 9.22-1.254.458-2.844.997-3.534 1.197-.69.2-1.702.501-2.248.67a26.42 26.42 0 0 1-1.654.451c-.364.08-1.14.26-1.721.401-2.799.674-6.033 1.164-10.126 1.533-2.586.233-10.147.346-13.237.198-5.466-.261-10.667-1.015-14.693-2.128l-1.39-.38c-1.897-.514-2.858-.814-4.469-1.398-.91-.33-1.691-.6-1.738-.6-.046 0-.336-.11-.645-.244a41.948 41.948 0 0 0-1.355-.551c-2.056-.793-6.179-2.756-8.538-4.066-.328-.182-.983-.541-1.456-.798a17.843 17.843 0 0 1-1.212-.712c-.193-.135-.389-.245-.435-.245-.047 0-.157-.061-.245-.137-.088-.075-.845-.564-1.682-1.086-.837-.522-1.552-.984-1.588-1.027-.037-.043-.662-.482-1.39-.975a69.952 69.952 0 0 1-1.797-1.25c-1.47-1.101-2.134-1.617-2.779-2.164a310.277 310.277 0 0 0-1.97-1.65c-2.52-2.091-7.154-6.7-8.498-8.45a4.54 4.54 0 0 0-.463-.529c-.088-.072-.79-.936-1.563-1.918a1035.73 1035.73 0 0 0-1.667-2.117c-1.017-1.285-4.022-5.957-5.19-8.072l-.952-1.72c-2.282-4.12-4.393-9.39-6.36-15.879-.342-1.13-.866-3.35-1.577-6.682-.27-1.264-.808-4.978-1.094-7.542-.302-2.703-.344-12.78-.065-15.416.795-7.499 2.307-14.203 4.6-20.393.394-1.064.717-1.97.717-2.014 0-.044.144-.394.32-.778.177-.384.632-1.413 1.011-2.286 2.095-4.819 5.423-10.522 8.645-14.82.916-1.222 2.967-3.775 3.189-3.97.082-.073.24-.264.352-.425.696-1.013 5.366-5.792 7.471-7.648 1.982-1.747 2.076-1.827 2.902-2.486.438-.349.914-.732 1.058-.85.488-.405 2.96-2.218 3.838-2.816.481-.327.957-.67 1.059-.76.1-.091.208-.166.238-.166s.628-.372 1.329-.827c1.337-.868 1.582-1.019 3.4-2.091 3.054-1.801 9.125-4.577 12.84-5.87l1.788-.623c2.107-.732 7.56-2.169 9.795-2.58 5.505-1.015 10.466-1.496 15.556-1.484zm-51.555 33.297c-.024.024.123.531.328 1.127.924 2.698 1.13 4.217.928 6.818-.11 1.4-.569 4.033-.939 5.38-.713 2.602-1.483 5.169-1.565 5.225-.055.038-.139.173-.186.3-.135.367-.666.273-1.3-.23-.702-.559-.977-.58-1.227-.098-.244.472-.563 2.328-.734 4.265-.386 4.374-.443 5.258-.456 7.145-.017 2.348.13 3.098.786 4 .977 1.346 2.28 1.993 4.426 2.196 2.774.263 7.089.135 7.445-.22.207-.208.011-.575-.754-1.412-.399-.436-.727-.867-.73-.958-.003-.091-.057-.166-.12-.166-.065 0-.192-.181-.284-.403-.347-.836.134-1.184 1.64-1.185 1.135-.001 2.41-.407 2.536-.808.137-.43-.047-.707-.698-1.053-.347-.183-.7-.48-.787-.66-.47-.974-.553-3.579-.238-7.492.268-3.326.273-3.351.715-3.351.458 0 1.506.522 2.923 1.457 1.834 1.21 3.573 1.862 4.991 1.87 1.633.011 2.087-.507 2.797-3.195.541-2.041 1.039-5.237 1.276-8.187.14-1.729.225-2.234.424-2.5.37-.494.714-.573 1.321-.3.558.25 1.502 1.01 1.502 1.21 0 .066.178.307.397.536.218.228.477.57.574.76.098.189.327.612.51.939.184.328.797 1.489 1.363 2.58 1.089 2.1 1.747 3.201 2.079 3.474.167.138.261.108.545-.177.505-.505 1.07-1.746 1.651-3.628.303-.981.348-1.361.353-2.99.003-1.055-.055-2.003-.136-2.183-.89-1.997-1.408-2.661-2.809-3.605-.787-.53-2.497-1.41-2.742-1.41-.05 0-.278-.085-.508-.188-.511-.23-3.209-.917-4.67-1.189-2.821-.524-7.6-.99-13.749-1.34-2.038-.117-4.41-.254-5.27-.305-.86-.051-1.584-.073-1.608-.05zm70.992.401c-1.279 0-2.54.05-3.29.15-2.715.365-6.027 1.423-8.604 2.752-.692.356-1.883.97-2.648 1.366l-1.39.717 4.302.084c5.37.104 7.935.41 10.524 1.257 2.315.758 3.858 1.634 5.032 2.857 1.54 1.604 1.853 2.666 1.845 6.256-.005 2.56-.246 4.31-.774 5.623-.677 1.685-.924 2.207-1.298 2.756-.232.34-.47.639-.529.663-.059.024-.107.123-.107.22s-.044.196-.099.22c-.106.048-.55.575-1.092 1.3-.182.242-.39.506-.463.587-.073.08-.49.561-.927 1.07-2.725 3.171-8.164 8.703-11.122 11.312-1.576 1.39-2.402 1.997-3.372 2.48-.69.343-1.035.369-1.626.119-.51-.216-2.132-1.817-3.505-3.459a777.23 777.23 0 0 0-1.44-1.72 58.203 58.203 0 0 1-1.113-1.39c-.367-.472-.925-1.187-1.24-1.587-.735-.936-2.923-3.978-3.32-4.617a1.91 1.91 0 0 0-.204-.279c-.038-.036-.283-.394-.542-.794-1.919-2.96-2.365-3.866-2.365-4.796 0-.743.43-2.745.986-4.592.715-2.37.25-4.986-1.124-6.332-.602-.59-1.327-.818-1.688-.53l-.472.372c-.81.631-4.641 4-6.096 5.359-3.468 3.242-6.68 6.33-14.126 13.581a2130.842 2130.842 0 0 1-8.892 8.586c-.496.471-1.33 1.265-1.853 1.765-.524.5-1.623 1.506-2.442 2.236-.819.73-1.489 1.373-1.489 1.429 0 .11 2.603 2.68 3.243 3.203 1.038.847 1.726.936 3.177.413 1.866-.672 2.766-.868 4.317-.94 1.915-.09 3.065.14 4.708.944.983.48 3.128 1.879 3.352 2.185.036.05.19.176.343.281.313.216.715.547 3.61 2.968 3.61 3.02 6.561 5.916 7.119 6.988.235.45.167.679-.386 1.303a28.82 28.82 0 0 0-.68.794c-.905 1.116-2.955 3.294-7.437 7.902-2.296 2.36-2.412 2.476-12.493 12.512l-6.901 6.87 3.507 3.517c1.93 1.934 4.637 4.663 6.016 6.064 1.38 1.4 2.56 2.547 2.622 2.547.062 0 6.845-6.73 15.07-14.952 8.226-8.222 15.021-14.952 15.098-14.952.078 0 .258.104.4.231.143.128.735.617 1.316 1.088.58.47 1.086.89 1.123.933.036.042.513.431 1.059.864a54.77 54.77 0 0 1 1.14.92c.236.21 1.623 1.38 3.283 2.764.357.299.716.603.797.676.08.073.473.4.872.727 1.032.848 1.227 1.012 2.498 2.1.626.535 1.407 1.2 1.734 1.475.328.276 1.076.91 1.663 1.408a1094.405 1094.405 0 0 1 6.809 5.784c.182.156.83.7 1.438 1.21a291.101 291.101 0 0 1 3.793 3.22c.22.194.935.798 1.589 1.341a80.269 80.269 0 0 1 1.334 1.124c.08.074.494.434.921.797.427.364 1.05.9 1.385 1.191.335.291.961.828 1.39 1.191.43.364.874.751.987.86.113.11.67.57 1.237 1.026.596.477 1.16.827 1.337.827.859 0 3.45-1.732 5.252-3.511 1.128-1.114 1.518-1.59 3.296-4.006l1.198-1.63-.3-.421a15.794 15.794 0 0 0-.46-.62 586.06 586.06 0 0 1-1.73-2.184 1316.273 1316.273 0 0 0-5.322-6.682c-.96-1.2-2.008-2.511-2.327-2.912a838.73 838.73 0 0 0-2.22-2.778c-.089-.11-.339-.437-.555-.728a10.08 10.08 0 0 0-.465-.595 58.947 58.947 0 0 1-1.126-1.435 60.475 60.475 0 0 0-1.418-1.787c-.2-.23-.397-.522-.44-.649-.041-.127-.124-.231-.183-.231-.06 0-.454-.462-.877-1.026a37.576 37.576 0 0 0-.91-1.18 10.401 10.401 0 0 1-.422-.529 160.174 160.174 0 0 0-2.102-2.662 212.73 212.73 0 0 1-1.584-2.013 387.605 387.605 0 0 0-2.518-3.212 40.378 40.378 0 0 1-1.125-1.417 202.213 202.213 0 0 0-1.967-2.494c-.9-1.13-1.849-2.355-2.108-2.724-.59-.838-1.352-2.47-1.352-2.894 0-.347.376-.91 1.7-2.543.807-.994 2.647-3.098 3.255-3.72.15-.154 1.197-1.253 2.326-2.442 4.257-4.487 9.682-9.788 12.041-11.767.39-.328.774-.655.853-.728.568-.523 1.906-1.399 2.916-1.909 1.186-.598 1.213-.605 2.526-.605 1.026 0 1.462.059 1.92.258.685.3 1.797.987 2.18 1.349.146.137.444.388.662.556.331.256 1.439 1.261 3.387 3.075.189.176.561.608.828.958.401.53.484.748.484 1.274 0 .349-.085.875-.19 1.17-.254.722-1.517 3.376-1.648 3.463-.057.039-.171.266-.253.506-.186.544-.051.928.557 1.586.25.271.563.612.696.759.69.76 2.659 2.253 3.61 2.74 1.143.584 1.442.49 3.383-1.076 1.363-1.098 1.828-1.528 4.17-3.849 3.328-3.297 5.204-5.408 6.43-7.234.509-.756.596-.977.537-1.348-.217-1.348-2.046-3.543-3.802-4.562-1.021-.594-1.537-.513-4.952.777-.695.262-1.096.336-1.605.295-3.593-.288-8.271-7.307-7.785-11.68.102-.915.323-1.418.883-2.008.364-.383.386-.457.252-.84-.484-1.387-3.775-4.906-7.362-7.87a19.143 19.143 0 0 0-.917-.72 2.993 2.993 0 0 1-.343-.265c-.197-.22-1.195-.933-1.305-.933-.071 0-.15-.045-.173-.1-.057-.127-1.602-1.149-2.952-1.95-1.11-.66-4.538-2.345-5.1-2.51a26.048 26.048 0 0 1-1.324-.479c-1.338-.516-4.922-1.38-6.553-1.581-.82-.101-2.117-.152-3.394-.152z"/></svg>