<svg xmlns="http://www.w3.org/2000/svg" width="3072" height="2048" viewBox="0 0 812.8 541.867"><path d="M0 0v541.867h812.8V0L406.4 541.867z"/><path fill="purple" d="m0 0 406.4 541.867L812.8 0Z" style="fill:#ffc000;fill-opacity:1"/><path d="m 391.29716,67.733354 v 27.578797 c -28.76121,6.829139 -49.51144,28.498699 -49.51144,58.441879 0,33.75174 26.13475,46.75353 49.90543,58.57321 22.19473,11.0317 47.54149,23.24546 47.54149,38.74238 0,11.29435 -13.39572,19.43685 -33.35784,19.43685 -18.25483,0 -31.7819,-6.82921 -41.10631,-21.8008 L 330.754,272.60775 c 12.21367,22.58871 32.83259,36.50976 60.54316,39.92433 v 26.13469 h 35.85311 v -27.44798 c 33.22642,-6.69782 54.89597,-29.02403 54.89597,-61.06849 0,-32.56978 -22.06354,-50.43079 -57.12857,-66.97834 -24.29601,-11.42568 -40.31834,-15.75964 -40.31834,-28.36729 0,-10.90037 11.81974,-20.0935 27.71064,-20.0935 11.81969,0 24.03342,5.1219 30.33725,17.72956 L 474.0351,130.50861 C 466.28665,109.62718 448.95101,97.807411 427.15027,94.130181 V 67.733354 Z" style="font-size:270.933px;line-height:1;font-family:Heavitas;-inkscape-font-specification:Heavitas;text-align:end;text-anchor:end;fill:green;fill-opacity:1;stroke-width:67.7334;paint-order:stroke fill markers"/></svg>