<svg xmlns="http://www.w3.org/2000/svg" xml:space="preserve" id="svg1" width="4608" height="3072" version="1.1" viewBox="0 0 1219.2 812.8"><defs id="defs1"><style id="style1">.cls-1{fill:#0283c0}.cls-2{fill:#fff}.cls-3{fill:#ef483f}</style></defs><path id="rect1" d="M 0 0 L 0 812.8 L 1219.2 812.8 L 1219.2 0 L 0 0 z" style="fill:#000;fill-rule:evenodd;stroke:none;stroke-width:8.46667;stroke-linecap:round;stroke-linejoin:round;fill-opacity:1"/><path id="path1" d="M 0 0 L 609.6 812.8 L 1219.2 0 L 0 0 z" style="fill:#ffd000;stroke-width:4.23333;stroke-linecap:round;stroke-linejoin:round;stroke-miterlimit:128;fill-opacity:1"/><path id="rect7" d="M 575.73333,67.733333 V 135.46667 H 558.8 c -65.46415,0 -118.53334,53.06918 -118.53334,118.53333 0,65.46415 53.06919,118.53333 118.53334,118.53333 h 16.93333 v 101.6 H 558.8 c -28.05606,0 -50.8,-22.74393 -50.8,-50.8 h -67.73334 c 0,65.46416 53.06919,118.53334 118.53334,118.53334 h 16.93333 V 609.6 h 67.73334 V 541.86667 H 660.4 c 65.46415,0 118.53334,-53.06918 118.53334,-118.53334 C 778.93334,357.86918 725.86415,304.8 660.4,304.8 H 643.46667 V 203.2 H 660.4 c 28.05606,0 50.8,22.74393 50.8,50.8 h 67.73334 c 0,-65.46415 -53.06919,-118.53333 -118.53334,-118.53333 H 643.46667 V 67.733333 Z M 558.8,203.2 h 16.93333 V 304.8 H 558.8 c -28.05606,0 -50.8,-22.74393 -50.8,-50.8 0,-28.05607 22.74394,-50.8 50.8,-50.8 z m 84.66667,169.33333 H 660.4 c 28.05606,0 50.8,22.74393 50.8,50.8 0,28.05607 -22.74394,50.8 -50.8,50.8 h -16.93333 z" style="fill:green;fill-opacity:1;stroke:none;stroke-width:67.7333;stroke-linecap:butt;stroke-linejoin:miter;stroke-miterlimit:128;stroke-dasharray:none;stroke-opacity:1"/></svg>