<svg xmlns="http://www.w3.org/2000/svg" xml:space="preserve" width="3072" height="2048" viewBox="0 0 812.8 541.867"><path fill="#fff000" d="M0 0h812.8v541.867H0Z" paint-order="stroke fill markers"/><path d="M439.825 435.514c-.1-.002-.244.117-.501.267l-3.97 2.276c.17.628.506 1.263.57 1.887-3.97 9.424-7.896 18.867-11.895 28.278-.59 1.163-1.645 2.437-3.1 2.262h-2.058v2.535h13.37v-2.535c-1.077-.073-2.198.16-3.246-.143-1.142-.574-1.67-2.132-1.247-3.314 1.437-3.552 2.881-7.103 4.321-10.655h9.573c1.515 4.42 3.089 8.826 4.566 13.252.197.514-.225.989-.754.86h-2.432v2.535c9.356-.012 18.711.026 28.066-.018 4.675-.145 9.24-2.052 12.665-5.23 3.575-3.174 5.953-7.755 6.132-12.564.236-2.657-.203-5.355-1.021-7.884-1.243-3.675-3.565-7.226-7.157-8.947-2.447-1.243-5.247-1.427-7.943-1.345h-18.99v2.484c1.208.041 2.437-.081 3.633.061.763.264 1.148 1.07 1.018 1.84-.007 9.279.014 18.557-.01 27.834-.098.803-.86 1.445-1.677 1.288a25.2 25.2 0 0 1-2.19-.054c-1.349.121-2.951-.23-3.668-1.492-3.974-10.992-7.879-22.011-11.826-33.014-.076-.338-.13-.462-.23-.464zm-237.926.998a22.65 22.65 0 0 0-1.47.002c-4.646.098-9.364 1.875-12.511 5.375-4.004 4.415-5.61 10.7-4.735 16.544.776 5.858 4.372 11.473 9.804 14.008 3.87 1.792 8.333 2.07 12.486 1.262 5.037-1.007 9.512-4.459 11.72-9.104 1.665-3.34 2.295-7.13 2.017-10.84-.293-5.544-3.02-11.02-7.601-14.242-2.828-2-6.274-2.897-9.71-3.004zm321.52 0a22.65 22.65 0 0 0-1.47.002c-4.647.098-9.365 1.875-12.512 5.375-4.004 4.415-5.61 10.7-4.735 16.544.773 5.83 4.335 11.416 9.723 13.971 3.889 1.824 8.386 2.112 12.567 1.3 5.037-1.008 9.512-4.46 11.72-9.105 1.665-3.34 2.295-7.13 2.017-10.84-.293-5.544-3.02-11.02-7.601-14.242-2.828-2-6.274-2.897-9.71-3.004zm-153.617.516c-.75-.014-1.499-.004-2.233.003h-15.131v2.484c1.206.041 2.435-.08 3.628.06.81.246 1.144 1.11 1.023 1.891-.007 9.261.014 18.524-.01 27.784-.098.8-.858 1.449-1.677 1.287h-2.964v2.482h14.533v-2.482c-1.206-.038-2.43.079-3.625-.06-.803-.228-1.081-1.088-.974-1.84V453.73h4.82c3.167 5.506 6.274 11.05 9.477 16.532.973 1.678 2.822 2.875 4.8 2.757h30.61c1.01-3.804 2.018-7.609 3.027-11.414h-2.252c-1.088 2.683-2.248 5.58-4.724 7.289-1.59 1.166-3.62 1.427-5.54 1.325-1.965-.02-3.935.04-5.897-.03-1.144-.284-1.25-1.662-1.192-2.635v-13.03c1.808.036 3.624-.077 5.426.061 1.545.343 2.915 1.454 3.647 2.849.515.996.368 2.142.387 3.22h2.166v-14.48h-2.166c.034 1.291.09 2.716-.794 3.77-.989 1.372-2.67 2.196-4.365 2.044h-4.3c.016-3.466-.033-6.935.024-10.398.1-.819.569-1.883 1.563-1.758 2.553.037 5.111-.074 7.66.056 2.397.197 4.394 1.845 5.65 3.81 1.042 1.533 1.722 3.268 2.458 4.959h2.22l-2.557-11.626h-26.953v2.484c1.205.041 2.434-.08 3.626.06.766.26 1.157 1.068 1.024 1.842-.007 9.278.013 18.556-.01 27.833-.098.848-.923 1.464-1.766 1.287h-2.874c.175.671-.748.284-1.107.216-1.518-.396-2.667-1.584-3.342-2.96l-8.386-14.297c2.43-.418 4.798-1.836 5.839-4.146.708-1.473.91-3.126.819-4.744.07-2.375-1.072-4.804-3.14-6.045-1.931-1.228-4.198-1.49-6.448-1.533zm-224.059.003v2.484c1.209.041 2.438-.081 3.634.061.762.263 1.147 1.07 1.018 1.84-.007 9.278.014 18.557-.01 27.834-.098.803-.86 1.445-1.677 1.287h-2.965v2.482c5.497-.02 10.996.04 16.491-.03 4.855-.178 9.56-2.293 13.004-5.703 3.345-3.169 5.486-7.628 5.63-12.254.202-2.601-.233-5.235-1.034-7.709-1.243-3.675-3.565-7.226-7.157-8.947-2.447-1.243-5.247-1.427-7.943-1.345zm78.24 0v2.484c1.189.04 2.399-.08 3.574.06.748.233 1.214.98 1.078 1.755-.014 8.411.027 16.824-.02 25.235-.163 1.41-.676 3.034-2.015 3.739-1.045.363-2.188.1-3.273.18-.721-.189-.815.25-.717.88v1.655h13.687v-2.535c-1.079-.068-2.198.148-3.249-.134-1.535-.747-2.205-2.6-2.196-4.222v-23.452l19.69 30.343h4.198c.013-9.859-.026-19.72.019-29.578.167-1.378.61-3.018 1.956-3.689 1.094-.37 2.287-.104 3.422-.185.791.247.546-.541.574-1.057-.103-.448.213-1.316-.176-1.479h-13.457v2.536c1.134.078 2.322-.176 3.42.174 1.53.734 1.981 2.621 1.97 4.18v22.584L233.04 437.03zm38.59 0-.121.362c-1.097 3.288-2.19 6.576-3.29 9.864l2.464.096c.365-2.297 1.596-4.472 3.546-5.78 1.77-1.234 3.992-1.682 6.057-1.685.927.04 1.874-.096 2.788.07 1.134.584.908 2.061.932 3.122-.007 8.724.015 17.448-.01 26.17-.098.8-.858 1.449-1.677 1.287h-2.964v2.483h14.586v-2.483c-1.224-.04-2.465.08-3.678-.06-.802-.228-1.081-1.088-.974-1.84.012-8.956-.022-17.913.017-26.867.05-.865.555-2.043 1.61-1.885 1.93.07 3.888-.168 5.798.188 3.358.742 6.308 3.363 7.145 6.743-.031.755.676.487 1.185.494.38-.141 1.514.242 1.186-.39-1.08-3.296-2.16-6.592-3.238-9.889zm53.259 0-.12.362c-1.097 3.288-2.191 6.576-3.29 9.864l2.464.096c.365-2.297 1.596-4.472 3.546-5.78 1.77-1.234 3.991-1.682 6.056-1.685.927.04 1.875-.096 2.789.07 1.133.584.908 2.061.932 3.122-.007 8.724.014 17.448-.01 26.17-.098.8-.858 1.449-1.677 1.287h-2.964v2.483h14.586v-2.483c-1.224-.04-2.465.08-3.678-.06-.802-.228-1.081-1.088-.973-1.84.011-8.956-.023-17.913.017-26.867.05-.865.554-2.043 1.609-1.885 1.93.07 3.888-.168 5.798.188 3.357.742 6.308 3.363 7.145 6.743-.032.755.676.487 1.185.494.38-.141 1.514.242 1.186-.39l-3.239-9.889zm229.67 0v2.484c1.189.04 2.4-.08 3.575.06.747.233 1.213.98 1.077 1.755-.014 8.411.027 16.824-.02 25.235-.163 1.41-.675 3.034-2.015 3.739-1.045.363-2.188.1-3.273.18-.72-.189-.815.25-.717.88v1.655h13.687v-2.535c-1.078-.068-2.198.148-3.249-.134-1.534-.747-2.205-2.6-2.196-4.222v-23.452l19.69 30.343h4.198c.013-9.859-.025-19.72.02-29.578.167-1.378.61-3.018 1.955-3.689 1.094-.37 2.288-.104 3.423-.185.79.247.545-.541.573-1.057-.102-.448.214-1.316-.176-1.479h-13.457v2.536c1.135.078 2.322-.176 3.42.174 1.53.734 1.982 2.621 1.97 4.18v22.584L554.56 437.03zm49.24 0v2.484c1.208.042 2.438-.083 3.633.062.759.265 1.148 1.068 1.017 1.84-.013 8.383.026 16.767-.02 25.15-.181 1.347-.623 2.88-1.827 3.662-.971.479-2.101.163-3.142.255-.538-.005-1.224-.159-.982.616v1.92h13.633v-2.536c-1.099-.075-2.247.17-3.31-.167-1.62-.833-2.158-2.838-2.08-4.538v-21.896c3.827 9.712 7.651 19.425 11.48 29.137h3.736c3.77-9.912 7.543-19.823 11.314-29.734-.006 8.645.012 17.29-.009 25.933-.17.787-.877 1.49-1.732 1.318h-2.962v2.483h40.538c1.011-3.804 2.02-7.61 3.028-11.415h-2.252c-1.087 2.683-2.248 5.58-4.724 7.289-1.59 1.166-3.62 1.427-5.54 1.325-1.965-.02-3.935.04-5.896-.03-1.145-.284-1.25-1.662-1.192-2.635v-13.03c1.807.036 3.623-.077 5.425.061 1.545.343 2.915 1.454 3.647 2.849.515.996.368 2.142.387 3.22h2.166v-14.48h-2.166c.034 1.292.09 2.716-.794 3.77-.989 1.372-2.67 2.196-4.365 2.044h-4.3c.016-3.466-.033-6.935.024-10.398.1-.819.569-1.883 1.563-1.758 2.553.037 5.112-.074 7.66.056 2.397.197 4.394 1.845 5.65 3.81 1.042 1.533 1.722 3.268 2.459 4.959h2.219l-2.557-11.626h-35.849c-3.916 10.24-7.829 20.482-11.744 30.723-4.035-10.241-8.069-20.483-12.106-30.723zm-393.539 1.638c3.723-.06 7.24 2.142 9.142 5.285 2.61 4.248 3.282 9.438 2.79 14.331-.459 4.179-2.042 8.447-5.247 11.293-2.298 2.013-5.469 2.712-8.472 2.245-3.148-.433-5.783-2.62-7.383-5.284-2.744-4.39-3.29-9.862-2.656-14.865.406-2.925 1.375-5.77 3.006-8.195 1.597-2.472 4.206-4.352 7.17-4.698a14.234 14.234 0 0 1 1.65-.112zm321.52 0c3.722-.06 7.239 2.142 9.142 5.285 2.608 4.248 3.28 9.438 2.79 14.331-.46 4.179-2.043 8.447-5.248 11.293-2.298 2.013-5.469 2.712-8.472 2.245-3.148-.433-5.783-2.62-7.382-5.284-2.745-4.39-3.292-9.862-2.658-14.865.407-2.925 1.376-5.77 3.008-8.195 1.596-2.472 4.205-4.352 7.17-4.698a14.233 14.233 0 0 1 1.65-.112zm112.024.823c.096-.005.197.003.3.023h2.471c1.206.04 2.434-.081 3.627.06.765.26 1.156 1.068 1.023 1.842-.007 9.277.014 18.556-.01 27.833-.098.848-.923 1.464-1.765 1.287-1.96-.019-3.923.037-5.879-.027-.853-.179-1.149-1.102-1.037-1.874.006-9.273-.011-18.547.009-27.82.102-.658.586-1.29 1.26-1.324zm-477.813.34c.115-.019.238-.02.37 0h7.347c2.818-.068 5.53 1.385 7.21 3.62 1.377 1.715 2.263 3.776 2.78 5.844.933 3.786 1.002 7.875-.398 11.56-1.36 3.527-3.863 6.804-7.368 8.394-2.083.966-4.412 1.025-6.665.969-1.15-.042-2.321.084-3.459-.063-1.191-.501-1.093-1.973-1.073-3.044.011-8.465-.023-16.931.017-25.395.045-.757.435-1.753 1.24-1.885zm205.438 0h5.541c1.939.017 4.117.583 5.292 2.24.918 1.372.472 3.073.409 4.6-.258 1.778-1.365 3.531-3.154 4.072-1.945.656-4.03.308-6.042.397h-2.046zm103.593 0c.114-.019.237-.02.37 0h7.346c2.819-.068 5.53 1.385 7.21 3.62 1.377 1.715 2.263 3.776 2.78 5.844.933 3.786 1.002 7.875-.398 11.56-1.36 3.527-3.863 6.804-7.368 8.394-2.083.966-4.412 1.025-6.664.969-1.15-.042-2.322.084-3.46-.063-1.191-.501-1.094-1.973-1.073-3.044.011-8.465-.023-16.931.017-25.395.045-.757.436-1.753 1.24-1.885zm-28.645 3.776 3.485 10.282h-7.721l4.236-10.282zM330.522 68.22c-15.777 2.07-30.086 4.925-44.14 12.954-38.713 22.114-56.744 67.692-46.472 110.351 2.579 10.714 7.55 21.822 14.066 30.713 3.794 5.178 12.159 11.803 13.31 18.113 3.18 17.435.18 38.168.18 55.913 0 7.74-1.666 17.377 4.11 23.543 7.19 7.677 21.258 6.07 25.552-3.855 5.365-12.4-6.496-41.677 16.842-41.675 2.794 0 5.524.863 7.851 2.404 7.383 4.892 7.124 12.518 7.124 20.37v41.739c0 9.871.268 20.77 11.824 23.811 21.685 5.707 16.471-19.467 20.204-30.899 2.646-8.102 11.938-13.169 19.994-9.735 8.82 3.76 9.458 11.658 9.458 19.973v44.1c.018 10.157 5.072 21.733 17.34 20.227 12.129-1.488 14.188-12.492 14.188-22.589V341.94c0-8.315.638-16.213 9.459-19.973 2.197-.936 4.723-1.362 7.094-1.022 18.853 2.707 10.316 21.296 14.982 32.808 3.562 8.786 14.99 11.747 22.778 6.922 6.96-4.312 7.167-12.262 7.167-19.523V297.84c0-9.515.353-20.494 11.823-23.206 25.131-5.942 15.466 28.87 19.681 40.531 3.67 10.152 17.547 12.504 25.164 5.345 6.542-6.149 4.812-16.144 4.812-24.245v-38.588c0-5.612-1.146-12.679.342-18.113 1.908-6.97 10.88-13.515 14.87-19.687 7.398-11.44 11.907-24.466 14.255-37.8 10.223-58.088-38.926-115.34-98.04-114.178-16.576.326-33.774 4.56-48.081 13.064-5.593 3.325-10.883 6.995-15.764 11.297-1.819 1.603-4.32 4.445-7.023 4.082-2.743-.368-5.222-3.787-7.168-5.492-4.326-3.79-9.25-6.954-14.184-9.887-14.987-8.909-36.05-15.044-53.598-12.742z"/></svg>