<svg xmlns="http://www.w3.org/2000/svg" xml:space="preserve" width="4608" height="3072" viewBox="0 0 1219.2 812.8"><path d="M 0,812.8 V 0 h 1219.2 v 812.8 z" style="display:inline;fill:#d00000;fill-opacity:1;fill-rule:evenodd;stroke:none;stroke-width:8.46667;stroke-linecap:round;stroke-linejoin:round"/><path d="m 609.59997,304.79998 c 61.89521,44.67672 123.31497,109.2597 116.83073,206.62297 -2.01048,30.386 -10.15825,52.626 -21.44952,68.82437 l -147.0442,-141.41009 51.57409,-49.90012 -21.79573,-23.53517 -86.75091,-3.05097 -89.35989,92.8484 63.64329,63.64329 45.34572,-43.87328 141.50139,138.51174 c -20.10963,7.63478 -40.32312,7.97768 -53.10338,5.91591 -19.86555,-3.20479 -36.61594,-19.34373 -43.13052,-27.02089 7.69122,-8.26517 2.65824,-16.06139 2.65824,-16.06139 -18.72295,-3.77692 -24.13789,7.05311 -31.60219,20.129 -25.04084,-2.8076 -44.33939,9.02794 -41.66498,33.25789 -18.89532,14.9739 -33.86017,18.95918 -46.15531,31.87437 -20.66873,21.71105 -14.83868,35.19773 -16.09547,49.62383 8.8059,-2.24586 26.17356,6.32431 48.19617,-14.50212 12.76644,-12.07301 21.36179,-30.63351 34.92465,-48.78942 26.67564,7.10323 33.28763,-26.5263 31.33245,-39.72366 1.69484,-1.24667 3.42572,-1.89861 5.22276,-3.07269 28.71608,42.84031 95.78988,70.21182 146.44338,44.61259 l 55.11462,53.95019 c 3.80193,3.14119 9.1296,8.04804 14.30093,7.47997 15.61131,-1.7148 32.54566,-21.43207 32.0604,-34.7448 -0.0967,-2.65327 -1.97667,-6.03567 -6.2532,-10.22434 l -54.6857,-52.59041 c 84.21102,-104.268 18.0473,-265.40067 -130.05782,-308.79517 z" style="fill:gold;fill-opacity:1;fill-rule:evenodd;stroke:none;stroke-width:.231066px;stroke-linecap:butt;stroke-linejoin:miter;stroke-opacity:1"/><path d="M 609.6 101.6 L 586.78951 171.80398 L 512.97282 171.80398 L 572.69166 215.19203 L 549.88116 285.39602 L 609.6 242.00797 L 669.31884 285.39602 L 646.50834 215.19203 L 706.22718 171.80398 L 632.41049 171.80398 L 609.6 101.6 z M 609.59948 156.39821 L 620.10737 188.73835 L 654.11149 188.73835 L 626.60155 208.72473 L 637.10943 241.06642 L 609.59948 221.07798 L 582.09005 241.06436 L 592.59742 208.72473 L 565.08799 188.73835 L 599.0916 188.73835 L 609.59948 156.39821 z" style="color:#000;fill:#ffd000;stroke-linecap:square;stroke-miterlimit:128;-inkscape-stroke:none"/></svg>