<?xml version="1.0" encoding="UTF-8" standalone="no"?><svg xmlns="http://www.w3.org/2000/svg" xml:space="preserve" width="3072" height="2048" viewBox="0 0 812.8 541.867"><path d="M0 0v541.86683h812.80025V0H0z" style="fill:green;stroke-width:135.467;stroke-linecap:round;stroke-linejoin:round;stroke:none;fill-opacity:1"/><path d="m259.94902 203.89324.00363.00273c-.46872.004-1.13154.12165-1.7425.44957-.61167.33162-1.78891.303-2.80478.3599-1.01604.0517-2.02996.33288-2.70087.61482-.66989.28567-1.17851.41072-1.72569.79904-.54635.38962-1.26697.90077-2.22405 1.46952-.95721.5678-1.3672 1.09508-2.08017 1.57024-.7127.47554-1.24943.2882-2.52837 1.55223-1.2781 1.267-2.6995 3.15401-3.28617 5.0585-.58651 1.90452-1.48803 4.80605-.82458 7.28348.1458.53226.42857.82738.56975 1.28072.29477.94455-.40965.95595-1.07331.80849-.66387-.14495-3.54645-.0471-3.9833-.20077-1.05496-.37553-1.87248-1.28832-3.40777-1.35689-1.53533-.0661-1.89696.38505-3.10362.67281-.7248.17243-1.42037.08885-2.06088-.04455l.03022-.03684c.51386-1.42147.13087-2.82661-.5466-3.61913-.42356-.4965-1.18227-.74157-2.06556-.74527-.52998-.002-1.10482.0825-1.67918.25185l-2.25807 2.84385c-.25162-.0398-.50363-.07879-.78073-.08989-1.41849-.0559-1.52339-.37032-2.4195-.17838-.896.19046-1.06459.23252-1.97656.74567-.456.25658-.4769.8306-.93172 1.26775-.45474.43708-1.76861.8285-2.11721.83949-.6964.0206-1.85203-.007-2.88951 1.10276-1.03761 1.10657-1.03591 3.20778-1.60434 4.06097-.56807.85365-1.85785.63259-2.22403 2.53207-.36756 1.90917 1.60553 2.94427 1.43262 3.70092-.0871.3782-.23541.51211-.84094.59062-.60584.0792-1.26413-.0969-1.78143.2184-1.29823.79084-1.54268-.08099-3.39124.92693-1.71804.93515-1.53195 2.66251-2.07463 3.38219-.54231.71946-2.05396 1.57966-2.09682 3.15777-.0451 1.57792.74473 2.40911 1.59348 3.49423.28609.42246.48462.79921.70812 1.19338l-7.15275 9.00845c-1.13351-.0409-2.24192-.00798-2.97697.01292-.93291.0322-7.86692-.99151-11.08354-1.02501-.7423-.008-1.28662.0371-1.51354.16004-1.21023.65596-7.91093 11.85516-7.91862 13.57603-.008 1.72103 2.39049 4.93638 3.52364 5.5945 1.13321.65886 1.72998.7398 2.62399.87608 1.96229.30568 3.71183.16289 5.65872.37089 1.14559.12225 1.99742.96416 2.97167 1.48408.44959.23746 2.76384.87593 3.47758 1.04508 1.94867.46129 2.95979.22017 4.52068.28683 1.56067.0719 3.39242.30163 4.37843-.04569l-.00025-.00406c.36716-.13071 1.27589-.77611 1.85126-.74018.57531.0381 3.18781.12294 4.55223-.50577 1.36449-.62819 2.29199-3.09316 3.84177-5.97021 1.54971-2.87714 2.5507-4.71999 2.62477-5.56744.078-.84698-.82561-2.74039-1.58789-4.20335-.76205-1.46317-2.03464-3.02455-2.60704-3.43025-.56875-.40182-5.38813-.45371-6.60597-.77535l5.75305-7.01855c1.04507-.0303 4.25832-.46927 4.99074.35155.75695.8487.8305 1.78154 1.1619 2.66211.33134.88007 1.46402 4.87716 1.66555 5.73722.0154.0655.06842.3033.08922.39244-3.57512 7.68607-5.58423 16.21697-5.58421 25.21111.00001 33.67942 27.94519 60.98078 62.26768 60.98069 34.32227-.00009 62.26553-27.30142 62.26559-60.98068.00006-25.05205-15.46651-46.56578-37.51326-55.94903.0378-.68499-.13439-1.15629-.13155-2.13174-.00028-.25847.01579-2.03148-.426-2.55002-.44474-.51777-1.41556-1.90222-2.62253-3.1399-1.2069-1.23776-1.97492-2.21423-3.54613-3.01032-1.57124-.79838-2.92629-.91421-5.30001-.89129-2.37374.0284-3.56518.12733-3.99986.21878-.43387.0915-.77303.2453-1.20066.60802-.36536.31294-.56256.75808-.80208 1.1095-.2401.35156-1.13341.43957-1.70397.23593-.22591-.0804-.23496-1.18949-.5697-1.68233-.33771-.49148-.43752-.395-.78525-.79677-.34676-.40184-.55916-1.31004-.55249-1.7944.006-.48411.81732-.74644.77466-1.45799-.0483-.7119-.96448-1.12198-1.67635-1.42803-.71244-.30503-1.55351-.86482-1.74522-1.27487-.30985-.64977-.60569-1.60423-.82184-2.29635-.15409-.49976-.23397-1.08729-.59817-1.4755-.14594-.15645-.44925-.28606-.56956-.54291-.18716-.3988.0971-.62147.25441-.95604.15723-.33421-.30568-1.09443-.50883-1.53491-.20618-.43859-1.1067-.75835-1.87005-1.0504-.7632-.29138-1.93154-1.08675-2.74404-1.31632-.81297-.23386-1.17401-.34395-1.6429-.33577zm-29.44545 30.876v.00017l-.00005.00194c.67334.0382 1.35102.14786 1.69293.14779.50212-.003 1.66887.4279 2.00824.63126.15299.092.28463.20562.38288.34615-5.63626 3.51996-10.66204 7.8944-14.87333 12.95127-1.14451-1.657-2.39849-3.512-2.60446-4.05076-.33722-.88237-1.15883-2.46831-2.00829-3.26393-.35534-.33258-.96499-.7908-1.3363-1.20437l.44261-.53993c.33415.061.7037.11458.96007-.02047 1.07396-.56503 3.18766-.46017 4.05535-.59633.86758-.13692 3.9437.10819 5.7757-.87912 1.832-.9852 3.17341-2.73196 3.83389-3.26986.33081-.2692.99747-.295 1.67076-.25381zm65.71989 4.56713c16.98852 9.55791 28.4055 27.46707 28.40545 47.99957-.00002 11.72695-3.73169 22.59472-10.08863 31.54645-1.32819-.32069-3.75697-.56313-4.01194-1.5519-.15165-.5933-.53262-6.5024-.68054-12.46579-.14778-5.96331-.25273-11.94733-.47582-12.50132-.44643-1.10879-1.96771-1.97839-3.10367-2.786-.89657-.63766-2.8015-1.37304-3.16444-2.08347-.36098-.71115-.63013-2.40977-.60807-3.22867.0243-.81893.23288-1.81725-.11072-2.25466-.34362-.43667-.60376-1.08083-.62475-1.55829-.0247-.47734-.28925-1.58055.05495-2.67985.34273-1.09801 1.42803-1.38525 1.58215-2.21335.15449-.82788.12506-5.66162-.32658-6.22702-.45019-.56546-.82126-1.28539-.88532-1.88285-.0684-.59727-.25324-2.22014.19359-2.98086.44754-.75959.64577-1.3571 1.02899-1.69984.37799-.34161.12929-1.00458.04221-1.35756-.0837-.3518-.57091-.45982-.70807-.89702-.19416-.61509.10607-1.51034-.17736-2.11908-.29684-.63609-.54927-1.03394-.70265-1.73519-.15553-.70108-.10549-1.88478-.1165-3.11637-.0125-1.23161-.0652-2.08576-.25499-3.09884-.30541-1.61912-1.70511-2.29112-2.66109-3.31112-.29551-.31671-.11559-1.57897-.25475-2.02447-.23006-.74815-1.19584-1.06902-1.58232-1.68814-.48479-.77638-.15375-1.76306-.31471-2.62654-.0886-.46723-.25224-.9611-.45442-1.45782zm-66.18205 6.87588c-.0166.0585-.04272.11656-.05762.17511-.57381 2.24408-.93717 4.56473-1.0731 6.88216-.0639 1.0292.0298 2.07894-.066 3.10464-.0524.5855-.46693 1.24388-.73616 1.65847-.13315.20778-.14655 1.35188-.22148 1.77679-.0705.42464-.61628.56763-1.07926.25142-.77185-.52479-1.72028-1.37782-2.43434-2.52016-.52947-.84789-1.29097-2.29292-1.80418-3.32363 2.21804-2.90268 4.72441-5.5818 7.47214-8.0048zm14.87674 26.79465c.57026-.086 1.70336.85407 2.16702 1.33774.52997.55324 2.0706.90178 2.34565 1.9183.27358 1.01634.89744 5.86805 1.51936 7.18822.6184 1.32134 2.35659 1.20575 3.47434 1.71177 1.11799.50476 2.09197.49374 2.47846 1.10976.38725.61521-.0218 1.97562-.0252 2.39019-.00065.29409.11956.98472-.00193 1.23933-.69669 1.48651-3.7482.56108-4.89622 1.38088-1.14869.81964-1.00682 2.87079-1.00686 4.34415.0395.76461-.42265 1.51416-.9847 1.71164-.56218.19911-2.36789 1.19143-3.68453 1.71774-1.31668.52586-3.12858 1.60222-3.57185 2.07493-.79541.84872-.67888 6.36557-1.06428 7.17996-.2139.4569-.84318.89943-1.07325 1.14504-.46137.49189.29742 2.95135.08318 3.62421-.18549.59274-.34831 1.22486-.53143 1.81193-.17577.56178-2.12437 3.24085-5.50468 6.73478l.00002.00599c-2.01442 2.08215-4.43355 4.27376-5.75783 5.75985-10.81043-10.0821-17.5455-24.29475-17.54551-40.0573-.00001-5.12997.72723-10.0909 2.06064-14.80528.38851 1.99385.7737 3.85929 1.00158 4.58844.40378 1.29257 1.04776 4.59055 1.78715 5.77254.73803 1.18217.75118 2.27795 1.5657 3.14608.81445.86863 1.52724 1.5109 2.46191 2.67367.31726.39371 1.12258.87374 2.73287 2.63248 1.61029 1.76073 3.01381 1.71709 3.92809 1.70576.91381-.0155 2.91721-1.09046 3.96093-1.54071 1.04425-.45061 1.82924-1.50396 2.94882-2.10132 1.14731-.61231 2.74932 1.32589 3.86151.48437.6023-.45661.71365-1.07928 2.52027-2.12204 1.80654-1.0427 2.37218-1.67247 2.62466-2.21089.49301-1.05091-.026-2.42006.2213-3.47649.40019-1.70817 1.34302-2.30829 1.69846-4.2026.12847-.6847-.21003-4.54512.00003-4.76906.0549-.0585.12485-.0918.20632-.10406zm12.5883 59.20941c2.03065.2226 2.75505 1.27938 2.79924 2.79183.0299 1.13518.76707 2.41756 1.77046 3.48837.7432.79239.74976 2.47283.54807 3.92839-4.36204-.40386-8.584-1.2702-12.60042-2.57903 2.05604-3.46192 5.76607-7.81828 7.48265-7.62956z" style="color:#000;display:inline;fill:#001500;stroke-linecap:round;-inkscape-stroke:none" transform="matrix(2.9313592 -.06938169 .07630269 2.9311872 -397.79494 -548.77872)"/><path d="m265.75482 201.07183.00018.00035c-.90151-.0244-2.22249.38308-2.72889.95028-.68008.76361-.55393 2.91296-.34084 3.90457.0839.40538-.05201.81603.05199 1.22698.12993.50115.17072 3.26137.09728 3.72904-.0742.47294.06689.96378-.02961 1.41749-.35415 1.70785-.44263 1.39952-1.62862 2.06958-.25614.14549-.9777.0803-1.13903.45222-.20121.45957.32964 1.34787.0148 1.45433-.31034.1136-.60365.16266-.86551.02978l.00899-.00194c-.17819-.0876-.80896-2.30799-1.72802-2.68412-.919-.37568-2.35261.44917-2.01547 1.73525.18264.6875 1.11115 1.9892 1.76309 2.24899.92413.36751 2.44649.20349 3.74244.20497 1.296.003 2.1242.15295 3.41797.21977 1.29409.0742 1.73938.20781 3.22747.38155 1.48815.17298 1.97043.19459 2.36266.04459.98403-.37568.76081-3.06903 1.80557-3.77398.18858-.12696.41204-.26956.61102-.34455.40538-.1522.65482-.0519 1.27209-.80312.61623-.75723-.10027-1.38545-.36904-1.90479-.0794-.16854-.12534-.42018-.19439-.60802-.18635-.5457.35332-.87332.79025-.53313.41428.32221 1.17954.04449 1.39775-.46403.11211-.2554-.0594-.62809-.19897-.84525-.76591-1.15993-1.91032-1.36914-3.14551-1.28161-1.23514.0869-2.30049.30002-3.43191.32675-.46551.0148-1.40338.30366-1.66598-.21977-.43062-.85931.48347-1.12541.75959-1.43494.27619-.31033-.08091-.55169-.46704-.88577-.39053-.33336-.6542-.40769-.40993-1.26558.10691-.37346 1.17584-.5316 1.39493-.79272.21902-.26134.13883-.6882.13289-.89653-.007-.49669-1.27101-1.44357-2.13514-1.61893-.10807-.0219-.22828-.03421-.35706-.03771zm-35.77969 14.53231a1.6350599 1.1273301 39.275271 0 0-.81634.39372 1.6350599 1.1273301 39.275271 0 0 .71236 1.91466 1.6350599 1.1273301 39.275271 0 0 1.92753.00599 1.6350599 1.1273301 39.275271 0 0-.71236-1.91484 1.6350599 1.1273301 39.275271 0 0-1.11119-.39918v-.00035zm57.76603.82075c-1.07467.0372-1.93827.4695-1.6362.95733.69048 1.11475 2.859 2.50877 4.34271 3.25478v-.00036c.57317.28807.47681-.93099.45751-1.68079-.0446-1.75519-1.41842-2.42755-2.69328-2.52162-.15937-.0118-.31721-.01469-.47074-.00899v-.00035zm-50.1911 2.61062c-.85894.0594-1.47543.40612-2.14289 1.23121-.88841 1.10357-1.04161-.34226-1.70811-.56203-.72685-.23907-2.27097.84581-2.91252 1.20865-.34821.19675-.90621.7912-1.19948 1.1207-.34672.39053-.72827 1.48534-.40976 2.12333.0668.13513.12242.34593.20038.46175.27025.40761 1.92835-.23974 2.18167-.38226.40612-.23016 1.10649-.20876 1.4723-.41293.26802-.15146.72997-.80461.86762-1.11859.12325-.28065.17521-.63411.48184-.80859.2168-.12176 1.42737.0223 1.57029.16338.3341.3393.43952.6571 1.07929.64151 1.01452-.0223 1.42351.13278 2.33269.7476.11879.0802.72244.44105 1.00739.22577.2851-.21531.81008-.50704 1.18397-.56644.87884-.13809 1.08124-.12554 1.28972.00705.20863.13438-.31182.39581-.84665.6475-.5353.25244-.59105.88854-.29926 1.04616 2.53858 1.53212 7.07701 4.00263 12.05193 6.52102 4.97498 2.51831 9.58562 4.61977 10.66722 4.48405 1.31069-.16482 1.67493-.53157 2.56216-1.50121.88715-.96919-.76224-1.61463 1.02818-2.59265 1.79016-.97773 3.40578.81944 4.29617 1.33307.89042.51303 1.21852 1.27307 2.31526.11121 1.09675-1.16148-3.01176-2.73315-2.83833-3.27188.17374-.53827 3.253-.01469 5.53514 1.06942 2.28211 1.08145 6.00652-.27403 6.72157-1.6933.71423-1.41963-4.52201-7.70773-6.14545-7.53563-1.62299.17224-.17216 3.07417-1.23632 3.09934-1.06382.0223-1.74575-2.1577-6.91843-3.63828-5.17272-1.48052-22.9758-.82836-28.04826-.46404-1.44481.10394-1.78801-1.53973-3.18693-1.67233-.3497-.0297-.66606-.0444-.95257-.0222l.00017-.00036zm-15.18493.73245c-.10301-.0109-.20813-.00298-.27458.05182-.25614.19006-.24581.52184-.49082.97354-.24946.45067.1003 1.39144.02238 2.23647-.0743.84498.32514 2.42999 1.75287 2.46206l.006-.00599c.12622.007.60648-.0371.69261-.15368.41131-.58951.17082-1.63466.07878-2.30397-.17374-1.23491-.29326-2.76949-1.52534-3.20174-.05822-.01857-.15903-.04757-.2619-.05851zm-2.7488 2.76184c-.14479.0196-.27716.12171-.3886.26278-.22125.27916-.0445.61777-.0742.90428-.0223.28733-.1455.67266-.06679 1.07329.075.40018.12107.93968.33415 1.34453l.00599.00053c.1923.36603 1.30606.74824 1.46613.13958.17893-.67414-.4907-3.1128-.81352-3.49182-.16111-.1897-.31836-.25275-.46316-.23317zm-3.28897.28815.00035.00018c-.31417.0529-.5144.29765-.56167.71694-.0594.56723-.01482 2.03319.02238 2.42646l-.00793.00106c.0371.39275.01481.4426.16778 1.17939.16112.75307.2739 1.58331.83467 1.75534.55981.17223 1.14162-.14112 1.33184-.67271.19007-.53232-.18563-1.10721-.34155-1.62069-.15591-.51303-.35201-1.34977-.46263-1.56412-.1136-.21456-.11949-2.10909-.63252-2.21021-.12863-.0256-.24598-.02934-.35072-.01164zm72.0495 2.64447c-.0443-.007-.0885.00026-.132.02344-.69642.37123-.5042.56715-.49083 1.09815.006.30663.31492.77935.46633.93336.22867.23239.16041.63942.46333.79237 1.04546.52621.35712-2.74278-.30683-2.84732zm-74.4964 1.90003c-.1211-.005-.27209.01986-.46421.08266-.76717.25614-.60654.64224-.57313.98465.0223.23657.28602 1.08004.50563 1.52746.22199.44399.23833.91372.94358.57754.16037-.0668.46549-.0594.67041-.65262.20863-.59619-.22709-1.27506-.49734-1.91431-.12752-.31182-.22164-.59112-.58494-.60538zm82.22465 6.23358c-.67955.10326-.73252 1.00823-.97548 1.28108-.2779.31182-1.33845.56923-1.30875 1.23966.033.67021.6619.80606 1.6184 1.05849.95612.25243 3.1959.13431 3.56267-.27775.53991-.60561-.34753-1.62697-.78038-1.91801-.43245-.2916-.78393-1.19694-1.78442-1.37449-.12503-.0221-.23496-.02368-.33204-.00898zm-85.1941.17659-.00035.00017c-.21918.0459-.38586.15684-.49065.38403-.20937.45734-.0765.7502.19968 1.35686.48482 1.09207 1.14266 1.27071 1.36391 1.70794.40983.80953-.69706 1.79525-1.43899.7409-.28139-.40166-.32011-1.29878-.6401-1.85562-.7801-1.34027-1.43623-1.76775-2.51634-1.15753-.60213.34079-1.13651.73191-.52555 1.86637.61252 1.13454.79261 1.22875 1.10414 1.69753.31332.46923 1.0794.89609 1.06871 1.52094-.007.54718-.8838.83068-1.2594.56414-.37568-.26654-.41582-1.30532-1.12687-1.35157-.60138-.0371-1.4377.64077-1.69207.89811-.50783.52045.57017 1.95764.7892 2.3861.21456.42914.49609 3.07824 1.54032 2.95447 1.04514-.1277 1.23346-1.27065 1.75993-1.57082.5264-.3007 1.4998.20185 2.11099-.14116.61103-.3445.93359-1.32894 1.30734-1.54069.3742-.2116.39789-.1656.87009-.43213.23536-.13365.58573.0742 1.05021.11208.46477.0371 1.2042-.44162 1.45626-.86868l.00405-.0007c.29475-.50041.33483-1.52246.052-2.7236-.27768-1.2015-1.33941-1.82179-1.65154-2.1302-.31183-.30812-.31565-1.29332-.94799-1.67709-.63257-.38385-1.26562-.69865-1.58086-.7328-.31517-.0334-.58694-.05275-.80612-.00705zm46.25445 3.55439c-.22342.01132-.40294.06723-.51426.19122l-.003.00105c-.74304.83311.66814 2.92598.89318 3.56761.23536.68379-.0809 1.82299.76646 2.24916 1.45565.73205 8.13311 3.43493 11.49907 2.93949.69493-.1084.15964-2.79239-.003-3.40053-.59989-2.30396.14029-3.5824-2.23577-4.24525-.88877-.24724-2.22695-.4982-3.11572-.63481-1.67378-.25689-3.67498-.00402-4.747-.19227-.80362-.14143-1.86926-.50958-2.53978-.47567h-.00018zm-7.95296.043c-.74271.0508-2.43224 1.23802-2.58384 1.33501-.40493.25986-1.31447.14995-1.53275.64962-.38355.87629 1.2007.85799.50651 2.44408-.26951.61802-1.49663 1.30234-.52202 2.04331.45319.34076.90268.4864 1.42313.24956 1.59723-.72752 1.49703-1.96912 1.76503-3.63176.12557-.78056.95861-1.44776 1.13657-2.24564.00006-.00014.00011-.00021.00018-.00035.00005-.00023.00012-.00047.00017-.0007.2863-.65471.14441-.86621-.19298-.84313zm4.53287 2.58243c-1.26499.0297-1.61846 2.13829-1.15402 3.28633.42171 1.04225 3.74234 2.60007 3.69697.8574-.0148-.48779-.89081-.48783-1.17375-.87027l-.00018.00053c-.12918-.85612.20728-2.04396-.33767-2.77876-.32297-.43582-.50867-.50785-1.03135-.49523zm26.19369.25819c-1.11471.0924-.94926 2.29414.35601 2.60922 1.15636.27916 1.2343-.10918 1.34329-1.11824.0594-.58876.0223-.85063-.38755-1.2661l.00088-.00053c-.21531-.19526-.52998-.037-.75606-.12319-.21192-.0846-.39732-.11436-.55657-.10116zm17.45436.62759c-.71422.0831-1.14952.59119-1.11612 1.93528.003.10855-1.54191.47624-1.60871 1.1244-.0728.64949.27014 1.06759.38596 1.21905 1.19111 1.56787 2.64485-.0377 3.21654 1.10466.0595.12102.01181.42982.01481.56643 0 .0275.0371.51273.0148.51973-.82947.31732-1.45896.16184-1.11224 1.49046.37476 1.43141 2.60565 1.53652 2.84766 2.24704.10869.31703-.57764.26644-.6942.53595-.19972.45728.0661 1.12546.17377 1.5546.39023 1.49061 2.07836 1.35459 2.7629 2.39068.26283.39706-.3051.5084-.10909.90041.0915.17817.75769-.04981.93142.06679.38303.26008.50474 1.38187.75272 1.68256.24798.30141.45513-.0662.48483-.10328.13515-.15294-.03702-.51672.02238-.70901.1277-.44466.18476-.92623.07561-1.31157l.00599.00194c-.10587-.38608-.70795-.42834-.83713-.8003-.13461-.3719.48818-1.01453.00194-1.57805-.3122-.36128-.81998-.57059-.95733-.85123-.0483-.0973.60793-.38825.65243-.44025.21232-.23878.18804-1.13878.09676-1.41943-.14374-.42082-.6813-.67548-.87062-1.11277-.66256-1.53345-1.20917-2.87483-2.06112-4.34376-.26149-.45104-1.16106-1.05629-1.22786-1.24636-.0319-.0921.11437-.31547.16637-.38227.6371-.957 3.46201.8874 4.45533 1.07524.61616.11731.78009-.0526 1.14167-.35706.77021-.6483-.42055-1.68107-.93953-2.05601-1.19081-.86243-2.55399-.65242-3.88008-1.08898-1.0825-.35601-2.07546-.69781-2.78968-.61472l-.00018-.00017zm-10.21375.94834c-.11221-.00075-.21828.01268-.26877.07208-.16779.18784-.51974.64444-.59621.91098-.25689.90401.002 2.97928.92737 3.28421.53379.17596 2.82496-.79685 3.23239.01481 1.09467 2.18796-1.4057 1.33377-1.72696 1.69401-.11063.12399-.12244.39571-.1165.61771.006.33855.004.55165.24057.79784.23535.23907.7082.25769 1.02642.30595 2.98261.45735 4.02969-1.9301 2.02181-3.9682-.29326-.29846-.58867-.88064-.95469-.96914l.00106.00406c-.45883.0668-.8896-.02241-1.33113-.10998-1.47093-.27693-.51004-2.68005-2.14959-2.64129-.0754.003-.19375-.01189-.30595-.01269l.00018-.00035zm-5.7172 2.67055c-2.21027.007.91126 5.04794.80894 1.05426-.0149-.32816-.007-.6237-.29326-.9843-.19728-.0485-.36832-.07036-.51568-.06996zm-36.22504 1.28795c-.15357-.002-.30739.00901-.46069.04001-1.07365.21605-2.25522 2.27531-1.11348 3.14375.53753.40909 1.954.27244 2.57239.17518 1.38407-.21754 3.05882-2.62722 1.11489-3.09652v.00035c-.25614.007-.50189.0224-.75343-.0296-.4399-.0935-.89897-.22565-1.35968-.23317zm-21.61289.44201c-.18339.0223-.35783.0743-.51004.16267-.49298.27768-.0958 2.12346-.0148 2.85789.0831.73354-1.77616.99109-1.46314 2.89807.052.34004.41958.80612.6297 1.01831.36825.3742.48488.90152.79396 1.36867.35489.53605 1.45119.88222 1.73666 1.45257.13438.26951.096.72681-.32058.86357-.41503.13958-.58885.25026-1.12705.50492-.53828.2554-.90706.60873-1.25817.98623-1.50509 1.61416.0223 4.86128.61472 6.60403.24278.71275.79392 2.21726 1.14027 2.553.62737.60806.92329-3.84601.96984-4.40968.052-.56274.25027-1.08125.26066-.6438.007.43805.39112 6.19313.62054 7.25929.46923 2.20618.75803 5.31897 2.30485 6.88847.0223.0223.38388.39866.38685.39866.63776-.0148.64362-5.46115.64362-6.31482.0003-.33113.00084-.85224.01481-1.05144.0371-.5212.20495-.19518.20866-.09641.0148.4477.0742.90037.12919 1.33114.34302 2.77116.37058 5.1617.6438 7.52417.29549.86704.66506 1.61267 1.14238 2.64764.47665 1.03527 1.35976 2.22759 2.03291 2.62049.67266.39276 1.32437.95515 2.6561.20268 1.33181-.7521 1.39169-2.70619 2.79833-4.32896.75898-.87602 2.97673.0987 3.72868-.47814.46477-.35563-.21669-2.49267-.0816-3.14498.12993-.6244.96294-.67561 1.2231-1.26875.32222-.73648-.23238-1.55134-.50263-2.08984-.11508-.22051-.10307-.61105-.20479-.85123-.51303-1.18688-1.12864-2.65562-2.39756-2.80678-.29769-.0371-1.49976-.41571-1.78248-1.72309-.28065-1.30738.0297-4.15103-1.61241-4.97452-1.10907-.55758-2.14097-1.57956-3.12419-2.4529-.56869-.50561-1.22473-1.56475-1.87571-1.8921-1.5506-.77905-2.94776-2.05492-3.00047-4.07958-.0594-2.1733-1.37258-4.22583-2.08949-5.24417-.71718-1.01842-1.28312-1.26357-1.88117-1.8706-.26208-.26654-.8825-.47443-1.43318-.41504l-.00017-.00564zm56.32739 1.08281c-.10342.01303-.20089.04447-.29062.0964-.71795.43582-2.41478 23.39963-2.81718 24.43854-.40315 1.0395-3.0846 2.56659-3.37022 3.19715-.28584.63034-.1105 2.55317-.1105 2.55317s2.15776.92115 2.68906 1.04633c.53085.12473 7.24838.85155 11.29374.78955 4.04545-.0594 7.97166-.60877 9.2307-1.28707 1.25902-.67785 1.36355-.66153 1.53698-.48483.17374.17596.17076.4195-1.23967 1.27509-1.41014.85605-5.39733 1.35476-9.50404 1.41749-2.04017.0297-4.10742-.052-6.03742-.19968-.96518-.075-1.89868-.16637-2.77418-.27106-.87549-.10394-2.23166-.47359-2.43844-.34366-.2064.12992-.43511 1.20332-.29256 1.51812.14552.31406 2.69986.96998 4.06002 1.40357 1.3601.43359 2.6971.83133 3.92696 1.18838 2.5766.74791 4.63229 1.291 5.23412 1.65911.60213.36825.6238.59615.52431.77263-.11657.20343-1.32263-.11958-1.52235-.22946-.71052-.35786-1.87511-.5732-4.4562-1.32338-2.5809-.7495-5.66382-1.66577-7.86978-2.553-2.20589-.88737-5.19389-2.4235-7.34952-2.13461-1.49388.19972-2.53497 4.64737-1.51054 6.60685.51229.97973 2.27984 4.36304 6.61407 4.91513 2.13425.27173 6.45938.78324.76171.77299-1.09289-.002-2.95278-.1782-4.29565-.68381-2.4526-.92338-5.31918-3.72115-6.64668-4.89645-1.35467-1.00706-2.04297 1.77243-1.91801 3.28087.0668.75407 3.57781 2.44829 4.8961 3.33796 1.31871.88968.69946 1.49436-.59834.63393-1.29703-.86101-3.26891-1.09308-5.39291-1.1593-1.21836-.0371-7.89591 3.33519-8.21873 3.77011-.32296.43508-.56287 4.76881-.00705 5.68793.55535.91908 14.5346 7.64985 15.14704 8.71608.30589.53308.75565 5.45612 1.94127 10.14432 1.18213 4.6892 3.10593 9.14379 3.54716 9.55726.88322.82917 1.37019.74676 2.02147-.15368.3259-.45067.50943-1.31992.83484-1.95026.3252-.63034 1.09441-.81808.67552.65702-.26505.93355-1.67645 4.25255-2.86652 7.01695 1.15132.0371 2.2935.11649 3.46115.08901 18.58711-.44027 34.71968-9.53192 44.69527-23.12714-1.1649-.68899-3.68364-2.20129-3.86651-2.68923-.22793-.60806-1.26091-23.06678-1.91448-24.23198-.65336-1.1652-4.28463-4.19085-4.89663-4.41849-.61252-.22793-1.20238-.17816-1.58809.22647-.38904.40538.052 2.07732-.36604 2.93719-.42023.85976-5.73955 6.08473-5.95864 5.80884-.21903-.27545 2.20793-3.64132 2.62296-4.69078.41503-1.0489-.81036-2.1031-.6831-2.44002.12696-.33707 1.74321-1.08084 2.77788-2.14395 1.03468-1.06363.27535-3.0294.22858-4.82313-.0446-1.79368-.68297-4.64864-1.96154-3.92097-1.2367.70384-2.41867 1.17293-2.54436.9101-.12473-.26208 2.04855-2.87933 2.58965-4.26481.5405-1.38556 2.03309-3.63034 1.255-4.51683-.77786-.88633-7.76286-.64235-8.75203-1.16265-.98909-.52046-13.43987-8.45055-14.01628-9.49258-.57688-1.04195-1.72108-4.77138-2.26767-5.4724-.41058-.52566-1.21516-1.2188-1.89457-1.34858l-.00194.00406c-.11359-.0223-.223-.02781-.32657-.01481zm-25.27725.81898c-.54654-.0256-1.01558.11423-1.23297.61208-.0906.2168-.29391.35195-.1135.7113.46329.92576 2.13302.74017 2.7814 1.39828.17596.17893.17755.40018.28075.60732.24278.48408.89972 1.15077 1.36427 1.38471.70236.35415 6.01198-.4254 7.4357-.08459.42023.10469 2.0942.98452 2.20616 1.41202.0594.22645.20199.80295.33415.93689.48556.49224 2.69911-.16704 1.81649-1.64889-.79026-1.32549-2.35642-1.80062-3.60849-2.5597-.91944-.55758-.99084-1.65585-1.74019-2.2259-.97458-.74094-3.9717.18561-4.54079.052-.56872-.12993-1.50854.1277-2.40831.0148v.003c-.5372-.0687-1.66379-.57055-2.57467-.61314v-.00018zm39.25283 1.01091c-.21292.0518-.46949.23364-.79097.5941-.19985.22561-.52623.39699-.78232.53877.27148.53952 4.63838 3.4619 5.0533 2.998.41495-.46433-.20127-.84077-.63411-1.1986-1.85308-1.52974-2.02156-2.428-2.31631-2.74651-.14737-.15926-.31668-.23755-.52959-.18576zm-1.57329 1.13287c-.00007-.00015-.00046-.00057-.00053-.00071l.00018.00088c.0001-.00006.00024-.00012.00035-.00017zm-47.6878 3.21424c-.87765.0223-1.68528-.0149-1.29906 1.11718.0846.25318.20264.47521.45804.60291.35489.17819 3.02457 1.05833 3.19927.44395.22125-.77615.007-1.39088-.23598-1.74829-.24278-.35712-.72982-.23158-1.19103-.34666v-.00194c-.31406-.0742-.60723-.0772-.93124-.0668v-.00035zm-4.05526.54634c-.3726.00102-1.06886.33392-1.22998.45999-.1982.15517-.53679.4069-.64221.77968l-.003.00088c-.26728.9386 1.63686.3334 2.01142-.09358.11508-.12993.21678-.9295.05939-1.08793-.04086-.04176-.10957-.05921-.19545-.05904h-.00017zm-56.06956.15774c-.47798.006-.8699.0496-1.13075.15015-1.04306.40263-2.95026 4.357-3.60955 5.77535-.65907 1.41837-3.30527 6.96851-3.32757 7.71786-.0271.74869.54347 1.49297 1.24954 2.09584.70614.60288 2.10527.93843 2.87534.07507.77014-.86362.65643-3.09126 1.14273-4.20189l-.00106-.00599c.4863-1.11033 1.50249-1.06474 2.2689-2.02428.7668-.95976 2.05431-2.38724 1.53311-3.77169-.51898-1.38467-1.22128-2.79553-.96068-2.97668.26126-.18064.59641.98621 2.866 3.79919.39476.48949 1.15119 1.59222 3.67106 1.67762 1.73709.0601 2.28407.00199 3.19045.26365.90609.26223 2.33086 1.10297 3.11837 1.44005.78774.34004 2.87135.54512 4.13527.49312 1.2638-.0549 2.39919-.19907 3.30237-.55322.90282-.35341 1.59693-.73501 2.87111-.70531 1.2742.0247 1.65697.67468 2.60975.86252.95249.18762 2.40875-.37004 2.38645-1.12934-.0327-1.26104-.11046-2.44339-.65913-3.36388-.54867-.92026-.78346-2.48865-1.84611-3.15908-1.06245-.66961-5.19001-.53679-6.01909-.7922-.82887-.25583-2.90665-.66419-4.29406-.85352-1.38734-.1826-3.70557-.01471-4.33072-.04441-.74571-.0342-3.28575-.08621-5.63648-.29926-1.76312-.16093-3.97113-.48641-5.40507-.46932l-.00018-.00035zm106.48343 1.09162v.00035c-.13712-.00034-.25751.0475-.35988.17501-.27248.3393.29618.61249.89088.95187.59544.33855 1.29842.77243 1.94762 1.21129l.00106-.003c.69196.46775 1.49552 1.00997 2.26767 1.22944.58279.16482 1.17223.52925 1.75727.63023.13365.0223.9924.52782 1.12864.21748.13587-.3096-1.00809-.95692-1.21464-1.07259-1.00787-.56277-2.00733-.97634-2.76819-1.81032-.15666-.17002-.49827-.68519-.66829-.82833-.10469-.0869-.45656-.01489-.7603-.04459-.57094-.0594-.9563-.22795-1.40392-.40094-.31461-.12111-.5894-.25533-.81792-.2559zm-36.98975.95063c-.0446.003-.36157-.02225-.39795.00705-.15591.17521-.60362 1.03009-.40464 1.42648.44176.88299 3.13026 2.9932 3.99692 3.87285.58431.59247 2.46355 2.6076 3.46222 2.04349.52788-.29843 1.33949-.6511 1.97934-.47514.61771.17225.82903.79286 1.26945 1.15102.52046.42319 2.08898.61397 2.75444.36006.40538-.15221.21894-.95239.36446-1.2839.32965-.75373 1.51313-1.05603 1.13938-2.15223-.0371-.11359-.22193-.4634-.36745-.51092-.45437-.14923-3.57388-.65767-3.95498-.56784-.54347.12919-.88176.39932-1.49539.41046-.92584.0223-.24793-1.4005-.62213-1.78019-.98631-1.00156-1.8548.02969-2.39085-.01481-.53604-.0446-1.65719.0744-2.22643-.49664l.0007.01498c-.90992-.92316-1.72116-2.03753-3.10709-2.00472zm-10.13868 6.0302c-.16883-.002-.30212.0394-.38737.135l.00106.00193c-.0594.0668.0771.37785.0749.46545.052 2.02793 1.80269 1.68196 2.71338 3.20896.53008.88767 1.65174 3.69169 2.04754 4.09298.0223.0223.51225.00702.56273-.01498.49373-.27842.78034-.63176.96773-1.29201.098-.34004.27173-.69269.41205-1.01179.46774-1.06787-1.46075-2.5736-1.90109-3.03748-.38525-.40538-3.30908-2.53432-4.49093-2.54771v-.00035zm.43443 5.58254.00053.00036c-.49001.0149-.79599.0756-.91679.49364-.36231 1.27189 1.42739 1.55583 1.91607 2.17444.63182.79969-.26434 2.40644.82955 2.95605.82056.4128 1.63462-.26129 1.38524-1.2134-.19527-.738-1.17208-.95602-1.45644-1.52429-.1381-.28287-.11728-.80272-.20637-1.12828-.16705-.65262-.27101-1.17377-.51973-1.48446-.25169-.31108-1.03206-.27406-1.03206-.27406zm2.97051 11.63777c-.44908-.064-1.50647.98992-1.97282 1.44534-.49744.48553-.88661.63418-.76329.93829.12028.3044.50864.03702.79396-.09288v.00018c.81603-.36306.94702-.93731 1.60906-1.49838.0668-.052.80153-.52855.41434-.76435-.0242-.0147-.05125-.0239-.08125-.0282zm66.15325 7.94045h.00035l-.00194.00088c.10098-.0148.18554-.00702.25607.02238.0446.0223.08311.05939.1128.09129.13438.11805.14413.24064.13447.48713-.0297.77-.24507 3.56924-2.18554 6.82362-1.94076 3.25442-6.72414 10.54558-6.85429 10.73031-.2606.37048-.56867.76697-.83942.7046-.2658-.0594-.13672-.37189-.10628-.52854.0297-.1574.11514-.317.41064-.81845.29549-.50189 6.02487-9.16736 7.21381-13.50802 1.15903-4.23311 1.75769-3.99124 1.85933-4.0052zm-54.47794 27.37009c-1.08188-.019-1.85655 1.12277-2.53749 2.03926-.80831 1.08531-.86865 1.81776-1.6526 2.27066-.90653.52491-1.14885.45277-1.77102.38597-.62232-.0631-1.14435-.083-1.2765.26594-.13193.35073.29375.55413.83202.89195.54053.33833.80705.38362.48854.9219-.3191.53887-1.07356.72962-1.5324 1.05779-1.68357 1.2038-3.77271 3.42697-.91027 4.73078 1.46296.66583 2.87625.54601 3.62241-.73879l-.00088-.00053c.74691-1.28399.27628-1.7582 1.07894-2.35438.80241-.5996 2.62877-.40582 3.29549-.77333.67333-.37078.43798-.89706-.24656-.82286-.68365.0772-1.04905.0831-1.49081-.36535-.17076-.17304.13224-.26217.48713-.18787.35563.0705.94562.15959 1.58932-.12848.64297-.28814 1.43662-1.40636 1.74177-2.36865.30515-.96236.14109-1.39033.11139-2.62666-.0155-.60791.2311-1.46971-1.19455-2.05848-.22277-.0919-.43359-.13534-.63393-.13887z" style="display:inline;fill:#fff;fill-opacity:1;stroke:none;stroke-width:.287507;stroke-linecap:butt;stroke-linejoin:miter;stroke-miterlimit:4;stroke-dasharray:none;stroke-opacity:1" transform="translate(-397.79494 -548.77872) scale(2.9321802)"/></svg>