<svg xmlns="http://www.w3.org/2000/svg" xml:space="preserve" id="svg1" width="4608" height="3072" version="1.1" viewBox="0 0 1219.2 812.8"><defs id="defs1"><style id="style1">.cls-1{fill:#0283c0}.cls-2{fill:#fff}.cls-3{fill:#ef483f}</style></defs><path id="rect1" d="M 1219.2,0 V 812.8 H 0 V 0 Z" style="fill:#000;fill-opacity:1;fill-rule:evenodd;stroke:none;stroke-width:8.46667;stroke-linecap:round;stroke-linejoin:round"/><path id="rect12" d="M 0,270.93334 V 541.86666 H 1219.2 V 270.93334 Z" style="fill:#404040;fill-opacity:1;stroke:none;stroke-width:59.2666;stroke-linecap:round;stroke-linejoin:round;stroke-miterlimit:128;stroke-dasharray:none;stroke-opacity:1"/><path id="path1" d="m 609.6,101.59999 a 304.79995,304.79995 0 0 0 -304.8,304.8 304.79995,304.79995 0 0 0 304.8,304.80002 304.79995,304.79995 0 0 0 304.8,-304.80002 304.79995,304.79995 0 0 0 -304.8,-304.8 z" style="fill:#404040;fill-opacity:1;stroke-width:33.8667;stroke-linecap:round;stroke-linejoin:round;stroke-miterlimit:128;paint-order:stroke fill markers"/><path id="path4" d="M 0,304.8 V 508.00001 H 1219.2 V 304.8 Z" style="fill:#fff;fill-opacity:1;stroke:none;stroke-width:59.2666;stroke-linecap:round;stroke-linejoin:round;stroke-miterlimit:128;stroke-dasharray:none;stroke-opacity:1"/><path id="path5" d="M 609.6,135.46666 A 270.93328,270.93328 0 0 0 338.66667,406.39998 270.93328,270.93328 0 0 0 609.6,677.33334 270.93328,270.93328 0 0 0 880.53333,406.39998 270.93328,270.93328 0 0 0 609.6,135.46666 Z" style="fill:#fff;fill-opacity:1;stroke-width:33.8667;stroke-linecap:round;stroke-linejoin:round;stroke-miterlimit:128;paint-order:stroke fill markers"/><path id="path2" d="M 609.6,169.33333 A 237.06662,237.06662 0 0 0 372.53334,406.39999 237.06662,237.06662 0 0 0 609.6,643.46667 237.06662,237.06662 0 0 0 846.66666,406.39999 237.06662,237.06662 0 0 0 609.6,169.33333 Z" style="fill:#000;fill-opacity:1;stroke-width:33.8667;stroke-linecap:round;stroke-linejoin:round;stroke-miterlimit:128;paint-order:stroke fill markers"/><path id="path3" d="M 609.6,203.2 A 203.19996,203.19996 0 0 0 406.40001,406.39999 203.19996,203.19996 0 0 0 609.6,609.6 203.19996,203.19996 0 0 0 812.8,406.39999 203.19996,203.19996 0 0 0 609.6,203.2 Z" style="fill:#404040;fill-opacity:1;stroke-width:33.8667;stroke-linecap:round;stroke-linejoin:round;stroke-miterlimit:128;paint-order:stroke fill markers"/><path id="path13" d="m 609.6,254 c -52.81142,0 -95.62354,42.81211 -95.62354,95.62354 H 705.22353 C 705.22353,296.81211 662.41141,254 609.6,254 Z M 482.10196,365.56078 v 31.87452 h 254.99608 v -31.87452 z m 15.93726,47.81178 v 63.74902 h 31.8745 v -63.74902 z m 47.81175,0 v 63.74902 h 31.87451 v -63.74902 z m 47.81176,0 v 63.74902 h 31.87452 v -63.74902 z m 47.81178,0 v 63.74902 h 31.8745 v -63.74902 z m 47.81175,0 v 63.74902 h 31.87452 v -63.74902 z m -207.1843,79.68626 v 31.87452 h 254.99607 v -31.87452 z" style="color:#000;display:inline;fill:#fff;fill-opacity:1;stroke-width:1;stroke-linecap:square;stroke-miterlimit:128;-inkscape-stroke:none;paint-order:stroke fill markers"/></svg>