<?xml version="1.0" encoding="UTF-8" standalone="no"?>
<svg
   xml:space="preserve"
   width="3072"
   height="2048"
   viewBox="0 0 812.8 541.867"
   version="1.1"
   id="svg2"
   sodipodi:docname="Classical social democracy.svg"
   inkscape:version="1.3 (0e150ed6c4, 2023-07-21)"
   xmlns:inkscape="http://www.inkscape.org/namespaces/inkscape"
   xmlns:sodipodi="http://sodipodi.sourceforge.net/DTD/sodipodi-0.dtd"
   xmlns="http://www.w3.org/2000/svg"
   xmlns:svg="http://www.w3.org/2000/svg"><defs
     id="defs2" /><sodipodi:namedview
     id="namedview2"
     pagecolor="#505050"
     bordercolor="#eeeeee"
     borderopacity="1"
     inkscape:showpageshadow="0"
     inkscape:pageopacity="0"
     inkscape:pagecheckerboard="0"
     inkscape:deskcolor="#505050"
     inkscape:zoom="0.20526726"
     inkscape:cx="1534.5847"
     inkscape:cy="1025.4923"
     inkscape:window-width="1366"
     inkscape:window-height="705"
     inkscape:window-x="-8"
     inkscape:window-y="-8"
     inkscape:window-maximized="1"
     inkscape:current-layer="svg2" /><path
     fill="#e00000"
     d="M0 0h812.8v541.867H0Z"
     paint-order="stroke fill markers"
     id="path1" /><path
     id="rect1616-6-1-1-2-8"
     style="display:inline;fill:#e08040;fill-opacity:1;fill-rule:evenodd;stroke-width:5.02962;stroke-linecap:square;paint-order:fill markers stroke"
     d="m 490.00065,54.525371 c -5.02271,1.189923 -8.04657,6.240028 -2.84014,15.43007 -10.50254,-12.86464 -19.04609,-1.484233 0.85732,13.721648 -22.04853,-8.877662 -7.6136,9.306768 2.53576,9.336384 -3.81605,0.167864 -6.05585,0.737748 -7.13497,1.520837 -6.14799,-9.5586 -9.83391,-15.093474 -8.33231,1.198894 C 473.25992,67.37801 460.12181,70.464621 464.32986,87.959516 457.47779,62.967439 443.75722,62.161151 450.12711,80.018396 438.1694,66.180647 436.91975,69.771583 431.7091,73.441535 c -6.16527,11.364276 7.39983,11.903111 15.69156,12.92893 -25.7901,7.127362 2.16895,13.689445 15.05748,10.914583 -10.03176,2.406316 -21.24966,12.336572 7.00836,9.451622 -12.2735,11.37542 9.78341,2.15725 18.58853,3.10679 0.402,-0.029 0.8022,-0.10016 1.20096,-0.20722 -0.4577,1.54552 0.98982,4.15549 4.12689,7.16649 -4.6004,-4.57068 -23.00195,-12.14351 -11.66131,2.97346 -6.19237,-5.9666 -34.248,-0.64503 -11.46856,4.84156 -17.02118,2.44798 -16.15372,9.566 -14.20275,12.65298 4.37689,6.22164 11.21545,-0.0935 14.25236,-7.18716 -2.41928,23.30829 12.26363,7.24897 13.80227,-2.93109 0.0407,-0.42729 0.081,-0.85394 0.13332,-1.31464 -0.014,0.42273 -0.0654,0.86507 -0.13332,1.31464 -1.70929,17.9385 6.67092,6.77899 10.681,-5.87147 -3.35936,14.85252 -0.009,10.18897 5.8043,3.32899 2.08756,4.49376 12.9758,11.7166 20.56723,13.63277 -4.0806,-0.92916 -8.88638,-0.83503 -11.38226,0.2682 -3.8105,-3.30638 -9.17669,-6.27161 -5.32216,0.60048 -2.61033,-4.22498 -9.52219,-7.94209 -5.79189,-0.70952 -2.43702,-4.22501 -13.49658,-5.89992 -4.51342,1.17306 -11.11946,-4.66673 -13.84216,1.6147 -5.94848,2.92075 -5.09061,0.0244 -6.48188,2.49136 -5.78001,4.86999 3.44529,2.81446 4.84261,-1.41313 6.42907,-3.02463 -2.75785,9.1427 5.33555,2.51951 6.79752,-0.50849 -0.0847,3.42043 -0.24972,7.14856 7.11223,-0.58808 -1.31537,2.65452 2.68648,2.31071 5.36763,-1.04593 -0.25128,1.56368 0.37036,1.86213 1.86294,1.05833 2.15109,1.77395 6.28014,3.95926 13.2426,6.56084 -16.05806,4.75213 7.80617,6.26903 15.27298,11.02259 0.3731,0.15216 0.76349,0.26645 1.1684,0.34727 -1.0977,1.18192 -0.96208,4.16189 0.50901,8.25014 -2.08829,-6.13434 -15.20657,-21.07649 -11.77137,-2.50527 -2.89362,-8.09069 -30.39873,-15.75733 -12.42974,-0.74466 -16.33992,-5.35111 -18.72953,1.41091 -18.35496,5.04155 1.15349,7.51452 10.09034,4.88729 15.96751,-0.12247 -12.54021,19.81507 7.76968,11.92802 13.67359,3.48713 0.22574,-0.36337 0.45093,-0.72621 0.70176,-1.11415 -0.19986,0.37107 -0.44211,0.74292 -0.70176,1.11415 -9.51812,15.32092 2.95724,9.03573 12.17962,-0.52245 -10.80524,13.27734 -3.08512,8.24774 6.88692,4.2261 1.3489,5.57114 6.90987,14.57536 12.04164,18.96112 -6.07264,-4.94881 -16.00866,-7.8002 -11.92382,0.19275 7e-5,0.5899 0.0547,1.3222 0.18035,2.23294 -0.88604,-4.8843 -5.96296,-10.86228 -5.13354,-2.76985 -0.72465,-4.82122 -10.40979,-10.40805 -4.63124,-0.55139 -8.64715,-8.39421 -13.47796,-3.53706 -6.6058,0.55345 -4.74866,-1.83101 -6.94585,-0.0404 -7.16184,2.42983 2.17903,3.87506 5.0254,0.44728 7.09156,-0.47542 -5.9097,7.50821 4.04632,4.28935 6.51433,2.00246 -1.32913,3.15382 -2.84516,6.56475 6.83731,2.04225 -2.195,1.99255 1.65674,3.12974 5.38004,0.98082 -1.04065,1.7626 0.0537,2.0855 3.13831,1.30225 0.90175,1.04288 1.89757,2.15238 3.01945,3.34915 -16.50138,-2.86412 4.20252,9.07815 8.7757,16.64808 0.26658,0.30185 0.56558,0.57738 0.89245,0.82941 -1.50943,0.57223 -2.71487,3.30188 -3.21686,7.61659 0.85993,-6.42168 -4.24073,-25.62547 -9.43043,-7.46466 1.00936,-8.53146 -20.2188,-27.59823 -10.804,-6.17999 -12.25633,-12.0403 -17.4071,-7.04173 -18.68775,-3.62303 -2.3118,7.24356 6.86402,8.85335 14.35933,6.97167 -20.05613,12.19091 1.65259,14.13151 10.69858,9.18703 0.36369,-0.22522 0.72639,-0.45017 1.12344,-0.68626 -0.3439,0.24355 -0.726,0.46903 -1.12344,0.68626 -15.34884,9.50508 -1.37476,9.40712 11.14247,4.93407 -19.60882,8.9335 -0.0784,4.92105 12.49072,8.02897 -2.98746,1.88444 -5.57401,9.93335 -3.85868,23.41615 -2.83278,-17.76844 -16.15261,-15.59233 -6.94893,11.29544 -4.87066,-15.62236 -6.1495,-9.09988 -8.15662,2.08101 -1.29748,-0.31026 -3.58447,0.02 -7.1732,1.32498 9.36261,-3.91073 15.71004,-26.22894 -1.24437,-9.59321 12.54267,-21.65972 0.28092,-28.90163 -4.47828,-13.00128 1.27901,-10.48006 -3.45333,-13.98736 -8.54935,-13.16458 -6.71268,6.35367 1.65427,10.33318 4.56819,14.01828 -18.16246,-8.06233 -6.59752,10.31907 -0.72553,14.118 -7.04227,-1.06763 -14.69932,-2.38041 -0.64338,14.78773 -5.13896,-3.39972 -5.47369,4.92389 0.75861,11.31715 -4.61763,-1.35064 -4.15799,1.82391 0.34365,9.39167 12.741,2.54267 30.06405,18.41128 16.91784,-0.14624 8.56306,10.15036 20.59054,17.25113 12.11864,1.33273 -0.23463,-0.38816 -0.45199,-0.77561 -0.62683,-1.15962 0.22465,0.40429 0.42564,0.78159 0.62683,1.15962 5.32814,8.8146 25.06307,18.03354 13.87513,-2.5709 5.5294,5.38974 14.27064,8.60648 15.92358,1.18546 0.61628,-3.59764 -1.31564,-10.50408 -17.97669,-6.25233 18.93192,-13.78336 -9.02479,-7.96384 -12.45247,-0.0837 4.66821,-18.30127 -9.419,-4.26606 -11.91245,1.71566 1.74086,-3.98106 2.07497,-6.94499 1.05885,-8.19744 0.40962,-0.0537 0.80696,-0.14166 1.18959,-0.26872 7.76775,-4.24604 31.68012,-4.17156 15.97525,-9.98182 27.20725,-8.14763 13.03179,-13.0271 2.84221,-11.41119 12.96965,-2.36858 36.27296,-19.12697 9.71569,-15.84193 7.26427,-4.12006 19.58554,-9.80805 9.52655,-17.94517 -6.22211,-1.39587 -8.75545,-4.23422 -14.48491,13.12169 -0.2994,-5.81145 -1.67322,-9.26371 -3.33726,-10.52805 6.97765,-3.98234 8.70574,-6.36431 4.21576,-7.47086 8.60857,-2.39605 12.51418,-9.75782 6.35931,-9.39995 20.8009,-7.77985 13.52214,-10.49027 6.89777,-13.10359 6.98958,-0.33481 26.24894,-10.41388 6.48849,-12.56565 4.37573,-1.72172 13.61286,-0.95996 11.01381,-9.82162 -3.98953,-3.26988 -9.8472,-2.61475 -14.02396,7.08484 3.90094,-16.13152 -10.34674,-16.02965 -10.42366,8.98757 -6.26811,-22.89044 -12.03078,-0.41474 -5.91023,7.6662 -2.44358,-2.92948 -4.25374,-4.36348 -5.53145,-4.747 3.90074,-10.67089 6.08276,-16.9497 -6.00067,-5.8937 21.5062,-18.61644 11.09122,-27.18537 -0.31264,-13.25139 9.34889,-12.18713 10.46947,-21.14884 7.67189,-23.13245 2.48111,-1.47608 3.20803,-3.68157 0.85162,-3.55947 10.03398,-3.68083 6.53943,-5.00714 3.35949,-6.28489 3.36471,-0.13992 12.66405,-4.93202 3.16105,-6.02754 2.11102,-0.81531 6.55368,-0.42072 5.32991,-4.69326 -1.90991,-1.58574 -4.73097,-1.28813 -6.77065,3.36724 1.92649,-7.75131 -4.93031,-7.74538 -5.04362,4.2938 -2.94671,-11.03494 -5.78835,-0.23636 -2.86753,3.67109 -5.17496,-6.28438 -4.49439,1.52252 -1.64228,5.58881 -5.15877,-6.73121 -4.07195,0.83711 -2.29908,5.70766 -1.25556,1.1945 -2.60928,2.82806 -4.0163,4.97851 3.06412,-14.42984 1.29319,-16.44149 -2.70061,-17.68988 1.38473,-3.78595 0.26032,-6.52423 -3.1781,-4.56561 15.1716,-16.19447 7.44415,-15.39412 0.34623,-14.79756 6.11271,-3.39967 18.87976,-20.97067 0.21911,-14.13505 3.15364,-3.48297 11.76753,-6.89663 5.49424,-13.68289 -5.02971,-1.16012 -9.98581,2.0243 -9.40976,12.56616 -3.68639,-16.18171 -16.40491,-9.77158 -5.33715,12.67468 -15.80533,-17.72706 -10.96257,4.96369 -1.88205,9.48883 -3.49366,-1.54095 -5.75351,-2.02263 -7.06882,-1.79937 -1.25573,-11.28972 -2.09601,-17.88302 -7.99952,-2.61948 10.97944,-26.21542 -2.16544,-29.273 -6.17895,-11.73262 1.73896,-8.87951 1.41247,-15.47926 0.15968,-19.51872 1.1143,-1.22372 0.96881,-1.88878 -0.59686,-2.02985 3.92012,-1.76608 5.2406,-5.55208 2.33887,-4.93406 9.32685,-5.214192 5.66645,-5.97378 2.32441,-6.734995 3.3005,-0.667776 11.72604,-6.863754 2.16886,-6.449737 1.9558,-1.137363 6.40522,-1.447141 4.52169,-5.47357 -2.13659,-1.265252 -4.87506,-0.527772 -6.15363,4.390431 0.67765,-7.957568 -6.09242,-6.871987 -4.30207,5.03432 -4.65337,-10.43299 -5.75321,0.677937 -2.25154,4.076755 -6.10317,-5.391175 -4.1979,2.210966 -0.73897,5.777426 -4.67441,-4.42933 -4.48986,-1.28485 -3.02876,2.46807 -1.58618,1.37728 -2.99968,4.64914 -3.63389,9.98389 -3.46477,-13.45586 -5.86972,-15.13716 -9.59115,-14.74226 1.23084,-6.663277 -1.7349,-11.523849 -4.66845,-7.170107 6.38828,-21.234691 -0.1793,-17.092697 -6.27352,-13.412105 3.96432,-5.755458 7.58574,-27.157786 -6.09265,-12.762016 1.27597,-4.518505 7.47535,-11.395396 -1.16479,-14.695231 z m -166.81829,4.354774 c -8.64905,3.2765 -2.4683,10.170197 -1.20458,14.692131 -13.63932,-14.432644 -10.07598,6.979339 -6.12727,12.745479 -6.08423,-3.69703 -12.64042,-7.856808 -6.3097,13.395052 -2.92177,-4.361675 -5.90093,0.491063 -4.68809,7.157703 -3.72012,-0.40478 -6.12985,1.26994 -9.63094,14.7159 -0.63184,-5.44063 -2.08035,-8.73098 -3.70055,-10.06398 0.91856,-2.47809 -0.0297,-4.0462 -4.84105,0.3545 6.39859,-10.20618 0.624,-13.895532 -1.93373,-6.3283 0.79229,-5.01891 -1.42483,-6.785516 -3.88968,-6.475577 -3.33592,2.942797 0.62089,4.997787 1.96008,6.819227 -8.59873,-4.1833 -3.34811,4.85142 -0.58808,6.77788 -3.36896,-0.63206 -7.02925,-1.39242 -0.55913,7.10138 -2.41411,-1.72166 -2.71578,2.27616 0.17363,5.456 -0.26284,-0.087 -0.48973,-0.13933 -0.68575,-0.16175 -4.65744,-4.05519 -9.18807,2.82485 -1.37511,21.62246 -5.86209,-15.27934 -6.71993,-8.68893 -8.00623,2.59726 -1.3147,-0.22683 -3.57613,0.24872 -7.07399,1.78025 9.09274,-4.50061 13.99709,-27.17833 -1.85622,-9.494 11.12855,-22.4163 -1.57282,-28.86032 -5.30303,-12.68863 0.6046,-10.54027 -4.34282,-13.73853 -9.37566,-12.592 -6.29165,6.76931 2.31337,10.20641 5.45755,13.69787 -18.64205,-6.88596 -5.9226,10.71941 0.18086,14.13558 -7.09627,-0.61573 -14.82121,-1.43678 0.30645,14.79858 -3.43315,-1.96791 -4.56556,0.76761 -3.19102,4.55735 -3.99718,1.2376 -5.77368,3.24405 -2.74867,17.68213 -2.18498,-3.35927 -4.24799,-5.48836 -6.00067,-6.58306 2.45547,-3.55166 6.17106,-15.85581 -0.59583,-8.24084 3.13996,-3.84922 4.38582,-11.58661 -1.23197,-5.6932 3.19695,-3.68587 1.14677,-14.66166 -2.59364,-3.86901 0.76143,-12.01564 -6.077,-12.51759 -4.71858,-4.64727 -1.69612,-4.79049 -4.48804,-5.29171 -6.50813,-3.84834 -1.53087,4.17272 2.92915,4.10048 4.97541,5.06636 -9.55755,0.40503 -0.63112,5.85747 2.71456,6.24044 -3.26438,1.0443 -6.84637,2.11459 2.89388,6.51175 -2.94411,-0.36754 -1.30351,3.29174 2.75384,4.716 -1.95108,0.346 -1.58164,1.32829 0.79634,3.04529 -5.28538,-1.6111 -6.18138,8.45838 5.20588,23.38618 -11.36607,-13.96471 -21.80398,-5.42408 -0.3483,13.25035 -12.05334,-11.0885 -9.88845,-4.80357 -6.01669,5.87768 -1.27875,0.37992 -3.09264,1.80888 -5.54436,4.73202 6.14241,-8.06439 0.44055,-30.55515 -5.88957,-7.68171 -0.009,-25.01733 -14.25658,-25.15797 -10.39937,-9.01599 -4.15045,-9.71082 -10.00595,-10.38166 -14.00431,-7.12256 -2.62307,8.85461 6.61589,8.11756 10.98693,9.85108 -19.7662,2.09842 -0.53427,12.22953 6.45438,12.58321 -6.63142,2.59544 -13.91762,5.28623 6.86212,13.1222 -6.15387,-0.37448 -2.26807,6.99773 6.33398,9.417 -4.49305,1.09444 -2.77105,3.48093 4.19613,7.48224 -1.66759,1.25966 -3.05156,4.70831 -3.36672,10.51925 -5.68241,-17.37129 -8.22339,-14.54002 -14.44925,-13.16095 -10.08101,8.10993 2.22541,13.83083 9.47849,17.97048 -26.54827,-3.35671 -3.2909,13.46523 9.67228,15.8688 -10.18516,-1.64339 -24.37335,3.19739 2.81172,11.41843 -15.72056,5.76785 8.19165,5.75772 15.94787,10.02472 0.38226,0.12807 0.7791,0.21702 1.18856,0.27181 -1.01957,1.24968 -0.69346,4.21475 1.03662,8.20054 -2.47723,-5.98842 -16.52639,-20.06151 -11.9078,-1.7477 -3.40631,-7.88933 -31.34698,-13.78429 -12.45247,0.0501 -16.64947,-4.29671 -18.60027,2.60447 -17.99374,6.20376 1.63282,7.42545 10.3832,4.23274 15.9272,-1.14205 -11.24329,20.57334 8.51442,11.40899 13.86737,2.60914 0.20237,-0.3778 0.40451,-0.75507 0.63045,-1.1591 -0.17604,0.38388 -0.3945,0.77122 -0.63045,1.1591 -8.51397,15.89417 3.53243,8.8258 12.12278,-1.30121 -13.19644,18.52197 4.16947,2.7005 16.91732,0.19223 4.52213,-7.55558 4.99075,-10.72932 0.36948,-9.39116 6.2496,-6.3764 5.93675,-14.7004 0.78859,-11.31456 14.10242,-17.13013 6.44258,-15.8384 -0.60255,-14.78979 5.88225,-3.78307 17.49643,-22.13334 -0.68781,-14.12008 2.9239,-3.67721 11.30187,-7.63411 4.60643,-14.00587 -5.09377,-0.83654 -9.83562,2.65785 -8.585,13.14133 -4.71611,-15.91315 -16.99735,-8.70411 -4.51342,12.98939 -16.90928,-16.68144 -10.62219,5.65412 -1.27021,9.59011 -3.58543,-1.31474 -5.87183,-1.65148 -7.17011,-1.34462 -1.97683,-11.1864 -3.23741,-17.71197 -8.15041,-2.10271 9.27649,-26.86284 -4.03751,-29.07529 -6.91844,-11.31456 1.75192,-13.47858 -0.81316,-21.53434 -3.79564,-23.42649 12.5775,-3.07408 32.09708,0.99159 12.51242,-7.99486 12.50386,4.50639 26.47638,4.64215 11.16056,-4.90151 -0.3986,-0.21907 -0.78143,-0.4465 -1.12603,-0.69195 0.39804,0.23813 0.76159,0.46486 1.12603,0.69195 9.03539,4.96564 30.73827,3.08169 10.71873,-9.1612 7.49019,1.90192 16.67062,0.31738 14.37846,-6.9324 -1.27139,-3.42214 -6.40868,-8.43477 -18.69757,3.5724 9.4728,-21.39275 -11.80677,-2.38311 -10.82054,6.15104 -5.14046,-18.17475 -10.29362,1.01485 -9.4511,7.43883 -0.49034,-4.31645 -1.68812,-7.04942 -3.19619,-7.62538 0.32767,-0.25121 0.62755,-0.52559 0.89504,-0.82682 4.59366,-7.55755 25.32973,-19.44388 8.82065,-16.62431 4.88091,-5.17858 7.61061,-8.87725 8.83719,-11.41223 2.7669,1.64619 3.92509,1.65842 3.42356,-0.3359 2.96288,3.11174 6.97963,3.10728 5.43843,0.57671 8.00682,7.06979 7.51827,3.37031 7.13652,-0.03 1.71972,2.88994 10.35795,8.78665 6.81561,-0.0827 1.72059,1.46801 3.48075,5.55895 6.66833,2.45669 0.49239,-2.43045 -1.10874,-4.76768 -6.18206,-4.35115 7.75033,-1.98486 4.49229,-8.00643 -6.17947,-2.39417 8.33431,-7.82438 -2.5382,-5.19841 -4.59868,-0.77825 3.08737,-7.52839 -3.47505,-3.22643 -5.70818,1.20871 3.46423,-7.67105 -2.58424,-3.24417 -6.05183,0.60565 -0.51124,-3.35331 -7.94557,-0.747 -12.86331,3.23856 5.1437,-4.37194 10.7289,-13.3611 12.09281,-18.92856 9.96117,4.04855 17.66756,9.09902 6.89829,-4.2075 9.19731,9.58395 21.65661,15.90302 12.17497,0.55087 -0.25748,-0.37056 -0.49744,-0.74133 -0.69556,-1.11156 0.24878,0.38705 0.47161,0.74895 0.69556,1.11156 5.87728,8.45834 26.1745,16.4063 13.68599,-3.44578 5.86358,5.02559 14.79314,7.67673 15.96699,0.16536 0.38441,-3.62962 -1.98664,-10.39815 -18.341,-5.09116 18.0096,-14.96412 -9.51628,-7.37128 -12.43181,0.71158 3.48551,-18.56188 -9.67319,-3.65545 -11.77809,2.47324 1.4822,-4.08436 1.62529,-7.06377 0.53071,-8.2486 0.40548,-0.0797 0.79615,-0.19289 1.16996,-0.34416 7.47966,-4.73339 31.34808,-6.18578 15.30294,-10.98125 5.7245,-2.1214 9.5404,-3.96772 11.91918,-5.54023 2.57135,1.83855 3.70083,1.92903 3.37705,-0.0858 2.68115,3.35663 6.68249,3.70045 5.36712,1.04593 7.36194,7.73664 7.19744,4.0085 7.11275,0.58808 1.46196,3.02799 9.55485,9.65067 6.797,0.50798 1.58646,1.61149 2.98378,5.83959 6.42907,3.02514 0.70186,-2.37863 -0.68887,-4.84607 -5.7795,-4.87051 7.89368,-1.30605 5.17098,-7.58747 -5.94847,-2.92075 8.98316,-7.07297 -2.07641,-5.39806 -4.51343,-1.17306 3.7303,-7.23257 -3.18207,-3.51546 -5.79241,0.70952 3.46424,-6.17624 -0.52231,-4.40376 -4.13153,-1.58182 -1.49519,-1.97338 -7.66704,-2.41264 -12.73153,-1.27382 7.59633,-1.8956 18.50365,-9.08881 20.60392,-13.57695 5.79466,6.87545 9.13213,11.54726 5.81308,-3.31402 3.97619,12.66251 12.32784,23.84592 10.66499,5.89525 -0.0663,-0.44791 -0.11687,-0.88836 -0.12971,-1.30948 0.0509,0.45892 0.0903,0.88374 0.12971,1.30948 1.50677,10.18389 16.15102,26.29222 13.79451,2.97347 3.01768,7.10184 9.839,13.43572 14.23273,7.22591 1.95932,-3.0817 2.84636,-10.1973 -14.16813,-12.69121 22.79423,-5.42508 -5.24713,-10.82243 -11.45564,-4.87258 11.38155,-15.08629 -7.04028,-7.56323 -11.65304,-3.00498 3.14524,-3.00254 4.59955,-5.60837 4.146,-7.15512 0.39848,0.10814 0.79852,0.18019 1.20045,0.21032 8.80766,-0.92577 30.83994,8.35186 18.59732,-3.05666 28.2501,2.96122 17.05889,-6.99912 7.03368,-9.4325 12.88097,2.80964 40.85763,-3.677322 15.08694,-10.874279 8.29447,-1.003431 21.86063,-1.50516 15.72617,-12.886039 -5.20068,-3.684003 -6.4404,-7.278167 -18.43557,6.527252 6.41825,-17.839985 -7.30468,-17.071127 -14.22446,7.902363 4.25545,-17.483473 -8.8739,-20.605413 -10.77712,7.744753 1.54574,-16.28822 -2.15537,-10.763563 -8.32921,-1.221635 -1.07701,-0.785982 -3.31479,-1.361796 -7.13032,-1.539958 10.1494,-0.0022 24.63307,-18.147261 2.56057,-9.32915 19.94454,-15.152097 11.43189,-26.555823 0.89452,-13.71958 5.23131,-9.175955 2.22119,-14.234344 -2.79828,-15.437822 z M 486.898,99.869904 c 3.0312,1.515076 7.19113,2.717056 10.912,2.840136 -4.5802,0.0415 -7.02444,0.58847 -7.96128,1.42886 -1.01601,-1.41436 -2.00405,-2.84636 -2.95072,-4.268996 z m -160.73546,4.362526 c -0.95061,1.42021 -1.94267,2.85002 -2.96261,4.26176 -0.93445,-0.84298 -3.37683,-1.39664 -7.95714,-1.45056 3.72137,-0.11304 7.88441,-1.30421 10.91975,-2.8112 z m 180.58128,13.7325 c 1.94722,1.38547 4.01973,2.66576 5.77846,3.82457 -3.93827,-0.7561 -6.77053,-0.98021 -8.72867,-0.81804 0.95384,-1.03634 1.93509,-2.05661 2.95021,-3.00653 z m -200.47671,4.30878 c 1.01278,0.95285 1.99122,1.97617 2.94246,3.01532 -1.9577,-0.16752 -4.79017,0.0488 -8.73074,0.79427 1.76187,-1.15406 3.83731,-2.42938 5.78828,-3.80959 z m -21.2814,5.36402 c 0.17549,2.24034 0.49473,4.67913 1.00718,7.33392 -0.58324,-2.5811 -1.36789,-4.70443 -2.24276,-6.38721 0.40217,-0.28792 0.81601,-0.60564 1.23558,-0.94671 z m 256.91928,23.75359 c 2.04183,2.7011 5.23453,5.6219 8.5137,7.38147 -4.1298,-1.99654 -6.55645,-2.58193 -7.76749,-2.24018 -0.28165,-1.72039 -0.53061,-3.44422 -0.74621,-5.14129 z m -270.88897,4.21422 c -0.2202,1.69649 -0.47384,3.4201 -0.76016,5.13974 -1.20996,-0.34528 -3.63802,0.23338 -7.77369,2.21898 3.28406,-1.75078 6.48473,-4.66306 8.53385,-7.35872 z m 285.00233,19.78588 c 0.67558,1.15009 1.34468,2.26827 1.94458,3.29747 -1.56479,-1.18841 -2.93089,-2.12303 -4.15323,-2.87786 0.74872,-0.17597 1.48548,-0.31448 2.20865,-0.41961 z m -299.1808,4.17649 c 0.72283,0.10709 1.45943,0.24731 2.20762,0.42529 -1.22439,0.75153 -2.59347,1.6823 -4.1615,2.8665 0.60262,-1.02748 1.27526,-2.14365 1.95388,-3.29179 z m 314.27136,38.67052 c 0.62668,3.32547 2.18623,7.35822 4.34082,10.38903 -2.81104,-3.62018 -4.72434,-5.2205 -5.9614,-5.45135 0.51357,-1.66628 1.05821,-3.3216 1.62058,-4.93768 z m -329.47767,4.13515 c 0.558,1.61764 1.09807,3.2741 1.60714,4.94181 -1.23766,0.2271 -3.15509,1.82217 -5.97638,5.43533 2.16277,-3.02496 3.73354,-7.05338 4.36924,-10.37714 z m 309.54089,66.17375 c -0.32851,1.67906 -0.6918,3.3829 -1.08779,5.08083 -1.18541,-0.42174 -3.64549,3.7e-4 -7.89978,1.71773 3.38958,-1.53748 6.76985,-4.23926 8.98757,-6.79856 z m -289.79532,4.1889 c 2.21078,2.56527 5.58409,5.27622 8.96948,6.82284 -4.24964,-1.72885 -6.70858,-2.15798 -7.89513,-1.73943 -0.39138,-1.69899 -0.75039,-3.40349 -1.07435,-5.08341 z m 249.50836,11.74502 c -0.29631,0.004 -0.5981,0.0429 -0.9002,0.11472 -2.99745,3.28568 1.15898,4.90138 2.68769,6.56756 -9.00198,-3.23062 -2.80261,5.18491 0.14986,6.80166 -3.41757,-0.26466 -7.13827,-0.62513 0.21394,7.11998 -2.58653,-1.45094 -2.45326,2.55611 0.76378,5.40535 -2.264,-0.4858 -1.93126,1.02149 0.49661,4.49534 0.29381,-0.17523 0.63148,-0.42643 0.98392,-0.70642 -1.49942,2.52788 -3.21424,6.26586 -5.14232,11.54194 -5.14038,-16.78184 -6.52381,8.23458 -11.45667,16.09979 -0.15679,0.39247 -0.2731,0.80212 -0.3545,1.22732 -1.25267,-1.13969 -4.38524,-0.97148 -8.67183,0.60616 6.4328,-2.2424 22.02998,-16.11885 2.52957,-12.3548 8.48309,-3.10353 16.30166,-31.98921 0.67282,-13.0297 5.48248,-17.1669 -1.65036,-19.6101 -5.4653,-19.1854 -7.89259,1.27528 -5.05007,10.61518 0.27079,16.72818 -20.94816,-12.96091 -12.47709,8.24149 -3.54862,14.35469 0.38509,0.23382 0.76951,0.46705 1.1808,0.72708 -0.39299,-0.20661 -0.78711,-0.45752 -1.1808,-0.72708 -16.19337,-9.83256 -9.473,3.18109 0.66042,12.75788 -17.91524,-14.27502 -4.30688,2.69551 -1.49345,16.00213 -0.65597,0.0962 -1.24319,0.21485 -1.69085,0.35915 1.01645,4.11224 1.93321,5.35562 3.05976,3.33623 0.0259,4.29277 2.95615,7.03442 3.56826,4.1367 0.98786,10.62435 3.16921,7.59342 5.22294,4.85397 -0.72845,3.28166 1.52424,13.48288 5.02502,4.59714 0.24742,2.24573 -1.27527,6.42987 3.17603,6.34638 2.02587,-1.43527 2.46206,-4.23266 -1.52187,-7.39542 7.01102,3.84859 8.76559,-2.76716 -2.86288,-5.96759 5.41212,-0.004 6.08524,-1.24022 4.8147,-2.34973 3.10791,0.59656 4.99034,-0.72519 3.18947,-3.81372 17.16614,15.75141 16.25643,7.6627 15.56598,0.23151 3.62966,6.37408 22.22196,19.59392 14.86731,0.10387 3.69097,3.27311 7.35771,12.26762 14.43892,5.6348 1.17538,-5.27995 -2.21793,-10.44389 -13.29945,-9.7467 8.70897,-2.05404 11.13635,-6.53704 8.27908,-8.83409 6.4269,0.83392 4.498,-1.73423 2.74712,-4.146 2.92351,1.66838 13.35133,2.54904 5.88905,-3.42511 2.22202,0.43078 5.77369,3.12439 7.01508,-1.14309 -0.77191,-2.35689 -3.31859,-3.60324 -7.52719,-0.74465 5.76312,-5.54006 -0.0462,-9.17643 -6.55981,0.95704 3.38733,-10.90818 -4.77491,-3.27416 -4.38475,1.58544 -1.03172,-8.06922 -4.61761,-1.09736 -4.37028,3.86023 -0.72912,-7.89023 -3.49554,-2.29824 -4.74803,2.60294 -2.8202,0.75143 -6.06712,1.97658 -9.71724,3.80804 18.50271,-16.71676 -5.31748,-11.44161 -9.99577,-1.88774 1.58956,-3.67405 2.07636,-6.04623 1.82986,-7.42229 11.8617,-1.4159 18.7876,-2.35421 2.68304,-8.40362 27.66769,11.27023 30.767,-2.52878 12.28453,-6.5779 26.78807,4.99178 33.83722,-7.57306 14.02137,-9.75031 18.57269,-4.93187 15.74738,-7.75508 14.66216,-14.34848 -7.92853,-11.01872 -14.6533,1.52138 -19.42311,8.86767 5.07242,-27.57706 -13.94774,-4.22721 -17.22738,9.19376 1.39178,-6.33604 0.41315,-14.30453 -2.79776,-13.63328 2.31914,-3.01624 3.16304,-5.66095 -2.41226,-2.92024 4.36466,-2.37913 8.44772,-9.07248 1.01492,-5.73556 4.35556,-2.20638 6.61408,-13.14194 -0.93586,-4.56097 5.25506,-10.83707 -0.88594,-13.88129 -2.60862,-6.08232 0.21333,-4.44081 -1.5938,-6.15743 -3.668,-6.13244 z m -210.21772,4.52376 c -1.56039,0.1715 -3.25053,3.45086 -2.22002,10.1446 -4.68986,-10.4167 -5.75114,0.69791 -2.23759,4.08451 -6.122,-5.36987 -4.1897,2.22564 -0.7183,5.78001 -6.00785,-5.65317 -4.00159,1.0836 -1.55443,5.61774 -3.98978,-2.69578 -5.33829,6.22554 -3.83026,13.1806 -3.24326,-13.42977 -22.19973,-36.83041 -17.20206,-9.23975 -4.74988,-7.35915 -11.44047,-19.91766 -19.39882,-8.92039 -1.10308,6.59045 -3.93586,9.40628 14.6234,14.38827 -19.82168,2.12375 -12.80648,14.70697 13.99502,9.78752 -18.49337,3.99921 -15.43171,17.80649 12.26644,6.61097 -16.12097,6.00596 -9.19762,6.96345 2.6603,8.41138 -0.25025,1.37538 0.23009,3.74908 1.80971,7.42745 -4.65241,-9.56647 -28.4583,-14.9063 -10.00094,1.86036 -7.12041,-3.5968 -12.70384,-4.87416 -16.56954,-4.8085 -1.2943,-4.78698 -6.26718,-13.87459 -5.89938,-4.46329 -0.4034,-4.94738 -4.87095,-11.39176 -4.83795,-3.25717 -0.24899,-4.86884 -9.34025,-11.37374 -4.55476,-1.00046 -7.78358,-9.19777 -13.06714,-4.8355 -6.62854,-0.094 -4.5464,-2.28542 -6.90858,-0.71807 -7.36545,1.71928 1.78905,4.0691 4.95784,0.9358 7.10448,0.21911 -6.61677,6.89562 3.60677,4.66339 6.28696,2.62826 -1.63166,3.00905 -3.47479,6.25568 6.60425,2.69958 -2.37966,1.76883 1.34213,3.27654 5.25808,1.5012 -0.32082,0.43878 -0.47653,0.7884 -0.48214,1.06092 -3.69247,2.13113 -1.52618,7.03776 7.69203,9.2382 -11.07957,-0.7271 -14.48687,4.42794 -13.3258,9.71103 7.06322,6.65192 10.75459,-2.33289 14.45442,-5.59604 -7.40744,19.47009 11.22039,6.30069 14.86731,-0.0636 -0.71059,7.4293 -1.64226,15.51537 15.5665,-0.18965 -3.27047,5.57416 5.48939,5.43928 11.83959,-1.45314 -1.14912,4.90933 2.15786,4.24349 9.8423,-0.90693 1.92733,-13.47686 17.58079,-32.52417 -1.13999,-17.68988 10.15957,-9.54961 16.9149,-22.54541 0.6935,-12.7553 -0.39411,0.26824 -0.7886,0.51808 -1.18184,0.72347 0.41159,-0.25867 0.79647,-0.49088 1.18184,-0.72347 8.94534,-6.08822 17.47511,-27.26979 -3.50883,-14.36502 5.3374,-6.09862 8.20536,-15.43058 0.31626,-16.72714 -3.81378,-0.435 -10.95291,1.98876 -5.51698,19.17041 -15.5774,-19.00164 -7.83696,9.90483 0.63769,13.03125 -19.49013,-3.81669 -3.93072,10.10227 2.49597,12.36204 -4.28247,-1.58928 -7.41463,-1.76588 -8.67027,-0.62942 -0.0803,-0.42543 -0.19567,-0.83597 -0.3514,-1.22887 -4.91154,-7.8785 -6.22692,-32.89819 -11.41274,-16.13028 -2.32086,-6.40463 -4.33133,-10.53158 -6.03116,-12.99301 2.9558,-2.37365 3.5737,-3.61711 1.37459,-3.80752 3.91393,-1.77975 5.22135,-5.57048 2.32182,-4.94234 9.30853,-5.24665 5.64534,-5.99317 2.30064,-6.74274 3.29814,-0.67928 11.70178,-6.90483 2.14612,-6.45749 1.95181,-1.14418 6.40018,-1.46924 4.50257,-5.48907 -2.141,-1.25779 -4.87681,-0.51023 -6.13813,4.41213 0.28428,-3.48244 -0.85084,-5.2292 -2.06447,-5.09581 z m 91.79081,32.47089 c -0.43713,0.004 -0.8821,0.0924 -1.31879,0.25425 -2.57522,3.62486 1.74726,4.72448 3.46749,6.19291 -9.32855,-2.1149 -2.15021,5.48624 0.9772,6.73292 -3.42457,0.15181 -7.16256,0.24558 1.07849,7.04195 -2.74401,-1.12649 -2.12413,2.83405 1.41594,5.27203 -2.30636,-0.20763 -1.79253,1.24867 1.04024,4.40232 3.2177,-2.49469 10.49768,-13.95836 1.79214,-8.27237 4.0427,-2.89084 7.28103,-10.02983 0.30954,-5.81618 4.05469,-2.71829 4.96518,-13.84623 -1.48414,-4.41317 3.89679,-11.39411 -2.56955,-13.6712 -3.33003,-5.7211 -0.3054,-4.1169 -2.05386,-5.69093 -3.94808,-5.67356 z m 32.22595,4.79816 c -1.55746,-0.0423 -4.04083,2.54485 -5.2803,8.82014 -0.85981,-11.38783 -5.64617,-1.29615 -3.49643,3.08146 -3.92666,-7.12827 -4.69875,0.66984 -2.64584,5.1909 -4.69083,-9.26875 -4.12846,4.29216 -2.59157,8.05843 4.03308,-1.31743 5.20713,-2.32215 3.10575,-3.29334 4.28709,-0.34467 6.80816,-3.46536 3.86747,-3.8592 10.54158,-1.77311 7.352,-3.71935 4.46226,-5.55987 3.33295,0.48113 13.35708,-2.51946 4.21887,-5.34334 2.22536,-0.4132 6.5194,0.79153 6.10505,-3.63286 -1.58462,-1.90975 -4.41224,-2.13554 -7.27604,2.06499 1.55812,-3.40524 0.905,-5.48994 -0.46922,-5.52731 z m 83.96492,19.12597 c -2.8225,2.16323 -5.86554,5.53381 -7.68687,8.98499 2.06348,-4.34551 2.65738,-6.89269 2.28668,-8.15817 1.80678,-0.31037 3.61736,-0.58586 5.40019,-0.82682 z m -204.95809,4.3031 c 1.78231,0.24579 3.59256,0.52705 5.39864,0.84232 -0.37377,1.26468 0.21308,3.81346 2.26446,8.16385 -1.81207,-3.45625 -4.84635,-6.83535 -7.6631,-9.00617 z m 189.73576,11.94243 c 0.0621,0.0678 0.12758,0.12469 0.19017,0.1912 -0.0516,10e-4 -0.10196,4e-4 -0.154,0.002 -0.0143,-0.0671 -0.0201,-0.12394 -0.0362,-0.19327 z m 3.13263,2.759 c 0.47865,0.34077 0.9555,0.65039 1.4304,0.92501 -1.24622,-0.18795 -2.52957,-0.15315 -3.55017,0.25528 0.93648,-0.42676 1.62997,-0.82039 2.11977,-1.18029 z m -178.26876,8.35867 c -1.99521,-0.0714 -2.54754,0.87038 0.9188,3.81475 -3.91996,-3.05461 -11.69599,-4.1392 -5.67769,1.34617 -3.75746,-3.11479 -14.7099,-0.84464 -3.8225,2.66703 -12.05148,-0.51392 -12.41468,6.32049 -4.5589,4.80384 -4.76386,1.7906 -5.20837,4.58693 -3.72122,6.57324 4.21108,1.44225 4.04771,-3.00669 4.97334,-5.06842 0.60129,9.52873 5.87987,0.51036 6.19549,-2.83652 1.11287,3.23615 2.25794,6.78823 6.46317,-3.02153 -0.3079,2.94545 3.3238,1.2332 4.66742,-2.84478 0.45168,2.26694 1.70604,1.36421 3.93723,-2.23863 -1.85977,-1.33679 -6.80988,-3.10335 -9.37514,-3.19515 z" /><path
     id="rect9930"
     style="display:inline;fill:#ffff80;fill-opacity:1;fill-rule:evenodd;stroke:none;stroke-width:5.08001;stroke-linecap:square;stroke-miterlimit:4;stroke-dasharray:none;stroke-opacity:1;paint-order:stroke fill markers"
     d="m 421.66113,213.8573 c -17.89316,2.64163 -13.974,4.85514 -30.26689,12.59871 -3.55368,0.78126 -5.8273,2.48189 -7.87239,4.19923 -0.005,2.28443 -0.36778,7.51717 11.67267,3.14141 3.33593,-1.79778 8.72806,-5.60729 10.99365,-5.39347 3.10389,0.2935 5.14566,1.68822 7.87239,2.46394 8.7171,3.55043 12.55254,3.79339 24.83777,13.43691 3.02785,-0.50865 6.4857,-0.94308 10.04332,-2.33681 6.62862,0.90792 6.98505,2.19049 20.22358,5.1139 -2.37846,-26.67946 1.57644,-23.43953 -4.2075,-28.48251 -14.01917,-3.77895 -28.76847,-3.87927 -43.2966,-4.74131 z m -39.18263,0.21497 c -1.13221,0.005 -2.27698,0.0532 -3.43028,0.14728 -10.43788,0.98573 -19.5713,4.41306 -29.5057,7.34012 -4.69192,6.77974 -3.65444,16.54176 -4.16874,25.73177 18.46071,-6.38206 31.29884,-5.36185 35.08417,-1.18546 7.22646,7.44059 27.28026,10.84373 29.51759,9.92653 3.29651,-0.90509 0.96743,-3.72102 -11.84683,-8.17831 7.62261,2.14268 17.61278,7.81836 22.03174,7.81864 11.35284,0.45899 -8.91675,-10.16533 -16.59124,-15.20682 6.12364,3.62332 14.14342,7.68108 20.03547,11.45925 6.34333,4.06752 11.02446,0.74899 8.5044,-0.9462 -10.21923,-6.50729 -15.80381,-11.17552 -23.70554,-16.76332 16.15778,10.70421 24.38981,15.60089 28.9383,16.80208 3.85158,1.01714 5.79961,-1.39078 4.94026,-2.52905 -14.53983,-12.42088 -34.72812,-19.87633 -36.85357,-18.58336 -7.27213,5.22808 -14.11519,6.10883 -19.5306,6.22649 -4.55126,-0.38298 -3.8706,-3.66405 -3.21479,-5.46013 0.52672,-2.48023 12.44689,-8.65188 20.40031,-11.62668 -5.36618,-2.95378 -12.67951,-5.00945 -20.60495,-4.97283 z m 83.60474,1.36839 c -0.92439,-0.0448 -1.59182,1.11735 -1.63142,2.10737 2.2667,0.86259 4.16502,2.20391 5.08651,3.83181 1.89215,2.49905 -0.3037,17.71356 0.48007,26.5343 -2.61751,0.61605 -5.64376,-0.38079 -8.5416,-1.19734 0.5186,3.25883 5.31951,5.94601 9.16534,7.16029 7.09869,2.01296 13.24917,-2.09773 12.62042,-9.89036 -0.83176,-9.17199 -4.97114,-27.30046 -5.95054,-27.44433 -3.66001,-0.58238 -7.40886,-0.93435 -11.22878,-1.10174 z m -124.71439,0.49145 c -0.18498,0.006 -0.36222,0.0175 -0.52968,0.0357 -3.8689,0.95151 -6.70448,4.04158 -8.52972,6.62131 -3.25588,4.55109 -1.04768,19.56541 -2.29133,29.41991 -0.35771,1.88077 7.50832,2.71033 11.67268,2.35903 2.94095,-1.3377 4.59218,-3.47723 6.28179,-5.70404 -1.73769,0.30016 -4.32309,1.04009 -4.85087,-0.72296 -1.53619,-7.06894 -0.27279,-20.46712 1.4304,-25.01036 0.7058,-1.57456 1.70846,-3.99878 3.05305,-4.0411 0.76915,0.0749 1.37782,0.87675 1.72754,1.48466 0.48518,-0.87808 0.45853,-1.82411 -0.0481,-2.63446 -0.58745,-0.6566 -5.14106,-1.89431 -7.9158,-1.80764 z m 41.27088,32.97784 c -0.40715,1.56919 -0.9997,4.07026 0.30541,4.50412 1.93801,0.64348 3.35335,-0.2382 4.1398,-1.93012 -1.65791,-0.54223 -3.45256,-1.53299 -4.44521,-2.574 z m 5.14077,3.58996 c -0.0848,2.29527 -1.00459,3.80982 1.15342,4.38578 2.76917,0.54672 2.70726,-1.61471 3.41013,-2.76055 -1.76145,-0.18227 -3.23425,-0.80444 -4.56355,-1.62523 z m 5.63739,1.73891 c -0.38427,1.20554 -0.91473,3.43491 1.4056,3.853 2.66615,0 2.874,-0.72296 3.52278,-2.73162 -1.63242,-0.1335 -3.5419,-0.15868 -4.92838,-1.12138 z m 6.08438,1.41025 c -0.20072,0.89451 0.0692,2.32614 1.65572,2.96933 2.16136,0.52685 2.79956,-0.8735 3.35897,-2.22674 -1.75344,0.0194 -2.38856,0.015 -5.01469,-0.74259 z m -47.31495,99.3087 c -4.91503,0.0269 -10.31516,1.81258 -17.87334,5.89525 -3.77959,2.30662 -6.11845,9.20135 -6.02909,18.53272 -5.48298,8.42982 -4.45167,18.38826 3.10111,21.21887 4.78992,1.77564 23.72522,1.50982 40.83731,-2.39365 -17.16147,13.51821 -52.03571,14.27334 -67.77831,40.62906 -2.8369,15.60931 -9.41488,18.48084 -20.41427,28.81892 7.10938,5.29604 17.07404,-2.40523 24.4626,-10.47947 -3.6291,13.78586 -21.19979,21.05636 -28.33781,30.16199 19.55397,-0.36058 22.46842,-2.26663 50.72405,-44.16476 38.73456,-13.91772 55.68156,-20.0441 74.93395,-44.91458 19.25195,24.86933 36.19753,30.99713 74.93136,44.91458 28.25565,41.89813 31.17062,43.80453 50.72457,44.16476 -7.13801,-9.10563 -24.70668,-16.37613 -28.33574,-30.16199 7.38853,8.07424 17.35115,15.77551 24.46053,10.47947 -10.99936,-10.33808 -17.57739,-13.20961 -20.41427,-28.81892 -15.7426,-26.35572 -50.61423,-27.11085 -67.77573,-40.62906 17.1121,3.90347 36.04428,4.16929 40.83421,2.39365 7.55276,-2.83061 8.58461,-12.78905 3.10163,-21.21887 0.0893,-9.33137 -2.2495,-16.2261 -6.0291,-18.53272 -21.98746,-11.87688 -25.72922,-4.30573 -52.30328,9.38548 -9.01298,-3.16351 -13.98522,-0.004 -19.19418,1.15031 -5.20897,-1.15605 -10.18325,-4.31382 -19.19625,-1.15031 -17.43923,-8.98486 -25.04672,-15.33344 -34.42995,-15.28073 z" /></svg>
