<svg xmlns="http://www.w3.org/2000/svg" xml:space="preserve" id="svg1" width="4608" height="3072" version="1.1" viewBox="0 0 1219.2 812.8"><defs id="defs1"><style id="style1">.cls-1{fill:#0283c0}.cls-2{fill:#fff}.cls-3{fill:#ef483f}</style></defs><path id="rect1" d="M 0 0 L 0 812.8 L 1219.2 812.8 L 1219.2 0 L 0 0 z" style="fill:#000;fill-rule:evenodd;stroke:none;stroke-width:8.46667;stroke-linecap:round;stroke-linejoin:round;fill-opacity:1"/><path id="path7" d="m 602.46837,101.6 v 39.29895 h -39.29895 v 14.264 h 39.29895 v 51.23347 h 14.2632 v -51.23347 h 39.30212 v -14.264 H 616.73157 V 101.6 Z m -39.36759,110.1811 v 75.51511 h 14.2932 V 211.7811 Z m 19.67473,0 v 75.51511 h 14.29397 V 211.7811 Z m 19.67788,0 v 75.51511 h 14.29317 V 211.7811 Z m 19.67472,0 v 75.51511 h 14.29318 V 211.7811 Z m 19.67787,0 v 75.51511 h 14.29319 V 211.7811 Z m -78.7052,115.34178 v 201.86211 l 14.2932,-30.5064 V 327.12288 Z m 19.67473,0 v 159.87004 l 14.29397,-30.50801 V 327.12288 Z m 19.67788,0 v 117.87084 l 14.29317,-30.50563 v -87.36521 z m 19.67472,0 v 75.87875 l 14.29318,-30.50564 v -45.37311 z m 19.67787,0 v 33.88035 l 14.29319,-30.50642 v -3.37393 z m 14.29319,54.93319 -14.29319,30.50565 v 167.85239 h 14.29319 V 437.19279 Z m -19.67788,41.9984 -14.29318,30.50564 v 125.854 h 14.29318 z m -19.67473,41.9913 -14.29317,30.50643 v 83.86191 h 14.29317 z m -19.67708,41.99683 -14.29397,30.50801 v 41.8635 h 14.29397 z m -19.6755,41.99366 -14.23324,30.37785 h 14.23324 z m -14.2932,69.43541 v 79.79303 h 14.2932 v -79.79303 z m 19.67473,0 v 79.79303 h 14.29397 v -79.79303 z m 19.67788,0 v 79.79303 h 14.29317 v -79.79303 z m 19.67472,0 v 79.79303 h 14.29318 v -79.79303 z m 19.67787,0 v 79.79303 h 14.29319 v -79.79303 z m -39.33761,85.17456 V 711.2 h 14.2632 v -6.55377 z" style="color:#000;display:inline;fill:#d00000;fill-opacity:1;stroke-width:1;stroke-linecap:round;stroke-linejoin:round;-inkscape-stroke:none"/><path id="path8" d="m 563.10078,292.67773 v 11.83907 h 92.99601 v -11.83907 z m 132.05042,14.49276 -19.62739,12.17355 c 7.36832,20.10228 8.45532,33.89341 4.9611,43.38598 -3.3263,9.03633 -10.8246,13.54474 -19.00421,15.59321 v 56.17405 l 65.62605,-0.10958 c 8.27018,-53.53837 -2.02374,-96.92672 -31.95555,-127.21712 z m -132.05042,2.73101 v 11.83907 h 92.99601 V 309.9015 Z m 92.99601,33.28239 -92.99601,198.4803 v 26.19773 l 92.99601,-198.48583 z m -93.02283,242.61176 v 11.43124 h 90.92923 v -11.43124 z m 0,16.86641 v 11.42491 h 90.92923 v -11.42491 z" style="color:#000;fill:#ffd000;fill-opacity:1;stroke-width:1;stroke-linecap:round;stroke-linejoin:round;-inkscape-stroke:none"/></svg>