<svg xmlns="http://www.w3.org/2000/svg" xml:space="preserve" width="4608" height="3072" viewBox="0 0 1219.2 812.8"><path d="m 0,0 h 1219.2 l 0,812.8 H 0 Z" style="display:inline;fill:#000;fill-opacity:1;stroke:none;stroke-width:101.6;stroke-linecap:square;stroke-linejoin:miter;stroke-miterlimit:128;stroke-dasharray:none;stroke-opacity:1"/><path d="M 609.6 101.6 L 541.168 312.21143 L 319.71795 312.21143 L 498.87498 442.37662 L 430.44298 652.98805 L 609.6 522.82287 L 788.75702 652.98857 L 720.32502 442.37662 L 899.48205 312.21143 L 678.032 312.21143 L 609.6 101.6 z M 493.22312 130.98529 L 467.35132 210.61143 L 383.62723 210.61143 L 420.53557 261.41195 L 504.25966 261.41195 L 530.13198 181.7858 L 493.22312 130.98529 z M 725.97584 130.9858 L 689.0675 181.7858 L 714.93931 261.41195 L 798.66184 261.41195 L 835.5707 210.61143 L 751.84765 210.61143 L 725.97584 130.9858 z M 847.77823 412.56965 L 780.04489 461.78112 L 805.9167 541.40675 L 865.63502 560.81021 L 839.76373 481.18562 L 907.49758 431.97363 L 847.77823 412.56965 z M 371.42281 412.57017 L 311.70294 431.97415 L 379.4373 481.18562 L 353.56602 560.8097 L 413.28433 541.40571 L 439.15614 461.78112 L 371.42281 412.57017 z M 609.59948 585.61542 L 541.86718 634.82585 L 541.86718 697.6184 L 609.59948 648.40797 L 677.33385 697.61995 L 677.33385 634.8274 L 609.59948 585.61542 z" style="color:#000;fill:#fff;stroke-linecap:square;stroke-miterlimit:128;-inkscape-stroke:none;fill-opacity:1"/><path d="m 609.6,265.9941 -31.52314,97.01785 H 476.065 l 82.52933,59.96068 -31.52366,97.0194 82.52933,-59.96068 82.52933,59.96068 -31.52314,-97.0194 82.52933,-59.96068 H 641.12366 Z" style="display:inline;fill:#b00020;fill-opacity:1;stroke:none;stroke-width:101.6;stroke-linecap:square;stroke-linejoin:miter;stroke-miterlimit:128;stroke-dasharray:none;stroke-opacity:1"/></svg>