<svg xmlns="http://www.w3.org/2000/svg" xml:space="preserve" width="3072" height="2048" viewBox="0 0 812.8 541.867"><path d="M 0 0 L 0 541.86683 L 812.80025 541.86683 L 812.80025 0 L 0 0 z" style="fill:#000;fill-opacity:1;stroke:none;stroke-width:33.8667;stroke-linecap:butt;stroke-linejoin:miter;stroke-dasharray:none;stroke-opacity:1;paint-order:stroke fill markers"/><path d="M 406.40012 33.866677 L 365.43982 159.93034 C 367.36932 159.22773 369.3121 158.56126 371.27719 157.95888 L 375.48624 136.70333 L 437.31453 136.70126 L 441.47861 157.74029 C 443.43601 158.34691 445.37158 159.01669 447.29325 159.72312 L 406.40012 33.866677 z M 180.9363 197.67585 L 272.17003 263.96123 L 272.17003 240.01953 L 293.42559 235.81049 C 295.54305 228.90283 298.28345 222.20318 301.62096 215.79516 L 289.79687 198.13474 L 290.25576 197.67585 L 180.9363 197.67585 z M 522.97496 197.67585 L 523.17598 197.87687 L 511.2444 215.69543 C 514.64192 222.14447 517.436 228.89289 519.59377 235.85544 L 540.6328 240.01953 L 540.63177 263.95968 L 631.86395 197.67585 L 522.97496 197.67585 z M 510.98602 355.74842 L 479.19932 387.53512 L 461.5389 375.7131 C 455.13034 379.0509 448.42977 381.79094 441.52151 383.90847 L 440.98614 386.6127 L 545.74463 462.72435 L 510.98602 355.74842 z M 301.81371 355.74894 L 267.05562 462.72435 L 371.81308 386.61373 L 371.27719 383.90847 C 364.36956 381.79101 357.66989 379.05061 351.26187 375.7131 L 333.60145 387.53512 L 301.81371 355.74894 z" style="fill:#e00000;fill-opacity:1;stroke:none;stroke-width:33.8667;stroke-linecap:square;stroke-linejoin:miter;stroke-dasharray:none;stroke-opacity:1;paint-order:stroke fill markers"/><path d="m 389.39599,153.63615 -3.57549,18.06247 c -12.53634,2.54202 -24.48001,7.42863 -35.20303,14.40274 l -14.87817,-9.96115 -24.13238,24.13238 9.96115,14.87817 c -6.97415,10.72302 -11.86068,22.66669 -14.40275,35.20303 l -18.06246,3.57549 v 34.00827 l 18.06246,3.5755 c 2.54207,12.5363 7.4286,24.48001 14.40275,35.20303 l -9.96115,14.87816 24.13238,24.13239 14.87817,-9.96116 c 10.72302,6.97415 22.66669,11.86068 35.20303,14.40275 l 3.57549,18.06247 h 34.00827 l 3.57549,-18.06247 c 12.53634,-2.54207 24.48001,-7.4286 35.20303,-14.40275 l 14.87817,9.96116 24.13238,-24.13239 -9.96115,-14.87816 c 6.97415,-10.72302 11.86068,-22.66673 14.40275,-35.20303 l 18.06246,-3.5755 10e-4,-34.00827 -17.80977,-3.52537 c -2.59751,-12.58681 -7.55959,-24.56671 -14.62289,-35.3038 l 10.10016,-15.0859 -24.0466,-24.0466 -15.0859,10.10016 c -10.7371,-7.0633 -22.71699,-12.02541 -35.3038,-14.62288 l -3.52537,-17.80978 z m -3.5202,52.74925 -43.3953,86.79008 c -2.42795,-6.97573 -3.81372,-14.43909 -3.81372,-22.24206 0,-30.25019 19.83878,-55.85176 47.20902,-64.54802 z m 41.0497,5.2e-4 c 27.36973,8.6966 47.20799,34.29771 47.20799,64.5475 0,7.80263 -1.38598,15.26561 -3.81372,22.24102 z m -20.52485,34.67851 14.9345,29.86899 h -29.86899 z m -31.86835,63.73618 h 63.73618 l 9.74825,19.49701 c -11.48928,8.97299 -25.90887,14.36915 -41.6166,14.36915 -15.70758,0 -30.12735,-5.39572 -41.61659,-14.36864 z" style="color:#000;fill:#fff;stroke-linecap:square;-inkscape-stroke:none;paint-order:stroke fill markers;fill-opacity:1"/></svg>