<svg xmlns="http://www.w3.org/2000/svg" xml:space="preserve" id="svg1" width="4608" height="3072" version="1.1" viewBox="0 0 1219.2 812.8"><defs id="defs1"><style id="style1">.cls-1{fill:#0283c0}.cls-2{fill:#fff}.cls-3{fill:#ef483f}</style></defs><path id="rect1" d="M 0 0 L 0 812.8 L 1219.2 812.8 L 1219.2 0 L 0 0 z" style="fill:#d00000;fill-rule:evenodd;stroke:none;stroke-width:8.46667;stroke-linecap:round;stroke-linejoin:round;fill-opacity:1"/><path id="path2" d="M 609.6 101.6 A 304.79999 304.79999 0 0 0 304.8 406.4 A 304.79999 304.79999 0 0 0 609.6 711.2 A 304.79999 304.79999 0 0 0 914.4 406.4 A 304.79999 304.79999 0 0 0 609.6 101.6 z M 609.6 152.4 A 253.99999 253.99999 0 0 1 863.6 406.4 A 253.99999 253.99999 0 0 1 609.6 660.4 A 253.99999 253.99999 0 0 1 355.6 406.4 A 253.99999 253.99999 0 0 1 609.6 152.4 z M 609.6 169.33333 A 237.06666 237.06666 0 0 0 470.5966 215.07783 L 500.11521 255.70687 A 186.26666 186.26666 0 0 1 609.6 220.13333 L 609.6 169.33333 z M 748.91759 214.64633 L 719.0574 255.74511 A 186.26666 186.26666 0 0 1 786.68325 348.86191 L 834.99865 333.16364 A 237.06666 237.06666 0 0 0 748.91759 214.64633 z M 609.6 237.06667 L 609.6 287.86667 A 118.53333 118.53333 0 0 1 679.25311 310.5304 L 709.11227 269.43265 A 169.33332 169.33332 0 0 0 609.6 237.06667 z M 510.312 269.74167 A 169.33332 169.33332 0 0 0 448.81705 354.15823 L 497.14278 369.86063 A 118.53333 118.53333 0 0 1 540.18253 310.85493 L 510.312 269.74167 z M 609.6 304.8 A 101.6 101.6 0 0 0 508 406.4 A 101.6 101.6 0 0 0 609.6 508 A 101.6 101.6 0 0 0 711.2 406.4 A 101.6 101.6 0 0 0 609.6 304.8 z M 384.50418 333.26183 A 237.06666 237.06666 0 0 0 372.53333 406.4 A 237.06666 237.06666 0 0 0 384.50418 479.53817 L 432.45009 463.95979 A 186.26666 186.26666 0 0 1 423.33333 406.4 A 186.26666 186.26666 0 0 1 432.45009 348.84021 L 384.50418 333.26183 z M 609.6 338.66667 L 624.80682 385.46898 L 674.01829 385.46898 L 634.20573 414.39486 L 649.41256 461.19717 L 609.6 432.27181 L 569.78744 461.19717 L 584.99427 414.39486 L 545.18171 385.46898 L 594.39318 385.46898 L 609.6 338.66667 z M 770.59896 354.08795 L 722.28615 369.78621 A 118.53333 118.53333 0 0 1 728.13333 406.4 A 118.53333 118.53333 0 0 1 722.05722 442.93937 L 770.59896 458.71154 A 169.33332 169.33332 0 0 0 778.93333 406.4 A 169.33332 169.33332 0 0 0 770.59896 354.08795 z M 497.14278 442.93937 L 448.81705 458.64177 A 169.33332 169.33332 0 0 0 510.312 543.05833 L 540.18253 501.94507 A 118.53333 118.53333 0 0 1 497.14278 442.93937 z M 786.68325 463.93809 A 186.26666 186.26666 0 0 1 719.0574 557.05489 L 748.91759 598.15367 A 237.06666 237.06666 0 0 0 834.99865 479.63636 L 786.68325 463.93809 z M 679.01747 501.94507 A 118.53333 118.53333 0 0 1 609.6 524.93333 L 609.6 575.73333 A 169.33332 169.33332 0 0 0 709.11279 543.36683 L 679.01747 501.94507 z M 500.11521 557.09313 L 470.59608 597.72166 A 237.06666 237.06666 0 0 0 609.6 643.46667 L 609.6 592.66667 A 186.26666 186.26666 0 0 1 500.11521 557.09313 z" style="display:inline;fill:#000;stroke:none;stroke-width:67.7333;stroke-miterlimit:128;paint-order:stroke fill markers"/></svg>