<svg xmlns="http://www.w3.org/2000/svg" xml:space="preserve" id="svg1" width="4608" height="3072" version="1.1" viewBox="0 0 1219.2 812.8"><defs id="defs1"><style id="style1">.cls-1{fill:#0283c0}.cls-2{fill:#fff}.cls-3{fill:#ef483f}</style></defs><path id="rect1" d="M 0 0 L 0 812.8 L 1219.2 812.8 L 1219.2 0 L 0 0 z" style="fill:#d00000;fill-rule:evenodd;stroke:none;stroke-width:8.46667;stroke-linecap:round;stroke-linejoin:round;fill-opacity:1"/><path id="path4" d="M 609.6,101.6 A 304.79999,304.79999 0 0 0 304.8,406.4 304.79999,304.79999 0 0 0 609.6,711.2 304.79999,304.79999 0 0 0 914.4,406.4 304.79999,304.79999 0 0 0 609.6,101.6 Z m 0,50.8 a 253.99999,253.99999 0 0 1 254,254 253.99999,253.99999 0 0 1 -254,254 253.99999,253.99999 0 0 1 -254,-254 253.99999,253.99999 0 0 1 254,-254 z" style="display:inline;fill:#ffd000;fill-opacity:1;stroke:none;stroke-width:135.467;stroke-miterlimit:128;paint-order:stroke fill markers"/><path id="path2" d="m 688.96828,203.20207 c -8.10297,-0.0855 -17.15375,2.29044 -24.38972,0.39894 -13.02448,9.33448 -10.60232,40.1147 -34.34726,28.21223 -14.56047,-2.3475 -32.85586,8.16766 -35.56786,-11.95327 -16.73245,-19.27947 -36.5835,3.57272 -55.05297,5.6937 -14.02796,4.473 -30.83435,6.517 -42.47492,15.49157 -0.83157,0.64111 -1.63631,1.31768 -2.41226,2.03295 -0.77577,0.71509 -1.52269,1.46894 -2.23707,2.26497 0.003,2.50312 -0.83034,3.99568 -2.22984,4.86741 -0.933,0.58115 -2.11771,0.88619 -3.47421,1.03094 -7.46073,0.79612 -20.11842,-3.26177 -24.67963,7.03627 -13.73545,15.48895 2.90675,34.02576 20.4432,25.22378 12.98397,0.9795 -3.47257,18.85834 4.40542,27.27482 8.90398,21.09745 -6.64454,38.3401 -12.62352,57.44404 -8.99097,22.23445 -16.27087,46.7607 -10.23039,70.76364 2.019,22.54945 -3.56387,46.33965 6.8461,67.5721 6.13948,19.12045 17.00278,40.16999 38.35373,44.95798 19.30795,9.06748 40.91387,10.96511 61.93782,11.97911 20.12995,8.42399 42.59866,11.23038 64.1041,11.61738 17.66545,9.58497 21.84128,41.05945 48.6177,33.25947 26.53795,-1.7985 48.10043,-21.98109 57.9329,-45.74553 8.60847,-20.20495 27.04337,-40.94838 17.7059,-63.95682 -10.51497,-20.14195 -10.44441,-47.32977 -29.29486,-61.95022 -18.91195,-7.90497 -42.99292,-8.57388 -61.93937,0.12609 -15.21595,5.96098 -12.06745,33.37199 -32.8259,25.92452 -22.51344,-1.3575 -39.66293,17.52427 -60.64488,18.73477 -14.53645,-14.85297 -4.77478,-45.19489 -19.92023,-63.09434 -14.48247,-12.44247 0.44425,-32.29028 -3.08973,-49.09623 1.72048,-16.61095 -1.65461,-37.65903 11.50937,-49.98299 16.35595,-10.76997 45.92538,-16.73586 42.1349,-42.2088 -0.06,-9.67872 5.82188,-12.66869 13.32787,-13.80587 1.87648,-0.2843 3.85477,-0.45315 5.86682,-0.58136 6.03613,-0.38466 12.3783,-0.40647 17.20567,-2.10633 21.33445,1.60948 14.68541,29.43402 28.74036,41.16699 9.32098,19.83445 33.51884,10.92318 33.34784,-9.04027 7.20898,-26.82594 3.79324,-54.57461 0.83974,-81.71853 -3.855,-6.20998 -9.58332,-7.76561 -15.88482,-7.83311 z" style="display:inline;fill:#ffd000;fill-opacity:1"/></svg>