<svg xmlns="http://www.w3.org/2000/svg" xml:space="preserve" id="svg2" width="3072" height="2048" version="1.1" viewBox="0 0 812.8 541.867"><defs id="defs2"><style id="style1">.cls-1{fill:#0283c0}.cls-2{fill:#fff}.cls-3{fill:#ef483f}</style></defs><path id="path1" fill="#e00000" d="M0 0h812.8v541.867H0Z" paint-order="stroke fill markers"/><path id="path1-3" d="M 50.800016 50.800016 L 104.57091 143.93338 L 67.733354 143.93338 L 67.733354 169.33339 L 118.53337 169.33339 L 118.53337 186.26672 L 67.733354 186.26672 L 67.733354 211.66673 L 118.53337 211.66673 L 118.53337 254.00008 L 152.40005 254.00008 L 152.40005 211.66673 L 203.20006 211.66673 L 203.20006 186.26672 L 152.40005 186.26672 L 152.40005 169.33339 L 203.20006 169.33339 L 203.20006 143.93338 L 166.36251 143.93338 L 220.1334 50.800016 L 181.02725 50.800016 L 135.46671 129.71357 L 89.906168 50.800016 L 50.800016 50.800016 z M 285.45036 50.800016 L 274.54043 63.334138 L 259.24834 56.831691 L 267.79821 71.079921 L 256.88827 83.61456 L 273.08109 79.887655 L 281.63096 94.135885 L 283.0903 77.582368 L 299.28312 73.855463 L 283.99102 67.353016 L 285.45036 50.800016 z M 312.16864 97.055604 L 314.51837 113.50577 L 299.59989 120.82419 L 315.97151 123.67311 L 318.32124 140.12172 L 326.08924 125.43269 L 342.45931 128.2811 L 330.88998 116.35469 L 338.65799 101.66411 L 323.73796 108.98253 L 312.16864 97.055604 z M 321.42131 163.34564 L 316.85621 179.32399 L 300.25102 179.91982 L 314.03571 189.19781 L 309.47061 205.17617 L 322.55612 194.93338 L 336.33926 204.21085 L 330.6409 188.60198 L 343.72641 178.35919 L 327.11967 178.95502 L 321.42131 163.34564 z M 284.56876 210.5438 L 274.18903 223.51873 L 258.64062 217.65655 L 267.77289 231.53839 L 257.39315 244.51383 L 273.4175 240.11823 L 282.55132 254.00008 L 283.32233 237.40057 L 299.34564 233.00549 L 283.79723 227.14331 L 284.56876 210.5438 z" style="display:inline;fill:#ffe000;fill-opacity:1;stroke-width:8.71203"/></svg>