<svg xmlns="http://www.w3.org/2000/svg" xml:space="preserve" width="3072" height="2048" viewBox="0 0 812.8 541.867"><path fill="#ffc000" d="M270.933 0v541.867h541.46V0Z" paint-order="stroke markers fill"/><path fill="#ff8020" d="M0 0v541.867h270.933V0Z" paint-order="stroke markers fill"/><path fill="#a02020" d="M576.266 220.576c-19.819-12.08-19.853-12.093-29.241-10.965l-4.673.562-3.076 6.835c-1.692 3.76-3.389 6.836-3.77 6.836-.382 0-.983-2.187-1.337-4.86-.354-2.673-1.053-6.773-1.553-9.11-.878-4.101-1.065-4.287-5.262-5.251-3.593-.825-4.623-.754-5.914.409-.86.774-8.954 3.265-17.99 5.534l-16.426 4.127-10.37 8.278c-5.702 4.553-10.909 8.278-11.57 8.278-2.433 0-11.967-3.047-11.967-3.825 0-.442.574-.803 1.275-.803s4.263-.675 7.914-1.5l6.64-1.5 4.582-6.789c2.52-3.734 4.581-6.983 4.581-7.22 0-.237-1.284-.713-2.854-1.058-1.974-.434-7.691.579-18.548 3.285-8.632 2.15-15.835 3.754-16.007 3.561-1.805-2.027-15.426-21.407-15.196-21.622.168-.158 5.6 2.763 12.07 6.49l11.765 6.776 7.82-1.156c7.39-1.093 8.21-1.454 14.849-6.539 3.865-2.96 7.027-5.552 7.027-5.76 0-.208-5.93-3.274-13.18-6.814l-13.178-6.436h-35.105l-25.76 5.649-25.759 5.65-18.047-3.453-18.047-3.452-3.592-6.13c-1.975-3.371-3.402-6.436-3.17-6.81.23-.374 5.501 1.867 11.712 4.98l11.292 5.661 12.267-2.17c6.746-1.194 12.266-2.416 12.266-2.717 0-.3-4.364-1.957-9.698-3.681-5.334-1.724-9.578-3.255-9.43-3.402.637-.638 50.475-3.074 63-3.079l13.788-.005 19.998 5.911c18.834 5.568 20.73 5.949 32.572 6.546l12.575.634 5.013-2.992c4.708-2.81 5.853-3.06 18.837-4.086l13.825-1.094 16.696 7.675c16.256 7.473 18.07 7.924 18.121 4.506.008-.522-7.47-6.54-16.617-13.375-9.147-6.834-16.498-12.559-16.335-12.721.162-.163 8.5 1.058 18.528 2.712l18.234 3.008 9.544 11.197 9.544 11.196 21.8 9.351 21.801 9.352 6.098-1.83c3.353-1.006 6.097-2.056 6.097-2.334s-1.562-2.503-3.471-4.946l-3.471-4.44-14.755-4.036c-13.104-3.584-15.686-4.631-23.075-9.358-4.576-2.928-7.725-5.315-6.998-5.306.727.01 5.28.626 10.116 1.372 4.837.745 9.409 1.363 10.16 1.372.752.009-1.945-3.316-5.994-7.389-4.05-4.073-6.955-7.395-6.458-7.383.497.013 8.871 1.81 18.61 3.996l17.705 3.973 6.225 4.954 6.226 4.954-.357 6.313-.357 6.314 7.618 7.578 7.617 7.578-5.4 6.085c-2.97 3.347-7.01 7.855-8.976 10.017l-3.576 3.932-22.937 2.78c-12.616 1.528-24.07 2.766-25.456 2.75-1.559-.017-9.73-4.424-21.455-11.57z"/><path fill="gray" d="M660.003 196.91c-2.852-2.721-4.16-4.623-3.703-5.386.388-.65 3.576-4.935 7.084-9.523l6.379-8.343 4.615 1.948c2.538 1.072 4.804 2.44 5.035 3.04.318.83-14.043 22.595-14.839 22.49-.09-.011-2.147-1.913-4.571-4.227zm25.698-40.843c-1.018-.245-2.19-.763-2.602-1.152-.777-.732 10.907-19.5 12.107-19.448.372.016 1.463.625 2.425 1.353 1.686 1.276 1.603 1.654-2.314 10.594-4.222 9.637-4.498 9.884-9.616 8.653z"/><path fill="silver" d="m651.418 397.45-5.24-8.951 1.932-31.34c2.136-34.657 2.025-36.064-2.656-33.644-2.502 1.294-3.302 1.086-16.857-4.391-13.327-5.385-15.082-6.396-27.645-15.932-15.677-11.9-24.252-18.026-25.249-18.04-.392-.006-.47.957-.172 2.139.296 1.182-.512 8.048-1.797 15.258l-2.336 13.11-9.08 11.332c-8.6 10.735-9.572 11.62-18.446 16.814l-9.367 5.483 1.227 3.795c.674 2.088 2.725 8.69 4.556 14.673 2.303 7.52 3.755 10.876 4.708 10.876.757 0 3.2 1.68 5.429 3.735 2.766 2.55 6.211 4.47 10.855 6.05 6.443 2.191 6.97 2.587 9.918 7.452 1.733 2.858 2.76 5.483 2.314 5.916-.44.429-5.217 1.07-10.617 1.427-9.53.628-9.94.575-14.036-1.826-2.321-1.36-4.89-3.496-5.71-4.746-1.074-1.64-2.324-2.272-4.493-2.272h-3.006l-11.444-26.781c-6.385-14.944-11.2-27.415-10.894-28.215.303-.788 3.065-5.174 6.14-9.746 5.426-8.07 5.59-8.491 5.59-14.398 0-5.99-.129-6.304-8.331-20.317-4.582-7.828-8.331-15.126-8.331-16.219 0-1.093.46-3.812 1.021-6.043 1.728-6.863.339-6.857-1.735.005-1.076 3.559-2.436 11.885-3.024 18.503-.587 6.619-2.465 18.976-4.172 27.461-2.687 13.36-3.723 16.662-7.728 24.643-3.277 6.531-5.65 10.01-8.147 11.943-5.3 4.104-12.402 6.766-18.04 6.761-4.216-.002-5.97-.631-12.267-4.396-5.285-3.161-7.582-5.117-8.186-6.97-2.111-6.473 2.459-6.942 13.632-1.401l7.845 3.89 6.473-4.422c9.564-6.535 12.692-12.772 17.051-34.006 1.818-8.854 3.589-20.662 3.935-26.24.456-7.334 1.331-12.206 3.161-17.588 2.405-7.074 2.984-7.89 11.64-16.395l9.107-8.95 13.461-3.71 13.462-3.71 11.107 1.794c6.11.986 24.973 3.24 41.92 5.01l30.811 3.216 15.934-3.709 15.933-3.709 8.794-6.069c4.836-3.337 14.057-9.68 20.491-14.094l11.698-8.026.994-8.754c.547-4.814.789-8.959.537-9.21-.252-.252-4.714-2.212-9.915-4.356-9.343-3.85-9.461-3.938-9.745-7.22-.325-3.761-.065-3.855 5.378-1.935 4.846 1.71 5.554 1.726 5.554.125 0-.777-6.325-3.758-16.43-7.742-16.145-6.365-16.435-6.528-16.72-9.389-.232-2.314.134-3.068 1.782-3.678l2.074-.767-2.015-.527c-1.597-.417-2.014-1.215-2.014-3.853 0-1.83.343-3.326.761-3.326.419 0 7.812 1.426 16.43 3.17l15.67 3.17 2.364-2.245c2.295-2.177 2.792-2.244 16.757-2.244 7.916 0 16.953.268 20.083.595l5.69.594v3.834c0 3.412.55 4.377 5 8.773 3.069 3.03 5.428 4.674 6.107 4.254.745-.46-.284-1.961-3.15-4.592-4.173-3.832-4.255-4.017-4.255-9.608 0-3.136.2-5.701.446-5.701 1.288 0 16.215 7.398 16.215 8.036 0 .413-1.05 3.905-2.334 7.76-1.737 5.217-3.275 7.927-6.016 10.604-3.451 3.37-3.683 3.932-3.683 8.927 0 7.882-2.991 15.994-16.206 43.947-10.524 22.262-12.201 25.267-14.728 26.38-2.574 1.135-2.962 1.87-3.978 7.536-2.698 15.039-19.177 44.712-29.611 53.316-3.16 2.606-6.202 4.738-6.76 4.738-.559 0-2.547-1.04-4.418-2.312-4.182-2.842-4.309-2.613-5.142 9.254-.331 4.711-1.742 12.357-3.247 17.595l-2.661 9.264 1.589 11.563c.874 6.36 2.08 12.813 2.682 14.34.713 1.813 3.806 4.704 8.91 8.33 4.3 3.056 7.816 5.971 7.813 6.48 0 .51-.808 2.696-1.79 4.86l-1.786 3.934h-22.13zm63.758-234.956 1.517-2.314-6.733.077-6.732.077 4.628 2.18c5.807 2.735 5.514 2.736 7.32-.02zm-127.692 227c-2.16-3.713-3.448-4.95-5.53-5.31-2.293-.398-3.506-1.848-7.829-9.363-2.813-4.891-6.469-10.096-8.123-11.566-2.4-2.133-3.581-4.568-5.843-12.047l-2.834-9.374 10.176-14.243 10.177-14.243 1.085-10.17c.597-5.592 1.227-10.319 1.4-10.502.172-.184 4.108 2.07 8.744 5.01l8.431 5.345-4.12 4.246c-3.114 3.21-5.3 7.017-8.956 15.602-2.66 6.246-6.042 12.872-7.515 14.726-1.473 1.853-2.48 4.032-2.24 4.842.242.81 1.143 4.389 2.004 7.953 1.967 8.143 2.979 10.095 7.939 15.319 3.43 3.613 6.035 5.045 18.346 10.09 7.89 3.232 14.483 5.985 14.648 6.117.166.131.024 2.087-.315 4.345-.558 3.721-1.001 4.294-4.722 6.102-3.355 1.63-5.756 1.992-13.107 1.979l-9-.016-2.816-4.841zm111.579-33.955c-10.843-1.057-20.511-9.035-12.96-10.693 3-.66 3.382-1.34 1.697-3.024-1.335-1.336-.323-1.72 6.297-2.396 4.23-.431 5.172-.177 8.545 2.304 2.312 1.7 4.431 2.583 5.429 2.263 1.886-.606 16.562-39.254 15.329-40.366-.404-.364-4.586-2.021-9.296-3.683-4.709-1.662-8.554-3.07-8.544-3.127.01-.057 2.62-5.188 5.8-11.402l5.784-11.297 10.63 5.842 10.629 5.842-.203 8.852c-.202 8.849-.205 8.859-9.143 31.202l-8.941 22.35-6.12 4.105c-3.366 2.258-6.75 4.04-7.518 3.96-.77-.08-4.106-.41-7.415-.732zm28-204.343c-1.882-.363-2.082-.932-2.082-5.937 0-6.24-.635-6.238 8.097-.031 6.732 4.785 6.839 6.685.366 6.495-2.364-.07-5.235-.307-6.38-.527z"/></svg>