<svg xmlns="http://www.w3.org/2000/svg" xml:space="preserve" width="3072" height="2048" viewBox="0 0 812.8 541.867"><path d="M 0 0 L 0 541.86683 L 812.80025 541.86683 L 812.80025 0 L 0 0 z" style="fill:purple;stroke:none;stroke-width:1.05833;stroke-linecap:round;stroke-linejoin:round;paint-order:stroke fill markers;fill-opacity:1"/><path d="m 372.53345,67.733354 16.93334,16.933339 V 275.47061 l -106.58216,-61.53528 -6.19807,-23.13141 -33.86668,58.65897 23.13141,-6.19808 106.58216,61.53528 -106.58216,61.53528 -23.13141,-6.19807 33.86668,58.65897 6.19807,-23.13141 106.58216,-61.53528 v 123.07056 l -16.93334,16.93334 H 440.2668 L 423.33398,457.20014 V 334.12958 l 106.58164,61.53528 6.19807,23.13141 33.86668,-58.65897 -23.13141,6.19807 -106.58216,-61.53528 106.58216,-61.53528 23.13141,6.19808 -33.86668,-58.65897 -6.19807,23.13141 -106.58164,61.53528 -5.2e-4,-55.33721 h 16.93386 c 46.75978,-2.8e-4 84.66618,-29.44016 84.66618,-76.20002 0,-40.96067 -29.0879,-66.657963 -67.73336,-74.502971 L 440.2668,67.733354 Z m 67.73335,33.866676 c 28.05602,0 50.80002,14.27733 50.80002,42.33335 0,28.05581 -22.74375,42.33306 -50.7995,42.33334 h -16.93386 v -84.66669 z" style="color:#000;fill:#ffe000;fill-opacity:1;-inkscape-stroke:none;paint-order:stroke fill markers"/></svg>