<svg xmlns="http://www.w3.org/2000/svg" xml:space="preserve" width="3072" height="2048" viewBox="0 0 812.8 541.867"><path d="M 0 0 L 0 541.86683 L 812.80025 541.86683 L 812.80025 0 L 0 0 z" style="fill:#404040;stroke-width:4.23333;stroke-linecap:round;stroke-linejoin:round;fill-opacity:1"/><path d="m 295.71642,83.688455 c -20.32877,0 -36.95331,16.668645 -36.95331,37.085615 0,20.24058 16.6247,36.82102 36.90938,36.82102 20.37287,0 37.04168,-16.58044 37.04168,-36.82102 0,-20.41697 -16.66897,-37.085615 -36.99775,-37.085615 z m 216.73774,0 c -20.32877,0 -36.95331,16.668645 -36.95331,37.085615 0,20.24058 16.6247,36.82102 36.90938,36.82102 20.37287,0 37.04168,-16.58044 37.04168,-36.82102 0,-20.41697 -16.66897,-37.085615 -36.99775,-37.085615 z m -358.06921,1.4547 v 5.1e-4 l -20.68195,0.04341 v 71.040655 h 20.68195 c 22.97461,0 36.99724,-13.40561 36.99724,-35.45418 0,-22.180865 -14.02263,-35.674495 -36.99724,-35.630395 z m 46.25766,5.1e-4 0.0439,71.084575 h 14.2875 v -33.60261 l 22.62189,33.60261 h 17.4625 l -20.1967,-28.2665 c 7.6288,-2.68992 13.1408,-10.67172 13.1408,-19.79983 0,-12.788175 -10.8917,-23.018245 -24.16494,-23.018245 z m 141.33146,0 v 71.084575 h 14.28751 V 133.1206 h 10.6717 c 13.7583,0 25.00313,-10.75975 25.00313,-23.9448 0,-13.229135 -11.24483,-24.032135 -25.00313,-24.032135 z m 79.19881,0 22.00435,40.569115 v 30.51546 h 14.19965 V 125.71278 L 479.42516,85.143665 H 463.24164 L 450.27706,109.83726 437.31247,85.143665 Z m 136.92192,0 V 129.9456 c 0,16.09546 12.30299,27.8257 27.42831,27.8257 15.12531,0 27.42882,-11.73024 27.42882,-27.8257 V 85.143665 h -14.37587 v 44.758525 c 0,7.717 -6.21774,13.40539 -13.09688,13.40539 -6.87915,0 -13.00851,-5.64429 -13.00851,-13.40539 V 85.143665 Z m 66.58665,0 0.0439,71.084575 h 14.2875 v -33.60261 l 22.62188,33.60261 h 17.46251 l -20.19671,-28.2665 c 7.6288,-2.68992 13.14081,-10.67172 13.14081,-19.79983 0,-12.788175 -10.89171,-23.018245 -24.16494,-23.018245 z m -329.00896,12.96407 c 12.43539,0 22.57744,10.142055 22.57744,22.577445 0,12.3472 -10.14205,22.44618 -22.57744,22.44618 -12.39129,0 -22.48959,-10.09898 -22.48959,-22.44618 0,-12.43539 10.0983,-22.577445 22.48959,-22.577445 z m 216.73774,0 c 12.43539,0 22.57744,10.142055 22.57744,22.577445 0,12.3472 -10.14205,22.44618 -22.57744,22.44618 -12.39129,0 -22.48959,-10.09898 -22.48959,-22.44618 0,-12.43539 10.0983,-22.577445 22.48959,-22.577445 z m -364.46365,1.19114 h 6.39393 c 14.06698,0 22.62188,8.113925 22.62188,21.431265 0,13.22914 -8.51079,21.25452 -22.48959,21.25452 h -6.52622 z m 66.98353,0 h 9.17257 c 4.80658,0 9.17205,3.879725 9.17205,8.950885 0,5.07118 -4.32137,8.99601 -9.17205,8.95191 l -9.17257,-0.0434 z m 141.33147,0 h 10.6717 c 5.90902,0 10.71563,4.364795 10.71563,9.744635 0,5.51215 -4.80661,10.01042 -10.71563,9.96632 l -10.6717,-0.0439 z m 282.70738,0 h 9.17257 c 4.80658,0 9.17205,3.879725 9.17205,8.950885 0,5.07118 -4.32137,8.99601 -9.17205,8.95191 l -9.17257,-0.0434 z m -350.52859,96.968795 -33.95504,72.84932 h 15.4342 l 4.54185,-9.92187 h 28.44271 l 4.49792,9.92187 h 15.47813 l -33.99897,-72.84932 z m 68.74725,0.30954 c -20.32877,0 -36.90887,16.75684 -36.90887,37.08561 0,20.28468 16.4919,36.86494 37.43804,36.86494 18.52079,0 33.91112,-13.00822 33.91112,-35.32137 0,-1.94028 -0.13246,-3.925 -0.35295,-5.99757 h -33.42588 v 13.18473 h 18.38855 c -0.48507,8.55485 -7.76097,13.75886 -17.90331,13.75886 -13.89059,0 -23.50348,-10.14239 -23.50348,-22.48959 0,-13.27324 11.15627,-22.62188 22.18056,-22.62188 6.34999,0 12.70002,3.08613 18.25626,8.51007 l 7.9375,-11.86129 c -6.96735,-6.79096 -16.80124,-11.02432 -26.01754,-11.11251 z m -199.23079,1.27796 v 71.35019 h 14.2875 v -28.53108 h 24.51789 v -14.2441 h -24.51789 v -14.33143 h 28.57501 v -14.24358 z m 50.88786,0.17725 v 71.08457 h 42.86251 v -14.19913 h -28.575 v -56.88544 z m 218.50198,0 v 71.08457 h 14.24306 v -28.48664 h 25.5323 v 28.48664 h 14.24358 v -71.08457 h -14.24358 v 28.4422 h -25.5323 v -28.4422 z m 66.36599,0 v 71.08457 h 42.86252 v -14.19913 h -28.57501 v -14.68438 h 24.5184 V 225.9899 h -24.5184 v -13.89115 h 28.57501 v -14.06633 z m 53.358,0 0.0434,71.08457 h 14.2875 V 235.5149 l 22.62189,33.60209 h 17.4625 l -20.1967,-28.2665 c 7.6288,-2.68992 13.14132,-10.67172 13.14132,-19.79983 0,-12.78816 -10.89222,-23.01824 -24.16546,-23.01824 z m 61.20662,0 v 71.08457 h 42.86251 v -14.19913 h -28.57501 v -14.68438 h 24.51841 V 225.9899 h -24.51841 v -13.89115 h 28.57501 v -14.06633 z m -46.91911,14.15522 h 9.17205 c 4.80658,0 9.17205,3.87971 9.17205,8.95087 0,5.07118 -4.32137,8.99652 -9.17205,8.95243 l -9.17205,-0.0439 z m -272.65321,15.83004 8.64288,19.00608 h -17.33021 z m 117.69517,91.35363 c -4.87832,0.002 -8.83242,3.93922 -8.8346,8.79636 v 56.96502 l -11.09752,-11.04946 c -3.45214,-3.4393 -9.05148,-3.4393 -12.50363,0 -3.45431,3.43717 -3.45431,9.01221 0,12.44937 l 26.18394,26.07077 c 1.65914,1.64841 3.90795,2.57317 6.25181,2.5709 2.34387,0.002 4.59268,-0.92249 6.25182,-2.5709 l 26.18394,-26.07077 c 3.45431,-3.43716 3.45431,-9.0122 0,-12.44937 -3.45215,-3.4393 -9.05149,-3.4393 -12.50363,0 l -11.09752,11.04946 v -56.96502 c -0.002,-4.85715 -3.95627,-8.79414 -8.83461,-8.79636 z m -92.78041,95.14409 c -4.87833,0.002 -8.83243,3.93921 -8.8346,8.79636 v 13.03487 c 0,11.95517 9.91925,21.83175 21.92631,21.83175 h 159.37741 c 12.00713,0 21.92631,-9.87673 21.92631,-21.83175 v -13.03487 c -0.002,-4.85715 -3.95627,-8.79414 -8.8346,-8.79636 -4.87834,0.002 -8.83244,3.93921 -8.83461,8.79636 v 13.03487 c 0,2.44358 -1.80288,4.23902 -4.2571,4.23902 H 326.71143 c -2.45389,0 -4.2571,-1.7956 -4.2571,-4.23902 v -13.03487 c -0.002,-4.85715 -3.95627,-8.79414 -8.83461,-8.79636 z" style="font-style:normal;font-variant:normal;font-weight:400;font-stretch:normal;font-size:90.3111px;font-family:&quot;LEMON MILK&quot;;-inkscape-font-specification:&quot;LEMON MILK&quot;;text-align:center;text-anchor:middle;fill:#fff;fill-opacity:1;stroke:none;stroke-width:4.23333;stroke-linecap:round;stroke-linejoin:round"/></svg>