<?xml version="1.0" encoding="UTF-8" standalone="no"?>
<svg
   xml:space="preserve"
   width="3072"
   height="2048"
   viewBox="0 0 812.8 541.867"
   version="1.1"
   id="svg3"
   sodipodi:docname="Fascism.svg"
   inkscape:version="1.3 (0e150ed6c4, 2023-07-21)"
   xmlns:inkscape="http://www.inkscape.org/namespaces/inkscape"
   xmlns:sodipodi="http://sodipodi.sourceforge.net/DTD/sodipodi-0.dtd"
   xmlns="http://www.w3.org/2000/svg"
   xmlns:svg="http://www.w3.org/2000/svg"><defs
     id="defs3" /><sodipodi:namedview
     id="namedview3"
     pagecolor="#505050"
     bordercolor="#eeeeee"
     borderopacity="1"
     inkscape:showpageshadow="0"
     inkscape:pageopacity="0"
     inkscape:pagecheckerboard="0"
     inkscape:deskcolor="#505050"
     inkscape:zoom="0.27857618"
     inkscape:cx="1536.384"
     inkscape:cy="1024.8543"
     inkscape:window-width="1366"
     inkscape:window-height="705"
     inkscape:window-x="-8"
     inkscape:window-y="-8"
     inkscape:window-maximized="1"
     inkscape:current-layer="svg3" /><path
     d="M0 0h812.8v541.867H0Z"
     paint-order="stroke fill markers"
     id="path1" /><path
     id="path9"
     style="color:#000000;display:inline;fill:#c0a060;stroke-linecap:round;stroke-linejoin:round;-inkscape-stroke:none"
     d="M 371.76967 69.849505 L 371.76967 75.002163 L 382.99018 75.002163 L 382.99018 69.849505 L 371.76967 69.849505 z M 340.80876 79.236532 L 340.80876 138.62672 L 352.05097 138.62672 L 352.05097 79.236532 L 340.80876 79.236532 z M 356.28327 79.236532 L 356.28327 138.62672 L 367.52548 138.62672 L 367.52548 79.236532 L 356.28327 79.236532 z M 371.75985 79.236532 L 371.75985 138.62672 L 383 138.62672 L 383 79.236532 L 371.75985 79.236532 z M 387.23436 79.236532 L 387.23436 138.62672 L 398.47451 138.62672 L 398.47451 79.236532 L 387.23436 79.236532 z M 402.70888 79.236532 L 402.70888 138.62672 L 413.95109 138.62672 L 413.95109 79.236532 L 402.70888 79.236532 z M 340.80876 169.94937 L 340.80876 328.70614 L 352.05097 304.71173 L 352.05097 169.94937 L 340.80876 169.94937 z M 356.28327 169.94937 L 356.28327 295.67817 L 367.52548 271.68376 L 367.52548 169.94937 L 356.28327 169.94937 z M 371.75985 169.94937 L 371.75985 262.64658 L 383 238.65631 L 383 169.94937 L 371.75985 169.94937 z M 387.23436 169.94937 L 387.23436 229.61913 L 398.47451 205.62886 L 398.47451 169.94937 L 387.23436 169.94937 z M 402.70888 169.94937 L 402.70888 196.59116 L 413.95109 172.59675 L 413.95109 169.94937 L 402.70888 169.94937 z M 413.94902 213.15811 L 402.70888 237.14839 L 402.70888 369.15639 L 413.95109 369.15639 L 413.95109 256.52292 A 2.1168417 2.1168417 0 0 1 413.94902 256.51775 L 413.94902 213.15811 z M 398.47451 246.18608 L 387.23436 270.17636 L 387.23436 369.15639 L 398.47451 369.15639 L 398.47451 246.18608 z M 383 279.21405 L 371.75985 303.20433 L 371.75985 369.15639 L 383 369.15639 L 383 279.21405 z M 367.52548 312.24202 L 356.28327 336.23643 L 356.28327 369.15639 L 367.52548 369.15639 L 367.52548 312.24202 z M 352.05097 345.26999 L 340.8594 369.15639 L 352.05097 369.15639 L 352.05097 345.26999 z M 340.80876 399.87287 L 340.80876 462.62875 L 352.05097 462.62875 L 352.05097 399.87287 L 340.80876 399.87287 z M 356.28327 399.87287 L 356.28327 462.62875 L 367.52548 462.62875 L 367.52548 399.87287 L 356.28327 399.87287 z M 371.75985 399.87287 L 371.75985 462.62875 L 383 462.62875 L 383 399.87287 L 371.75985 399.87287 z M 387.23436 399.87287 L 387.23436 462.62875 L 398.47451 462.62875 L 398.47451 399.87287 L 387.23436 399.87287 z M 402.70888 399.87287 L 402.70888 462.62875 L 413.95109 462.62875 L 413.95109 399.87287 L 402.70888 399.87287 z M 371.76967 466.86312 L 371.76967 472.01578 L 382.99018 472.01578 L 382.99018 466.86312 L 371.76967 466.86312 z " /><path
     id="path6"
     style="color:#000000;display:inline;fill:#ffffff;stroke-linecap:round;stroke-linejoin:round;-inkscape-stroke:none"
     d="m 340.80876,142.85954 v 9.3121 h 73.14026 v -9.3121 z m 103.85726,11.40034 -15.43731,9.56996 c 5.79551,15.81064 6.65036,26.65904 3.90209,34.12506 -2.61607,7.1069 -8.51434,10.65275 -14.94741,12.26386 v 44.17768 l 51.6134,-0.0858 c 6.50441,-42.10563 -1.59137,-76.22814 -25.13077,-100.05077 z m -103.85726,2.14457 v 9.3121 h 73.14026 v -9.3121 z m 73.14026,26.17568 -73.14026,156.10524 v 20.59979 l 73.14026,-156.1037 z m -73.1599,190.81063 v 8.98808 h 71.51349 v -8.98808 z m 0,13.26173 v 8.98808 h 71.51349 v -8.98808 z" /></svg>
