<svg xmlns="http://www.w3.org/2000/svg" xml:space="preserve" width="3072" height="2048" viewBox="0 0 812.8 541.867"><path d="M 0,0 V 67.733354 H 406.40012 V 0 Z M 406.40012,67.733354 V 135.46671 H 812.80025 V 67.733354 Z m 0,67.733356 H 0 v 67.73335 h 406.40012 z m 0,67.73335 v 67.73336 h 406.40013 v -67.73336 z m 0,67.73336 H 0 v 67.73335 h 406.40012 z m 0,67.73335 v 67.73335 h 406.40013 v -67.73335 z m 0,67.73335 H 0 v 67.73336 h 406.40012 z m 0,67.73336 v 67.73335 h 406.40013 v -67.73335 z" style="display:inline;fill:#0080c0;fill-opacity:1;stroke-width:16.9333;paint-order:stroke fill markers"/><path d="M 406.40012,0 V 67.733354 H 812.80025 V 0 Z m 0,67.733354 H 0 v 67.733356 h 406.40012 z m 0,67.733356 v 67.73335 h 406.40013 v -67.73335 z m 0,67.73335 H 0 v 67.73336 h 406.40012 z m 0,67.73336 v 67.73335 h 406.40013 v -67.73335 z m 0,67.73335 H 0 v 67.73335 h 406.40012 z m 0,67.73335 v 67.73336 h 406.40013 v -67.73336 z m 0,67.73336 H 0 v 67.73335 h 406.40012 z" style="display:inline;fill:#a0e0ff;fill-opacity:1;stroke-width:16.9333;paint-order:stroke fill markers"/><path d="M 237.06674,67.733354 V 135.46671 H 372.53345 V 474.13348 H 440.2668 V 135.46671 H 575.73351 V 67.733354 Z" style="fill:#fff;fill-opacity:1;stroke-width:16.9333;paint-order:stroke fill markers"/></svg>