<?xml version="1.0" encoding="UTF-8" standalone="no"?>
<svg
   width="3072"
   height="2048"
   viewBox="0 0 812.8 541.867"
   version="1.1"
   id="svg2"
   sodipodi:docname="Fourth theory.svg"
   inkscape:version="1.3 (0e150ed6c4, 2023-07-21)"
   xmlns:inkscape="http://www.inkscape.org/namespaces/inkscape"
   xmlns:sodipodi="http://sodipodi.sourceforge.net/DTD/sodipodi-0.dtd"
   xmlns="http://www.w3.org/2000/svg"
   xmlns:svg="http://www.w3.org/2000/svg">
  <defs
     id="defs2" />
  <sodipodi:namedview
     id="namedview2"
     pagecolor="#505050"
     bordercolor="#eeeeee"
     borderopacity="1"
     inkscape:showpageshadow="0"
     inkscape:pageopacity="0"
     inkscape:pagecheckerboard="0"
     inkscape:deskcolor="#505050"
     showgrid="true"
     inkscape:zoom="0.16048177"
     inkscape:cx="1536"
     inkscape:cy="1025.0385"
     inkscape:window-width="1366"
     inkscape:window-height="705"
     inkscape:window-x="-8"
     inkscape:window-y="-8"
     inkscape:window-maximized="1"
     inkscape:current-layer="svg2">
    <inkscape:grid
       id="grid2"
       units="px"
       originx="0"
       originy="0"
       spacingx="0.26458333"
       spacingy="0.2645835"
       empcolor="#0099e5"
       empopacity="0.30196078"
       color="#0099e5"
       opacity="0.14901961"
       empspacing="128"
       dotted="false"
       gridanglex="30"
       gridanglez="30"
       visible="true" />
  </sodipodi:namedview>
  <path
     d="M0 0v541.867h812.8V0H0z"
     id="path1" />
  <path
     id="path3"
     style="color:#000000;fill:#ffe000;stroke-linecap:round;stroke-linejoin:round;stroke-width:1.00012531;stroke-dasharray:none;fill-opacity:1"
     d="M 203.19903 59.267202 A 8.4666691 8.4666691 0 0 0 202.73136 59.360219 A 8.4675157 8.4675157 0 0 0 202.42698 59.302858 A 8.4675157 8.4675157 0 0 0 200.1465 59.83771 A 8.4675157 8.4675157 0 0 0 200.08139 59.886802 A 8.4666691 8.4666691 0 0 0 197.21283 61.745604 A 8.4666691 8.4666691 0 0 0 196.89915 62.288724 A 8.4675157 8.4675157 0 0 0 195.92143 63.982678 A 8.4666691 8.4666691 0 0 0 195.02123 66.309668 A 8.4675157 8.4675157 0 0 0 195.02123 68.298695 A 8.4666691 8.4666691 0 0 0 195.47443 70.710434 A 8.4675157 8.4675157 0 0 0 195.62688 71.519688 L 229.49407 139.25408 A 8.4675157 8.4675157 0 0 0 243.05294 141.45291 L 253.99904 130.5068 L 385.95951 262.46726 L 283.50785 262.46726 L 283.50785 246.98603 A 8.4675157 8.4675157 0 0 0 272.36485 238.95396 L 200.52167 262.90135 A 8.4675157 8.4675157 0 0 0 199.2804 263.51785 A 8.46665 8.46665 0 0 0 198.82513 263.74316 A 8.4675157 8.4675157 0 0 0 196.10644 266.46289 A 8.46665 8.46665 0 0 0 195.8 266.95795 A 8.4675157 8.4675157 0 0 0 194.81504 270.63059 A 8.46665 8.46665 0 0 0 194.73443 270.93393 A 8.46665 8.46665 0 0 0 194.81556 271.76231 A 8.4675157 8.4675157 0 0 0 194.86775 272.28631 A 8.46665 8.46665 0 0 0 195.43516 274.27998 A 8.4675157 8.4675157 0 0 0 195.45686 274.3575 A 8.4675157 8.4675157 0 0 0 195.59846 274.58539 A 8.46665 8.46665 0 0 0 196.52915 276.08659 A 8.4675157 8.4675157 0 0 0 196.69141 276.34807 A 8.4675157 8.4675157 0 0 0 196.89864 276.53669 A 8.46665 8.46665 0 0 0 198.30424 277.81569 A 8.4675157 8.4675157 0 0 0 198.45616 277.94023 A 8.46665 8.46665 0 0 0 200.31652 278.8642 A 8.4675157 8.4675157 0 0 0 200.52167 278.966 L 272.36485 302.91339 A 8.4675157 8.4675157 0 0 0 283.50733 294.88132 L 283.50733 279.4006 L 386.14657 279.4006 L 254.11015 411.43703 L 243.16353 400.49041 A 8.4675157 8.4675157 0 0 0 229.60518 402.68976 L 195.73798 470.42414 A 8.4675157 8.4675157 0 0 0 195.69251 470.66599 A 8.4666691 8.4666691 0 0 0 194.84501 474.21151 L 194.84501 474.21203 A 8.4666691 8.4666691 0 0 0 194.93803 474.67918 A 8.4675157 8.4675157 0 0 0 194.88067 474.98407 A 8.4675157 8.4675157 0 0 0 195.41552 477.26456 A 8.4675157 8.4675157 0 0 0 195.46461 477.32915 A 8.4666691 8.4666691 0 0 0 197.32342 480.19771 A 8.4666691 8.4666691 0 0 0 197.86654 480.51139 A 8.4675157 8.4675157 0 0 0 199.56049 481.4891 A 8.4666691 8.4666691 0 0 0 201.88748 482.38931 A 8.4675157 8.4675157 0 0 0 203.87651 482.38931 A 8.4666691 8.4666691 0 0 0 206.28825 481.93611 A 8.4675157 8.4675157 0 0 0 207.0975 481.78366 L 274.83189 447.91647 A 8.4675157 8.4675157 0 0 0 277.03072 434.3576 L 266.08462 423.41149 L 397.93346 291.56265 L 397.93346 393.82621 L 382.45274 393.82621 A 8.4675157 8.4675157 0 0 0 374.42016 404.96869 L 398.36754 476.81187 A 8.4675157 8.4675157 0 0 0 398.98404 478.05314 A 8.46665 8.46665 0 0 0 399.20986 478.50841 A 8.4675157 8.4675157 0 0 0 401.92908 481.22711 A 8.46665 8.46665 0 0 0 402.42414 481.53406 A 8.4675157 8.4675157 0 0 0 406.0973 482.5185 A 8.46665 8.46665 0 0 0 406.40064 482.59963 A 8.46665 8.46665 0 0 0 407.2285 482.51798 A 8.4675157 8.4675157 0 0 0 407.7525 482.46631 A 8.46665 8.46665 0 0 0 409.74618 481.8989 A 8.4675157 8.4675157 0 0 0 409.82421 481.87668 A 8.4675157 8.4675157 0 0 0 410.0521 481.73508 A 8.46665 8.46665 0 0 0 411.5533 480.80439 A 8.4675157 8.4675157 0 0 0 411.81478 480.64213 A 8.4675157 8.4675157 0 0 0 412.0034 480.43491 A 8.46665 8.46665 0 0 0 413.28239 479.02931 A 8.4675157 8.4675157 0 0 0 413.40693 478.87738 A 8.46665 8.46665 0 0 0 414.33091 477.01702 A 8.4675157 8.4675157 0 0 0 414.43271 476.81187 L 438.38009 404.96869 A 8.4675157 8.4675157 0 0 0 430.34802 393.82621 L 414.86731 393.82621 L 414.86731 291.37507 L 546.82777 423.33553 L 535.88063 434.28267 A 8.4675157 8.4675157 0 0 0 538.07998 447.84102 L 605.81437 481.70821 A 8.4675157 8.4675157 0 0 0 606.62672 481.86118 A 8.4666691 8.4666691 0 0 0 609.02968 482.31283 A 8.4675157 8.4675157 0 0 0 610.37378 482.56553 A 8.4675157 8.4675157 0 0 0 611.45124 482.31283 A 8.4666691 8.4666691 0 0 0 612.02536 482.17795 A 8.4675157 8.4675157 0 0 0 612.65427 482.03067 A 8.4675157 8.4675157 0 0 0 615.3926 480.23337 A 8.4666691 8.4666691 0 0 0 615.58794 480.12071 A 8.4666691 8.4666691 0 0 0 615.7533 479.91349 A 8.4675157 8.4675157 0 0 0 616.2835 479.24893 A 8.4666691 8.4666691 0 0 0 616.91292 478.34253 A 8.4675157 8.4675157 0 0 0 617.28551 477.56945 A 8.4666691 8.4666691 0 0 0 617.68032 476.54832 A 8.4675157 8.4675157 0 0 0 617.87255 475.70703 A 8.4666691 8.4666691 0 0 0 618.01518 474.62544 A 8.4675157 8.4675157 0 0 0 618.01518 473.76038 A 8.4666691 8.4666691 0 0 0 617.89943 472.67827 A 8.4675157 8.4675157 0 0 0 617.70616 471.83233 A 8.4666691 8.4666691 0 0 0 617.33977 470.8112 A 8.4675157 8.4675157 0 0 0 617.17389 470.3487 L 583.30669 402.61431 A 8.4675157 8.4675157 0 0 0 574.43075 398.03733 A 8.4675157 8.4675157 0 0 0 569.74783 400.41548 L 558.80224 411.36106 L 426.84178 279.4006 L 529.29292 279.4006 L 529.29292 294.88132 A 8.4675157 8.4675157 0 0 0 540.4354 302.91339 L 612.27858 278.966 A 8.4675157 8.4675157 0 0 0 613.51881 278.35002 A 8.46665 8.46665 0 0 0 613.97615 278.12316 A 8.4675157 8.4675157 0 0 0 616.10884 276.34807 A 8.4675157 8.4675157 0 0 0 616.69381 275.4055 A 8.46665 8.46665 0 0 0 617.00077 274.90992 A 8.4675157 8.4675157 0 0 0 617.34339 274.3575 A 8.4675157 8.4675157 0 0 0 617.98469 271.23624 A 8.46665 8.46665 0 0 0 618.06582 270.93393 A 8.46665 8.46665 0 0 0 617.98572 270.63214 A 8.4675157 8.4675157 0 0 0 617.00129 266.95691 A 8.46665 8.46665 0 0 0 616.69536 266.46444 A 8.4675157 8.4675157 0 0 0 613.97563 263.74316 A 8.46665 8.46665 0 0 0 613.52295 263.51836 A 8.4675157 8.4675157 0 0 0 612.27909 262.90135 L 540.43591 238.95396 A 8.4675157 8.4675157 0 0 0 529.29344 246.98603 L 529.29344 262.46726 L 427.02885 262.46726 L 558.91334 130.58277 L 569.86048 141.52991 A 8.4675157 8.4675157 0 0 0 583.41883 139.33056 L 617.28603 71.596169 A 8.4675157 8.4675157 0 0 0 617.43899 70.783815 A 8.4666691 8.4666691 0 0 0 617.89064 68.38086 A 8.4675157 8.4675157 0 0 0 618.14334 67.036756 A 8.4675157 8.4675157 0 0 0 617.89064 65.959302 A 8.4666691 8.4666691 0 0 0 617.75576 65.385176 A 8.4675157 8.4675157 0 0 0 617.60849 64.756274 A 8.4675157 8.4675157 0 0 0 615.81118 62.017939 A 8.4666691 8.4666691 0 0 0 615.69853 61.822602 A 8.4666691 8.4666691 0 0 0 615.4913 61.657237 A 8.4675157 8.4675157 0 0 0 614.82674 61.127037 A 8.4666691 8.4666691 0 0 0 613.92034 60.497618 A 8.4675157 8.4675157 0 0 0 613.14726 60.125031 A 8.4666691 8.4666691 0 0 0 612.12613 59.730223 A 8.4675157 8.4675157 0 0 0 611.28484 59.537986 A 8.4666691 8.4666691 0 0 0 610.20325 59.395359 A 8.4675157 8.4675157 0 0 0 609.33819 59.395359 A 8.4666691 8.4666691 0 0 0 608.25608 59.511114 A 8.4675157 8.4675157 0 0 0 607.41014 59.704384 A 8.4666691 8.4666691 0 0 0 606.38901 60.07077 A 8.4675157 8.4675157 0 0 0 605.92651 60.236652 L 538.19212 94.103846 A 8.4675157 8.4675157 0 0 0 533.61514 102.97979 A 8.4675157 8.4675157 0 0 0 535.99329 107.66271 L 546.93888 118.6083 L 414.86731 250.67987 L 414.86731 148.04062 L 430.34802 148.04062 A 8.4675157 8.4675157 0 0 0 438.38009 136.89815 L 414.43271 65.054964 A 8.4675157 8.4675157 0 0 0 413.81673 63.814729 A 8.46665 8.46665 0 0 0 413.58987 63.357393 A 8.4675157 8.4675157 0 0 0 411.81478 61.224706 A 8.4675157 8.4675157 0 0 0 410.8722 60.639728 A 8.46665 8.46665 0 0 0 410.37663 60.33277 A 8.4675157 8.4675157 0 0 0 409.82421 59.990155 A 8.4675157 8.4675157 0 0 0 406.70295 59.34885 A 8.46665 8.46665 0 0 0 406.40064 59.267718 A 8.46665 8.46665 0 0 0 406.09885 59.348334 A 8.4675157 8.4675157 0 0 0 402.42362 60.33277 A 8.46665 8.46665 0 0 0 401.93063 60.638695 A 8.4675157 8.4675157 0 0 0 399.20986 63.358426 A 8.46665 8.46665 0 0 0 398.98507 63.811112 A 8.4675157 8.4675157 0 0 0 398.36754 65.054964 L 374.42016 136.89815 A 8.4675157 8.4675157 0 0 0 382.45274 148.04062 L 397.93346 148.04062 L 397.93346 250.49228 L 265.97351 118.53234 L 276.92013 107.58571 A 8.4675157 8.4675157 0 0 0 274.72078 94.027365 L 206.9864 60.160171 A 8.4675157 8.4675157 0 0 0 206.74455 60.114695 A 8.4666691 8.4666691 0 0 0 203.19903 59.267202 z " />
</svg>
