<svg xmlns="http://www.w3.org/2000/svg" xml:space="preserve" width="4608" height="3072" viewBox="0 0 1219.2 812.8"><path d="M 0 0 L 0 812.8 L 1219.2 812.8 L 1219.2 0 L 0 0 z" style="fill:#000;fill-rule:evenodd;stroke:none;stroke-width:8.46667;stroke-linecap:round;stroke-linejoin:round;fill-opacity:1"/><path d="M 0 0 L 0 812.8 L 1219.2 0 L 0 0 z" style="fill:#00d040;stroke-width:33.8667;stroke-linejoin:bevel;stroke-miterlimit:128;fill-opacity:1"/><path d="M 237.06666,33.866666 33.866666,237.06666 237.06666,440.26667 440.26667,237.06666 Z m 0,63.859669 53.70525,53.705255 -53.70559,53.70559 -53.70525,-53.70525 z m 85.63509,85.635095 53.70525,53.70523 -53.70559,53.7056 -53.70525,-53.70525 z m -171.27051,3.3e-4 53.7056,53.70525 -53.70525,53.7049 -53.705256,-53.70525 z m 85.63508,85.63474 53.70525,53.7056 -53.70491,53.7049 -53.70523,-53.70525 z" style="color:#000;fill:#fff;fill-opacity:1;stroke-width:1;stroke-miterlimit:128;-inkscape-stroke:none;paint-order:stroke fill markers"/></svg>