<svg xmlns="http://www.w3.org/2000/svg" xml:space="preserve" id="svg1" width="4608" height="3072" version="1.1" viewBox="0 0 1219.2 812.8"><defs id="defs1"><style id="style1">.cls-1{fill:#0283c0}.cls-2{fill:#fff}.cls-3{fill:#ef483f}</style></defs><path id="rect1" d="M 0 0 L 0 812.8 L 1219.2 812.8 L 1219.2 0 L 0 0 z" style="fill:#600000;fill-rule:evenodd;stroke:none;stroke-width:8.46667;stroke-linecap:round;stroke-linejoin:round;fill-opacity:1"/><path id="path13" d="M 777.23266 71.136743 L 765.25768 83.111206 L 633.54686 214.82048 L 729.33584 310.61153 L 752.69152 287.25585 C 780.44457 320.58383 795.86724 362.67289 795.86718 406.40052 C 795.86718 426.47256 792.62729 445.7509 786.78505 463.84766 L 681.44161 358.5037 L 705.9197 334.02716 L 368.53513 165.33616 L 391.25415 210.7737 L 537.22871 502.71867 L 561.70525 478.24213 L 667.04869 583.58608 C 648.96098 589.4256 629.69231 592.66077 609.63101 592.66408 C 565.96728 592.49982 523.99281 576.96499 490.78916 549.15821 L 514.26783 525.67954 L 418.47833 429.89056 L 274.79511 573.57429 L 370.5841 669.36328 L 394.92576 645.02161 C 453.61986 698.09828 530.011 727.84614 609.53902 728.13282 L 609.57003 728.13282 L 609.59948 728.13282 C 787.08698 728.13283 931.33386 583.88801 931.33385 406.40052 C 931.33398 326.74079 901.76578 250.12318 848.74406 191.20332 L 873.02165 166.92573 L 777.23266 71.136743 z" style="color:#000;fill:#ffd000;stroke-miterlimit:128;-inkscape-stroke:none;paint-order:stroke fill markers"/><path id="path2" d="M 406.4 203.2 L 541.86667 474.13333 L 561.70525 454.29475 L 684.40164 576.99114 C 727.17903 558.26087 761.46087 523.97914 780.19217 481.20267 L 657.49475 358.50525 L 677.33333 338.66667 L 406.4 203.2 z" style="fill:#fff;fill-opacity:1;stroke-width:1.00012;stroke-miterlimit:128"/><path id="path11" d="M 777.23163,95.084119 657.49475,214.821 l 71.84213,71.84212 23.94737,-23.94737 A 203.19998,203.2 0 0 1 812.8,406.4 203.19998,203.2 0 0 1 609.6,609.6 203.19998,203.2 0 0 1 466.28213,549.71838 l 24.03885,-24.03884 -71.84213,-71.84213 -119.73688,119.73688 71.84213,71.84161 24.03884,-24.03884 A 304.79999,304.79999 0 0 0 609.6,711.2 304.79999,304.79999 0 0 0 914.4,406.4 304.79999,304.79999 0 0 0 825.12638,190.87362 l 23.94737,-23.94737 z" style="color:#000;fill:#d00000;stroke-miterlimit:128;-inkscape-stroke:none;paint-order:stroke fill markers"/></svg>