<?xml version="1.0" encoding="UTF-8" standalone="no"?>
<svg
   xml:space="preserve"
   width="3072"
   height="2048"
   viewBox="0 0 812.8 541.867"
   version="1.1"
   id="svg2"
   sodipodi:docname="Guild socialism.svg"
   inkscape:version="1.3 (0e150ed6c4, 2023-07-21)"
   xmlns:inkscape="http://www.inkscape.org/namespaces/inkscape"
   xmlns:sodipodi="http://sodipodi.sourceforge.net/DTD/sodipodi-0.dtd"
   xmlns="http://www.w3.org/2000/svg"
   xmlns:svg="http://www.w3.org/2000/svg"><defs
     id="defs2" /><sodipodi:namedview
     id="namedview2"
     pagecolor="#505050"
     bordercolor="#eeeeee"
     borderopacity="1"
     inkscape:showpageshadow="0"
     inkscape:pageopacity="0"
     inkscape:pagecheckerboard="0"
     inkscape:deskcolor="#505050"
     inkscape:zoom="0.1866066"
     inkscape:cx="1792.5411"
     inkscape:cy="876.1748"
     inkscape:window-width="1366"
     inkscape:window-height="705"
     inkscape:window-x="-8"
     inkscape:window-y="-8"
     inkscape:window-maximized="1"
     inkscape:current-layer="svg2" /><path
     fill="#e00000"
     d="M0 0h812.8v541.867H0Z"
     paint-order="stroke fill markers"
     id="path1"
     style="fill:#600000;fill-opacity:1" /><path
     id="path4"
     style="color:#000000;display:inline;fill:#ffc000;fill-opacity:1;stroke-width:4.13423;stroke-linecap:square;-inkscape-stroke:none;paint-order:stroke markers fill"
     d="m 525.67009,69.144079 -77.83272,77.831051 38.04798,38.04801 14.44535,-14.44535 c 41.09887,45.59592 46.51454,111.8241 15.72683,162.53963 l -95.37414,-95.37411 23.50497,-23.50497 -147.5165,-51.63077 51.62913,147.5165 23.50494,-23.49667 94.62083,94.61916 c -50.22349,28.43253 -114.43735,22.35931 -158.97508,-17.78808 l 11.62745,-11.62912 -38.04798,-38.04635 -77.83109,77.8228 4.3841,4.38412 33.67051,33.67215 13.78476,-13.78309 c 82.62986,77.28452 212.33851,75.82847 292.94025,-4.77317 80.60414,-80.6042 82.06461,-210.31907 4.7732,-292.94855 l 10.96523,-10.96522 z" /><path
     id="path5"
     style="color:#000000;display:inline;fill:#ffffff;stroke-width:4.13423;stroke-linecap:square;-inkscape-stroke:none;paint-order:stroke markers fill"
     d="m 306.77764,172.71729 44.11515,126.04765 20.91139,-20.91139 100.01098,100.01098 c 8.46597,-5.34092 16.4935,-11.66692 23.87762,-19.05104 6.38165,-6.38166 11.9921,-13.23596 16.84756,-20.44321 l -100.62593,-100.62644 20.91087,-20.9114 z"
     sodipodi:nodetypes="ccccscccc" /><path
     style="color:#000000;display:inline;fill:#ff0000;stroke-linecap:square;-inkscape-stroke:none;paint-order:stroke markers fill"
     d="m 211.97149,391.60834 29.27998,29.28001 13.54476,-13.54473 c 79.97651,79.29448 209.08572,79.09161 288.80128,-0.62391 79.71552,-79.71559 79.91839,-208.82487 0.62388,-288.80128 l 10.7274,-10.72741 -29.27998,-29.279956 -69.06075,69.060766 29.27995,29.27998 14.91798,-14.91799 c 55.31694,55.99792 55.11363,146.23285 -0.62394,201.97043 -55.73758,55.73757 -145.97094,55.93938 -201.96886,0.62237 l 12.09753,-12.09749 -29.27998,-29.28001 z"
     id="path8" /></svg>
