<svg xmlns="http://www.w3.org/2000/svg" xml:space="preserve" width="3072" height="2048" viewBox="0 0 812.8 541.867"><path d="M0 0v541.867h812.8V0H0z" style="stroke:none;fill:red;fill-opacity:1"/><path d="m 379.14633,470.63808 c -0.79452,-1.90083 -1.44403,-4.14308 -1.44403,-4.98282 0,-2.08681 -1.91132,-1.93179 -2.67748,0.21666 -1.19343,3.3478 -2.45718,4.35346 -3.93252,3.1291 -1.00522,-0.83455 -1.3626,-4.08733 -1.3626,-12.41667 0,-10.12435 -0.2563,-11.76821 -2.49145,-15.97162 -1.37033,-2.57713 -2.49827,-5.40387 -2.50665,-6.28133 -0.0101,-1.22453 -0.20708,-1.2937 -0.83923,-0.29686 -0.45308,0.71444 -1.23086,1.18563 -1.72876,1.04759 -0.49785,-0.13767 -2.89283,1.60479 -5.32204,3.87199 -3.34639,3.12345 -6.00302,4.53887 -10.9623,5.84104 -3.60001,0.94521 -7.44252,2.20063 -8.53867,2.78976 -1.09588,0.58969 -6.14543,1.5296 -11.22036,2.08978 -8.45373,0.93336 -9.27386,0.87097 -9.78402,-0.73571 -0.82276,-2.59375 2.77974,-6.9976 9.85652,-12.04738 3.44834,-2.46066 6.8831,-5.21308 7.63288,-6.1165 0.7498,-0.90397 2.92253,-2.29404 4.82829,-3.09032 1.90591,-0.79569 3.97199,-2.14087 4.59125,-2.98772 0.61913,-0.8463 4.47712,-3.19975 8.57305,-5.22849 l 7.44705,-3.68842 0.30613,-4.77499 0.30612,-4.77505 -4.02307,2.53974 c -3.05163,1.92644 -5.34665,2.5396 -9.50499,2.5396 -5.05342,0 -5.53212,-0.20027 -6.12358,-2.55637 -0.48966,-1.9494 -0.0101,-3.20838 1.9907,-5.30379 l 2.63242,-2.74758 -2.50798,-1.34222 c -1.773,-0.94871 -2.50808,-2.16917 -2.50808,-4.1637 0,-1.81256 -0.52142,-2.82131 -1.45892,-2.82131 -0.80279,0 -2.52613,-1.57044 -3.83027,-3.48973 -2.2156,-3.26057 -2.46902,-3.37507 -3.85795,-1.74403 -0.81806,0.96046 -2.46437,3.37964 -3.65969,5.37678 -2.51516,4.20236 -7.99246,7.18571 -13.35004,7.27149 -2.05376,0.034 -3.73556,0.47458 -3.73716,0.98049 -0.002,0.50616 -1.15469,-0.16021 -2.56118,-1.482 -2.15023,-2.01996 -2.45382,-2.96136 -1.904,-5.90399 0.36031,-1.92559 1.08288,-4.02001 1.60689,-4.65434 0.67211,-0.81454 -0.0942,-1.49901 -2.60598,-2.32801 -4.68728,-1.54689 -9.48756,-5.66491 -9.48756,-8.13895 0,-2.4059 1.33834,-3.72103 6.42911,-6.31795 l 3.90735,-1.99312 -3.41359,-0.49793 c -4.64728,-0.67797 -6.97443,-5.08499 -4.7408,-8.97683 1.37561,-2.39682 1.31171,-2.85031 -0.84515,-5.99826 -1.55253,-2.26569 -2.33342,-4.83206 -2.33342,-7.66888 v -4.26355 h -6.11091 c -6.57317,0 -12.82401,-2.75785 -12.82401,-5.65786 0,-2.41671 3.17275,-7.11305 5.15587,-7.63154 2.7379,-0.71568 2.25559,-2.09904 -2.66438,-7.63863 -3.44984,-3.8844 -4.48457,-5.83302 -4.48457,-8.44537 0,-4.01073 0.68615,-4.56371 5.92115,-4.77238 l 3.94894,-0.15779 -0.56501,-4.12551 c -0.64977,-4.73779 0.88629,-8.41029 3.51702,-8.41029 0.98405,0 3.89182,1.06406 6.46171,2.36553 5.16066,2.61271 6.69663,1.92542 3.94031,-1.76291 -3.00597,-4.02244 -4.37102,-4.42849 -9.77932,-2.90966 -8.10807,2.27725 -14.27289,2.72219 -17.24745,1.24496 -5.65068,-2.80618 -9.15241,-6.0077 -9.15241,-8.36757 0,-2.24025 4.95868,-7.51205 7.06587,-7.51205 0.51319,0 0.22106,-1.68182 -0.64976,-3.7372 -1.59384,-3.76198 -2.11903,-12.28503 -0.88042,-14.28896 0.42479,-0.68862 2.70014,-0.86042 6.28562,-0.47652 5.23317,0.56026 5.74552,0.42477 7.46097,-1.97642 1.01345,-1.41807 1.68577,-2.66263 1.49487,-2.7655 -0.1904,-0.10606 -3.48632,-1.23188 -7.32315,-2.50898 -7.2767,-2.42203 -13.45377,-7.13249 -13.45377,-10.2597 0,-0.95579 -0.44818,-2.01604 -0.99698,-2.35481 -1.8421,-1.13825 -1.01813,-4.42456 1.52762,-6.09259 1.90741,-1.2498 3.85376,-1.51663 7.96651,-1.09228 l 5.44237,0.56147 -3.35023,-3.16616 c -2.78729,-2.63418 -3.55589,-4.33863 -4.57334,-10.14224 -0.67329,-3.83685 -1.06875,-8.76993 -0.87929,-10.96242 0.29541,-3.41991 0.70386,-4.0282 2.88039,-4.2819 1.6851,-0.19678 4.08994,0.89104 7.16533,3.23891 2.54594,1.94395 5.08207,3.5345 5.63586,3.5345 0.55319,0 1.41847,0.73562 1.92167,1.63477 0.99693,1.78234 3.1705,1.04289 3.1705,-1.07936 0,-0.72621 1.8415,-2.98379 4.0924,-5.01728 2.96159,-2.67572 4.39346,-3.39617 5.18212,-2.60742 0.59911,0.59912 1.44858,1.08996 1.88708,1.08996 1.53014,0 0.77918,-2.10179 -1.60132,-4.48237 -1.86846,-1.86846 -3.13484,-2.2909 -5.73027,-1.91167 -3.95935,0.57794 -4.96529,-0.0709 -6.42292,-4.15734 -0.87577,-2.4545 -0.77451,-3.76506 0.50143,-6.47772 2.24806,-4.77883 5.72658,-5.03461 9.60861,-0.70619 2.8931,3.22547 2.95265,3.24266 3.27788,0.94514 0.50381,-3.55436 -3.19212,-6.81031 -8.63146,-7.60517 -7.7002,-1.12526 -19.1056,-9.72381 -19.1056,-14.40368 0,-3.1905 2.62836,-4.23594 10.21492,-4.06304 l 4.73367,0.10598 v -5.00381 c 0,-6.57312 4.03929,-16.02289 6.84906,-16.02289 1.0864,0 3.08801,1.42118 4.44738,3.15826 l 2.47169,3.15815 3.67041,-3.89179 c 3.57628,-3.79189 3.70905,-3.84094 5.17319,-1.91249 0.82629,1.08878 1.95071,3.21254 2.49844,4.71989 1.17763,3.24103 3.38777,3.58635 4.31226,0.67447 0.42379,-1.33598 -0.29882,-3.8909 -2.0448,-7.22513 -7.758,-14.818 -7.71646,-14.69934 -7.18301,-20.53132 0.70626,-7.71863 3.46102,-12.97326 6.81858,-13.00504 3.40451,-0.0342 10.85672,9.55619 10.85672,13.96859 0,3.00281 0.60498,3.41888 3.40651,2.34378 2.25842,-0.86631 1.94898,-2.68394 -0.91456,-5.37456 -3.44632,-3.23763 -3.38606,-8.12074 0.13424,-10.89001 3.08296,-2.42496 6.59399,-2.67025 8.32743,-0.58145 0.67682,0.81566 1.65062,1.22481 2.16297,0.90867 1.0747,-0.66504 0.0489,-9.392435 -1.27381,-10.813128 -2.459,-2.645107 0.64857,-16.092015 4.74458,-20.5341 1.29136,-1.40038 2.34788,-3.056257 2.34788,-3.67999 0,-1.521804 3.82629,-0.705022 6.02644,1.285498 1.63435,1.479083 2.07973,1.392321 5.92928,-1.154696 6.10163,-4.037922 7.40064,-2.810573 7.76517,7.336687 0.19865,5.551618 -0.10606,8.422541 -1.00872,9.36231 -2.16588,2.265499 -3.89842,6.836728 -2.59106,6.836728 1.50062,0 7.79612,-4.836687 7.79612,-5.989576 0,-0.49791 1.23332,-2.98058 2.74066,-5.516858 2.10376,-3.540252 4.12983,-5.318923 8.71998,-7.655608 8.10119,-4.123948 10.80242,-4.776827 14.98465,-3.62213 4.7361,1.307712 5.20658,3.103859 2.05912,7.860132 l -2.62178,3.961606 h 4.54402 c 3.51505,0 5.10679,0.562654 7.02881,2.484768 1.99792,1.997844 2.28231,2.863061 1.45164,4.415284 -1.21897,2.277706 -6.27676,6.055488 -8.1072,6.055488 -0.70505,0 0.14934,1.398573 1.89787,3.108005 3.28894,3.21548 4.05913,6.57552 1.98301,8.65159 -1.90803,1.908 -20.08469,1.57643 -24.01701,-0.43796 -1.75416,-0.89925 -3.41369,-1.94145 -3.68774,-2.3174 -0.27439,-0.37546 -1.94296,-1.52356 -3.70879,-2.55043 -3.07,-1.78537 -3.36849,-1.79171 -6.82324,-0.14353 l -3.61287,1.72286 2.58787,2.03559 c 1.88067,1.47932 2.58791,2.96266 2.58791,5.42834 0,4.54025 -3.46058,6.9265 -8.80572,6.07172 -3.39534,-0.54262 -4.14347,-0.24364 -7.15964,2.86884 -2.21029,2.28043 -3.96388,3.28588 -5.10127,2.92486 -1.13702,-0.36129 -2.14296,0.21543 -2.9252,1.67741 -0.65563,1.2251 -2.02843,3.12499 -3.05045,4.22213 -1.89699,2.03608 -2.54082,5.60514 -1.01113,5.60514 0.46627,0 3.04443,-2.21697 5.73027,-4.92648 5.69189,-5.74237 15.1581,-11.01877 19.76844,-11.01877 1.7722,0 5.87489,0.84516 9.11712,1.87764 3.2422,1.03229 8.7194,2.14933 12.17159,2.48125 8.46207,0.81336 13.2951,4.4788 11.62942,8.81959 -0.57673,1.50144 -4.62982,3.91112 -7.44206,4.42397 -0.82274,0.14942 -3.51294,0.7156 -5.97943,1.25742 -2.46656,0.54146 -6.25205,1.004 -8.41232,1.02876 -3.5533,0.0341 -3.75153,0.17201 -2.08031,1.3941 2.78644,2.03747 1.24471,4.38785 -4.67811,7.13193 -3.887,1.80087 -6.26924,2.28886 -9.23494,1.89183 -3.18441,-0.42625 -3.64229,-0.30955 -2.25275,0.57442 2.24911,1.43061 2.19684,2.18158 -0.35447,5.0931 -1.15468,1.31713 -2.46615,3.34496 -2.91536,4.50639 -0.59555,1.54066 -2.58806,2.59092 -7.36895,3.88498 -3.60366,0.97577 -6.55216,1.95356 -6.55216,2.17343 0,0.22008 0.7286,1.80973 1.62022,3.53292 1.58514,3.06544 1.56161,3.18336 -1.09118,5.46507 -2.19846,1.89106 -2.48378,2.60564 -1.50945,3.77978 1.15001,1.38597 0.95346,5.63092 -0.46235,9.94609 -0.60388,1.83943 -0.27441,1.96716 4.26587,1.65555 4.27998,-0.2944 5.34287,0.0341 8.17475,2.57086 l 3.25518,2.90846 -3.62736,4.01506 -3.62732,4.01517 3.1152,0.8934 c 3.5007,1.00402 4.97898,3.78578 3.75635,7.06906 -0.99701,2.67625 -8.51658,7.6147 -10.10268,6.63446 -0.6274,-0.38717 -3.62595,-0.88867 -6.66307,-1.11348 -3.03707,-0.22499 -7.22111,-0.99461 -9.29805,-1.7097 -3.67278,-1.26558 -3.8333,-1.2206 -5.87245,1.64308 l -2.09647,2.94417 3.35436,-0.58145 c 2.42546,-0.42037 4.01216,-0.0709 5.72969,1.28354 2.12378,1.6672 2.27938,2.2762 1.46883,5.74639 -0.59437,2.54306 -1.68749,4.2253 -3.17082,4.87821 -1.61091,0.7086 -2.11059,1.57162 -1.73155,2.98972 0.29292,1.09582 0.53907,2.86305 0.54614,3.92633 0.0101,1.64879 0.47309,1.46355 3.13538,-1.25993 1.71702,-1.75617 4.07147,-3.38192 5.23204,-3.61265 10.60225,-2.10799 15.71171,-0.65326 15.30129,4.35536 -0.28707,3.50843 -5.83211,9.84113 -9.83952,11.23804 -2.33259,0.81337 -2.68752,1.29336 -1.77193,2.39661 2.64653,3.18901 -4.8046,12.24071 -11.2962,13.72261 -1.50734,0.34372 -3.97385,0.90983 -5.4812,1.25765 -3.889,0.89695 -5.23203,2.22408 -5.23203,5.17047 0,1.99793 0.26609,2.30305 1.1959,1.37294 0.65798,-0.65798 2.44005,-1.19593 3.96067,-1.19593 3.66017,0 6.55717,5.03244 4.9401,8.58147 -0.97932,2.14922 -2.37647,2.81294 -7.56561,3.59379 -2.43311,0.36616 -3.46184,4.75634 -2.53732,10.8282 0.6427,4.22317 0.71333,4.29888 1.73314,1.8601 0.58383,-1.39807 3.68627,-4.53626 6.89306,-6.97347 3.20678,-2.43723 6.05598,-4.72811 6.33166,-5.09087 1.06167,-1.39667 5.08001,3.18866 5.46576,6.23662 0.52261,4.13055 -1.67262,9.34525 -4.63689,11.01453 -2.26477,1.27534 -2.22077,1.32445 1.65962,1.84967 3.57908,0.48484 4.27366,0.2061 6.79939,-2.72479 3.37886,-3.92079 5.21542,-4.09557 7.84934,-0.74741 5.08119,6.45964 6.67425,11.04289 6.33089,18.21399 -0.18114,3.79129 -0.80508,7.7815 -1.38652,8.8672 -1.10881,2.0707 -1.19544,6.41993 -0.11774,5.75247 0.3447,-0.21299 1.62327,0.30953 2.84071,1.1629 1.7956,1.25768 2.09077,2.14342 1.56408,4.69209 -0.35642,1.72803 -1.33433,3.67937 -2.17156,4.33638 -2.37788,1.86612 -0.76276,7.79941 3.29021,12.09048 l 3.45418,3.6568 -2.01915,-5.48124 c -2.60007,-7.0581 -2.55429,-12.13284 0.16364,-18.14678 2.70157,-5.97756 6.12094,-7.38364 8.94629,-3.67891 1.00408,1.31587 2.1989,2.85463 2.65639,3.41938 1.11707,1.37835 0.65094,12.64841 -0.62149,15.02466 -1.13467,2.12126 -1.57996,5.97531 -1.35663,11.75782 0.14249,3.70421 0.23776,3.81225 1.97271,2.24231 1.00284,-0.90751 3.43869,-1.6493 5.41402,-1.6493 2.84055,0 3.74652,0.46873 4.33283,2.24233 l 0.74155,2.24225 0.60268,-2.43273 c 0.43551,-1.75972 2.48086,-3.38356 7.39224,-5.87008 6.74882,-3.41664 6.81104,-3.42725 10.33282,-1.74784 1.94862,0.9287 4.40101,2.78037 5.44968,4.11346 l 1.90665,2.42395 3.5785,-3.47537 c 4.98804,-4.84431 7.04257,-4.8992 13.75759,-0.36717 4.58883,3.09694 6.137,6.14518 4.97729,9.79909 -0.61914,1.95133 -0.39547,2.04609 3.39801,1.43944 2.83389,-0.45308 4.06098,-0.29199 4.06098,0.53321 0,0.65094 0.44821,0.90516 0.99694,0.56734 0.54855,-0.33884 0.99699,-1.6794 0.99699,-2.97926 0,-1.65495 -0.64266,-2.45875 -2.14225,-2.68167 -3.22926,-0.48044 -5.7732,-4.69153 -5.1437,-8.51565 0.44234,-2.69193 1.06403,-3.3146 3.8208,-3.83178 5.32303,-0.99816 7.26949,0.17872 8.86527,5.36549 1.04283,3.39003 1.45616,3.97362 1.50647,2.12903 0.034,-1.39774 0.56266,-3.03491 1.16648,-3.63812 1.04521,-1.04526 0.11774,-5.71123 -2.05229,-10.26405 -0.39059,-0.8228 -0.81104,-4.40987 -0.93341,-7.97268 -0.17872,-5.19122 0.29682,-7.6119 2.39233,-12.18889 1.43824,-3.14123 3.06285,-5.98808 3.61015,-6.32624 1.5808,-0.97691 4.80545,2.58198 7.03505,7.76468 1.12878,2.62403 2.34538,4.77098 2.70345,4.77098 0.35792,0 0.47411,1.85293 0.25879,4.1176 -0.27294,2.85931 -0.0489,3.90722 0.72152,3.42922 1.53723,-0.94988 1.40057,-7.67205 -0.20511,-10.06557 -3.74035,-5.57682 -0.76742,-19.70643 5.08509,-24.17053 l 3.27444,-2.49757 2.4589,2.30996 c 1.35233,1.27052 2.45886,2.84966 2.45886,3.50918 0,2.45096 2.60222,3.57012 5.36964,2.30923 3.19111,-1.45399 3.36271,-3.4803 0.37544,-4.42856 -4.30199,-1.36549 -9.73106,-6.57903 -9.73106,-9.34497 0,-3.1417 4.24859,-6.02747 8.8738,-6.02747 3.72933,0 3.85055,-0.93108 0.62149,-4.76794 -4.43632,-5.27224 -5.974,-12.39641 -2.92779,-13.56532 0.87102,-0.33444 1.99278,-0.35543 2.49135,-0.0489 0.4991,0.30856 1.39492,0.25877 1.99185,-0.10607 0.61439,-0.38034 -1.13351,-1.93752 -4.02768,-3.59062 -8.7646,-5.00568 -8.83403,-10.10268 -0.1751,-12.89158 5.28042,-1.70084 5.44223,-1.90352 3.39063,-4.2472 -1.02873,-1.17585 -2.69829,-3.93099 -3.70959,-6.1235 -1.01108,-2.1924 -2.22359,-4.76872 -2.69394,-5.7251 -0.60969,-1.23954 -0.25438,-2.3394 1.23659,-3.83048 1.67298,-1.67292 2.80001,-1.95884 5.62953,-1.42798 1.94581,0.36471 4.17818,1.3039 4.9607,2.08641 0.78277,0.78274 1.88209,1.42282 2.44358,1.42282 0.56141,0 2.29985,0.91107 3.86346,2.02434 l 2.84269,2.02419 1.1759,-2.27342 c 1.55602,-3.00758 5.97496,-6.67717 8.09472,-6.72203 1.93555,-0.0489 6.77761,5.83234 6.77761,8.22115 0,0.87576 -0.41209,1.84527 -0.91457,2.15604 -0.54849,0.33883 -0.5132,2.01747 0.0942,4.20185 1.14878,4.15925 0.83101,6.35963 -2.1618,14.98958 -1.41329,4.07506 -1.84209,6.72617 -1.25723,7.77137 0.73098,1.30583 1.16998,1.00522 2.48169,-1.70046 0.87696,-1.80772 2.11333,-5.24334 2.748,-7.63475 0.75681,-2.85021 1.81512,-4.52096 3.07331,-4.84997 2.35434,-0.61559 2.35668,-0.45796 -0.0708,-4.992 -1.09582,-2.04535 -1.99312,-5.46637 -1.99312,-7.60225 0,-4.71931 -2.77146,-9.46412 -6.97273,-11.93726 -2.86673,-1.68751 -3.26895,-1.70802 -4.88103,-0.24948 -5.58267,5.05223 -12.76093,-2.48383 -9.02141,-9.4711 1.00985,-1.88741 0.79919,-1.9352 -5.62106,-1.27735 -5.88788,0.60265 -7.17604,0.40719 -10.98108,-1.67154 -7.37461,-4.02846 -8.05143,-10.13797 -1.42717,-12.88181 3.59376,-1.48861 3.64263,-1.7244 0.95103,-4.58901 -2.1598,-2.29888 -4.09566,-8.71382 -3.27504,-10.85233 0.62384,-1.62502 7.31341,-3.792 10.35949,-3.3558 2.22971,0.31884 2.39,0.0488 2.18384,-3.64154 -0.27782,-4.96554 1.78721,-7.96477 4.91874,-7.14594 1.22978,0.32125 2.80022,0.11778 3.48988,-0.45553 1.75888,-1.4597 3.33435,-0.19776 3.33435,2.67026 0,2.27394 3.50056,7.42298 5.04653,7.42298 0.38474,0 0.92987,-1.20225 1.21143,-2.6718 0.38815,-2.02925 -0.18356,-3.36591 -2.37531,-5.55782 -1.58727,-1.58727 -2.88603,-3.20987 -2.88603,-3.60568 0,-1.31114 -6.54291,-3.11226 -11.53122,-3.1744 -6.50611,-0.0825 -13.51632,-3.45361 -17.36245,-8.35312 -4.16311,-5.30318 -3.6737,-7.64379 1.98619,-9.49975 2.46649,-0.80867 4.62779,-1.55007 4.80284,-1.64708 1.05465,-0.58496 -2.64213,-4.36216 -4.29508,-4.38839 -4.96623,-0.0825 -8.48194,-7.79684 -5.09454,-11.18427 2.27904,-2.27902 1.97793,-3.04778 -0.90983,-2.32292 -2.40852,0.6038 -4.76756,2.19026 -8.51156,5.72166 -1.00876,0.95105 -3.37273,1.64622 -5.58051,1.64095 -2.10707,-0.005 -6.11352,0.31199 -8.90318,0.70385 -4.67962,0.658 -5.22843,0.51437 -7.09455,-1.85855 -1.83049,-2.32692 -2.49169,-2.51588 -6.95797,-1.98691 -7.06668,0.8369 -11.5077,-1.53284 -11.08066,-5.91282 0.2051,-2.09797 1.06759,-3.53654 2.56794,-4.28008 3.5672,-1.76785 3.60064,-2.16604 0.3237,-3.8604 -6.3848,-3.3018 -2.33832,-8.10513 8.93471,-10.60601 3.60059,-0.7992 5.9606,-1.86411 6.1355,-2.76936 0.41209,-2.1347 10.02287,-2.54575 13.80407,-0.59087 2.87133,1.48474 2.92356,1.46541 2.92356,-1.07702 0,-3.16723 2.07278,-5.39694 5.16082,-5.55123 1.72581,-0.0826 1.86456,-0.23191 0.54614,-0.57559 -0.97228,-0.25291 -3.72753,0.48849 -6.12304,1.64827 -3.46337,1.67657 -5.75547,2.03499 -11.18815,1.74942 -3.75693,-0.19676 -7.95266,-0.9887 -9.3229,-1.75993 -1.37032,-0.77098 -3.82722,-1.85962 -5.45974,-2.41934 -5.42839,-1.86104 -5.74805,-9.488471 -0.39793,-9.488471 2.40885,0 2.36282,-0.378876 -0.57085,-4.69573 -1.76217,-2.593208 -2.18899,-4.06614 -1.53313,-5.29168 1.47142,-2.749251 6.51728,-4.295223 11.9277,-3.654452 l 4.8961,0.580327 -0.58267,-5.17885 c -0.32029,-2.848214 -0.96165,-5.663965 -1.4247,-6.257082 -0.48481,-0.620314 -0.27781,-1.851518 0.48967,-2.90002 1.28216,-1.753477 1.50311,-1.739024 5.89294,0.386201 2.8036,1.357122 6.69967,4.713161 10.11162,8.710115 5.07335,5.942949 5.55073,6.916262 5.55073,11.316652 0,4.152805 0.42135,5.169279 3.06615,7.394643 5.0864,4.279887 5.59736,3.683597 6.54383,-7.634856 0.77449,-9.26896 1.04638,-10.242371 2.93168,-10.511688 1.40107,-0.200179 3.58107,1.249758 6.69452,4.452928 l 4.61686,4.749729 2.96256,-2.838352 c 3.14415,-3.012317 5.67756,-2.959929 6.69894,0.138652 0.3203,0.971069 1.20476,3.174904 1.96549,4.896204 1.07112,2.424617 1.15703,4.323444 0.3779,8.428887 -0.91694,4.834103 -4.52818,11.837553 -6.11262,11.854153 -1.06168,0.01 -2.79098,5.89764 -1.89527,6.45131 0.45309,0.28025 1.0511,-0.36277 1.33017,-1.42738 0.62858,-2.40567 5.0801,-3.62618 8.14005,-2.23195 2.52764,1.15118 3.68043,5.57018 2.37446,9.10052 -0.63675,1.72101 -0.31295,2.31173 1.68299,3.07059 2.93558,1.11584 3.35215,5.3641 0.97698,9.95779 -2.56425,4.95869 -3.79086,12.52114 -2.44019,15.04486 1.04639,1.95405 1.2936,2.02349 2.0972,0.58736 0.50143,-0.89572 1.18233,-4.66711 1.51345,-8.38108 0.96047,-10.77781 5.21486,-17.32488 14.18236,-21.82839 1.99496,-1.00166 5.07685,3.18278 5.07685,6.89366 0,4.88995 -2.97947,13.16315 -6.73866,18.71119 -6.02295,8.8891 -6.20956,9.35334 -6.08243,15.13271 0.0826,3.80319 0.53789,5.73028 1.35244,5.73028 0.94402,0 0.9864,-1.04999 0.18254,-4.56113 -0.89106,-3.89474 -0.76156,-5.09595 0.8863,-8.22172 3.40544,-6.46122 5.68023,-8.37488 8.6242,-7.25564 1.41434,0.53795 3.27795,1.98617 4.14121,3.21879 l 1.56969,2.241 2.29979,-2.67635 c 3.723,-4.33287 8.32919,-2.94807 10.15821,3.05385 0.77924,2.5583 1.71901,2.76136 4.60951,0.99694 2.95815,-1.80615 5.07342,1.18263 3.85179,5.44237 -0.48238,1.68472 -0.66387,3.41027 -0.40135,3.83449 0.2627,0.42381 -0.034,3.16332 -0.65091,6.08668 -0.86512,4.07958 -2.03559,6.18426 -5.03213,9.05249 -2.14745,2.05541 -3.43705,3.73716 -2.86581,3.73716 2.27444,0 5.02487,4.06989 5.02487,7.43546 0,4.20254 -3.15688,7.51317 -7.16403,7.51317 h -2.80191 l 2.0581,2.05807 c 1.61255,1.61255 1.90717,2.74512 1.36086,5.2319 -0.38374,1.74566 -1.49235,3.73102 -2.4645,4.41196 -1.636,1.14646 -1.51489,1.49038 1.62884,4.63407 1.86784,1.86787 3.39612,4.08039 3.39612,4.91666 0,1.26632 1.03111,1.11589 6.16836,-0.8969 3.39266,-1.3296 6.47748,-2.41744 6.85519,-2.41744 0.81219,0 2.72078,4.63679 3.07637,7.47433 0.37058,2.95758 -1.02287,7.48418 -3.27861,10.65233 l -1.9947,2.8014 h 2.86713 c 1.57695,0 3.64572,0.56968 4.59751,1.26532 1.59865,1.16881 1.61277,1.54677 0.18456,4.96352 -3.24118,7.75718 -12.15712,13.70262 -20.54871,13.70262 -4.15124,0 -6.01619,0.4697 -7.24071,1.82257 -2.31233,2.55503 -2.1328,2.75902 2.0878,2.3728 4.52457,-0.4145 6.7272,2.22831 5.71174,6.85177 -0.63443,2.88815 -1.698,3.47611 -7.4557,4.12072 -1.68248,0.18839 -2.59116,0.97815 -2.79842,2.43361 l -0.30711,2.15456 5.78817,-2.3801 c 7.55978,-3.10847 15.83355,-3.32296 16.75047,-0.43453 0.88394,2.78339 -0.21052,5.85502 -3.64273,10.22333 -3.27271,4.16585 -3.1277,5.18223 0.88279,6.18884 4.92313,1.23553 5.45176,3.93715 1.65379,8.4508 -5.30104,6.29995 -16.13725,8.80191 -23.96182,5.53264 -4.44448,-1.85704 -6.74665,-1.8924 -8.21257,-0.12578 -0.89103,1.07349 -0.5815,1.73227 1.43767,3.05515 2.13225,1.39707 2.46345,2.18792 1.93126,4.61065 -0.40132,1.8253 -0.23775,2.92427 0.43309,2.92427 0.59204,0 1.07585,-0.44821 1.07585,-0.99693 0,-0.54854 1.23327,-1.01228 2.74063,-1.02996 1.50737,-0.0246 4.53437,-0.9004 6.72688,-1.95932 6.87105,-3.31892 8.03107,-2.33018 5.84608,4.9828 -0.73686,2.46658 -1.34478,4.59678 -1.35078,4.73384 -0.004,0.13666 1.26576,0.24948 2.82588,0.24948 4.22622,0 9.12228,2.76976 9.12228,5.1605 0,1.11348 -1.32347,3.98563 -2.94099,6.38231 -2.56995,3.80802 -2.75844,4.54004 -1.49485,5.80375 2.41709,2.41694 1.6427,5.18774 -2.29105,8.19703 -3.39025,2.59349 -4.37977,2.83636 -10.66175,2.61657 -6.42462,-0.22499 -12.40535,-1.82443 -18.48803,-4.94507 -3.32777,-1.70717 -3.98632,-1.62266 -3.98632,0.51205 0,0.99106 -0.658,2.67321 -1.46321,3.73715 -2.89118,3.82248 -1.99253,4.75505 3.91289,4.06106 12.23738,-1.43837 18.26025,7.78127 8.41068,12.87478 -2.90145,1.50038 -3.1775,1.45765 -6.38164,-0.98638 -3.31781,-2.53052 -8.46508,-3.47786 -8.46508,-1.55794 0,0.54849 0.60264,0.99693 1.34044,0.99693 4.26227,0 6.1899,8.25342 2.67133,11.43759 -1.62503,1.47065 -2.44943,1.58927 -4.73379,0.68153 -1.5213,-0.60503 -3.66284,-1.00049 -4.75904,-0.87925 -1.14762,0.1268 -1.8874,-0.30859 -1.74404,-1.02524 0.40718,-2.03617 -3.01501,-1.42198 -6.94097,1.2458 -2.01655,1.37022 -4.63455,2.49138 -5.81772,2.49138 -1.1833,0 -3.48378,1.12056 -5.11236,2.49145 -3.54595,2.98385 -1.92151,3.17592 4.02784,0.47652 2.38925,-1.08408 6.03754,-1.97122 8.1073,-1.97122 9.17162,0 21.9302,6.6959 21.9302,11.50924 0,3.14122 -2.30172,4.22435 -10.56798,4.9732 -9.64499,0.87338 -9.70073,0.91929 -5.82608,4.79404 3.81604,3.81599 4.31536,6.24061 1.6946,8.22998 -4.64866,3.52882 -19.86832,-0.38279 -23.78595,-6.11316 -3.47276,-5.07994 -7.18958,-8.44466 -9.32816,-8.44466 -2.92241,0 -11.17522,3.86767 -10.51889,4.92959 0.29296,0.47459 1.45907,0.62032 2.59084,0.32468 2.41159,-0.63091 6.67688,1.41824 7.96572,3.8263 1.31124,2.45022 -0.69092,7.32906 -3.66016,8.91803 -3.01271,1.61237 -4.95051,0.67803 -7.86018,-3.7914 -1.09582,-1.68376 -3.1142,-3.28731 -4.48458,-3.5634 -2.99985,-0.60384 -3.76961,-0.0592 -2.17581,1.53098 0.64858,0.64855 1.17933,2.2403 1.17933,3.53694 0,4.62962 4.48259,10.13057 8.29295,10.17704 1.96109,0.0246 6.37222,3.96776 21.76081,19.45533 10.90355,10.97386 13.38007,14.46723 11.552,16.29532 -1.93331,1.9332 -7.22357,1.28418 -15.03821,-1.84493 -4.10652,-1.64435 -8.06435,-2.99714 -8.7953,-3.00621 -0.73093,-0.0101 -4.22691,-2.91945 -7.76895,-6.46747 -5.65644,-5.66587 -12.96888,-10.45777 -15.95853,-10.45777 -0.54614,0 -1.67164,1.62174 -2.49979,3.60382 -1.21661,2.91152 -1.32807,5.16126 -0.58026,11.7098 0.50845,4.45822 1.23045,8.89621 1.60372,9.8621 0.37301,0.96634 0.37643,3.76881 0.0101,6.22862 -0.81571,5.44177 -3.58415,6.18378 -5.53147,1.48259 -1.60903,-3.8846 -2.78549,-3.79539 -3.17571,0.2412 -0.49084,5.08137 -3.21807,4.73257 -6.76834,-0.86515 -2.89318,-4.56214 -3.01157,-5.19114 -3.01157,-16.01148 0,-10.4437 0.21789,-11.72303 2.98971,-17.59065 1.64437,-3.48019 2.98971,-6.60036 2.98971,-6.93343 0,-0.33297 -1.57346,-0.90046 -3.49664,-1.26184 -1.92312,-0.36127 -4.64866,-1.56217 -6.05682,-2.6698 l -2.5601,-2.01379 -2.98488,3.62121 c -3.71855,4.5112 -8.02951,4.89891 -12.40147,1.11469 -1.59254,-1.37821 -3.34398,-2.3678 -3.8922,-2.19901 -0.54848,0.16825 -3.16482,0.91107 -5.8151,1.64905 -2.65025,0.73804 -5.05049,1.94631 -5.33383,2.68489 -0.28366,0.73798 1.07112,4.40714 3.00879,8.15249 3.2548,6.28942 3.44833,7.14702 2.53259,11.22268 -0.54499,2.42711 -0.90046,6.43153 -0.78866,8.89868 0.11754,2.4672 -0.14008,7.62511 -0.5591,11.4618 -1.08879,9.97588 -3.42488,12.29694 -6.05115,6.01144 z m 3.40011,-90.27187 c -2.33392,-2.76795 -4.34505,-5.72401 -4.46914,-6.56903 -0.12338,-0.84507 -0.52734,-1.8315 -0.89571,-2.19234 -0.99466,-0.97464 -0.20267,5.11791 0.85453,6.569 0.49908,0.68507 0.59559,1.24568 0.21518,1.24568 -0.38033,0 -0.0246,0.67329 0.80387,1.49484 0.82282,0.82277 1.92052,1.49492 2.44065,1.49492 0.52028,0 1.50405,0.67205 2.18641,1.49483 0.68271,0.82275 1.6608,1.49487 2.17447,1.49487 0.51323,0 -0.97578,-2.26468 -3.30974,-5.03277 z M 519.20106,238.34249 c -0.72744,-3.03374 -1.04525,-8.03386 -0.74507,-11.76114 0.4521,-5.62587 1.01343,-7.08577 4.24845,-11.03338 4.59549,-5.60795 3.39791,-5.93293 -2.12151,-0.57558 -3.35664,3.25785 -4.19032,4.8262 -4.62749,8.70447 -0.73919,6.55514 0.15678,15.05804 2.02432,19.21212 2.11725,4.71049 2.81752,2.10506 1.22179,-4.54638 z M 317.87943,189.82133 c 0.57562,-0.68506 1.95816,-2.46241 3.07214,-3.94932 1.20957,-1.61443 3.39899,-2.96119 5.43485,-3.34315 1.87514,-0.352 3.88581,-1.21368 4.46819,-1.91543 1.61633,-1.94755 -3.72916,-3.02186 -5.83877,-1.17354 -0.89454,0.78394 -2.62423,1.72913 -3.8432,2.10048 -2.50009,0.76152 -6.25455,5.52545 -6.25455,7.93616 0,1.90073 1.50645,2.07602 2.96134,0.3447 z" style="fill:#000;stroke-width:.495152"/></svg>