<svg xmlns="http://www.w3.org/2000/svg" xml:space="preserve" id="svg1" width="3072" height="2048" version="1.1" viewBox="0 0 812.8 541.867"><defs id="defs1"><style id="style1">.cls-1{fill:#0283c0}.cls-2{fill:#fff}.cls-3{fill:#ef483f}</style></defs><path id="path1" d="M 0 0 L 0 541.86683 L 812.80025 541.86683 L 812.80025 0 L 0 0 z" style="fill:#e00000;stroke-width:2.11667;stroke-linecap:round;stroke-linejoin:round;paint-order:stroke fill markers;fill-opacity:1;stroke:none"/><path id="rect1" d="m 406.42466,67.733358 c -11.65429,26.894586 -19.62367,39.822102 -23.3104,56.100932 -7.98867,35.27458 8.65225,64.07261 8.65225,64.07261 l 0.008,0.006 h -5.18575 v 116.94732 l -79.69661,-80.40353 47.74478,-47.32463 -19.13388,-19.30287 -39.12818,0.51471 -27.75202,27.50708 -9.59174,-9.67857 -28.14115,27.89312 9.59173,9.67857 -26.57223,26.3397 38.26929,38.6088 26.57536,-26.34126 99.7653,100.64742 -70.78854,71.39935 28.14892,27.90705 50.70897,-51.16008 v 72.9884 h 39.62269 v -73.01942 l 50.71982,51.16784 28.13961,-27.89309 -70.76062,-71.38849 105.02548,-105.95878 -2.16887,-2.14715 c 17.60637,1.9804 35.01221,-0.23943 42.24427,-8.75149 9.55887,-11.25079 10.39593,-31.57702 1.02475,-46.0379 -27.83803,-42.95783 -85.89969,-48.52638 -113.18782,-48.62688 -9.09608,-0.0336 -14.75736,0.53793 -14.75736,0.53793 0,0 135.49097,53.35484 62.28974,80.72754 l -3.59516,-3.5595 -84.97384,85.71021 V 187.9131 h -5.18266 l 0.009,-0.006 c 0,0 16.63793,-28.79802 8.64917,-64.0726 -3.6868,-16.27913 -11.60773,-29.205416 -23.26231,-56.100932 z" style="fill:#ffe000;fill-opacity:1;stroke:none;stroke-width:33.8667;stroke-linecap:square;stroke-miterlimit:128;paint-order:stroke fill markers"/></svg>