<svg xmlns="http://www.w3.org/2000/svg" xml:space="preserve" id="svg1" width="4608" height="3072" version="1.1" viewBox="0 0 1219.2 812.8"><defs id="defs1"><style id="style1">.cls-1{fill:#0283c0}.cls-2{fill:#fff}.cls-3{fill:#ef483f}</style></defs><path id="rect1" d="M 1219.2,0 V 812.8 H 0 V 0 Z" style="fill:#000;fill-opacity:1;fill-rule:evenodd;stroke:none;stroke-width:8.46667;stroke-linecap:round;stroke-linejoin:round"/><path id="path2" d="M 609.6 101.6 A 270.93335 270.93335 0 0 0 338.66667 372.53333 A 270.93335 270.93335 0 0 0 440.26667 583.17784 L 440.26667 609.6 L 338.66667 609.6 L 338.66667 711.2 L 541.86667 711.2 L 541.86667 634.36231 L 541.86667 609.6 L 541.86667 527.07635 A 169.33334 169.33334 0 0 1 440.26667 372.53333 A 169.33334 169.33334 0 0 1 609.6 203.2 A 169.33334 169.33334 0 0 1 778.93333 372.53333 A 169.33334 169.33334 0 0 1 677.33333 527.07635 L 677.33333 634.36231 L 677.33333 711.2 L 880.53333 711.2 L 880.53333 609.6 L 778.93333 609.6 L 778.93333 583.17784 A 270.93335 270.93335 0 0 0 880.53333 372.53333 A 270.93335 270.93335 0 0 0 609.6 101.6 z" style="fill:#0000c0;stroke:none;stroke-width:33.8667;stroke-miterlimit:128;paint-order:stroke fill markers;fill-opacity:1"/></svg>