<svg xmlns="http://www.w3.org/2000/svg" xml:space="preserve" width="3072" height="2048" viewBox="0 0 812.8 541.867"><path d="M0 0v541.867h812.8V0H0z"/><path d="m 406.40012,67.73337 c -99.52464,0 -180.49268,79.7526 -180.49268,177.78042 0,34.31792 9.95564,67.63379 28.79069,96.35073 14.62115,22.31302 34.12145,41.12464 57.07456,55.05816 v 17.01395 h -78.01544 c -16.87661,0 -30.55718,13.47499 -30.55718,30.09895 0,16.62296 13.68057,30.09791 30.55718,30.09791 h 108.57263 c 16.87763,0 30.55928,-13.47495 30.55928,-30.09791 v -64.97487 c 4.1e-4,-11.63514 -6.80798,-22.22836 -17.48553,-27.20506 -41.53925,-19.36496 -68.37972,-61.10596 -68.37972,-106.34186 0,-64.83388 53.551,-117.58201 119.37621,-117.58201 65.82522,0 119.37832,52.74813 119.37832,117.58201 0,45.2339 -26.84047,86.9769 -68.37972,106.34186 -10.67608,4.97804 -17.48375,15.57066 -17.48396,27.20506 v 64.97487 c 0,16.62296 13.68058,30.09791 30.55823,30.09791 h 108.57 c 16.87662,0 30.55719,-13.47495 30.55719,-30.09791 0,-16.62396 -13.68057,-30.10011 -30.55719,-30.09998 -26.00425,2.1e-4 -52.00857,7.2e-4 -78.01282,10e-4 v -17.01395 c 22.87172,-13.87798 42.37523,-32.64528 57.07614,-55.06022 18.83302,-28.71496 28.78859,-62.03277 28.78859,-96.34971 0,-98.0268 -80.97012,-177.77938 -180.49478,-177.77938 z" style="fill:#0000c0;fill-opacity:1;stroke:none;stroke-width:1"/></svg>