<svg xmlns="http://www.w3.org/2000/svg" xml:space="preserve" id="svg1" width="4608" height="3072" version="1.1" viewBox="0 0 1219.2 812.8"><path id="rect1" d="M 0 0 L 0 812.8 L 1219.2 812.8 L 1219.2 0 L 0 0 z" style="fill:#000;stroke-width:33.8667;stroke-miterlimit:128;paint-order:stroke fill markers;fill-opacity:1"/><defs id="defs1"><style id="style1">.cls-1{fill:#0283c0}.cls-2{fill:#fff}.cls-3{fill:#ef483f}</style></defs><path id="path1" fill="#e00000" d="M 609.59999,8.840141e-6 V 812.79975 l 295.26732,2.4e-4 L 314.33268,8.840141e-6 H 3.6576e-4 V 208.33038 L 1219.1996,604.46962 V 208.33038 L 3.6576e-4,604.47113 V 812.79975 H 314.33286 L 904.86731,8.840141e-6 Z" style="display:inline;fill:#d00000;fill-opacity:1;stroke-width:1"/><path id="path3" d="M 609.6 101.6 L 541.168 312.21143 L 319.71795 312.21143 L 498.87498 442.37662 L 430.44298 652.98805 L 609.6 522.82287 L 788.75702 652.98857 L 720.32502 442.37662 L 899.48205 312.21143 L 678.032 312.21143 L 609.6 101.6 z" style="fill:#d00000;fill-opacity:1;stroke-width:33.8667;stroke-linecap:round;stroke-linejoin:round;stroke-miterlimit:128;paint-order:stroke fill markers"/><path id="path4" d="m 609.6,101.6 v 304.8 l 68.432,-94.18857 z m 0,304.8 -5.2e-4,0.001 H 609.6 Z m 0,0 -68.432,-94.18857 H 319.71795 l 0.002,0.002 z m 0,0.001 v 116.42184 l 179.15702,130.1657 -5.1e-4,-10e-4 -179.15599,-246.58701 z m -5.2e-4,0 -110.72502,35.97662 -68.43148,210.6104 5.1e-4,-5.2e-4 z m 289.87947,-94.18753 -289.87792,94.18702 110.72399,35.9761 z" style="fill:#000;fill-opacity:1;stroke-width:33.8667;stroke-linecap:round;stroke-linejoin:round;stroke-miterlimit:128;paint-order:stroke fill markers"/></svg>