<?xml version="1.0" encoding="UTF-8" standalone="no"?>
<svg
   xml:space="preserve"
   width="3072"
   height="2048"
   viewBox="0 0 812.8 541.867"
   version="1.1"
   id="svg2"
   sodipodi:docname="Libertarian municipalism.svg"
   inkscape:version="1.3 (0e150ed6c4, 2023-07-21)"
   xmlns:inkscape="http://www.inkscape.org/namespaces/inkscape"
   xmlns:sodipodi="http://sodipodi.sourceforge.net/DTD/sodipodi-0.dtd"
   xmlns="http://www.w3.org/2000/svg"
   xmlns:svg="http://www.w3.org/2000/svg"><defs
     id="defs2" /><sodipodi:namedview
     id="namedview2"
     pagecolor="#505050"
     bordercolor="#eeeeee"
     borderopacity="1"
     inkscape:showpageshadow="0"
     inkscape:pageopacity="0"
     inkscape:pagecheckerboard="0"
     inkscape:deskcolor="#505050"
     inkscape:zoom="0.16048177"
     inkscape:cx="1536"
     inkscape:cy="1025.0385"
     inkscape:window-width="1366"
     inkscape:window-height="705"
     inkscape:window-x="-8"
     inkscape:window-y="-8"
     inkscape:window-maximized="1"
     inkscape:current-layer="svg2" /><path
     id="rect2"
     style="stroke-width:1.80622;fill:#000000;fill-opacity:1;stroke:none"
     d="M 0 0 L 0 541.86683 L 812.80025 541.86683 L 809.60923 540.59198 C 808.28753 540.59029 806.31676 540.46462 803.02617 540.12275 C 798.01734 539.60239 788.48983 537.77653 779.3289 535.80054 C 775.29103 534.93704 770.95742 534.07006 767.83657 533.26426 C 762.00691 531.75901 753.03973 529.60433 747.90962 528.47592 C 733.38931 525.28198 703.18287 517.58365 682.64071 511.84178 C 536.53302 471.00233 407.19865 412.23448 320.12836 347.12052 C 291.06221 325.38393 270.24089 306.5368 248.41799 282.20973 C 223.52962 254.46545 206.67524 229.0971 193.72777 199.89329 C 179.39808 167.57179 171.70884 130.50328 172.70114 98.52735 L 172.99828 88.951187 L 158.35059 83.202182 C 130.66441 72.33586 96.477639 61.086865 72.091746 54.81941 C 46.206143 48.166511 27.81586 45.270468 10.886677 45.181235 L 0.44028334 45.126458 L 0.44028334 22.982067 C 0.44028334 9.1983286 0.73975526 1.5449796 1.2562545 1.1394657 C 1.2562469 1.1374631 1.1128029 1.0815336 1.1141442 1.0800378 C 1.1160168 1.0779495 1.2550702 1.1272809 1.2578047 1.125513 C 1.2710375 1.1156144 1.2757999 0.83819199 1.2893274 0.83819199 C 1.3226609 0.83819199 2.4714015 1.2467211 2.7109465 1.3224003 L 0 0 z " /><path
     id="polygon4"
     style="display:inline;fill:#e00000;fill-opacity:1;stroke-width:1.80622"
     d="M 0 0 L 2.7109465 1.3224003 C 4.4779749 1.8806558 10.254583 3.9108641 13.197648 4.8942764 C 17.965294 6.4699556 22.741235 8.0776257 30.326324 10.728031 C 34.457232 12.178156 36.428612 12.874755 40.973739 14.487492 C 75.590347 26.732054 122.74312 43.958673 144.93125 52.913066 C 186.92286 69.859489 225.59559 87.367486 240.24432 97.186346 C 241.90779 98.301349 242.52405 98.855851 242.88499 99.222398 C 242.66315 98.797161 239.08156 95.14344 230.89761 86.89033 C 222.38791 78.308751 215.66402 70.766217 215.62256 70.426214 C 215.6097 70.320782 218.47098 68.76653 219.40528 68.173638 C 219.97058 67.829524 220.48694 67.524565 221.17003 67.122539 C 223.42535 65.771378 224.19778 65.155073 227.82131 63.162056 C 247.34933 52.421198 262.03008 46.412131 280.8155 42.854245 C 288.48086 41.402457 293.89481 40.9543 302.64157 40.977356 C 303.02332 40.969571 303.40422 40.973401 303.78569 40.969088 C 305.69624 40.986192 306.68762 40.857846 309.09441 40.930331 C 327.75623 41.492367 335.27884 43.54455 352.23752 49.867772 C 353.24356 50.242885 354.33164 50.82072 355.35206 51.227897 C 355.92476 51.464726 356.49677 51.733225 357.06927 51.978239 C 375.76091 59.702159 396.52541 72.428052 415.98042 89.766125 C 427.05001 99.631212 457.76787 134.63025 469.5136 149.98986 C 492.29441 179.77972 512.00238 209.04878 554.70378 275.84475 C 616.51404 372.53184 645.10978 412.26078 678.5929 449.46314 C 720.85691 496.42173 760.93492 522.50923 803.40806 537.10898 C 808.73198 538.93904 811.32909 539.9701 811.26856 540.40749 C 811.26851 540.40782 811.27171 540.40872 811.27166 540.40904 C 811.24606 540.58167 810.46595 540.59307 809.60923 540.59198 L 812.80025 541.86683 L 812.80025 0 L 0 0 z " /><path
     id="path842"
     d="m 803.02633,540.12286 c -7.08642,-0.73621 -25.00241,-4.228 -35.18998,-6.85848 -5.82968,-1.50525 -14.79677,-3.66009 -19.9269,-4.78852 -14.52033,-3.19394 -44.72664,-10.89211 -65.26884,-16.63398 C 536.53262,471.00235 407.19885,412.23458 320.12838,347.1205 291.06217,325.38387 270.24094,306.53694 248.418,282.20983 223.52959,254.46549 206.67515,229.09723 193.72766,199.89336 179.39795,167.5718 171.70872,130.50324 172.70102,98.527247 l 0.29718,-9.576268 -14.64783,-5.749004 C 130.66413,72.335631 96.477892,61.087003 72.091949,54.819534 46.206294,48.166623 27.81606,45.270675 10.886843,45.181442 L 0.44002693,45.126378 V 22.982255 c 0,-14.1536564 0.30641687,-22.14412337 0.84917857,-22.14412337 1.5503782,0 57.6404605,19.80068337 86.9138245,30.68194937 66.90374,24.868936 115.24508,45.741833 143.67581,62.036542 6.26744,3.592107 11.50695,6.40663 11.64336,6.254516 0.1364,-0.152114 -6.02918,-6.632142 -13.7013,-14.400055 -7.67212,-7.767913 -13.96097,-14.446167 -13.97522,-14.840564 -0.0142,-0.394396 6.17473,-4.097561 13.7533,-8.229256 50.82316,-27.707842 97.22308,-28.502029 143.51583,-2.456436 31.70119,17.835975 61.13625,45.616182 96.238,90.827462 21.36234,27.51484 41.16096,56.74164 87.71798,129.48967 62.21044,97.20742 84.33018,128.17575 119.99185,167.99246 32.14447,35.88973 54.44473,54.72352 84.83801,71.65044 14.86413,8.27825 26.14981,13.07269 41.54968,17.65134 10.54905,3.13642 10.44901,3.75625 -0.424,2.62666 z"
     style="display:inline;fill:#40a000;fill-opacity:1;stroke-width:0.895458" /><path
     sodipodi:nodetypes="szcsssssssssssssssssssss"
     id="path839"
     d="m 803.02633,540.12286 c -7.19765,-0.74776 -24.5241,-4.07526 -35.18998,-6.8877 -10.66587,-2.81244 -17.81919,-5.61483 -25.11599,-8.48317 C 707.80697,511.47634 671.73727,487.60792 630.32667,450.37768 613.52627,435.27327 594.01396,416.38452 559.80501,382.10971 504.16731,326.36489 471.95187,295.42806 440.95095,267.97293 339.54184,178.16265 231.7964,107.30064 103.46616,46.015964 82.617315,36.059504 38.821059,16.611082 19.721262,8.8277142 12.370563,5.8322273 0.93886449,1.275605 1.114374,1.0798779 2.0417268,0.0456995 108.86704,38.358858 144.93113,52.913129 c 41.99169,16.946457 80.66461,34.454488 95.31338,44.273368 3.64675,2.444372 3.03169,2.664607 3.1174,2.526769 0.0857,-0.137844 -3.95472,-4.24116 -12.46441,-12.822757 -8.5097,-8.581597 -15.23349,-16.124291 -15.27495,-16.464294 -0.0415,-0.340003 5.55293,-3.608931 12.19875,-7.264283 19.52806,-10.740878 34.20861,-16.749667 52.99407,-20.307561 9.60678,-1.819486 13.80275,-2.36018 28.27908,-1.924197 18.66186,0.562038 26.1845,2.614589 43.14322,8.937825 19.8561,7.403554 42.62825,21.081058 63.74301,39.898281 11.06961,9.865107 41.78719,44.86388 53.53296,60.22351 22.78085,29.78992 42.48882,59.05876 85.1903,125.85485 61.81038,96.68729 90.40603,136.41623 123.88921,173.61867 42.26411,46.95867 82.3416,73.04612 124.81482,87.64591 10.68254,3.67203 10.43884,4.13778 -0.38164,3.01364 z"
     style="fill:#008000;fill-opacity:1;stroke-width:0.895458" /></svg>
