<svg xmlns="http://www.w3.org/2000/svg" xml:space="preserve" width="3072" height="2048" viewBox="0 0 812.8 541.867"><path fill="#ffc000" d="M0 361.5h812.8v180.367H0Z" paint-order="stroke markers fill"/><path d="M0 180.366h812.8V361.5H0Z" paint-order="stroke markers fill"/><path fill="#ff8020" d="M0 0h812.8v180.366H0Z" paint-order="stroke markers fill"/><path fill="#fff" d="M407.945 462.949c-172.288-67.354-140.375-166.656-168.751-330.8 51.672 5.13 122.98-11.431 167.045-53.056 47.183 47.784 108.621 55.156 167.367 53.91C548.01 348.698 552.642 395.3 407.946 462.95z" color="#000" paint-order="fill markers stroke" style="-inkscape-stroke:none"/><path fill="gray" d="M407.232 69.517a9.626 9.63 0 0 0-3.287.226 9.626 9.63 0 0 0-4.315 2.349c-41.221 38.94-110.706 55.32-159.486 50.476a9.626 9.63 0 0 0-10.436 11.222c14.03 81.154 12.9 146.956 30.723 202.975 17.822 56.02 56.186 100.817 144.011 135.151a9.626 9.63 0 0 0 7.579-.244c73.152-34.2 111.104-64.906 132.267-114.391 21.162-49.486 26.095-115.444 38.876-223.143a9.626 9.63 0 0 0-9.762-10.761c-57.8 1.226-115.721-5.887-160.316-51.05a9.626 9.63 0 0 0-5.854-2.81zm-.993 9.576c47.183 47.784 108.621 55.156 167.367 53.91C548.01 348.697 552.641 395.3 407.946 462.95c-172.29-67.354-140.376-166.656-168.752-330.8 51.672 5.13 122.98-11.43 167.045-53.056zm-50.776 61.006c-2.675.045-4.723.836-6.33 2.376-1.636 1.567-2.046 2.533-2.046 4.82 0 1.572-.46 3.96-1.023 5.308-1.894 4.534-.807 12.729 2.684 20.23l1.746 3.753-.51-4.094c-.28-2.251-.473-6.702-.428-9.892.136-9.554 2.09-14.327 5.866-14.327 2.24 0 2.378.92.88 5.861-1.324 4.363-1.302 10.689.055 16.086 1.747 6.951 2.656 6.958 2.714.022.036-4.437.449-7.02 1.634-10.224 2.5-6.76 6.097-8.953 9.624-5.865.592.518 1.282.942 1.533.942.384 0 7.437 4.884 9.684 6.706.385.312 1.536 1.115 2.558 1.785 2.835 1.858 2.301 2.942-2.064 4.194-2.157.619-4.229 1.355-4.604 1.636-.375.281-1.91.72-3.41.975-3.58.61-7.336 1.812-6.93 2.22.178.177 1.45.011 2.825-.369 3.178-.878 4.652-.338 4.288 1.57-.247 1.292.237 1.12 4.084-1.462 4.681-3.14 8.35-3.909 8.35-1.75 0 1.882-14.28 15.387-21.287 20.13-2.218 1.502-2.53 1.951-1.602 2.308 2.164.83 7.843-.349 13.355-2.773 5.391-2.371 12.604-6.605 13.964-8.197.634-.742 1.52-1.382 6.397-4.626 2.992-1.989 8.68-1.6 13.459.922 4.682 2.47 7.058 4.551 10.043 8.797 2.075 2.95 2.159 3.333 2.159 9.892 0 5.317-.275 7.326-1.246 9.106-1.293 2.37-7.611 9.042-9.354 9.876-.547.262-1.915 1.085-3.04 1.83-7.176 4.746-14.02 5.937-28.645 4.982-5.627-.367-15.228-.73-21.336-.809-11.41-.146-16.917.726-23.512 3.724-6.96 3.165-15.131 10.233-19.796 17.125-4.625 6.833-7.435 18.416-4.824 19.878 1.567.877 3.386.266 7.894-2.648 5.948-3.846 14.85-7.994 19.705-9.183 6.509-1.594 21.415-2.414 29.871-1.642 3.973.362 11.367.965 16.431 1.34 5.064.374 11.816 1.198 15.005 1.83 3.92.778 8.905 1.13 15.396 1.087 8.479-.056 9.952-.24 12.617-1.577 5.701-2.86 8.948-6.985 14.233-18.08 1.609-3.376 3.318-6.906 3.798-7.844.48-.938 1.734-5.083 2.786-9.21 3.573-14.022 2.274-29.743-3.201-38.727-1.09-1.788-1.98-3.521-1.98-3.85 0-1.169-12.015-13.028-15.326-15.13-4.225-2.68-13.463-7.278-20.14-10.025-10.158-4.18-11.706-4.467-24.552-4.557-11.663-.083-12.081-.136-18.367-2.347-4.11-1.445-7.41-2.147-10.085-2.103zm12.69 115.045c-5.577-.06-10.844.206-14.246.817-13.67 2.456-16.296 2.982-19.779 3.964-6.024 1.699-11.075 3.77-13.64 5.594-3.478 2.474-10.39 9.928-11.95 12.89-.742 1.407-1.82 3.083-2.398 3.726-1.148 1.278-3.584 7.573-3.77 9.747-.155 1.794 2.102 6.221 3.621 7.106.66.384 1.597.708 2.085.72.918.02 4.992-1.898 5.592-2.635.827-1.015 8.203-5.462 11.935-7.197 13.428-6.24 34.521-9.511 51.146-7.931 4.504.428 10.951 1.21 14.327 1.738 11.931 1.866 31.324 7.01 35.806 9.5 2.306 1.28 11.321 4.265 14.55 4.817 4.914.84 6.323.054 8.753-4.884 3.055-6.207 3.082-11.643.088-17.985-2.311-4.895-4.332-6.772-10.821-10.048-4.333-2.188-8.79-3.188-17.344-3.893-2.814-.231-8.185-.841-11.936-1.356-3.75-.514-9.428-1.268-12.616-1.674a722.238 722.238 0 0 1-13.3-1.868c-4.638-.698-10.525-1.087-16.102-1.148zm133.457 14.123c-2.142.081-3.624.714-5.776 3.516-2.39 2.505-3.695 4.685-4.903 8.187-1.572 4.558-1.646 5.553-1.646 22.17 0 9.567-.27 18.624-.602 20.125-.85 3.845-5.173 11.016-8.943 14.833-1.758 1.78-5.547 5.086-8.42 7.349a6239.59 6239.59 0 0 0-5.943 4.684c-1.993 1.58-6.285 2.287-11.834 1.95-8.486-.515-12.652-2.117-27.497-10.574-6.929-3.947-16.683-8.439-22.693-10.45-1.5-.502-3.035-1.128-3.41-1.392-1.501-1.054-9.289-2.628-16.71-3.378-10.698-1.08-21.038-.411-27.414 1.776-2.74.94-7.825 2.335-11.302 3.1-3.476.765-7.33 1.814-8.565 2.33-1.235.517-6.524 1.631-11.753 2.477-6.598 1.068-10.26 2.005-11.965 3.061-3.066 1.898-6.021 7.31-7.125 13.045-1.997 10.38 3.122 18.438 13.14 20.684 6.014 1.348 17.318-1.083 27.132-5.836 3.692-1.787 13.745-5.082 18.857-6.18 9.386-2.014 28.538-1.05 34.34 1.728 3.437 1.646 14.11 5.529 18.576 6.758 2.714.747 5.198 1.52 5.52 1.72 2.312 1.429 15.375 3.354 25.35 3.735 16.258.62 23.3-.51 30.186-4.842 3.31-2.084 14.827-13.775 14.827-15.052 0-.387 1.684-2.943 3.742-5.678 5.532-7.353 8.364-13.068 10.01-20.207 1.34-5.809 1.389-6.816.604-12.383-.47-3.333-1.766-8.692-2.88-11.909-1.764-5.09-2.037-6.876-2.104-13.761-.076-7.696-.019-8.015 2.078-11.681 2.571-4.496 4.436-5.496 10.161-5.452 4.767.036 5.13-.757 1.385-3.023-1.816-1.099-3.468-1.328-9.568-1.328-2.048 0-3.57-.15-4.855-.102zm-127.925 20.701c-16.51-.06-20.833.329-28.985 2.608-1.876.525-5.558 1.45-8.184 2.056-2.626.606-5.695 1.507-6.82 2.001a122.39 122.39 0 0 1-4.924 1.983c-6.366 2.399-14.948 9.772-17.539 15.069-1.672 3.42-1.708 3.725-.755 6.429 2.904 8.233 5.321 10.314 11.976 10.314 3.74 0 17.203-2.94 18.743-4.092 1.626-1.217 15.227-6.234 21.644-7.984 9.512-2.594 17.146-2.572 27.12.078 7.663 2.036 22.494 6.827 28.645 9.252 4.865 1.92 16.718 7.735 19.778 9.705 1.313.845 3.154 1.903 4.092 2.35 2.498 1.192 8.012 1.103 10.156-.163 4.04-2.388 8.039-11.852 7.3-17.277-.827-6.063-5.951-12.298-13.023-15.845-9.142-4.585-28.279-10.757-46.718-15.067-4.898-1.145-8.387-1.364-22.506-1.417z" color="#000" paint-order="fill markers stroke" style="-inkscape-stroke:none"/></svg>