<svg xmlns="http://www.w3.org/2000/svg" width="3072" height="2048" viewBox="0 0 812.8 541.867"><path d="m209.555 0 151.223 208.14L406.4 67.734V0ZM406.4 67.733v203.2l45.622-62.792h147.633L812.8 138.887V0H603.245L452.021 208.14Zm193.255 140.408L406.4 270.933v77.616l119.438 86.777 77.407 106.541H812.8V402.981L480.217 294.918l45.621 140.407-119.437-164.391 73.816 23.984ZM406.4 348.55l-119.438 86.777-77.407 106.541H406.4Zm-119.438 86.777L406.4 270.934l-73.817 23.984zm45.621-140.408-119.436-86.776L0 138.887v264.094zm73.817-23.985-45.622-62.792H213.145Z"/><path fill="#e00000" d="M0 0v138.887l213.145 69.254h147.633l45.622 62.792v-203.2l-45.622 140.408L209.555 0H0zm406.4 67.733 45.622 140.408L603.245 0H406.4v67.733zm0 203.2 193.255-62.792H452.022L406.4 270.933zm0 0-193.255-62.792 119.438 86.777 73.816-23.984h.001zm0 0 119.438 164.393-45.621-140.408-73.817-23.984zm0 0L286.962 435.326l45.621-140.407L0 402.981v138.886h209.555l77.407-106.541L406.4 348.549v-77.615zm0 77.616v193.318h196.845l-77.407-106.541L406.4 348.549zm73.817-53.631L812.8 402.98V138.887l-213.147 69.255-119.436 86.776z"/></svg>