<svg xmlns="http://www.w3.org/2000/svg" xml:space="preserve" width="3072" height="2048" viewBox="0 0 812.8 541.867"><path fill="#e00000" d="M406.39999 0v541.86682l196.845.00016L209.555 0H0v138.887l812.8 264.09298V138.887L0 402.98099v138.88583h209.55512L603.24499 0Z"/><path d="M406.40001 0v541.86682l-196.845.00016L603.245 0H812.8v138.887L0 402.97998V138.887l812.8 264.09399v138.88583H603.24488L209.55501 0Z"/><path fill="#fff" d="M406.40012 101.60003a169.33338 169.33338 0 0 0-119.4315 49.90188l23.64197 23.64198a135.4667 135.4667 0 0 1 95.78953-39.67718 135.4667 135.4667 0 0 1 135.46671 135.46671 135.4667 135.4667 0 0 1-28.6458 82.87352l-82.87352-82.87352 21.89273-21.89221h-47.89477l-43.78494 43.78493 23.94738 23.94739 21.89273-21.89273 82.873 82.873a135.4667 135.4667 0 0 1-82.87352 28.64632 135.4667 135.4667 0 0 1-82.873-28.6458l.04083-.04082c-.48928-.37978-.96519-.7754-1.44901-1.16169a135.4667 135.4667 0 0 1-6.80941-5.81567c-5.69527-5.19919-10.95232-10.86745-15.68897-16.96951l-74.52674 74.52622 23.94739 23.94739 50.65428-50.65429a169.33338 169.33338 0 0 0 106.70463 38.68085 169.33338 169.33338 0 0 0 106.96457-38.42144l50.39487 50.39488 23.94738-23.94739-50.39487-50.39487a169.33338 169.33338 0 0 0 38.42144-106.96456 169.33338 169.33338 0 0 0-169.33339-169.33339z"/></svg>