<svg xmlns="http://www.w3.org/2000/svg" xml:space="preserve" width="3072" height="2048" viewBox="0 0 812.8 541.867"><path d="M 0 0 L 0 541.86683 L 812.80025 541.86683 L 812.80025 0 L 0 0 z" style="fill:#e00000;stroke-width:2.11667;stroke-linecap:round;stroke-linejoin:round;paint-order:stroke fill markers;fill-opacity:1;stroke:none"/><path d="m 413.61041,93.342334 c -0.41526,0 -2.33892,0.0438 -4.2617,0.110378 l -3.49528,0.130807 0.0652,6.467881 0.088,6.46792 -1.83435,0.1308 c -0.98325,0.0875 -2.46996,0.15318 -3.25657,0.15318 -1.44208,0 -1.46449,-7.5e-4 -1.59559,-0.67847 -0.0656,-0.3715 -0.15316,-2.22679 -0.15316,-4.10587 -0.0194,-1.87907 -0.0861,-4.479198 -0.17311,-5.812068 l -0.1308,-2.382098 -4.26166,0.06517 c -2.3379,0.01943 -4.30338,0.08704 -4.34709,0.1308 -0.13129,0.131288 0.45756,20.758386 0.61058,20.911316 0.0656,0.0656 3.49674,0.0438 7.62628,-0.088 4.12959,-0.13129 7.55898,-0.15269 7.64641,-0.0652 0.0875,0.0875 0.19693,1.00416 0.21881,2.05296 0.0875,1.87907 0.0652,1.94369 -0.43714,2.05295 -0.26208,0.0656 -3.71423,0.19645 -7.66902,0.28397 -3.9329,0.0875 -7.20892,0.24167 -7.27447,0.32919 -0.0656,0.10941 -0.0437,1.92367 0.0438,4.04309 l 0.15317,3.86716 4.06317,-0.15316 c 2.22864,-0.0656 7.64694,-0.2407 12.03872,-0.37199 4.39173,-0.13129 7.99714,-0.26306 8.04086,-0.30682 0.0875,-0.0875 -0.54616,-23.81672 -0.78651,-29.71612 l -0.15317,-3.495278 z m 10.53606,0.8418 c -0.22416,0.01943 -0.32141,0.0885 -0.35448,0.208605 -0.0656,0.153165 -0.93881,7.209611 -1.9876,15.687261 -1.02691,8.47766 -1.92206,15.77547 -1.9876,16.21247 -0.10941,0.72101 -0.0666,0.82974 0.39192,0.91712 0.93953,0.19644 8.10601,1.02721 8.17155,0.93978 0.0438,-0.0437 0.74271,-5.48435 1.57298,-12.12664 0.80845,-6.62047 1.5527,-12.10384 1.61825,-12.16938 0.0875,-0.0875 2.97041,0.21784 6.42266,0.6332 3.45224,0.43714 6.31359,0.7641 6.3573,0.69855 0.10941,-0.10941 1.13773,-8.302751 1.05036,-8.390133 -0.0656,-0.06563 -15.79687,-2.052953 -20.14494,-2.555498 -0.53531,-0.05445 -0.88672,-0.07731 -1.11064,-0.05543 z m -44.94854,1.540298 c -0.24021,-0.01942 -3.27856,0.63393 -6.77447,1.44237 -3.47407,0.83028 -8.67463,2.053297 -11.55879,2.708767 -2.86227,0.677351 -5.24315,1.267221 -5.28687,1.289051 -0.0438,0.0437 0.21833,1.31094 0.56789,2.79672 0.34962,1.50763 2.03147,8.72021 3.7139,16.06169 1.70426,7.31959 3.14751,13.39288 3.19122,13.45843 0.0438,0.0875 0.80878,-0.0243 1.66094,-0.24118 0.87399,-0.21833 2.7535,-0.65474 4.1737,-0.98247 1.85724,-0.43715 2.5555,-0.67687 2.5555,-0.91722 0,-0.17456 -0.43617,-2.25116 -0.98248,-4.61093 -0.65552,-2.84044 -0.91936,-4.32502 -0.76638,-4.41245 0.13129,-0.0875 3.53962,-0.91911 7.60366,-1.83682 4.04217,-0.93953 7.43004,-1.74792 7.49558,-1.79164 0.0875,-0.0438 0.0642,-0.45756 -0.0438,-0.89451 -0.1094,-0.45902 -1.28876,-5.59428 -2.64341,-11.42813 -2.20686,-9.504573 -2.51149,-10.597916 -2.90478,-10.641626 z m -41.29752,1.846935 c -0.21006,0.03892 -0.6317,0.22416 -1.09053,0.469717 -0.58996,0.327735 -5.15835,2.644286 -10.09633,5.178826 -4.95987,2.51271 -9.02343,4.65324 -9.02343,4.78433 0,0.19645 4.76381,13.89581 9.1993,26.5249 0.96138,2.68751 1.70291,4.91576 1.68108,4.93759 -0.0438,0.0438 -0.69851,0.37296 -1.48507,0.76644 -0.78661,0.39337 -1.46323,0.74202 -1.48506,0.76385 -0.13129,0.1094 6.57549,13.24253 6.70658,13.17699 0.0656,-0.0437 1.9242,-0.98384 4.131,-2.09814 l 3.97526,-2.01026 -1.22375,-2.42479 c -0.65547,-1.3547 -1.13448,-2.51334 -1.02522,-2.60072 0.0875,-0.10941 3.27744,-1.77103 7.10113,-3.69381 l 6.90512,-3.53797 1.20109,2.35949 c 0.65547,1.28915 1.33286,2.35949 1.50767,2.35949 0.50255,0 7.82229,-3.82359 7.82229,-4.08578 0,-0.21833 -6.24941,-12.58488 -6.46788,-12.82524 -0.0438,-0.0656 -0.78797,0.21785 -1.61825,0.63325 -0.83027,0.41526 -1.54939,0.6988 -1.59311,0.63325 -0.0438,-0.0438 -3.40818,-6.61989 -7.4504,-14.61688 -4.06399,-7.9969 -7.45093,-14.597236 -7.53831,-14.684618 -0.0146,-0.0243 -0.0632,-0.0243 -0.13324,-0.0098 z m 119.23378,2.284117 c -0.17505,-0.06562 -1.37663,2.163286 -3.51789,6.533186 -1.79164,3.64893 -5.09106,10.37871 -7.31969,14.92341 -2.25053,4.56659 -4.04153,8.38969 -3.99787,8.52078 0.13129,0.39339 7.77896,2.92831 7.9756,2.66607 0.10941,-0.13128 0.76498,-1.52931 1.44232,-3.08064 0.69918,-1.57317 1.33233,-2.92792 1.41971,-3.01535 0.13129,-0.13129 6.88163,2.05208 7.14382,2.31427 0.0438,0.0243 -0.32773,1.57526 -0.78651,3.43246 -0.45903,1.85723 -0.78593,3.44985 -0.69855,3.5154 0.0875,0.0875 1.90182,0.74465 4.04309,1.48754 2.75301,0.93954 3.90966,1.24447 3.9752,1.04782 0.0438,-0.13128 0.91795,-4.19387 1.94491,-9.00076 1.02692,-4.80689 2.55594,-12.06299 3.42993,-16.12698 0.8521,-4.06405 1.53125,-7.40669 1.48754,-7.4504 -0.0438,-0.0438 -3.71419,-1.33257 -8.17151,-2.86208 -4.43549,-1.52946 -8.21713,-2.839176 -8.3701,-2.904726 z m -84.33884,6.095996 c 0.0875,-0.0243 0.19596,0.15268 0.26112,0.34913 0.39337,1.46391 1.46517,6.4458 1.39963,6.53318 -0.13129,0.13129 -6.77422,1.6604 -6.83977,1.57303 -0.0656,-0.0875 -1.61669,-6.83807 -1.57303,-6.8599 0.0438,-0.0438 6.48967,-1.55192 6.75185,-1.59559 z m -38.91537,3.93246 c 0.0656,-0.0194 1.29104,2.27328 2.71129,5.04817 1.4202,2.79678 3.84357,7.58116 5.39491,10.59641 1.55135,3.03708 2.77509,5.59398 2.73138,5.68137 -0.17457,0.26208 -7.99695,4.10629 -8.10621,3.9752 -0.0656,-0.0438 -1.85656,-5.15495 -3.99781,-11.36025 l -3.90991,-11.2547 2.53288,-1.3544 c 1.37654,-0.72106 2.57792,-1.3318 2.64347,-1.3318 z m 151.98786,0.41478 c -0.0243,0 -2.55716,4.32705 -5.61611,9.63649 -3.05892,5.2876 -5.59244,9.74488 -5.63616,9.8978 -0.0438,0.17505 0.72005,0.76352 1.83435,1.39715 l 1.90216,1.11565 -0.74377,0.43715 c -0.41526,0.26209 -2.68839,1.61518 -5.04817,3.03542 -2.38161,1.39837 -4.32448,2.62309 -4.32448,2.68868 0,0.15269 7.99554,4.78433 8.2796,4.78433 0.0875,0 2.20803,-1.33315 4.6989,-2.94998 2.49087,-1.61689 4.56469,-2.95005 4.60841,-2.95005 0.0656,0 0.54683,0.26355 1.09309,0.61317 l 0.96239,0.5905 -2.40476,4.12847 c -1.31098,2.27235 -2.35793,4.23861 -2.31426,4.3697 0.1094,0.24021 6.96934,4.28179 7.29713,4.28179 0.21832,0 16.49536,-28.09811 16.53908,-28.5351 0,-0.17457 -4.32574,-2.8175 -10.53105,-6.42267 -5.81197,-3.36481 -10.57452,-6.1186 -10.59635,-6.1186 z m -25.08506,0.0243 c 0.19644,0 1.09426,0.28299 1.99008,0.61063 0.89583,0.32774 1.61572,0.67725 1.61572,0.78647 -0.13129,0.89586 -1.94443,8.12916 -2.07552,8.28213 -0.15316,0.15317 -5.06898,-1.39953 -5.37483,-1.68355 -0.0438,-0.0438 0.72116,-1.8782 1.72624,-4.06317 1.22361,-2.73123 1.87795,-3.95435 2.11831,-3.93251 z m 28.74114,11.47335 c 0.33891,0.0243 1.11628,0.49778 3.46512,1.87703 1.4202,0.83028 2.55648,1.59364 2.51276,1.68107 -0.30585,0.72101 -3.53758,6.14122 -3.66867,6.14122 -0.1313,0 -5.37668,-2.92919 -6.07587,-3.40985 -0.0438,-0.0243 2.53507,-4.56619 3.38723,-5.94272 0.13129,-0.21298 0.17603,-0.3608 0.37928,-0.3467 z m 46.53158,11.62157 -8.30222,7.93033 c -19.88313,19.03102 -22.15514,21.23909 -22.15514,21.4139 0,0.26209 5.89838,6.31462 6.13868,6.31462 0.0875,0 2.20808,-1.88029 4.6989,-4.19636 l 4.52302,-4.19383 3.45005,3.58324 c 1.90091,1.98829 4.87419,5.08985 6.57846,6.9252 1.7261,1.81353 3.18927,3.27919 3.27666,3.27919 0.15316,-0.0437 0.96239,-0.80912 12.36786,-11.71206 4.95987,-4.74139 8.9799,-8.6973 8.95807,-8.78468 -0.0438,-0.0875 -0.65595,-0.78563 -1.37701,-1.55036 -3.45225,-3.60522 -15.44847,-16.19131 -16.73762,-17.52413 z m -126.99578,9.98076 c -3.15198,-0.0681 -6.31913,-0.0243 -9.49824,0.13566 -23.26988,1.15801 -46.71452,9.17635 -65.63628,22.43907 -1.83536,1.28915 -4.24041,2.97256 -5.3547,3.75911 -2.07576,1.46396 -3.73437,2.95004 -4.89243,4.45767 l -0.6558,0.85187 -9.04599,-9.87778 c -7.56,-8.25913 -9.11178,-9.83114 -9.48323,-9.72192 -0.98325,0.26208 -4.2177,1.90163 -5.61607,2.81934 -4.06404,2.70934 -6.02932,6.26904 -4.91498,8.91285 0.41526,1.00508 1.28832,2.01016 7.07846,8.10621 4.65397,4.87243 12.49858,13.61413 12.49858,13.8982 0,0.13128 -1.63945,1.30913 -1.81421,1.30913 -0.0656,0 -1.06907,-1.20041 -2.24896,-2.68615 -2.66563,-3.34303 -5.09092,-5.76928 -6.59854,-6.55585 -0.63363,-0.34961 -1.2235,-0.58996 -1.28905,-0.50253 -0.13129,0.1094 2.81715,3.62627 6.77193,8.08359 l 2.31675,2.62333 -0.59045,0.34913 c -0.32774,0.19644 -1.13691,0.65629 -1.81426,1.02769 l -1.24383,0.6986 -2.90726,-3.21135 c -4.58841,-5.04725 -4.65416,-5.11406 -6.53323,-5.70398 -2.62196,-0.83032 -3.16686,-1.20065 -3.69128,-2.62085 -0.26209,-0.67735 -0.63334,-1.44222 -0.85182,-1.72629 l -0.39435,-0.50255 -0.61063,0.61059 c -0.54621,0.54626 -0.61253,0.72199 -0.52516,1.74891 0.17457,2.14125 2.53601,5.13355 8.43541,10.72705 l 3.29926,3.12587 -0.78899,1.02774 c -2.90603,3.80181 -7.71074,11.86387 -10.55118,17.63218 -1.70426,3.49596 -4.58832,10.11667 -4.58832,10.55366 0,0.13129 -0.0875,0.5007 -0.21881,0.8066 l -0.21882,0.56789 -1.00508,-0.72116 c -1.24544,-0.89587 -2.88581,-2.66374 -4.0657,-4.38983 -4.12959,-6.07422 -4.54509,-15.25309 -1.1584,-26.24346 0.30586,-0.96137 0.50357,-1.79062 0.46,-1.83433 -0.15317,-0.15317 -2.07591,2.42576 -2.73137,3.67115 -2.66569,5.00358 -3.14649,12.67172 -1.22376,19.33586 0.69918,2.42532 2.40466,6.0532 3.69381,7.84489 0.91766,1.2891 3.40887,3.82457 4.45767,4.54563 0.48042,0.32774 0.48042,0.32774 0.1308,1.72625 -0.19644,0.76472 -0.43762,1.48462 -0.52515,1.61571 -0.63368,0.85216 -3.23401,11.341 -4.23909,17.17485 -2.38157,13.80893 -2.38157,29.38722 0,43.23986 5.8994,34.39129 25.74023,64.89246 54.84391,84.40419 6.05233,4.04217 14.92254,8.95793 16.69235,9.242 0.4809,0.0875 1.11308,0.37344 1.3971,0.63572 0.30585,0.28398 1.70568,1.00314 3.12592,1.59311 23.94718,10.22559 51.69587,12.74029 77.39102,7.01564 43.41516,-9.65749 78.94315,-41.58052 93.12352,-83.6629 5.98679,-17.78559 7.99602,-36.75141 5.85476,-55.38915 -2.88415,-25.41108 -13.13084,-48.85475 -29.88951,-68.47569 -1.22355,-1.46391 -2.53581,-2.86291 -2.90725,-3.10326 -0.34961,-0.26209 -0.89524,-0.87448 -1.2011,-1.37702 -0.30585,-0.48091 -0.91813,-1.28827 -1.37701,-1.76899 -0.43714,-0.4809 -1.48574,-1.9682 -2.29414,-3.27918 -0.83032,-1.33281 -1.63769,-2.53323 -1.83438,-2.68615 -0.43714,-0.34962 -0.41526,-0.35059 2.5128,-3.97774 1.26727,-1.57317 2.27177,-2.90452 2.20622,-2.97007 -0.26208,-0.26209 -8.95899,-1.68326 -15.51387,-2.53542 l -7.14381,-0.91717 -0.45999,-0.96239 c -0.52443,-1.0488 -1.30992,-1.70402 -4.12853,-3.36462 -18.67868,-11.06953 -39.95119,-17.07094 -62.01535,-17.54922 z m 126.71186,3.17367 c 0.0656,0 1.66142,1.61673 3.54049,3.58318 l 3.42993,3.58325 -3.95513,3.8018 c -2.16309,2.07571 -4.02096,3.80084 -4.10839,3.84455 -0.15317,0.0437 -3.38475,-3.19063 -5.89746,-5.89999 l -1.15839,-1.24383 2.70876,-2.60071 c 4.06404,-3.91107 5.28721,-5.06825 5.44019,-5.06825 z m 20.73544,23.61759 c -0.0656,0 -6.55497,3.73811 -14.42083,8.3047 -7.86585,4.5447 -14.28938,8.34549 -14.26755,8.43287 0.0656,0.26209 12.25787,21.36868 12.34525,21.36868 0.28398,0 28.79745,-16.58391 28.75373,-16.71501 -0.19645,-0.50253 -12.32323,-21.41312 -12.4106,-21.39124 z m -3.14601,12.01859 c 0.13129,-0.0194 1.04963,1.37561 2.03283,3.05804 0.98325,1.70427 1.74812,3.12417 1.72629,3.14601 -0.39338,0.37149 -13.83163,7.93305 -13.94089,7.8675 -0.0875,-0.0656 -0.91742,-1.44193 -1.85695,-3.08065 -1.07063,-1.90091 -1.61863,-3.03752 -1.48754,-3.16861 0.32773,-0.32773 13.26407,-7.80046 13.52626,-7.82229 z m 20.40624,19.44638 c -0.17456,0 -7.23066,2.33586 -15.66465,5.1763 -8.43394,2.86232 -15.40388,5.24477 -15.49125,5.33214 -0.10941,0.13129 7.42939,22.98581 7.69162,23.31355 0.15317,0.17505 11.44822,-3.75752 11.44822,-3.99782 0,-0.3715 -2.4476,-7.64651 -2.66607,-7.86503 -0.1094,-0.13129 -0.76492,-0.0243 -1.72629,0.28397 -0.85211,0.28398 -1.63886,0.41331 -1.72629,0.30391 -0.19645,-0.21833 -2.25086,-6.40058 -2.16348,-6.48801 0.0438,-0.0438 3.34483,-1.15986 7.29961,-2.49268 3.97662,-1.31098 7.36356,-2.46733 7.53831,-2.53288 0.2621,-0.1094 0.56742,0.56677 1.48507,3.18869 0.63363,1.81353 1.0699,3.38782 0.98252,3.47519 -0.10941,0.0656 -0.82989,0.34914 -1.63833,0.63325 -0.83032,0.2621 -1.48506,0.58905 -1.48506,0.76385 0,0.30586 2.53395,7.73545 2.70876,7.91021 0.19644,0.21832 11.51552,-3.69289 11.42814,-3.95508 -0.0438,-0.13129 -1.79223,-5.37338 -3.88983,-11.64422 -2.79672,-8.41212 -3.89064,-11.42736 -4.131,-11.40548 z m -337.07396,12.86793 c -0.13129,0 -0.30634,0.17505 -0.37198,0.37198 -0.32773,1.07063 -1.66041,7.14611 -1.57302,7.21166 0.0437,0.0437 5.28774,1.28759 11.62414,2.7515 6.35823,1.44208 11.60221,2.66685 11.62409,2.68868 0.19645,0.13129 -1.59495,7.29709 -1.79164,7.29709 -0.13129,0 -5.3741,-1.1795 -11.66679,-2.64341 -6.29268,-1.44208 -11.49324,-2.57835 -11.55879,-2.51281 -0.24021,0.24021 -1.79126,7.44997 -1.63833,7.58106 0.0875,0.0656 4.39202,1.09168 9.54858,2.27158 5.17834,1.158 12.06153,2.7549 15.29524,3.49775 3.25561,0.76477 5.94099,1.35285 5.96282,1.30918 0.13129,-0.13128 5.31148,-22.67762 5.22409,-22.74317 -0.0875,-0.1094 -30.35077,-7.08099 -30.67851,-7.08099 z m 348.19552,20.75805 -0.8066,0.0243 c -0.43713,0.0243 -1.79349,0.15122 -2.99521,0.3039 -1.20173,0.17457 -8.23677,1.04982 -15.62196,1.96752 -7.38515,0.91766 -13.50341,1.72683 -13.56901,1.81421 -0.13129,0.17505 2.79863,24.07676 2.99527,24.27345 0.15316,0.15268 11.73151,-1.26581 11.92814,-1.46245 0.0656,-0.0875 0.0666,-0.69889 -0.0438,-1.3544 -0.0875,-0.65547 -0.35107,-2.55837 -0.54776,-4.21892 l -0.39192,-3.03548 -1.22375,0.1308 c -0.67734,0.0875 -1.48569,0.19596 -1.7916,0.26112 l -0.56789,0.11038 -0.41477,-3.54055 c -0.28397,-2.33789 -0.35156,-3.56208 -0.19839,-3.6058 0.21832,-0.0875 15.71216,-2.00871 15.7777,-1.96499 0.10941,0.0875 0.78521,6.92573 0.67595,7.01316 -0.0656,0.0656 -0.76381,0.17408 -1.55037,0.26112 -0.78661,0.0656 -1.52912,0.17651 -1.63833,0.26404 -0.19644,0.13129 0.65494,8.08306 0.91717,8.49822 0.13129,0.21833 11.75412,-1.20197 11.95076,-1.44232 0.0656,-0.0875 -0.50094,-5.06772 -1.24383,-11.07633 -0.7429,-6.00867 -1.42025,-11.45031 -1.50767,-12.08395 z m -353.73368,3.40483 c -0.19013,10e-4 -0.24848,0.11476 -0.31656,0.37442 -0.28397,1.2891 -0.94021,7.05794 -0.80912,7.18904 0.0875,0.0656 1.59554,0.45853 3.38723,0.85181 2.88416,0.63364 3.21131,0.74324 3.21131,1.1584 0,0.52438 -0.87423,7.42852 -0.93978,7.4504 -0.0194,0 -1.59432,-0.0438 -3.49528,-0.10795 -1.87907,-0.0656 -3.4307,-0.11038 -3.45253,-0.11038 -0.0875,0 -0.98271,7.4718 -0.91717,7.58106 0.0438,0.10941 7.25473,0.17602 16.01646,0.17602 h 15.92849 l 0.1308,-0.72116 c 0.45902,-2.55642 2.05262,-15.77654 1.89965,-15.8858 -0.0875,-0.0875 -6.72769,-1.83341 -14.79018,-3.88724 -8.06255,-2.07572 -14.96907,-3.84587 -15.34053,-3.95513 -0.23777,-0.0739 -0.39872,-0.11378 -0.5126,-0.11281 z m 13.42575,11.01599 c 0.13129,0 2.1416,0.43568 4.45767,0.95991 2.31606,0.50254 4.26146,0.98481 4.32701,1.05035 0.0656,0.0656 -7.5e-4,1.13589 -0.17603,2.35949 l -0.2616,2.25144 -3.08065,-0.15316 c -1.68243,-0.0656 -3.78046,-0.1308 -4.67628,-0.1308 h -1.61572 l 0.15317,-1.26893 c 0.45902,-3.93295 0.65347,-5.0683 0.87195,-5.0683 z m 15.3606,15.07668 -2.42479,0.0438 c -1.33286,0 -2.70925,0.0437 -3.0807,0.088 -0.34961,0.0194 -6.37938,0.17359 -13.39307,0.32676 -6.99187,0.15317 -12.78231,0.35059 -12.84786,0.46 -0.0656,0.1094 -0.0671,1.90027 0.0194,3.99781 l 0.17602,3.7792 4.63107,-0.10795 4.63353,-0.1308 0.13081,5.44019 c 0.0875,2.99337 0.15317,6.44541 0.15317,7.66897 0,1.2236 0.0642,2.27308 0.17359,2.3168 0.19645,0.13128 18.04933,-0.23973 20.56204,-0.41478 l 1.83433,-0.13323 -0.15317,-7.79963 c -0.0656,-4.28251 -0.19644,-9.52558 -0.28396,-11.66683 z m 296.1333,3.04549 c -0.4347,-0.01 -0.44249,0.0194 -0.44249,0.0554 0,0.0438 -0.15171,1.8372 -0.32676,4.00034 -0.17456,2.1631 -0.32919,4.08433 -0.32919,4.25913 0,0.21833 3.36642,2.31655 9.15656,5.68141 5.02542,2.94971 9.13239,5.37635 9.08873,5.42007 -0.0243,0.0194 -2.59887,-0.13178 -5.70149,-0.37199 -12.89133,-1.00508 -13.00224,-1.00698 -13.17705,-0.70108 -0.17456,0.28398 -0.7869,8.2817 -0.6558,8.41279 0.0438,0.0438 3.6267,0.32822 7.95294,0.65581 4.32623,0.32773 11.73491,0.87491 16.47626,1.24636 4.71951,0.3715 8.60777,0.63417 8.65149,0.59051 0.0437,-0.0438 0.17554,-1.48599 0.30682,-3.23397 0.13129,-1.74797 0.30634,-3.67251 0.37198,-4.28426 l 0.10796,-1.11318 -9.11135,-5.3321 c -5.00353,-2.92786 -8.93605,-5.35378 -8.7394,-5.39744 0.19644,-0.0438 4.39192,0.24166 9.32991,0.61312 4.93803,0.39337 9.02318,0.65604 9.08873,0.5905 0.13129,-0.15317 0.78768,-8.45685 0.67846,-8.56606 -0.0437,-0.0656 -2.68737,-0.30488 -5.87742,-0.54528 -20.38567,-1.55679 -25.54418,-1.9473 -26.84903,-1.98007 z m -303.77966,5.0381 0.15317,2.01022 c 0.0656,1.09251 0.1308,2.79677 0.1308,3.80186 v 1.7916 l -3.64854,0.088 c -2.03199,0.0438 -3.73704,0.0637 -3.82442,0.0194 -0.10941,-0.0656 -0.17602,-1.7472 -0.17602,-3.7792 v -3.69129 l 2.25144,-0.088 c 1.22361,-0.0194 2.88459,-0.0885 3.6712,-0.11038 z m 8.36753,16.67227 c -0.30586,-0.0194 -1.96587,0.23924 -3.71385,0.54528 -2.57826,0.48091 -3.16842,0.65474 -3.23397,0.98252 -0.0438,0.19645 0.19742,1.90188 0.52515,3.75912 0.32774,1.85719 0.54626,3.42968 0.50259,3.49523 -0.0656,0.0438 -5.35285,1.02735 -11.7548,2.16352 -6.38006,1.11435 -11.66834,2.09721 -11.71205,2.14088 -0.0875,0.0875 1.15723,7.64694 1.26644,7.73432 0.0243,0.0243 5.33175,-0.8949 11.77741,-2.05291 6.46749,-1.13617 11.79978,-2.03131 11.86532,-1.9876 0.0438,0.0656 0.39241,1.76981 0.76391,3.80181 0.34961,2.01016 0.67744,3.69206 0.72116,3.71389 0.17505,0.17505 7.58281,-1.33286 7.56092,-1.50767 0,-0.13129 -0.9177,-5.31001 -2.01021,-11.49344 l -2.01022,-11.25221 z m 292.85163,8.41026 -0.83174,2.92991 c -0.43714,1.59506 -1.04695,3.71317 -1.30913,4.69637 l -0.50255,1.76903 3.51785,3.23392 c 1.94461,1.76981 3.77914,3.45171 4.06316,3.71389 0.52443,0.4809 0.5253,0.52458 0.24119,1.72629 -0.19645,0.85212 -0.37199,1.18121 -0.59051,1.11566 -1.00508,-0.39338 -8.91392,-2.53561 -9.08873,-2.47006 -0.28397,0.0875 -2.55866,8.06283 -2.36197,8.25953 0.0656,0.0875 3.47505,1.07077 7.56093,2.22882 4.08587,1.13618 11.18759,3.12408 15.79784,4.43506 5.02541,1.42019 8.43418,2.27196 8.54344,2.14087 0.19645,-0.21833 6.57593,-22.81022 6.57593,-23.29093 0,-0.3715 -21.56629,-6.46725 -21.82848,-6.16135 -0.0875,0.10941 -0.39192,1.02604 -0.67594,2.05296 -0.28397,1.02691 -0.54679,1.90192 -0.59051,1.96752 -0.0437,0.0438 -1.98833,-1.81245 -4.3044,-4.12852 z m 14.70732,14.71734 c 0.45367,0.0243 1.54332,0.28251 3.29674,0.77397 1.90091,0.5462 3.49425,1.02672 3.53797,1.07043 0.0438,0.0438 -0.34913,1.59612 -0.85182,3.47515 -0.76472,2.73123 -1.00499,3.36486 -1.28905,3.29932 -0.19645,-0.0656 -1.76991,-0.52443 -3.51789,-1.00514 -1.74798,-0.50254 -3.19025,-0.9388 -3.23396,-0.98251 -0.0438,-0.0438 1.4428,-5.50779 1.81425,-6.57841 0.01,-0.0438 0.0924,-0.0608 0.24361,-0.053 z m -302.44544,0.92723 c -0.1094,-0.0194 -2.20729,0.76644 -4.67628,1.77152 -2.46899,0.9832 -9.0243,3.60448 -14.57409,5.78941 -5.57167,2.2068 -10.11647,4.10722 -10.11647,4.21644 0,0.26208 2.64458,6.99244 2.81934,7.18908 0.0656,0.0656 4.80572,0.47994 10.50844,0.91717 5.70276,0.43715 10.61969,0.8081 10.92555,0.85182 0.32772,0.0194 -3.05838,1.46532 -8.52079,3.62846 -4.98175,1.96645 -9.13376,3.62646 -9.19931,3.7139 -0.19644,0.19644 2.6652,7.23173 2.92739,7.23173 0.28396,0 29.04028,-11.3621 29.2588,-11.55874 0.13128,-0.13129 -2.51271,-7.12189 -2.79673,-7.42779 -0.0438,-0.0438 -4.89549,-0.46 -10.79489,-0.89704 -5.89941,-0.45902 -10.77131,-0.85085 -10.81503,-0.89456 -0.0194,-0.0438 3.91069,-1.66221 8.73946,-3.56311 4.85061,-1.90095 8.93576,-3.53855 9.08873,-3.62593 0.19644,-0.13129 -0.13128,-1.13642 -1.15839,-3.73651 -0.78662,-1.9665 -1.52835,-3.58401 -1.61573,-3.60585 z m 10.4004,24.62521 c -0.0656,0 -4.26083,2.38088 -9.32996,5.28687 -5.06908,2.90604 -9.242,5.35354 -9.242,5.4628 0,0.0875 0.48139,1.02677 1.0931,2.07556 l 1.09051,1.90218 -5.7894,0.0652 c -3.19006,0.0243 -5.78947,0.10843 -5.78947,0.19596 0,0.0656 0.96025,1.79242 2.11826,3.82447 l 2.12079,3.71389 3.51788,-0.19596 c 1.92279,-0.0875 4.36781,-0.17602 5.46027,-0.17602 h 1.96752 l 0.59051,1.09309 c 0.30585,0.58992 0.54625,1.13632 0.50254,1.2237 -0.0438,0.0656 -1.35519,0.8523 -2.88469,1.72629 -1.52945,0.89583 -3.36569,1.94361 -4.04303,2.33688 l -1.24384,0.72117 1.9223,3.34449 c 1.04875,1.81352 1.98716,3.31939 2.11826,3.31939 0.34962,0 27.37749,-15.49062 27.39932,-15.68726 0,-0.24021 -11.42594,-20.25473 -11.57887,-20.23289 z m -2.29419,10.55366 c 0.10941,0.0437 0.67828,0.85109 1.24637,1.83434 0.56808,0.98325 1.37472,2.4265 1.81172,3.19122 l 0.78646,1.3971 -3.27666,1.87956 c -1.81352,1.02697 -3.36593,1.87956 -3.47514,1.87956 -0.24021,0 -3.84348,-6.33757 -3.66867,-6.49049 0.32773,-0.34962 6.37929,-3.73495 6.57592,-3.69129 z m 250.76513,17.12711 c -0.31169,0.0865 -1.87806,1.58425 -4.52049,4.34962 -2.38161,2.51271 -5.02371,5.24384 -5.83216,6.096 l -1.50767,1.55289 2.57811,3.146 c 1.44207,1.72609 5.98688,7.2754 10.11647,12.32264 4.10771,5.04725 7.53734,9.22167 7.58101,9.28722 0.0875,0.0875 5.13321,-5.15763 5.26431,-5.48536 0.0438,-0.10941 -0.91659,-1.30967 -2.11831,-2.6862 -1.22356,-1.35465 -2.20798,-2.57865 -2.18609,-2.66602 0,-0.10941 1.20211,-1.44315 2.66607,-2.9726 l 2.66602,-2.79673 2.73142,2.16348 2.73138,2.16348 0.72115,-0.67842 c 0.41526,-0.39338 1.61553,-1.63872 2.68616,-2.79673 l 1.94491,-2.11825 -8.80476,-6.51063 c -4.82877,-3.58333 -10.50907,-7.80123 -12.60661,-9.35256 -2.0976,-1.5513 -3.93208,-2.90609 -4.06317,-3.0153 -0.01,-0.005 -0.0292,-0.01 -0.0486,-0.002 z m -227.67015,3.54302 c -0.10941,0 -1.2664,1.13448 -2.5555,2.53289 l -2.38215,2.53536 1.09309,1.00514 c 0.58992,0.56809 2.86068,2.73123 5.04564,4.80694 l 3.99783,3.80181 -1.65842,1.83433 c -0.9177,1.00508 -1.75021,1.83682 -1.85947,1.83682 -0.0875,0 -1.37551,-1.15787 -2.83942,-2.5781 -1.46396,-1.39837 -2.77446,-2.62134 -2.92739,-2.70877 -0.17505,-0.1094 -1.07126,0.67555 -2.60076,2.31427 -1.26727,1.37652 -2.31675,2.55681 -2.31675,2.66607 0,0.0875 1.26878,1.39968 2.84195,2.9073 l 2.83942,2.75145 -1.72624,1.85695 -1.7263,1.83686 -1.07043,-0.96238 c -0.56809,-0.52442 -2.79639,-2.64429 -4.93765,-4.67629 -2.16309,-2.05387 -4.02076,-3.75814 -4.17369,-3.80185 -0.15317,-0.0194 -1.33248,1.07169 -2.64346,2.47005 -1.98828,2.14127 -2.31515,2.57899 -2.05291,2.81934 0.17456,0.15318 3.40907,3.21121 7.18904,6.79455 3.77998,3.58333 7.23198,6.86111 7.66897,7.25439 l 0.78652,0.74129 5.68141,-5.96281 c 3.12446,-3.27748 8.03964,-8.47975 10.94563,-11.53871 l 5.28687,-5.54818 -0.5905,-0.5905 c -0.34962,-0.30586 -2.86125,-2.71018 -5.63615,-5.33214 -2.75306,-2.62193 -6.03079,-5.74532 -7.25439,-6.9252 -1.22356,-1.1799 -2.31558,-2.14088 -2.42479,-2.14088 z m 228.96173,6.1613 c 0.0875,0.0438 1.72576,1.2891 3.64854,2.79673 1.94462,1.50762 3.51789,2.77392 3.51789,2.83946 0.0194,0.19645 -4.30493,4.69759 -4.39232,4.58833 -1.00508,-1.15806 -5.19842,-5.94122 -5.61353,-6.40005 l -0.54781,-0.5905 1.61824,-1.63833 c 0.89582,-0.89583 1.70344,-1.61747 1.76899,-1.59564 z m -14.3103,4.12852 c -0.13129,0 -4.17374,3.10326 -8.98064,6.90512 -4.80693,3.77998 -8.91547,6.99162 -9.13395,7.16643 -0.37149,0.26209 0.39435,1.28881 9.35257,12.75988 5.35315,6.86078 9.81043,12.47591 9.89781,12.47591 0.0875,0 2.3589,-1.72512 5.0683,-3.84455 2.70934,-2.11937 6.81788,-5.31016 9.13395,-7.12369 2.29419,-1.79169 4.19383,-3.3634 4.19383,-3.47266 0,-0.0875 -1.66007,-2.31815 -3.7139,-4.94012 l -3.71389,-4.76172 -1.24637,-0.1308 c -0.69918,-0.0875 -1.9222,-0.15414 -2.70876,-0.17603 l -1.44232,-0.0243 0.50254,-2.24891 c 0.28397,-1.22356 0.5252,-2.40486 0.5252,-2.62333 0,-0.45902 -7.38475,-9.98504 -7.73437,-9.96316 z m -193.54412,9.37518 c -0.0656,0 -0.87568,1.15709 -1.7715,2.5555 -0.89583,1.4202 -4.69662,7.38485 -8.43288,13.26242 -3.75814,5.85569 -6.77368,10.77107 -6.75185,10.88033 0.0875,0.21833 19.3802,12.62922 19.64239,12.62922 0.0656,0 1.63978,-2.38015 3.47515,-5.26431 l 3.36462,-5.28935 -0.80913,-2.40223 c -0.43714,-1.33281 -0.76488,-2.44647 -0.72116,-2.49014 0.0194,-0.0438 0.89708,-0.17456 1.90217,-0.28397 3.49596,-0.41526 2.81749,0.15171 6.42266,-5.48541 1.76981,-2.75301 3.23474,-5.17742 3.25657,-5.35217 0.0194,-0.21833 -3.49653,-2.57923 -9.70184,-6.55584 -5.35315,-3.40858 -9.78781,-6.20405 -9.8752,-6.20405 z m 191.57665,0.43472 c 0.0194,0 0.54659,0.63562 1.1584,1.42218 1.00508,1.26732 1.11487,1.5298 1.09304,2.44746 -0.0243,2.31606 -0.1308,2.51275 -2.42484,4.3044 -1.15806,0.9177 -2.18745,1.65846 -2.29666,1.65846 -0.17457,-0.0243 -3.60288,-4.39106 -3.73398,-4.78434 -0.0438,-0.15317 5.94185,-5.04816 6.20404,-5.04816 z m -17.43617,5.30947 c -0.15268,-0.0194 -4.7855,2.53503 -10.26974,5.68137 -7.4944,4.28252 -9.98445,5.81295 -9.87519,6.0533 0.39338,1.07064 15.53585,27.28973 15.73248,27.24606 0.1313,-0.0194 4.78449,-2.6439 10.31244,-5.81207 6.38011,-3.64888 10.02972,-5.85511 9.92046,-6.00803 -0.0656,-0.13129 -3.60609,-6.29191 -7.8449,-13.67705 -4.21696,-7.3852 -7.82257,-13.46175 -7.97555,-13.48358 z m -171.03722,4.04557 c 0.0982,-0.01 0.18916,0.0389 0.30391,0.10795 0.24021,0.15317 1.77132,1.11318 3.34449,2.11826 1.59506,1.02697 2.90477,1.92283 2.90477,2.01026 0,0.0875 -0.43617,0.83062 -0.98247,1.66094 -0.96141,1.48575 -0.98373,1.52994 -2.38209,1.87956 -0.78662,0.19644 -1.5724,0.34913 -1.76904,0.34913 -0.30585,0 -4.08685,-2.27211 -4.7642,-2.86208 -0.10941,-0.0875 0.56736,-1.33277 1.48506,-2.79672 1.21262,-1.90091 1.56549,-2.43783 1.85943,-2.46754 z m 194.76787,1.89716 c 0.49262,-0.0194 1.09606,0.1099 2.09565,0.30634 0.58997,0.10941 1.02823,0.46048 1.90222,1.5529 0.63363,0.7866 1.13423,1.48559 1.09051,1.57302 -0.0194,0.0875 -1.41834,1.24452 -3.10077,2.55549 l -3.06057,2.40472 -0.65581,-0.72116 c -0.34961,-0.41526 -1.26732,-1.53131 -2.01021,-2.49268 l -1.35441,-1.74637 2.22883,-1.7489 c 1.52946,-1.21539 2.04348,-1.6535 2.86456,-1.68355 z m -217.66177,2.24391 c -0.23243,0.0243 -1.12704,1.00202 -2.54043,2.78413 -1.2891,1.61689 -2.38112,3.07851 -2.42484,3.23144 -0.0656,0.21833 5.3955,4.72087 5.98548,4.91751 0.28397,0.0875 5.11337,-6.09711 4.89485,-6.27187 -0.17456,-0.17457 -5.41855,-4.3041 -5.87738,-4.65367 -0.01,-0.005 -0.0243,-0.01 -0.0389,-0.01 z m 191.01628,2.48762 c 0.10941,0.01 0.17408,0.0613 0.22854,0.14344 0.13129,0.19645 1.94394,3.34264 3.99782,6.94781 2.07571,3.62705 3.75659,6.66272 3.75659,6.77193 0,0.19694 -6.18284,3.80186 -6.51057,3.80186 -0.19645,0 -8.2147,-13.96058 -8.0836,-14.09168 0.0438,-0.0438 1.55031,-0.91794 3.34196,-1.94486 2.19591,-1.26182 2.94138,-1.65082 3.26912,-1.62831 z m -140.63761,1.27903 c -0.0875,0 -0.28349,0.21785 -0.41478,0.47993 -0.83028,1.57317 -11.18666,20.62715 -11.25221,20.69274 -0.0438,0.0438 -0.61171,-0.15268 -1.28905,-0.41477 -0.67731,-0.26209 -1.24534,-0.46096 -1.28906,-0.4172 -0.17456,0.24021 -2.73157,7.05814 -2.66602,7.12369 0.0438,0.0437 1.90056,0.80961 4.15109,1.6836 2.86231,1.13617 4.10795,1.52916 4.23904,1.35435 0.10941,-0.13128 2.6669,-4.72014 5.70403,-10.20438 3.01525,-5.48424 5.61465,-10.13918 5.78941,-10.35765 0.26209,-0.3715 0.39289,-0.3501 2.35949,0.41477 l 2.07557,0.80912 -4.34709,11.07886 c -2.38162,6.07417 -4.30538,11.16556 -4.26166,11.27482 0.0875,0.28398 7.01423,2.94893 7.18903,2.77412 0.3715,-0.32774 11.58029,-29.34458 11.40549,-29.4975 -0.21834,-0.19645 -17.15308,-6.79454 -17.39343,-6.79454 z m 122.20643,0.0243 c -0.0656,0 -1.72658,0.56648 -3.6712,1.24383 -1.96645,0.6773 -3.56063,1.33306 -3.56063,1.44233 0,0.1094 0.83003,2.6435 1.857,5.65875 1.02691,2.99342 1.83355,5.48366 1.81168,5.50549 -0.13129,0.0875 -7.27526,2.49116 -7.29709,2.44745 0,-0.0194 -0.52326,-1.5277 -1.11318,-3.31935 -0.6118,-1.81353 -1.48778,-4.32696 -1.92478,-5.61606 l -0.80659,-2.33688 -3.51789,1.22122 c -1.94462,0.65547 -3.62724,1.26771 -3.7365,1.37697 -0.15318,0.15317 9.61334,29.23628 10.02846,29.95735 0.1094,0.13129 3.19039,-0.85289 7.25444,-2.3168 0.19644,-0.0656 -0.30731,-1.79247 -1.68356,-5.83468 -1.07062,-3.14634 -1.92152,-5.74672 -1.89969,-5.74672 0.0194,-0.0194 1.57274,-0.56746 3.42993,-1.20109 1.85724,-0.63363 3.49484,-1.20265 3.62593,-1.24632 0.13129,-0.0438 1.02736,2.2512 2.16353,5.61602 1.13618,3.34303 2.03394,5.68142 2.20875,5.68142 0.30585,0 7.03437,-2.29453 7.20912,-2.44745 0.0438,-0.0656 -4.3e-4,-0.39435 -0.15316,-0.74378 -0.1313,-0.34961 -2.24999,-6.53201 -4.71899,-13.7424 -5.20021,-15.27288 -5.33073,-15.62113 -5.50548,-15.5993 z m -156.44304,2.37957 c 0.0656,0 1.13496,0.65576 2.40223,1.44237 1.24543,0.80844 2.29496,1.46571 2.31679,1.48754 0.0438,0.0243 0.21784,0.80611 0.41477,1.72377 l 0.32676,1.68354 -1.02521,1.63833 c -0.96136,1.52951 -1.07238,1.6166 -1.48754,1.35441 -3.40853,-2.11943 -6.24678,-4.01999 -6.24678,-4.15108 0,-0.21833 3.14634,-5.17888 3.29926,-5.17888 z m 53.59502,5.24418 c -0.15268,0 -0.32627,0.26258 -0.39192,0.59051 -0.76473,3.67076 -5.35266,30.54488 -5.22157,30.67597 0.0875,0.0656 1.74765,0.41624 3.64855,0.74382 1.92278,0.32774 3.60541,0.63471 3.7365,0.67842 0.15317,0.0656 3.01579,-3.67285 6.6865,-8.74193 3.51779,-4.87249 6.44357,-8.82587 6.4654,-8.78215 0.0656,0.0438 -0.54523,3.62622 -2.33688,13.67705 -0.4809,2.70935 -0.87447,5.06932 -0.87447,5.24413 0,0.26209 0.87555,0.4809 3.84708,1.00514 2.53454,0.43713 3.86619,0.59016 3.9099,0.43713 0.17457,-0.52442 5.35218,-30.26164 5.35218,-30.69864 0,-0.28397 -0.17408,-0.48042 -0.47994,-0.56789 -0.83027,-0.17456 -6.86076,-1.20109 -7.10107,-1.20109 -0.13129,0 -3.10166,3.97501 -6.64128,8.8475 -3.51779,4.8506 -6.42344,8.80651 -6.44527,8.78467 -0.0194,-0.0243 0.74149,-4.3715 1.68102,-9.65915 0.93954,-5.2876 1.66022,-9.63474 1.63833,-9.65657 -0.0875,-0.0875 -7.12339,-1.37702 -7.47301,-1.37702 z m 79.55456,0.5252 c -0.13129,-0.0243 -5.30904,0.87326 -11.53618,1.9876 -6.20525,1.09247 -11.33993,2.05524 -11.40548,2.12079 -0.15317,0.13129 5.26611,30.95927 5.46275,31.15591 0.0875,0.10941 20.69075,-3.38495 22.56977,-3.82194 0.34962,-0.0875 0.48188,-0.26403 0.46,-0.70108 -0.0194,-1.20172 -5.35407,-30.69761 -5.55071,-30.74128 z m -53.61764,4.06312 -0.11038,0.9197 c -0.0656,0.52437 -0.21832,6.68416 -0.34913,13.71974 -0.13129,7.03558 -0.28396,13.76516 -0.34912,14.98872 l -0.1308,2.20875 3.90985,0.1308 c 2.14126,0.0656 3.95566,0.0647 4.04309,-0.0243 0.0656,-0.0875 0.19644,-3.80142 0.28397,-8.23686 0.0875,-4.45733 0.2193,-8.95963 0.30634,-10.00843 l 0.1308,-1.92225 3.16861,6.35731 c 1.74797,3.47412 3.21111,6.33722 3.27665,6.33722 0.0656,0 1.63804,-2.77538 3.49528,-6.18391 l 3.38723,-6.16134 0.0652,1.26897 c 0.0438,0.69918 -0.0243,5.21982 -0.15317,10.04859 -0.10941,4.82872 -0.17262,8.80554 -0.15074,8.82737 0.0194,0.0194 1.7895,0.0666 3.95264,0.11038 l 3.935,0.0652 0.15316,-6.1186 c 0.0656,-3.36482 0.26112,-10.48662 0.39192,-15.81793 0.13129,-5.33132 0.21979,-9.70087 0.17603,-9.74453 -0.0438,-0.0243 -1.85812,-0.10941 -4.04304,-0.15318 l -3.95513,-0.11037 -3.47519,6.29448 c -1.9009,3.47407 -3.49503,6.31461 -3.56058,6.31461 -0.0656,-0.0194 -1.52795,-2.90739 -3.25405,-6.42519 l -3.12591,-6.40252 -2.64342,-0.15317 c -1.44207,-0.0656 -3.23308,-0.1308 -3.99786,-0.1308 z m -67.42787,3.27919 c -0.0438,0 -0.23972,0.21784 -0.41477,0.47992 -0.58992,0.93954 -3.27861,6.48855 -3.19122,6.57598 0.0656,0.0438 1.66142,0.8737 3.54049,1.85695 3.0808,1.595 3.45117,1.74997 3.62594,1.42219 0.1094,-0.21833 0.96189,-1.83599 1.87955,-3.6058 l 1.6836,-3.21136 -3.49781,-1.77151 c -1.94461,-0.96137 -3.56038,-1.74637 -3.62592,-1.74637 z m 113.88661,1.81425 c 1.06923,-0.0437 0.97932,0.45367 1.23879,1.94233 2.55642,14.39889 2.49092,13.80883 2.01021,13.98363 -1.00509,0.34962 -6.97077,1.29047 -7.12374,1.11567 -0.0875,-0.0875 -0.69792,-3.43027 -1.3971,-7.38505 -0.67735,-3.97662 -1.28881,-7.5179 -1.35435,-7.86751 l -0.11039,-0.65581 3.23397,-0.5679 c 1.80258,-0.31946 2.86125,-0.53925 3.50281,-0.56536 z" style="display:inline;fill:#fff;stroke:none;stroke-width:.00449348"/><path d="m 307.15903,152.27201 c -1.11433,0 -2.12035,0.0443 -2.25145,0.0879 -0.10925,0.0437 -0.80673,0.23883 -1.52777,0.45733 -3.38668,0.98324 -6.79711,2.84146 -8.80728,4.76423 -1.72612,1.63872 -2.57661,3.36558 -3.53799,7.12372 -0.39329,1.50762 -0.94045,3.34289 -1.24634,4.08578 l -0.52517,1.33176 0.67845,2.88467 0.69855,2.86206 -1.63833,1.70366 c -1.37652,1.46393 -1.72509,1.96732 -2.33688,3.5405 -0.65549,1.70426 -0.87364,2.0092 -3.146,4.34711 -3.99847,4.10773 -6.73036,8.19396 -8.41278,12.56388 -5.30945,13.69969 -0.72136,27.86 11.25222,34.69893 7.14482,4.08586 14.88005,4.62999 23.68544,1.65843 2.05386,-0.67734 7.36204,-2.8836 9.00076,-3.71388 l 0.85184,-0.43724 -0.17339,2.47008 c -0.28405,3.91106 -0.15326,8.47768 0.34928,12.91315 l 0.47994,4.08577 -0.43722,2.46755 c -0.89584,4.95986 -6.51058,25.63036 -9.30733,34.2391 -1.13618,3.53964 -1.50832,5.39617 -1.31167,6.79455 0.1748,1.26728 1.11494,3.27855 2.09817,4.48028 1.00508,1.20173 25.80425,28.22844 29.69348,32.31431 12.51983,13.24087 17.32631,18.07127 19.13982,19.273 0.50255,0.30589 0.5691,0.30436 0.9624,-0.0452 0.39329,-0.34959 0.43713,-0.32588 1.22372,0.19851 0.89584,0.61179 0.82938,0.63274 2.5555,-0.74378 1.42022,-1.11433 1.46405,-1.35498 0.72117,-2.95 -1.00509,-2.18496 -3.55998,-5.11318 -8.061,-9.26461 -1.74796,-1.59502 -4.72025,-4.58741 -6.62116,-6.64127 -1.92277,-2.07571 -5.98706,-6.3135 -9.046,-9.43799 -3.05895,-3.12449 -7.03648,-7.25641 -8.85,-9.17917 -1.79167,-1.92277 -5.94194,-6.20403 -9.21938,-9.50333 -6.59858,-6.68598 -6.92619,-7.12423 -6.8825,-9.50583 0.0218,-1.37653 0.54567,-3.36393 2.70878,-10.15916 1.98831,-6.22714 4.02148,-13.19677 5.98795,-20.64749 2.22866,-8.4121 2.29381,-8.93693 1.63833,-15.57921 -0.89584,-9.15498 -0.41466,-13.52562 1.87956,-17.02155 1.13617,-1.72611 1.20058,-1.74755 2.11827,-0.63322 1.15803,1.44208 1.2236,1.74778 1.00511,4.87227 -0.28405,4.06403 0.0444,9.04585 1.31167,19.73032 0.78658,6.75153 1.09131,10.37818 1.11315,13.04383 0,3.10265 -0.12984,3.47566 -1.89966,5.35472 -1.13617,1.17989 -1.181,1.28943 -1.181,2.44745 0,1.79167 1.81316,12.86869 2.64344,16.18982 0.1311,0.4807 0.41625,1.5302 0.67845,2.31678 0.43699,1.44208 0.43769,1.46375 1.31167,1.573 0.50254,0.0656 0.95966,0.21742 1.02521,0.32666 0.0655,0.10925 1.00493,0.26188 2.07555,0.34928 1.09249,0.0656 2.01176,0.19752 2.05546,0.24123 0.21849,0.19665 0.45732,2.20779 0.45732,3.75911 0.0218,0.85213 -0.17426,2.5765 -0.41461,3.82193 -0.78658,3.95478 -0.48072,4.63154 6.59856,14.11427 4.12958,5.52795 5.00406,6.46855 6.18394,6.77445 2.35976,0.58994 3.10322,0.69855 4.89489,0.69855 h 1.96499 l 0.41712,1.13577 c 0.74289,1.96647 0.9825,3.67147 0.9825,6.62118 l -0.0226,2.84194 2.22883,2.27156 c 3.36484,3.45223 7.6257,7.25444 10.33505,9.2646 1.33283,0.98323 2.42406,1.85749 2.40222,1.9449 -0.0437,0.17479 -26.43661,34.34565 -30.58803,39.61141 -4.39178,5.5498 -6.05328,7.82425 -6.05328,8.2394 0,0.54624 0.96219,1.48504 1.53027,1.48504 0.24035,0 0.85185,-0.37212 1.35439,-0.80911 1.90091,-1.68242 8.63055,-8.03907 9.89783,-9.35004 0.72104,-0.76474 4.65356,-4.50191 8.73944,-8.34744 4.08587,-3.84553 11.12168,-10.46671 15.64455,-14.72738 4.50102,-4.26068 9.15616,-8.60782 10.29233,-9.65661 l 2.09566,-1.92227 1.83684,0.0653 1.81423,0.0653 0.17337,2.07555 c 0.0874,1.13619 0.3069,2.27069 0.45984,2.53289 0.1748,0.24035 2.01083,1.37834 4.10839,2.49267 9.41718,5.09096 11.66762,6.09439 16.49638,7.33982 2.6438,0.67734 3.21152,0.74378 5.94272,0.74378 2.07572,0 3.34266,-0.10893 4.1511,-0.34927 1.39838,-0.41515 1.52976,-0.32716 2.44745,1.59561 0.43698,0.91769 0.89554,1.55028 1.35438,1.83432 2.77491,1.70427 13.6999,4.34963 17.93873,4.34963 2.906,0 5.57172,-0.3941 6.81715,-1.02772 4.76322,-2.33792 20.3841,-16.25647 39.7647,-35.37489 4.78508,-4.74135 5.1783,-5.31067 5.59344,-8.50072 0.3059,-2.42531 -0.0649,-8.73964 -0.69855,-11.97339 -0.45884,-2.35974 -1.44201,-5.7889 -1.7916,-6.20403 -0.10925,-0.13109 -0.87263,-0.50399 -1.68105,-0.83173 -1.28913,-0.48069 -1.61739,-0.72022 -2.38211,-1.76899 l -0.91718,-1.22373 0.56789,-0.91716 c 1.15803,-1.85721 1.46211,-2.75436 1.30916,-3.91239 -0.0656,-0.61179 -2.09692,-7.01271 -4.50039,-14.24493 l -4.39233,-13.1544 -2.22882,-1.55037 c -2.88415,-2.01017 -3.05849,-2.16362 -2.9274,-2.38212 0.0656,-0.10925 3.60509,-3.32091 7.88761,-7.16644 4.26068,-3.84553 7.64855,-7.03556 7.49561,-7.10111 -0.15295,-0.0437 -5.76888,-1.68306 -12.49854,-3.60582 l -12.21462,-3.49529 -0.19599,-0.76389 c -0.30589,-1.33282 -2.46804,-3.95626 -8.65149,-10.4456 -1.74797,-1.85723 -3.21286,-3.43049 -3.25656,-3.51788 -0.0655,-0.1748 23.26949,-28.68819 49.27053,-60.17347 3.97662,-4.82876 7.25438,-8.82719 7.25438,-8.89274 0.0218,-0.0656 -0.50136,-0.15153 -1.11315,-0.17337 -0.63365,-0.0218 -2.18528,-0.19709 -3.45255,-0.37188 -2.62196,-0.37145 -10.99094,-1.31094 -20.10223,-2.29417 -10.1819,-1.09249 -24.73474,-2.86377 -42.27997,-5.13613 -4.80692,-0.63364 -5.74467,-0.6969 -6.1161,-0.4347 -0.24036,0.15295 -3.91166,7.10003 -8.19417,15.53398 -18.35367,36.13926 -17.39367,34.2828 -17.83067,34.2391 -0.2185,-0.0218 -1.24462,-0.30798 -2.27155,-0.63574 -1.57317,-0.52438 -2.22846,-0.6106 -4.36972,-0.6106 -2.33791,-0.0218 -2.62151,0.0214 -3.93249,0.63322 -0.76474,0.34959 -2.25224,1.26811 -3.27918,2.03283 -1.83536,1.37652 -1.8786,1.39677 -2.92739,1.24383 -0.56808,-0.0656 -1.94371,-0.37005 -3.05805,-0.67594 -6.46748,-1.72612 -22.89912,-4.15124 -33.23398,-4.87227 l -2.83943,-0.19599 -1.87956,-2.03285 c -2.92785,-3.19005 -28.73225,-31.59463 -34.71904,-38.23691 -7.29777,-8.10622 -8.82798,-9.70143 -10.423,-10.83762 -1.94461,-1.39837 -3.32044,-1.81345 -5.78944,-1.7916 z m -2.31678,3.25656 c 0.19664,0 5.46253,5.57191 12.12666,12.84782 6.46748,7.05743 17.37167,18.96437 24.2106,26.43694 6.86078,7.4944 12.45332,13.72259 12.45332,13.87554 0,0.1311 -2.053,2.03149 -4.56571,4.21645 l -4.58833,3.97521 -2.14089,-1.07045 c -1.17988,-0.58994 -2.1859,-1.07044 -2.25145,-1.07044 -0.0437,0 0.43583,0.85262 1.11317,1.87956 0.65548,1.02693 1.15861,1.92206 1.09306,1.98761 -0.2185,0.2185 -1.61628,-0.17438 -2.20623,-0.63323 -0.30589,-0.24034 -1.07176,-1.04795 -1.68355,-1.76898 l -1.09055,-1.3343 0.50256,-0.43723 c 0.30589,-0.26217 0.80802,-0.6542 1.13577,-0.89454 l 0.61061,-0.43722 -1.11317,-2.14089 c -0.91768,-1.72612 -1.20253,-2.51424 -1.53027,-4.34961 -0.2185,-1.24542 -0.52299,-2.68693 -0.67594,-3.21132 l -0.28394,-0.9599 -1.42224,0.1533 c -0.80844,0.0656 -1.87859,0.13066 -2.42483,0.13066 h -0.98249 l -0.63323,1.63833 c -0.34959,0.89584 -0.74334,1.63833 -0.87444,1.63833 -0.54624,0 -10.11706,-10.0512 -16.51899,-17.37083 -3.77999,-4.32623 -8.80452,-9.87627 -11.16427,-12.34528 -8.04066,-8.43394 -8.28212,-8.74025 -8.28212,-10.77227 0,-2.35975 1.94478,-4.91398 5.52811,-7.25188 1.92277,-1.24542 4.95959,-2.70954 5.65878,-2.73138 z m 138.88871,5.59344 c 0.0705,-0.0209 0.13503,-0.0136 0.20604,0 0.32775,0.0437 7.12243,0.93807 15.1194,1.965 7.99694,1.02693 15.07701,1.94619 15.7325,2.05543 2.66563,0.45884 6.9038,1.07024 11.09893,1.63833 5.02539,0.65549 12.17145,1.87794 12.30255,2.11828 0.0437,0.0874 -3.7586,4.9593 -8.47812,10.815 -4.7195,5.85568 -15.55683,19.35928 -24.10003,30.00005 -28.92889,36.00814 -31.79066,39.57153 -31.83437,39.72448 -0.0218,0.0874 10.59696,2.79442 23.59747,6.02814 27.22462,6.77339 25.10462,6.2293 25.01722,6.4478 -0.0656,0.15294 -3.45231,3.34323 -29.12561,27.5526 -7.21035,6.79522 -17.52294,16.51717 -22.94165,21.62998 -5.41868,5.1128 -15.73127,14.83475 -22.94164,21.62998 -7.21038,6.79523 -17.56797,16.56394 -23.05222,21.72044 -5.4624,5.17836 -13.32745,12.5853 -17.47887,16.49639 -4.15143,3.88923 -8.50109,7.99524 -9.65912,9.13143 -1.15803,1.11432 -2.18415,2.03283 -2.27155,2.03283 -0.0656,0 -0.0431,-0.131 0.0879,-0.28395 0.10925,-0.13109 6.88229,-8.91388 15.05405,-19.48909 8.1499,-10.57521 21.02035,-27.24719 28.58032,-37.03582 7.55996,-9.78862 17.37041,-22.52808 21.80588,-28.29638 4.45733,-5.7683 8.71674,-11.14157 9.50332,-11.92815 l 1.39963,-1.46495 -0.67846,-0.15328 c -0.37144,-0.0874 -0.96132,-0.28427 -1.28906,-0.43722 -0.32774,-0.15295 -9.91869,-2.77419 -21.34604,-5.78944 -11.40549,-3.03709 -20.77968,-5.54898 -20.82338,-5.57083 -0.0437,-0.0437 0.65455,-1.46511 1.55039,-3.19122 0.89583,-1.72612 5.20047,-10.18104 9.54855,-18.76794 4.34807,-8.5869 9.0681,-17.89443 10.48833,-20.64748 1.42022,-2.7749 6.03089,-11.86623 10.26972,-20.21279 4.23882,-8.34654 8.60759,-16.95409 9.72192,-19.1172 1.11433,-2.16312 4.8525,-9.50592 8.30474,-16.32299 5.35316,-10.59161 6.13771,-12.13076 6.63121,-12.27743 z m -151.10081,18.57194 0.52266,0.65582 c 0.28405,0.34959 0.6353,1.02697 0.7664,1.50767 0.37144,1.33282 0.87265,1.72621 3.18871,2.51277 2.42531,0.83029 1.83506,0.30403 8.45549,7.40517 6.99188,7.4944 7.93227,8.52105 11.14417,12.25731 1.70427,1.98832 3.47366,3.93448 3.93249,4.34963 1.17989,1.02693 3.12358,1.87968 5.85477,2.60072 1.28913,0.32774 2.3394,0.633 2.3394,0.69855 -0.0218,0.0656 -1.50761,1.17918 -3.29928,2.49016 l -3.29927,2.38211 -1.24634,-0.28393 c -1.72611,-0.37145 -1.85664,-0.47978 -2.70877,-2.05295 -0.437,-0.76474 -3.58452,-4.78575 -6.99306,-8.91533 -5.44055,-6.55489 -6.83804,-8.10667 -11.16427,-12.27995 -5.04726,-4.87244 -7.16592,-7.25508 -8.0836,-9.0686 -0.83028,-1.61688 -0.83028,-2.83838 0,-3.66866 z m 9.05354,1.00762 c 0.31443,0.0133 1.05615,0.37365 1.95745,0.97998 1.50762,1.00508 3.49679,3.12556 6.83978,7.27699 1.48577,1.85722 4.54327,5.26599 6.77193,7.53834 4.26068,4.39178 8.19449,8.91413 7.84489,9.02338 -0.91768,0.34959 -11.9956,-11.05587 -21.23799,-21.80587 -1.28912,-1.48577 -2.33688,-2.79804 -2.33688,-2.90729 0,-0.0765 0.056,-0.10996 0.16082,-0.10553 z m -10.19183,6.98803 c 0.0874,0.0437 1.46555,1.53022 3.06056,3.32189 1.61688,1.81352 3.66989,4.08503 4.56572,5.06827 3.43039,3.77998 9.59134,10.57624 12.10405,13.37299 l 2.60072,2.90478 -0.80911,1.72628 c -0.96139,2.01016 -1.24381,3.86882 -0.74127,4.63356 0.19664,0.28404 0.87228,0.7653 1.52777,1.09305 1.00508,0.50254 1.57295,0.63279 3.86716,0.76389 l 2.68867,0.17337 -0.67845,0.91969 c -1.35467,1.85723 -4.82747,4.14962 -8.49821,5.61355 -5.70275,2.27236 -12.01701,2.81886 -17.06427,1.44233 -0.91768,-0.26219 -2.60031,-0.91619 -3.7365,-1.46244 -1.70427,-0.80843 -2.38105,-1.28954 -3.71388,-2.66607 -2.7749,-2.79675 -4.76447,-6.20643 -5.70401,-9.78976 -0.56809,-2.14127 -0.78681,-6.29283 -0.43722,-8.82739 0.72104,-5.39686 3.54084,-11.16494 7.49561,-15.27267 1.24543,-1.31096 3.29787,-3.08087 3.47266,-3.01532 z m -10.20187,5.42007 c 0.0437,0 -0.26254,1.07037 -0.65583,2.3595 -2.9497,9.76676 -2.90643,18.0243 0.13066,24.0548 1.85722,3.71443 4.58936,6.3147 9.85511,9.32995 1.44207,0.83028 2.94794,1.79302 3.31938,2.12076 l 0.70106,0.61062 -1.83683,-0.13067 c -5.76831,-0.41514 -10.90227,-4.25965 -13.89567,-10.4431 -2.18496,-4.56657 -2.84194,-7.56088 -2.84194,-13.15439 0,-3.62704 0.0656,-4.39249 0.50255,-6.11862 0.67734,-2.57823 2.36194,-6.05101 3.65107,-7.49308 0.56809,-0.63365 1.04859,-1.13577 1.07044,-1.13577 z m 51.94413,11.52609 c 0.13041,-0.0505 0.27127,-0.0292 0.42968,0.0527 0.24034,0.1311 0.63334,0.56833 0.85183,0.93978 1.00508,1.63872 0.23997,4.80755 -1.66095,6.90511 l -0.80911,0.91716 -0.61061,-0.59049 c -0.89583,-0.85213 -0.9402,-1.22213 -0.30655,-2.46756 0.30589,-0.61179 0.74291,-1.96653 1.00511,-3.01531 0.40968,-1.78621 0.70935,-2.58986 1.1006,-2.74145 z m 29.22861,3.00529 c 1.75071,-0.0737 4.13887,0.11921 7.84238,0.54528 11.90803,1.37652 21.67542,3.49574 24.90916,5.37481 l 0.95988,0.56789 -0.67594,0.67595 c -0.56809,0.58993 -0.85448,0.70084 -2.07806,0.76639 -1.28913,0.0874 -1.79021,-0.0453 -6.26938,-1.5529 -5.61535,-1.90092 -8.71733,-2.70987 -11.09894,-2.88467 l -1.66095,-0.10804 1.31168,0.65583 c 0.72103,0.34959 3.60406,1.41898 6.42265,2.40222 5.41871,1.83537 8.58783,3.25714 9.85512,4.34962 l 0.76388,0.67592 -0.96239,0.87447 c -1.15803,1.07061 -2.03103,1.1376 -3.84456,0.32916 -0.67733,-0.28404 -1.57246,-0.63453 -1.9876,-0.74378 -0.87398,-0.24034 -0.87473,-0.23954 0.47994,1.53028 l 0.93978,1.24384 -1.35439,1.28904 c -0.74288,0.69918 -3.21379,2.84145 -5.50801,4.76422 -4.76321,3.99848 -9.43855,8.58555 -10.02849,9.78728 -0.24034,0.52439 -0.32611,1.05 -0.23871,1.3996 0.30589,1.22358 -1.31274,2.40311 -4.28428,3.146 -2.16312,0.54624 -2.59925,0.766 -4.06316,1.90218 l -1.09306,0.87193 -2.97011,-3.82193 c -1.63872,-2.11942 -2.99523,-3.73694 -2.99523,-3.60585 0,0.65549 1.26867,3.60514 2.62335,6.09601 0.85213,1.52947 1.53027,2.86184 1.53027,2.92739 0,0.0656 -0.61401,0.65618 -1.3569,1.31165 l -1.33177,1.15841 -0.87444,-0.9624 c -2.27237,-2.53455 -4.39112,-6.70816 -7.79966,-15.36061 -1.26728,-3.19005 -2.31558,-5.57203 -2.42484,-5.46278 -0.34959,0.34959 0.23863,3.82419 1.02522,6.18395 0.41514,1.26727 1.98863,4.80856 3.45255,7.8675 1.48578,3.05895 2.92904,6.20396 3.19123,6.99055 0.65549,1.79167 0.71963,4.17276 0.17339,4.719 -0.3496,0.37144 -0.41408,0.37319 -0.82922,-0.0201 -0.76474,-0.69919 -2.3154,-3.36677 -3.49528,-6.01058 -1.52947,-3.43039 -2.92833,-7.18883 -5.68138,-15.36059 l -2.3595,-6.94784 1.04782,-1.24381 c 1.07064,-1.26728 3.16973,-3.25614 7.6489,-7.18907 1.37652,-1.20171 3.73403,-3.38825 5.24165,-4.85217 1.50762,-1.44207 3.21266,-2.90369 3.82445,-3.23143 1.15803,-0.63364 2.27225,-0.97408 4.02295,-1.04782 z m 41.55631,3.44752 c 0.47625,-0.0286 1.63171,0.18957 3.25404,0.61564 1.68242,0.45884 5.9,2.31492 5.9,2.62082 0,0.13109 -4.95957,9.98414 -5.15621,10.22449 -0.10925,0.1311 -11.88544,-6.77129 -11.88544,-6.96794 0,-0.2185 5.19982,-5.02555 5.44017,-5.02555 0.0874,0 1.57239,0.47973 3.27666,1.04783 1.68242,0.58993 3.08066,1.02697 3.08066,1.00513 0,-0.0218 -0.93938,-0.76435 -2.07555,-1.63833 -1.13618,-0.85214 -2.07556,-1.65977 -2.07556,-1.76902 0,-0.0656 0.0825,-0.1035 0.24123,-0.11307 z m -30.28399,3.38975 0.63322,0.67592 c 0.87398,0.91768 2.16311,1.5078 3.80183,1.72629 0.74289,0.10926 1.35439,0.15426 1.35439,0.11057 0,-0.0437 -0.52399,-0.39398 -1.13578,-0.80912 -1.07063,-0.67734 -2.4465,-1.20079 -3.99783,-1.55038 z m -44.47866,0.28896 c 0.34686,0.0874 0.54877,0.37682 0.75634,0.91214 0.78659,2.07571 0.13148,3.01566 -2.14088,3.16861 l -1.37701,0.088 -0.26132,-0.70107 c -0.5681,-1.63872 -0.12986,-2.61986 1.39961,-3.1661 0.78659,-0.27312 1.2764,-0.38893 1.62326,-0.30153 z m -13.13178,2.30171 c 0.71285,-0.0191 1.68621,0.11875 2.65852,0.42465 0.54624,0.15294 1.39789,0.34983 1.92228,0.43723 0.50254,0.0874 0.91716,0.21664 0.91716,0.30404 0,0.52439 -1.96655,1.53028 -3.01533,1.53028 -1.17988,0 -3.38657,-1.35332 -3.58322,-2.18361 -0.0656,-0.31682 0.38776,-0.49348 1.10059,-0.51259 z m 16.98889,1.04028 c 0.28131,-0.10925 0.26602,0.0182 0.11308,0.32416 -0.1311,0.2185 -1.20377,1.7025 -2.42735,3.31937 -2.49085,3.343 -3.42942,4.98205 -4.3471,7.75695 -1.44208,4.30436 -1.74876,8.82736 -1.02773,15.9285 0.76474,7.60364 0.61279,8.54457 -3.34199,21.63249 -4.41362,14.63923 -6.22646,21.3456 -6.79455,25.27853 -0.28405,1.98832 -0.2191,2.16302 1.70366,4.58833 2.53456,3.16819 7.31836,8.19369 20.90882,22.02449 9.00204,9.17683 16.36592,16.84805 19.59966,20.43139 2.70935,3.01524 5.1796,6.00795 5.20144,6.29199 0,0.3059 -1.24582,-0.4803 -2.66604,-1.63833 -3.0808,-2.53455 -13.91783,-13.56846 -21.15005,-21.58727 -1.24543,-1.37652 -5.17795,-5.46343 -8.73944,-9.06861 -9.94157,-10.13821 -14.40067,-14.98988 -16.19234,-17.67739 -0.74288,-1.11432 -0.83041,-1.37516 -0.72116,-2.1836 0.34959,-2.25051 6.688,-26.35166 9.52845,-36.18398 1.42022,-4.89431 1.506,-6.09428 0.74127,-10.92305 -1.20173,-7.66921 -1.2237,-9.81196 -0.21862,-13.74488 0.50255,-1.92277 2.00951,-5.35208 3.49528,-7.93032 l 0.5905,-1.02774 -0.91716,-1.07044 c -0.48069,-0.61179 -0.89455,-1.13556 -0.89455,-1.20111 0,-0.0656 0.85088,-0.32906 1.89966,-0.61311 1.31098,-0.34959 2.46998,-0.85176 3.75911,-1.63832 1.03786,-0.63364 1.61583,-0.9788 1.89715,-1.08805 z m 60.88458,4.95268 c 0.92281,-0.0512 2.73449,0.25839 4.07824,0.7664 0.87398,0.32774 2.29212,1.05013 3.1661,1.61823 1.85722,1.20172 4.28429,3.40832 4.28429,3.86716 0,0.45884 -1.29071,2.68868 -1.5529,2.68868 -0.41514,0 -1.50606,-0.67923 -2.75149,-1.70617 -0.69919,-0.56809 -2.2516,-1.79186 -3.47517,-2.7314 -2.51271,-1.90092 -4.56735,-3.95304 -4.327,-4.32447 0.0601,-0.10379 0.27033,-0.16134 0.57793,-0.17843 z m -3.96265,1.29158 c 0.74289,0 1.24516,0.15275 1.85695,0.56789 1.96646,1.33282 8.82738,8.23722 8.82738,8.89271 0,0.32774 -2.25224,-0.21841 -3.27917,-0.7865 l -1.20111,-0.67594 1.05034,1.44234 c 0.56809,0.80843 1.02522,1.57256 1.02522,1.70366 0,0.37144 -5.7456,6.00921 -8.36755,8.19417 -2.55641,2.1194 -5.26526,4.04055 -5.72411,4.04055 -0.24034,0 -9.94305,-10.8576 -9.94305,-11.14165 0,-0.0656 2.622,-2.47058 5.81205,-5.35473 4.39177,-3.95479 5.9223,-5.22254 6.27189,-5.17885 0.91768,0.1311 2.68752,1.0707 4.80694,2.51278 1.17988,0.80843 2.22938,1.46495 2.31678,1.46495 0.10925,0 -1.00537,-1.17874 -2.44744,-2.62082 -2.906,-2.8623 -2.97158,-3.06056 -1.00512,-3.06056 z m -51.43402,1.92226 0.65583,0.32918 c 0.58994,0.32775 0.67585,0.54504 1.46244,3.90989 1.09248,4.61027 1.90049,7.01421 4.43505,13.28506 3.47409,8.56503 4.41428,11.62369 4.10839,13.26242 -0.48069,2.62195 -3.73493,-2.38046 -5.98544,-9.21937 -1.92276,-5.83385 -4.0423,-15.25129 -4.52299,-19.94893 z m 119.14582,13.373 c 0.0655,0 2.42558,2.31501 5.24418,5.13361 2.81858,2.81861 5.02423,5.13611 4.91499,5.13611 -0.74289,-0.0437 -14.42082,-4.13034 -14.42082,-4.32699 0,-0.28404 4.06501,-5.94273 4.26165,-5.94273 z m -87.76627,3.538 c 0.40081,0.0365 0.78116,0.13721 1.13075,0.30655 0.96138,0.45884 9.26474,8.89363 9.98578,10.13906 0.87398,1.52948 0.91856,2.03145 0.24122,2.70878 -1.02693,1.02693 -2.25085,1.00453 -4.45766,-0.088 -4.10773,-2.07573 -11.90813,-10.706 -10.619,-11.75476 1.14711,-0.95046 2.5165,-1.42128 3.71891,-1.31168 z m 28.35669,0.1985 c 0.0656,-0.0218 -1.31183,2.79704 -3.03794,6.24928 -1.72613,3.47409 -3.27777,6.44386 -3.45256,6.61866 -0.2185,0.21849 -0.76391,0.30656 -1.769,0.30656 -1.72612,-0.0218 -3.12338,-0.52323 -3.12338,-1.11317 0,-0.85213 1.48565,-2.90712 3.58322,-4.98283 2.16311,-2.16312 7.55931,-7.05665 7.79966,-7.0785 z m -34.08582,2.86206 c 0.10925,0.0437 2.35914,2.62146 5.00294,5.72411 2.6438,3.12449 4.80694,5.7465 4.80694,5.81205 0,0.24034 -3.86687,3.93406 -5.22155,4.98283 -0.65549,0.5244 -1.48473,1.09242 -1.83432,1.28906 -0.6555,0.32774 -0.6573,0.32674 -1.99012,-0.96239 -2.16311,-2.07572 -3.47386,-3.25568 -3.36461,-3.01533 0.0655,0.10924 0.5478,0.89676 1.05033,1.74888 0.50255,0.83029 1.07079,1.90066 1.22373,2.3595 0.34959,0.96139 0.41394,2.68726 0.10805,2.86206 -0.3059,0.19665 -1.90144,-1.0932 -2.88467,-2.31678 -0.50254,-0.63364 -1.61716,-2.18528 -2.44744,-3.45255 -1.87907,-2.84046 -1.70284,-2.09753 0.32917,1.50766 1.66057,2.906 2.22895,4.19736 2.44745,5.66129 0.10924,0.72103 0.0662,0.96042 -0.196,1.04782 -0.76474,0.3059 -2.77678,-1.55177 -4.5029,-4.17372 -1.55132,-2.31606 -4.41352,-8.63107 -4.08577,-8.98066 0.0655,-0.0656 0.48191,-0.15132 0.89706,-0.23872 0.65549,-0.0874 0.91652,-2.2e-4 1.61572,0.56789 0.45883,0.37144 0.87499,0.67594 0.96239,0.67594 0.0656,0 -3.3e-4,-0.50214 -0.15328,-1.13578 -0.54624,-2.07572 -0.30498,-2.84111 1.24634,-4.10839 0.52438,-0.41514 1.78989,-1.54965 2.81682,-2.53287 2.05386,-1.94463 3.88968,-3.40929 4.17372,-3.3219 z m -24.22568,1.32171 c 0.0437,-0.0164 0.0812,6.6e-4 0.10302,0.0553 0.0218,0.1311 0.89709,3.36364 1.90218,7.20918 1.02693,3.82367 1.83531,7.01468 1.7916,7.05838 -0.0437,0.0437 -0.43821,-0.23993 -0.89706,-0.63322 -1.11432,-0.98323 -1.74629,-2.38275 -2.53287,-5.48539 -0.5681,-2.22866 -0.67845,-3.12399 -0.67845,-5.22156 0,-1.39837 0.0667,-2.68648 0.17589,-2.83942 0.0437,-0.0765 0.092,-0.12686 0.13569,-0.14325 z m 44.7224,11.57135 c 0.22021,0.04 0.51841,0.14487 0.91717,0.28143 1.02693,0.37144 3.47265,1.85684 3.47265,2.14089 0,0.15295 -2.81792,5.85663 -2.99271,6.05328 -0.0437,0.0656 -0.39419,-0.2407 -0.74379,-0.65584 -0.96138,-1.15803 -1.28905,-2.557 -1.28905,-5.39744 0,-2.06479 -0.0249,-2.54215 0.63573,-2.42232 z m -2.23134,0.69855 c 0.0656,0.0437 0.0879,1.22169 0.0879,2.59821 -0.0437,4.10773 -0.37069,4.72095 -4.28177,7.93284 -0.72103,0.58994 -3.64831,3.29946 -6.5106,6.03067 -2.8623,2.70935 -5.92308,5.50409 -6.79706,6.18142 l -1.59311,1.22372 -2.44744,-1.59309 -2.42483,-1.573 0.91716,-0.96239 c 2.88415,-2.97155 13.32724,-12.47528 17.54421,-15.97122 2.29421,-1.90091 5.35255,-4.04196 5.5055,-3.86716 z m -30.52271,0.69856 c 0,-0.3496 2.00994,2.48934 3.36462,4.7617 1.20172,2.01017 2.07611,3.80319 2.66605,5.42006 0.28405,0.80844 0.26285,0.82922 -0.196,0.82922 -0.52439,0 -1.66194,-1.04906 -2.12078,-1.94489 -0.48069,-0.91768 -3.71389,-8.82575 -3.71389,-9.06609 z m -5.59846,4.23905 c 0.56263,-0.0109 1.22876,0.0856 1.7313,0.30404 1.11433,0.45884 1.83406,1.50745 3.69127,5.37483 1.68242,3.49594 2.81924,6.46903 3.10328,8.15145 0.37144,2.07572 -2.64393,2.6435 -4.523,0.85183 -1.52947,-1.46392 -3.6264,-5.70356 -4.50038,-9.13394 -0.50254,-1.94462 -0.80977,-4.67454 -0.61312,-5.19894 0.0874,-0.21849 0.54802,-0.33834 1.11065,-0.34927 z m 37.34489,3.03543 0.7865,0.7664 0.76639,0.7865 -0.85183,1.68105 c -0.48069,0.93953 -1.24733,2.14166 -1.70617,2.66605 -0.437,0.54624 -0.74072,1.04838 -0.65333,1.13578 0.10926,0.0874 2.81703,0.98405 6.05077,2.03284 l 5.9,1.85694 1.18101,1.15839 1.17849,1.15839 -0.34928,-0.83173 c -0.19664,-0.4807 -0.24166,-0.8066 -0.11056,-0.8066 0.34959,0 9.15657,2.86085 9.15657,2.97009 0,0.24036 -1.26867,0.54758 -2.62335,0.61312 -1.98831,0.10925 -3.0365,0.69776 -6.00805,3.47267 -2.6001,2.40345 -4.74109,4.13123 -5.65877,4.56822 -0.56809,0.24035 -0.6769,0.1746 -3.93249,-3.23394 -2.9497,-3.05895 -5.61596,-5.37493 -5.90001,-5.09089 -0.0655,0.0437 0.54771,0.87295 1.33428,1.83433 0.76474,0.96138 2.05209,2.53389 2.81683,3.49527 1.87907,2.31606 3.36448,5.35473 2.64344,5.35473 -0.89583,0 -3.86607,-2.81859 -7.4931,-7.10111 -1.76982,-2.07571 -6.64378,-8.4355 -6.64378,-8.654 0,-1.02693 5.63711,-6.85884 8.39016,-8.69421 z m 94.41257,8.76205 c 0.1311,0 0.74433,0.56901 1.33427,1.24635 0.61179,0.69918 1.22329,1.41906 1.35439,1.61571 0.24035,0.28404 -0.15301,0.74352 -2.51277,3.10328 -3.14634,3.12449 -6.31413,5.87731 -8.23687,7.16644 -1.33283,0.91768 -1.68273,0.96106 -2.95001,0.34927 -0.83028,-0.41514 -1.83498,-1.96632 -1.63833,-2.57811 0.50254,-1.52947 11.36019,-10.90294 12.64932,-10.90294 z m -137.74038,1.96751 c 0.10924,0 0.61313,0.85087 1.11567,1.89966 1.72612,3.73628 2.07444,5.50695 1.3971,6.83977 -0.32774,0.63365 -0.93903,1.09306 -1.41972,1.09306 -0.32774,0 -1.42038,-2.4477 -1.72627,-3.88978 -0.50255,-2.4253 -0.13152,-5.94271 0.63322,-5.94271 z m 31.46499,0.43722 c 0.0874,0 3.23416,3.73642 6.97044,8.32483 3.75813,4.56657 6.77139,8.38995 6.68399,8.4555 -0.24035,0.24034 -2.11775,-0.39409 -3.03543,-1.02773 -1.22358,-0.87398 -1.87898,-1.59451 -4.58834,-5.22155 -1.26727,-1.70427 -3.32127,-4.34791 -4.523,-5.87738 -2.73119,-3.40854 -2.86345,-3.69282 -2.18611,-4.23906 0.28404,-0.24034 0.59105,-0.41461 0.67845,-0.41461 z m 108.46151,2.93995 c 0.0819,-0.0191 0.23936,0.0648 0.54526,0.22866 0.34959,0.1748 0.94023,0.69879 1.31168,1.13578 0.83028,1.00508 1.54996,2.46917 2.68615,5.52811 0.48069,1.26727 1.50933,3.64893 2.27406,5.3095 1.63872,3.49593 2.49016,5.92068 2.49016,7.01316 0,0.96138 -0.17351,0.98301 -0.89455,0.0653 -2.8623,-3.60518 -8.50073,-16.12621 -8.50073,-18.90111 0,-0.24034 0.006,-0.36031 0.088,-0.37942 z m -111.68289,0.33923 c 0.17206,-0.0574 0.53404,0.0528 1.14583,0.30404 0.52439,0.2185 1.02708,0.76293 1.72627,1.81172 0.52439,0.80843 2.68579,3.6507 4.82705,6.2945 3.32114,4.12957 5.79195,7.64695 5.79195,8.23688 0,0.85214 -2.79866,-1.46405 -5.50801,-4.52299 -3.67073,-4.19513 -7.31831,-9.3961 -7.99565,-11.42811 -0.14202,-0.41514 -0.15951,-0.63869 0.0126,-0.69604 z m -13.10162,2.40221 c 0.0874,0 0.15405,0.41462 0.17589,0.91716 0.0874,4.91617 -0.69873,7.25218 -3.42993,10.20188 -1.31098,1.42023 -6.03014,5.26678 -6.44528,5.26678 -0.30589,0 -0.21893,-3.14627 0.13067,-5.09089 0.63363,-3.56148 2.18483,-5.6592 6.88249,-9.32994 1.37653,-1.07063 2.57691,-1.94314 2.68616,-1.96499 z m 10.34008,0.0201 c 0.24581,-0.0437 1.00176,0.5912 2.26904,1.90217 1.79166,1.83537 5.98453,7.23212 9.04348,11.68944 1.22357,1.74798 1.42157,2.13969 1.11567,2.24894 -0.76474,0.30589 -1.96665,-0.30386 -2.73139,-1.37449 -0.41514,-0.58994 -1.87828,-2.53534 -3.27666,-4.327 -2.97154,-3.84553 -4.72098,-6.31499 -5.63867,-7.97556 -0.76474,-1.39837 -1.02728,-2.1198 -0.78147,-2.1635 z m 111.97436,0.196 c 0.0655,0 0.59031,0.80838 1.15839,1.79161 3.0808,5.37501 8.8701,18.57405 8.8701,20.21277 0,0.3933 -5.02349,6.3581 -5.39493,6.37995 -0.37145,0.0218 -2.20769,-2.51363 -4.04306,-5.55072 -1.87906,-3.14635 -6.20506,-11.55754 -7.16644,-13.961 l -0.69855,-1.72627 3.56061,-3.56061 c 1.96647,-1.96647 3.62647,-3.58573 3.71388,-3.58573 z m -70.35524,0.48245 c 0.0874,0.15295 0.2408,1.13483 0.37189,2.1836 0.2185,2.03202 0.0656,3.43206 -0.50255,4.56823 -0.19665,0.37145 -1.11592,1.48432 -2.05545,2.46755 -0.93954,0.96138 -2.83992,3.18964 -4.21644,4.93761 -7.05743,8.84909 -11.20712,12.21441 -15.72999,12.78249 l -1.20362,0.15328 -1.15839,-2.01022 -1.15588,-2.01022 2.92739,-2.95 c 8.52135,-8.56504 22.3516,-20.82151 22.72304,-20.12232 z m 2.66606,0.32164 c 0.37281,0.0307 1.40869,0.63406 5.50549,3.04297 4.50102,2.62195 5.13612,3.01468 5.13612,3.21133 0,0.0874 -1.28965,1.85853 -2.88467,3.91239 l -2.88467,3.73399 -2.25144,-2.33688 c -3.64889,-3.80183 -4.65309,-6.53266 -3.56061,-9.74455 0.2622,-0.78658 0.56745,-1.55071 0.69855,-1.70366 0.0655,-0.071 0.11696,-0.12584 0.24123,-0.11559 z m -51.80592,0.18091 c 0.17479,0.0655 1.18005,1.11255 2.22883,2.31428 6.77338,7.62551 14.24551,17.59017 15.33799,20.40877 0.43699,1.17988 0.41445,1.2245 -1.31167,1.74889 -1.44208,0.437 -2.16178,0.41383 -3.18871,-0.11056 -0.87399,-0.43699 -1.57365,-1.2009 -5.17884,-5.57082 -7.27592,-8.78355 -9.02338,-11.8437 -9.02338,-15.60183 0,-1.61688 0.63324,-3.36351 1.13578,-3.18873 z m 104.33802,6.81717 c 0.18573,-0.0546 0.23426,0.0545 0.32166,0.28395 0.0874,0.26219 0.24099,1.28908 0.30654,2.29416 0.2185,2.79675 -0.13122,3.38691 -4.523,7.53834 -1.96647,1.85721 -5.00385,4.80534 -6.75182,6.55332 -3.27744,3.27744 -4.80766,4.37038 -6.62118,4.67628 -0.96138,0.17479 -2.81749,-0.30615 -3.62592,-0.93978 l -0.52518,-0.392 0.63322,-1.15839 c 0.78659,-1.46392 2.92923,-3.64984 6.42517,-6.55584 1.50762,-1.24542 4.0195,-3.49608 5.57083,-5.02555 3.34299,-3.23374 5.83286,-5.39606 7.64638,-6.57594 0.63364,-0.42606 0.95758,-0.64392 1.1433,-0.69855 z m -106.8508,2.03033 c 0.1311,0 0.96034,0.76588 1.83433,1.68355 4.50102,4.71952 9.8325,12.10346 10.33505,14.31027 0.19665,0.83028 -0.0635,0.7656 -1.37449,-0.26133 -1.04878,-0.83028 -1.50755,-1.39734 -5.09089,-6.13871 -0.87398,-1.15803 -2.27223,-2.92741 -3.08066,-3.9325 -0.83029,-1.00508 -1.72618,-2.29647 -2.01022,-2.86456 -0.58994,-1.13618 -0.94086,-2.79672 -0.61312,-2.79672 z m 52.7457,0.45983 c 0.0655,-0.0218 1.31018,1.20214 2.77411,2.66606 1.46392,1.48578 2.66605,2.77465 2.66605,2.86206 0,0.19664 -5.4418,7.29819 -5.704,7.473 -0.0874,0.0437 -1.3529,-1.44207 -2.81682,-3.29928 -2.66566,-3.40854 -2.66616,-3.4092 -2.38212,-4.10839 0.45885,-1.13618 1.17929,-2.16353 2.20622,-3.16862 0.89584,-0.85213 2.95066,-2.40297 3.25656,-2.42483 z m -64.69646,1.50767 c 0.13109,0 0.21861,0.80948 0.21861,1.9675 0,1.15803 -0.0875,1.96499 -0.21861,1.96499 -0.1311,0 -0.21862,-0.80696 -0.21862,-1.96499 0,-1.15802 0.0875,-1.9675 0.21862,-1.9675 z m 9.58121,0.37189 c 0.36871,0.10345 1.26724,0.95993 2.54545,2.46755 3.93292,4.61027 9.24099,12.34626 8.78215,12.80511 -0.2185,0.21849 -2.35911,-1.74764 -3.99783,-3.64855 -4.15143,-4.85062 -7.51571,-9.98506 -7.51571,-11.47083 0,-0.13656 0.0631,-0.18776 0.18594,-0.15328 z m 113.12521,0.93978 c 0.0218,0 0.6351,0.91774 1.33429,2.01022 3.2993,5.13466 7.27505,12.99968 8.36754,16.47376 0.24035,0.78659 0.43723,1.52909 0.43723,1.63833 0,0.37145 -0.56857,0.19719 -1.37701,-0.4146 -1.20172,-0.89583 -2.5576,-2.81877 -4.19632,-6.03066 -0.83029,-1.57317 -2.18505,-3.93319 -3.01534,-5.24417 -2.11942,-3.32114 -2.66354,-4.56576 -2.66354,-6.07338 0,-1.00509 0.0856,-1.33277 0.52264,-1.79161 0.3059,-0.3059 0.54681,-0.56789 0.59051,-0.56789 z m -115.34399,2.40221 c 0.10925,0 0.69911,0.52399 1.28906,1.13578 2.35975,2.44715 9.46161,11.51676 10.42299,13.33028 l 0.61061,1.15588 -0.45733,0.37189 c -0.26219,0.2185 -0.59182,0.39451 -0.70106,0.39451 -0.3059,0 -3.60415,-3.43198 -5.63616,-5.85729 -3.32114,-3.95478 -5.43951,-7.53686 -5.63616,-9.50332 -0.0437,-0.56809 -0.002,-1.02773 0.10805,-1.02773 z m 110.24809,1.95997 c 0.41515,0.008 0.94581,0.14903 1.40465,0.42215 0.83026,0.52439 1.57195,1.57276 3.40732,4.93761 0.78658,1.44207 2.70859,4.78571 4.28176,7.40766 2.6001,4.32622 3.30091,5.70336 3.06057,5.9 -0.0437,0.0437 -0.34995,0.13045 -0.65584,0.196 -0.50255,0.1311 -0.721,-0.0865 -2.29417,-2.05294 -4.95985,-6.27084 -9.87673,-14.42089 -9.92043,-16.43105 0,-0.2622 0.301,-0.38763 0.71614,-0.37943 z m -61.75904,1.35439 c 0.27142,-0.10754 0.94025,0.13876 1.93987,0.7287 1.24543,0.76474 4.30518,3.25637 5.33211,4.327 l 0.50255,0.56789 -1.05033,1.35439 -1.04783,1.35438 -1.37701,-1.50766 c -2.5564,-2.79675 -4.43505,-5.57162 -4.43505,-6.59855 0,-0.11472 0.0452,-0.19031 0.13569,-0.22615 z m -50.25804,1.49259 c 0.0437,0 2.0967,2.70952 4.56571,6.03066 2.49086,3.32114 4.5655,6.18428 4.63105,6.33722 0.1311,0.37145 -0.98177,0.064 -1.96499,-0.54778 -1.79167,-1.09248 -5.83362,-6.33425 -7.16644,-9.2621 -0.50255,-1.15803 -0.54602,-2.558 -0.0653,-2.558 z m 108.91883,0.65583 c 0.0874,0 0.74467,0.69825 1.48756,1.55038 1.74797,2.07572 4.36967,5.74814 6.66387,9.37518 2.03202,3.19004 4.60888,8.08306 4.47778,8.49821 -0.17479,0.50254 -1.74698,-0.89516 -3.34198,-2.99272 -1.52948,-2.03201 -2.97263,-3.58354 -2.97263,-3.23395 0,0.0874 1.02864,2.09791 2.27407,4.45767 1.26728,2.35976 2.3158,4.41452 2.3595,4.54561 0.10924,0.3933 -3.34313,3.12362 -4.523,3.56061 -0.58995,0.2185 -1.15972,0.37211 -1.26897,0.30656 -0.0874,-0.0437 -3.31915,-3.6926 -7.18654,-8.10622 -3.86738,-4.41362 -7.21003,-8.23853 -7.45037,-8.50073 l -0.43724,-0.50255 0.588,-0.85183 c 0.96138,-1.37652 3.4326,-3.62803 4.65618,-4.26167 1.20173,-0.58994 2.59986,-0.74257 3.3646,-0.34927 0.50254,0.28404 0.50058,0.15279 0.0854,-1.22373 l -0.32665,-1.07044 0.72117,-0.58799 c 0.37144,-0.32775 0.76367,-0.61312 0.82922,-0.61312 z m -62.21134,0.88953 c 0.55819,-0.0758 1.76049,0.0882 2.43237,0.39952 0.48069,0.2185 1.30994,0.76412 1.83433,1.20111 1.07062,0.89583 4.17372,4.28418 4.17372,4.56823 0,0.19665 -1.72716,2.42538 -1.96751,2.51278 -0.50254,0.19664 -6.77193,-7.69306 -6.77193,-8.52334 0,-0.0819 0.11296,-0.13304 0.29902,-0.1583 z m -2.49519,3.31183 c 0.48069,-0.0601 1.05909,0.005 1.45239,0.23369 0.26219,0.15295 1.87895,1.61784 3.58322,3.25656 l 3.12589,3.01534 -0.61312,0.87444 c -0.32774,0.48069 -0.71996,0.87193 -0.82921,0.87193 -0.37145,0 -7.58356,-7.36288 -7.58356,-7.73432 0,-0.27312 0.3837,-0.45755 0.86439,-0.51764 z m 66.30214,1.48003 c -0.65549,0 -0.74378,0.0646 -0.74378,0.54527 0,0.74289 0.50356,1.68337 1.46495,2.754 0.72103,0.80844 2.4682,2.16351 2.77409,2.16351 0.2185,0 -0.30496,-1.11432 -1.55038,-3.29928 -1.15803,-2.07571 -1.24569,-2.1635 -1.94488,-2.1635 z m -70.92314,1.70366 c 0.5681,-0.21849 1.57358,0.0222 2.66607,0.65583 1.00507,0.5681 6.99054,6.2706 6.99054,6.66389 0,0.10925 -0.34951,0.65662 -0.7865,1.18101 l -0.7865,0.93978 -1.769,-1.61823 c -1.98831,-1.79167 -5.07004,-5.22083 -6.05328,-6.70661 -0.58993,-0.85213 -0.61092,-0.98457 -0.26133,-1.11567 z m -11.4281,0.74379 c 0.0437,0.0437 0.21872,1.26669 0.43722,2.70876 0.37145,2.62196 0.37265,2.66588 -0.10805,3.73651 -0.28404,0.67733 -1.0071,1.61694 -1.92479,2.51277 -2.35975,2.31606 -7.99599,7.16534 -8.14893,6.99055 -0.0655,-0.0874 -0.5679,-1.41801 -1.07044,-2.94749 -0.93954,-2.75305 -0.94032,-2.7987 -0.52517,-3.21384 0.89583,-0.87399 11.29646,-9.83097 11.34016,-9.78726 z m 3.07313,0.6684 c 0.16659,-0.0628 0.4239,-0.0354 0.90459,0.0301 0.56809,0.0656 1.46399,0.34841 2.01022,0.6106 1.07063,0.52439 3.14526,2.51347 7.93033,7.62628 l 2.99272,3.21133 -1.68105,2.18611 c -0.91768,1.22358 -1.79118,2.20622 -1.92228,2.20622 -0.41514,0.0218 -6.92841,-6.40194 -8.23939,-8.10621 -0.67734,-0.87399 -1.48571,-2.16287 -1.79161,-2.86206 -0.67734,-1.44207 -0.91748,-3.4528 -0.56789,-4.39233 0.12017,-0.29497 0.19775,-0.44728 0.36436,-0.51009 z m 112.68547,1.10059 c 0.15295,0.0437 0.63421,0.56845 1.09305,1.15839 0.98324,1.31098 1.66085,2.97114 1.9449,4.9376 0.24035,1.52948 0.0883,3.45256 -0.26132,3.45256 -0.37145,0 -2.1644,-2.44847 -2.90729,-3.91239 -0.85213,-1.74797 -1.06989,-3.90871 -0.47995,-5.02304 0.19665,-0.39329 0.47951,-0.67867 0.61061,-0.61312 z m -56.74353,1.09306 c 0.0218,0.0218 0.30799,1.31073 0.63574,2.86205 l 0.58799,2.79672 -1.81171,1.85694 c -1.00508,1.02693 -3.29999,3.14582 -5.11351,4.719 -1.79167,1.57317 -4.63317,4.15093 -6.27189,5.72411 -3.75813,3.56148 -4.95853,4.32831 -6.99054,4.43756 -1.28913,0.0874 -1.65999,-2e-5 -2.70878,-0.50256 -0.65548,-0.32774 -1.18198,-0.67899 -1.13828,-0.7664 0.0655,-0.21849 22.74543,-21.21482 22.81098,-21.12742 z m 3.32191,0.80911 c 0.10924,0 0.63399,0.3045 1.15837,0.67594 1.44208,1.02693 7.07806,6.79468 11.01099,11.31755 3.82369,4.39176 7.31972,8.674 7.31972,8.95805 0,0.10924 -0.63139,0.72249 -1.43982,1.33428 l -1.42222,1.15839 -0.47995,-0.43722 c -2.40345,-2.14127 -6.75149,-5.76845 -6.59854,-5.52811 0.0874,0.1748 1.09263,1.66132 2.22881,3.32189 1.11434,1.63872 2.03208,3.05685 2.01023,3.1661 0,0.0874 -0.80935,0.89676 -1.74888,1.74889 -1.50763,1.37652 -1.85633,1.59561 -2.55549,1.59561 -0.45885,0 -1.02687,-0.15438 -1.28907,-0.32917 -0.43699,-0.3059 -0.48202,-0.30458 -0.61312,0.11056 -0.0874,0.24035 -0.10903,0.74346 -0.0653,1.09306 0.0437,0.437 -0.10774,0.80705 -0.45733,1.17849 -0.3059,0.3059 -0.61365,0.56789 -0.70105,0.56789 -0.0656,0 -1.94431,-1.07037 -4.15112,-2.3595 -2.20682,-1.31097 -4.25904,-2.49049 -4.54309,-2.64344 l -0.52517,-0.28394 0.47995,0.67845 c 0.26217,0.37144 1.2458,1.26733 2.16348,2.01022 2.906,2.3379 4.74292,4.3257 4.34963,4.719 -0.50255,0.48069 -3.88989,-1.1364 -7.91022,-3.7365 -4.52288,-2.9497 -11.25221,-8.12787 -11.25221,-8.67411 0,-0.34959 1.13412,-1.94489 1.37447,-1.94489 0.1311,0 1.33499,0.82925 2.64597,1.83433 2.64378,1.98831 3.49421,2.53442 4.82704,3.08066 l 0.87444,0.37189 -1.31167,-1.3971 c -0.72104,-0.74289 -2.18342,-2.2729 -3.25405,-3.38723 -1.94461,-1.98831 -1.96684,-2.01155 -1.66094,-2.62333 0.85213,-1.66058 9.39519,-9.37157 10.18177,-9.19677 0.1311,0.0437 1.6835,1.63784 3.47517,3.56061 1.76982,1.92276 3.36396,3.64965 3.56061,3.82444 0.80844,0.83029 -0.305,-0.78702 -2.55551,-3.67116 -3.16817,-4.10773 -3.62844,-5.04769 -3.62844,-7.473 0,-1.85722 0.15297,-2.62083 0.50257,-2.62083 z m 50.40628,0.91716 0.52518,0.89455 c 0.28405,0.50255 1.26669,2.40544 2.20623,4.21895 1.94461,3.82368 2.51244,5.72275 2.3595,7.90772 -0.10926,1.59502 -0.50063,2.51248 -1.59311,3.86716 -0.69919,0.87398 -2.42594,2.23025 -2.60074,2.05545 -0.0437,-0.0437 -1.13745,-3.38657 -2.40472,-7.38505 l -2.29417,-7.31972 0.39452,-0.87444 c 0.39329,-0.89584 1.48674,-2.03331 2.75399,-2.90729 z m -111.77835,4.74915 c 0.64182,0.0464 1.47119,0.24353 2.11575,0.56035 1.09248,0.54624 1.72686,1.04708 6.62117,5.32961 l 2.83944,2.49267 -0.59051,0.8066 c -0.32774,0.43699 -1.61487,2.14224 -2.88215,3.75911 l -2.27407,2.92739 -2.86205,-2.1635 c -5.375,-4.12958 -7.62434,-6.20301 -8.71682,-8.03838 l -0.41461,-0.70106 0.91716,0.13066 c 1.22358,0.15295 2.66615,1.07226 5.68139,3.56312 1.37653,1.13618 2.60029,2.05294 2.73139,2.05294 0.10925,0 -1.02777,-1.2454 -2.53539,-2.79672 -2.88415,-2.92785 -3.34288,-3.58326 -3.58322,-5.09088 -0.19664,-1.22358 -0.17513,-1.2006 3.64855,1.68355 l 3.08067,2.31427 -2.31678,-3.08066 c -1.28913,-1.70427 -2.3819,-3.23253 -2.44745,-3.40733 -0.10924,-0.28405 0.34569,-0.38817 0.98753,-0.34174 z m 98.77977,2.89724 0.98249,0.0653 -0.0226,1.00511 c -0.0218,1.98832 -2.70835,5.33165 -6.64126,8.2595 -1.94462,1.42022 -5.79109,3.47352 -6.05329,3.21133 -0.0874,-0.0656 -0.195,-0.72053 -0.23871,-1.41972 -0.1311,-1.66058 0.19584,-2.25117 2.27156,-4.10839 0.93953,-0.80844 2.75218,-2.49031 4.06315,-3.71389 2.73121,-2.5564 4.1529,-3.38667 5.63867,-3.29927 z m 3.7943,0.89203 c 0.54589,-0.006 0.7981,0.28824 1.46995,1.27146 1.90092,2.81861 3.10405,6.38046 3.1259,9.26461 0,0.96139 -0.0885,1.87989 -0.17589,2.03284 -0.24035,0.41515 -0.93895,-0.28443 -2.20622,-2.1635 -2.92783,-4.36992 -4.50153,-10.00905 -2.88465,-10.31495 0.27312,-0.0546 0.48894,-0.0884 0.67091,-0.0905 z m -111.06977,3.45255 c 0.16113,-0.0246 0.38588,0.058 0.71362,0.24375 0.83029,0.43699 3.01476,2.164 5.72411,4.54561 1.44207,1.26728 3.47498,3.0359 4.54561,3.90988 1.04879,0.89584 1.89966,1.68334 1.89966,1.74889 0,0.0874 -1.65921,2.29375 -2.1836,2.92739 -0.19664,0.2185 -3.05855,-2.05388 -5.44016,-4.30439 -3.75813,-3.60519 -6.05229,-7.16648 -5.59344,-8.67411 0.0765,-0.24034 0.17305,-0.37243 0.3342,-0.39702 z m 107.27547,1.73131 c 0.0874,0 0.43515,0.32711 0.8066,0.69855 1.57318,1.66057 4.54553,7.14426 5.83466,10.81499 l 0.54528,1.573 -1.46244,1.72628 c -0.80844,0.93954 -1.72597,2.03154 -2.07556,2.42483 l -0.59049,0.72117 -1.20111,-0.91717 c -2.40346,-1.85722 -7.0794,-7.18803 -8.32482,-9.52594 l -0.41462,-0.74378 3.3847,-3.38722 c 1.85722,-1.85721 3.43225,-3.38471 3.4978,-3.38471 z m -54.3187,7.20916 c 0.21849,0 1.07036,0.52475 1.85693,1.15839 1.44208,1.17988 4.84972,3.49482 10.15916,6.92521 2.75305,1.79166 6.07524,4.61161 5.76935,4.91751 -0.45884,0.48069 -4.85055,-1.48688 -8.89274,-3.97773 -4.71949,-2.906 -11.25208,-7.60335 -11.03359,-7.95294 0.1748,-0.30589 1.68205,-1.04859 2.14089,-1.07044 z m -13.87556,1.74889 c 0.0874,0 0.28351,0.36961 0.41461,0.8066 0.72104,2.40346 0.46123,4.74133 -0.71865,6.59855 -0.69919,1.13618 -2.44749,2.64413 -3.95512,3.45256 -1.31097,0.69919 -4.37028,1.81423 -4.96021,1.81423 -0.4807,0 -0.94087,-2.79599 -0.61313,-3.77922 0.2622,-0.74289 1.29032,-1.83689 3.19124,-3.34451 0.58993,-0.45884 2.29344,-1.90035 3.77921,-3.21133 1.48577,-1.28913 2.77466,-2.33688 2.86205,-2.33688 z m 3.16862,0.43722 c 0.15295,0 1.74883,0.71988 3.5405,1.61572 8.7617,4.36992 19.48812,11.75416 19.53182,13.45843 0,0.58994 -1.31063,1.18177 -2.64345,1.20362 -1.07064,0 -1.59525,-0.19843 -4.23906,-1.48756 -1.66056,-0.80844 -3.0362,-1.44157 -3.05805,-1.41972 -0.0437,0.0437 1.2027,1.0047 2.75402,2.14089 1.52947,1.13617 2.79496,2.20655 2.81681,2.3595 0,0.50253 -0.83011,1.87968 -1.573,2.60072 -0.87399,0.85213 -2.0746,1.377 -3.12338,1.377 -1.13618,0 -3.91156,-0.98329 -5.68138,-2.01023 -0.83029,-0.50253 -3.73516,-2.05319 -6.42266,-3.49527 -5.00356,-2.66565 -8.10622,-4.61019 -8.10622,-5.09088 0,-0.37145 1.26592,-0.87369 2.18361,-0.85183 0.41514,0.0218 1.15763,0.24036 1.63833,0.50255 0.48069,0.24035 1.22318,0.5006 1.63833,0.58799 l 0.76639,0.13067 -0.93978,-0.8066 c -1.02693,-0.89584 -1.33342,-1.37682 -1.59561,-2.44745 -0.19665,-0.91768 0.17627,-1.15839 1.83684,-1.15839 1.55132,0 2.9267,0.43672 5.9201,1.85694 1.35468,0.65549 2.55604,1.20111 2.64345,1.20111 0.39328,0 -1.85667,-1.57128 -3.71389,-2.59821 -3.91109,-2.16311 -4.69889,-3.10412 -4.69889,-5.63867 0,-1.50763 0.13188,-2.03033 0.52517,-2.03033 z m 48.28804,0.43471 c 0.10924,0 0.13164,0.67739 0.0879,1.50767 -0.15295,2.16311 -0.78831,3.12639 -3.27917,5.00545 -1.11433,0.83029 -2.66347,2.09753 -3.45005,2.79672 -2.35977,2.14127 -3.34291,2.88447 -4.58834,3.45256 -1.20171,0.56809 -2.6877,0.71897 -3.23395,0.36937 -0.69918,-0.43699 4.45639,-5.7454 9.15406,-9.43798 2.03202,-1.59503 5.02546,-3.67193 5.30951,-3.69379 z m 2.25145,0.87445 c 0.17477,0 0.61181,0.15263 1.00511,0.34927 2.53455,1.31098 6.70621,5.72454 8.84748,9.39528 l 0.63322,1.09305 -0.74127,0.87445 c -0.39329,0.45884 -1.24593,1.68185 -1.87957,2.70878 -0.61179,1.02693 -1.74727,2.46921 -2.49016,3.23394 l -1.35437,1.377 -0.67845,-0.34928 c -0.37145,-0.19664 -1.70458,-1.02665 -2.95001,-1.85694 -2.29421,-1.48577 -4.06362,-2.27198 -4.9376,-2.14088 -0.37145,0.0437 0.19627,0.61164 2.64343,2.57811 2.84046,2.31605 3.03815,2.51256 2.47006,2.57811 -2.27236,0.28404 -7.42927,-2.18533 -10.26972,-4.96022 -1.04878,-1.02693 -2.14054,-2.4043 -1.9876,-2.5354 0.0437,-0.0437 1.11408,0.19819 2.3595,0.54778 1.26728,0.3496 2.31504,0.60985 2.33688,0.588 0.0218,-0.0437 -0.45866,-0.60997 -1.07045,-1.30916 l -1.11315,-1.26895 0.65333,-0.80661 c 0.34959,-0.43698 1.42072,-1.44224 2.38211,-2.22882 2.79675,-2.29422 4.60953,-4.19604 4.78432,-5.04817 0.2622,-1.24544 1.02916,-2.81934 1.35691,-2.81934 z m -59.49001,12.02113 c 0.58721,0.008 1.37932,0.11657 2.19868,0.32414 1.44208,0.37144 12.17155,5.59317 15.31789,7.45039 1.09247,0.65548 2.35875,1.52974 2.83944,1.94488 0.76474,0.6992 0.80909,0.76586 0.30655,0.67846 -0.30589,-0.0655 -1.2234,-0.21895 -2.07554,-0.3719 -3.75814,-0.63363 -10.46758,-3.27695 -14.46606,-5.7241 -2.46901,-1.48577 -5.09089,-3.5616 -5.09089,-4.02044 0,-0.19665 0.38273,-0.28963 0.96993,-0.28143 z m 36.30711,4.58581 c 0.1748,0 0.32722,0.52389 0.41462,1.41972 0.19665,1.74797 0.13102,1.81417 -2.51277,3.60584 -2.53456,1.70427 -3.10289,1.96499 -4.23907,1.96499 h -0.98249 l -0.15327,-0.9825 c -0.0655,-0.54624 -0.0882,-1.11349 -0.0226,-1.26644 0.10925,-0.2622 0.98383,-0.8517 5.89999,-3.93249 0.74289,-0.437 1.44267,-0.80912 1.59561,-0.80912 z m 2.61329,0.0226 c 0.25502,-0.0645 1.03969,0.0705 2.36703,0.41462 3.43039,0.87398 10.42317,4.71751 12.14929,6.68398 0.63364,0.72104 0.6544,0.83108 0.32665,1.02773 -0.72103,0.39329 -4.01985,0.0451 -6.22666,-0.67594 -1.13618,-0.37145 -2.07456,-0.65759 -2.11826,-0.63573 -0.0218,0.0437 1.22354,0.74446 2.79671,1.55289 1.57317,0.80844 2.7952,1.5293 2.75151,1.573 -0.0437,0.0437 -1.74721,-0.21829 -3.77922,-0.56789 -2.03202,-0.37144 -3.73553,-0.65583 -3.77923,-0.65583 -0.37144,0 1.5078,1.55105 2.22884,1.85694 2.05386,0.83029 2.70737,1.1808 3.38471,1.74889 0.39329,0.32775 0.70106,0.69736 0.70106,0.8066 0,0.39329 -3.86906,0.0445 -5.57334,-0.47994 -1.83536,-0.56809 -8.84748,-4.15155 -8.84748,-4.52299 0,-0.45885 0.93772,-0.93978 1.81171,-0.93978 h 0.83172 l -0.15327,-1.41972 -0.15328,-1.41972 h 1.68356 1.66094 l -1.02771,-2.03283 c -0.5681,-1.09249 -1.07199,-2.07436 -1.11569,-2.18361 -0.0328,-0.0656 -0.004,-0.10916 0.0804,-0.13067 z" style="display:inline;stroke:none;stroke-width:.00449348"/></svg>