<svg xmlns="http://www.w3.org/2000/svg" xml:space="preserve" width="3072" height="2048" viewBox="0 0 812.8 541.867"><path fill="#fff" d="M0 0h812.8v541.867H0Z"/><path fill="#e00000" d="M358.987 67.733v47.414h27.093v115.146s0 13.547 20.32 13.547 20.32-13.547 20.32-13.547V115.147h27.093V101.6s0-33.867-27.093-33.867zM325.12 223.52l-54.187 47.413 54.187 47.414V284.48h27.093a37.63 27.093 0 0 1 37.63 27.093 37.63 27.093 0 0 1-37.63 27.094h-54.186v27.093h54.186a67.733 54.187 0 0 0 54.2-21.693 67.733 54.187 0 0 0 54.174 21.693h54.186v-27.093h-54.186a37.63 27.093 0 0 1-37.63-27.094 37.63 27.093 0 0 1 37.63-27.093h27.093v33.867l54.187-47.414-54.187-47.413v33.867h-27.093a67.733 54.187 0 0 0-54.187 21.707 67.733 54.187 0 0 0-54.187-21.707H325.12zm81.28 142.24-13.421 41.353h-43.617l35.291 25.65-13.426 41.37L406.4 448.57l35.174 25.564-13.427-41.37 35.292-25.65H419.82Z"/></svg>