<svg xmlns="http://www.w3.org/2000/svg" width="3072" height="2048" viewBox="0 0 812.8 541.867"><path fill="#fff" d="M0 0h812.8v541.867H0Z"/><path fill="#e00000" d="M406.4 33.867a237.067 237.067 0 0 0-237.067 237.066A237.067 237.067 0 0 0 406.4 508a237.067 237.067 0 0 0 237.067-237.067A237.067 237.067 0 0 0 406.4 33.867zm0 33.866a203.2 203.2 0 0 1 203.2 203.2 203.2 203.2 0 0 1-203.2 203.2 203.2 203.2 0 0 1-203.2-203.2 203.2 203.2 0 0 1 203.2-203.2zM304.8 254l-8.467 33.867h220.134L508 254H304.8z"/><path d="M389.467 118.533 325.944 355.6H279.4l-8.467 33.867h79.804L406.4 181.729l55.663 207.738h79.804L533.4 355.6h-46.544l-63.523-237.067h-33.866z"/></svg>