<svg xmlns="http://www.w3.org/2000/svg" xml:space="preserve" width="3072" height="2048" viewBox="0 0 812.8 541.867"><path fill="#e00000" d="M0 0h812.8v541.867H0Z" paint-order="stroke fill markers"/><path fill="#fff" d="M406.4 67.733a203.2 203.2 0 0 0-203.2 203.2 203.2 203.2 0 0 0 203.2 203.2 203.2 203.2 0 0 0 203.2-203.2 203.2 203.2 0 0 0-203.2-203.2z" paint-order="stroke fill markers"/><path d="M406.4 101.6 304.8 203.2l67.733 67.733-33.866 33.867-67.734-67.733-33.866 33.866 101.6 101.6L406.4 304.8l33.867 33.867-67.734 67.733 33.867 33.867 101.6-101.6-67.733-67.734 33.866-33.866 67.734 67.733 33.866-33.867-101.6-101.6-67.733 67.734-33.867-33.867 67.734-67.733Z" paint-order="stroke fill markers"/></svg>