<svg xmlns="http://www.w3.org/2000/svg" xml:space="preserve" width="3072" height="2048" viewBox="0 0 812.8 541.867"><path d="M 0,0 H 812.8 V 541.867 H 0 Z" style="display:inline"/><path d="M 406.40012 67.732837 A 203.2 203.2 0 0 0 203.20006 270.9329 A 203.2 203.2 0 0 0 406.40012 474.13296 A 203.2 203.2 0 0 0 609.60019 270.9329 A 203.2 203.2 0 0 0 406.40012 67.732837 z M 405.18986 84.667209 L 442.97982 211.80006 L 422.29218 211.80006 L 463.7522 302.57697 L 444.05675 215.60499 L 479.98377 215.66287 L 502.08217 259.62093 L 506.15479 215.60189 L 575.73196 215.76209 L 548.98216 237.76385 L 565.10625 309.74605 L 541.40381 308.1818 L 529.08621 254.91889 L 525.01308 309.45097 L 503.35703 309.45097 L 479.01019 259.9899 L 488.90881 309.45097 L 473.84874 309.45097 L 473.84874 315.15089 L 505.20704 422.47615 L 403.87883 345.03486 L 302.81623 423.33295 L 333.81797 318.33002 L 333.91305 309.77499 L 318.21117 308.1849 L 297.6951 263.7969 L 289.11216 309.45407 L 262.86982 309.45407 L 276.80903 246.08325 L 237.06622 215.451 L 303.06997 216.87417 L 320.21208 258.72382 L 331.98397 215.60396 L 362.97692 215.60396 L 355.91224 246.04294 L 374.62221 246.04294 L 387.92218 211.80006 L 366.46198 211.80006 L 405.18986 84.667209 z M 407.17682 237.81398 L 393.00714 266.33318 L 419.83704 266.33318 L 407.17682 237.81398 z M 351.19004 266.33215 L 340.94622 309.45201 L 345.10979 309.45201 L 363.37121 271.32202 L 363.37121 266.33215 L 351.19004 266.33215 z M 383.11317 289.16383 L 373.09 309.45407 L 439.47822 309.45407 L 431.20275 289.16383 L 383.11317 289.16383 z" style="display:inline;stroke:none;fill:#fff;fill-opacity:1"/></svg>