<?xml version="1.0" encoding="UTF-8" standalone="no"?>
<svg
   xml:space="preserve"
   width="3072"
   height="2048"
   viewBox="0 0 812.8 541.867"
   version="1.1"
   id="svg2"
   sodipodi:docname="Neo-libertarianism.svg"
   inkscape:version="1.3 (0e150ed6c4, 2023-07-21)"
   xmlns:inkscape="http://www.inkscape.org/namespaces/inkscape"
   xmlns:sodipodi="http://sodipodi.sourceforge.net/DTD/sodipodi-0.dtd"
   xmlns="http://www.w3.org/2000/svg"
   xmlns:svg="http://www.w3.org/2000/svg"><defs
     id="defs2" /><sodipodi:namedview
     id="namedview2"
     pagecolor="#505050"
     bordercolor="#eeeeee"
     borderopacity="1"
     inkscape:showpageshadow="0"
     inkscape:pageopacity="0"
     inkscape:pagecheckerboard="0"
     inkscape:deskcolor="#505050"
     inkscape:zoom="0.19563802"
     inkscape:cx="1536"
     inkscape:cy="1024.8519"
     inkscape:window-width="1366"
     inkscape:window-height="705"
     inkscape:window-x="-8"
     inkscape:window-y="-8"
     inkscape:window-maximized="1"
     inkscape:current-layer="svg2" /><path
     fill="#ffe000"
     d="M0 0v541.867h812.8V0H0z"
     id="path1" /><path
     fill="#00002e"
     d="m406.386 67.733-46.032 157.122L203.21 270.93l23.774 7.18 133.368 40.271 46.036 155.752 47.401-155.843 155.801-47.353-155.8-46.082zm.208 51.863 35.265 116.895-35.369 34.543h151.314l.324.095-116.185 35.313-.078.257-35.375-35.665v151.295l-34.224-115.79-.165-.05 34.389-35.455h-151.1l116.809-34.247 34.291 34.247c-.005-50.48-.054-100.959.104-151.438zm30.529 6.844 5.528 16.583c44.5 12.572 79.278 47.35 91.85 91.85l16.583 5.528C538.969 183.224 494.3 138.555 437.123 126.44Zm-61.289.07C318.72 138.642 274.1 183.262 261.966 240.378l16.623-5.541c12.588-44.408 47.296-79.116 91.704-91.705zM261.966 301.69c12.133 57.115 56.753 101.735 113.868 113.868l-5.54-16.623c-44.409-12.588-79.117-47.297-91.705-91.705Zm289.048 0-16.623 5.54c-12.588 44.408-47.296 79.117-91.704 91.705l-5.541 16.623c57.115-12.133 101.735-56.753 113.868-113.868z"
     color="#000"
     style="-inkscape-stroke:none;fill:#000000;fill-opacity:1"
     id="path2" /></svg>
