<svg xmlns="http://www.w3.org/2000/svg" xml:space="preserve" width="3072" height="2048" viewBox="0 0 812.8 541.867"><path d="M 0,-8.3333359e-5 V 541.86692 H 812.8 V -8.3333359e-5 Z" style="display:inline"/><path d="M 42.333346 33.866677 L 127.00004 101.60003 L 685.80021 101.60003 L 770.4669 33.866677 L 42.333346 33.866677 z M 169.33339 135.46671 L 254.00008 203.20006 L 270.18824 203.20006 A 152.40004 152.40004 0 0 1 337.30148 135.46671 L 169.33339 135.46671 z M 406.40012 135.46671 A 135.46671 135.46671 0 0 0 270.93342 270.93342 A 135.46671 135.46671 0 0 0 406.40012 406.40012 A 135.46671 135.46671 0 0 0 541.86683 270.93342 A 135.46671 135.46671 0 0 0 406.40012 135.46671 z M 476.13129 135.46671 A 152.40004 152.40004 0 0 1 542.87246 203.20006 L 558.80017 203.20006 L 643.46686 135.46671 L 476.13129 135.46671 z M 406.40012 152.40005 A 118.53337 118.53337 0 0 1 524.93349 270.93342 A 118.53337 118.53337 0 0 1 406.40012 389.46679 A 118.53337 118.53337 0 0 1 287.86676 270.93342 A 118.53337 118.53337 0 0 1 406.40012 152.40005 z M 406.40012 186.26672 C 378.3441 186.26672 355.60006 209.01073 355.60011 237.06674 L 457.20014 237.06674 C 457.20009 209.01072 434.45615 186.26672 406.40012 186.26672 z M 338.66677 245.53341 L 338.66677 262.46675 L 474.13348 262.46675 L 474.13348 245.53341 L 338.66677 245.53341 z M 347.13344 270.93342 L 347.13344 304.80009 L 364.06678 304.80009 L 364.06678 270.93342 L 347.13344 270.93342 z M 372.53345 270.93342 L 372.53345 304.80009 L 389.46679 304.80009 L 389.46679 270.93342 L 372.53345 270.93342 z M 397.93346 270.93342 L 397.93346 304.80009 L 414.86679 304.80009 L 414.86679 270.93342 L 397.93346 270.93342 z M 423.33346 270.93342 L 423.33346 304.80009 L 440.2668 304.80009 L 440.2668 270.93342 L 423.33346 270.93342 z M 448.73347 270.93342 L 448.73347 304.80009 L 465.66681 304.80009 L 465.66681 270.93342 L 448.73347 270.93342 z M 338.66677 313.26676 L 338.66677 330.2001 L 474.13348 330.2001 L 474.13348 313.26676 L 338.66677 313.26676 z M 254.00008 338.66677 L 169.33339 406.40012 L 337.30148 406.40012 A 152.40004 152.40004 0 0 1 270.18824 338.66677 L 254.00008 338.66677 z M 542.61201 338.66677 A 152.40004 152.40004 0 0 1 475.49877 406.40012 L 643.46686 406.40012 L 558.80017 338.66677 L 542.61201 338.66677 z M 127.00004 440.2668 L 42.333346 508.00016 L 770.4669 508.00016 L 685.80021 440.2668 L 127.00004 440.2668 z" style="fill:#ffc000;fill-opacity:1;stroke-width:1.05833;stroke-linecap:round;stroke-linejoin:round;stroke-miterlimit:128;paint-order:stroke fill markers"/></svg>