<svg xmlns="http://www.w3.org/2000/svg" width="3072" height="2048" viewBox="0 0 812.8 541.867"><path d="M0 0v541.867h812.8V0Z"/><path d="M 50.800016,33.867194 152.40005,101.60003 H 660.4002 L 762.00023,33.867194 Z m 203.200064,135.465676 67.892,45.26237 c 18.83322,-28.26402 50.5442,-45.24855 84.50804,-45.26237 z m 152.40004,0 c 33.96934,0.002 65.69022,16.98135 84.53182,45.24635 l 67.86823,-45.24635 z m 0,8.46718 c -51.43576,0 -93.13336,41.69706 -93.13336,93.13285 -5.5e-4,51.43618 41.69721,93.13388 93.13336,93.13388 51.43618,0 93.1334,-41.6977 93.13285,-93.13388 0,-51.43579 -41.69706,-93.13285 -93.13285,-93.13285 z m 0,8.46719 c 46.75978,0 84.66615,37.90591 84.6667,84.66566 0,46.76014 -37.90653,84.66721 -84.6667,84.66721 -46.76014,0 -84.6672,-37.90707 -84.6672,-84.66721 5.5e-4,-46.75975 37.90745,-84.66566 84.6672,-84.66566 z m 0,25.39898 c -18.70417,0 -33.86719,15.16302 -33.86719,33.86719 h 5.2e-4 v 4.23333 h 67.73335 v -4.23333 c 0,-18.70417 -15.16248,-33.86719 -33.86668,-33.86719 z m -50.80001,42.33386 v 8.46666 h 101.60003 v -8.46666 z m 4.23333,12.7 v 33.86668 h 17.99168 v -33.86668 z m 24.34168,0 v 33.86668 h 19.05 v -33.86668 z m 25.4,0 v 33.86668 h 19.05001 v -33.86668 z m 25.40001,0 v 33.86668 h 17.99168 v -33.86668 z m -79.37502,38.10002 v 8.46615 h 101.60003 v -8.46615 z m -33.70803,22.47201 -67.892,45.26082 h 152.40004 c -33.96365,-0.0136 -65.67459,-16.99718 -84.50804,-45.26082 z m 84.50804,45.26082 h 152.40005 l -67.892,-45.26082 c -18.83345,28.26364 -50.54437,45.24722 -84.50805,45.26082 z M 152.40005,440.2668 50.800016,508.00016 H 762.00023 L 660.4002,440.2668 Z" style="fill:#ffc000;fill-opacity:1;stroke:none"/></svg>