<svg xmlns="http://www.w3.org/2000/svg" xml:space="preserve" width="3072" height="2048" viewBox="0 0 812.8 541.867"><path fill="#fff" d="M0 0h812.8v541.867H0Z" paint-order="stroke fill markers"/><path fill="#c00020" d="M413.974 472.361c-6.212-2.576-14.676-10.55-14.676-13.825 0-1.531 1.378-3.328 3.064-3.993 4.637-1.831 1.627-8.921-7.179-16.911-6.877-6.24-7.402-7.413-5.373-11.996 2.642-5.964-.2-8.822-8.825-8.874-2.911-.016-5.812-1.422-6.446-3.122-.836-2.241-4.336-3.11-12.732-3.164-14.814-.094-33.841-4.76-39.052-9.575-2.229-2.06-7.18-8.762-11.003-14.893-5.611-9-6.693-12.375-5.616-17.515.734-3.502 1.583-9.46 1.887-13.242.304-3.782 1.891-8.418 3.528-10.303 6.368-7.336 13.849-12.7 17.71-12.7 2.431 0 4.775-1.986 5.883-4.984 1.013-2.741 4.37-6.227 7.46-7.746 6.255-3.075 9.048-11.997 3.757-11.997-3.53 0-4.458-9.224-1.141-11.333 1.101-.7 2.003-3.645 2.003-6.543 0-4.483.673-5.073 4.506-3.95 13.282 3.89 15.09 3.811 16.488-.725.84-2.72.142-6.365-1.8-9.416-3.949-6.199-3.982-7.374-.167-5.868 1.653.652 3.004.189 3.004-1.03 0-1.22 1.306-1.701 2.902-1.071 2.88 1.136 6.343-1.037 12.706-7.972 1.82-1.983 4.91-3.606 6.87-3.606 2.604 0 3.56-1.626 3.56-6.06 0-3.333.901-6.633 2.003-7.333 1.11-.706 2.003.802 2.003 3.38 0 2.886.703 3.911 1.848 2.698 1.017-1.076 1.367-4.484.778-7.573-.894-4.686-1.676-5.283-4.722-3.606-5.464 3.009-5.916 2.623-5.916-5.053 0-5.185 1.41-8.204 5.307-11.357 5.7-4.612 11.275-14.013 9.783-16.497-.986-1.64 7.79-8.838 13.387-10.98 1.893-.724 3.9-.551 4.462.384.562.935 4.709 2.306 9.215 3.048 6.35 1.044 8.033 2.149 7.479 4.907-.394 1.957-2.235 3.434-4.09 3.281-2.67-.219-2.966.512-1.415 3.492 3.404 6.543 5.949 6.548 7.22.013.675-3.475 2.07-6.318 3.098-6.318 1.03 0 1.314-.928.633-2.06-.68-1.134-.3-2.061.845-2.061s2.647-2.312 3.337-5.138c.689-2.825 2.013-4.654 2.942-4.063.928.59 2.628-.732 3.776-2.939 1.53-2.941 1.423-4.289-.4-5.046-1.369-.569-.01-1.107 3.02-1.197 4.855-.143 8.38-4.284 3.648-4.284-2.512 0-8.155-5.957-8.155-8.61 0-1.173 1.352-1.6 3.005-.947 1.78.702 3.004.022 3.004-1.669 0-1.57 1.127-3.322 2.504-3.893 1.697-.705 1.527-1.092-.53-1.202-2.744-.148-9.986-13.725-9.986-18.722 0-1.126-1.011-2.047-2.248-2.047-1.553 0-1.477-.955.246-3.09 1.37-1.7 4.444-3.091 6.829-3.091 2.9 0 4.435-1.365 4.637-4.122.166-2.266-.543-4.12-1.577-4.12-1.033 0-1.878-.928-1.878-2.061 0-1.134 1.352-2.06 3.004-2.06 4.754 0 3.507-3.159-2.503-6.346-5.152-2.732-9.341-7.362-9.462-10.456-.106-2.73-11.383-12.05-14.676-12.128-5.091-.123-25.072-11.714-22.043-12.789 1.44-.51 4.62-.006 7.065 1.122 3.13 1.444 5.303 1.321 7.336-.415 1.948-1.663 6.368-2.006 13.579-1.052 5.88.777 14.746 1.58 19.703 1.785 22.36.922 23.302 1.092 19.31 3.478-2.12 1.268-7.156 1.66-11.7.913-5.998-.986-7.77-.66-7.14 1.318.462 1.447 3.475 2.934 6.694 3.305 3.22.371 8.108 2.808 10.862 5.415 5.291 5.009 10.305 8.014 19.137 11.468 4.825 1.888 5.28 1.687 4.362-1.925-.61-2.398.146-4.495 1.862-5.173 1.62-.64 2.346-.239 1.655.912-.678 1.128.402 2.587 2.4 3.242 12.005 3.935 20.254 9.036 29.884 18.479 6.662 6.533 12.53 10.572 15.144 10.423 2.645-.151 4.467 1.127 4.792 3.362.299 2.052-.752 3.606-2.437 3.606-3.609 0-1.866 7.658 2.814 12.364 2.743 2.758 2.94 2.647 1.83-1.03-1.094-3.623-.856-3.56 1.962.515 1.764 2.55 4.75 4.636 6.634 4.636 7.427 0 21.455 26.716 24.885 47.393 1.89 11.39 3.803 16.484 6.19 16.484 3.351 0 7.932 22.905 4.96 24.795-1.183.752-1.611 4.01-.964 7.34 1.16 5.968 1.156 5.97-1.233.834-2.351-5.054-2.411-5.066-3.173-.642l-.778 4.51-4.315-4.44-4.315-4.439-1.478 7.142c-1.212 5.853-1.87 28.31-1.68 57.294.019 2.651-.483 5.68-1.114 6.729-1.492 2.484-14.099-10.884-15.964-16.929-1.321-4.284-1.641-4.377-3.941-1.141-2.053 2.888-3.507 3.129-8.086 1.338-4.92-1.924-6.316-1.47-11.764 3.828-8.455 8.223-14.544 11.316-16.351 8.308-.96-1.598-1.974-1.276-3.226 1.025-2.129 3.913-11.758 4.47-15.246.882-1.764-1.815-2.995-1.863-4.632-.18-2.929 3.014-1.271 5.458 7.182 10.59 6.243 3.79 7.287 3.903 10.021 1.09 1.679-1.727 3.052-4.578 3.052-6.336 0-2.39.657-2.635 2.608-.969 1.434 1.225 4.691 1.666 7.238.981 4.017-1.08 4.45-.662 3.271 3.16-.747 2.422-1.8 6.906-2.339 9.964-1.284 7.286-12.382 22.682-24.184 33.549-8.737 8.045-9.616 8.412-12.03 5.015-1.432-2.016-2.604-4.878-2.604-6.362 0-1.483-.778-2.697-1.729-2.697-.95 0-7.237-5.563-13.97-12.363-6.735-6.8-13.167-12.363-14.296-12.363-3.908 0-1.927 5.187 5.005 13.106 3.83 4.375 6.964 9.036 6.964 10.357 0 2.751 15.505 13.627 19.428 13.627 1.432 0 2.603.927 2.603 2.06 0 3.766 5.308 2.135 13.906-4.273 4.674-3.483 8.897-5.923 9.384-5.422 2.287 2.353-8.387 24.977-15.95 33.807-15.198 17.744-19.402 23.6-18.28 25.468.608 1.01 1.453 4.67 1.878 8.13.708 5.755-.155 6.833-10.103 12.609-5.983 3.473-10.431 7.06-9.885 7.968 1.68 2.798-18.832 12.55-32.81 15.6-15.034 3.278-21.37 3.483-27.613.894zm11.44-137.238c1.69-4.572 2.795-5.156 7.462-3.941 9.743 2.536 20.326 3.02 21.548.988.655-1.09 3.419-1.983 6.143-1.983s5.298-1.159 5.723-2.575c3.894-13.004 2.203-19.836-4.2-16.973-2.04.912-4.478 1.478-5.42 1.258-.943-.22-2.78.512-4.084 1.625-3.459 2.953-11.826-1.939-13.144-7.684-1.103-4.808-2.895-5.393-7.827-2.553-2.281 1.313-2.248 2.038.2 4.391 2.454 2.358 2.494 3.27.245 5.585-3.063 3.151-6.725 1.643-6.725-2.77 0-1.634-.901-2.97-2.003-2.97-1.101 0-2.003-1.833-2.003-4.073s-2.478-5.694-5.508-7.674c-3.029-1.98-7.004-5.293-8.833-7.362-4.444-5.027-6.882-.856-2.91 4.978 1.656 2.432 5.539 6.136 8.629 8.232 3.09 2.097 4.491 3.818 3.114 3.825-1.377.008-2.285.71-2.018 1.56 1.028 3.274-5.704 10.532-8.261 8.906-1.879-1.194-1.446-1.943 1.598-2.762 6.158-1.656 5.048-6.045-2.86-11.315-3.842-2.56-6.985-5.939-6.985-7.507 0-3.56-5.439-5.908-7.137-3.08-.692 1.15-3.31 1.815-5.819 1.477-3.275-.442-7.09 2.138-13.528 9.15-6.308 6.87-10.54 9.766-14.274 9.766-5.45 0-7.274 3.054-2.805 4.7 1.377.507 11.291.45 22.032-.128 20.399-1.097 21.305-.705 19.695 8.524-.594 3.403 4.378 7.51 9.091 7.51 2.62 0 4.762.748 4.762 1.663 0 1.479 8.513 5.787 12.568 6.36.853.12 2.444-2.196 3.535-5.148zm9.435-14.543c1.377-.571 3.63-.571 5.007 0 1.377.572.25 1.04-2.504 1.04s-3.88-.468-2.503-1.04zm-43.563-15.24c0-2.334.862-3.696 1.916-3.026 1.053.67 1.407 2.58.787 4.243-1.59 4.26-2.703 3.757-2.703-1.218zm63.052-11.337c2.394-1.862 6.036-2.617 9.184-1.906 3.552.803 6.762-.134 10.054-2.935l4.835-4.114-8.27-3.402c-6.867-2.825-8.082-4.152-7.163-7.824.985-3.937.736-4.109-2.272-1.57-1.858 1.567-3.14 4.349-2.85 6.181.29 1.832-.825 3.331-2.478 3.331-1.652 0-2.807-1.073-2.565-2.384.24-1.311-1.047-2.16-2.862-1.885-3.443.52-9.355 14.728-7.448 17.9 1.65 2.749 7.377 2.075 11.835-1.392zm54.422-6.134c.65-1.742-.317-4.871-2.149-6.954-1.832-2.082-3.068-5.02-2.746-6.526.32-1.507-.317-2.828-1.42-2.935-1.1-.107-4.03-.907-6.507-1.778-3.812-1.339-4.169-2.229-2.318-5.786 3.539-6.803-1.107-9.439-5.229-2.967-4.317 6.779-2.681 14.05 3.986 17.72 3.191 1.758 5.062 4.562 5.062 7.59 0 3.766 1.095 4.804 5.07 4.804 2.788 0 5.602-1.426 6.251-3.168zm-98.362-34.063c.727-1.21 2.554-1.715 4.06-1.12 2.99 1.18 5.734-2.112 5.817-6.982.029-1.7 1.18-2.859 2.556-2.575 1.377.283 2.504-.876 2.504-2.576 0-1.7-1.127-3.166-2.504-3.259-1.377-.092.651-1.61 4.507-3.372 3.855-1.762 5.933-3.601 4.617-4.087-1.315-.485-4.253.142-6.528 1.395-3.571 1.966-4.404 1.55-6.105-3.053-1.482-4.009-1.202-6.534 1.13-10.194 2.064-3.243 2.392-5.315.982-6.211-1.163-.74-3.013.797-4.11 3.415-1.096 2.618-3.116 6.38-4.488 8.36-1.97 2.842-1.979 4.445-.045 7.63 1.54 2.54 1.72 4.496.486 5.281-1.08.686-1.962 3.439-1.962 6.117 0 3.792-1.663 5.445-7.511 7.468-7.247 2.506-7.335 2.65-2.504 4.075 7.221 2.132 7.638 2.117 9.098-.312zm63.046-79.141c-1.393-1.727-3.315-3.14-4.271-3.14s-.218 1.826 1.64 4.059c1.858 2.232 3.78 3.646 4.272 3.14.491-.505-.247-2.332-1.64-4.06zm27.948 269.484c6.278-8.21 20.081-19.884 20.081-16.981 0 3.269-18.715 22.532-21.89 22.532-1.463 0-.741-2.215 1.809-5.55zm-257.052-50.6c-16.018-21.689-30.182-52.45-36.46-79.188-4.177-17.782-6.353-65.888-3.132-69.202 1.696-1.745 2.273.255 2.273 7.874 0 5.617.905 13.453 2.01 17.412 1.105 3.959 2.503 12.614 3.105 19.234.603 6.62 2.725 16.355 4.716 21.636 1.991 5.28 4.228 13.658 4.97 18.618.743 4.96 3.759 13.306 6.702 18.545 7.317 13.026 20.484 32.934 22.725 34.358 2.612 1.66 2.286 9.168-.398 9.168-1.25 0-1.775 1.817-1.189 4.121 1.447 5.692.414 5.192-5.322-2.575zm345.231-80.755c0-1.767.901-3.212 2.003-3.212s2.003.872 2.003 1.939c0 1.066-.901 2.512-2.003 3.212-1.102.7-2.003-.172-2.003-1.939zm17.302-37.211c.634-1.7 1.507-3.091 1.94-3.091.433 0 .787 1.39.787 3.09s-.873 3.091-1.94 3.091-1.421-1.39-.787-3.09zM365.255 261.15c1.079-1.338 1.39-3.02.691-3.74-.699-.718.21-1.891 2.02-2.606 3.516-1.388 4.488-6.243 1.478-7.383-.997-.378-2.124-3.378-2.503-6.666-.505-4.367.216-6.117 2.676-6.493 3.487-.534 6.468 4.285 4.587 7.416-.589.98.273 5.092 1.915 9.137 4.002 9.853 2.382 13.356-6.028 13.03-4.981-.192-6.274-.913-4.836-2.695zm241.507 1.314c-.863-1.436-1.028-3.167-.367-3.847 1.793-1.845 3.747.868 2.779 3.856-.679 2.094-1.15 2.092-2.412-.008zM356.37 251.371c2.436-8.033 10.192-10.979 8.137-3.09-.664 2.55-1.22 5.33-1.235 6.18-.015.85-1.89 1.546-4.168 1.546-3.375 0-3.88-.857-2.734-4.636zm-142.876-15.97c0-3.966.412-5.589.915-3.605.504 1.983.504 5.228 0 7.212-.503 1.983-.915.36-.915-3.606zm63.627-25.176c0-1.834-.542-4.788-1.205-6.565-.832-2.232.498-3.897 4.302-5.385 4.99-1.952 5.187-2.395 2.095-4.721-1.877-1.412-3.613-3.933-3.858-5.602-.65-4.436-3.263-8.186-5.703-8.186-1.324 0-1.167 1.195.415 3.156 2.1 2.603 1.916 3.628-1.05 5.86-2.475 1.861-3.277 4.408-2.577 8.177 1.165 6.273.176 6.652-5.438 2.08-2.926-2.382-3.298-3.532-1.38-4.268 2.034-.78 1.852-1.888-.804-4.908-2.612-2.969-4.076-3.35-6.131-1.595-1.993 1.701-2.7 1.7-2.7-.007 0-2.942-9.34-3.042-11.097-.118-.858 1.43-2.704.905-5.29-1.502-3.425-3.19-4.205-3.279-5.672-.65-5.074 9.09-7.405 9.777-3.068.905 2.793-5.712 5.39-13.15 5.773-16.527.382-3.378 1.739-8.148 3.014-10.6 3.486-6.702 2.81-7.873-2.02-3.503l-4.34 3.925 3.759-6.677c6.573-11.677 27.635-36.147 40.02-46.497 13.291-11.107 28.758-19.975 34.837-19.975 2.186 0 9.092-1.372 15.347-3.048 6.255-1.676 12.297-2.46 13.426-1.742 1.13.718 1.483.355.785-.805-.806-1.343 3.228-2.216 11.09-2.398 12.688-.295 34.14-5.964 32.554-8.603-.488-.813 1.355-1.92 4.096-2.458 2.741-.54 4.984-.193 4.984.77 0 .963 1.577 1.614 3.505 1.448 9.708-.837 14.941 2.98 7.01 5.112-2.571.692-2.273 1.006 1.12 1.182 2.581.133 4.069 1.164 3.367 2.333-.692 1.152-2.323 1.437-3.624.635-1.664-1.027-1.63-.526.114 1.692 3.45 4.386-2.82 7.269-19.503 8.97-8.267.844-14.481 2.688-17.025 5.051-2.203 2.048-6.71 5.275-10.014 7.172l-6.009 3.45 8.391-1.143c9.063-1.234 13.583 1.785 6.16 4.113-2.496.782-5.888 2.576-7.54 3.986-4.21 3.593-16.024 5.676-16.024 2.827 0-1.438-1.174-1.26-3.224.49-2.544 2.173-2.657 2.948-.536 3.675 1.478.507 3.894 2.164 5.37 3.682 2.24 2.305 2.082 2.77-.966 2.825-4.451.08-11.097 4.977-9.285 6.842.721.742 3.484-.116 6.14-1.906 5.467-3.685 10.513-2.607 10.513 2.248 0 3.648-12.27 17.477-15.508 17.477-1.146 0-2.65 2.318-3.34 5.151-.692 2.834-2.689 5.152-4.438 5.152-2.166 0-2.765-1.114-1.878-3.49 1.12-3.005.718-2.948-2.887.408-4.236 3.944-10.015 5.92-9.99 3.415.007-.75 1.758-4.087 3.89-7.417 2.134-3.329 3.427-6.806 2.874-7.727-.553-.92-.051-1.674 1.115-1.674 1.167 0 2.121.73 2.121 1.622 0 .892 1.88 1.768 4.178 1.946 2.751.213 3.824-.622 3.142-2.45-.591-1.585.621-3.218 2.833-3.813 2.127-.572 3.868-2.001 3.868-3.177 0-2.935-12.798-1.858-16.61 1.398-2.604 2.222-3.016 2.069-2.583-.966.283-1.985 1.618-3.987 2.966-4.45 3.877-1.329-3.64-8.655-8.882-8.655-4.249 0-16.952 11.181-16.952 14.92 0 .976-3.38 5.084-7.51 9.128-4.708 4.61-6.016 6.773-3.506 5.798 2.203-.855 5.914-1.45 8.246-1.323 2.332.129 7.74-1.528 12.017-3.682 6.73-3.387 7.87-3.492 8.463-.78.377 1.724-1.65 5.643-4.506 8.71-6.064 6.51-6.474 8.44-1.795 8.44 2.606 0 1.94 1.56-2.866 6.697-3.445 3.683-6.877 9.262-7.628 12.396-.75 3.135-3.556 7.473-6.235 9.64-2.678 2.167-5.26 6.025-5.736 8.573-1.109 5.923-4.967 10.207-4.967 5.517zm68.822-101.548c.634-1.7.376-3.09-.573-3.09s-2.244 1.39-2.878 3.09c-.634 1.7-.377 3.091.573 3.091.949 0 2.244-1.39 2.878-3.09zm9.123 99.422c-.699-2.158-1.01-9.787-.4-9.787 3.123 0 12.475 6.756 11.53 8.33-1.011 1.684-10.647 2.946-11.13 1.457zm-35.885-17.12c0-7.684 9.868-21.399 16.446-22.856 2.986-.661 5.24-1.885 5.007-2.718-.232-.833 3.634-4.716 8.59-8.629 4.958-3.912 9.021-8.724 9.031-10.693.023-4.75 5.127-7.916 8.34-5.172 1.366 1.166 3.52 1.46 4.787.655 3.258-2.071-1.68-5-8.498-5.04-5.01-.03-5.253-.445-3.645-6.213.948-3.4.957-6.182.02-6.182-.938 0-2.299 2.782-3.024 6.182-.726 3.4-2.103 6.182-3.06 6.182-2.415 0 1.737-11.585 5.218-14.557 1.567-1.338 2.849-3.733 2.849-5.322 0-1.59 2.312-3.794 5.137-4.899 6.817-2.666 6.88-2.647 6.88 2.112 0 2.266-.954 4.12-2.12 4.12-1.168 0-1.565-.927-.884-2.06.68-1.133-.22-2.06-2.003-2.06-1.782 0-2.731.848-2.109 1.884.623 1.037.365 2.196-.573 2.576-.938.38-2.335 3.332-3.104 6.56-1.035 4.34-.725 5.636 1.192 4.979 1.425-.489 2.591-2.125 2.591-3.636 0-1.511 1.252-3.177 2.783-3.702 1.688-.579 2.232-.039 1.383 1.374-.785 1.308-.166 2.328 1.414 2.328 4.546 0 10.056 7.664 8.868 12.337-.8 3.146.355 4.99 4.506 7.2 7.115 3.784 7.594 11.903.92 15.578-2.563 1.411-4.479 3.217-4.256 4.014.752 2.688-16.375 20.338-17.351 17.88-.525-1.322-1.026-.821-1.113 1.113-.136 3.013-2.098 3.435-13.678 2.944-11.123-.473-15.028.285-22.031 4.275l-8.513 4.85zm-104.015 2.181c.013-3.639 5.726-12.648 5.803-9.151.04 1.767-1.252 5.012-2.87 7.212-1.617 2.2-2.937 3.072-2.933 1.94zM443.2 173.845c-1.418-4.868-1.63-9.258-.545-11.253 1.28-2.351 1.84-.876 1.996 5.248.145 5.659 1.438 9.436 3.852 11.253 3.198 2.405 3.237 2.734.328 2.734-2.104 0-4.151-2.902-5.63-7.982zm-37.431-2.32c-2.087-5.482-.146-8.297 5.546-8.049 2.165.095 2.281.43.417 1.2-2.009.828-2.057 1.725-.215 4.008 1.304 1.617 1.793 3.536 1.085 4.264-.708.728-1.35.01-1.428-1.595-.082-1.695-.834-1.19-1.792 1.202-1.572 3.92-1.748 3.87-3.613-1.03zm22.656-16.343c-.634-1.055-.236-2.5.883-3.212 1.12-.712 2.036.151 2.036 1.918 0 3.62-1.202 4.152-2.92 1.294zm9.929-14.566c-.681-1.133-.357-2.06.72-2.06 1.076 0 3.607-.638 5.625-1.417 3.23-1.246 3.34-1 .92 2.06-3.125 3.953-5.467 4.41-7.265 1.417zm-91.101-16.427c-1.948-3.744-1.594-4.162 3.404-4.016 3.068.09 4.446.632 3.063 1.206-1.384.574-2.045 1.828-1.47 2.786.576.958.176 2.296-.888 2.973-1.065.676-2.914-.65-4.11-2.949zm198.255-5.209c-4.865-5.1-8.395-9.273-7.844-9.273.55 0 4.982 4.173 9.847 9.273 4.865 5.1 8.395 9.272 7.844 9.272-.55 0-4.982-4.172-9.847-9.272zm-101.949-7.727c-2.758-4.62-2.753-4.622 1.521-.711 4.59 4.2 5.183 5.347 2.769 5.347-.837 0-2.767-2.086-4.29-4.636zm86.927-3.606c-3.265-1.444-3.38-1.798-.619-1.916 1.863-.08 3.944.783 4.625 1.916 1.423 2.37 1.354 2.37-4.006 0zm-11.271-7.727c-2.491-3.268-2.42-3.341.756-.778 3.336 2.692 4.397 4.384 2.749 4.384-.416 0-1.993-1.623-3.505-3.606z"/></svg>