<svg xmlns="http://www.w3.org/2000/svg" xml:space="preserve" width="3072" height="2048" viewBox="0 0 812.8 541.867"><path d="M 0 0 L 0 541.86683 L 812.80025 541.86683 L 812.80025 0 L 0 0 z" style="fill:#e00000;stroke-width:1.05833;stroke-linecap:round;stroke-linejoin:round;paint-order:stroke fill markers;fill-opacity:1"/><path fill="#fff" d="m 406.40012,67.507889 a 203.2,203.2 0 0 0 -203.2,203.200001 203.2,203.2 0 0 0 203.2,203.2 203.2,203.2 0 0 0 203.2,-203.2 203.2,203.2 0 0 0 -203.2,-203.200001 z" paint-order="stroke fill markers"/><path fill="#e00000" d="m 291.95668,131.23341 c -14.24702,11.2365 41.87254,75.44401 41.87254,75.44401 L 275.79791,175.2869 c -5.733,15.69527 53.68805,52.43628 53.68805,52.43628 L 263.6359,216.48667 c -5.90702,16.7655 68.63031,31.74751 68.63031,31.74751 l -48.99754,16.4085 c 3.6495,14.0895 56.98955,0.1785 56.98955,0.1785 l -40.83004,28.35826 c 4.51724,13.55475 56.11956,-16.7655 56.11956,-16.7655 l -27.16203,35.2695 c 11.91751,8.1975 41.89504,-28.2495 41.89504,-28.2495 l -18.06002,37.07776 c 8.47651,6.30599 35.99704,-32.91602 35.99704,-32.91602 l 7.81351,30.37501 c -43.95754,-20.511 -24.70653,27.51225 -24.70653,27.51225 0,0 -40.72728,24.15077 -38.57704,20.74576 2.14951,-3.40499 -1.28999,-4.8555 -1.28999,-4.8555 0,0 -0.4725,-0.65399 -4.35001,0.70951 l -1.179,-2.601 10.68826,-2.27025 -5.28226,-9.837 -7.7565,5.90998 -78.88058,-139.11601 69.31357,144.55652 -9.33676,4.41376 4.42275,8.19749 9.45976,-7.44075 0.96601,1.55401 c -8.72627,4.82401 0.0788,9.6075 0.0788,9.6075 -3.13277,4.41375 3.993,7.88249 3.993,7.88249 -1.7205,4.28701 5.8965,5.04376 5.8965,5.04376 0,0 1.41751,-1.0395 2.77876,-2.025 l 3.6105,5.80875 1.1055,5.92726 6.63377,2.77498 0.73798,-6.80999 -4.54575,-3.53175 -3.23849,-7.14751 c 0.79799,-0.52048 1.54949,-0.99 2.13224,-1.30199 2.826,-1.51349 -1.1055,-5.928 -1.1055,-5.928 l 0.49125,-2.77351 38.26278,-21.78749 9.65176,0.22124 c -18.99452,-30.33301 16.02452,-21.00901 13.84728,-17.745 9.55575,26.2185 -10.94626,37.09801 -10.94626,37.09801 l 10.245,0.82499 c 0,0 0.24525,13.7475 -10.59001,20.64152 l 10.59001,0.78374 c 0,0 0.24525,13.74676 -10.93501,20.68276 l 9.70651,-2.12926 8.47652,24.46651 8.47724,-24.46651 9.70578,2.12926 c -11.18027,-6.936 -10.93428,-20.68276 -10.93428,-20.68276 l 10.59001,-0.78374 c -10.83526,-6.89402 -10.59001,-20.64076 -10.59001,-20.64076 l 10.24501,-0.82499 c 0,0 -20.50277,-10.88027 -10.94625,-37.09803 -2.17726,-3.26475 32.84177,-12.58875 13.84727,17.74501 l 9.6525,-0.22199 38.26203,21.78749 0.49051,2.77351 c 0,0 -3.93076,4.41451 -1.10552,5.928 0.45377,0.243 1.01627,0.58725 1.61252,0.96601 -3.159,4.41973 -5.54251,8.18024 -5.9505,9.95774 -1.38977,6.06375 6.08175,5.3505 6.08175,5.3505 l 7.43176,-9.99751 0.0391,0.0284 c 0,0 7.61701,-0.75674 5.89727,-5.04449 0,0 7.125,-3.468 3.99299,-7.8825 0,0 4.61026,-2.49375 3.89476,-5.6955 l 8.97525,-12.0735 c 0,0 -15.28876,-9.096 -17.2005,-20.33251 -1.91102,-11.2365 4.86525,-24.61276 23.62951,-26.39626 18.76502,-1.7835 27.27753,22.29451 27.27753,22.29451 0,0 -1.38974,-28.18051 -30.05778,-29.42851 -28.66804,-1.24875 -34.74902,28.536 -32.83803,34.95751 1.91175,6.41999 1.2165,8.38201 11.64151,20.68875 l 6.94951,-1.60499 c 0,0 -2.208,2.63999 -5.3085,6.46499 -8.05201,-3.66525 -8.81926,-2.55749 -8.81926,-2.55749 0,0 -3.43951,1.45049 -1.29001,4.8555 2.15026,3.405 -38.57703,-20.74577 -38.57703,-20.74577 0,0 19.25176,-48.0225 -24.70653,-27.51225 l 7.81352,-30.37501 c 0,0 27.52052,39.22201 35.99703,32.91602 l -18.06011,-37.07772 c 0,0 29.97752,36.447 41.89504,28.2495 l -27.16203,-35.2695 c 0,0 51.6023,30.32025 56.11955,16.7655 l -40.83007,-28.35823 c 0,0 53.34007,13.91099 56.98882,-0.17851 l -48.99755,-16.40849 c 0,0 74.53806,-14.98201 68.63032,-31.74751 l -65.85007,11.23651 c 0,0 59.42181,-36.74102 53.68805,-52.43627 l -58.03131,31.39051 c 0,0 56.12031,-64.20752 41.87255,-75.44402 l -59.5951,62.78105 c 0,0 1.04249,-9.453 -2.6055,-9.6315 0,0 -2.85377,8.62575 -25.21353,30.06526 0,0 -12.28577,19.42199 6.5115,22.44901 0,0 -9.33751,32.664 -27.64352,-2.64827 l 7.863,1.5765 -5.09851,-16.332 6.32701,2.0175 -5.34376,-14.6295 6.81751,2.145 -2.70225,-6.43276 -0.67575,-0.81974 c 0,0 0.246,-13.431 -2.5185,-15.51225 0,0 10.75051,3.15299 10.5045,-3.468 l -5.4675,-0.378 -13.57501,-9.27001 c 0,0 -7.12651,-3.27899 -10.56677,2.08125 0,0 -10.19624,0.063 -7.371,11.60251 0,0 5.58976,-5.1705 11.85602,-1.07251 6.26549,4.0995 7.617,14.3775 7.617,14.3775 0,0 -8.72251,-8.70075 -12.71551,-5.86424 0,0 13.80901,9.40651 3.255,39.97875 -18.30526,35.31227 -27.64278,2.64827 -27.64278,2.64827 18.79727,-3.02702 6.5115,-22.44901 6.5115,-22.44901 -22.35975,-21.43951 -25.21352,-30.06526 -25.21352,-30.06526 -3.64874,0.1785 -2.60624,9.6315 -2.60624,9.6315 z m 110.1436,44.466 3.195,1.29299 c 0,0 -2.55,2.36402 0.39827,3.43651 2.94899,1.07251 3.34798,-1.60799 3.34798,-1.60799 l 5.22151,3.68925 0.24601,0.441 -0.369,0.72525 -3.62401,-1.608 c 0,0 -10.9035,3.68925 -8.41576,-6.36901 z m -23.03552,5.20201 -0.79875,1.89225 c 0,0 6.94125,15.70125 13.63726,10.215 6.69526,-5.48551 14.74277,0.88275 14.74277,0.88275 0,0 -1.59751,-7.88175 -13.45276,-5.1075 -11.85602,2.77499 -14.12852,-7.8825 -14.12852,-7.8825 z" style="fill:#000;fill-opacity:1;stroke-width:.999999"/></svg>