<svg xmlns="http://www.w3.org/2000/svg" xml:space="preserve" width="3072" height="2048" viewBox="0 0 812.8 541.867"><path d="M 0,0 V 541.86683 H 812.80025 V 0 Z" style="display:inline;fill:#000;fill-opacity:1;stroke-width:12.7;stroke-linecap:round;stroke-linejoin:round;paint-order:stroke fill markers"/><path d="m 210.47595,67.733346 a 7.2579866,7.2579866 0 0 0 -7.25726,7.257261 v 25.542663 a 7.2579866,7.2579866 0 0 0 2.11247,5.11998 l 277.57859,278.95248 -4.25686,4.35861 c -2.017,2.06499 -4.0145,4.23511 -5.65353,6.12635 -0.87044,1.00438 -1.62843,1.94627 -2.20412,2.68604 -0.28784,0.36989 -0.52896,0.68648 -0.72339,0.94917 -0.19442,0.2627 0.12015,-0.3994 -0.73099,1.08687 -5.96504,10.41616 -6.02096,23.61864 -0.0441,33.89945 2.54304,4.37439 5.56659,7.12978 8.57953,10.22121 a 7.2579866,7.2579866 0 0 0 0.0668,0.0668 l 5.3265,5.39182 c 3.22304,3.26253 5.2677,5.25803 8.18114,6.7728 2.34746,1.22053 5.85864,1.66753 8.57344,1.46958 7.788,-0.5679 14.5503,-7.33974 15.10934,-15.13061 a 7.2579866,7.2579866 0 0 0 0,-5e-4 7.2579866,7.2579866 0 0 0 0,-5.1e-4 7.2579866,7.2579866 0 0 0 0,-5.1e-4 c 0.0977,-1.36156 0.21855,-2.55637 0.0101,-4.23053 -0.20865,-1.67414 -0.92671,-3.46231 -1.57486,-4.6264 -1.73634,-3.11839 -3.94074,-5.28091 -8.02622,-9.45934 -1.94486,-1.98905 -3.77328,-3.95905 -5.11998,-5.49104 -0.67838,-0.77171 -1.22333,-1.41983 -1.57841,-1.87101 -0.098,-0.12457 -0.005,0.0188 -0.0729,-0.0612 0.11794,-0.26211 0.39073,-0.7015 1.27264,-1.41592 5.31084,-4.30225 12.40618,-5.85672 18.75974,-4.18852 2.75668,0.7238 4.21316,1.2814 6.84216,3.30617 2.76836,2.13207 6.78619,5.98194 13.83466,12.99128 a 7.2579866,7.2579866 0 0 0 0.002,0 l 11.96213,11.89329 -0.0764,0.46117 c -0.49913,3.01175 -0.76885,5.86094 0.044,8.94249 0.8131,3.08219 2.74653,5.60659 4.62033,7.44102 3.76545,3.68626 7.98933,5.12843 13.11936,4.63399 2.83015,7.62296 10.11346,12.85326 18.36032,13.27073 1.56768,0.0793 2.9736,0.0158 4.18802,-0.10935 1.21439,-0.12513 1.72752,-0.0406 3.62559,-0.75377 6.44253,-2.42044 11.48813,-7.6476 13.38766,-14.09536 1.8666,-6.33611 0.68534,-13.3388 -3.18011,-18.63724 -1.50147,-2.05807 -3.10678,-3.46324 -5.10276,-4.88255 -1.08812,-0.77373 -2.10501,-1.34586 -3.02116,-1.7966 -0.52416,-0.25788 -0.866,-0.46018 -1.38301,-0.66214 l 0.0208,-0.43029 c 0.10851,-2.27884 0.0912,-4.63114 -0.83578,-7.15197 -0.92699,-2.52082 -2.59425,-4.42955 -4.10803,-5.87779 -2.48804,-2.3804 -5.00947,-3.42231 -8.12392,-4.09841 -2.57488,-0.55897 -4.83481,-0.55428 -7.38128,0.0957 -0.13007,-0.0972 -0.0675,-0.0191 -0.66974,-0.55281 -1.80264,-1.59759 -5.23114,-5.0262 -11.50855,-11.39768 -10.26376,-10.41765 -13.61235,-14.30378 -14.39354,-15.86665 -4.69775,-9.39851 -3.48155,-17.70499 4.17283,-26.42856 6.03166,-6.87419 8.9891,-14.57424 9.00172,-23.50307 0.01,-6.60701 -1.90012,-13.16362 -5.47737,-18.58155 -1.27632,-1.93304 -2.37186,-3.01523 -4.19965,-5.01671 -1.8278,-2.00146 -4.04968,-4.32932 -6.25696,-6.50905 -2.17333,-2.14621 -4.333,-4.19083 -6.17191,-5.81857 -0.92009,-0.81445 -1.7362,-1.50947 -2.49874,-2.10287 -0.36779,-0.28619 -0.53808,-0.38438 -0.77604,-0.54165 0.17185,0.15046 0.2253,0.16822 0.67024,0.62771 0.18504,0.19109 0.77188,0.94216 0.77149,0.94159 -1.9e-4,-2.8e-4 0.59492,1.04864 0.59481,1.0484 -1e-5,-3e-5 0.0603,0.20659 0.0785,0.26778 a 7.2579866,7.2579866 0 0 0 -3.73848,-3.86453 c -0.1001,-0.0421 -0.12284,-0.0699 -0.63126,-0.23742 -0.12712,-0.0419 -0.28614,-0.096 -0.60697,-0.17211 -0.16042,-0.0381 -0.36111,-0.0849 -0.67328,-0.12859 -0.0225,-0.003 -0.0767,-6e-4 -0.10732,-0.004 -1.8316,-0.45538 -3.29251,-0.5093 -4.84256,-0.47839 -2.10343,0.0419 -3.7065,-0.16118 -6.81887,1.29139 -5.56719,2.59826 -9.4649,9.13999 -9.46491,15.51128 0,2.36759 0.86318,6.0449 2.34939,8.43575 1.77538,2.85602 4.19424,5.44858 8.24238,9.60464 2.34121,2.40359 4.00446,4.07822 4.96304,5.244 0.97767,1.18898 0.79735,1.20459 0.7963,0.94563 a 7.2579866,7.2579866 0 0 0 0,0.002 c -9.8e-4,-0.28694 0.18315,-0.26372 -0.76187,0.88235 -0.94288,1.14346 -2.58831,2.78768 -4.91141,5.15642 l -3.9754,4.05589 L 241.48636,69.872659 a 7.2579866,7.2579866 0 0 0 -5.14478,-2.139313 z M 536.82033,299.37949 c -0.14936,-0.0987 -0.42137,-0.29822 -0.487,-0.34019 -0.0425,-0.0272 -0.0678,-0.0438 -0.008,-0.004 0.0422,0.0279 0.0947,-0.006 0.49458,0.34424 z" style="display:inline;fill:#fff;fill-opacity:1;stroke:none;stroke-width:1"/><path d="M 221.65849,80.433552 506.46396,366.73087 c 2.01504,-2.02887 4.03469,-4.05349 6.0418,-6.0904 L 233.6682,80.433552 Z m -5.80693,6.063074 V 98.398007 L 495.5725,377.70991 c 1.66756,-1.68654 3.33925,-3.36901 5.01113,-5.05112 z M 528.58301,309.9019 c -2.4723,10e-6 -4.0878,1.58789 -4.08778,4.01843 10e-6,1.44012 1.16539,2.91312 7.09629,8.97387 3.90256,3.98805 7.63587,8.33127 8.29654,9.65172 1.45119,2.90045 1.59832,7.79316 0.32702,10.87627 -1.69982,4.12238 -57.62475,58.12206 -60.45457,63.84425 -2.79749,5.657 -2.81224,13.46948 -0.0355,18.99311 2.83897,5.64733 4.54486,6.02098 7.05225,8.8296 1.56157,1.74917 4.96354,4.98025 4.96354,4.98025 4.28901,4.30344 5.225,4.98026 6.88772,4.98026 2.57522,0 3.99313,-1.38914 3.99311,-3.91162 0,-1.83047 -0.70085,-2.73786 -7.33522,-9.49174 -4.21961,-4.29566 -7.70421,-8.35597 -8.20289,-9.55906 -1.11465,-2.68916 -1.11089,-7.84567 0.007,-10.55786 0.59968,-1.45433 9.99714,-11.34265 29.92507,-31.48779 22.9011,-23.15074 29.39162,-30.0314 30.65959,-32.50377 1.46666,-2.8599 1.6086,-3.66397 1.61233,-9.12373 0.006,-8.70009 -0.97044,-10.54586 -10.90614,-20.6267 -7.10504,-7.2088 -7.94586,-7.88546 -9.79851,-7.88549 z m 4.86939,65.55935 -21.87708,22.08261 4.19055,0.35689 c 2.30482,0.19637 5.73915,0.84286 7.63187,1.43667 l 3.44132,1.07978 9.513,-9.82585 -1.02915,-3.01964 c -0.56603,-1.66068 -1.21849,-5.06449 -1.44983,-7.56454 z m 7.12361,23.3988 -6.15368,5.98714 9.30849,8.7805 5.79984,-5.92893 z m -12.40051,12.31952 c 3.09275,2.38196 7.17049,6.31419 14.23002,13.33452 -7.05952,-7.02032 -11.13724,-10.95256 -14.23002,-13.33452 z m 27.3104,2.49621 -5.9031,6.02561 12.18284,12.24308 5.9031,-6.02561 z m -85.43784,10.89044 c 0.62772,2.50332 1.57227,4.89321 2.83335,7.06236 -1.26108,-2.16915 -2.2056,-4.55906 -2.83335,-7.06236 z m 109.55396,3.37602 c -1.85974,-1e-5 -2.6574,0.62394 -8.93034,6.98543 -7.89483,8.00636 -8.50292,9.21908 -5.92437,11.81835 0.94154,0.94848 2.28418,1.72522 2.98472,1.72522 0.87507,0 3.57429,-2.30046 8.62356,-7.34939 6.27335,-6.27294 7.3494,-7.60744 7.3494,-9.11613 0,-2.47883 -1.5997,-4.06351 -4.10297,-4.06348 z m -72.26786,4.19612 c 1.79431,2.05925 2.78376,3.54627 3.28794,5.0334 -0.50414,-1.48711 -1.49366,-2.97416 -3.28794,-5.0334 z m 47.78271,12.28864 c 0.0256,2.40233 0.56859,4.39294 1.69079,6.20026 -1.1224,-1.80744 -1.66518,-3.79774 -1.69079,-6.20026 z m 33.49091,0.0526 c -0.73692,-1e-5 -2.39175,0.51271 -3.67723,1.14002 -6.21508,3.03284 -6.25522,12.08129 -0.0668,15.0415 7.46339,3.57006 15.06738,-4.37903 11.06156,-11.56373 -1.36938,-2.45607 -4.79508,-4.61779 -7.31751,-4.61779 z" style="display:inline;fill:#ffd020;stroke:none;stroke-width:1;stroke-opacity:1"/><path d="m 599.28942,67.742678 c -37.52055,0.965969 -68.83053,32.277042 -69.79735,69.798372 -0.0112,0.44688 -0.004,0.87477 10e-4,1.29863 l -12.52948,12.53 c 0.0975,-17.40057 -6.46822,-34.83085 -19.7151,-48.07772 -0.0993,-0.0993 -0.20436,-0.1961 -0.30437,-0.29611 l 5.10306,-5.103051 c 2.48525,-2.485249 2.48525,-6.514492 0,-8.998941 -2.48524,-2.486019 -6.51456,-2.486059 -8.99895,0 l -14.39858,14.398612 c -24.78083,24.78084 -26.20158,64.19921 -4.28139,90.67154 l -17.88264,17.88316 c 0.87629,-20.08424 -6.32909,-40.45806 -21.63178,-55.75995 -0.0992,-0.0992 -0.20416,-0.19788 -0.30437,-0.2961 l 5.10306,-5.10305 c 2.48525,-2.48525 2.48522,-6.51372 0,-8.99895 -2.48524,-2.48523 -6.51398,-2.48473 -8.99843,5.2e-4 l -14.39861,14.3981 c -27.42802,27.42881 -28.84762,71.14559 -4.29381,100.28336 l -20.80338,20.80339 c 0.15474,-2.05263 0.23459,-4.11869 0.23461,-6.19911 -2e-5,-21.64235 -8.42842,-41.98998 -23.73191,-57.29266 -0.10086,-0.10086 -0.20349,-0.19565 -0.3049,-0.29507 l 5.10565,-5.10565 c 2.48522,-2.48521 2.48523,-6.51449 0,-8.99893 -2.48524,-2.48523 -6.51451,-2.48524 -8.99895,0 l -14.39809,14.39862 c -15.30428,15.30346 -23.73142,35.65162 -23.73139,57.29318 0,19.50798 6.84972,37.96167 19.40761,52.61905 l -19.03502,19.03502 c 0.3183,-3.05597 0.48421,-6.14495 0.48421,-9.26042 0,-23.45608 -9.13425,-45.50776 -25.72042,-62.09393 -0.10087,-0.10087 -0.20351,-0.19566 -0.30489,-0.29507 l 5.10357,-5.10357 c 2.48524,-2.48523 2.48523,-6.51451 0,-8.99893 -2.48523,-2.48524 -6.51399,-2.48524 -8.99843,0 l -14.39344,14.39912 c -16.58618,16.58617 -25.7194,38.63788 -25.71939,62.09393 -1e-5,21.3217 7.54978,41.48205 21.38166,57.43324 l -72.47418,72.46798 c -2.48522,2.48522 -2.48522,6.5132 0,8.99842 1.24143,1.24222 2.87099,1.86397 4.49895,1.86397 1.62799,0 3.25672,-0.62096 4.49895,-1.86397 l 72.47213,-72.4716 c 15.95035,13.83191 36.11073,21.38114 57.43322,21.38114 23.45607,0 45.50698,-9.13426 62.09238,-25.71886 l 14.39862,-14.39862 c 2.48524,-2.48524 2.48523,-6.5137 0,-8.99893 -2.48522,-2.48522 -6.514,-2.48523 -8.99843,0 l -5.10408,5.10563 c -0.0993,-0.10087 -0.19428,-0.2041 -0.29507,-0.30489 -18.95474,-18.95474 -45.38116,-27.93484 -71.37089,-25.21864 l 19.0526,-19.05208 c 14.65815,12.55793 33.11108,19.40809 52.61904,19.40813 21.64237,-3e-5 41.99023,-8.42841 57.29371,-23.7319 l 14.39861,-14.39758 c 2.48524,-2.48523 2.48524,-6.51451 0,-8.99894 -2.48444,-2.48524 -6.51318,-2.48603 -8.99842,0 l -5.10408,5.10408 c -0.10002,-0.10157 -0.19346,-0.2038 -0.29507,-0.3054 -16.91955,-16.91956 -40.29725,-25.22007 -63.51917,-23.47146 l 20.82561,-20.82562 c 13.36357,11.28394 30.10029,17.4465 47.79299,17.4465 19.82944,0 38.47243,-7.72234 52.49399,-21.74391 l 14.39862,-14.39862 c 2.48521,-2.48527 2.48522,-6.51398 0,-8.99842 -2.48524,-2.48522 -6.5145,-2.48523 -8.99894,0 l -5.10254,5.10305 c -0.0985,-0.10002 -0.19728,-0.20555 -0.29611,-0.30437 -10.0409,-10.04092 -22.64838,-16.95737 -36.45723,-19.99983 -6.35795,-1.40096 -12.83347,-1.94621 -19.26602,-1.6676 l 17.84647,-17.84647 c 12.42533,10.29017 27.69598,15.44428 42.97726,15.44351 17.26957,-8.2e-4 34.54661,-6.57646 47.69428,-19.72491 l 14.39757,-14.39861 c 2.48525,-2.48524 2.48523,-6.51398 0,-8.99842 -2.48838,-2.4876 -6.51733,-2.48764 -9.00255,-0.001 l 5.2e-4,-0.002 -5.10305,5.10305 c -0.0992,-0.10003 -0.19728,-0.20554 -0.29611,-0.30437 -12.98097,-12.98176 -30.27919,-19.88553 -48.01312,-19.77917 l 12.46332,-12.46333 c 0.18731,0.004 0.36785,0.01 0.55914,0.01 0.24358,0 0.49101,-8.2e-4 0.74104,-0.01 37.5213,-0.9652 68.83156,-32.27747 69.79734,-69.795794 0.0294,-1.1303 -0.0152,-2.196123 -0.0563,-3.138313 -0.014,-0.306389 -0.0261,-0.614201 -0.0356,-0.921391 -0.11109,-3.348028 -2.79869,-6.037263 -6.14692,-6.148983 l -0.91829,-0.03669 c -0.94297,-0.0398 -2.01002,-0.08451 -3.14347,-0.05581 z" style="display:inline;fill:#fff;fill-opacity:1;stroke:none;stroke-width:.413413"/><path d="m 596.72006,80.613737 c -28.59401,2.198709 -52.1559,25.761863 -54.35538,54.355893 28.59403,-2.1995 52.1567,-25.76184 54.35538,-54.355893 z M 487.95194,111.99272 c -0.10061,0.0994 -0.20052,0.19846 -0.29972,0.29766 l -5.2e-4,5.1e-4 c -21.33759,21.33678 -21.33757,56.05499 0,77.39173 0.10005,0.10007 0.2061,0.19164 0.30696,0.29094 0.0982,-0.097 0.19592,-0.19476 0.29352,-0.29146 21.3368,-21.33675 21.33677,-56.05495 0,-77.39172 -0.10001,-0.1 -0.19965,-0.19906 -0.30024,-0.29766 z m -62.39314,52.79371 c -0.10058,0.0994 -0.20104,0.19888 -0.30024,0.29818 v 0.001 c -23.98312,23.98393 -23.98338,63.00673 -10e-4,86.99062 0.10062,0.0986 0.20694,0.19164 0.30696,0.29094 0.0986,-0.0974 0.19643,-0.19475 0.29403,-0.29145 23.98314,-23.98392 23.98315,-63.008 0,-86.99114 -0.0992,-0.0992 -0.19885,-0.19888 -0.29972,-0.29818 z m 101.24196,8.25068 c -4.71309,-0.033 -9.47001,0.54419 -14.15987,1.75803 -3.14316,8.36587 -8.00144,16.224 -14.57897,23.03272 21.03749,12.70051 48.84335,9.99258 66.98201,-8.14524 0.0994,-0.0998 0.19836,-0.20021 0.29766,-0.30024 -0.0994,-0.10062 -0.19846,-0.20054 -0.29766,-0.29974 -10.35843,-10.35724 -24.10392,-15.9466 -38.24317,-16.04553 z M 358.36544,222.3809 c -0.1002,0.099 -0.19919,0.19784 -0.29921,0.29714 h -5.2e-4 c -12.9,12.90003 -20.00448,30.05231 -20.00448,48.29424 0,18.24356 7.10317,35.39398 20.00397,48.29477 0.0992,0.0992 0.20537,0.19267 0.3054,0.29197 0.0982,-0.097 0.19573,-0.19417 0.29353,-0.29197 7.03342,-7.03263 12.32816,-15.33407 15.70396,-24.382 0.0229,-0.0675 0.0515,-0.13328 0.077,-0.19998 2.76781,-7.49058 4.22403,-15.48772 4.22403,-23.71175 0,-18.24354 -7.10314,-35.39605 -20.00396,-48.29528 -7.9e-4,-1e-5 -0.001,-5.2e-4 -0.001,-5.2e-4 -0.0996,-0.0996 -0.19867,-0.19812 -0.29869,-0.29662 z m 109.38462,11.03551 c -5.46681,0.10528 -10.977,0.94436 -16.3985,2.54714 -3.50125,8.85903 -8.77566,17.16783 -15.81299,24.39336 9.82104,6.32697 21.25325,9.73376 33.21504,9.73377 16.42983,2e-5 31.87827,-6.39812 43.49557,-18.01545 0.0994,-0.0998 0.19836,-0.19969 0.29766,-0.29972 -0.0994,-0.10061 -0.19846,-0.20104 -0.29766,-0.30024 -12.08483,-12.08603 -28.0987,-18.37471 -44.49912,-18.05886 z M 291.1731,279.97433 c -0.10021,0.0998 -0.2,0.19836 -0.2992,0.29766 l -5.2e-4,5.1e-4 c -14.18112,14.18193 -21.99166,33.03828 -21.99247,53.09396 1e-5,20.05641 7.81056,38.91206 21.99247,53.09395 0.10004,0.10005 0.20538,0.19216 0.30541,0.29146 0.0986,-0.0975 0.19602,-0.19448 0.29352,-0.29198 14.18196,-14.18112 21.99245,-33.03672 21.99247,-53.09395 0,-20.05565 -7.81053,-38.91124 -21.99247,-53.09395 -0.0996,-0.0996 -0.19863,-0.19906 -0.29921,-0.29766 z m 117.29836,18.74563 c -7.76016,-0.25133 -15.61015,0.81263 -23.19964,3.26855 -3.91557,9.45752 -9.65253,18.15887 -17.02171,25.67804 11.1744,7.54457 24.32901,11.60446 38.11088,11.60446 18.24353,-10e-6 35.39446,-7.10314 48.29528,-20.00396 0.0996,-0.0996 0.19854,-0.19915 0.29714,-0.29973 -0.099,-0.10021 -0.19784,-0.19917 -0.29714,-0.2992 v -0.002 C 442.18208,306.19191 425.54382,299.27244 408.47146,298.71951 Z M 345.082,363.90518 c -8.72219,-0.14138 -17.52832,1.23001 -26.00929,4.20286 -4.24893,9.86314 -10.3357,18.9449 -18.08418,26.82215 12.51345,8.77648 27.37791,13.52164 42.97984,13.52166 20.05646,-3e-5 38.91201,-7.80975 53.09396,-21.99247 0.10001,-0.10001 0.19906,-0.19863 0.29766,-0.29921 -0.099,-0.10021 -0.19846,-0.20052 -0.29766,-0.29972 v -0.001 C 383.05195,371.84904 364.27082,364.21622 345.082,363.90518 Z" style="display:inline;fill:#ffd020;fill-opacity:1;stroke-width:.413413"/></svg>