<svg xmlns="http://www.w3.org/2000/svg" width="3072" height="2048" viewBox="0 0 812.8 541.867"><path fill="#e0c020" d="M0 0v541.867h812.8V0H0z"/><path d="M372.533 0v72.084a135.467 135.467 0 0 0-101.6 131.116 135.467 135.467 0 0 0 18.15 67.733 135.467 135.467 0 0 0-18.15 67.734 135.467 135.467 0 0 0 101.6 131.115v72.085H381v-70.208a135.467 135.467 0 0 0 25.4 2.474 135.467 135.467 0 0 0 25.4-2.474v70.208h8.467v-72.085a135.467 135.467 0 0 0 101.6-131.115 135.467 135.467 0 0 0-18.155-67.724 135.467 135.467 0 0 0 18.155-67.743 135.467 135.467 0 0 0-101.6-131.153V0H431.8v70.15a135.467 135.467 0 0 0-25.4-2.417 135.467 135.467 0 0 0-25.4 2.475V0h-8.467zM406.4 76.2a127 127 0 0 1 25.4 2.575v126.838c2.842.541 5.665 1.173 8.467 1.895V80.804A127 127 0 0 1 533.4 203.2a127 127 0 0 1-14.86 59.476 135.467 135.467 0 0 0-86.74-56.973v8.64a127 127 0 0 1 81.995 56.546 127 127 0 0 1-81.995 56.623v8.649a135.467 135.467 0 0 0 86.768-57.032 127 127 0 0 1 14.832 59.538 127 127 0 0 1-93.133 122.395V334.273a135.458 135.458 0 0 1-8.467 1.895v126.924a127 127 0 0 1-25.4 2.575 127 127 0 0 1-25.4-2.672V336.254a135.467 135.467 0 0 1-8.467-1.896v126.667A127 127 0 0 1 279.4 338.667a127 127 0 0 1 14.865-59.485A135.467 135.467 0 0 0 381 336.162v-8.65a127 127 0 0 1-81.966-56.579A127 127 0 0 1 381 214.355v-8.65a135.467 135.467 0 0 0-86.735 56.98A127 127 0 0 1 279.4 203.2a127 127 0 0 1 93.133-122.358v126.752a135.465 135.465 0 0 1 8.467-1.895V78.872a127 127 0 0 1 25.4-2.672z"/></svg>