<svg xmlns="http://www.w3.org/2000/svg" xml:space="preserve" id="svg1" width="4608" height="3072" version="1.1" viewBox="0 0 1219.2 812.8"><defs id="defs1"><style id="style1">.cls-1{fill:#0283c0}.cls-2{fill:#fff}.cls-3{fill:#ef483f}</style></defs><path id="rect1" d="M 0 0 L 0 812.8 L 1219.2 812.8 L 1219.2 0 L 0 0 z" style="fill:#2060c0;fill-rule:evenodd;stroke:none;stroke-width:8.46667;stroke-linecap:round;stroke-linejoin:round;fill-opacity:1"/><path id="path2-7" fill="#ffe0c0" d="m 609.60005,101.6 c -1.167,0 -5.7945,1.662 -10.2825,3.6915 -34.857,15.765 -64.3515,22.104 -97.82699,21.0225 -27.762,-0.897 -54.621,-7.3665 -82.218,-19.806 -12.054,-5.433 -15.123,-5.8755 -19.5255,-2.8155 -3.42,2.3745 -18.531,17.265 -33.72899,33.2325 -12.54,13.17749 -12.897,14.89649 -5.649,27.28049 13.824,23.619 21.45599,61.6905 19.91249,99.3285 -0.834,20.3175 -2.445,30.66 -9.72749,62.49899 -11.676,51.027 -14.2425,72.8745 -14.2725,121.461 -0.0195,33.88799 0.198,37.90499 2.652,49.04099 12.7215,57.714 47.68199,99.9825 121.12499,146.43749 20.943,13.245 48.14699,28.23 89.63249,49.365 20.334,10.359 38.1825,18.8475 39.663,18.8625 2.733,0.03 45.324,-20.787 73.63049,-35.985 114.8505,-61.671 162.35399,-109.41449 177.17549,-178.07099 4.782,-22.155 4.4115,-76.30049 -0.789,-115.13849 -2.103,-15.6975 -4.926,-30.3315 -11.835,-61.32 -2.8455,-12.7695 -5.8725,-27.50399 -6.7245,-32.74499 -2.04,-12.54 -2.0385,-55.3455 0.003,-67.8675 3.54,-21.717 10.5165,-43.173 18.15,-55.8075 5.1495,-8.526 5.928,-13.83 2.736,-18.64349 -2.886,-4.347 -34.86,-36.57 -40.26299,-40.575 -2.5575,-1.896 -5.9835,-3.447 -7.611,-3.447 -1.6275,0 -8.202,2.3685 -14.6085,5.2605 -14.394,6.4995 -33.669,12.789 -50.0985,16.3455 -10.707,2.3175 -16.0155,2.703 -37.515,2.7255 -21.738,0.0225 -26.691,-0.333 -37.51499,-2.7 -16.2765,-3.558 -35.8995,-9.9285 -50.589,-16.4235 -6.48,-2.865 -12.735,-5.208 -13.902,-5.208 z m 0,101.60099 A 203.20049,203.20049 0 0 1 812.80054,406.39998 203.20049,203.20049 0 0 1 609.60005,609.60046 203.20049,203.20049 0 0 1 406.39956,406.39998 203.20049,203.20049 0 0 1 609.60005,203.20099 Z m 0.042,38.8995 c -8.505,0 -10.0155,2.4585 -29.2755,47.628 -9.6345,22.59299 -17.589,41.16899 -17.6775,41.27999 -0.087,0.111 -19.089,2.913 -42.22349,6.225 -23.1345,3.312 -43.095,6.5745 -44.3565,7.2495 -3.87,2.067 -5.9955,6.249 -5.9955,11.796 v 5.2965 l 30.843,31.0515 30.84299,31.053 -11.72699,46.43549 c -6.45,25.5405 -11.7435,48.375 -11.763,50.742 -0.06,7.5765 6.513,13.491 13.68,12.309 1.968,-0.3255 22.54499,-11.3925 45.72899,-24.594 33.2745,-18.948 42.567,-23.751 44.124,-22.8075 1.0845,0.657 20.157,11.592 42.381,24.3 44.87849,25.659 46.30349,26.19 53.06099,19.725 1.941,-1.857 3.822,-4.533 4.176,-5.9475 0.3555,-1.413 -4.8945,-24.606 -11.6655,-51.537 l -12.3135,-48.96749 29.1345,-29.001 c 16.023,-15.951 29.904,-30.447 30.8445,-32.2155 3.42,-6.435 1.4415,-14.58 -4.2855,-17.64 -1.263,-0.6735 -21.2235,-3.936 -44.358,-7.248 -23.1345,-3.312 -42.13499,-6.114 -42.22499,-6.225 -0.087,-0.111 -8.04,-18.687 -17.6745,-41.27999 -19.26,-45.1695 -20.772,-47.628 -29.2755,-47.628 z" style="stroke-width:1"/></svg>