<svg xmlns="http://www.w3.org/2000/svg" xml:space="preserve" id="svg2" width="3072" height="2048" version="1.1" viewBox="0 0 812.8 541.867"><defs id="defs2"><style id="style1">.cls-1{fill:#0283c0}.cls-2{fill:#fff}.cls-3{fill:#ef483f}</style></defs><path id="rect2" d="M 1.0479614e-6,6.9864097e-7 V 541.86683 H 812.80025 V 6.9864097e-7 Z" style="display:inline;fill:#000;fill-opacity:1;stroke:none;stroke-width:4.23333;stroke-linecap:round;stroke-linejoin:round"/><path id="path10" d="m 237.06674,101.60003 14.11129,28.22258 h 87.48874 l 3.52123,1.39784 -14.80995,-29.62042 z m 248.35546,0 -17.19792,34.39636 17.1974,-6.17378 h 76.20054 l 14.11129,-28.22258 z m -206.02211,84.66669 42.33334,84.6667 -50.80003,0 v 11.28872 l 135.46672,0 v 5.1e-4 l 135.46668,-5.1e-4 v -11.28872 l -50.79998,0 42.33334,-84.6667 h -26.76633 l -31.14384,21.66329 5.10098,5.10305 c 2.43404,2.43172 3.77703,5.6699 3.77703,9.11521 0,3.44299 -1.34299,6.67852 -3.77703,9.11262 -2.42927,2.43165 -5.66921,3.77238 -9.11211,3.77238 -1.29909,0 -2.57538,-0.19238 -3.78323,-0.56224 -0.27222,2.99787 -1.56674,5.78879 -3.72174,7.94422 -2.50936,2.50896 -5.8156,3.76515 -9.11314,3.76515 -2.19374,0 -4.3835,-0.56681 -6.34535,-1.67639 -0.47665,2.51648 -1.69209,4.82906 -3.54604,6.68074 -2.42935,2.43404 -5.66444,3.77238 -9.11004,3.77238 -1.71229,0 -3.37047,-0.33356 -4.9072,-0.96377 -3.23029,2.91108 -8.03924,4.66897 -13.17646,4.66897 -2.36324,0 -4.69703,-0.38331 -6.84093,-1.08676 -1.19695,0.48264 -2.61185,0.9099 -4.13205,1.26349 l -0.40256,0.80564 -0.31264,-0.62632 c -1.86107,0.38398 -3.89974,0.62632 -6.03477,0.62632 -6.48895,0 -13.82483,-2.22475 -19.52181,-9.3276 -0.8333,0.16408 -1.68798,0.24856 -2.55747,0.24856 -3.44334,0 -6.67853,-1.33786 -9.11263,-3.77186 -2.31737,-2.31341 -3.55072,-5.2993 -3.7331,-8.33851 -1.04341,0.27392 -2.12565,0.42478 -3.23082,0.42478 -3.44365,0 -6.68066,-1.3428 -9.11469,-3.77445 -2.41814,-2.4202 -3.75612,-5.63292 -3.77238,-9.0532 -0.74176,0.13221 -1.49956,0.21032 -2.26911,0.21032 -3.44333,0 -6.68119,-1.34274 -9.11521,-3.77444 -2.43172,-2.43173 -3.77393,-5.66988 -3.77393,-9.11521 0,-3.44293 1.34244,-6.67623 3.77651,-9.11263 l 0.0842,-0.0842 -21.60541,-17.90951 z m -8.46669,163.68877 v 11.28924 l 95.95543,0 39.51129,79.02207 39.51078,-79.02207 95.9559,0 v -11.28872 l -90.31128,0 h -45.1554 v -5.2e-4 z" style="display:inline;fill:#c00000;fill-opacity:1;stroke-width:50.8;stroke-linecap:round;stroke-linejoin:round;paint-order:stroke markers fill"/><path id="path9" d="M 428.83184 132.12944 C 411.15715 132.12944 400.14191 145.42957 395.14861 153.35451 C 388.92889 163.22979 383.22277 176.55059 384.90324 181.78379 C 385.20734 182.7337 385.67794 183.03986 386.13934 183.2297 C 387.1123 183.62702 388.03672 183.81829 388.97069 183.81829 C 394.16288 183.81829 399.3527 177.5027 404.37131 171.39476 C 409.96058 164.59092 415.73979 157.55597 423.14639 157.06281 C 423.21249 157.05781 423.28596 157.05558 423.35207 157.05558 C 424.1578 157.05558 424.94291 157.37708 425.52093 157.95475 L 454.51658 186.9504 C 454.51858 186.9534 454.5183 186.95357 454.5233 186.95557 L 471.08457 203.51839 L 502.70332 180.62211 L 536.22273 180.62211 L 558.80069 135.46671 L 485.42272 135.46671 C 482.23538 136.47351 468.49986 142.62131 462.33471 142.62131 C 457.90056 142.62131 453.32056 140.40882 448.47044 138.06862 C 442.70522 135.28545 436.17996 132.12944 428.83235 132.12944 L 428.83184 132.12944 z M 352.58841 200.77644 C 350.7869 200.77644 349.09268 201.4772 347.81609 202.75358 L 341.96683 208.60128 C 340.6952 209.87969 339.99175 211.57159 339.99175 213.37309 C 339.99175 215.179 340.69282 216.87348 341.96683 218.14748 C 343.24514 219.42383 344.93734 220.12513 346.74122 220.12513 C 348.5426 220.12513 350.23901 219.42586 351.51302 218.14748 L 357.36279 212.2977 C 358.63443 211.02133 359.33787 209.32741 359.33787 207.5259 C 359.33787 205.72237 358.63917 204.02996 357.36279 202.75358 C 356.08845 201.47958 354.3942 200.77644 352.58841 200.77644 z M 375.05578 206.08929 C 373.25208 206.08943 371.55815 206.79049 370.28191 208.06437 L 357.12508 221.22326 C 355.85107 222.49964 355.14794 224.19359 355.14794 225.99713 C 355.14794 227.79863 355.8487 229.49312 357.12508 230.77151 C 358.40169 232.0411 360.09622 232.744 361.89999 232.744 C 363.70114 232.744 365.39507 232.04585 366.67179 230.77151 L 368.85667 228.58198 C 368.86167 228.58198 368.86397 228.57785 368.86597 228.57785 L 379.83688 217.60177 C 381.10445 216.32505 381.80524 214.63822 381.80524 212.83875 C 381.80524 211.03761 381.10406 209.34043 379.83016 208.06643 C 378.55391 206.79222 376.85716 206.08943 375.05629 206.08929 L 375.05578 206.08929 z M 391.13749 217.78264 C 389.33125 217.78264 387.63659 218.48113 386.36258 219.75513 L 384.18907 221.93122 C 384.18207 221.93622 384.1752 221.94486 384.1684 221.95396 L 373.19749 232.92746 C 370.57636 235.5646 370.57628 239.83888 373.20421 242.46486 C 374.48058 243.73401 376.17503 244.43735 377.97653 244.43735 C 379.78006 244.43735 381.47437 243.73368 382.7504 242.46486 L 395.90671 229.3039 C 397.18059 228.02753 397.88436 226.33298 397.88436 224.53158 C 397.88436 222.73044 397.18329 221.03412 395.90929 219.75978 C 394.63325 218.48588 392.9366 217.78264 391.13749 217.78264 z M 400.709 233.13985 C 400.55814 233.31343 400.41215 233.48681 400.25011 233.64886 L 387.09122 246.80723 C 386.82408 247.07437 386.54052 247.32802 386.2551 247.56533 C 391.88357 253.72131 398.86587 254.04532 403.7021 253.23475 C 402.30707 251.93779 401.43274 250.59539 401.00355 249.13629 C 400.06958 245.98315 401.53533 243.39814 402.71611 241.32746 C 404.28471 238.56736 405.30529 236.75664 400.709 233.13985 z" style="display:inline;fill:#fff;fill-opacity:1;stroke-width:50.8;stroke-linecap:round;stroke-linejoin:round;paint-order:stroke markers fill"/><path id="path11" d="m 385.25573,186.75978 c -6.28501,0.10692 -12.11838,2.34818 -17.34675,4.35012 -5.03019,1.92287 -9.78846,3.72627 -14.19965,3.36793 -6.14181,-0.51835 -11.9489,-1.29261 -15.04266,-2.5666 H 254 l 22.57778,45.15558 h 42.3447 l 22.90954,18.98869 c 0.082,0.0732 0.14795,0.14867 0.22118,0.22393 l 1.42248,-1.42248 c 2.43372,-2.43408 5.66931,-3.77204 9.11227,-3.77204 3.44569,0 6.68331,1.33796 9.11504,3.77204 1.71468,1.71743 2.87238,3.83146 3.41615,6.13538 l 0.81959,-0.81959 c 2.43408,-2.43173 5.67205,-3.77445 9.11504,-3.77445 3.44294,0 6.6809,1.34272 9.11262,3.77445 2.25103,2.24898 3.55248,5.18297 3.73758,8.3361 1.04347,-0.27189 2.12564,-0.42478 3.23081,-0.42478 3.44299,0 6.68093,1.34277 9.11262,3.77686 2.43408,2.4341 3.77411,5.66694 3.77411,9.11263 0,1.07093 -0.14602,2.11687 -0.39722,3.12815 8.95016,6.73575 7.02099,12.13122 4.42488,16.6977 -0.81973,1.44549 -1.34277,2.43172 -1.16479,3.03685 0.11662,0.38376 0.83581,1.8105 5.16937,4.08933 1.7262,0.68275 3.70111,1.04834 5.72196,1.04834 3.048,0 5.95768,-0.85631 8.04395,-2.26963 l -10.22883,-10.22677 c -1.19637,-1.19671 -1.19637,-3.14174 0,-4.34048 1.19836,-1.19636 3.14411,-1.19636 4.34047,0 l 11.15625,11.15592 c 1.27842,1.27161 2.97032,1.97473 4.77181,1.97473 h 0.005 c 1.8015,0 3.4951,-0.69634 4.77181,-1.97473 1.26923,-1.27672 1.97507,-2.97071 1.97507,-4.77456 0,-1.79472 -0.69374,-3.47962 -1.96095,-4.75803 l -18.19148,-18.19563 c -1.19569,-1.19871 -1.19569,-3.14441 0,-4.33841 1.19907,-1.19636 3.14205,-1.19636 4.33841,0 l 18.16805,18.16841 c 0.005,0.005 0.009,0.004 0.009,0.009 0.005,0 0.009,0.009 0.0138,0.0141 l 5.1077,5.10529 c 1.2757,1.27161 2.9703,1.97507 4.7718,1.97507 1.80149,0 3.49545,-0.70108 4.77215,-1.97507 1.274,-1.27637 1.97955,-2.9707 1.97955,-4.77422 0,-1.8015 -0.70114,-3.49546 -1.97955,-4.7718 -0.005,-0.005 -0.009,-0.009 -0.0141,-0.0186 L 431.87545,257.2072 c -1.19908,-1.19874 -1.19908,-3.14443 0,-4.33841 1.1984,-1.19637 3.1417,-1.19637 4.33737,0 l 30.49874,30.49566 c 1.27602,1.27193 2.97237,1.97266 4.77387,1.97266 1.80353,0 3.49615,-0.69395 4.77456,-1.97266 1.26924,-1.27841 1.97232,-2.97273 1.97232,-4.77215 0,-1.80354 -0.70105,-3.49785 -1.97232,-4.77422 l -7.69772,-7.69807 h -0.005 l -15.42369,-15.42577 -2.95451,-2.95245 -27.89219,-27.89736 c -4.36337,1.16684 -8.83604,6.6076 -13.17232,11.88903 -5.92044,7.21071 -12.04828,14.66819 -20.14278,14.66819 -1.72149,0 -3.45437,-0.34957 -5.15111,-1.04352 -2.31509,-0.94516 -3.96145,-2.76032 -4.76284,-5.25171 -3.3657,-10.48248 9.42548,-31.24661 10.89339,-33.57764 2.70323,-4.29018 6.98252,-9.96195 12.94873,-14.72504 -4.60101,-2.8263 -9.59932,-4.50246 -14.92381,-4.95232 -0.91577,-0.0788 -1.82247,-0.10693 -2.72024,-0.0916 z" style="color:#000;display:inline;fill:#fff;fill-opacity:1;stroke-width:1.00012531;stroke-linecap:round;stroke-linejoin:round;stroke-dasharray:none" transform="translate(2.7146285e-6,-56.444465)"/><path id="text13" d="m 457.94514,294.9224 c -2.90413,0 -5.64071,0.55843 -8.20975,1.6754 -2.56905,1.11698 -4.80306,2.64356 -6.70192,4.57966 -1.89886,1.89885 -3.40675,4.13276 -4.52373,6.70181 -1.11697,2.56904 -1.6754,5.30572 -1.6754,8.20986 0,2.90414 0.55843,5.64071 1.6754,8.20976 1.11698,2.56904 2.62487,4.82154 4.52373,6.75763 1.89886,1.89885 4.13287,3.40686 6.70192,4.52383 2.56904,1.11698 5.30562,1.6754 8.20975,1.6754 2.90414,0 5.64072,-0.55842 8.20976,-1.6754 2.56904,-1.11697 4.80306,-2.62498 6.70192,-4.52383 1.93609,-1.93609 3.46257,-4.18859 4.57954,-6.75763 1.11698,-2.56905 1.67551,-5.30562 1.67551,-8.20976 0,-2.90414 -0.55853,-5.64082 -1.67551,-8.20986 -1.11697,-2.56905 -2.64345,-4.80296 -4.57954,-6.70181 -1.89886,-1.9361 -4.13288,-3.46268 -6.70192,-4.57966 -2.56904,-1.11697 -5.30562,-1.6754 -8.20976,-1.6754 z m -84.6669,0.0558 c -2.9786,0 -5.77104,0.55853 -8.37732,1.67551 -2.60628,1.11697 -4.89605,2.64345 -6.86937,4.57954 -1.93609,1.89886 -3.48126,4.13288 -4.63547,6.70192 -1.11698,2.56905 -1.67551,5.30562 -1.67551,8.20976 0,2.90414 0.55853,5.64071 1.67551,8.20975 1.15421,2.56905 2.69938,4.80296 4.63547,6.70182 1.97332,1.89885 4.26309,3.40686 6.86937,4.52383 2.60628,1.11698 5.39872,1.6754 8.37732,1.6754 2.71797,0 5.28706,-0.4468 7.70718,-1.34038 2.42011,-0.93082 4.56099,-2.19667 6.42261,-3.79767 1.89886,-1.601 3.44392,-3.49983 4.63536,-5.69655 1.19145,-2.19672 1.91757,-4.57963 2.17819,-7.14868 0.1117,-0.96804 0.16757,-1.89882 0.16757,-2.7924 0,-0.93081 -0.0373,-1.7128 -0.11175,-2.34575 -0.0372,-0.40956 -0.20482,-0.72594 -0.50268,-0.94934 -0.26063,-0.26062 -0.57712,-0.39094 -0.94944,-0.39094 h -19.21192 c -0.37233,0 -0.68882,0.13032 -0.94944,0.39094 -0.26063,0.26063 -0.39094,0.57701 -0.39094,0.94934 v 6.6461 c 0,0.37232 0.13031,0.68881 0.39094,0.94944 0.26062,0.26063 0.57711,0.39094 0.94944,0.39094 h 6.42261 c 0.37233,0 0.63296,0.13032 0.78189,0.39094 0.14893,0.2234 0.13023,0.48403 -0.0559,0.78189 -0.81912,1.19144 -1.91748,2.04776 -3.29509,2.56902 -1.3776,0.52126 -2.77377,0.78188 -4.1886,0.78188 -1.41484,0 -2.75525,-0.27932 -4.02115,-0.83781 -1.22868,-0.59572 -2.30835,-1.3589 -3.23916,-2.28971 -0.93082,-0.96805 -1.67553,-2.08511 -2.23401,-3.35102 -0.52126,-1.2659 -0.78188,-2.60621 -0.78188,-4.02104 0,-1.3776 0.26062,-2.69943 0.78188,-3.96533 0.55848,-1.30314 1.30319,-2.43868 2.23401,-3.40673 0.93081,-0.96804 2.01048,-1.73134 3.23916,-2.28982 1.2659,-0.59572 2.60631,-0.89352 4.02115,-0.89352 1.97332,0 3.66739,0.42811 5.08223,1.28446 1.45207,0.85634 2.7552,1.99199 3.90941,3.40683 0.26062,0.29786 0.57711,0.48403 0.94944,0.5585 0.37232,0.0372 0.7074,-0.0373 1.00526,-0.22349 l 6.70192,-4.30035 c 0.29786,-0.18616 0.48403,-0.46537 0.5585,-0.8377 0.1117,-0.40955 0.0744,-0.76332 -0.11174,-1.06118 -1.89886,-2.94137 -4.37481,-5.24973 -7.42788,-6.92519 -3.01583,-1.67546 -6.57156,-2.51321 -10.66714,-2.51321 z m 131.18896,0.0558 c -2.9786,0 -5.77104,0.55853 -8.37732,1.67551 -2.60627,1.11697 -4.89615,2.62487 -6.86948,4.52372 -1.93609,1.89886 -3.46257,4.13288 -4.57954,6.70192 -1.11698,2.56905 -1.67551,5.30562 -1.67551,8.20976 0,2.90414 0.55853,5.64071 1.67551,8.20975 1.11697,2.56905 2.64345,4.80296 4.57954,6.70182 1.97333,1.89885 4.26321,3.40686 6.86948,4.52383 2.60628,1.11698 5.39872,1.6754 8.37732,1.6754 2.38288,0 4.56093,-0.27921 6.53425,-0.8377 1.97332,-0.55849 3.76054,-1.34037 5.36154,-2.34564 1.63823,-1.00528 3.10895,-2.21538 4.41209,-3.63021 1.30314,-1.45207 2.49454,-3.053 3.57428,-4.80293 0.18617,-0.33509 0.22344,-0.65158 0.11175,-0.94944 -0.1117,-0.3351 -0.33516,-0.57714 -0.67025,-0.72607 l -7.93056,-3.12752 c -0.37232,-0.14893 -0.74457,-0.14893 -1.1169,0 -0.33509,0.14893 -0.59571,0.37228 -0.78188,0.67014 -0.96804,1.56376 -2.28987,2.84831 -3.96533,3.85359 -1.63823,0.96804 -3.4812,1.45212 -5.52899,1.45212 -1.41483,0 -2.75524,-0.2979 -4.02115,-0.89362 -1.22867,-0.59572 -2.30845,-1.3776 -3.23927,-2.34565 -0.93081,-0.96804 -1.65683,-2.085 -2.17808,-3.3509 -0.52126,-1.30314 -0.78188,-2.66214 -0.78188,-4.07697 0,-1.3776 0.26062,-2.71801 0.78188,-4.02115 0.52125,-1.30314 1.24727,-2.43868 2.17808,-3.40673 0.93082,-1.00527 2.0106,-1.80584 3.23927,-2.40157 1.26591,-0.59572 2.60632,-0.89351 4.02115,-0.89351 2.15949,0 4.00246,0.46539 5.52899,1.3962 1.52653,0.89358 2.82966,2.19671 3.90941,3.90941 0.18616,0.29786 0.46548,0.5212 0.8378,0.67013 0.37233,0.14893 0.74458,0.14893 1.1169,0 l 7.93056,-3.12752 c 0.33509,-0.14893 0.55855,-0.39087 0.67025,-0.72596 0.11169,-0.33509 0.0744,-0.65158 -0.11175,-0.94944 -1.07974,-1.7127 -2.27114,-3.27645 -3.57428,-4.69129 -1.26591,-1.45207 -2.69935,-2.68075 -4.30035,-3.68603 -1.601,-1.00528 -3.38821,-1.78715 -5.36154,-2.34564 -1.97332,-0.55849 -4.18864,-0.83781 -6.64599,-0.83781 z m -89.02307,0.0559 c -1.78716,0 -3.63013,0.20476 -5.52899,0.61432 -1.89886,0.37232 -3.63021,1.06106 -5.19397,2.06634 -1.52654,0.96804 -2.79239,2.28986 -3.79767,3.96533 -1.00528,1.67546 -1.50794,3.79764 -1.50794,6.36669 0,1.74993 0.26062,3.27651 0.78188,4.57965 0.55849,1.26591 1.2845,2.36427 2.17808,3.29509 0.89358,0.93081 1.89892,1.6941 3.01589,2.28982 1.15421,0.59572 2.30834,1.09828 3.46254,1.50784 1.15421,0.37233 2.27127,0.67023 3.35102,0.89363 1.11697,0.18616 2.08503,0.35375 2.90414,0.50268 0.85635,0.18616 1.69399,0.33506 2.5131,0.44676 0.81912,0.1117 1.52655,0.2606 2.12227,0.44676 0.63295,0.18616 1.13562,0.4282 1.50794,0.72606 0.37233,0.26063 0.5585,0.63298 0.5585,1.11701 0,0.93081 -0.42821,1.63824 -1.28456,2.12226 -0.85635,0.44679 -2.10362,0.67014 -3.74185,0.67014 -1.71269,0 -3.55566,-0.37235 -5.52899,-1.117 -1.97332,-0.74466 -3.96529,-1.76847 -5.97585,-3.07161 -0.29786,-0.18616 -0.63294,-0.24202 -1.00526,-0.16756 -0.37233,0.0745 -0.67023,0.26064 -0.89363,0.5585 l -4.30034,6.19913 c -0.2234,0.29786 -0.31643,0.65163 -0.2792,1.06119 0.0372,0.37232 0.20471,0.67012 0.50258,0.89352 1.04251,0.85634 2.17815,1.6755 3.40683,2.45738 1.2659,0.74465 2.6249,1.39622 4.07697,1.95471 1.45206,0.55849 3.01582,0.9867 4.69128,1.28456 1.67547,0.3351 3.48126,0.50258 5.41736,0.50258 2.38288,0 4.54234,-0.24193 6.47843,-0.72596 1.97332,-0.52125 3.64881,-1.30313 5.02641,-2.34564 1.41484,-1.04251 2.5132,-2.36434 3.29509,-3.96533 0.78188,-1.63823 1.17282,-3.57435 1.17282,-5.8083 0,-2.38288 -0.48408,-4.35616 -1.45213,-5.91993 -0.93081,-1.601 -2.10363,-2.88554 -3.51846,-3.85359 -1.37761,-1.00527 -2.86691,-1.74987 -4.46791,-2.2339 -1.601,-0.52125 -3.07162,-0.91219 -4.41199,-1.17282 -0.26063,-0.0372 -0.85643,-0.13037 -1.78725,-0.2793 -0.93081,-0.18617 -1.89876,-0.42821 -2.90404,-0.72607 -1.00528,-0.29786 -1.89888,-0.65152 -2.68077,-1.06108 -0.78188,-0.40955 -1.17282,-0.87494 -1.17282,-1.3962 0,-0.52125 0.1489,-0.93089 0.44676,-1.22875 0.33509,-0.29786 0.74462,-0.50262 1.22864,-0.61432 0.48402,-0.14893 0.98669,-0.22338 1.50795,-0.22338 0.55848,-0.0372 1.04257,-0.0558 1.45212,-0.0558 1.37761,0 2.8855,0.26062 4.52373,0.78188 1.63823,0.48402 3.40675,1.32176 5.30561,2.5132 0.29786,0.2234 0.63294,0.29785 1.00526,0.22338 0.37233,-0.0745 0.67023,-0.26064 0.89363,-0.5585 l 4.35616,-6.19923 c 0.2234,-0.29786 0.31654,-0.63294 0.27931,-1.00527 -0.0372,-0.37232 -0.20483,-0.68881 -0.50269,-0.94944 -2.27118,-1.74992 -4.65409,-3.07164 -7.14867,-3.96522 -2.45735,-0.93082 -5.24979,-1.3962 -8.37732,-1.3962 z m -107.22973,0.55839 c -0.37232,0 -0.68881,0.13031 -0.94944,0.39094 -0.26063,0.26063 -0.39094,0.57712 -0.39094,0.94945 v 38.20066 c 0,0.37233 0.13031,0.68882 0.39094,0.94944 0.26063,0.26063 0.57712,0.39094 0.94944,0.39094 h 8.3215 c 0.37233,0 0.68871,-0.13031 0.94934,-0.39094 0.26063,-0.26062 0.39094,-0.57711 0.39094,-0.94944 v -19.9939 c 0,-0.37233 0.11173,-0.57709 0.33512,-0.61432 0.26063,-0.0745 0.50267,0.0371 0.72606,0.33501 l 14.57656,20.49659 c 0.22339,0.29786 0.53988,0.55849 0.94944,0.78188 0.40956,0.2234 0.8005,0.33512 1.17282,0.33512 h 8.26558 c 0.37232,0 0.68881,-0.13031 0.94944,-0.39094 0.26063,-0.26062 0.39094,-0.57711 0.39094,-0.94944 v -38.20066 c 0,-0.37233 -0.13031,-0.68882 -0.39094,-0.94945 -0.26063,-0.26063 -0.57712,-0.39094 -0.94944,-0.39094 h -8.26558 c -0.37232,0 -0.68881,0.13031 -0.94944,0.39094 -0.26063,0.26063 -0.39094,0.57712 -0.39094,0.94945 v 19.9939 c 0,0.37232 -0.13032,0.57709 -0.39094,0.61432 -0.2234,0.0372 -0.44685,-0.0931 -0.67025,-0.39094 l -14.52063,-20.49648 c -0.22339,-0.29786 -0.53988,-0.5399 -0.94944,-0.72607 -0.40956,-0.22339 -0.8005,-0.33512 -1.17282,-0.33512 z m -18.5977,0.0559 c -0.40956,0 -0.74463,0.13031 -1.00526,0.39094 -0.2234,0.26062 -0.33512,0.57711 -0.33512,0.94944 v 38.14474 c 0,0.37233 0.11172,0.68882 0.33512,0.94944 0.26063,0.26063 0.5957,0.39094 1.00526,0.39094 h 8.43314 c 0.37232,0 0.68881,-0.13031 0.94944,-0.39094 0.26063,-0.26062 0.39094,-0.57711 0.39094,-0.94944 v -38.14474 c 0,-0.37233 -0.13031,-0.68882 -0.39094,-0.94944 -0.26063,-0.26063 -0.57712,-0.39094 -0.94944,-0.39094 z m 168.32844,9.88526 c 1.37761,0 2.68074,0.2978 3.90941,0.89352 1.22867,0.55848 2.30846,1.32178 3.23927,2.28982 0.93081,0.93082 1.65683,2.04777 2.17808,3.35091 0.52126,1.2659 0.78189,2.58773 0.78189,3.96533 0,1.41484 -0.26063,2.75514 -0.78189,4.02104 -0.52125,1.26591 -1.24727,2.38286 -2.17808,3.35091 -0.93081,0.96805 -2.0106,1.74992 -3.23927,2.34564 -1.22867,0.55849 -2.5318,0.83781 -3.90941,0.83781 -1.3776,0 -2.68073,-0.27932 -3.9094,-0.83781 -1.22868,-0.59572 -2.30846,-1.37759 -3.23927,-2.34564 -0.89358,-0.96805 -1.60101,-2.085 -2.12227,-3.35091 -0.52125,-1.2659 -0.78188,-2.6062 -0.78188,-4.02104 0,-1.3776 0.26063,-2.69943 0.78188,-3.96533 0.52126,-1.30314 1.22869,-2.42009 2.12227,-3.35091 0.93081,-0.96804 2.01059,-1.73134 3.23927,-2.28982 1.22867,-0.59572 2.5318,-0.89352 3.9094,-0.89352 z" style="font-style:normal;font-variant:normal;font-weight:400;font-stretch:normal;font-size:270.933px;line-height:1;font-family:Heavitas;-inkscape-font-specification:Heavitas;text-align:end;text-anchor:end;fill:#fff;fill-opacity:1;stroke:none;stroke-width:1.00013;stroke-linejoin:bevel;stroke-dasharray:none;stroke-opacity:1;paint-order:stroke fill markers"/></svg>