<svg xmlns="http://www.w3.org/2000/svg" xml:space="preserve" id="svg1" width="4608" height="3072" version="1.1" viewBox="0 0 1219.2 812.8"><defs id="defs1"><style id="style1">.cls-1{fill:#0283c0}.cls-2{fill:#fff}.cls-3{fill:#ef483f}</style></defs><path id="rect1" d="M 0,0 V 812.8 H 1219.2 V 0 Z" style="display:inline;fill:#fff;fill-opacity:1;fill-rule:evenodd;stroke:none;stroke-width:8.46667;stroke-linecap:round;stroke-linejoin:round"/><path id="path2" fill="#e00000" d="M 3.6576e-4,-6.15985e-6 0,507.99997 H 101.59943 L 101.5998,-6.15985e-6 Z m 203.20037424,0 L 203.20037,507.99997 H 304.79981 L 304.80018,-6.15985e-6 Z m 203.19888,0 L 406.39925,507.99997 H 508.00019 L 508.00056,-6.15985e-6 Z m 203.20038,0 L 609.59963,507.99997 H 711.19907 L 711.19944,-6.15985e-6 Z m 203.20038,0 L 812.80001,507.99997 H 914.39945 L 914.39982,-6.15985e-6 Z m 203.19892,0 -4e-4,507.99997615985 h 101.6009 l 4e-4,-507.99997615985 z" paint-order="stroke fill markers" style="display:inline;stroke-width:1;fill:#d00000;fill-opacity:1"/><path id="path3" d="M 382.86103 67.734067 C 375.40803 67.717067 372.48108 68.050886 364.10109 69.875884 C 352.8111 72.333882 346.9859 73.859044 342.7749 75.460043 C 339.84791 76.573042 333.87004 78.992045 330.02804 80.618043 C 326.37205 82.165041 319.79903 84.337971 311.34804 86.790969 C 302.98804 89.216966 298.89602 90.570021 293.87002 92.567019 C 278.84604 98.540013 268.55511 105.5331 264.12712 112.7801 C 262.67749 115.16447 261.12775 117.48633 259.48209 119.73988 C 254.6901 126.29188 249.50407 135.12386 248.88807 137.78186 C 248.40607 139.85886 246.9381 143.32805 243.3611 150.84705 C 239.45911 159.04804 239.01308 160.36399 237.10308 169.30898 C 235.30808 177.71397 233.51388 184.5021 232.76088 185.74209 C 232.35388 186.41209 232.17984 187.98195 231.97885 192.77595 C 231.78385 197.45195 231.45986 201.27902 230.46886 210.65601 C 230.09733 214.15468 229.74541 217.65545 229.41294 221.15804 C 228.66094 229.42603 227.52317 234.93793 225.01217 242.48492 C 223.04817 248.38491 220.78488 253.72913 217.31789 260.65712 C 216.30789 262.67712 215.37315 264.75314 215.24015 265.27114 C 214.28215 269.01513 214.08198 276.89801 214.90598 278.49101 C 215.42797 279.50001 216.65394 279.15499 218.41894 277.50399 C 221.84094 274.30299 226.36985 267.03108 228.49585 261.32409 C 229.22985 259.35609 229.52407 258.19404 229.71507 256.51404 C 229.92907 254.62605 230.17898 253.97089 231.98298 250.5809 C 235.47198 244.0209 237.98502 237.87112 239.90601 231.19912 C 241.08301 227.10913 241.89916 223.48891 242.96216 217.62992 C 244.62616 208.46993 246.57595 199.38694 247.59995 196.03295 C 248.02995 194.62295 248.51392 193.78807 248.75992 194.03307 C 248.83292 194.10507 248.93994 197.42499 248.99694 201.40799 C 249.09494 208.30798 249.19085 209.70083 249.62085 210.50683 C 249.91684 211.05783 250.38106 213.7851 250.73706 217.0601 C 251.32706 222.47809 252.23517 226.83205 253.49417 230.27205 C 254.98817 234.35804 256.13984 238.10186 258.26184 245.77085 C 260.91784 255.37084 261.02895 255.80299 261.54295 258.59798 C 262.72695 265.02998 262.75993 271.53999 261.63493 276.90799 C 260.67493 281.48998 258.53513 286.4019 255.74313 290.4269 C 252.42013 295.21589 247.69389 299.81613 241.8649 303.93512 C 237.2159 307.22012 236.32811 307.88 234.04211 309.747 C 231.18812 312.079 226.18496 316.91309 223.99897 319.44909 C 221.86097 321.92908 220.06303 324.463 219.18203 326.238 C 218.50003 327.61099 218.42394 327.88002 218.37794 329.05402 C 218.28794 331.39902 219.48917 334.93088 221.42617 338.66687 L -0.00024384015 338.66687 L 0.00010066961 541.867 L 812.80024 541.867 L 812.7999 338.66687 L 597.27287 338.66687 C 598.00487 336.01488 598.21302 334.94115 598.34602 333.16815 C 598.51102 330.97316 598.33896 325.81412 598.03596 323.85812 C 597.63596 321.27112 596.57587 318.94607 590.91288 308.23908 C 584.90089 296.87009 582.54008 290.60794 582.02108 284.65395 C 581.66308 280.54395 581.49388 267.62711 581.67588 258.22212 C 581.87588 247.87513 582.03295 245.07507 582.57195 242.24307 C 583.83795 235.59708 584.41198 227.47483 584.41198 216.10684 C 584.41198 203.78685 583.65192 190.63407 582.23192 178.42609 C 581.69492 173.81709 581.75796 171.59112 582.56196 166.86813 C 583.28196 162.64613 583.5141 160.26685 583.3881 158.42385 C 583.0671 153.74185 581.81212 150.69698 577.19312 143.39599 C 574.50313 139.14399 572.89417 134.50212 570.30017 123.50813 C 569.29017 119.22813 568.58604 116.85814 567.63504 114.52814 C 564.97805 108.02014 560.96007 103.97611 553.54907 100.34812 C 543.27208 95.318122 542.16804 94.73809 540.79705 93.648091 C 537.42305 90.963094 534.29685 89.39212 530.61885 88.532121 C 529.60785 88.296121 528.72597 88.232977 526.45097 88.239977 C 523.87097 88.246977 523.36095 88.295075 521.65195 88.695074 C 519.16295 89.278074 517.49487 89.872153 514.74487 91.153151 C 508.96288 93.848149 508.05791 94.245907 506.48491 94.782906 C 502.21091 96.239905 498.82295 96.134011 494.40295 94.406012 C 493.50495 94.056013 490.86096 92.822125 488.52596 91.666126 C 486.19096 90.510127 483.52191 89.253908 482.59591 88.874908 C 481.66991 88.494909 479.253 87.429025 477.225 86.505026 C 470.40201 83.395029 470.13116 83.339092 459.10517 82.695092 C 451.17718 82.233093 447.11491 81.832097 442.74991 81.082098 C 438.18492 80.297098 436.38599 79.761967 426.477 76.24897 C 416.13101 72.580974 412.51884 71.501124 406.27184 70.212126 C 397.93985 68.492127 390.94605 67.752067 382.86206 67.734067 L 382.86103 67.734067 z M 516.50394 211.80012 C 517.45094 211.84712 518.04697 212.09286 519.16597 212.75786 C 521.26096 214.00086 531.62791 218.22301 535.8299 219.54401 C 537.3899 220.03401 538.36317 220.54686 540.40017 221.95386 C 542.46117 223.37686 543.99511 224.23413 544.69311 224.35613 C 547.2661 224.80213 548.8409 230.1641 550.1839 243.04509 C 551.1509 252.31708 552.40606 257.96506 557.23705 274.79304 C 559.86705 283.95703 560.72685 287.25117 561.00185 289.23317 C 561.20485 290.69117 561.81911 291.99895 563.04411 293.58295 C 564.29911 295.20595 565.59393 297.296 567.08693 300.109 C 569.22893 304.14199 570.83385 306.53084 573.68085 309.92684 C 578.58884 315.77983 581.95993 321.39689 583.68093 326.58388 C 585.09093 330.83688 585.57508 334.76588 585.12408 338.66687 L 539.21988 338.66687 C 538.83188 338.29087 538.53299 337.9791 538.09299 337.5641 C 535.28599 334.9141 533.448 331.94301 532.319 328.23202 C 531.69101 326.16802 531.54394 325.36389 531.26894 322.4949 C 530.98294 319.4999 530.39885 317.70291 528.22485 313.13491 C 525.84585 308.13292 524.73407 304.97607 524.13207 301.51908 C 523.75108 299.32508 523.67405 298.49284 523.48405 294.51485 C 523.34305 291.55085 522.96599 288.73403 522.424 286.57803 C 522.077 285.20103 518.99389 275.30187 518.05389 272.54787 C 516.36789 267.60788 515.64492 266.13312 513.30792 262.85612 C 512.36792 261.53813 511.04415 259.52604 510.36615 258.38404 C 509.04416 256.15905 506.70112 252.96703 503.78912 249.42403 L 501.98113 247.22399 L 502.04108 233.70991 C 502.09508 221.49092 502.12711 220.09309 502.38111 219.12509 C 502.96111 216.90009 503.79604 216.16893 507.94804 214.24993 C 511.67804 212.52593 513.60306 211.89611 515.40805 211.81011 C 515.83405 211.79011 516.18794 211.78412 516.50394 211.80012 z M 412.863 259.51817 L 412.77791 259.89989 C 412.63791 260.53089 410.95786 270.45086 410.77286 271.74585 C 410.27486 275.20785 409.22998 285.66799 408.43399 295.15598 C 407.72799 303.56497 407.24197 307.05209 406.20397 311.14709 C 405.25897 314.87809 404.54014 316.835 402.65415 320.813 C 401.92315 322.357 401.17413 324.16106 400.98913 324.82206 C 400.59713 326.22906 400.34611 328.89701 400.34111 331.71501 C 400.33711 334.18101 400.07886 336.07288 399.29586 338.66687 L 325.97695 338.66687 C 325.96495 336.85488 326.10915 334.33694 326.40415 331.79494 C 326.98815 326.76494 327.11384 324.76215 327.11384 320.57115 C 327.11484 315.77716 326.87413 313.49104 326.01313 310.11804 C 325.71468 308.94981 325.44762 307.77362 325.21283 306.59095 C 324.87583 304.74495 324.74513 300.31094 324.89313 295.76094 L 325.01302 292.11603 L 328.00198 290.00005 C 338.32697 282.69206 341.9451 279.27306 346.3051 272.70807 C 348.53009 269.35807 349.00585 268.80886 350.20185 268.22186 C 351.79284 267.44186 353.02699 267.35997 359.77198 267.58797 C 365.87198 267.79397 372.97696 267.71489 375.64596 267.41089 C 378.50596 267.08589 387.74817 265.47788 389.99617 264.91388 C 392.77017 264.21888 394.5421 263.71114 399.45709 262.19914 C 406.04509 260.17315 408.08187 259.70092 410.64987 259.60292 L 412.863 259.51817 z M 460.17315 277.20013 L 460.17349 277.20013 L 460.17384 277.20013 C 461.0551 277.19816 461.14981 277.24435 463.46012 278.77489 C 464.76912 279.64189 467.17993 281.16497 468.81793 282.15797 C 472.24993 284.24097 473.83309 285.48113 474.85409 286.88912 C 476.10609 288.61512 480.3269 296.77887 482.4209 301.52287 C 483.6869 304.39286 484.35809 305.6511 485.39609 307.0991 C 486.32209 308.3891 487.87507 309.90097 488.96107 310.56797 C 491.58107 312.17697 491.79898 312.42794 492.27698 314.40994 C 492.42698 315.02594 492.97995 318.07115 493.50895 321.17715 C 494.88895 329.28914 495.67902 332.61208 497.16902 336.57708 C 497.48702 337.42308 497.71203 338.07687 497.86803 338.66687 L 440.51198 338.66687 C 440.43998 336.87788 440.67485 335.08189 441.47385 331.1669 C 442.81185 324.6169 443.29885 322.96701 444.91585 319.52901 C 446.75984 315.60802 447.37585 313.72898 449.70384 304.93799 C 450.32384 302.60099 451.19901 299.46204 451.65101 297.96305 C 453.44601 292.00605 454.69613 286.48305 454.69613 284.50305 C 454.69613 283.45305 455.19016 281.48599 455.71416 280.45299 C 455.93216 280.02199 456.45912 279.28303 456.88412 278.81003 C 457.85593 277.72823 458.93145 277.20233 460.17315 277.20013 z M 285.74614 314.55808 C 286.33014 314.55808 287.20915 315.38506 287.67815 316.37606 C 288.80715 318.76306 289.29809 322.65593 289.16609 328.18792 C 289.06609 332.34492 288.78909 335.01888 288.03609 338.66687 L 261.23013 338.66687 C 263.47213 335.95688 265.92996 333.21789 267.85196 331.39289 C 269.65695 329.6799 269.98315 329.4439 273.13915 327.5709 C 277.21714 325.14991 280.07412 322.22413 282.32412 318.16613 C 283.66212 315.75213 284.79414 314.55808 285.74614 314.55808 z" style="display:inline;stroke-width:.666667;fill:#0020a0;fill-opacity:1" transform="matrix(1.4999991,0,0,1.4999991,3.6576e-4,-6.1598501e-6)"/><path id="path4" fill="#fff" d="m 253.99971,558.79916 -25.16398,77.53795 h -81.78295 l 66.17096,48.09447 -25.17449,77.56796 65.95046,-47.93247 65.95196,47.93247 -25.17598,-77.56796 66.17246,-48.09447 H 279.1652 Z m 355.60029,0 -25.16548,77.53795 h -81.78296 l 66.17246,48.09447 -25.17448,77.56796 65.95046,-47.93247 65.95046,47.93247 -25.17598,-77.56796 66.17246,-48.09447 h -81.78146 z m 355.60029,0 -25.16549,77.53795 h -81.78295 l 66.17246,48.09447 -25.17598,77.56796 65.95196,-47.93247 65.95041,47.93247 -25.1759,-77.56796 66.1724,-48.09447 h -81.78293 z" style="display:inline;stroke-width:1"/></svg>