<svg xmlns="http://www.w3.org/2000/svg" xml:space="preserve" width="4608" height="3072" viewBox="0 0 1219.2 812.8"><path d="m 1219.1999,0 10e-5,812.79996 H 3.5913055e-5 L -6.4086945e-5,0 Z" style="fill:#103070;fill-opacity:1;fill-rule:evenodd;stroke:none;stroke-width:8.46667;stroke-linecap:round;stroke-linejoin:round"/><path d="M 67.733333,0 V 812.8 H 135.46663 V 0 Z M 169.33333,0 v 812.8 h 33.8667 V 0 Z M 1016,0 v 812.8 h 33.8667 V 0 Z m 67.7333,0 v 812.8 h 67.7334 V 0 Z M 609.6,101.6 592.492,154.25312 h -55.36251 l 44.789,32.54116 -17.108,52.6526 44.78951,-32.54116 44.789,32.54116 -17.108,-52.6526 44.78951,-32.54116 H 626.708 Z m -131.00286,67.78604 c -1.35619,0.2222 -3.31522,1.15162 -6.56394,2.90008 -22.37824,12.0441 -38.391,30.93192 -44.50322,52.49292 -1.35701,4.78691 -5.12097,11.94427 -8.66252,16.47393 -0.31608,0.40427 -0.40748,-2.06111 -0.20361,-5.47873 0.61335,-10.28227 -3.19016,-30.62602 -6.65799,-35.6123 -1.07888,-1.5513 -1.6864,-1.72595 -3.01739,-0.86506 -2.161,1.39776 -5.21503,7.14102 -8.0579,15.1536 -4.34773,12.25389 -5.4546,18.55445 -5.44308,30.98622 0.01,10.4747 0.31793,12.76778 2.73523,20.35586 l 2.72387,8.5509 -3.44165,7.18819 c -1.8932,3.95332 -5.20889,11.54988 -7.36803,16.88114 l -3.92586,9.69347 -1.58388,-7.86102 c -2.56158,-12.71062 -9.16805,-28.49699 -13.00696,-31.08182 -2.45213,-1.65109 -4.08131,0.8355 -6.37842,9.73584 -1.67207,6.47857 -2.03317,10.52138 -2.06654,23.10039 -0.0376,14.17584 0.13917,15.79986 2.51457,23.11642 1.40521,4.32826 4.0274,10.44154 5.82704,13.58522 l 3.27163,5.71645 -1.96008,9.03924 c -2.42373,11.17828 -4.6692,24.86573 -4.67104,28.46803 -0.002,3.90418 -1.30236,3.3284 -3.31711,-1.46761 -4.20358,-10.00653 -17.77735,-28.28923 -21.00285,-28.28923 -2.55433,0 -3.32796,2.52925 -3.32796,10.88822 0,23.20251 7.72233,44.46458 20.87573,57.47866 l 4.97127,4.91805 0.95343,9.34568 c 0.52431,5.13981 1.75817,13.62004 2.74247,18.84485 0.98427,5.22477 1.78955,9.78851 1.78955,10.1415 0,0.353 -1.96946,-1.10906 -4.37699,-3.24838 -9.86165,-8.76302 -24.06049,-16.57107 -27.03918,-14.86938 -0.96749,0.55269 -1.75906,1.64158 -1.75906,2.42001 0,2.63947 5.42538,16.01016 9.40356,23.17533 4.16988,7.51049 17.5348,22.85687 20.89846,23.99647 1.0881,0.36864 1.73454,1.09217 1.43609,1.60765 -0.29846,0.51549 -0.1866,0.81581 0.24856,0.66714 0.4352,-0.14866 4.128,1.39687 8.20622,3.43493 l 7.41505,3.70572 4.4111,8.3876 c 2.4259,4.61337 7.40523,12.95483 11.06548,18.53582 l 6.65489,10.14719 -5.61051,-1.94614 c -7.03482,-2.44011 -31.04913,-3.66853 -33.26929,-1.7017 -2.72156,2.41103 -1.4387,4.82679 5.77174,10.86858 3.92807,3.29143 7.86752,6.61237 8.75451,7.37992 0.88698,0.7676 1.61282,1.13673 1.61282,0.8201 0,-0.31663 1.81303,0.55872 4.02921,1.9451 2.21618,1.38637 7.7111,3.66663 12.21062,5.06739 6.77929,2.11045 9.76864,2.50704 17.44855,2.31562 9.32788,-0.23249 12.0195,0.3383 10.87944,2.30736 -0.34363,0.59351 -0.1951,0.78817 0.33538,0.43821 0.52489,-0.34628 2.35167,0.71607 4.05918,2.3611 2.37903,2.29195 14.36368,12.93486 23.10557,20.51864 0.35671,0.30945 -4.32762,0.42585 -10.4097,0.25839 -8.8303,-0.24313 -12.57656,0.10497 -18.59318,1.72909 -12.30554,3.3217 -12.76824,5.62829 -2.43189,12.12122 12.0803,7.58846 28.3901,11.24529 41.84447,9.38134 4.05478,-0.56174 8.2661,-1.08071 9.35809,-1.15342 1.09201,-0.0727 1.80661,-0.44217 1.5875,-0.82062 -0.2191,-0.37843 0.97887,-0.96397 2.66288,-1.30121 2.58316,-0.51728 4.42443,0.22238 11.77551,4.73098 4.79238,2.93925 12.37078,7.34329 16.84083,9.78648 l 8.12767,4.44211 -3.51968,0.68574 c -5.78501,1.12763 -16.12515,7.0103 -20.79873,11.83287 -2.40753,2.48429 -4.37751,4.94467 -4.37751,5.46685 0,2.21479 3.76677,4.70766 7.96334,5.27048 10.85222,1.45545 19.21249,-0.11526 27.05519,-5.08289 2.28082,-1.44467 4.56159,-2.4918 5.06843,-2.32648 0.50684,0.16533 0.63368,-0.007 0.28164,-0.3824 -0.90644,-0.96758 4.83039,-5.89719 6.71018,-5.76606 0.85755,0.0598 4.61085,1.46325 8.34161,3.11816 3.7308,1.65492 15.69966,6.19889 26.59683,10.09809 10.89719,3.89921 20.79934,7.48662 22.00434,7.97212 1.92089,0.77394 -0.23741,2.18732 -17.50953,11.46597 -26.40247,14.18353 -42.27804,24.95217 -42.27804,28.67835 0,0.62611 1.55505,2.87525 3.45561,4.99815 1.90066,2.123 3.98255,3.86744 4.62555,3.87728 0.643,0.01 3.51774,-1.95047 6.38876,-4.35581 2.87102,-2.40533 5.62304,-4.10805 6.11539,-3.78323 0.49236,0.32481 0.66324,0.18981 0.37982,-0.29972 -0.97749,-1.68829 28.16087,-21.53683 40.77839,-27.77763 7.71971,-3.81828 10.90496,-5.41526 13.82293,-5.41569 2.91797,4.3e-4 6.10322,1.59741 13.82293,5.41569 12.61752,6.2408 41.75588,26.08934 40.77839,27.77763 -0.28342,0.48953 -0.11253,0.62453 0.37982,0.29972 0.49235,-0.32482 3.24437,1.3779 6.11539,3.78323 2.87102,2.40534 5.74576,4.36565 6.38876,4.35581 0.643,-0.01 2.7249,-1.75428 4.62555,-3.87728 1.90056,-2.1229 3.45561,-4.37204 3.45561,-4.99815 0,-3.72618 -15.87557,-14.49482 -42.27804,-28.67835 -17.27212,-9.27865 -19.43041,-10.69203 -17.50953,-11.46597 1.20501,-0.4855 11.10715,-4.07291 22.00434,-7.97212 10.89718,-3.8992 22.86604,-8.44317 26.59683,-10.09809 3.73077,-1.65491 7.48406,-3.05833 8.34161,-3.11816 1.87979,-0.13113 7.61662,4.79848 6.71018,5.76606 -0.35204,0.37548 -0.2252,0.54773 0.28164,0.3824 0.50685,-0.16532 2.78762,0.88181 5.06843,2.32648 7.8427,4.96763 16.20297,6.53834 27.05519,5.08289 4.19657,-0.56282 7.96334,-3.05569 7.96334,-5.27048 0,-0.52218 -1.96998,-2.98256 -4.37751,-5.46685 -4.67358,-4.82257 -15.01372,-10.70524 -20.79873,-11.83287 l -3.51968,-0.68574 8.12767,-4.44211 c 4.47005,-2.44319 12.04845,-6.84723 16.84083,-9.78648 7.35108,-4.5086 9.19235,-5.24826 11.77551,-4.73098 1.68402,0.33724 2.88198,0.92278 2.66288,1.30121 -0.21911,0.37845 0.4955,0.74791 1.5875,0.82062 1.09199,0.0727 5.30331,0.59168 9.35809,1.15342 13.45436,1.86395 29.76416,-1.79288 41.84447,-9.38134 10.33635,-6.49293 9.87364,-8.79952 -2.43189,-12.12122 -6.01662,-1.62412 -9.76289,-1.97222 -18.59318,-1.72909 -6.08209,0.16746 -10.76641,0.0511 -10.4097,-0.25839 8.74189,-7.58378 20.72653,-18.22669 23.10557,-20.51864 1.70751,-1.64503 3.5343,-2.70738 4.05918,-2.3611 0.53048,0.34996 0.67901,0.1553 0.33538,-0.43821 -1.14005,-1.96906 1.55156,-2.53985 10.87944,-2.30736 7.67991,0.19142 10.66926,-0.20517 17.44855,-2.31562 4.49953,-1.40076 9.99444,-3.68102 12.21062,-5.06739 2.21618,-1.38638 4.02921,-2.26173 4.02921,-1.9451 0,0.31663 0.72584,-0.0525 1.61282,-0.8201 0.88698,-0.76755 4.82644,-4.08849 8.75451,-7.37992 7.21045,-6.04179 8.4933,-8.45755 5.77174,-10.86858 -2.22016,-1.96683 -26.23447,-0.73841 -33.26929,1.7017 l -5.61051,1.94614 6.65489,-10.14719 c 3.66024,-5.58099 8.63957,-13.92245 11.06548,-18.53582 l 4.4111,-8.3876 7.41505,-3.70572 c 4.07822,-2.03806 7.77102,-3.58359 8.20622,-3.43493 0.43517,0.14867 0.54702,-0.15165 0.24856,-0.66714 -0.29845,-0.51548 0.34799,-1.23901 1.43609,-1.60765 3.36366,-1.1396 16.72859,-16.48598 20.89846,-23.99647 3.97818,-7.16517 9.40356,-20.53586 9.40356,-23.17533 0,-0.77843 -0.79156,-1.86732 -1.75906,-2.42001 -2.97869,-1.70169 -17.17754,6.10636 -27.03918,14.86938 -2.40753,2.13932 -4.37699,3.60138 -4.37699,3.24838 0,-0.35299 0.80527,-4.91673 1.78955,-10.1415 0.9843,-5.22481 2.21817,-13.70504 2.74247,-18.84485 l 0.95343,-9.34568 4.97127,-4.91805 c 13.15341,-13.01408 20.87573,-34.27615 20.87573,-57.47866 0,-8.35897 -0.77363,-10.88822 -3.32796,-10.88822 -3.2255,0 -16.79927,18.2827 -21.00285,28.28923 -2.01475,4.79601 -3.31527,5.37179 -3.31711,1.46761 -0.002,-3.6023 -2.24731,-17.28975 -4.67104,-28.46803 l -1.96008,-9.03924 3.27163,-5.71645 c 1.79963,-3.14368 4.42183,-9.25696 5.82704,-13.58522 2.37541,-7.31656 2.55218,-8.94058 2.51457,-23.11642 -0.0333,-12.57901 -0.39447,-16.62182 -2.06654,-23.10039 -2.29711,-8.90034 -3.92629,-11.38693 -6.37842,-9.73584 -3.8389,2.58483 -10.44538,18.3712 -13.00696,31.08182 l -1.58388,7.86102 -3.92586,-9.69347 c -2.15913,-5.33126 -5.47483,-12.92782 -7.36803,-16.88114 l -3.44165,-7.18819 2.72387,-8.5509 c 2.4173,-7.58808 2.72555,-9.88116 2.73523,-20.35586 0.0115,-12.43177 -1.09535,-18.73233 -5.44308,-30.98622 -2.84286,-8.01258 -5.89689,-13.75584 -8.0579,-15.1536 -1.33098,-0.86089 -1.93851,-0.68624 -3.01739,0.86506 -3.46783,4.98628 -7.27134,25.33003 -6.65799,35.6123 0.20387,3.41762 0.11248,5.883 -0.20361,5.47873 -3.54155,-4.52966 -7.3055,-11.68702 -8.66252,-16.47393 -6.11222,-21.561 -22.12498,-40.44882 -44.50322,-52.49292 -3.24872,-1.74846 -5.20774,-2.67788 -6.56394,-2.90008 -1.3562,-0.2222 -2.10992,0.26272 -2.94866,1.34152 -0.97655,1.25604 -0.89848,2.52257 0.4408,7.13187 2.50187,8.61045 8.33598,21.36464 12.84263,28.0758 5.04161,7.5079 14.62523,17.65702 19.75641,20.92327 2.12422,1.35219 3.86178,2.87651 3.86178,3.38688 0,0.51037 0.33486,0.81686 0.74414,0.68161 0.40929,-0.13526 2.93824,1.02296 5.61982,2.57349 4.22752,2.44442 5.78259,4.29093 11.69696,13.89165 3.75153,6.08989 6.82077,11.34105 6.82077,11.66906 0,0.32801 -2.49636,-1.12576 -5.54747,-3.23081 -10.5864,-7.30381 -36.5082,-15.02393 -40.01513,-11.9171 -0.78982,0.69971 -1.43557,1.91576 -1.43557,2.70216 0,3.6144 13.87528,19.67636 21.88704,25.33592 2.15375,1.52142 3.91604,3.14975 3.91604,3.6189 0,0.46913 0.31078,0.75342 0.69091,0.632 0.38013,-0.12141 3.80131,1.16955 7.60264,2.86856 6.95024,3.1064 18.82809,6.20582 23.78253,6.20582 2.46722,0 2.97728,0.70999 6.88847,9.59115 2.3231,5.27504 5.91412,14.22451 7.98039,19.88767 l 3.75687,10.29653 -3.92534,-4.03231 c -7.83695,-8.05138 -22.99264,-17.23655 -33.29409,-20.17758 -3.75212,-1.07123 -4.46737,-1.01819 -5.82497,0.43098 -1.44906,1.54679 -1.4043,1.98074 0.6966,6.81819 6.20122,14.27851 17.91724,28.43219 29.58114,35.73529 6.19744,3.88036 18.78835,9.43683 19.54765,8.62635 1.42726,-1.52356 6.05813,26.20077 7.31066,43.76683 l 0.37104,5.19503 -3.74293,-6.67091 c -6.16072,-10.98163 -26.29561,-30.77176 -31.30816,-30.77176 -2.49895,0 -3.59462,2.66823 -2.91507,7.09827 2.25771,14.71823 9.95367,31.49448 19.23603,41.93181 2.59104,2.91344 4.59739,5.72216 4.45813,6.242 -0.13927,0.51986 0.1715,0.66461 0.69091,0.32194 0.51941,-0.34266 0.94413,-0.15387 0.94413,0.4191 0,0.57296 0.3108,0.94446 0.69092,0.82579 1.01506,-0.31685 8.52454,5.23925 8.52454,6.30711 0,0.50104 0.41768,0.63491 0.92811,0.29817 3.5298,-2.32868 0.69093,20.98667 -5.18056,42.54624 -1.57505,5.78334 -3.11971,6.7923 -3.11971,2.0376 0,-5.45887 -3.77775,-18.33471 -7.92406,-27.00869 -4.7129,-9.85916 -10.13806,-18.06246 -11.94604,-18.06246 -5.46932,0 -7.68271,26.58402 -3.61012,43.36066 1.97647,8.14181 5.9698,17.42295 10.63863,24.72407 3.52014,5.50489 3.69415,6.09303 2.62309,8.85321 -2.94252,7.58303 -19.96537,34.27947 -24.31531,38.13307 -1.30518,1.15627 -1.36419,1.01507 -0.54157,-1.29449 3.43939,-9.6564 2.86813,-30.92827 -1.17925,-43.93376 -1.74216,-5.59807 -2.27622,-6.39392 -4.29328,-6.39392 -1.87165,0 -2.8607,1.10699 -5.27203,5.90197 -1.63244,3.24617 -4.12025,9.4435 -5.52886,13.77176 -2.37085,7.2849 -2.55807,8.96581 -2.51613,22.62498 0.0375,12.22396 0.37257,15.79623 1.95285,20.82147 l 1.9079,6.06578 -4.25711,4.36821 c -7.30408,7.4958 -25.5558,23.10505 -31.05753,26.56065 -0.54884,0.34471 -0.074,-1.4564 1.05575,-4.00234 5.18063,-11.67399 7.23569,-23.27867 6.69003,-37.78012 -0.39103,-10.39221 -1.75808,-13.74241 -4.85345,-11.89333 -2.95013,1.76232 -9.80479,11.68775 -13.78417,19.96002 -5.75682,11.96716 -7.40881,19.60363 -7.43831,34.37723 l -0.0248,12.24318 -7.83312,4.84828 c -11.77168,7.28553 -35.22468,19.66411 -47.08033,24.84913 -5.7837,2.52949 -20.67586,8.29135 -33.09359,12.8049 -12.4177,4.51359 -24.54742,8.9906 -26.95494,9.94875 -2.0916,0.83241 -3.23466,1.24906 -4.37751,1.25005 -1.14286,-9.9e-4 -2.28592,-0.41764 -4.37751,-1.25005 -2.40753,-0.95815 -14.53724,-5.43516 -26.95494,-9.94875 -12.41773,-4.51355 -27.30989,-10.27541 -33.09359,-12.8049 -11.85565,-5.18502 -35.30917,-17.5636 -47.08085,-24.84913 l -7.8326,-4.84828 -0.0248,-12.24318 c -0.0295,-14.7736 -1.68202,-22.41007 -7.43882,-34.37723 -3.97939,-8.27227 -10.83353,-18.1977 -13.78366,-19.96002 -3.09537,-1.84908 -4.46295,1.50112 -4.85396,11.89333 -0.54566,14.50145 1.50991,26.10613 6.69054,37.78012 1.12981,2.54594 1.60459,4.34705 1.05575,4.00234 -5.50173,-3.4556 -23.75345,-19.06485 -31.05753,-26.56065 l -4.25711,-4.36821 1.9079,-6.06578 c 1.58028,-5.02524 1.91533,-8.59751 1.95285,-20.82147 0.042,-13.65917 -0.14529,-15.34008 -2.51613,-22.62498 -1.40861,-4.32826 -3.89694,-10.52559 -5.52938,-13.77176 -2.41131,-4.79498 -3.39986,-5.90197 -5.27151,-5.90197 -2.01706,0 -2.55163,0.79585 -4.29379,6.39392 -4.04739,13.00549 -4.61813,34.27736 -1.17874,43.93376 0.82261,2.30956 0.76361,2.45076 -0.54157,1.29449 -4.34994,-3.8536 -21.3733,-30.55004 -24.31583,-38.13307 -1.07107,-2.76018 -0.89653,-3.34832 2.62361,-8.85321 4.66883,-7.30112 8.66216,-16.58226 10.63863,-24.72407 4.07259,-16.77664 1.8592,-43.36066 -3.61012,-43.36066 -1.80798,0 -7.23314,8.2033 -11.94604,18.06246 -4.14631,8.67398 -7.92406,21.54982 -7.92406,27.00869 0,4.7547 -1.54466,3.74574 -3.11971,-2.0376 -5.87149,-21.55957 -8.71036,-44.87492 -5.18056,-42.54624 0.51043,0.33674 0.92759,0.20287 0.92759,-0.29817 0,-1.06786 7.50949,-6.62396 8.52455,-6.30711 0.38012,0.11867 0.69143,-0.25283 0.69143,-0.82579 0,-0.57297 0.42472,-0.76176 0.94413,-0.4191 0.51941,0.34267 0.83018,0.19792 0.69091,-0.32194 -0.13926,-0.51984 1.86709,-3.32856 4.45813,-6.242 9.28236,-10.43733 16.97832,-27.21358 19.23603,-41.93181 0.67955,-4.43004 -0.41612,-7.09827 -2.91507,-7.09827 -5.01255,0 -25.14745,19.79013 -31.30816,30.77176 l -3.74293,6.67091 0.37052,-5.19503 c 1.25252,-17.56606 5.88392,-45.29039 7.31118,-43.76683 0.7593,0.81048 13.34971,-4.74599 19.54713,-8.62635 11.6639,-7.3031 23.38043,-21.45678 29.58166,-35.73529 2.10089,-4.83745 2.14566,-5.2714 0.6966,-6.81819 -1.35759,-1.44917 -2.07285,-1.50221 -5.82497,-0.43098 -10.30145,2.94103 -25.45767,12.1262 -33.29461,20.17758 l -3.92482,4.03231 3.75687,-10.29653 c 2.06626,-5.66316 5.6573,-14.61263 7.98039,-19.88767 3.9112,-8.88116 4.42125,-9.59115 6.88847,-9.59115 4.95444,0 16.8323,-3.09942 23.78253,-6.20582 3.80133,-1.69901 7.2225,-2.98997 7.60264,-2.86856 0.38012,0.12142 0.69091,-0.16287 0.69091,-0.632 0,-0.46915 1.76228,-2.09748 3.91604,-3.6189 8.01175,-5.65956 21.88704,-21.72152 21.88704,-25.33592 0,-0.7864 -0.64575,-2.00245 -1.43557,-2.70216 -3.50693,-3.10683 -29.42872,4.61329 -40.01513,11.9171 -3.05112,2.10505 -5.54747,3.55882 -5.54747,3.23081 0,-0.32801 3.06924,-5.57917 6.82077,-11.66906 5.91437,-9.60072 7.46944,-11.44723 11.69696,-13.89165 2.68158,-1.55053 5.21053,-2.70875 5.61982,-2.57349 0.40928,0.13525 0.74414,-0.17124 0.74414,-0.68161 0,-0.51037 1.73754,-2.03469 3.86178,-3.38688 5.13117,-3.26625 14.71481,-13.41537 19.75641,-20.92327 4.50665,-6.71116 10.34026,-19.46535 12.84211,-28.0758 1.33929,-4.6093 1.41787,-5.87583 0.44132,-7.13187 -0.83874,-1.0788 -1.59246,-1.56372 -2.94866,-1.34152 z M 609.6,254 l -31.43994,22.84253 9.73946,52.64485 21.70048,13.8126 21.70048,-13.8126 9.73946,-52.64485 z m -37.44319,83.47449 c -17.29739,7.34519 -35.62126,24.51324 -44.68255,41.98038 -1.87858,3.62132 -3.88215,8.26317 -5.56917,12.64006 3.17912,-2.06011 6.50421,-3.92046 9.96787,-5.5423 8.36308,-3.91591 16.6323,-5.79715 27.32805,-6.2575 h 0.002 c 2.0363,-0.0874 4.04766,-0.12728 6.04872,-0.10748 h 0.002 c 13.98881,0.13898 26.90732,3.61467 41.42383,10.35544 l 2.92178,1.35754 2.92179,-1.35754 c 14.51591,-6.74045 27.4358,-10.21614 41.42383,-10.35544 h 0.002 c 1.99968,-0.0199 4.01296,0.0197 6.0508,0.10748 h 0.002 c 10.69477,0.4605 18.96552,2.34183 27.32805,6.2575 3.46331,1.62167 6.78768,3.48194 9.96632,5.54178 -1.68696,-4.37669 -3.69017,-9.01839 -5.56865,-12.63954 -9.06116,-17.46685 -27.38442,-34.63498 -44.68151,-41.98038 l -0.43305,2.33991 -37.0117,23.55877 -37.00962,-23.55877 z m -7.07192,59.64546 c -1.6678,-0.0165 -3.38047,0.0158 -5.15524,0.092 -9.98096,0.42958 -13.4835,1.2141 -20.87625,4.67568 -9.59149,4.49114 -22.45678,16.27053 -27.0154,24.73545 l -2.56781,4.76818 4.18786,7.85688 c 2.30317,4.32121 5.7839,13.42323 7.73545,20.22668 3.17301,11.06169 3.47829,13.9417 2.88561,27.23244 -0.44296,9.93344 -1.48488,16.98621 -3.14193,21.26485 l -2.47943,6.40168 5.63686,11.00863 c 11.42961,22.32111 32.7706,47.13104 52.71565,61.28515 4.9968,3.54598 9.27868,6.23776 9.51518,5.98206 0.2365,-0.25571 -0.67312,-10.9587 -2.02158,-23.78459 -3.24657,-30.87989 -5.25188,-62.21169 -5.25188,-82.06114 v -16.14372 l -9.85418,-4.86999 c -5.41965,-2.67853 -12.81261,-7.5303 -16.42845,-10.78125 -6.18457,-5.56043 -13.77892,-17.09568 -12.25713,-18.61747 0.38009,-0.38012 6.30201,-1.65923 13.15992,-2.84272 19.67482,-3.39531 36.77253,-0.16548 42.09097,7.95145 3.44107,5.25174 2.96394,18.00195 -1.12603,30.08706 -3.32483,9.82414 -3.34253,10.08509 -1.0356,15.32464 2.69057,6.11092 11.8241,14.85949 15.79852,15.2523 3.97447,-0.39281 13.10796,-9.14138 15.79852,-15.2523 2.30694,-5.23955 2.2892,-5.5005 -1.0356,-15.32464 -4.08998,-12.08511 -4.5671,-24.83532 -1.12603,-30.08706 5.31842,-8.11693 22.41614,-11.34676 42.09097,-7.95145 6.85793,1.18349 12.77982,2.4626 13.15992,2.84272 1.52179,1.52179 -6.07258,13.05704 -12.25713,18.61747 -3.61586,3.25095 -11.00879,8.10272 -16.42845,10.78125 l -9.85418,4.86999 v 16.14372 c 0,19.84945 -2.00479,51.18125 -5.25136,82.06114 -1.34846,12.82589 -2.2586,23.52888 -2.0221,23.78459 0.2365,0.2557 4.5184,-2.43608 9.51518,-5.98206 19.94506,-14.15411 41.28603,-38.96404 52.71565,-61.28515 l 5.63686,-11.00863 -2.47943,-6.40168 c -1.65703,-4.27864 -2.69895,-11.33141 -3.14193,-21.26485 -0.59267,-13.29074 -0.28739,-16.17075 2.88561,-27.23244 1.95156,-6.80345 5.43226,-15.90547 7.73545,-20.22668 l 4.18786,-7.85688 -2.56781,-4.76818 c -4.55862,-8.46492 -17.42389,-20.24431 -27.0154,-24.73545 -7.39273,-3.46158 -10.89528,-4.2461 -20.87625,-4.67568 -1.77478,-0.0765 -3.48743,-0.10862 -5.15524,-0.092 -11.67466,0.116 -21.15829,2.60384 -34.46198,8.78137 L 609.6,410.56925 599.54687,405.90132 c -13.30368,-6.17753 -22.78731,-8.66538 -34.46198,-8.78137 z" style="fill:#ffd000;fill-opacity:1;stroke-width:1"/></svg>