<svg xmlns="http://www.w3.org/2000/svg" xml:space="preserve" width="3072" height="2048" viewBox="0 0 812.8 541.867"><path fill="#fff000" d="M0 0h812.8v541.867H0Z" paint-order="stroke fill markers"/><path d="M331.893 67.733c-13.546 9.17-28.143 34.798-28.143 34.798a418.44 418.44 0 0 1 41.42 12.912l14.943-9.787A268.59 268.59 0 0 1 381.28 93.15c-.017-.017-26.874-18.5-49.387-25.417zm143.299 27.094s-36.01.305-72.915 18.034a237.371 237.371 0 0 0-27.322 15.468 253.814 253.814 0 0 1 6.265 3.285c2.913 1.583 6.003 3.387 9.229 5.326a160.613 160.613 0 0 1 26.636 20.456c20.803-8.814 61.807-22.099 76.852-26.485-6.774-16.213-18.745-36.084-18.745-36.084zM250.613 121.92s19.669 23.868 24.68 46.905c5.013 23.038 5.538 41.157 2.465 75.015 15.189-17.34 34.366-31.454 58.69-45.491l3.793-2.202c18.745-10.896 25.714-14.96 42.452-23.08a918.41 918.41 0 0 1 7.265-3.48 144.585 144.585 0 0 0-21.658-14.182c-42.782-23.257-96.757-33.485-117.687-33.485Zm311.574 27.093s-14.919 0-25.832 1.177c-16.087 1.694-35.611 6.773-50.572 11.193-29.684 8.797-58.699 20.252-91.313 36.06-15.764 7.662-22.013 11.303-40.64 22.123l-3.81 2.26c-27.897 16.087-48.335 33.867-62.475 54.441-15.52 22.513-23.385 48.853-23.385 78.182 0 34.493 13.301 65.278 37.457 86.673 24.35 21.598 58.267 33.011 98.01 33.011 39.59 0 73.566-12.124 98.213-35.077 24.003-22.31 37.253-53.67 37.253-88.3 0-21.166-5.24-39.792-10.303-57.758-10.66-37.838-19.864-70.52 20.92-122.03 3.565-4.496 16.477-21.955 16.477-21.955z"/></svg>