<svg xmlns="http://www.w3.org/2000/svg" xml:space="preserve" width="3072" height="2048" viewBox="0 0 812.8 541.867"><path fill="#ffc000" d="M270.933 0v541.867h541.46V0Z" paint-order="stroke markers fill"/><path fill="red" d="M0 0v541.867h270.933V0Z" paint-order="stroke markers fill"/><path fill="silver" d="m591.136 397.278-5.341-9.123 1.97-31.942c2.177-35.323 2.064-36.758-2.707-34.29-2.55 1.318-3.366 1.106-17.181-4.477-13.584-5.488-15.372-6.519-28.177-16.238-15.978-12.128-24.718-18.372-25.734-18.386-.4-.006-.478.975-.176 2.18.303 1.205-.521 8.203-1.83 15.551l-2.381 13.362-9.254 11.55c-8.767 10.941-9.757 11.843-18.802 17.137l-9.547 5.588 1.25 3.869c.688 2.128 2.778 8.857 4.645 14.954 2.346 7.664 3.827 11.085 4.797 11.085.772 0 3.263 1.713 5.534 3.807 2.82 2.599 6.33 4.555 11.064 6.166 6.567 2.234 7.103 2.637 10.109 7.595 1.766 2.913 2.812 5.589 2.358 6.03-.448.437-5.318 1.092-10.82 1.455-9.715.64-10.132.586-14.307-1.861-2.366-1.387-4.984-3.563-5.819-4.837-1.096-1.672-2.37-2.316-4.58-2.316h-3.063L461.48 366.84c-6.509-15.231-11.417-27.942-11.104-28.757.308-.803 3.124-5.273 6.258-9.933 5.53-8.225 5.697-8.655 5.697-14.675 0-6.106-.131-6.425-8.49-20.707-4.67-7.979-8.492-15.418-8.492-16.531 0-1.114.469-3.886 1.041-6.16 1.761-6.994.345-6.989-1.769.006-1.096 3.627-2.482 12.113-3.081 18.859-.6 6.745-2.513 19.34-4.252 27.988-2.74 13.616-3.795 16.982-7.877 25.117-3.34 6.656-5.76 10.202-8.303 12.172-5.404 4.183-12.64 6.896-18.388 6.892-4.297-.003-6.085-.645-12.502-4.482-5.387-3.222-7.728-5.214-8.344-7.103-2.151-6.597 2.506-7.076 13.894-1.428l7.996 3.965 6.597-4.507c9.749-6.661 12.936-13.018 17.38-34.66 1.852-9.024 3.657-21.06 4.01-26.745.464-7.475 1.357-12.44 3.222-17.925 2.45-7.21 3.041-8.042 11.862-16.71l9.284-9.122 13.72-3.782 13.72-3.781 11.32 1.828c6.227 1.006 25.453 3.304 42.725 5.107l31.404 3.278 16.24-3.78 16.24-3.781 8.962-6.185c4.93-3.402 14.328-9.867 20.885-14.366l11.923-8.18 1.013-8.922c.558-4.906.804-9.131.547-9.388-.257-.256-4.804-2.254-10.106-4.439-9.522-3.924-9.642-4.014-9.931-7.359-.332-3.833-.066-3.929 5.481-1.971 4.939 1.742 5.66 1.758 5.66.127 0-.793-6.445-3.83-16.745-7.891-16.455-6.488-16.751-6.654-17.042-9.57-.236-2.358.137-3.127 1.817-3.748l2.114-.782-2.054-.537c-1.628-.425-2.053-1.238-2.053-3.927 0-1.865.35-3.39.776-3.39.427 0 7.962 1.454 16.746 3.23l15.97 3.231 2.41-2.287c2.339-2.22 2.846-2.287 17.08-2.287 8.068 0 17.278.272 20.468.606l5.799.606v3.907c0 3.478.56 4.461 5.096 8.941 3.129 3.09 5.533 4.764 6.225 4.336.76-.469-.29-1.998-3.21-4.68-4.254-3.905-4.338-4.094-4.338-9.793 0-3.195.205-5.81.455-5.81 1.313 0 16.527 7.54 16.527 8.19 0 .422-1.07 3.98-2.379 7.91-1.77 5.317-3.338 8.08-6.132 10.807-3.517 3.435-3.753 4.008-3.753 9.099 0 8.034-3.049 16.3-16.517 44.791-10.727 22.69-12.437 25.753-15.012 26.888-2.623 1.156-3.019 1.905-4.054 7.68-2.75 15.328-19.546 45.571-30.18 54.341-3.221 2.656-6.321 4.829-6.89 4.829-.57 0-2.596-1.06-4.503-2.356-4.262-2.897-4.392-2.664-5.242 9.432-.337 4.801-1.775 12.593-3.309 17.933l-2.712 9.442 1.62 11.785c.89 6.482 2.12 13.059 2.733 14.615.728 1.849 3.88 4.795 9.082 8.491 4.382 3.114 7.966 6.086 7.963 6.604 0 .52-.824 2.748-1.825 4.953l-1.82 4.01h-22.555zm64.984-239.472 1.545-2.358-6.861.078-6.862.079 4.717 2.222c5.918 2.788 5.62 2.789 7.46-.021zM525.973 389.17c-2.201-3.785-3.513-5.045-5.635-5.413-2.338-.405-3.574-1.883-7.98-9.542-2.868-4.985-6.593-10.29-8.28-11.788-2.446-2.174-3.65-4.656-5.954-12.279l-2.89-9.554 10.373-14.517 10.372-14.517 1.106-10.364c.608-5.7 1.25-10.518 1.426-10.705.177-.187 4.187 2.11 8.913 5.107l8.593 5.447-4.2 4.328c-3.174 3.271-5.401 7.151-9.128 15.902-2.71 6.366-6.157 13.12-7.659 15.009-1.5 1.889-2.528 4.11-2.282 4.935.245.826 1.164 4.473 2.042 8.105 2.005 8.3 3.036 10.29 8.091 15.614 3.497 3.683 6.151 5.143 18.698 10.283 8.043 3.295 14.762 6.101 14.93 6.235.169.134.024 2.127-.32 4.43-.57 3.792-1.021 4.375-4.814 6.218-3.419 1.661-5.866 2.03-13.359 2.017l-9.173-.016-2.87-4.934zm113.724-34.608c-11.052-1.077-20.906-9.208-13.209-10.898 3.058-.672 3.447-1.365 1.73-3.083-1.361-1.36-.33-1.753 6.417-2.44 4.311-.44 5.271-.182 8.71 2.347 2.356 1.732 4.516 2.633 5.533 2.306 1.922-.617 16.88-40.008 15.623-41.141-.41-.37-4.674-2.06-9.474-3.754s-8.718-3.128-8.708-3.187c.01-.059 2.67-5.288 5.912-11.621l5.894-11.515 10.834 5.955 10.833 5.954-.206 9.022c-.206 9.02-.209 9.03-9.319 31.802l-9.113 22.78-6.237 4.183c-3.43 2.302-6.88 4.118-7.663 4.036-.784-.081-4.185-.417-7.557-.746zm28.538-208.27c-1.919-.37-2.122-.95-2.122-6.05 0-6.361-.648-6.359 8.253-.033 6.86 4.877 6.97 6.814.372 6.62-2.409-.07-5.335-.312-6.503-.537z"/><path fill="red" d="m550.46 168.972-4.458 13.901-18.364 57.267-74.758-1.231 60.633 43.694-24.273 70.718 60.293-44.16 59.757 44.937-23.37-70.988 61.205-42.947-74.735.29zm-.098 15.3 18.646 60.773 63.537-.245-52.037 36.513 19.867 60.351-50.806-38.207-51.259 37.545 20.637-60.127-51.546-37.148 63.56 1.047z" color="#000" paint-order="markers stroke fill"/><path fill="#ffc000" d="m926.364 315.042-27.42 85.508-89.828-1.48 72.85 52.5-29.166 84.976 72.442-53.061 71.803 53.997-28.077-85.293 73.543-51.603-89.795.346z" color="#000" paint-order="markers stroke fill" style="-inkscape-stroke:none" transform="translate(-105.11 -38.645) scale(.70758)"/></svg>