<svg xmlns="http://www.w3.org/2000/svg" xml:space="preserve" width="3072" height="2048" viewBox="0 0 812.8 541.867"><path fill="#e00000" d="M0 0h812.8v541.867H0Z" paint-order="stroke fill markers"/><path fill="#fff" d="m 356.72877,67.733 c -9.03067,6.113335 -18.762,23.198674 -18.762,23.198674 a 278.96009,278.96009 0 0 1 27.61334,8.608002 l 9.962,-6.524668 a 179.06005,179.06005 0 0 1 14.11134,-8.337336 C 389.64212,84.666339 371.73744,72.344335 356.72877,67.733 Z m 95.5327,18.062672 c 0,0 -24.00668,0.203334 -48.61002,12.022671 a 158.24738,158.24738 0 0 0 -18.21467,10.312007 169.20938,169.20938 0 0 1 4.17667,2.19 c 1.942,1.05533 4.002,2.258 6.15267,3.55066 a 107.07537,107.07537 0 0 1 17.75734,13.63734 c 13.86867,-5.876 41.20468,-14.73267 51.23468,-17.65667 -4.516,-10.80867 -12.49667,-24.056008 -12.49667,-24.056008 z M 302.54209,103.85768 c 0,0 13.11267,15.912 16.45334,31.27001 3.342,15.35867 3.692,27.43801 1.64333,50.01001 10.126,-11.56 22.91068,-20.96934 39.12668,-30.32734 l 2.52867,-1.468 c 12.49667,-7.264 17.14267,-9.97334 28.30134,-15.38667 a 612.27352,612.27352 0 0 1 4.84333,-2.32 96.390029,96.390029 0 0 0 -14.43867,-9.45467 c -28.52134,-15.50467 -64.50468,-22.32334 -78.45802,-22.32334 z m 207.71606,18.062 c 0,0 -9.946,0 -17.22134,0.78467 -10.72467,1.12933 -23.74067,4.51533 -33.71467,7.462 -19.78934,5.86467 -39.13268,13.50134 -60.87535,24.04001 -10.50934,5.108 -14.67534,7.53534 -27.09335,14.74867 l -2.54,1.50667 c -18.598,10.72467 -32.22334,22.578 -41.65001,36.29401 -10.34667,15.00867 -15.59,32.56868 -15.59,52.12135 0,22.99534 8.86733,43.51868 24.97134,57.78202 16.23333,14.39867 38.84467,22.00734 65.34002,22.00734 26.39334,0 49.04401,-8.08267 65.47535,-23.38468 16.002,-14.87334 24.83534,-35.78001 24.83534,-58.86668 0,-14.11067 -3.49333,-26.52801 -6.86867,-38.50535 -7.10667,-25.22534 -13.24267,-47.01335 13.94667,-81.35336 2.37667,-2.99733 10.98467,-14.63667 10.98467,-14.63667 z" style="stroke-width:1"/><path d="M 0,0 V 541.867 H 812.8 V 0 L 406.4,541.867 Z" transform="translate(1.2499996e-4,-8.3333359e-5)"/></svg>