<?xml version="1.0" encoding="UTF-8" standalone="no"?>
<svg
   xml:space="preserve"
   width="3072"
   height="2048"
   viewBox="0 0 812.8 541.867"
   version="1.1"
   id="svg12"
   sodipodi:docname="Sorelianism.svg"
   inkscape:version="1.3 (0e150ed6c4, 2023-07-21)"
   inkscape:export-filename="Sorelianism.png"
   inkscape:export-xdpi="96"
   inkscape:export-ydpi="96"
   xmlns:inkscape="http://www.inkscape.org/namespaces/inkscape"
   xmlns:sodipodi="http://sodipodi.sourceforge.net/DTD/sodipodi-0.dtd"
   xmlns="http://www.w3.org/2000/svg"
   xmlns:svg="http://www.w3.org/2000/svg"><defs
     id="defs12"><inkscape:path-effect
       effect="fill_between_many"
       method="originald"
       linkedpaths="#path13,0,1|"
       id="path-effect14" /><inkscape:path-effect
       effect="fill_between_many"
       method="originald"
       linkedpaths="#path15,0,1|"
       id="path-effect16" /></defs><sodipodi:namedview
     id="namedview12"
     pagecolor="#505050"
     bordercolor="#eeeeee"
     borderopacity="1"
     inkscape:showpageshadow="0"
     inkscape:pageopacity="0"
     inkscape:pagecheckerboard="0"
     inkscape:deskcolor="#505050"
     inkscape:zoom="0.64980192"
     inkscape:cx="1429.6664"
     inkscape:cy="1856.7197"
     inkscape:window-width="1366"
     inkscape:window-height="705"
     inkscape:window-x="-8"
     inkscape:window-y="-8"
     inkscape:window-maximized="1"
     inkscape:current-layer="svg12" /><path
     d="M 0,0 V 541.86683 H 812.80025 V 0 Z"
     style="fill:#000000;fill-opacity:1;stroke:none;stroke-width:135.467;stroke-linecap:round;stroke-linejoin:round"
     id="path1"
     sodipodi:nodetypes="ccccc" /><path
     id="path14"
     style="color:#000000;display:inline;fill:#c00000;fill-opacity:1;stroke:none;stroke-width:1.00013;stroke-linecap:round;stroke-linejoin:round;stroke-dasharray:none;paint-order:stroke fill markers"
     d="m 369.4048,67.769178 c -4.49012,-1.147031 -86.10442,25.091759 -129.20127,85.674002 7.15565,12.63442 -12.42151,33.1918 -20.94248,25.63291 -7.98003,10.19433 -25.96144,21.82864 -9.91056,38.18065 20.20473,14.85489 27.98902,26.45091 40.84724,15.24479 8.71102,-9.25464 16.47929,-16.08076 7.58781,-22.78975 1.36182,-3.08638 9.14578,-12.61549 11.19248,-14.97477 5.41927,-6.24692 7.13296,-7.8407 12.50127,-10.30758 10.7226,-4.92735 17.18887,2.71027 22.58581,6.70496 6.90735,5.51506 13.81473,11.03022 20.72205,16.5453 2.63452,-4.39855 5.59345,-9.23538 8.96782,-14.63919 2.38765,-3.82361 4.72666,-7.58826 5.04822,-8.11957 0.84908,-1.40298 0.84672,-1.2005 1.32684,-1.78531 0.48012,-0.58476 1.0156,-1.21686 1.6743,-1.88082 1.57283,-1.58542 3.40091,-2.80925 5.33011,-3.78849 -9.83413,-7.6851 -19.67971,-15.35581 -29.51122,-23.04426 4.56303,-8.2234 4.71048,-14.42324 -6.80203,-19.64662 -13.19549,-8.53594 4.77141,-19.47898 14.52044,-28.88962 l 43.89848,-37.523941 c 0.42047,-0.317833 0.46404,-0.516223 0.16469,-0.592691 z m 19.00024,79.900922 c -2.73597,-0.0503 -5.72727,0.71556 -7.95025,2.14206 -0.78109,0.50124 -2.89353,2.52146 -5.121,5.14269 -2.22752,2.62124 -4.72827,5.90274 -6.97343,9.2141 -3.38378,4.99063 -4.58243,8.01227 -4.82157,11.66333 l -0.0512,0.78166 -0.82346,-0.2029 c 0.71188,0.17571 0.80773,0.27772 1.42545,0.53538 0.61774,0.25765 1.43234,0.60883 2.39607,1.02999 1.9274,0.8423 4.45013,1.96827 7.11179,3.17926 5.29892,2.41091 11.30052,5.10516 13.24988,5.95016 0.97652,0.42329 1.92159,0.81097 2.63459,1.08678 0.14946,0.0579 0.232,0.0847 0.3583,0.13166 0.17526,-0.16546 0.33161,-0.30152 0.5865,-0.58856 0.76079,-0.8568 1.76911,-2.17347 2.83542,-3.71311 2.13264,-3.07938 4.53335,-7.08855 6.15615,-10.47435 3.91883,-8.1763 4.64886,-15.07335 3.35325,-17.61297 -1.5263,-2.99188 -6.52073,-6.63126 -11.75419,-7.93631 -0.81728,-0.20379 -1.70039,-0.31213 -2.61239,-0.32887 z m 34.16655,17.45707 c -0.32791,-0.007 -0.64937,3.6e-4 -0.96493,0.0207 -0.84152,0.0539 -1.63911,0.20134 -2.40329,0.43884 -3.0567,0.94996 -5.87129,3.43709 -8.5987,8.00289 -1.01664,1.70204 -4.31219,6.81919 -7.46338,11.60811 -1.56426,2.37722 -2.96972,4.55901 -3.96505,6.14479 -0.13425,0.21388 -0.19056,0.31318 -0.30926,0.50441 1.13384,0.4149 3.09205,1.15281 4.66255,1.75794 1.47003,0.56645 4.99279,1.6644 7.51449,2.32688 2.78019,0.7304 4.75144,1.35554 6.38126,2.16943 1.62983,0.81389 2.88532,1.8682 3.92375,3.13434 2.03384,2.47992 2.86796,5.55538 2.61497,8.58217 6.16285,-9.90735 10.47726,-17.09416 12.604,-21.5326 2.54871,-5.31893 2.78653,-7.54788 2.36871,-10.49809 -0.58471,-4.12886 -3.6772,-8.13359 -8.40509,-10.42219 -3.05699,-1.47982 -5.6647,-2.19128 -7.96003,-2.23757 z m -66.77652,16.48541 c -4.45584,0.009 -6.13448,0.73106 -9.48721,4.11066 -0.79463,0.80098 -1.90933,2.20576 -2.077,2.4828 -0.45165,0.74625 -2.70221,4.36476 -5.09364,8.19443 -6.96784,11.15843 -12.31685,20.10556 -16.08117,26.90142 -3.76436,6.7959 -5.94537,11.55876 -6.5284,13.78578 -0.82643,3.15667 -0.42873,5.29758 1.61856,8.26516 1.49345,2.16489 12.75785,18.43106 14.41719,20.81858 2.91689,4.19712 10.83005,15.62255 12.27358,17.72295 0.83425,1.21387 2.55114,3.70573 3.81171,5.53094 1.26246,1.82795 3.12671,4.53148 4.14576,6.01211 1.01331,1.47231 3.76887,5.461 6.11742,8.85218 5.44974,7.86906 7.12018,10.2894 9.3855,13.61231 l 1.83074,2.68777 c 0.25722,0.3766 0.38683,0.82566 0.37018,1.28142 l -0.17089,4.58768 c -0.10086,2.71546 -0.82549,12.9896 -1.62216,23.17851 -0.79573,10.17688 -1.73433,22.20519 -2.08527,26.72691 -0.35104,4.52363 -0.8502,10.92826 -1.10846,14.23443 -0.25756,3.29707 -0.97231,12.69403 -1.58705,20.86918 -0.61493,8.17792 -1.39321,18.42521 -1.73058,22.77941 -0.33679,4.34679 -0.82982,10.82555 -1.09658,14.38829 -0.26718,3.56799 -0.77365,10.25728 -1.12395,14.86842 -0.60102,7.91098 -0.92831,12.29055 -2.04757,27.35626 -0.25809,3.47396 -0.75655,10.37761 -1.10846,15.33308 -0.35233,4.96092 -0.85243,11.86396 -1.11207,15.34909 -0.33682,4.52082 -0.6927,9.61281 -0.96339,13.72072 -0.13536,2.05396 -0.25079,3.86297 -0.33093,5.22736 -0.0445,0.75571 -0.0478,0.9283 -0.0686,1.3764 h 52.05779 52.0986 c -0.0113,-0.9803 -0.1322,-4.16506 -0.29686,-7.23208 -0.31701,-5.90491 -1.15916,-23.23178 -2.05997,-42.40796 -0.26553,-5.65271 -0.76461,-16.18678 -1.11001,-23.40568 -1.17972,-24.65646 -1.57764,-33.06061 -2.20917,-46.65852 -0.34741,-7.48035 -0.84387,-18.15573 -1.10433,-23.72215 -0.45593,-9.74417 -1.21406,-26.36624 -2.20349,-48.39943 -0.12474,-2.77794 -0.20574,-5.10754 -0.32423,-8.03698 -0.12673,-3.1332 -0.28887,-6.83066 -0.34694,-8.5961 l -0.20289,-6.16596 c -0.0243,-0.71351 0.30962,-1.39185 0.89008,-1.80751 l 2.52617,-1.80543 c 1.29777,-0.92822 2.59232,-1.97765 3.87469,-3.11938 -7.75281,-6.19022 -15.50573,-12.3805 -23.25854,-18.57069 0.14092,1.08862 0.53603,2.03741 0.11307,3.17565 -0.0488,0.12086 -0.10765,0.26202 -0.25195,0.4724 -0.0942,0.1374 -0.2764,0.3322 -0.54209,0.52506 -0.14106,0.10239 -0.26537,0.2079 -0.50131,0.29582 -0.68031,0.25353 -1.75357,-0.0277 -2.17975,-0.40166 -0.42618,-0.37397 -0.51743,-0.65105 -0.59475,-0.84257 -0.20103,-1.0268 -0.32121,-1.98913 -0.57256,-3.02025 -2.81519,-13.48201 -4.7869,-19.62369 -9.10825,-28.43737 -2.86272,-5.83861 -5.11969,-9.469 -8.56411,-13.79558 -10.16149,-12.76395 -24.07502,-20.52649 -39.7269,-22.2079 -1.77544,-0.19088 -4.44224,-0.26572 -5.38484,-0.19515 -0.68509,0.0513 -1.30341,0.0725 -1.82093,0.0624 -0.77479,-0.015 -1.07403,-0.0992 -1.34852,-0.20445 -0.15049,-0.0577 -0.35143,-0.12957 -0.65155,-0.38411 -0.30011,-0.25454 -0.76409,-0.87029 -0.76409,-1.64747 0,-0.76183 0.10073,-0.97042 1.64022,-2.86278 0.7315,-0.89911 1.72705,-2.09352 2.82304,-3.38062 1.06256,-1.24781 2.0309,-2.45407 2.711,-3.35893 l 2.50241,-3.27995 c 0.55088,-0.21538 1.15518,-0.17067 1.74452,-0.17708 0.61635,-0.005 1.45508,-0.004 2.47299,0.006 2.03585,0.0192 4.77709,0.0668 7.74321,0.13733 11.46754,0.2726 16.92681,0.41731 19.70393,0.23853 2.77716,-0.17877 2.57772,-0.38489 4.52625,-1.56537 1.87225,-1.13427 4.41067,-3.15522 6.55007,-5.15817 2.13942,-2.00301 3.95917,-4.21942 4.27224,-4.851 0.18999,-0.38323 0.40654,-1.36856 0.39394,-2.34135 -0.0126,-0.97279 -0.25047,-1.95972 -0.46053,-2.36406 -0.58355,-1.1232 -1.23079,-1.83556 -2.46526,-2.55817 -1.23446,-0.7226 -3.10348,-1.39016 -5.84535,-2.03571 -3.61921,-0.85212 -4.603,-1.17819 -12.78109,-4.30734 -10.19207,-3.89981 -15.13416,-6.01028 -28.60515,-12.21627 -3.74081,-1.72339 -5.8919,-2.65241 -7.44015,-3.11681 -1.54821,-0.4644 -2.53643,-0.53373 -4.46533,-0.52971 z m 97.14581,9.9684 c -0.39953,-0.0111 -0.80457,0.0663 -1.65211,0.22251 -3.1618,0.58259 -3.58493,0.89069 -5.96152,4.2108 -2.70305,3.77614 -6.45787,9.53273 -11.17494,17.14471 -6.69768,10.80824 -7.45312,11.99996 -11.41138,17.99297 -2.31595,3.50637 -3.59846,5.61248 -4.21494,7.03848 -0.6165,1.42599 -0.67563,2.11824 -0.60043,3.62843 0.12801,2.5716 0.39376,3.17793 2.14774,4.91811 1.18707,1.1778 3.07793,2.09992 6.83558,2.9454 4.77075,1.07347 5.68907,0.93749 9.13355,-1.40171 0.99403,-0.67507 3.09591,-2.62599 5.57946,-5.27848 2.48357,-2.65247 5.43771,-6.04394 8.5543,-9.80834 6.23324,-7.52875 13.12331,-16.55732 18.3084,-24.21829 0.68074,-1.00579 0.73936,-2.54258 -0.4156,-4.91244 -1.15497,-2.36979 -3.51642,-5.2687 -6.93213,-8.14281 -3.49702,-2.94252 -4.414,-3.49053 -6.5795,-4.02493 -0.8229,-0.20306 -1.21695,-0.30332 -1.61648,-0.31441 z m 24.49915,27.95824 c -0.51536,-0.008 -1.01059,0.0295 -1.49773,0.11513 -0.97431,0.17139 -1.91616,0.53813 -2.92371,1.12602 -2.01514,1.17578 -4.26534,3.36661 -6.87534,6.8299 -1.30841,1.73614 -2.99976,3.89593 -3.8685,4.93205 -0.72289,0.8621 -3.42816,4.25536 -5.87323,7.37715 -2.46945,3.15304 -5.90201,7.41431 -7.69365,9.54659 -3.28588,3.91075 -4.78095,6.57403 -5.29241,8.85941 -0.22881,1.02256 -0.20715,1.29026 -0.14405,1.4869 0.063,0.19659 0.36274,0.69053 1.26231,1.67482 2.62016,2.86688 6.96172,5.88616 9.29104,6.70238 1.36761,0.47922 1.85511,0.52893 3.37442,-0.19723 1.51931,-0.72615 3.87637,-2.48555 7.54236,-5.62644 5.39499,-4.62215 11.30999,-10.22039 16.12662,-15.14619 4.81658,-4.92573 8.65713,-9.48517 9.41492,-10.87187 1.43378,-2.62386 0.87852,-6.3616 -1.31703,-9.7691 -2.19554,-3.40753 -5.92162,-6.21913 -9.90696,-6.88359 -0.56803,-0.0947 -1.10369,-0.14789 -1.61906,-0.15593 z m -59.90271,0.74706 c -0.43603,0.40068 -0.78786,0.79072 -1.24838,1.19469 -2.89006,2.53504 -6.0803,4.90044 -8.77113,6.18248 l -2.32894,1.11052 c -0.29199,0.13889 -0.61172,0.20931 -0.93499,0.20652 l -5.73745,-0.047 c -3.18559,-0.0266 -8.77058,-0.14225 -12.47029,-0.25607 l -5.42923,-0.14973 c -0.0649,0.32896 0.42777,0.61048 0.4187,0.79146 0.0162,-0.0228 0.2281,0.27921 0.69078,0.75378 0.55787,0.57219 1.2934,1.27649 2.04759,1.9629 0.75419,0.68642 1.53128,1.35998 2.16788,1.87462 0.63658,0.51463 1.31713,0.922 1.10638,0.82502 0.70358,0.32361 2.12437,0.9811 3.17153,1.46883 1.92694,0.89752 3.48148,1.36621 5.76067,1.72851 0.29098,0.0463 3.44977,0.202 6.02658,0.17348 l 3.9635,-0.0434 0.38772,-0.3707 c 1.32997,-1.2673 2.49842,-2.94697 5.86135,-8.70348 1.11951,-1.91631 3.33216,-5.47608 5.31773,-8.70247 z m -5.88615,20.89086 c -0.29729,0.32819 -0.60341,0.80955 -0.91485,1.1064 l -0.002,0.002 -0.3805,0.36296 c -1.16322,1.11192 -2.70549,1.7403 -4.31457,1.75793 l -2.39607,0.0253 c 4.29924,3.30916 8.28556,7.12216 11.79189,11.52654 3.68038,4.62293 6.31034,8.86591 9.29568,14.95464 3.53928,7.21856 5.69315,13.86984 7.84388,22.82846 1.3523,1.07973 2.70464,2.15943 4.05695,3.23916 h 5.1e-4 c 1.23431,0.98552 2.46847,1.97124 3.70278,2.95675 33.51034,26.75596 65.80081,48.63049 99.31119,75.38645 11.78341,2.09141 30.43976,-18.28975 22.02348,-30.3346 -31.18304,-24.35568 -62.36619,-48.71172 -93.55815,-73.05606 -0.14466,-0.1129 -0.28954,-0.2263 -0.4342,-0.33919 -0.72052,-0.56237 -1.4406,-1.12536 -2.16115,-1.68772 -1.9751,1.60093 -3.76498,2.94245 -5.58153,3.81068 -1.04866,0.50121 -2.44253,1.0967 -4.23609,1.16524 -1.7936,0.0685 -3.13004,-0.40995 -3.97126,-0.70472 -4.61541,-1.6173 -8.39745,-4.60466 -11.87553,-8.41024 -1.13885,-1.24611 -1.71637,-1.1966 -2.62065,-4.01565 -0.22296,-0.69477 -0.38013,-2.03374 -0.32578,-2.81373 0.0545,-0.78 0.17062,-1.32999 0.3201,-1.99802 0.19988,-0.89328 0.72238,-1.74932 1.06716,-2.61652 -1.55543,0.978 -3.22646,1.88227 -5.36005,2.20865 -2.72587,0.417 -4.89051,-0.0913 -7.41691,-0.6598 -4.27676,-0.96228 -7.50769,-2.24804 -9.91056,-4.63209 -1.0248,-1.01673 -2.21488,-2.2493 -3.02852,-4.11168 -0.81364,-1.86242 -0.91402,-3.51422 -0.98765,-4.99297 -0.0134,-0.26894 0.0555,-0.65172 0.0624,-0.95822 z m 68.32329,17.98109 c -0.0305,0.0279 -0.0483,0.0427 -0.079,0.0707 -2.66874,2.44982 -5.57242,5.01896 -8.0478,7.14071 -0.10048,0.0861 -0.16769,0.13965 -0.2664,0.22407 2.80341,2.18803 5.60524,4.378 8.40869,6.56608 0.41296,-4.21166 0.4255,-8.54334 0.0573,-13.18844 -0.025,-0.31436 -0.0478,-0.51422 -0.0728,-0.81315 z"
     sodipodi:nodetypes="scccccssccsssscccccscssscccssssscsssssscssssscsssscssscssssssscssssccccsssssssssssscccssssssssccccccssssccsscscsssssccccssssssssssssssssssssssssssssssssscssssssssssssssscccccccccssscsscccsccsccccssccccccsscssssssscssssscccsccscccssc" /></svg>
