<svg xmlns="http://www.w3.org/2000/svg" xml:space="preserve" width="3072" height="2048" viewBox="0 0 812.8 541.867"><path d="M 0 0 L 0 541.86683 L 812.80025 541.86683 L 812.80025 0 L 0 0 z" style="fill:#a04020;stroke-width:4.23333;stroke-linecap:round;stroke-linejoin:round;paint-order:stroke fill markers;stroke:none;fill-opacity:1"/><path d="m 551.78509,77.652132 -52.02888,52.029398 c -27.69312,-18.30958 -60.15746,-28.07485 -93.35609,-28.0815 v 67.73336 c 56.11215,-1e-5 101.60004,45.48788 101.60004,101.60003 -0.13253,15.07732 -3.61921,29.93612 -10.20714,43.49865 L 328.74748,145.386 372.53345,101.60003 H 237.06674 v 135.46671 l 43.78545,-43.78545 169.04607,169.04554 c -13.56242,6.58767 -28.42104,10.07417 -43.49814,10.20662 -56.11215,10e-6 -101.60003,-45.48788 -101.60003,-101.60003 h -67.73335 c 0.0496,33.17823 9.84495,65.6109 28.16935,93.26978 l -52.11673,52.11725 47.89425,47.89425 52.11724,-52.11725 c 27.65873,18.32431 60.09122,28.11963 93.26927,28.16935 33.17806,-0.0497 65.61054,-9.84504 93.26928,-28.16935 l 52.11776,52.11725 47.89425,-47.89425 -52.11725,-52.11725 c 18.3244,-27.65888 28.11972,-60.09155 28.16935,-93.26978 -0.007,-33.19886 -9.77217,-65.6634 -28.08202,-93.35661 l 52.02992,-52.02991 z" style="fill:#ffc000;fill-opacity:1;stroke:none;stroke-width:4.23333;stroke-linecap:round;stroke-linejoin:round;paint-order:stroke fill markers"/></svg>