<svg xmlns="http://www.w3.org/2000/svg" xml:space="preserve" width="3072" height="2048" viewBox="0 0 812.8 541.867"><path d="M0 0v541.867h812.8V0H0z"/><path d="M 330.19907 67.732321 L 330.19907 474.13296 L 347.13292 474.13296 L 347.13292 67.732321 L 330.19907 67.732321 z M 364.06626 67.732321 L 364.06626 474.13296 L 381.00012 474.13296 L 381.00012 67.732321 L 364.06626 67.732321 z M 397.93346 67.732321 L 397.93346 474.13296 L 414.86731 474.13296 L 414.86731 67.732321 L 397.93346 67.732321 z M 431.80065 67.732321 L 431.80065 474.13296 L 448.7345 474.13296 L 448.7345 67.732321 L 431.80065 67.732321 z M 465.66578 67.732321 L 465.66578 474.13296 L 482.59963 474.13296 L 482.59963 67.732321 L 465.66578 67.732321 z" style="color:#000;fill:#fff;-inkscape-stroke:none;paint-order:stroke fill markers"/><path d="M 304.80061 93.132845 L 304.80061 110.06618 L 508.00016 110.06618 L 508.00016 93.132845 L 304.80061 93.132845 z M 304.80061 431.80065 L 304.80061 448.7345 L 508.00016 448.7345 L 508.00016 431.80065 L 304.80061 431.80065 z" style="color:#000;fill:#c0a060;-inkscape-stroke:none;paint-order:stroke fill markers"/></svg>