<svg xmlns="http://www.w3.org/2000/svg" xml:space="preserve" width="3072" height="2048" viewBox="0 0 812.8 541.867"><path fill="#e00000" d="M0 0v541.867h812.8V0H0z"/><path fill="#ffe000" d="M566.937 473.443c-7.698-1.511-13.583-5.164-21.421-13.296-4.084-4.237-8.801-9.336-10.484-11.333l-3.058-3.63 25.21-25.201 25.21-25.202 9.907 10.846c11.474 12.562 13.128 14.823 15.24 20.83 9.145 26.022-13.56 52.297-40.604 46.986zm-91.828-83.992-39.607-38.75-6.092-.088c-9.757-.14-16.52-3.983-21.323-12.118-2.761-4.676-3.375-13.206-1.39-19.288 1.273-3.896 3.203-6.094 21.741-24.76 22.397-22.552 24.06-23.783 32.83-24.29 9.845-.571 18.175 4.158 22.455 12.747 1.7 3.413 2.054 5.23 2.054 10.567v6.446l39.77 38.872 39.77 38.872-25.26 25.27c-13.892 13.898-25.278 25.27-25.3 25.27-.024 0-17.865-17.438-39.648-38.75zm-156.25-6.318c-3.082-1.054-11.024-8.654-57.456-54.982-60.342-60.205-58.194-57.678-58.194-68.463 0-7.056 2.053-12.036 6.902-16.742 4.876-4.732 9.567-6.604 16.546-6.604 10.624 0 7.841-2.362 67.669 57.442 51.023 51.003 53.844 53.971 55.44 58.337 4.467 12.217-.655 25.107-12.092 30.432-4.89 2.277-13.114 2.53-18.815.58zm-7.949-106.356-50.469-50.475 50.67-50.672 50.67-50.671 50.473 50.475 50.474 50.475-50.675 50.671-50.674 50.672zm177.952-61.857c-1.581-.591-4.085-1.83-5.563-2.755-1.48-.923-26.369-25.394-55.31-54.38-58.628-58.714-56.204-55.84-56.182-66.61.015-7.09 2.087-12.156 6.873-16.801 4.873-4.73 9.512-6.593 16.484-6.622 10.767-.046 8.267-2.169 68.034 57.772 60.231 60.407 57.26 56.83 56.584 68.155-.409 6.84-2.242 11.14-6.61 15.508-4.422 4.422-8.662 6.212-15.473 6.53-3.728.174-7.038-.124-8.837-.797z"/></svg>