<svg xmlns="http://www.w3.org/2000/svg" xml:space="preserve" id="svg1" width="4608" height="3072" version="1.1" viewBox="0 0 1219.2 812.8"><defs id="defs1"><style id="style1">.cls-1{fill:#0283c0}.cls-2{fill:#fff}.cls-3{fill:#ef483f}</style></defs><path id="rect1" d="M 0 0 L 0 812.8 L 1219.2 812.8 L 1219.2 0 L 0 0 z" style="fill:#000;fill-rule:evenodd;stroke:none;stroke-width:8.46667;stroke-linecap:round;stroke-linejoin:round;fill-opacity:1"/><path id="path1-7" d="m 637.83309,101.60118 a 6.335856,6.335856 0 0 0 -6.45701,6.45698 l 0.3106,16.04914 a 6.335856,6.335856 0 0 0 1.8526,4.35788 l 57.26468,57.26522 28.5988,28.59876 L 584.65489,344.79815 373.71955,133.8607 a 6.335856,6.335856 0 0 0 -4.48086,-1.8562 h -65.44558 a 6.335856,6.335856 0 0 0 -6.33399,6.33655 v 65.44663 a 6.335856,6.335856 0 0 0 1.85622,4.48086 L 509.04976,418.00141 285.07177,634.86664 a 6.335856,6.335856 0 0 0 -0.0734,9.02891 l 65.44663,65.44871 a 6.335856,6.335856 0 0 0 9.03201,-0.0729 l 216.8652,-223.9785 50.16177,50.16126 c 0.015,0.0153 0.023,0.0344 0.038,0.0496 3.1539,3.15309 7.5059,4.11505 11.60299,3.98425 l -6.14329,6.14329 -28.50989,-14.41255 a 6.335856,6.335856 0 0 0 -8.7948,3.44061 l -14.59969,39.14283 a 6.335856,6.335856 0 0 0 2.81739,7.72769 l 57.49569,32.49671 a 6.335856,6.335856 0 0 0 7.5965,-1.03766 l 38.23688,-38.23642 42.56328,42.55915 46.70979,46.71393 c -1.4152,2.48297 -2.78469,4.95924 -3.8752,7.34735 -2.7079,5.93007 -4.42769,11.5153 -4.7615,16.83566 -0.3337,5.32043 0.88491,10.815 4.7672,14.69678 3.88221,3.88173 9.37279,5.09758 14.6932,4.76352 5.32029,-0.33407 10.90869,-2.05237 16.83869,-4.76043 11.86,-5.41608 25.0955,-14.94708 37.66129,-27.51303 12.56609,-12.56617 22.09409,-25.80115 27.50989,-37.66126 2.708,-5.93008 4.4277,-11.51833 4.7615,-16.83877 0.3338,-5.3204 -0.8853,-10.8119 -4.7677,-14.69366 -3.1021,-3.10195 -7.4029,-4.57252 -11.77029,-4.77801 -8.43351,-0.39666 -17.4666,3.05022 -27.14719,8.60464 l -11.06039,-11.06031 a 6.3352223,6.3352223 0 0 0 -0.017,-0.0262 6.3352223,6.3352223 0 0 0 -0.015,-0.006 l -11.82904,-11.83219 a 6.3352223,6.3352223 0 0 0 -0.017,-0.0238 6.3352223,6.3352223 0 0 0 -0.015,-0.006 l -11.82621,-11.82562 a 6.3352223,6.3352223 0 0 0 -0.02,-0.0326 6.3352223,6.3352223 0 0 0 -0.018,-0.009 l -11.823,-11.82305 a 6.3352223,6.3352223 0 0 0 -0.02,-0.0285 6.3352223,6.3352223 0 0 0 -0.018,-0.006 l -11.82619,-11.82872 a 6.3352223,6.3352223 0 0 0 -0.02,-0.0295 6.3352223,6.3352223 0 0 0 -0.018,-0.006 L 759.0516,539.64992 a 6.3352223,6.3352223 0 0 0 -0.015,-0.0202 6.3352223,6.3352223 0 0 0 -0.012,-0.006 l -11.8381,-11.8354 a 6.3352223,6.3352223 0 0 0 -0.012,-0.0176 6.3352223,6.3352223 0 0 0 -0.012,-0.003 l -6.9644,-6.96805 38.24259,-38.24262 a 6.335856,6.335856 0 0 0 1.0377,-7.59643 l -32.49335,-57.50078 a 6.335856,6.335856 0 0 0 -3.34559,-2.83497 h -5e-4 a 6.335856,6.335856 0 0 0 -4.38421,0.017 l -39.14278,14.60015 a 6.335856,6.335856 0 0 0 -3.44059,8.7948 l 14.41298,28.51246 -6.15619,6.1557 c 0.1143,-3.56786 -0.6939,-7.28306 -2.9616,-10.27895 a 6.3352223,6.3352223 0 0 0 -1.0139,-1.32965 l -51.40818,-51.40769 130.46955,-134.74883 74.40938,74.40938 a 6.335856,6.335856 0 0 0 8.9612,0 l 70.81577,-70.81787 a 6.335856,6.335856 0 0 0 0,-8.95914 l -75.69607,-75.69666 8.04859,-8.31266 a 6.335856,6.335856 0 0 0 -0.069,-8.88783 L 817.66882,127.86 a 6.335856,6.335856 0 0 0 -4.4282,-1.85571 6.335856,6.335856 0 0 0 -4.4576,1.78232 l -8.3158,8.05222 -29.88599,-29.88602 a 6.335856,6.335856 0 0 0 -4.35839,-1.85312 z" style="display:inline;fill:#fff;fill-opacity:1;stroke-width:.999997;stroke:none"/><path id="path4" d="M 644.16947 114.39767 L 644.30434 121.31301 L 699.76297 176.77061 L 858.90365 335.91025 L 920.76085 274.05046 L 763.42524 116.71794 L 644.16947 114.39767 z M 813.11729 141.22652 L 809.4276 144.79943 L 849.54556 184.9174 L 853.11692 181.22821 L 813.11729 141.22652 z M 728.36329 223.28973 L 703.04132 247.80813 L 596.67986 350.79254 L 643.5509 397.66358 L 766.86689 270.30546 L 771.05423 265.98066 L 728.36329 223.28973 z M 514.94893 429.92828 L 298.5146 639.49017 L 354.84966 695.82885 L 564.41516 479.39399 L 514.94893 429.92828 z" style="display:inline;fill:#d00000;fill-opacity:1;stroke:none;stroke-width:.999997"/><path id="path24" d="m 310.12991,144.67489 v 56.48803 l 314.10176,314.1002 c 0.55939,-1.68936 1.13437,-3.37915 1.92753,-5.12423 3.47156,-7.638 9.19891,-15.88706 16.5225,-23.95255 L 336.12832,179.63296 c -2.47391,-2.474 -2.47391,-6.48512 0,-8.95914 1.18751,-1.18786 2.79812,-1.85501 4.47776,-1.8557 1.68072,-1.5e-4 3.2926,0.66707 4.48087,1.8557 L 651.73748,477.3259 c 5.94143,-5.37674 12.01727,-10.14799 17.92604,-13.55369 3.74452,-2.15825 7.37169,-3.92883 10.93111,-5.11648 L 366.6169,144.67489 Z m 436.85499,272.7849 20.76152,36.73781 -20.76101,-36.73781 z m -8.36849,10.94455 -27.43966,10.23504 13.28446,26.2878 c 1.23467,2.44222 0.76181,5.40176 -1.17254,7.33753 l -38.30464,38.30361 v 0.003 l 23.76341,23.76237 57.3319,-57.33396 z m -48.14693,41.29102 c -2.54649,-0.12651 -8.17782,1.4258 -14.47612,5.05602 -6.29212,3.62665 -13.37428,9.09057 -20.021,15.73393 -0.004,0.007 -0.008,0.0144 -0.0119,0.0212 -0.005,0.002 -0.009,0.004 -0.015,0.006 -8.57927,8.58059 -14.99138,17.69459 -18.25315,24.87083 -1.63127,3.58903 -2.43643,6.69252 -2.5554,8.67286 -0.11643,1.93857 0.26018,2.37078 0.35192,2.46445 l 0.0196,0.0191 0.009,0.0124 c 0.0904,0.089 0.5212,0.47101 2.46962,0.35398 1.98038,-0.11894 5.08385,-0.92361 8.67285,-2.55488 7.17799,-3.26256 16.29353,-9.67696 24.876,-18.25935 8.58241,-8.58247 14.99477,-17.69594 18.25729,-24.87393 1.63127,-3.58902 2.43539,-6.69094 2.55436,-8.67131 0.11895,-1.98038 -0.27915,-2.41029 -0.35966,-2.4908 h -0.003 c -0.0357,-0.0358 -0.22586,-0.29466 -1.51361,-0.35916 h -5.1e-4 z m -14.44666,49.8352 -38.30361,38.30412 c -1.93602,1.934 -4.89499,2.40647 -7.33702,1.17151 l -26.2878,-13.28446 -10.23606,27.44018 48.59496,27.46344 57.33294,-57.33241 z m 55.22505,10.23865 -36.03294,36.03346 2.48409,2.48409 36.03294,-36.03346 z m 11.44581,11.44272 -36.03656,36.03294 2.90577,2.90525 36.03294,-36.03501 z m 11.8613,11.86439 -36.03295,36.03346 2.90164,2.90215 36.03294,-36.03605 z m 28.19311,10.27276 v 5.1e-4 c 0.006,0.002 0.0117,0.004 0.0176,0.006 0.002,0.002 0.003,0.004 0.005,0.007 -0.002,-0.002 -0.003,-0.005 -0.005,-0.007 -0.006,-0.002 -0.0121,-0.004 -0.0181,-0.006 z m 0.0253,0.0171 c 0.003,0.005 0.007,0.01 0.0103,0.0145 -0.003,-0.005 -0.007,-0.01 -0.0103,-0.0145 z m 0.0114,0.016 c 4.2e-4,6.1e-4 6.1e-4,0.001 10e-4,0.002 h 5.2e-4 c -4.4e-4,-5.7e-4 -10e-4,-0.002 -0.002,-0.002 z m -16.36903,1.55443 -36.03294,36.03346 2.90215,2.90266 36.03604,-36.03294 z m 28.21068,10.27947 v 5.2e-4 c 0.003,0.004 0.005,0.008 0.008,0.0119 -0.002,-0.004 -0.005,-0.008 -0.007,-0.0124 z m 0.0103,0.0165 c 0.003,0.005 0.007,0.0107 0.01,0.016 h 5.1e-4 c -0.003,-0.005 -0.007,-0.0107 -0.0103,-0.016 z m -16.35404,1.56476 -36.03605,36.03656 2.89905,2.89957 36.03604,-36.03346 z m 28.19104,10.27638 -5.2e-4,5.1e-4 c 0.005,0.002 0.009,0.004 0.0145,0.006 10e-4,0.002 0.003,0.004 0.005,0.006 -10e-4,-0.002 -0.003,-0.004 -0.004,-0.006 -0.005,-0.002 -0.009,-0.004 -0.0145,-0.006 z m 0.0269,0.0238 c 10e-4,0.002 0.003,0.004 0.004,0.006 h 5.1e-4 c -10e-4,-0.002 -0.003,-0.004 -0.005,-0.006 z m -16.36024,1.56114 -36.03294,36.03605 2.90215,2.90266 36.03604,-36.03346 z m 11.86388,11.86491 -36.03346,36.03501 2.90008,2.90008 36.03501,-36.03294 z m 11.86129,11.86026 -36.03294,36.03656 3.5481,3.5481 11.43703,-11.43754 c 2.05012,-2.28251 4.08327,-4.57055 6.33449,-6.82181 1.43098,-1.43101 2.93034,-2.54013 4.38372,-3.8964 l 13.87719,-13.87771 z m 42.11267,1.6955 c -4.14271,-0.19484 -11.92089,2.10779 -20.55947,7.10241 -7.27493,4.20629 -15.21336,10.44312 -22.95053,17.6165 l -10.48153,10.48101 c -8.55464,9.6038 -15.13099,19.27576 -18.82056,27.35544 -2.26962,4.97013 -3.45125,9.33494 -3.64164,12.36979 -0.1904,3.03487 0.44428,4.30252 1.08107,4.93923 0.63677,0.6367 1.90516,1.26958 4.94027,1.079 3.03512,-0.19056 7.39905,-1.3698 12.36927,-3.63957 9.94039,-4.53942 22.30053,-13.28338 33.9633,-24.94628 11.66306,-11.66306 20.40807,-24.02703 24.94732,-33.96743 2.2696,-4.97017 3.44918,-9.33128 3.63957,-12.36618 0.1904,-3.03481 -0.44272,-4.30303 -1.07952,-4.93975 v -0.003 c -0.47611,-0.47604 -1.30293,-0.982 -3.40755,-1.08107 z" style="color:#000;fill:#d00000;stroke-width:1.000125;stroke-dasharray:none;fill-opacity:1;stroke:none"/></svg>