<svg xmlns="http://www.w3.org/2000/svg" xml:space="preserve" width="3072" height="2048" viewBox="0 0 812.8 541.867"><path d="M0 0v541.867h812.8V0Z"/><path d="m 429.50001,75.810383 0.0899,4.621425 37.05873,37.058212 106.34135,106.34031 41.33444,-41.33599 -105.1352,-105.133147 z m 112.89444,17.92811 -2.46548,2.387452 26.80767,26.807675 2.38642,-2.46497 z M 206.28721,96.042746 V 133.78929 L 345.29376,272.7948 383.64802,235.65856 244.03324,96.042746 Z m 279.47295,52.532214 -287.23475,278.11437 37.64474,37.64681 278.11696,-287.23423 z m -58.5582,130.63857 -37.13521,38.35375 33.6331,33.63258 c 10e-4,10e-4 0.006,0.0138 0.007,0.015 0.0538,0.0538 0.33859,0.32186 1.66192,0.24236 1.32333,-0.0795 3.39673,-0.61733 5.795,-1.70739 4.79649,-2.18012 10.88826,-6.46585 16.62328,-12.20081 5.73496,-5.73502 10.01918,-11.82471 12.19925,-16.62121 1.09006,-2.39827 1.62738,-4.47167 1.70688,-5.795 0.0793,-1.31945 -0.18439,-1.6069 -0.23926,-1.66192 l 0.003,-0.003 z m 65.40947,6.42339 -18.33584,6.83937 8.87698,17.56638 a 4.2337579,4.2337579 0 0 1 -0.78342,4.90254 l -25.59586,25.59587 v 0.002 l 15.87914,15.87862 38.31034,-38.3124 z m -41.8264,60.89242 -25.59535,25.59586 a 4.2337579,4.2337579 0 0 1 -4.90254,0.7829 l -17.56638,-8.87698 -6.83989,18.33584 32.47244,18.35186 38.31086,-38.31086 z m 36.90266,6.84196 -24.07812,24.07813 1.65985,1.65985 24.07812,-24.07813 z m 7.64812,7.64605 -24.08019,24.07813 1.94148,1.94148 24.07813,-24.07967 z m 7.92613,7.9282 -24.07812,24.07813 1.93942,1.93941 24.07812,-24.08019 z m 7.92562,7.92562 -24.07812,24.07812 1.93941,1.93942 24.08019,-24.07812 z m 7.92975,7.92562 -24.08019,24.08019 1.93735,1.93735 24.08019,-24.07813 z m 7.92355,7.92561 -24.07812,24.08019 1.93941,1.93942 24.08019,-24.07812 z m 7.92768,7.9282 -24.07812,24.07968 1.93787,1.93786 24.07967,-24.07812 z m 7.92614,7.92562 -24.07813,24.08019 2.37092,2.37092 7.64243,-7.64243 c 1.36993,-1.52522 2.72849,-3.05456 4.23282,-4.5589 0.95622,-0.95623 1.95837,-1.69717 2.92953,-2.60346 l 9.27334,-9.27334 z m 28.14041,1.13275 c -2.76827,-0.1302 -7.96569,1.40844 -13.73819,4.74596 -4.86128,2.81075 -10.16584,6.97849 -15.33602,11.7719 l -7.0037,7.00371 c -5.71644,6.41749 -10.11105,12.88047 -12.5765,18.27951 -1.51662,3.32116 -2.30623,6.2377 -2.43345,8.26564 -0.12723,2.02799 0.29692,2.87512 0.72244,3.30058 0.42551,0.42546 1.27296,0.84824 3.30109,0.72089 2.02814,-0.12734 4.94442,-0.91519 8.26565,-2.4319 6.6424,-3.03336 14.90193,-8.87636 22.69526,-16.66979 7.79354,-7.79353 13.63656,-16.05491 16.66979,-22.69733 1.51662,-3.32117 2.30468,-6.23559 2.4319,-8.26358 0.12723,-2.02793 -0.29537,-2.87562 -0.72089,-3.30109 a 4.2337579,4.2337579 0 0 1 0,-0.002 c -0.31815,-0.31809 -0.87102,-0.65623 -2.27738,-0.72243 z" style="color:#000;display:inline;fill:#e00000;stroke-linecap:round;stroke-linejoin:round;stroke-miterlimit:10;-inkscape-stroke:none"/><path d="m 425.26565,67.259998 a 4.2337579,4.2337579 0 0 0 -4.31447,4.314467 l 0.20722,10.724413 a 4.2337579,4.2337579 0 0 0 1.23817,2.911968 l 38.26538,38.265894 19.11046,19.11047 -90.04156,87.1823 L 248.77921,88.816311 a 4.2337579,4.2337579 0 0 0 -2.99414,-1.240234 h -43.73222 a 4.2337579,4.2337579 0 0 0 -4.23231,4.234368 v 43.732745 a 4.2337579,4.2337579 0 0 0 1.24024,2.99413 L 339.20989,278.6854 189.54301,423.5996 a 4.2337579,4.2337579 0 0 0 -0.0491,6.03322 l 43.73274,43.7343 a 4.2337579,4.2337579 0 0 0 6.0353,-0.0486 l 144.91419,-149.66739 33.51941,33.51889 c 0.0101,0.0102 0.0152,0.0229 0.0253,0.0331 2.10751,2.10697 5.0158,2.74977 7.75354,2.66237 l -4.10518,4.10518 -19.05104,-9.63094 a 4.2337579,4.2337579 0 0 0 -5.87664,2.29909 l -9.756,26.15603 a 4.2337579,4.2337579 0 0 0 1.88257,5.16403 l 38.41989,21.71496 a 4.2337579,4.2337579 0 0 0 5.07618,-0.6935 l 25.5509,-25.55039 28.44169,28.4391 31.21257,31.21516 c -0.94572,1.65918 -1.8608,3.31399 -2.58951,4.90978 -1.80947,3.96261 -2.95871,7.69478 -3.18171,11.24996 -0.22304,3.55523 0.59106,7.22671 3.18533,9.8206 2.59416,2.59387 6.26333,3.40649 9.81853,3.18327 3.55517,-0.22323 7.28945,-1.37162 11.25203,-3.18121 7.92511,-3.61915 16.76915,-9.98807 25.16591,-18.38493 8.39694,-8.39699 14.76388,-17.24072 18.38286,-25.16591 1.80952,-3.96261 2.95869,-7.6968 3.18172,-11.25203 0.22304,-3.55522 -0.59158,-7.22464 -3.18585,-9.81853 -2.07294,-2.07279 -4.94675,-3.05577 -7.86516,-3.19308 -5.63543,-0.26506 -11.67175,2.03845 -18.1405,5.75004 l -7.39076,-7.39077 a 4.2333345,4.2333345 0 0 0 -0.0114,-0.0176 4.2333345,4.2333345 0 0 0 -0.0103,-0.004 l -7.90443,-7.90598 a 4.2333345,4.2333345 0 0 0 -0.0114,-0.016 4.2333345,4.2333345 0 0 0 -0.0103,-0.004 l -7.90236,-7.90236 a 4.2333345,4.2333345 0 0 0 -0.0134,-0.0217 4.2333345,4.2333345 0 0 0 -0.0119,-0.006 l -7.9003,-7.90029 a 4.2333345,4.2333345 0 0 0 -0.0134,-0.0191 4.2333345,4.2333345 0 0 0 -0.0119,-0.004 l -7.90236,-7.90443 a 4.2333345,4.2333345 0 0 0 -0.0134,-0.0196 4.2333345,4.2333345 0 0 0 -0.0119,-0.004 l -7.90649,-7.90857 a 4.2333345,4.2333345 0 0 0 -0.01,-0.0134 4.2333345,4.2333345 0 0 0 -0.008,-0.004 l -7.91063,-7.91011 a 4.2333345,4.2333345 0 0 0 -0.008,-0.0119 4.2333345,4.2333345 0 0 0 -0.008,-0.002 l -4.65398,-4.65605 25.55452,-25.55452 a 4.2337579,4.2337579 0 0 0 0.6935,-5.07618 L 498.2035,278.32366 a 4.2337579,4.2337579 0 0 0 -2.23553,-1.89446 h -5.1e-4 a 4.2337579,4.2337579 0 0 0 -2.92954,0.0114 l -26.15604,9.75599 a 4.2337579,4.2337579 0 0 0 -2.29908,5.87716 l 9.63094,19.05259 -4.11345,4.11345 c 0.0764,-2.38412 -0.46391,-4.8669 -1.97921,-6.86883 a 4.2333345,4.2333345 0 0 0 -0.67747,-0.88832 l -34.35192,-34.35192 87.1823,-90.04208 49.72204,49.72205 a 4.2337579,4.2337579 0 0 0 5.98827,0 l 47.32064,-47.32219 a 4.2337579,4.2337579 0 0 0 0,-5.98672 l -50.58194,-50.58194 5.37849,-5.5547 a 4.2337579,4.2337579 0 0 0 -0.0465,-5.93918 L 545.43561,84.806736 a 4.2337579,4.2337579 0 0 0 -2.95899,-1.240235 4.2337579,4.2337579 0 0 0 -2.97864,1.191142 l -5.55676,5.380552 -19.97037,-19.970363 a 4.2337579,4.2337579 0 0 0 -2.91248,-1.238168 z m 4.23436,8.550385 79.68922,1.55081 L 614.32445,182.49434 572.99001,223.83033 466.64866,117.49002 429.58993,80.431808 Z m 112.89444,17.92811 26.72861,26.730157 -2.38642,2.46497 -26.80767,-26.807675 z m -336.10724,2.304253 h 37.74603 L 383.64802,235.65856 367.51256,251.28241 229.64652,113.41585 a 4.2333345,4.2333345 0 0 0 -2.99414,-1.24023 4.2333345,4.2333345 0 0 0 -2.99206,1.24023 4.2333345,4.2333345 0 0 0 0,5.98672 L 361.42973,257.17198 345.29376,272.7948 206.28721,133.78929 Z m 279.47295,52.532214 28.52695,28.52695 -278.11696,287.23423 -37.64474,-37.64681 z m -58.5582,130.63857 26.63818,26.63818 c -2.3785,0.79363 -4.80228,1.97672 -7.30447,3.41891 -3.94837,2.27578 -8.00839,5.46394 -11.9786,9.05682 l -22.97845,-22.97845 z m 65.40947,6.42339 18.35134,32.47244 -38.31034,38.3124 -15.87914,-15.87862 v -0.002 l 25.59586,-25.59587 a 4.2337579,4.2337579 0 0 0 0.78342,-4.90254 l -8.87698,-17.56638 z m -86.92186,15.7949 22.81619,22.81619 c -4.8938,5.38953 -8.72088,10.90184 -11.04067,16.00574 -0.53001,1.1661 -0.91397,2.29522 -1.28778,3.42409 l -26.11056,-26.11056 z m 54.74965,11.7967 h 5.2e-4 c 0.8605,0.0431 0.98743,0.21641 1.01131,0.2403 a 4.2337579,4.2337579 0 0 0 0.002,0 c 0.0538,0.0538 0.31978,0.34065 0.2403,1.66398 -0.0795,1.32333 -0.61682,3.39673 -1.70688,5.795 -2.18008,4.79651 -6.46428,10.88619 -12.19925,16.62121 -5.73502,5.73497 -11.82678,10.02069 -16.62328,12.20081 -2.39827,1.09006 -4.47167,1.62791 -5.795,1.70739 -1.30199,0.0782 -1.59012,-0.17712 -1.65055,-0.23668 a 4.2333345,4.2333345 0 0 0 -0.006,-0.008 l -0.0129,-0.0129 c -0.0613,-0.0626 -0.31293,-0.35154 -0.23513,-1.64693 0.0795,-1.32332 0.61734,-3.39673 1.70739,-5.795 2.17959,-4.79534 6.46431,-10.88537 12.19719,-16.61914 a 4.2333345,4.2333345 0 0 0 0.01,-0.004 4.2333345,4.2333345 0 0 0 0.008,-0.0134 c 4.4415,-4.43925 9.17396,-8.09068 13.37852,-10.51409 4.20867,-2.4258 7.97168,-3.46315 9.67331,-3.37861 z m -9.65419,33.30082 15.87914,15.87862 -38.31086,38.31086 -32.47244,-18.35186 6.83989,-18.33584 17.56638,8.87698 a 4.2337579,4.2337579 0 0 0 4.90254,-0.7829 z m 36.90266,6.84196 1.65985,1.65985 -24.07812,24.07813 -1.65985,-1.65985 z m 7.64812,7.64605 1.93942,1.93994 -24.07813,24.07967 -1.94148,-1.94148 z m 7.92613,7.9282 1.93942,1.93735 -24.07812,24.08019 -1.93942,-1.93941 z m 7.92562,7.92562 1.94148,1.93942 -24.08019,24.07812 -1.93941,-1.93942 z m 7.92975,7.92562 1.93735,1.93941 -24.08019,24.07813 -1.93735,-1.93735 z m 7.92355,7.92561 1.94148,1.94149 -24.08019,24.07812 -1.93941,-1.93942 z m 7.92768,7.9282 1.93942,1.93942 -24.07967,24.07812 -1.93787,-1.93786 z m 7.92614,7.92562 2.37091,2.37298 -9.27334,9.27334 c -0.97117,0.90629 -1.97331,1.64723 -2.92953,2.60346 -1.50433,1.50434 -2.86289,3.03368 -4.23282,4.5589 l -7.64243,7.64243 -2.37092,-2.37092 z m 28.14041,1.13275 c 1.40636,0.0662 1.95923,0.40433 2.27738,0.72243 a 4.2337579,4.2337579 0 0 0 0,0.002 c 0.42552,0.42547 0.84812,1.27315 0.72089,3.30109 -0.12722,2.02799 -0.91528,4.9424 -2.4319,8.26358 -3.03323,6.64242 -8.87625,14.90379 -16.66979,22.69733 -7.79334,7.79343 -16.05285,13.63642 -22.69526,16.66979 -3.32123,1.51671 -6.23751,2.30456 -8.26565,2.4319 -2.02813,0.12735 -2.87558,-0.29543 -3.30109,-0.72089 -0.42552,-0.42546 -0.84967,-1.27259 -0.72244,-3.30058 0.12722,-2.02795 0.91683,-4.94447 2.43345,-8.26564 2.46545,-5.39904 6.86006,-11.86201 12.5765,-18.27951 l 7.0037,-7.00371 c 5.17018,-4.79341 10.47473,-8.96115 15.33602,-11.7719 5.7725,-3.33753 10.96992,-4.87616 13.73819,-4.74596 z" style="color:#000;display:inline;fill:#fff;stroke-linecap:round;stroke-linejoin:round;stroke-miterlimit:10;-inkscape-stroke:none"/></svg>