<svg xmlns="http://www.w3.org/2000/svg" xml:space="preserve" width="3072" height="2048" viewBox="0 0 812.8 541.867"><path fill="#e00000" d="M0 0v541.867h812.8V0H0z" paint-order="stroke fill markers"/><path d="M401.953 67.74c-2.179.015-4.07.05-5.298.11-4.419.214-5.55.436-6.358 1.243-.415.416-.99 2.66-1.672 6.532a591.95 591.95 0 0 1-.805 4.466c-.163.873-.468 2.615-.678 3.87a709.973 709.973 0 0 1-1.492 8.634c-.179.982-.409 2.367-.512 3.076a131.2 131.2 0 0 1-.583 3.474c-.631 3.486-1.567 9.287-2 12.405-.221 1.583-.44 3.067-.488 3.299-.095.469-2.253 1.703-3.575 2.044-2.44.63-5.54 1.397-6.84 1.695-.82.187-2.204.545-3.078.796-.872.25-2.303.653-3.177.894-.873.24-2.08.6-2.68.798-4.958 1.636-9.387 2.754-11.499 2.904l-1.506.107-1.24-1.555a115.957 115.957 0 0 0-1.835-2.249 34.398 34.398 0 0 1-.746-.893c-.34-.447-1.94-2.389-2.044-2.481-.062-.055-.643-.77-1.292-1.588-.649-.819-1.761-2.17-2.472-3.004a223.44 223.44 0 0 1-2.384-2.851 125.21 125.21 0 0 0-1.29-1.56 156.33 156.33 0 0 1-2.085-2.511 148.06 148.06 0 0 0-2.087-2.459 163.149 163.149 0 0 1-3.37-4.089c-1.09-1.364-2.03-2.526-2.092-2.58-.062-.055-.777-.904-1.589-1.886-2.405-2.912-5.052-5.784-5.599-6.077-.285-.152-1.065.171-3.683 1.526-1.827.946-3.411 1.786-3.52 1.868-.11.081-.87.504-1.688.94-.818.435-2.338 1.267-3.376 1.849a131.514 131.514 0 0 1-2.68 1.468c-.437.226-.839.456-.893.51-.108.107-.194.156-2.284 1.29-.764.414-1.48.817-1.588.896-.11.079-.6.368-1.092.643-2.367 1.324-6.002 3.51-6.625 3.985l-.697.53.376 1.34c.206.737.611 2.01.9 2.828.288.819.597 1.757.687 2.084.152.558 1.72 5.09 3.159 9.13.35.983.906 2.59 1.236 3.573.33.982.68 1.965.78 2.183.1.219.546 1.425.993 2.68a671.908 671.908 0 0 0 1.5 4.168c.79 2.166 2.308 6.37 3.546 9.825.47 1.31 1.185 3.275 1.59 4.366.403 1.092.828 2.27.943 2.618l.208.633-8.353 8.398c-4.593 4.618-9.678 9.761-11.297 11.427-1.618 1.665-3.044 3.027-3.165 3.026-.12 0-3.115-1.083-6.651-2.404-3.537-1.322-6.655-2.477-6.928-2.566-.273-.09-.988-.351-1.588-.582-.6-.232-1.673-.634-2.383-.895-.71-.26-2.498-.931-3.971-1.49a309.478 309.478 0 0 0-4.666-1.724l-2.978-1.065c-7.89-2.838-13.827-4.788-15.425-5.066-.718-.124-.748-.103-1.703 1.197-1.118 1.521-4.722 7.342-6.088 9.83-.509.928-1.006 1.821-1.104 1.985-.254.427-1.987 3.596-2.985 5.458-.468.874-.919 1.678-1.002 1.787-.568.747-3.561 6.969-3.561 7.402 0 .445.356.825 2.035 2.174 1.12.9 2.314 1.882 2.654 2.183.34.3 1.541 1.306 2.666 2.234 1.126.927 2.143 1.776 2.26 1.885.117.11.883.735 1.702 1.39a60.912 60.912 0 0 1 2.284 1.913 44.23 44.23 0 0 0 1.489 1.289c.382.311.792.656.91.766.118.11.691.602 1.27 1.093 2.306 1.952 4.08 3.468 4.174 3.568.214.225 1.747 1.53 2.57 2.188.479.382.967.788 1.086.902.118.114 1.332 1.095 2.697 2.18 7.16 5.692 8.515 7.309 7.977 9.522a180.842 180.842 0 0 1-1.657 6.152c-.227.765-.765 2.73-1.196 4.367a1654.28 1654.28 0 0 1-1.473 5.558 660.445 660.445 0 0 0-1.38 5.26c-.38 1.473-.873 3.349-1.097 4.167-.346 1.263-.55 2.022-.877 3.284-.03.113-1.56.448-3.402.743-4.397.705-11.135 1.83-13.871 2.316-1.2.214-3.346.575-4.765.803-4.501.723-18.746 3.246-21.444 3.798-3.402.695-3.414.7-3.961 1.84-.843 1.761-.984 3.974-.982 15.6.002 10.47.108 12.658.715 14.73.43 1.467 1.018 1.71 6.71 2.75 1.8.329 3.99.731 4.864.894.874.163 2.616.468 3.872.678 1.256.21 4.115.7 6.354 1.09 2.239.391 6.706 1.151 9.928 1.69 3.22.538 6.884 1.162 8.14 1.387 1.256.225 3.574.613 5.15.863l2.867.455.446 2.071c.245 1.14.631 2.876.86 3.858.227.982.509 2.278.625 2.878.117.6.48 2.074.808 3.275.327 1.201.763 2.809.969 3.573.71 2.641 1.142 4.175 1.68 5.954.624 2.066.63 2.085 1.648 5.756 1.237 4.461 1.433 3.715-1.608 6.183-1.443 1.172-2.668 2.191-2.723 2.265-.054.073-.903.786-1.886 1.583-.983.798-1.832 1.504-1.886 1.57-.148.177-4.702 3.994-5.515 4.622a27.65 27.65 0 0 0-1.416 1.193c-.865.786-4.432 3.848-6.075 5.21a52.268 52.268 0 0 0-1.444 1.23c-.14.133-.675.581-1.19.995-.515.414-1.83 1.5-2.924 2.408-1.092.91-2.168 1.803-2.389 1.985L227.695 354a124 124 0 0 1-2.575 2.084c-1.503 1.16-1.59 1.257-1.59 1.785 0 .49 1.775 4.303 2.677 5.752a56.27 56.27 0 0 1 1.187 2.073c.414.758.963 1.74 1.22 2.183.257.443.715 1.296 1.018 1.897.302.6.606 1.136.674 1.19.068.055.495.815.947 1.688a56.67 56.67 0 0 0 1.183 2.183c.197.328.745 1.31 1.217 2.183a191.81 191.81 0 0 0 2.883 5.096c.11.186.501.856.871 1.491.845 1.448 1.481 2.048 2.167 2.044 1.408-.007 7.004-1.788 14.931-4.752a72.804 72.804 0 0 1 2.202-.792c.73-.23 7.745-2.79 8.222-3 .487-.214 9.828-3.643 11.616-4.262a297.27 297.27 0 0 0 4.765-1.753l3.475-1.306 3.177 3.133a9455.45 9455.45 0 0 1 11.47 11.358l8.293 8.225-.424 1.092c-.234.6-.82 2.208-1.304 3.572-.96 2.71-2.387 6.616-2.644 7.245-.09.218-.72 1.916-1.4 3.771-.68 1.856-1.438 3.91-1.684 4.565a775.29 775.29 0 0 0-2.98 8.039 379.877 379.877 0 0 1-1.58 4.267c-.706 1.836-2.61 7.538-3.173 9.5-.593 2.07-.65 3.607-.152 4.224.188.235.866.726 1.506 1.092.64.366 1.668.957 2.284 1.313.615.356 1.298.736 1.517.843.218.108.53.284.695.391.76.499 8.382 4.784 10.497 5.903.942.499 2.25 1.213 2.905 1.587 1.733.988 1.738.992 4.706 2.472 1.496.744 2.775 1.356 2.841 1.356.34 0 4.278-4.235 6.318-6.793.41-.516.858-1.052.993-1.191.135-.14.778-.923 1.43-1.742s1.229-1.533 1.286-1.588c.056-.054.5-.59.984-1.19a35.235 35.235 0 0 1 1.189-1.415c.169-.178.442-.49.608-.695.971-1.2 2.454-2.966 2.56-3.051.07-.055.57-.634 1.114-1.288a301.53 301.53 0 0 1 2.18-2.584c1.176-1.376 1.747-2.069 3.56-4.324.51-.632 1.05-1.302 1.203-1.488.153-.187 1.015-1.277 1.916-2.424 2.004-2.55 4.844-5.522 5.581-5.84.365-.159.989-.19 1.887-.094 1.528.164 5.788 1.191 7.358 1.775 3.511 1.304 11.004 3.303 17.53 4.673l4.487.942.75 4.483c.412 2.465.815 4.884.895 5.375.582 3.555 1.842 10.64 1.914 10.757.049.078.173 1.374.277 2.88.39 5.663 1.25 10.882 2.877 17.459 1.151 4.653 1.62 6.035 2.195 6.468.793.597 2.847.989 5.945 1.135 4.474.211 15.4.214 19.557.006 5.294-.266 6.724-.724 7.122-2.284.67-2.624 2.137-10.66 4.385-24.016a784.434 784.434 0 0 1 2.9-16.16c.73-3.867 1.76-6.097 3.045-6.593.262-.101 3.658-.986 7.545-1.968 6.964-1.757 8.629-2.193 15.508-4.056 1.91-.517 3.877-.953 4.369-.968 1.698-.052 3.397 1.234 6.126 4.637.832 1.037 1.626 2.005 1.766 2.15.14.147.498.593.796.993.298.4.592.772.654.827.061.054.953 1.126 1.98 2.382 1.029 1.255 1.918 2.327 1.976 2.381.059.055.597.68 1.197 1.388.6.708 1.325 1.557 1.611 1.885.286.329.912 1.056 1.39 1.615l1.763 2.057a104.31 104.31 0 0 1 1.39 1.649c.273.334.95 1.151 1.504 1.813a464.26 464.26 0 0 1 3.566 4.38c3.479 4.317 5.94 7.064 6.689 7.466.352.19 2.951-1.005 6.31-2.898.819-.462 2.111-1.175 2.872-1.584a305.52 305.52 0 0 0 3.83-2.112c1.345-.752 2.532-1.368 2.637-1.368.105 0 .193-.067.193-.149 0-.082.202-.244.446-.36.79-.376 3.21-1.725 3.722-2.075.273-.187 1.032-.625 1.687-.973a50.486 50.486 0 0 0 2.482-1.435 40.11 40.11 0 0 1 1.986-1.166 8.96 8.96 0 0 0 1.36-.925l.664-.563-.336-1.189c-.524-1.857-2.147-6.805-3.482-10.616-.67-1.91-1.293-3.697-1.386-3.97-.093-.273-.452-1.255-.797-2.183-.345-.928-.708-1.955-.805-2.283a8.192 8.192 0 0 0-.367-.992c-.261-.543-2.793-7.387-2.793-7.55 0-.072-.132-.412-.293-.756-.161-.344-.775-1.876-1.365-3.404a185.09 185.09 0 0 0-2.384-5.8c-1.323-3.047-2.113-5.171-2.113-5.677 0-.587 2.95-3.806 10.749-11.73a2291.14 2291.14 0 0 0 8.535-8.715c3.047-3.135 3.282-3.333 3.839-3.221.536.107 8.422 2.974 11.623 4.225.71.278 1.514.575 1.787.662.274.086.99.345 1.589.577.6.231 1.807.677 2.68.991.874.314 1.946.706 2.383.871.437.165 1.464.537 2.283.826.82.289 1.668.6 1.887.691.218.092.665.255.992.364.328.108 1.222.435 1.986.726 3.16 1.201 10.53 3.739 12.112 4.169 6.231 1.694 6.373 1.686 7.6-.441.406-.706.904-1.565 1.106-1.91.202-.343.56-.982.794-1.419.235-.436.477-.838.537-.893.06-.054.36-.59.667-1.19.307-.601.682-1.233.834-1.406.152-.17.276-.364.276-.426s.723-1.394 1.608-2.961a274.9 274.9 0 0 0 2.61-4.735 105.35 105.35 0 0 1 1.64-2.977c.352-.6 1.37-2.543 2.262-4.318 1.237-2.46 1.578-3.308 1.436-3.573-.215-.4-2.218-2.322-3.777-3.621-.59-.491-1.493-1.25-2.008-1.687a97.401 97.401 0 0 0-2.464-1.985c-.84-.654-1.815-1.428-2.162-1.718l-2.64-2.183c-1.622-1.338-6.014-5.086-9.712-8.285a230.529 230.529 0 0 0-2.382-1.997c-.982-.814-1.83-1.536-1.884-1.604-.055-.067-.904-.775-1.886-1.572-.983-.798-1.832-1.505-1.887-1.573-.054-.067-.635-.567-1.29-1.11-.655-.544-1.236-1.04-1.29-1.101-.055-.062-.64-.524-1.3-1.027-1.768-1.345-1.72-1.23-1.257-3.046.485-1.904 2.16-7.673 2.288-7.879.169-.273 1.488-4.992 2.483-8.884 1.019-3.98 1.818-7.883 2.066-10.086.167-1.483.22-1.528 2.768-2.388 2.465-.832 8.998-2.1 21.146-4.103 1.693-.278 4.239-.725 5.659-.991s3.699-.675 5.063-.907c1.365-.232 2.884-.498 3.375-.59.492-.091 2.19-.398 3.773-.681 3.53-.63 5.918-1.213 6.317-1.542.532-.438.986-1.79 1.25-3.72.183-1.347.257-4.896.257-12.406 0-14.455-.246-16.147-2.449-16.776-.618-.177-2.33-.507-9.843-1.898a270.3 270.3 0 0 0-3.872-.674c-1.254-.21-3.042-.521-3.97-.694-.929-.172-3.029-.536-4.667-.808s-4.229-.713-5.758-.981a1245.56 1245.56 0 0 0-14.693-2.46l-3.375-.54-.535-2.47c-.294-1.36-.64-3.052-.77-3.761-.128-.71-.3-1.38-.382-1.489-.464-.617-1.715-4.971-2.597-9.03-.557-2.566-1.313-5.603-1.68-6.75-.979-3.053-1.504-5.273-1.626-6.871-.123-1.607-.372-1.246 2.527-3.639a362.64 362.64 0 0 0 1.886-1.562c.218-.183 1.603-1.314 3.078-2.512 3.986-3.24 8.778-7.246 10.815-9.045.44-.388 1.65-1.416 2.686-2.282a596.26 596.26 0 0 0 2.383-2c1.413-1.202 9.035-7.492 10.32-8.517.816-.65 1.643-1.315 1.837-1.476.193-.16.352-.508.352-.772 0-.55-1.565-3.839-3.427-7.201a157.323 157.323 0 0 1-1.41-2.58c-.072-.148-.32-.582-.55-.964a50.99 50.99 0 0 1-.957-1.687 237.647 237.647 0 0 0-3.16-5.616c-.343-.578-.622-1.09-.622-1.138 0-.048-.37-.691-.822-1.43-3.616-5.915-4.943-7.027-7.57-6.348-2.323.6-4.018 1.107-5.805 1.735-.983.345-2.055.701-2.383.792-.84.233-6.411 2.133-7.247 2.471-.381.155-3.33 1.235-6.552 2.4-6.545 2.366-12.712 4.777-17.175 6.715l-2.978 1.293-11.607-11.593-11.606-11.593.317-.952c.352-1.06 1.886-5.35 2.077-5.814.17-.41 1.034-2.785 2.13-5.855.506-1.419 1.007-2.759 1.112-2.977.105-.218.457-1.156.782-2.084.325-.928 1.006-2.804 1.514-4.168a318.136 318.136 0 0 0 1.485-4.07c.308-.872 1.022-2.882 1.587-4.465 1.72-4.825 1.788-5.02 2.205-6.352.775-2.48.956-3.09 1.441-4.862 1.07-3.909.961-4.49-1.044-5.6-.723-.401-1.358-.778-1.413-.84-.055-.06-.68-.414-1.39-.785-.71-.371-1.432-.795-1.604-.943-.172-.147-.363-.268-.423-.268-.272 0-7.576-4.205-7.67-4.416-.036-.082-.157-.149-.268-.149-.111 0-1.958-1-4.103-2.22a861.131 861.131 0 0 0-4.397-2.493c-.273-.15-.944-.535-1.49-.856a32.917 32.917 0 0 0-1.666-.918c-.66-.326-.682-.323-1.055.136-.21.259-1.201 1.36-2.205 2.446a582.93 582.93 0 0 0-2.023 2.197 951.09 951.09 0 0 0-3.773 4.27c-.326.376-.73.826-.893 1-.699.737-5.11 5.87-5.615 6.532-.303.398-.667.813-.809.922-.14.109-.34.341-.44.517-.153.264-1.386 1.76-2.171 2.635-.11.122-.6.713-1.09 1.314-.491.6-1.43 1.718-2.085 2.484a608.398 608.398 0 0 0-7.999 9.562c-1.012 1.234-1.895 2.244-1.96 2.244-.282 0-6.578-1.635-7.59-1.971a48.57 48.57 0 0 0-2.407-.712c-.71-.188-2.15-.598-3.2-.913-1.666-.5-4.098-1.145-8.415-2.234-2.226-.562-7.938-1.891-8.836-2.056l-.893-.165-.24-1.482c-.509-3.15-1.048-6.403-1.71-10.315-.379-2.237-.733-4.337-.788-4.664-.055-.328-.418-2.427-.806-4.664-1.973-11.366-2.546-14.674-2.696-15.581-.952-5.776-1.88-9.958-2.311-10.435-.455-.502-1.697-.939-3.362-1.182-1.59-.233-10.718-.379-17.253-.336zm4.45 82.546c2.545.006 5.113.094 7.74.261 10.802.688 20.859 2.647 30.775 5.995 2.63.887 6.454 2.338 8.058 3.055.446.199 1.283.548 1.86.776 1.28.504 9.047 4.318 9.74 4.782.272.183 1.21.714 2.084 1.18.874.467 1.722.954 1.886 1.083.248.195 1.458.959 4.658 2.94.214.132.5.33.638.439.136.109.836.6 1.555 1.091 1.74 1.19 6.126 4.417 6.94 5.107.358.302 1.08.907 1.604 1.344 4.108 3.42 7.42 6.541 11.61 10.948 1.022 1.074 5.071 5.758 5.807 6.717l1.306 1.687c.635.819 1.415 1.89 1.734 2.382.318.491.629.938.69.992.535.482 4.695 6.978 6.23 9.726.858 1.539 3.99 7.803 4.66 9.32.937 2.126 2.834 6.864 3.218 8.038.216.66.476 1.379.579 1.597.184.392 2.12 6.414 2.68 8.336.808 2.775 1.216 4.453 2.392 9.825.803 3.666 1.751 10.905 2.067 15.776.257 3.972.26 11.405.006 15.187-.221 3.29-.738 8.104-.98 9.13-.09.382-.275 1.499-.41 2.481-.302 2.186-1.57 8.07-2.364 10.965-1.19 4.338-1.444 5.182-2.532 8.387-3.86 11.368-10.13 23.857-15.598 31.063-.082.109-1.012 1.36-2.065 2.779-1.55 2.09-3.48 4.504-4.045 5.06-.055.055-.806.904-1.669 1.886-2.207 2.516-9.01 9.245-11.138 11.017-.982.818-1.965 1.653-2.184 1.854-.22.202-.934.779-1.59 1.281-.654.503-1.236.969-1.29 1.035-.266.325-3.828 2.89-6.812 4.909-8.66 5.854-17.318 10.287-27.006 13.829-1.88.687-4.266 1.495-5.301 1.795-1.035.3-2.553.752-3.372 1.004s-1.936.557-2.482.678c-.546.12-1.708.39-2.58.601-4.198 1.012-9.05 1.746-15.19 2.3-3.878.349-15.22.519-19.856.297-8.198-.392-16-1.522-22.039-3.193-.382-.106-1.32-.361-2.085-.568-2.845-.772-4.286-1.223-6.703-2.098-1.364-.495-2.537-.9-2.606-.9-.07 0-.505-.165-.968-.367a62.934 62.934 0 0 0-2.033-.826c-3.084-1.19-9.268-4.134-12.807-6.099a333.59 333.59 0 0 0-2.184-1.197c-.71-.386-1.528-.867-1.818-1.068-.29-.202-.583-.367-.653-.367-.07 0-.235-.092-.367-.205-.131-.114-1.268-.847-2.523-1.63-1.256-.783-2.328-1.476-2.383-1.54-.054-.065-.992-.723-2.084-1.463a104.925 104.925 0 0 1-2.695-1.876c-2.207-1.65-3.201-2.424-4.169-3.245a465.415 465.415 0 0 0-2.956-2.475c-3.778-3.136-10.73-10.05-12.746-12.674-.251-.327-.564-.684-.695-.793-.13-.11-1.186-1.406-2.345-2.878a1768.782 1768.782 0 0 0-2.5-3.176c-1.525-1.927-6.032-8.936-7.785-12.108l-1.428-2.58c-3.422-6.18-6.589-14.084-9.539-23.818-.514-1.696-1.3-5.025-2.365-10.023-.405-1.897-1.213-7.467-1.642-11.313-.453-4.055-.516-19.17-.097-23.124 1.191-11.249 3.46-21.305 6.9-30.59.59-1.596 1.075-2.956 1.075-3.021 0-.066.216-.591.48-1.167.265-.576.947-2.12 1.517-3.43 3.143-7.227 8.134-15.782 12.968-22.23 1.374-1.832 4.45-5.661 4.782-5.954a4.31 4.31 0 0 0 .528-.638c1.045-1.518 8.05-8.687 11.207-11.471 2.973-2.62 3.113-2.741 4.353-3.729.657-.523 1.371-1.098 1.587-1.277.732-.606 4.44-3.325 5.757-4.222.722-.49 1.436-1.004 1.588-1.14.152-.137.313-.249.358-.249.045 0 .942-.558 1.993-1.24 2.006-1.302 2.373-1.529 5.101-3.138 4.58-2.701 13.687-6.865 19.26-8.805l2.68-.934c3.162-1.098 11.34-3.253 14.694-3.87 8.257-1.523 15.699-2.243 23.334-2.226zM329.07 200.23c-.036.036.185.798.491 1.691 1.387 4.047 1.697 6.326 1.393 10.227-.164 2.101-.853 6.05-1.408 8.07-1.07 3.903-2.226 7.753-2.348 7.837-.083.057-.208.26-.279.45-.203.551-.999.41-1.949-.345-1.054-.838-1.466-.87-1.841-.146-.366.707-.846 3.49-1.102 6.396-.579 6.561-.664 7.888-.684 10.718-.025 3.523.196 4.648 1.18 6.002 1.465 2.018 3.419 2.988 6.64 3.293 4.16.394 10.632.202 11.166-.332.31-.31.017-.86-1.131-2.117-.598-.654-1.09-1.3-1.094-1.437-.004-.137-.086-.248-.182-.248s-.287-.272-.425-.605c-.52-1.255.2-1.776 2.46-1.778 1.702-.001 3.614-.61 3.805-1.211.205-.645-.071-1.062-1.049-1.58-.519-.275-1.05-.72-1.18-.99-.705-1.46-.829-5.369-.356-11.237.401-4.99.409-5.028 1.072-5.028.686 0 2.26.784 4.385 2.186 2.75 1.815 5.359 2.792 7.486 2.806 2.449.015 3.13-.761 4.196-4.793.811-3.062 1.558-7.856 1.914-12.281.209-2.593.338-3.351.636-3.75.553-.74 1.07-.86 1.982-.451.836.375 2.252 1.516 2.252 1.817 0 .098.268.46.595.803.328.342.716.855.862 1.14.146.283.49.917.765 1.408.275.492 1.195 2.233 2.043 3.87 1.635 3.152 2.622 4.802 3.12 5.212.25.206.391.16.817-.266.758-.757 1.606-2.62 2.476-5.441.455-1.473.523-2.043.53-4.485.006-1.583-.083-3.005-.203-3.275-1.337-2.997-2.114-3.993-4.214-5.408-1.18-.796-3.747-2.116-4.113-2.116-.075 0-.418-.126-.762-.281-.767-.346-4.813-1.375-7.007-1.783-4.23-.787-11.4-1.486-20.622-2.012-3.057-.174-6.615-.38-7.905-.456-1.29-.077-2.375-.11-2.412-.074zm106.488.602c-1.918 0-3.809.075-4.936.226-4.072.546-9.04 2.134-12.906 4.127l-3.97 2.048-2.086 1.077 6.453.125c8.054.156 11.903.616 15.786 1.886 3.473 1.137 5.787 2.45 7.548 4.286 2.31 2.406 2.78 3.998 2.768 9.383-.007 3.84-.37 6.466-1.162 8.435-1.015 2.527-1.385 3.31-1.946 4.134-.348.51-.706.958-.794.994-.088.037-.16.185-.16.33 0 .146-.067.295-.149.331-.158.07-.824.862-1.638 1.948-.273.365-.586.76-.695.881-.11.12-.735.843-1.39 1.605-4.088 4.757-12.246 13.056-16.683 16.969-2.364 2.084-3.604 2.996-5.058 3.72-1.035.515-1.553.553-2.44.178-.765-.324-3.198-2.725-5.256-5.188l-2.16-2.58a87.309 87.309 0 0 1-1.67-2.084c-.55-.71-1.387-1.781-1.86-2.382-1.102-1.404-4.385-5.966-4.98-6.925a2.864 2.864 0 0 0-.305-.419c-.059-.054-.425-.59-.814-1.19-2.878-4.44-3.548-5.8-3.548-7.194 0-1.116.645-4.119 1.48-6.889 1.072-3.555.375-7.478-1.686-9.498-.903-.885-1.991-1.227-2.533-.795-.179.143-.498.394-.708.558-1.216.947-6.96 6-9.143 8.038-5.202 4.864-10.02 9.496-21.19 20.373a3195.94 3195.94 0 0 1-13.338 12.878l-2.78 2.647c-.785.75-2.434 2.26-3.661 3.355-1.229 1.095-2.234 2.06-2.234 2.143 0 .165 3.904 4.02 4.864 4.805 1.557 1.27 2.59 1.404 4.766.62 2.798-1.009 4.15-1.303 6.474-1.412 2.874-.134 4.599.211 7.063 1.417 1.475.721 4.692 2.819 5.027 3.277.055.075.286.265.515.422.47.324 1.073.82 5.416 4.453 5.415 4.53 9.842 8.874 10.677 10.481.353.677.252 1.019-.578 1.955a43.23 43.23 0 0 0-1.02 1.19c-1.357 1.674-4.432 4.942-11.155 11.854-3.444 3.54-3.618 3.714-18.74 18.768l-10.352 10.306 5.261 5.274c2.894 2.902 6.956 6.995 9.025 9.097 2.07 2.1 3.839 3.82 3.932 3.82.093 0 10.267-10.095 22.606-22.428 12.338-12.334 22.53-22.429 22.647-22.429.116 0 .386.157.6.348.213.19 1.101.925 1.973 1.631.871.706 1.63 1.336 1.684 1.4.055.063.77.646 1.588 1.296a86.01 86.01 0 0 1 1.711 1.38c.354.315 2.435 2.069 4.924 4.146.537.448 1.075.904 1.196 1.014.121.109.71.6 1.307 1.09a179.011 179.011 0 0 1 3.748 3.15c.94.803 2.111 1.8 2.602 2.213.491.414 1.613 1.364 2.494 2.112.879.747 2.08 1.76 2.667 2.252.912.763 6.015 5.107 7.546 6.423.273.235 1.244 1.052 2.157 1.815 2.038 1.704 4.883 4.118 5.69 4.831.33.29 1.402 1.197 2.382 2.012.98.814 1.882 1.573 2.001 1.685.12.112.742.652 1.383 1.196.64.546 1.575 1.35 2.077 1.787a254.78 254.78 0 0 0 2.086 1.786c.644.546 1.31 1.127 1.48 1.29.17.164 1.005.856 1.855 1.539.893.716 1.741 1.24 2.005 1.24 1.29 0 5.175-2.597 7.878-5.267 1.692-1.67 2.278-2.383 4.944-6.009l1.797-2.444-.449-.632a23.7 23.7 0 0 0-.69-.931 879.084 879.084 0 0 1-2.596-3.275c-2.484-3.14-3.74-4.716-7.983-10.023-1.44-1.8-3.01-3.767-3.49-4.367-2.074-2.601-3.104-3.89-3.33-4.168a46.672 46.672 0 0 1-.833-1.092c-.324-.436-.639-.838-.697-.893-.059-.054-.819-1.023-1.69-2.152-.869-1.13-1.827-2.335-2.126-2.68-.3-.344-.596-.782-.659-.973-.063-.192-.187-.348-.276-.348-.088 0-.68-.692-1.316-1.538-.635-.846-1.249-1.642-1.364-1.77a15.6 15.6 0 0 1-.633-.793 240.214 240.214 0 0 0-3.152-3.994 319.091 319.091 0 0 1-2.378-3.02c-2.8-3.586-3.54-4.527-3.777-4.817a60.55 60.55 0 0 1-1.686-2.126 303.38 303.38 0 0 0-2.951-3.741c-1.35-1.693-2.773-3.532-3.162-4.085-.885-1.257-2.028-3.705-2.028-4.342 0-.52.565-1.364 2.551-3.813 1.21-1.492 3.97-4.647 4.882-5.581a932.57 932.57 0 0 0 3.488-3.663c6.387-6.73 14.524-14.682 18.062-17.65a74.205 74.205 0 0 0 1.28-1.092c.851-.785 2.858-2.1 4.373-2.864 1.78-.898 1.82-.908 3.79-.908 1.538 0 2.192.088 2.879.388 1.028.448 2.696 1.48 3.27 2.023.22.206.666.581.994.834.496.384 2.158 1.892 5.08 4.613.283.263.842.91 1.241 1.437.603.794.727 1.12.727 1.91 0 .524-.128 1.313-.284 1.755-.382 1.084-2.277 5.064-2.473 5.195-.086.058-.257.4-.38.758-.279.816-.076 1.393.836 2.38.375.406.845.919 1.045 1.138 1.035 1.14 3.987 3.38 5.415 4.11 1.713.877 2.162.735 5.074-1.613 2.043-1.647 2.742-2.292 6.256-5.774 4.99-4.946 7.805-8.112 9.645-10.851.761-1.133.893-1.465.803-2.022-.325-2.022-3.068-5.314-5.702-6.843-1.532-.89-2.306-.77-7.428 1.165-1.043.394-1.644.504-2.408.443-5.389-.433-12.406-10.96-11.677-17.52.153-1.372.484-2.127 1.325-3.012.545-.575.579-.685.378-1.26-.726-2.081-5.663-7.36-11.043-11.805a28.713 28.713 0 0 0-1.376-1.08 4.49 4.49 0 0 1-.515-.397c-.296-.33-1.792-1.4-1.957-1.4-.107 0-.224-.068-.26-.15-.085-.191-2.402-1.723-4.428-2.925-1.665-.99-6.806-3.518-7.65-3.764-.274-.08-1.167-.403-1.986-.72-2.006-.773-7.383-2.07-9.829-2.371-1.23-.152-3.175-.228-5.091-.228z"/></svg>