<svg xmlns="http://www.w3.org/2000/svg" width="3072" height="2048" viewBox="0 0 812.8 541.867"><path fill="#d0d0d0" d="M0 0h812.8v541.867H0Z" paint-order="stroke fill markers"/><path fill="#b02020" d="M406.4 50.801c-121.375 0-220.132 98.757-220.132 220.133 0 121.375 98.757 220.133 220.133 220.133 121.375 0 220.132-98.758 220.132-220.133 0-121.376-98.757-220.133-220.132-220.133zm0 16.932a101.6 101.6 0 0 0-101.6 101.6 101.6 101.6 0 0 0 101.6 101.6 101.6 101.6 0 0 1 101.6 101.6 101.6 101.6 0 0 1-101.6 101.6 203.2 203.2 0 0 1-203.2-203.2 203.2 203.2 0 0 1 203.2-203.2z" color="#000" paint-order="stroke fill markers" style="-inkscape-stroke:none"/></svg>