<svg xmlns="http://www.w3.org/2000/svg" xml:space="preserve" width="3072" height="2048" viewBox="0 0 812.8 541.867"><path fill="#8000a0" d="M0 0v541.867h812.8V0Z"/><path fill="#ffe000" d="M0 0v99.472l250.529 105.699a169.334 169.334 0 0 1 20.865-36.435L48.487 0H0zm201.309 0 102.894 135.928a169.334 169.334 0 0 1 36.435-20.866L292.093 0h-90.784zm171.224 0 12.884 103.07a169.334 169.334 0 0 1 20.983-1.47c7.018.055 14.026.545 20.983 1.47L440.267 0h-67.734zm148.174 0-48.545 115.062a169.334 169.334 0 0 1 36.435 20.866L611.49 0h-90.784zm243.606 0L541.406 168.736a169.335 169.335 0 0 1 20.865 36.435L812.8 99.472V0h-48.487zM406.4 135.467c-74.816 0-135.467 60.65-135.467 135.466H304.8c0-56.112 45.488-101.6 101.6-101.6 56.112 0 101.6 45.488 101.6 101.6h33.867c0-74.816-60.651-135.466-135.467-135.466zm0 67.733c-37.408 0-67.733 30.325-67.733 67.733V304.8h-203.2l203.2 67.733L381 541.867h50.8l42.333-169.334 203.2-67.733h-203.2v-33.867c0-37.408-30.325-67.733-67.733-67.733zM0 220.133v50.8h237.067a169.06 169.06 0 0 1 1.47-20.982L0 220.133zm812.8 0-238.536 29.818a169.34 169.34 0 0 1 1.47 20.982H812.8v-50.8z"/></svg>