<svg xmlns="http://www.w3.org/2000/svg" xml:space="preserve" id="svg1" width="4608" height="3072" version="1.1" viewBox="0 0 1219.2 812.8"><defs id="defs1"><style id="style1">.cls-1{fill:#0283c0}.cls-2{fill:#fff}.cls-3{fill:#ef483f}</style></defs><path id="rect1" d="M 0 0 L 0 812.8 L 1219.2 812.8 L 1219.2 0 L 0 0 z" style="fill:#d00000;fill-rule:evenodd;stroke:none;stroke-width:8.46667;stroke-linecap:round;stroke-linejoin:round;fill-opacity:1"/><path id="path1" d="M -6.4086945e-5,541.86663 V 812.79996 H 1219.1999 V 541.86663 Z" style="fill:#ffd000;fill-opacity:1;fill-rule:evenodd;stroke:none;stroke-width:8.46667;stroke-linecap:round;stroke-linejoin:round"/><path id="path1-1" d="m 237.34005,67.736664 c -21.73479,5.594945 -43.3629,14.17486 -63.39603,25.676413 -44.67624,25.651413 -81.160894,63.236033 -94.74242,102.168983 -13.849864,39.69962 -16.309839,78.46257 -0.966662,110.00725 8.846588,18.18983 22.669782,33.28802 40.061282,44.12457 l -21.274792,35.05132 37.509622,21.63313 22.60313,-41.12294 c 5.52401,1.19537 11.11696,2.04645 16.7465,2.54831 26.9364,2.40665 56.04445,-4.37995 84.7025,-15.87651 l 31.46637,54.4528 37.50963,-21.63479 -29.69304,-51.38282 -15.39651,-26.6414 -5.45995,-9.44825 c -12.22489,4.5083 -24.46478,8.22492 -36.69299,10.9899 l 14.71152,-25.45975 0.77999,-1.34833 h 14.8682 l 20.3198,-35.15631 h -14.87151 l 13.42486,-23.22811 8.73159,-15.10652 h -40.63629 l -22.15477,38.33295 h -12.97321 l 41.68126,-75.83258 52.13782,30.06971 27.7464,-48.0112 -83.74752,-48.30452 c -26.52974,16.97983 -46.70454,8.38826 -72.11929,-2.86664 l -10.96156,18.96148 17.3815,10.02657 -82.17754,142.1936 c -8.97325,-26.10308 -1.62999,-65.41603 15.22985,-99.70903 18.25315,-37.1313 52.5545,-77.037563 102.72734,-101.877318 2.29164,-1.133322 4.61829,-2.141646 6.92326,-3.233301 z m -12.22654,80.200876 11.58488,6.68326 -55.65278,91.69744 H 168.25906 Z M 116.46123,281.47289 h 43.24959 l -14.58653,24.0331 c -12.53321,-5.32162 -22.41645,-13.24154 -28.62972,-23.96977 z m 86.7325,0 h 11.97821 l -18.69315,32.34635 c -3.7433,0.075 -7.41492,0.0434 -11.00322,-0.10838 z" style="fill:#ffd000;fill-opacity:1;stroke-width:.999999"/></svg>