<svg xmlns="http://www.w3.org/2000/svg" xml:space="preserve" id="svg1" width="4608" height="3072" version="1.1" viewBox="0 0 1219.2 812.8"><defs id="defs1"><style id="style1">.cls-1{fill:#0283c0}.cls-2{fill:#fff}.cls-3{fill:#ef483f}</style></defs><path id="rect1" d="M 0 0 L 0 812.8 L 1219.2 812.8 L 1219.2 0 L 0 0 z" style="fill:#d00000;fill-rule:evenodd;stroke:none;stroke-width:8.46667;stroke-linecap:round;stroke-linejoin:round;fill-opacity:1"/><path id="path1" d="M -6.4086945e-5,541.86663 V 812.79996 H 1219.1999 V 541.86663 Z" style="display:inline;fill:#ffd000;fill-opacity:1;fill-rule:evenodd;stroke:none;stroke-width:8.46667;stroke-linecap:round;stroke-linejoin:round"/><path id="path12" d="M 237.31988,67.742118 C 215.59204,73.337113 193.97069,81.914992 173.9439,93.412903 129.26801,119.06411 92.782802,156.64919 79.201367,195.58186 65.351601,235.2812 62.891946,274.04464 78.235018,305.5891 c 8.846525,18.18969 22.669762,33.28854 40.061122,44.12495 l -21.274672,35.05109 37.509342,21.63331 22.60327,-41.12307 c 5.52394,1.19538 11.11731,2.0463 16.74678,2.54816 26.93619,2.40665 56.04448,-4.38006 84.70232,-15.87655 l 31.4663,54.45301 37.50985,-21.63486 -50.54988,-87.47218 c -12.22482,4.5083 -24.46471,8.2246 -36.69285,10.98951 l 15.49156,-26.80818 h 14.86834 l 20.31969,-35.15651 h -14.87144 l 22.15627,-38.33461 h -40.63628 l -22.15472,38.33306 -12.97182,5.2e-4 41.68014,-75.83258 52.13739,30.06948 27.74663,-48.01102 -83.74735,-48.30455 c -26.52953,16.97969 -46.70502,8.38782 -72.11963,-2.86701 l -10.9616,18.96164 17.38188,10.02677 -82.17792,142.19339 C 103.48449,246.45 110.82811,207.1365 127.68781,172.84371 145.94089,135.71269 180.24239,95.806308 230.41488,70.966728 Z m -76.82012,44.199372 c -17.49641,18.21638 -30.98287,37.99123 -40.40993,57.16808 -17.56003,35.71799 -25.923193,76.27815 -15.63884,106.19507 l 0.12506,0.36329 4.27725,9.5312 -0.82579,-1.54874 v 0.16019 l 1.1405,1.96888 c 7.0609,12.19177 18.19983,21.11637 31.53968,27.00455 l -18.01647,29.68811 C 106.62681,332.4419 93.970613,318.58456 85.84954,301.88648 71.855488,273.11553 73.807364,236.74608 87.195194,198.37084 98.014445,167.35628 125.50338,135.9544 160.49976,111.94149 Z m 31.32626,0.10128 c 10.20209,4.41282 20.22905,8.41656 30.98829,9.75238 11.8599,1.47248 24.51731,-0.58904 37.54913,-7.76593 l 72.14805,41.61348 -19.27325,33.35145 -52.29706,-30.16198 -48.08441,87.48458 -21.90563,0.001 57.47659,-94.7043 -59.60153,-34.38084 z m 33.28685,35.89549 11.58534,6.68279 -55.6519,91.69673 -12.78733,5.2e-4 z M 116.41305,281.36629 c 0.0398,0.0838 0.0404,0.0824 0.0816,0.1695 l 43.19426,-0.0274 -14.56448,23.9975 C 132.59134,300.18433 122.7079,292.26446 116.4947,281.5363 v -5.1e-4 l -0.0336,-0.0631 z m 98.75883,0.10645 -18.69292,32.34635 c -3.74323,0.075 -7.41516,0.0438 -11.00346,-0.10801 l 17.7152,-32.23059 z m -21.64571,0.014 -62.25098,113.25924 -22.52317,-12.98835 60.8459,-100.2559 z m 79.61271,26.02839 42.84958,74.15051 -22.83995,13.17388 -30.90612,-53.48253 -6.81095,2.73213 c -27.88777,11.18757 -55.80424,17.53386 -80.79662,15.30088 h -0.002 c -4.4343,-0.39483 -8.83579,-1.07447 -13.20384,-1.92908 l 19.49493,-35.46812 4.19354,0.17725 c 3.78305,0.16005 7.62996,0.19134 11.53108,0.11317 l 0.14263,-0.002 0.14056,-0.008 c 13.75127,-0.73776 30.73706,-2.55934 45.19311,-5.71903 l 0.0294,-0.008 0.0295,-0.006 c 10.35389,-2.34115 20.66983,-5.47838 30.95521,-9.02529 z" style="color:#000;display:inline;fill:#ffd000;fill-opacity:1;-inkscape-stroke:none"/></svg>