<svg xmlns="http://www.w3.org/2000/svg" xml:space="preserve" width="4608" height="3072" viewBox="0 0 1219.2 812.8"><path d="M 0,0 V 812.8 H 1219.2 V 0 Z" style="fill:#ffd000;fill-opacity:1;fill-rule:evenodd;stroke:none;stroke-width:8.46667;stroke-linecap:round;stroke-linejoin:round"/><path d="M 609.75208 101.70139 C 595.18298 116.41834 576.22671 118.69261 558.09942 118.30813 C 566.00641 184.93962 564.57539 199.33647 609.27408 220.23472 L 609.27511 220.23421 C 609.44025 220.16961 609.58814 220.10207 609.75208 220.03732 C 609.916 220.10212 610.06442 220.16965 610.22957 220.23421 L 610.23009 220.23472 C 654.92856 199.33646 653.49775 184.93962 661.40474 118.30813 C 643.27745 118.69261 624.32119 116.41834 609.75208 101.70139 z M 476.34782 132.76668 C 463.49363 139.0173 451.09484 146.16446 439.24363 154.15503 L 461.54356 221.85529 C 448.08948 232.65406 435.85412 244.88943 425.05535 258.34351 L 357.35509 236.04358 C 349.3645 247.89477 342.21735 260.29356 335.96673 273.14777 L 389.195 320.68647 C 382.79736 336.74621 378.17543 353.45788 375.41186 370.52271 L 306.33701 384.91304 C 305.5717 392.05501 305.0591 399.22194 304.80015 406.4001 C 305.0591 413.57828 305.5717 420.74521 306.33701 427.88716 L 375.41186 442.2775 C 378.17543 459.34231 382.79736 476.05401 389.195 492.11373 L 335.96673 539.65243 C 342.21735 552.50664 349.3645 564.90542 357.35509 576.75663 L 425.05535 554.4567 C 435.85412 567.91078 448.08948 580.14614 461.54356 590.94491 L 439.24363 658.64465 C 451.09482 666.63541 463.49362 673.78274 476.34782 680.03353 L 523.88652 626.80525 C 539.94626 633.20291 556.65793 637.82484 573.72276 640.58839 L 588.11309 709.66325 C 595.25506 710.42856 602.42199 710.94115 609.60015 711.2001 C 616.77833 710.94115 623.94526 710.42856 631.08721 709.66325 L 645.47755 640.58839 C 662.54236 637.82484 679.25405 633.20291 695.31379 626.80525 L 742.85249 680.03353 C 755.70669 673.78274 768.10549 666.63541 779.95668 658.64465 L 757.65675 590.94491 C 771.11083 580.14614 783.34619 567.91078 794.14496 554.4567 L 861.84522 576.75663 C 869.83579 564.90542 876.98296 552.50664 883.23358 539.65243 L 830.00531 492.11373 C 836.40295 476.05401 841.02489 459.34231 843.78844 442.2775 L 912.8633 427.88716 C 913.62861 420.74521 914.1412 413.57828 914.40015 406.4001 C 914.1412 399.22194 913.62861 392.05501 912.8633 384.91304 L 843.91608 370.54906 C 841.27062 353.36247 836.74215 336.51876 830.41252 320.32267 L 883.23358 273.14777 C 876.98296 260.29356 869.83579 247.89477 861.84522 236.04358 L 794.56974 258.20398 C 783.69764 244.63473 771.36551 232.30261 757.79628 221.43051 L 779.95668 154.15503 C 768.10547 146.16446 755.70668 139.0173 742.85249 132.76668 L 690.82672 239.60202 C 754.58264 270.51148 795.60205 335.06099 795.86682 406.4001 C 795.86681 509.27174 712.47179 592.66676 609.60015 592.66677 C 506.72853 592.66676 423.3335 509.27174 423.33349 406.4001 C 423.59826 335.06099 464.61767 270.51148 528.37359 239.60202 L 476.34782 132.76668 z M 584.67713 254.10966 C 580.26094 253.89487 575.87611 257.76232 574.7475 264.00983 C 569.26829 260.08263 561.68061 268.08405 557.41006 260.50462 C 553.2287 265.78463 545.24024 263.09915 542.98975 269.75883 C 535.86693 268.5078 523.94311 282.73537 535.95555 283.51561 C 547.20419 292.86972 527.31745 288.28172 522.73931 290.22528 C 516.38747 284.59634 508.97192 292.6545 510.57881 301.00033 C 506.99651 291.09346 494.29561 297.25549 500.65693 306.35608 C 499.10856 312.13238 504.67199 316.15301 510.49716 317.70112 C 517.08398 326.84435 506.66305 324.28586 504.26653 317.97191 C 496.50138 304.74633 480.7839 315.17989 483.80215 325.98072 C 470.27483 331.10827 496.29822 338.63763 482.7712 340.05893 C 481.18478 346.50635 478.18238 352.19601 472.43798 357.58086 C 461.00516 358.85701 455.44018 371.81164 462.15592 380.39187 C 467.93179 390.69251 454.96706 400.23292 458.99436 409.53221 C 453.28759 419.38536 463.69732 423.68055 471.1776 418.54872 C 465.15277 426.99807 467.87717 438.31599 480.62301 431.48849 C 490.34521 425.92126 480.26086 437.35468 487.68305 435.57403 C 481.08501 441.41899 488.16856 447.38555 495.73785 442.41548 C 506.56724 448.44375 520.14781 423.77679 523.07107 439.83062 C 528.57087 455.61992 532.31298 425.8659 533.67662 440.6807 C 537.37026 439.99088 546.28508 443.86216 545.02218 435.4743 C 551.06112 433.56836 565.67291 436.37496 560.66929 424.09411 C 565.45521 415.81306 585.37844 428.44959 588.42005 437.21941 C 599.52633 459.17646 596.86551 506.33463 589.89283 529.0567 C 590.5566 535.00136 574.08488 539.31432 572.8179 541.96806 L 508.87194 541.96806 C 537.98569 563.80405 573.35982 575.67957 609.75208 575.83472 C 646.37978 575.82772 682.01789 563.94467 711.32004 541.96806 L 646.68626 541.96806 C 645.41927 539.31432 628.94758 535.00136 629.61134 529.0567 C 622.63864 506.33463 619.97786 459.17646 631.08411 437.21941 C 634.12572 428.44959 654.04897 415.81306 658.83488 424.09411 C 653.83126 436.37496 668.44306 433.56836 674.48198 435.4743 C 673.21909 443.86216 682.13391 439.99088 685.82754 440.6807 C 687.19117 425.8659 690.9333 455.61992 696.4331 439.83062 C 699.35634 423.77679 712.93694 448.44375 723.76631 442.41548 C 731.33559 447.38555 738.41913 441.41899 731.82112 435.57403 C 739.24329 437.35468 729.15895 425.92126 738.88115 431.48849 C 751.62701 438.31599 754.35137 426.99807 748.32657 418.54872 C 755.80682 423.68055 766.21657 419.38536 760.50981 409.53221 C 764.53709 400.23292 751.57238 390.69251 757.34824 380.39187 C 764.06398 371.81164 758.49904 358.85701 747.06618 357.58086 C 741.32181 352.19601 738.31938 346.50635 736.73296 340.05893 C 723.20596 338.63763 749.22932 331.10827 735.70202 325.98072 C 738.72025 315.17989 723.00279 304.74633 715.23763 317.97191 C 712.84113 324.28586 702.42067 326.84435 709.00752 317.70112 C 714.83268 316.15301 720.39561 312.13238 718.84723 306.35608 C 725.20858 297.25549 712.50763 291.09346 708.92536 301.00033 C 710.53224 292.6545 703.1167 284.59634 696.76486 290.22528 C 692.1867 288.28172 672.29997 292.86972 683.54861 283.51561 C 695.56107 282.73537 683.6372 268.5078 676.51442 269.75883 C 674.26394 263.09915 666.27544 265.78463 662.09411 260.50462 C 657.82352 268.08405 650.2359 260.08263 644.75666 264.00983 C 643.62808 257.76232 639.24324 253.89487 634.82704 254.10966 C 632.17733 254.23854 629.51644 255.83712 627.54066 259.27213 C 622.28269 264.30793 615.94134 261.04458 609.75208 258.97396 C 603.56284 261.04458 597.22148 264.30793 591.9635 259.27213 C 589.98771 255.83712 587.32686 254.23854 584.67713 254.10966 z M 588.69135 405.44047 C 589.29843 405.29468 590.30724 405.90251 591.82139 407.56747 C 602.7197 407.3269 598.87011 417.21242 597.71561 425.91622 C 593.85112 428.98975 585.41309 406.22777 588.69135 405.44047 z M 630.81281 405.44047 C 634.09109 406.22777 625.65304 428.98975 621.78856 425.91622 C 620.63405 417.21242 616.78445 407.3269 627.68277 407.56747 C 629.19695 405.90251 630.20572 405.29468 630.81281 405.44047 z M 571.00303 407.37162 C 574.92324 407.41082 579.35048 410.90192 579.36634 416.39432 C 586.95574 427.04 557.38024 413.82503 565.09021 414.22753 C 565.21132 409.39894 567.95398 407.34114 571.00303 407.37162 z M 648.50114 407.37162 C 651.5502 407.34112 654.29286 409.39894 654.41396 414.22753 C 662.12394 413.82503 632.54842 427.04 640.13783 416.39432 C 640.15373 410.90192 644.58091 407.41077 648.50114 407.37162 z" style="display:inline;fill:#000;fill-opacity:1;stroke:none;stroke-width:33.8667;stroke-linejoin:bevel;stroke-miterlimit:128;stroke-dasharray:none;stroke-opacity:1;paint-order:stroke fill markers" transform="translate(-0.15208307,-0.10138871)"/></svg>