<svg xmlns="http://www.w3.org/2000/svg" xml:space="preserve" id="svg2" width="3072" height="2048" version="1.1" viewBox="0 0 812.8 541.867"><path id="rect2" d="M 0 0 L 0 541.86683 L 812.80025 541.86683 L 812.80025 0 L 0 0 z" style="fill:#ffe000;fill-rule:evenodd;stroke-width:0;stroke-linecap:round;stroke-linejoin:round;fill-opacity:1"/><path id="path1" d="M 267.4375 67.733354 C 259.03543 70.76616 259.12585 84.892632 252.11234 91.258024 C 240.88419 108.41419 232.24779 126.5212 231.665 147.64995 C 228.91252 171.10541 223.47463 141.46123 222.33637 133.33299 C 221.52851 110.61845 201.08043 129.05327 204.42634 142.4885 C 202.05658 163.67594 219.28638 179.32992 224.80702 198.31405 C 230.74069 217.43242 215.14431 197.84903 216.23338 188.74306 C 203.16923 169.25402 199.70145 205.48642 206.851 213.45474 C 219.82726 232.80638 241.03418 246.88034 247.75808 270.11331 C 242.11467 270.08381 230.19043 252.96801 220.00731 250.05872 C 211.86163 263.64058 229.11915 286.08924 242.61059 294.37799 C 264.44952 303.28783 286.38599 313.05179 299.45623 333.52496 C 291.10857 333.84357 274.20669 324.75726 265.73787 316.69188 C 244.45922 301.81206 259.47342 334.99274 267.89484 340.51627 C 286.65421 361.60647 318.01512 354.02013 341.85004 363.96963 C 366.26928 377.27073 332.4963 370.95499 323.94828 366.108 C 305.67251 371.13155 333.64201 398.14488 346.03015 398.92668 C 361.1583 396.8895 374.88099 408.61579 387.38681 404.17855 C 382.49984 410.31954 374.28028 413.26004 374.09873 421.64571 C 366.56698 436.90266 348.92854 453.49268 355.9143 474.06682 C 367.46161 475.67822 370.23174 447.7196 380.68747 439.70094 C 385.86813 432.96179 397.68253 425.74722 401.30793 420.74344 C 403.00217 417.5341 404.70039 416.8184 406.40012 417.29094 C 408.09988 416.8184 409.79809 417.5341 411.49232 420.74344 C 415.11774 425.74722 426.93212 432.96179 432.11278 439.70094 C 442.56851 447.7196 445.33864 475.67822 456.88595 474.06682 C 463.87171 453.49268 446.23327 436.90266 438.70152 421.64571 C 438.51997 413.26004 430.3004 410.31954 425.41344 404.17855 C 437.91927 408.61579 451.64195 396.8895 466.7701 398.92668 C 479.15822 398.14488 507.12775 371.13155 488.85197 366.108 C 480.30396 370.95499 446.53097 377.27073 470.95021 363.96963 C 494.78513 354.02013 526.14604 361.60647 544.90541 340.51627 C 553.32683 334.99274 568.34102 301.81206 547.06238 316.69188 C 538.59357 324.75726 521.69168 333.84357 513.34402 333.52496 C 526.41425 313.05179 548.35075 303.28783 570.18966 294.37799 C 583.68112 286.08924 600.93863 263.64058 592.79294 250.05872 C 582.60982 252.96801 570.68559 270.08381 565.04217 270.11331 C 571.76607 246.88034 592.97298 232.80638 605.94925 213.45474 C 613.09879 205.48642 609.63102 169.25402 596.56687 188.74306 C 597.65594 197.84903 582.05956 217.43242 587.99323 198.31405 C 593.51386 179.32992 610.74367 163.67594 608.37391 142.4885 C 611.71982 129.05327 591.27174 110.61845 590.46388 133.33299 C 589.32562 141.46123 583.88772 171.10541 581.13525 147.64995 C 580.55246 126.5212 571.91606 108.41419 560.68791 91.258024 C 553.67441 84.892632 553.76483 70.76616 545.36275 67.733354 C 531.50725 77.468418 534.64672 104.47321 544.60672 117.07506 C 552.51697 125.80848 575.15598 148.21552 567.41257 154.35755 C 564.89305 143.66692 548.37167 127.75471 549.10567 148.52225 C 545.13212 169.2038 557.72998 186.17096 570.87076 200.81003 C 577.76254 210.40749 569.5041 232.22348 565.17498 210.88125 C 563.97575 201.6755 557.09894 189.74268 552.08999 203.74111 C 540.49655 219.43365 539.92267 240.14904 549.01162 256.01804 C 552.60449 265.04488 543.08297 290.05741 537.24748 284.86125 C 547.77836 271.55596 537.47769 252.40761 523.94234 269.96655 C 507.60908 283.40353 503.10808 303.73322 500.71068 323.32507 C 503.22063 337.19182 476.19899 344.58412 489.07676 326.67525 C 492.35564 317.74035 515.56587 284.14555 490.82756 294.27825 C 473.1244 305.0326 458.88743 321.56108 454.81837 341.84797 C 451.75574 348.6364 445.80161 382.71051 447.73198 358.10952 C 446.99773 348.1625 463.83714 319.75077 441.75922 331.6889 C 424.76019 337.55091 418.11009 365.07382 406.40012 370.67103 C 394.69018 365.07382 388.03956 337.55091 371.04052 331.6889 C 348.96261 319.75077 365.80253 348.1625 365.06827 358.10952 C 366.99865 382.71051 361.04452 348.6364 357.98188 341.84797 C 353.91281 321.56108 339.67587 305.0326 321.97269 294.27825 C 297.23439 284.14555 320.44461 317.74035 323.72349 326.67525 C 336.60126 344.58412 309.57963 337.19182 312.08957 323.32507 C 309.69218 303.73322 305.19116 283.40353 288.85791 269.96655 C 275.32255 252.40761 265.02189 271.55596 275.55277 284.86125 C 269.71729 290.05741 260.19575 265.04488 263.78863 256.01804 C 272.87757 240.14904 272.3037 219.43365 260.71026 203.74111 C 255.7013 189.74268 248.82449 201.6755 247.62527 210.88125 C 243.29615 232.22348 235.03771 210.40749 241.92949 200.81003 C 255.07026 186.17096 267.66812 169.2038 263.69458 148.52225 C 264.42858 127.75471 247.9072 143.66692 245.38768 154.35755 C 237.64427 148.21552 260.28328 125.80848 268.19353 117.07506 C 278.15353 104.47321 281.29301 77.468418 267.4375 67.733354 z M 406.40012 67.733354 L 393.80089 106.54082 L 353.02817 106.54082 L 386.01377 130.52541 L 373.41453 169.33339 L 406.40012 145.3488 L 439.38572 169.33339 L 426.78648 130.52541 L 459.77208 106.54082 L 418.99936 106.54082 L 406.40012 67.733354 z M 304.80009 169.33339 L 304.80009 199.81319 L 345.44 199.81319 L 345.44 169.33339 L 304.80009 169.33339 z M 304.80009 220.1334 L 304.80009 282.75492 C 306.23971 285.29151 307.56234 287.88024 308.66808 290.55651 C 310.28509 288.94409 312.68251 288.11924 314.8925 288.16234 C 317.49735 288.21314 320.21379 288.9831 323.57828 290.36118 C 323.78303 290.44528 323.98087 290.54533 324.16998 290.66038 C 328.05575 293.02093 331.76707 295.68032 335.2799 298.57256 L 335.2799 281.09352 L 365.76022 281.09352 L 365.76022 301.41322 L 338.57892 301.41322 C 345.06878 307.30184 350.66291 314.11426 354.88904 321.73343 L 365.76022 321.73343 L 365.76022 324.97716 C 367.93637 325.48921 370.22484 326.44226 372.99389 327.93564 C 378.30878 329.91464 382.49227 333.48966 386.07991 337.61981 L 386.07991 321.73343 L 426.72034 321.73343 L 426.72034 337.61981 C 430.31092 333.48549 434.49808 329.90731 439.82032 327.92944 C 442.58262 326.44056 444.86775 325.48905 447.04003 324.97768 L 447.04003 321.73343 L 457.91173 321.73343 C 462.13765 314.11425 467.73091 307.30184 474.2203 301.41322 L 447.04003 301.41322 L 447.04003 281.09352 L 477.52035 281.09352 L 477.52035 298.57153 C 481.03256 295.67973 484.74346 293.02062 488.62872 290.66038 C 488.81849 290.54524 489.01703 290.44519 489.22249 290.36118 C 492.58695 288.9831 495.30135 288.21314 497.9062 288.16234 C 500.11602 288.11924 502.51361 288.94435 504.13062 290.55651 C 505.23692 287.87882 506.55975 285.2886 508.00016 282.75079 L 508.00016 250.6132 L 447.04003 220.1334 L 447.04003 250.6132 L 386.07991 220.1334 L 386.07991 250.6132 L 345.44 250.6132 L 345.44 220.1334 L 304.80009 220.1334 z M 386.07991 281.09352 L 426.72034 281.09352 L 426.72034 301.41322 L 386.07991 301.41322 L 386.07991 281.09352 z M 315.93172 320.55108 C 316.02942 321.29882 316.19997 322.06778 316.29087 322.81089 C 316.34277 323.23263 316.33093 323.65978 316.25573 324.07799 C 315.8771 326.16983 316.53176 327.85952 317.90421 329.49834 C 319.07476 330.89604 320.77278 331.92238 322.17785 332.48265 C 321.76649 331.57889 321.37207 330.6554 320.28701 329.14642 C 320.0629 328.83454 319.88227 328.49362 319.75009 328.13304 C 319.31476 326.94677 317.58151 323.686 315.93172 320.55108 z M 496.86905 320.55108 C 495.21926 323.686 493.48602 326.94677 493.05068 328.13304 C 492.9185 328.49362 492.73787 328.83454 492.51376 329.14642 C 491.4287 330.6554 491.03428 331.57889 490.62292 332.48265 C 492.02799 331.92238 493.72394 330.89604 494.89449 329.49834 C 496.26694 327.85952 496.92368 326.16983 496.54504 324.07799 C 496.46984 323.65978 496.4579 323.23263 496.5099 322.81089 C 496.6008 322.06778 496.77135 321.29882 496.86905 320.55108 z M 389.59339 342.05365 C 391.25708 344.35749 392.82374 346.70739 394.28303 349.01756 C 398.80299 356.17305 402.96755 362.50654 406.40012 365.41967 C 409.83273 362.50654 413.99778 356.17305 418.51774 349.01756 C 419.97706 346.70731 421.54386 344.35761 423.20737 342.05365 L 389.59339 342.05365 z M 394.61118 372.15879 L 398.49311 376.0552 L 402.37608 379.9516 L 399.26464 383.21652 L 396.1532 386.48144 L 400.94516 391.14214 L 405.73712 395.80335 L 406.40012 395.17342 L 407.06313 395.80335 L 411.85509 391.14214 L 416.64705 386.48144 L 413.53561 383.21652 L 410.42417 379.9516 L 414.30714 376.0552 L 418.18907 372.15879 L 420.89227 374.62893 C 422.37894 375.98737 424.77938 377.67756 426.22631 378.38477 C 430.4926 380.46999 433.0225 385.93364 433.1184 393.27069 C 433.1662 396.93117 432.82619 399.9261 432.36289 399.9261 C 431.8996 399.9261 429.48076 397.98892 426.98802 395.62145 L 422.456 391.3168 L 417.43976 396.19558 L 412.42353 401.07487 L 422.25239 410.68565 L 432.08177 420.29592 L 429.32897 422.81101 L 426.57616 425.32611 L 416.80983 415.82746 L 407.0435 406.32829 L 406.40012 406.95048 L 405.75675 406.32829 L 395.99042 415.82746 L 386.22409 425.32611 L 383.47128 422.81101 L 380.71848 420.29592 L 390.54786 410.68565 L 400.37672 401.07487 L 395.36049 396.19558 L 390.34425 391.3168 L 385.81223 395.62145 C 383.3195 397.98892 380.90065 399.9261 380.43736 399.9261 C 379.97406 399.9261 379.63405 396.93117 379.68185 393.27069 C 379.77775 385.93364 382.30764 380.46999 386.57394 378.38477 C 388.02087 377.67756 390.4213 375.98737 391.90798 374.62893 L 394.61118 372.15879 z" style="display:inline;fill:#000;stroke-width:8.81945"/><style id="style1" type="text/css">.st0{fill:#000}</style></svg>