<svg xmlns="http://www.w3.org/2000/svg" xml:space="preserve" width="512" height="512" viewBox="0 0 135.46666 135.46667"><path d="m 34.540342,135.10803 c -0.362647,-0.17533 -0.821752,-0.71083 -1.020233,-1.19001 -0.463194,-1.11825 0.04289,-2.46455 1.10904,-2.95032 1.068406,-0.48679 65.136234,-0.48679 66.204641,0 0.41269,0.18804 0.91224,0.73276 1.11013,1.21048 0.46211,1.11564 -0.0451,2.46245 -1.11013,2.9477 -1.022407,0.46585 -65.328784,0.44852 -66.293448,-0.0178 z M 42.008674,86.16248 V 46.541076 l 0.797365,-0.627207 c 0.791528,-0.622616 0.973943,-0.627206 24.925432,-0.627206 23.95149,0 24.133905,0.0046 24.925433,0.627206 l 0.797365,0.627207 V 86.16248 125.78389 H 67.731471 42.008674 Z M 28.598013,68.280768 c -1.351455,-0.405651 -2.768827,-1.651341 -3.317312,-2.915496 -0.732386,-1.688009 -6.357007,-34.747163 -6.183255,-36.342564 0.169307,-1.554585 1.304792,-3.136751 2.73992,-3.817764 0.955331,-0.453334 4.945397,-0.496519 45.87624,-0.496519 44.061604,0 44.850004,0.01029 46.002854,0.598391 1.50002,0.765257 2.47822,2.145385 2.65193,3.741601 0.19205,1.764641 -5.47788,34.737592 -6.26405,36.428041 -0.36664,0.788376 -1.07956,1.59788 -1.86558,2.118349 -1.21085,0.801764 -1.47291,0.847397 -5.43604,0.946595 l -4.163857,0.10422 -0.0957,-11.310159 -0.0957,-11.31016 -0.77308,-1.501358 c -0.87029,-1.690148 -2.77022,-3.294957 -4.45478,-3.7628 -1.54992,-0.430451 -49.426457,-0.430451 -50.976377,0 -1.684558,0.467843 -3.584492,2.072652 -4.45478,3.7628 l -0.773076,1.501358 -0.09552,11.281592 -0.09552,11.281592 -3.687249,-0.02601 c -2.027987,-0.01431 -4.070598,-0.141076 -4.539134,-0.281711 z m -4.443985,-49.88956 c 0,-2.637737 0.189258,-2.934014 4.09911,-6.417018 l 3.711499,-3.3063063 -0.160571,-1.770795 c -0.09163,-1.010477 -0.0071,-2.235943 0.196962,-2.854129 0.514337,-1.558458 2.388324,-3.1207828 4.4723,-3.7285105 4.431598,-1.2923403 8.588044,1.5406935 8.653783,5.8984185 0.05876,3.8945313 -4.356083,7.1401133 -8.276457,6.0844663 -1.105017,-0.297551 -1.346823,-0.268831 -1.911913,0.227082 -5.2994,4.650666 -5.942775,5.318508 -5.942775,6.168777 v 0.870673 h -2.420969 -2.420969 z" style="fill:#fff;fill-opacity:1;stroke-width:1.14376"/></svg>