<svg xmlns="http://www.w3.org/2000/svg" xml:space="preserve" width="512" height="512" viewBox="0 0 135.46666 135.46667"><path d="M 67.733332 10.744047 C 61.797922 10.744047 56.125979 15.155926 54.617854 20.946008 C 52.920158 27.463902 56.710272 34.7011 62.988919 36.931079 C 63.701984 37.184337 64.285481 37.493023 64.285481 37.616825 C 64.285481 38.680453 61.82566 47.012948 60.525504 50.354032 C 57.94942 56.973936 55.173661 61.523113 51.433036 65.254931 C 47.812004 68.867437 44.433107 70.421024 40.198063 70.421024 C 33.655349 70.421024 26.946929 65.680529 21.243664 57.027009 C 19.725001 54.722752 16.278593 48.179603 16.278593 47.600711 C 16.278593 47.445054 16.994305 46.655254 17.869193 45.845263 C 19.007331 44.791548 19.742956 43.799689 20.455082 42.358654 C 21.378149 40.490748 21.449087 40.179676 21.433317 38.076228 C 21.41231 35.273441 20.866286 33.548925 19.344555 31.481799 C 14.359871 24.710586 3.6548534 26.159401 0.60719807 34.017561 C 0.15824321 35.17516 0.011876618 36.118749 0.0010335286 37.929984 C -0.011888638 40.08851 0.070728156 40.498054 0.86247964 42.206209 C 2.2909574 45.28806 5.1555552 47.665988 8.2873493 48.369657 C 8.9125185 48.510123 9.4524657 48.665431 9.4877929 48.714855 C 9.52312 48.764279 11.85955 60.859226 14.679724 75.592801 C 17.113264 88.306464 18.638152 96.147264 19.208646 98.99499 L 116.25802 98.99499 C 116.82851 96.147264 118.3534 88.306464 120.78694 75.592801 C 123.60711 60.859226 125.94357 48.764275 125.97887 48.714855 C 126.01419 48.665431 126.55414 48.510123 127.17932 48.369657 C 130.3111 47.665988 133.17571 45.28806 134.60419 42.206209 C 135.39587 40.498054 135.47853 40.08851 135.46563 37.929984 C 135.44869 35.099887 134.82072 33.190881 133.25491 31.209981 C 128.89762 25.697587 120.27955 25.834327 116.12211 31.481799 C 114.60038 33.548925 114.05445 35.273441 114.03335 38.076228 C 114.01758 40.179676 114.0885 40.490748 115.01158 42.358654 C 115.72371 43.799689 116.45934 44.791548 117.59747 45.845263 C 118.47236 46.655254 119.18807 47.445054 119.18807 47.600711 C 119.18807 48.178521 115.7432 54.720987 114.22455 57.027009 C 108.49924 65.720705 101.86378 70.421024 95.317178 70.421024 C 91.0308 70.421024 87.669217 68.881959 84.033629 65.254931 C 80.293005 61.523113 77.517246 56.973936 74.941161 50.354032 C 73.641006 47.012948 71.181184 38.680453 71.181184 37.616825 C 71.181184 37.493023 71.76468 37.184337 72.477746 36.931079 C 78.756393 34.7011 82.546507 27.463902 80.848811 20.946008 C 79.340685 15.155926 73.668745 10.744047 67.733332 10.744047 z M 21.981087 108.74685 L 20.689176 109.40676 C 19.04023 110.2489 17.242731 112.24441 16.700789 113.83491 C 16.066795 115.6956 16.152997 118.28111 16.902844 119.88674 C 18.018128 122.27487 19.569871 123.67036 21.934578 124.41308 C 22.832854 124.69523 31.561951 124.75133 68.131241 124.71073 L 113.22048 124.66061 L 114.42764 124.1025 C 119.40946 121.79741 120.81394 115.34319 117.2068 111.33119 C 116.58144 110.63563 115.48806 109.76966 114.77749 109.40676 L 113.48558 108.74685 L 21.981087 108.74685 z" style="fill:#fff;fill-opacity:1;stroke:none"/></svg>