<svg xmlns="http://www.w3.org/2000/svg" xml:space="preserve" width="512" height="512" viewBox="0 0 135.46666 135.46667"><path fill="#fff" d="M21.934325 124.41315c-2.36471-.74272-3.916038-2.1384-5.031323-4.52653-.749848-1.60563-.836253-4.19085-.202258-6.05154.541942-1.5905 2.339312-3.58621 3.98826-4.42835l1.291955-.65981h91.504751l1.29196.65981c.71057.3629 1.80361 1.22891 2.42897 1.92447 3.60715 4.01201 2.20268 10.466-2.77915 12.77109l-1.20701.55849-45.0893.0501c-36.569327.0406-45.298578-.0156-46.196855-.29775zm-2.006367-21.70025c-.066287-.18235-2.42794-12.386288-5.248117-27.11988-2.820177-14.73359-5.156499-26.828783-5.1918262-26.878207-.0353272-.049424-.5757337-.204788-1.2009035-.345254-3.1317973-.703669-5.996168-3.081406-7.42464715-6.16326-.79175228-1.708156-.87421768-2.117575-.8612955-4.276103.0108431-1.811237.15702592-2.755113.60598123-3.912713C3.6548083 26.159315 14.359758 24.710707 19.344447 31.481927c1.521732 2.067128 2.068044 3.791648 2.089051 6.594438.01577 2.10345-.05523 2.414159-.978298 4.282067-.712127 1.441036-1.447865 2.433047-2.586004 3.486763-.874889.809992-1.590706 1.600071-1.590706 1.755729 0 .578892 3.446321 7.121656 4.964986 9.425916 5.70327 8.653528 12.411966 13.394173 18.954686 13.394173 4.235049 0 7.613863-1.553701 11.234898-5.166211 3.740629-3.731822 6.516434-8.280769 9.09252-14.90068 1.300157-3.341087 3.759748-11.673771 3.759748-12.7374 0-.123802-.583418-.432305-1.296483-.685564-6.278654-2.229981-10.068559-9.467255-8.370861-15.985155 1.508126-5.790088 7.179933-10.202 13.115349-10.202 5.935418 0 11.607224 4.411912 13.115351 10.202 1.697698 6.5179-2.092207 13.755174-8.370861 15.985155-.713066.253259-1.296484.561762-1.296484.685564 0 1.063629 2.459592 9.396313 3.759748 12.7374 2.576087 6.619911 5.351892 11.168858 9.09252 14.90068 3.635591 3.627032 6.997385 5.166211 11.283767 5.166211 6.546606 0 13.181716-4.700469 18.907036-13.394173 1.51865-2.306025 4.96377-8.848106 4.96377-9.425916 0-.155658-.71582-.945737-1.59071-1.755729-1.13813-1.053716-1.87387-2.045727-2.586-3.486763-.92308-1.867908-.99407-2.178617-.9783-4.282067.0211-2.80279.56732-4.52731 2.08905-6.594438 4.15744-5.647478 12.77517-5.78419 17.13247-.271791 1.56581 1.980902 2.19387 3.88996 2.21081 6.72006.0129 2.158528-.0696 2.567947-.86129 4.276103-1.42848 3.081854-4.29286 5.459591-7.42465 6.16326-.62518.140466-1.16558.29583-1.2009.345254-.0353.04942-2.37166 12.144617-5.19183 26.878207-2.82018 14.733592-5.18183 26.93753-5.24812 27.11988-.17718.48738-95.433579.48738-95.610752 0z"/></svg>