<svg xmlns="http://www.w3.org/2000/svg" xml:space="preserve" id="svg1" width="512" height="512" version="1.1" viewBox="0 0 135.46666 135.46667"><style id="style1" type="text/css">.st0{fill:#000}</style><path id="path10" d="M 65.838663,134.24765 C 56.08405,127.46555 52.80045,115.02579 57.991598,104.5194 l 0.951472,-1.92568 8.736988,0.0698 8.736987,0.0698 0.991006,1.98106 c 1.756244,3.51079 2.221796,5.66312 2.209411,10.2144 -0.01173,4.31307 -0.30525,5.87168 -1.731711,9.19574 -1.638136,3.81734 -4.203506,7.01578 -7.726623,9.63338 -1.271452,0.94466 -2.372029,1.71359 -2.445726,1.70874 -0.0737,-0.005 -0.917328,-0.55345 -1.874739,-1.2191 z M 32.489185,123.0217 c -2.859773,-0.40177 -5.020677,-1.06716 -7.758917,-2.38913 -3.119975,-1.50627 -5.802166,-3.5412 -7.966936,-6.04439 -2.00879,-2.32282 -2.691559,-4.06871 -2.562453,-6.55238 0.24506,-4.71432 3.968961,-8.045245 8.672727,-7.75751 2.473159,0.15129 4.198209,1.07053 6.15989,3.28249 1.95562,2.20512 3.810573,3.12937 6.256662,3.11748 2.26253,-0.011 4.189033,-0.82389 5.636295,-2.37823 0.592556,-0.63638 1.077375,-1.27904 1.077375,-1.42811 0,-0.17228 1.425495,-0.27105 3.911856,-0.27105 3.616018,0 3.898162,0.0351 3.730783,0.46396 -1.707404,4.37486 -2.116771,6.71426 -2.143459,12.24916 l -0.0236,4.8921 -1.867421,0.86015 c -3.608475,1.66206 -9.239053,2.5011 -13.122812,1.95546 z m 64.097476,-0.01 c -2.547615,-0.39909 -4.78915,-1.05615 -6.970372,-2.0432 -1.969055,-0.89105 -2.067633,-0.97643 -1.886502,-1.63408 0.105116,-0.38165 0.189282,-2.36415 0.187038,-4.40556 -0.0043,-3.97628 -0.427578,-6.64372 -1.609797,-10.14638 -0.35785,-1.06023 -0.650636,-1.98482 -0.650636,-2.05466 0,-0.0698 1.73932,-0.12698 3.865155,-0.12698 3.577816,0 3.877304,0.0379 4.028544,0.50962 0.244366,0.7622 2.185041,2.39268 3.589226,3.01552 0.837021,0.37127 1.801646,0.55029 2.978653,0.55277 2.51112,0.005 4.27419,-0.86175 6.22493,-3.06136 2.01472,-2.27176 3.71607,-3.18656 6.21013,-3.33913 4.70148,-0.287595 8.36037,2.97939 8.65693,7.72973 0.1563,2.50345 -0.51005,4.22515 -2.54666,6.58016 -3.2157,3.71841 -8.24496,6.78762 -12.91986,7.88464 -2.65898,0.62397 -6.987634,0.87872 -9.156779,0.53891 z M 39.593564,90.007747 v -4.374456 h 28.119748 28.11975 v 4.374456 4.374457 H 67.713312 39.593564 Z M 0.02280548,67.406391 C 0.12694807,56.348099 0.16248193,56.071826 1.9681258,52.2817 3.3670171,49.345366 5.3881876,46.641923 8.1114803,44.064574 12.795477,39.631599 18.187792,36.790708 24.639849,35.356755 c 2.662809,-0.591802 8.784909,-0.602973 11.359836,-0.02073 3.160397,0.714632 4.932915,1.468888 4.932915,2.099095 0,1.399495 1.575011,7.24611 3.378061,12.539725 2.287613,6.716263 3.566826,11.544111 4.355332,16.43735 0.499773,3.101457 1.363457,9.830608 1.369618,10.671021 0.0018,0.252409 -1.09914,0.331398 -4.619213,0.331398 H 40.794753 L 39.11193,75.961707 c -2.324046,-2.006524 -3.750919,-2.94006 -6.301036,-4.122476 -3.580159,-1.660016 -5.703373,-2.150452 -9.981511,-2.305605 -6.376964,-0.231272 -8.768921,0.463021 -17.1468507,4.977073 -2.9642643,1.597153 -5.47156345,2.903915 -5.57177588,2.903915 -0.10021242,0 -0.13979035,-4.503701 -0.0879509,-10.008225 z M 58.2296,76.287862 C 58.150792,75.668148 57.896855,73.550513 57.665291,71.582008 56.648195,62.935805 54.983327,55.627353 52.320414,48.119018 49.735033,40.82929 49.21154,38.600279 49.043248,34.164989 48.950729,31.72656 49.016964,29.461491 49.221567,28.067264 49.952259,23.088068 52.638501,16.818338 56.135371,11.930335 58.144978,9.1212618 66.99682,6.5147953e-7 67.713312,6.5147953e-7 68.37763,6.5147953e-7 77.247535,9.0756253 79.070545,11.62064 c 3.192721,4.457203 5.279975,8.827372 6.669065,13.9633 0.489914,1.81137 0.574323,2.856198 0.578306,7.158202 0.0044,4.859089 -0.0256,5.145088 -0.850803,8.086114 -0.470507,1.676877 -1.532688,4.957717 -2.360401,7.290762 -2.662779,7.505463 -4.328093,14.815196 -5.345377,23.46299 -0.231565,1.968505 -0.485504,4.08614 -0.564309,4.705854 l -0.143282,1.126754 h -9.340432 -9.34043 z m 27.277443,-0.662796 c 0.407011,-4.027302 1.559807,-11.288519 2.325495,-14.647799 0.448686,-1.968506 1.777221,-6.442381 2.952301,-9.941946 2.215489,-6.598065 3.287463,-10.409033 3.596356,-12.785373 l 0.180068,-1.385276 1.484755,-0.549941 c 4.219812,-1.562987 10.523082,-1.90978 15.261852,-0.839678 9.68232,2.18645 18.4263,8.848097 22.18508,16.901826 1.80016,3.857084 1.97159,5.220107 1.9737,15.692308 0.001,5.139986 -0.0674,9.345429 -0.15206,9.345429 -0.0847,0 -2.58529,-1.307926 -5.55699,-2.906504 -5.96163,-3.206975 -7.87353,-4.005891 -11.16797,-4.666731 -3.05543,-0.61289 -8.92811,-0.412325 -11.75846,0.401577 -3.99934,1.150061 -8.3019,3.53778 -10.730301,5.954813 l -1.205131,1.199489 -4.784776,0.0087 -4.784775,0.0087 z" style="fill:#fff;fill-opacity:1;stroke-width:1"/></svg>