<svg xmlns="http://www.w3.org/2000/svg" xml:space="preserve" width="512" height="512" viewBox="0 0 135.46666 135.46667"><path d="m 22.575982,129.80018 c -0.09713,-0.0971 -0.176614,-2.66023 -0.176614,-5.69577 v -5.51917 l -3.112809,-0.001 c -3.659424,-0.002 -4.774415,-0.25894 -6.075757,-1.40153 -1.989298,-1.74662 -1.924654,-1.14054 -1.941277,-18.201064 L 11.254683,83.748269 9.1060826,82.708481 C 5.2928717,80.863125 2.1998637,77.222905 0.64807757,72.754093 c -0.86409479,-2.488409 -0.86409479,-7.57855 0,-10.066959 C 3.5647196,54.287829 11.647733,49.472445 20.02733,51.142117 c 6.110832,1.21761 10.811452,5.387337 13.014936,11.545017 0.613799,1.715274 0.616512,1.781143 0.69646,16.912506 l 0.08026,15.190525 0.671065,-1.346651 c 0.763072,-1.531285 1.716647,-2.31182 3.468423,-2.839028 1.802049,-0.542337 57.682355,-0.542337 59.484404,0 1.759288,0.529469 2.705892,1.30883 3.482452,2.867184 l 0.6851,1.374808 0.005,-14.423923 c 0.005,-16.2874 0.0323,-16.577713 1.90296,-20.367568 2.73926,-5.549643 8.788,-9.28005 15.04731,-9.28005 8.38075,0 15.6374,6.378171 16.75434,14.72609 0.96173,7.187915 -2.88027,14.301409 -9.39756,17.399645 l -1.78296,0.847597 -0.011,15.232896 c -0.0124,17.061505 0.0523,16.454025 -1.9375,18.201065 -1.30098,1.14228 -2.41636,1.3998 -6.07048,1.40153 l -3.10755,0.001 -0.0715,5.62956 -0.0715,5.62954 -5.62956,0.0715 -5.62954,0.0715 v -5.70105 -5.70105 H 67.700676 33.790926 v 5.69578 5.69578 H 28.27176 c -3.035541,0 -5.598641,-0.0795 -5.695778,-0.17662 z M 39.354244,74.890772 c 0,-10.711319 -0.107167,-11.767127 -1.581334,-15.579384 C 35.525427,53.4993 30.44939,48.589541 24.527439,46.499805 l -1.99561,-0.704211 -0.08129,-5.793676 c -0.134228,-9.566781 0.487623,-13.41149 2.993819,-18.509833 1.6713,-3.399916 3.364036,-5.724684 5.932671,-8.147804 4.649722,-4.3863124 10.246479,-6.9331004 16.719574,-7.6081941 3.276409,-0.341704 35.931741,-0.341704 39.20815,0 3.689639,0.3848009 6.39041,1.159109 9.669577,2.7722588 6.09582,2.9987753 10.3581,7.3321253 13.25996,13.4810983 2.18242,4.624468 2.75594,8.303338 2.7631,17.7242 0.004,5.511887 -0.0356,6.049306 -0.45902,6.197401 -4.76453,1.666495 -6.96079,2.977576 -9.88293,5.89971 -2.39303,2.393027 -3.950614,4.717065 -5.026996,7.500633 -1.474167,3.812257 -1.581333,4.868065 -1.581333,15.579384 v 9.784717 H 67.700676 39.354244 Z m 19.277819,-18.97174 c 4.474561,-1.869591 4.474561,-8.436998 0,-10.306589 -1.35348,-0.56552 -3.450081,-0.522451 -4.651547,0.09555 -4.314959,2.21951 -4.272172,7.892928 0.07679,10.181598 1.02397,0.538872 3.320151,0.553647 4.574762,0.02944 z m 22.788775,-0.09555 c 4.284894,-2.204045 4.284894,-7.911435 0,-10.115481 -1.201466,-0.618005 -3.298067,-0.661074 -4.651547,-0.09555 -4.442593,1.856233 -4.480249,8.377493 -0.05944,10.2946 1.312292,0.569083 3.518247,0.529954 4.710991,-0.08357 z M 58.632063,38.964159 c 4.474561,-1.86959 4.474561,-8.436998 0,-10.306589 -1.35348,-0.56552 -3.450081,-0.522451 -4.651547,0.09555 -4.314959,2.21951 -4.272172,7.892928 0.07679,10.181598 1.02397,0.538871 3.320151,0.553647 4.574762,0.02944 z m 22.788775,-0.09555 c 4.284894,-2.204046 4.284894,-7.911436 0,-10.115482 -1.201466,-0.618005 -3.298067,-0.661074 -4.651547,-0.09555 -4.442593,1.856234 -4.480249,8.377493 -0.05944,10.294601 1.312292,0.569083 3.518247,0.529953 4.710991,-0.08357 z" style="fill:#fff;fill-opacity:1;stroke-width:1.00127"/></svg>