<svg xmlns="http://www.w3.org/2000/svg" width="3072" height="2048" viewBox="0 0 812.8 541.867"><path d="M0 0v541.867h812.8V0H0z"/><path fill="#e00000" d="M406.4 67.733c-112.224 0-203.2 90.976-203.2 203.2a203.2 203.2 0 0 0 21.24 90.28l-88.973 88.973 23.947 23.947 83.187-83.187A203.2 203.2 0 0 0 406.4 474.133c112.224 0 203.2-90.976 203.2-203.2a203.196 203.196 0 0 0-21.189-90.33l55.056-55.056V152.4h33.866V67.734h-84.667V101.6h26.854l-49.233 49.232A203.2 203.2 0 0 0 406.4 67.733Zm0 33.867a169.334 169.334 0 0 1 139.528 73.59L440.266 280.852l-67.733-67.733L250.03 335.623a169.334 169.334 0 0 1-12.962-64.69c0-93.52 75.813-169.333 169.333-169.333Zm156.37 104.644a169.334 169.334 0 0 1 12.963 64.69c0 93.52-75.813 169.333-169.333 169.333a169.333 169.333 0 0 1-139.528-73.592l105.661-105.661 67.735 67.734z"/></svg>