<svg xmlns="http://www.w3.org/2000/svg" xml:space="preserve" width="3072" height="2048" viewBox="0 0 812.8 541.867"><path d="M0 541.867h812.8V0Z" paint-order="stroke fill markers"/><path fill="green" d="M812.8 0H0v541.867Z" paint-order="stroke fill markers"/><path fill="#e00000" d="M377.658 67.74c-13.621-.461-33.298 21.82-37.542 18.23 6.704-4.992 18.103-19.55 2.617-9.982-6.52 1.73-17.113 20.486-13.406 6.03-7.82 3.107-19.601 25.234-12.587 6.837-8.522.672-17.01 21.463-14.594 6.243-6.613 7.28-23.605 32.651-10.914 10.601.534-8.829-9.94 9.243-13.121 3.966-6.616 7.61-12.178 25.033-17.634 28.41 5.308-8.53 5.212-17.909-1.848-7.53-4.232-6.903-15.737 33.51-10.06 9.44-6.693-5.644-8.895 19.993-15.635 25.097-8.545 11.54-11.415 29.059-21.66 37.748-7.963 9.854-.03 30.35-1.955 38.019-1.23-9.365-7.218-17.282-4.535-2.582-2.162 11.826 7.045 40.367 5.816 39.583-18.407-21.135 12.442 27.215 4.117 18.95-10.982-17.453-8.74-1.66-.512 6.324.638.81-18.46-19.145-7.723-2.87 5.129 7.338 18.107 24.043 2.959 8.353-5.492 1.85 17.978 24.804 17.936 25.69-4.495-4.798-20.832-16.05-9.162-2.621 5.859 6.61 28.407 26.064 9 11.73-16.885-7.032 21.048 22.184 16.29 20.448-7.151-5.748-21.544-10.735-7.411.299 3.145 9.247 25.351 19.158 24.334 22.463-11.317-8.61-13.534-1.426-1.662 2.694 11.169 3.832 14.848 9.337 1.534 2.593-14.121-.532 15.195 9.821 19.775 11.699 10.512 3.04 24.922 11.498 5.891 4.271-15.992-2.156 12.328 9.812 16.153 14.863 15.512.343-2.8 6.213 12.46 7.879 14.131 6.397 28.284 13.408 44.453 14.305 8.863-1.073 29.136 4.523 8.634 4.014-12.059 1.462-43.464 1.43-37.876 17.293 13.254.666 38.642-11.583 43.465-7.884-9.64 1.511-24.046 18.12-5.29 12.585 18.03-1.622 37.958-27.636 53.552-14.8 5.022 14.5 37.442 25.653 47.105 11.406-4.372-12.118-37.262-2.414-30.13-16.82 19.829 2.831 38.882 13.93 59.05 12.213-1.878-19.013-32.445-11.894-47.255-16.344-26.341-3.806 12.25-5.346 20.008-6.539 13.7-6.878 32.655-10.08 45.172-17.334-4.803-2.404 14.628-9.673 18.749-14.51 11.345-3.227-1.459-7.502 12.455-10.711 13.298-4.061 16.896-12.613 7.489-10.666 8.886-3.539 28.806-17.107 17.775-16.183 12.764-13.312 19.893-32.151 27.108-47.545-1.145-5.366 9.411-18.646 7.175-24.87 9.243-22.913-17.086 21.523-5.397-2.334 5.249-8.078 15.217-33.722 2.82-13.913 3.818-9.364 7.683-18.092 3.31-22.597 1.847-16.156 2.171-34.59-3.37-49.196.34-19.648-6.71 10.915-5.515-5.78 1.432-8.436-4.17-28.638-4.229-8.656-4.036 28.104-1.191-30.13-7.688-19.795-4.996-10.156-9.382-29.647-19.781-35.543-9.063-13.117-5.003-2.09-3.422 5.45-3.664-13.31-18.22-33.946-26.62-35.735 2.601 6.913 18.875 37.657 6.274 17.355-6.108-8.262-11.772-25.249-21.806-26.196 12.137 21.158-10.38-11.067-19.08-10.727-5.595-6.022-27.91-21.601-12.918-4.372-10.048-6.763-40.272-19.894-42.321-12.261 9.49 3.246 25.347 15.625 5.709 6.883-17.121-9.221-35.52-1.247-53.067 1.21 6.772-5.46 34.098-4.91 31.07-11.186-14.07-.782-38.558 10.429-45.763 8.307 7.28-1.44 31.064-13.478 10.403-8.4-9.076 2.787-47.78 18.858-22.839 3.946 1.61-1.813 15.994-6.2 5.67-6.945zm53.06 11.813c14.174 1.386-16.014 1.038 0 0zm-19.14 5.077c4.196 2.842-23.149 3.282-2.463.189l2.463-.19zm-43.876 3.466c13.432 4.786-17.918 3.184 0 0zm-14.787 1.238c5.556 7.42-16.6 9.238-2.19.653l2.19-.653zm95.906.718c23.275 4.671-20.842 6.69 0 0zm-29.474.003c14.174 1.387-16.014 1.038 0 0zm47.588.116c26.18 11.255-19.733 3.45 0 0zm-75.5 2.397c17.426.678 35.38 1.154 52.254 5.405-7.838-.732-27.054 4.023-7.868 4.127 11.218-1.249 8.089 10.263 23.03 7.75 8.274.944 20.698 1.896 5.584 2.733-17.579 1.792 13.341 5.86 20.54 8.662-9.23-2.708-28.19.361-7.186 3.62 18.293 5.671 24.634 16.277 42.882 22.66 21.338 11.632-25.556-9.94-3.446 4.37 7.266 2.93 34.05 20.434 13.733 9.651-19.16-4.762 29.338 19.525 3.395 9.234 2.454 7.376 12.599 10.106 0 7.763 2.76 6.616 20.436 15.5 9.978 15.355 3.94 7.278 26.886 24.645 8.645 13.725 1.19 6.505 14.027 15.789 3.553 11.358 5.387 7.782 20.956 35.287 6.508 14.608-3.881-7.889-14.023-11.8-4.624-.225 3.557 16.834 10.769 34.275 7.864 51.544.062 8.93 1.183 18.36-2.129 4.049-3.456 7.835 2.503 36.101-6.948 18.421-2.387 11.484-9.93 33.954-16.327 37.139-6.407 8.454-16.173 25.583-27.768 34.585-9.783 10.541-18.91 9.974-28.19 19.612-15.916-.51-29.917 17.928-43.527 27.13 1.443-2.196 21.692-21.926 3.682-9.39-14.613 16.778-39.913-3.991-52.358 9.859-11.6-6.39-28.128-16.028-38.982-20.904 2.504 15.011-18.43-14.044-22.222-5.122-9.302-12.774-27.454-16.051-31.141-20.276-.86-4.3-10.15-13.557-6.59-3.426-4.325-5.592-9.194-16.886-8.617-6.206-3.125-7.544-10.313-24.435-9.741-12.737-8.27-13.475-11.48-32.947-16.488-45.215-2.903 15.526-.348-33.584-5.121-7.673.219-7.458-2.133-29.393-3.69-9.443-4.52 12.86-.466-18.778.758-24.465.51-3.557-9.09 14.281-3.914.373 1.95-4.523 7.071-22.122.383-15.899 5.308-9.677 8.89-25.667-.878-8.575-6.004 10.062 5.99-17.096 10.04-19.488 14.308-22.695-22.736 21.637-6.238-.58 6.834-7.688 29.373-37.908 8.485-19.531-.1.048 21.497-25.4 4.956-13.02-13.795 12.18 7.298-9.308 10.869-13.229 6.179-8.932-15.999 7.29-2.133-4.073 7.604-6.51 15.94-13.886 3.59-9.113 4.515-7.335 29.733-14.735 26.588-18.777-24.98 7.884 16.26-7.509 21.3-13.076-10.214 1.608-21.81 3.935-5.64-2.629 13.381-6.973 33.524-16.215 42.54-20.482-9.218.86-24.612 1.495-6.868-1.825 7.818-1.321 43.584-7.53 18.055-7.92-28.927.314 47.279-4.355 12.715-9.367 1.278-1.77 4.93-.484 6.707-1.067zm-25.25 1.077c12.473 6.078-18.245 2.048 0 0zm-32.928.013c4.098 12.17-16.902 10.132 0 0zm152.529 1.443c20.414 10.663-4.57 11.627 0 0zm-22.02 3.726c7.862-2.81 19.136 7.538 4.176 4.253.461.327-10.353-4.396-4.176-4.253zm-118.302.472c9.893 5.984-17.276 3.27 0 0zm-25.632.219c2.994 11-18.94 17.454-5.089 3.302l3.074-2.563zm180.704 2.885c9.238.761 12.04 18.2 1.28 5.771.474.143-4.167-5.524-1.28-5.77zm-16.627 3.2c30.992 9.89-23.546 5.563 0 0zm-147.583.23c9.92 3.643-22.949 6.092-5.758.478l2.948-.386 2.81-.092zm-31.247 1.52c3.716 7.891-13.416 17.608-4.284 3.425l2.205-2.431 2.079-.993zm15.135 5.389c11.567 1.991-21.073 11.408-7.153 1.097l3.385-.897 3.768-.2zm194.805.591c9.195.4 14.494 16.419 3.128 5.406 2.39 1.195-5.795-4.874-3.128-5.406zm-16.978 1.594c21.52 5.025-5.794 6.648-8.188 2.17 2.671-.908 5.314-2.09 8.188-2.17zm-205.89 6.625c-.954 15.703-11.612 8.47 0 0zm14.793.571c3.099 7.178-22.131 6.248-3.11.268l3.11-.268zm207.113.978c19.218 1.746-6.327 10.939-3.736.586zm14.642 1.757c11.45 5.209 10.03 19.549.473 4.544-.188-.636-3.123-4.271-.473-4.544zm-247.142 5.252c7.1 7.303-12.886 18.775-3.614 4.197l1.981-2.954zm15.708 1.822c15.464-3.27-13.68 12.205-9.487 3.382 2.366-2.625 6.126-3.348 9.487-3.382zm225.438 1.62c9.757-.034 19.197 14.401 3.49 5.754-1.794-.657-10.44-5.305-3.49-5.754zm-18.777 1.864c12.282 2.891 3.413 5.958 0 0zm-72.302 5.76c-9.625 7.722 4.31 21.455 2.004 4.052-.364-1.296-.367-3.511-2.004-4.051zm114.612.192c12.818 4.975 5.41 24.722.313 5.621.95-.588-3.16-5.27-.313-5.621zm-139.907.12c-9.3 6.453 6.87 19.154 2.161 1.395l-.898-1.05-1.263-.346zm-116.7.187c2.337 6.292-21.829 10.453-6.675 1.955l3.706-1.406 2.97-.549zm95.24.687c-8.977 9.638 6.952 18.101 1.857 1.593l-.787-1.187-1.07-.406zm-113.354.434c4.485 10.928-10.769 13.464 0 0zm91.397 1.228c-7.088 8.714 7.967 26.925 3.394 5.748-.695-1.928-.998-4.996-3.394-5.748zm91.942 1.84c-8.464 4.824-1.199 25.541 2.555 8.765-.105-2.43.862-7.848-2.555-8.766zm78.357 0c26.721 7.615.298 13.657 0 0zm-271.15 4.375c.89 9.421-13.255 25.288-6.408 7.089 1.942-2.533 4.264-4.734 6.409-7.089zm14.025 2.68c4.95 6.548-21.895 12.874-5.112 2.436l2.076-1.328zm66.325 5.197c-.868 10.454 2.736 37.908 12.02 43.163-1.754-14.486-7.265-30.535-12.02-43.163zm133.326 0c-10.579 5.453.985 23.004 2.368 5.775.257-1.74.557-5.784-2.368-5.775zm65.05.106c12.104-.545 19.294 18.31 3.95 5.802-.27-.663-7.542-5.254-3.95-5.802zm22.601 6.896c11.347 2.67 6.075 25.068.074 7.354-.442-1.957-3.55-6.672-.074-7.354zm-298.513.273c2.88 9.957-20.65 19.785-6.937 5.021 2.092-1.936 4.14-4.09 6.937-5.021zm-14.942 2.728c6.91 5.126-10.78 26.4-5.8 7.782 1.16-2.728 2.086-7.305 5.8-7.782zm137.356 2.602c-4.286 15.893 1.748 34.389 2.209 51.203 2.947 20.977 2.457 42.649 7.396 63.205 7.346-10.324-1.406-35.241-.79-50.984-2.605-21.083-2.612-42.907-8.267-63.342l-.548-.082zm-19.65.17c-2.122 9.4.09 33.917 8.476 36.31-1.586-11.9-1.777-26.297-8.476-36.31zm-44.198 2.978c-2.426 9.229 6.116 34.135 13.129 38.88.18-13.079-6.218-27.816-13.129-38.88zm81.807.267c-2.741 16.916 1.424 38.773.643 57.587 1.329 20.141-1.36 40.812 2.18 60.613 6.444-16.209 2.288-37.728 3.381-55.897-1.416-20.467 1-42.12-4.51-61.821l-.939-.393-.755-.089zm91.509 3.234c-14.91 14.668 7.596 14.689 0 0zm60.183.263c11.84.276 14.28 18.12 1.74 5.515-.74-.75-6.104-5.76-1.74-5.515zm-128.107 3.228c-5.41 17.191-3.928 37.33-6.393 55.658 1.344 13.851-8.447 44.986 2.204 49.374 1.363-34.039 6.101-68.103 5.452-102.214l-.516-2.09-.747-.728zm147.94.345c6.975 8.758-7.586 20.39-2.791 4.115.584-1.279.83-3.968 2.79-4.115zm-322.08 1.795c5.261 7.661-20.423 22.007-6.93 6.433 2.04-2.14 3.852-5.683 6.93-6.433zm-16.756.52c8.794 9.666-4.123 23.963-1.96 4.977.548-1.083-.093-4.965 1.96-4.977zm69.61 6.103c-10.601 6.5 15.11 34.756 6.982 12.209-2.113-4.167-3.836-8.67-6.981-12.21zm253.598 2.827c10.882-.57 19.305 18.308 4.845 6.653.069-.567-8.91-5.687-4.845-6.653zm-113.98 1.07c-6.249 16.832-5.165 36.179-9.073 53.94.288 8.618-9.436 38.653-1.726 35.738 6.808-28.605 10.615-58.105 12.88-87.414l-1.056-1.841zm68.513 1.354c-11.521 5.964-3.213 29.056 1.224 7.996.5-2.324 2.955-7.714-1.224-7.996zm66.894 1.75c5.756 5.984-1.421 22.339-1.855 5.725.969-1.108-.318-4.945 1.855-5.724zm-331.1.015c1.876 9.988-21.06 15.346-5.429 2.738l2.005-1.403zm-20.357 6.072c10.047 7.604-1.651 26.036-2.038 5.47l.743-3.665 1.295-1.806zm337.596 4.8c9.428-.03 16.012 17.022 3.512 5.76-.486-.826-6.38-4.333-3.512-5.76zm-356.884.225c3.052 4.144-2.117 5.809 0 0zm249.648 2.896c-7.997 24.422-12.88 49.936-17.804 75.137 10.895-3.562 9.591-30.97 14.912-43.776.7-9.667 10.174-23.301 2.892-31.361zm-219.67 1.75c6.98 7.81-19.022 25.84-5.654 6.812 1.647-2.436 3.036-5.218 5.653-6.812zm53.55 2.311c-5.456 11.78 16.021 18.845 0 0zm232.297 1.19c-10.055 4.058-12.08 33.247-2.395 11.785.13-2.835 7.286-10.465 2.395-11.785zm59.121.77c7.16 17.811-7.714 16.095 0 0zm-363.013 1.794c9.439 5.879 5.222 26.522-.147 7.962-.319-2.504-1.918-5.798.147-7.962zm348.363 1.802c14.061 1.836 9.018 21.39.704 4.783.006-.784-3.16-4.147-.704-4.783zm30.285 3.443c2.914 3.798-2.981 10.367 0 0zm-222.958 2.372c-6.032 14.592-1.173 36.265 7.436 49.334-.312-16.208-1.59-34.545-7.436-49.334zm-139.145 2.342c1.984 9.126-15.057 19.254-4.962 3.826l2.761-2.81 2.202-1.015zm351.498 2.127c6.788 9.104-8.525 19.81-1.854 2.872l.922-2.138zm-52.066 4.602c-8.715 1.518-26.031 38.495-11.069 21.212 2.742-6.299 13.832-14.43 11.069-21.212zm-252.954.003c-6.815 8.108 15.894 23.592 5.853 6.221-1.606-2.342-3.083-5.022-5.853-6.222zm289.153.506c10.782 2.058 12.566 25.156 2.901 7.942-.676-2.193-3.73-5.884-2.901-7.942zm-102.08 1.842c-3.769 15.968-16.832 35.634-13.902 50.165 7.444-14.151 18.668-33.972 13.902-50.165zm-251.924.066c9.697 6.49 4.002 24.299-.746 6.013.674-1.337-1.125-4.763.746-6.013zm144.093 3.372c-8.456 6.994 9.278 32.192 3.701 9.907-1.028-3.117-.773-7.737-3.7-9.907zm-129.954 5.846c6.684 9.603-14.024 29.528-5.931 7.18 1.363-2.737 2.517-6.45 5.931-7.18zm357.142 2.147c6.867 7.583-11.046 19.28-2.813 3.819l1.45-2.796zm-17.722.964c11.527 3.669 8.939 25.716 1.186 6.41-.01-1.883-2.968-4.657-1.186-6.41zm-356.006 2.116c6.746 8.16 8.107 35.947.077 13.165-.745-4.365-.208-8.78-.077-13.165zm330.227 1.501c-16.739 14.792-28.926 34.57-44.244 51-7.364 4.903-20.79 32.063-24.594 24.559 6.215-8.452 16.971-29.74 2.388-12.546-3.572 11.746-19.055 15.467-7.717.105-1.242-7.672-14.406 17.468-12.493 1.016 3.292-10.724-12.317 9.883-11-5.333-3.602-1.881-14.032 9.312-10.19-4.272-4.97-1.205-9.115 12.642-10.34-2.393-12.862 9.296 16.375 16.786 25.855 20.748 21.489 9.975 40.66 25.921 51.16 47.438 14.426 4.572-12.933-22.678 7.92-23.88 8.403-7.209 36.033-22.192 30.469-27.813-15.632 8.426-28.696 23.095-45.487 28.36 11.123-14.12 28.438-24.746 41.807-37.692 7.804-4.052 19.506-23.531 3.782-10.424-17.03 13.76-32.51 30.054-51.511 41.022 14.462-18.912 33.55-34.348 49.106-52.59 9.227-4.929 16.01-23.21 1.961-9.064-19.897 17.61-35 40.413-57.01 55.611 3.75-14.838 23.753-32.526 34.49-47.593 7.286-11.783 25.417-23.615 25.648-36.259zm-303.022 6.527c.012 9.297-6.667 8.447 0 0zm35.455 1.384c3.278 14.988 19.712 27.899 28.705 41.474 7.14 11.082 23.315 23.708 23.762 35.085-21.773-15.406-37.279-37.951-57.058-55.664-8.337 3.808 17.795 24.09 24.389 32.914 6.498 8.857 28.658 24.721 23.786 31.22-20.139-14.304-37.106-32.855-57.582-46.532 2.385 13.36 26.121 24.449 37.352 36.495 7.189 4.325 27.534 24.54 7.336 14.621-5.666-6.769-25.214-12.247-9.946-.839 4.573 5.05 19.576 7.31 10.85 15.334-8.528 7.686-5.446 25.815 2.876 8.583 13.293-25.863 38.595-42.139 64.871-52.699 12.61-4.668-3.48-23.793-2.46-4.983-10.809-.946-8.052-28.627-18.54-27.351 2.062 5.84 13.568 31.984 5.81 27.697-8.3-11.938-15.995-43.342-25.018-43.788 5.259 16.94 17.507 34.27 18.475 50.956-11.82-13.957-17.407-33.678-29.567-46.72-1.836 16.155 16.39 32.359 22.43 48.333-9.852-.809-20.059-28.983-31.558-38.276-8.506 2.107 12.179 22.543 16.058 30.956 6.451 6.297 9.245 22.133-.954 7.853-17.413-20.741-33.823-42.338-51.189-63.087l-2.827-1.581zm311.909 3.488c8.43 8.715-11.38 21.52-3.688 4.128.457-1.623 1.417-4.377 3.688-4.128zm-356.736.813c4.842 9.258-13.45 22.844-4.462 4.634l2.38-3.26 2.083-1.374zm338.262 1.423c7.63 2.721 16.139 22.812 2.362 11.377-1.94-3.113-4.022-7.753-2.362-11.377zM222.458 277.15c11.935 6.032 5.817 20.244-1.287 5.682-.334-1.54-1.417-5.273 1.287-5.682zm14.557 2.502c6.13 5.109-5.894 23.615-2.9 6.163.586-1.938.411-5.33 2.9-6.163zm358.19 1.665c.7 10.17-15.91 14.835-4.105 2.835l2.582-2.057zm-18.655 1.73c8.542 4.257 5.585 26.288.388 7.913-.326-2.067-3.304-6.747-.388-7.913zm-355.144 6.992c10.111.889 14.033 24.671 3.69 8.082-.906-2.07-4.949-5.87-3.69-8.082zm18.674 5.371c6.052 9.662-4.95 25.918-2.422 5.482.771-1.34.46-4.69 2.422-5.482zm350.413 2.051c5.307 8.92-16.12 15.358-3.76 2.482l2.15-1.788zm-17.555.657c11.8 5.486 1.022 26.179-.215 5.384.273-1.516-1.352-4.05.215-5.384zm-347.442 8.514c10.015.402 16.671 19.812 3.92 7.333-.644-1.211-6.992-6.017-3.92-7.333zm19.962 5.521c6.067 7.025-2.929 28.02-3.229 8.41.587-2.791.498-6.827 3.229-8.41zm323.849 0c6.424 8.186-3.647 21.354-1.746 4.283.458-1.29.123-3.6 1.746-4.283zm16.223 2.397c2.812 6.456-17.893 20.733-7.253 5.766 1.882-2.195 3.851-5.726 7.253-5.766zm-354.789 4.605c9.016 3.303 10.39 17.681 14.532 22.756-11.582-4.175-9.415-14.97-16.553-22.305zM562.29 325.2c9.175 6.43-3.013 22.853-2.401 5.069.258-1.191.16-5.028 2.4-5.069zm32.242 1.146c-2.882 8.686-16.193 15.57-3.94 3.173l1.626-1.556 2.314-1.619zm-342.651 3.11c11.185 7.526-2.235 21.714-2.446 3.83l.756-2.705zm326.994.38c4.855 9.097-24.037 18.708-6.37 3.654l3.515-2.503 2.855-1.15zm3.34 10.325c-3.078 7.142-14.248 10.39 0 0zm-28.52.212c8.123 8.54-6.523 26.599-2.653 6.601l1.14-4.187zm-311.157 4.852c13.549 1.492 11.678 15.603.32 3.46-.78-.317-2.577-3.46-.32-3.46zm18.985.947c7.573 8.113-2.95 19.698-1.98 2.499l.954-1.878zm308.092.318c5.012 8.4-22.4 15.763-5.59 3.255l3.373-2.358zm12.78 2.424c-4.018 6.565-22.312 20.268-8.35 7.002 2.692-2.435 5.254-5.06 8.35-7.002zm-35.817 7.131c2.718 16.4-13.292 15.46 0 0zm-293.095 1.621c10.732 3.06 10.272 12.9-.678 3.868-2.268-.358-2.491-5.024.678-3.868zm307.578 1.75c6.252 6.081-23.103 8.425-3.558.53l3.558-.53zm-289.586 1.75c13.514 12.565-5.116 16.796 0 0zm265.305 2.627c3.08 9.893-7.755 20.642-2.243 4.743l2.243-4.743zm-278.826 4.995c10.984-.442 15.7 13.935 2.484 4.714.485.64-6.277-4.718-2.484-4.714zm295.153 1.131c3.329 7.507-24.845 14.66-7.163 3.025l4.064-2.135zm-273.948.875c8.713 5.736 8.695 20.81 1.281 4.377l-1.28-4.377zm240.325 6.39c-1.343 6.749-8.837 11.736-2.188 2.26zm7.625 1.747c3.502 14.49-12.418 18.069 0 0zm-254.904 1.49c27.413 6.915-8.363 7.725 0 0zm19.402.623c14.895 11.382-3.91 18.626 0 0zm249.77 2.878c.066 8.283-22.15 6.536-3.375.642zm-240.054 4.459c7.114 4.872 8.72 21.413-.273 6.119l-.523-3.87zm248.749 1.302c-8.693 8.018-13.837 3.468 0 0zm-269.414 1.241c28.279 7.291-16.051 3.947 0 0zm235.89 0c5.05 8.46-13.92 15.453-1.516 1.203l1.517-1.203zm-203.614 5.252c9.67 5.54 7.507 18.758-.239 4.097.134-.308-1.708-3.914.24-4.097zm189.257 0c5.216 7.22-16.151 15.069-2.915 1.542zm26.443 1.764c-1.1 8.453-21.108 3.965-3.861.694zm-235.184 1.737c12.293-1.157 15.875 11.82 1.544 4.864-2.23-.037-6.998-5.211-1.544-4.864zm30.125 2.56c9.485 1.91 14.002 20.428 2.473 7.221-1.183-1.764-4.609-5.203-2.473-7.22zm164.892 1.118c5.831 8.355-16.42 16.8-4.824 3.76l2.707-2.733 2.117-1.027zm-16.416.014c-3.868 9.307-13.095 8.993-1.565.929l1.565-.93zm38.035 3.34c19.622 3.722-24.479 10.75-4.915.418l2.308-.304 2.607-.114zm-195.779 3.473c26.17 4.842-22.03 3.266 0 0zm25.987 1.959c18.44 7.693 3.316 18.365 0 0zm132.871.253c2.287 8.664-24.517 17.173-6.185 2.685l3.427-1.953 2.758-.732zm22.46 1.385c3.845 8.922-22.981 4.54-2.683.371zm-34.626 1.654c-7.945 11.346-14.143 10.137 0 0zm-136.269 1.75c25.655 3.884-21.725 3.364 0 0zm36.762 1.751c11.049 5.665 4.95 16.896-1.647 3.566-1.604-1.173-.59-4.398 1.647-3.566zm9.875 3.563c9.096.121 15.979 19.943 3.609 7.893-.769-1.282-7.117-6.143-3.609-7.893zm106.488.533c9.659 8.605-26.178 2.896-5.866.718l3.986-.557 1.88-.161zm-76.048.834c8.786 5.709 18.858 10.823 24.069 8.614-3.845 20.442-23.742-1.861-24.069-8.614zm-58.344.55c19.44 5.017-20.952 3.784-2.798.168l2.798-.168zm10.597 5.023c31.985 4.469-16.848 7.422 0 0zm99.95.146c28.148 4.127-19.986 7.393 0 0zm16.753 5.33c8.163.396-4.14 2.576-2.369.366zm-97.867.144c17.141-.217-.356 9.787-1.864.191l1.864-.19zm82.466 1.58c17.021 1.446-18.708.994 0 0zm-55.217 12.205c-1.441 8.576-12.045 6.322 0 0zm63.041 2.321c9.601-2.934 44.769 11.018 18.052 6.973-4.01-1.457-21.633-3.478-18.052-6.973zm-34.515.027c8.15 9.884-6.377 14.69 0 0zm-57.526 1.44c-3.932.887-36.188 10.417-32.85 5.984 10.197-4.827 21.741-5.623 32.85-5.985zm11.39 5.264c-2.226 6.313-25.517 14.452-8.89 4.416 2.88-1.628 5.735-3.353 8.89-4.416zm61.478 6.606c9.528-1.838 28.767 10.074 8.68 5.316-1.436-.056-18.573-5.655-8.68-5.316z"/><path fill="#ffe000" d="M350.793 380.433c-14.65-4.497-6.982-23.43 2.315-29.673 11.011-11.475 24.143-20.971 33.866-33.624-2.087-9.357-14.437-15.55-20.958-23.292-9.131-8.222-17.873-16.986-27.702-24.364-9.874 3.404-17.966 23.95-28.733 14.163-8.227-7.085-17.015-13.947-23.422-22.76 4.54-8.432 11.802-15.003 17.892-22.323l-8.13-10.157 19.041-19.05c4.774 3.46 9.386 10.646 15.67 9.347 7.498-8.698 18.953-14.444 28.54-20.836 9.97 3.488 18.426 12.83 25.115 21.042-6.994 10.884-18.823 17.793-25.826 28.61 1.023 10.527 14.36 15.327 20.76 23.126 9.76 8.006 18.535 17.642 29.483 23.966 10.34-6.524 22.504-6.258 34.295-5.028 9.021 1.045 19.438.438 25.785-3.888 11.868-7.922 15.54-23.458 11.682-36.663-7.41-26.846-21.797-54.838-48.158-67.292-24.26-11.678-52.164-14.617-78.573-10.098-5.02 5.678-10.792-.416-3.444-3.487 20.286-12.863 44.629-19.206 68.624-16.56 19.013 1.813 37.85 7.762 54.208 17.612 10.973 5.037 19.44 14.043 26.712 23.734 9.2 11.332 17.053 24.093 21.153 38.072 3.015 21.314 6.214 45.867-8.52 63.844-15.505 19.794-45.208 25.751-67.727 15.212-5.473-2.612-24.1-7.815-15.993 3.614 14.08 15.957 32.042 28.088 45.755 44.402 6.387 11.53-11.767 24.414-21.01 14.892-16.444-11.506-29.355-27.412-45.855-38.793-16.835 14.145-29.251 33.06-46.668 46.574-3.335.794-6.868.406-10.177-.322zm120.37-85.899c11.533-2.823 19.734-13.078 22.027-24.395 3.66 3.279-10.73 26.25-.054 14.581 4.418-4.945 7.634-17.708 10.071-19.075 2.1 3.06 5.933-4.513 4.78 4.246 4.179-6.372 11.708-14.835 7.727-25.479-2.842-23.067-14.238-47.562-36.53-57.498-4.351-2.373-11.87-5.65-4.7 1.128-.39 4.908-11.027-7.047-9.616-4.654 3.848 6.977 12.915 6.024 16.49 12.337 3.768 8.724-10.796-10.168-4.955.86 3.313 3.228 6.012 11.24-.13 4-1.714-4.638-16.778-16.555-7.671-6.08 3.934 2.916 8.25 15.045 1.31 5.8-18.83-25.652-52.007-35.47-82.568-36.46-5.1-1.047-17.925 3.458-5.798 3.151 20.875.587 42.507 4.797 60.467 15.855 23.259 16.45 41.176 42.053 45.516 70.47 2.82 15.577-6.103 32.765-21.849 37.063-6.249 3.65-19.52.488-22.127 4.224 8.704 3 18.76 1.672 27.61-.074zm27.4-36.72c-.094-14.563 2.557 5.263.222 6.165-.217-2.048-.216-4.11-.222-6.165zm6.423-9.872c-.914-11.326-2.767-22.766-2.101-34.102 9.095 15.126 4.833 32.847 3.717 49.358l-1.616-15.256zm-3.521 1.65c-.372-10.917-6.524-20.86-6.119-31.732 2.836-10.071 10.74 14.397 1.691 2.02.834 7.706 7.44 22.752 6.379 33.894-.253 9.282-1.773-.691-1.951-4.182zm8.737.145c-.222-13.416 2.67 3.659.237 5.522-.23-1.832-.225-3.68-.237-5.522zm-17.542 0c1.305-16.411 1.092 15.862 0 0zm1.738-13.76c-2.192-5.165-1.924-13.593 1.106-3.125 2.361 4.669 2.971 16.448-.608 4.768zm-5.043.17c-2.884-11.19 4.517.157 1.707 3.935-.95-1.107-1.264-2.593-1.707-3.934zm12.492 52.285c-5.336-7.535-4.9 4.271 0 0zm-186.606-7.734c-5.416-6.789-13.97-19.324-22.947-17.26 4.912 6.248 15.79 19.314 22.947 17.26zm192.299-4.593c-1.194-8.841-5.72 13.913-.1 1.614zm-209.818-18.61c3.703-3.743 18.547-12.476 13.04-15.873-7.232 1.495-22.343 13.06-18.756 18.727 2.084-.561 3.914-1.718 5.716-2.855z"/><path fill="#fff" d="M385.45 163.353c-3.578-.898-16.467 3.287-6.227 4.081 20.418.262 41.302 4.22 59.418 13.903 22.893 14.517 39.926 38.144 46.959 64.239 4.138 14.44 1.47 32.744-12.616 40.869-8.998 5.978-20.063 5.391-30.277 6.446 1.422 5.778 13.571 3.524 19.211 3.645 14.173-.094 28.367-9.75 30.98-24.139 1.36.504-3.248 11.122-4.957 15.571 4.804 3.696 9.22-10.5 11.912-14.51 2.456-2.802 1.259-10.162 4.98-5.846 3.555-7.33 1.914 9.273 4.98.573 2.61-6.944 9.798-10.335 6.839-19.32-1.425-19.565-8.797-39.568-23.222-53.268-5.354-4.12-18.653-14.295-22.402-10.832 7.903 9.564-5.925-2.73-7.733-2.613 3.586 9.283 15.621 7.045 18.426 15.767-1.843-3.112-10.39-9.239-6.063-1.557 1.86 2.635 6.74 10.05 1.184 4.068-2.924-2.274-9.818-15.376-12.224-9.271 3.006 2.643 9.316 10.464 8.19 11.746-12.01-16.667-29.89-28.874-49.83-33.992-12.191-3.388-24.827-5.804-37.527-5.56zm117.796 52.16c5.463 10.41 5.523 22.34 4.07 33.713-.401 4.29-.766 12.105-1.27 3.694-1.21-12.382-2.867-25.279-2.8-37.407zm-6.424-.178c4.097 2.072 6.301 12.23.762 4.348-2.523-1.042-2.105-1.359-.762-4.348zm-1.12 4.38c3.78 11.543 7.89 23.521 7.024 35.83-.815-10.804-3.558-21.276-6.633-31.601-.309-1.304-.4-3.438-.392-4.229zm-2.152 9.396c1.853 3.126 5.536 19.44 1.791 8.167-.555-1.908-2.408-8.197-1.79-8.167zm-4.253 2.426c2.082 3.132 2.478 12.383.316 3.47.298.752-1.118-4.84-.316-3.47zm-180.2 9.586c-7.195 3.928-19.222 11.217-18.707 19.668 9.1-1.166 15.556-9.555 21.82-15.736 3.455-3.099.435-4.558-3.114-3.932zm184.136 6.494c.26 4.046-.211 6.195 0 0zm17.56.793c.032 9.424-.166-1.997 0 0zm-11.654 8.619c.057 6.491.138.86 0 0zm-204.804 4.767c-6.96 3.783 7.537 11.244 10.359 15.091 2.558 4.18 15.62 8.986 8.933.242-5.679-5.568-11.417-13.228-19.292-15.333zm212.835 10.887c-4.447 2.342-4.39 14.646.519 6.328.187-1.711 1.202-5.241-.52-6.328zm-8.336 13.025c-5.793 4.998 9.566 4.396.601.062z"/></svg>