<svg xmlns="http://www.w3.org/2000/svg" xml:space="preserve" width="3072" height="2048" viewBox="0 0 812.8 541.867"><path fill="#e00000" d="M0 0h812.8v270.933H0Z" paint-order="stroke fill markers"/><path d="M0 270.933h812.8v270.934H0Z"/><path fill="#fff" d="M67.733 201.698h56.295l21.725 84.254 21.63-84.254h56.106v138.47H188.54v-105.6l-27.109 105.6H129.79l-27.014-105.6v105.6H67.733v-138.47m173.041 73.108h55.917v29.753h-55.917v-29.753m180.88 65.363H306.231c1.322-11.398 5.32-22.103 11.996-32.115 6.737-10.075 19.331-21.945 37.782-35.61 11.271-8.374 18.481-14.734 21.63-19.08 3.148-4.344 4.722-8.468 4.722-12.373 0-4.219-1.574-7.808-4.722-10.768-3.086-3.022-6.99-4.533-11.713-4.533-4.911 0-8.941 1.543-12.09 4.628-3.086 3.086-5.163 8.532-6.234 16.34l-38.537-3.116c1.511-10.831 4.282-19.27 8.312-25.314 4.03-6.108 9.697-10.768 17.001-13.98 7.368-3.274 17.537-4.911 30.51-4.911 13.538 0 24.054 1.543 31.547 4.628 7.556 3.086 13.476 7.84 17.757 14.263 4.345 6.36 6.518 13.507 6.518 21.44 0 8.439-2.487 16.499-7.462 24.181-4.912 7.683-13.885 16.12-26.92 25.314-7.745 5.353-12.94 9.1-15.585 11.24-2.581 2.14-5.635 4.943-9.162 8.407h60.073v31.359m127.986-107.3-38.254 4.722c-1.007-5.352-2.708-9.13-5.1-11.335-2.33-2.204-5.227-3.306-8.69-3.306-6.234 0-11.083 3.149-14.546 9.446-2.52 4.534-4.377 14.231-5.573 29.092 4.597-4.66 9.32-8.092 14.168-10.296 4.849-2.266 10.453-3.4 16.813-3.4 12.342 0 22.764 4.408 31.265 13.224 8.563 8.815 12.845 19.993 12.845 33.53 0 9.132-2.172 17.475-6.517 25.032-4.282 7.556-10.264 13.286-17.946 17.19-7.62 3.841-17.191 5.762-28.714 5.762-13.854 0-24.968-2.361-33.343-7.084-8.375-4.723-15.081-12.248-20.119-22.575-4.975-10.39-7.462-24.117-7.462-41.182 0-24.999 5.258-43.292 15.774-54.878 10.516-11.65 25.094-17.474 43.733-17.474 11.02 0 19.709 1.29 26.07 3.872 6.422 2.52 11.743 6.235 15.962 11.146 4.219 4.912 7.43 11.083 9.634 18.513m-70.84 61.679c0 7.493 1.888 13.38 5.667 17.663 3.778 4.22 8.406 6.328 13.884 6.328 5.038 0 9.257-1.92 12.657-5.761 3.4-3.841 5.1-9.572 5.1-17.191 0-7.808-1.762-13.759-5.289-17.852-3.526-4.093-7.902-6.14-13.129-6.14-5.352 0-9.854 1.984-13.507 5.951-3.59 3.967-5.384 9.635-5.384 17.002m85.01-19.74h55.917v29.752h-55.917v-29.753m68.951-73.108h112.307v25.975c-9.76 8.816-17.915 18.356-24.464 28.62-7.934 12.468-14.2 26.353-18.797 41.654-3.652 11.901-6.108 25.976-7.367 42.222H656.09c3.022-22.607 7.776-41.56 14.262-56.862 6.486-15.302 16.75-31.674 30.792-49.117H632.76v-32.492" font-family="Arial Black" font-size="64" font-weight="400" style="line-height:125%;text-align:start"/></svg>