<svg xmlns="http://www.w3.org/2000/svg" xml:space="preserve" width="3072" height="2048" viewBox="0 0 812.8 541.867"><path d="M0 0h812.8v541.867H0Z" paint-order="stroke fill markers"/><g stroke="#000" stroke-linecap="round" stroke-linejoin="round" stroke-width="9.596"><path fill="#fff" d="M1188.77 610.949V717.45l150.554-.249c16.38-99.636-2.86-181.168-60.486-237.136l-41.73 25.731c36.068 94.033-8.54 105.702-48.338 105.152z" transform="matrix(.43994 0 0 .44236 -117.553 -60.837)"/><path fill="#cbab72" d="M1142.563 1209.354h-35.126V290.646h35.126z" transform="matrix(.43994 0 0 .44236 -117.553 -60.837)"/><path fill="#cbab72" d="M1212.938 1188.135h-35.175v-876.27h35.175zm-35.175 0h-35.175v-876.27h35.175zm-35.175 0h-35.175v-876.27h35.175zm-35.175 0h-35.175v-876.27h35.175zm-35.175 0h-35.176v-876.27h35.176z" transform="matrix(.43994 0 0 .44236 -117.553 -60.837)"/><path fill="#fff" d="M1037.016 1006.719v29.98h172.178v-29.98z" transform="matrix(.43994 0 0 .44236 -117.553 -60.837)"/><path fill="#fff" d="M1037.016 976.83v29.982h172.178V976.83zm.046-74.736v69.125l175.873-373.313v-69.125zm0-385.161v-30.62h175.873v30.62zm0-30.62v-30.62h175.873v30.62z" transform="matrix(.43994 0 0 .44236 -117.553 -60.837)"/></g></svg>