<svg xmlns="http://www.w3.org/2000/svg" xml:space="preserve" width="3072" height="2048" viewBox="0 0 812.8 541.867"><path fill="#402000" d="M0 0v541.867h812.8V0Z" paint-order="fill markers stroke"/><path d="M401.985 467.526c-5.971-10.522-6.732-11.844-17.523-30.475-5.639-9.735-13.5-23.36-17.469-30.279l-7.216-12.579v-77.298h-77.001l-26.683-15.381c-45.068-25.98-52.893-30.554-52.893-30.917 0-.192 6.97-4.372 15.488-9.288s26.43-15.252 39.807-22.969l24.32-14.03h76.962v-77l15.382-26.683c25.98-45.068 30.553-52.893 30.916-52.893.193 0 4.373 6.97 9.289 15.488 4.916 8.518 15.252 26.431 22.968 39.807l14.03 24.32v76.963h77.375l21.39 12.314a95046.801 95046.801 0 0 0 39.937 22.976c10.2 5.864 18.541 10.815 18.536 11.002-.007.187-2.979 2.025-6.607 4.085-10.522 5.971-11.844 6.731-30.475 17.523-9.735 5.638-23.36 13.5-30.279 17.468l-12.579 7.216h-77.298v77.376l-12.314 21.39a94149.355 94149.355 0 0 0-22.976 39.936c-5.864 10.2-10.815 18.542-11.002 18.536-.188-.005-2.026-2.978-4.085-6.607z"/></svg>