<svg xmlns="http://www.w3.org/2000/svg" xml:space="preserve" width="3072" height="2048" viewBox="0 0 812.8 541.867"><path fill="#e00000" d="M0 0h812.8v541.867H0Z" paint-order="stroke fill markers"/><path d="M406.4 67.733a203.2 203.2 0 0 0-203.2 203.2 203.2 203.2 0 0 0 203.2 203.2 203.2 203.2 0 0 0 203.2-203.2 203.2 203.2 0 0 0-203.2-203.2zm0 8.466c107.649 0 194.733 87.087 194.733 194.735 0 107.648-87.084 194.732-194.732 194.732-107.649 0-194.735-87.084-194.735-194.732S298.752 76.199 406.401 76.199zm0 16.934c-98.095 0-177.8 79.705-177.8 177.8 0 98.097 79.705 177.8 177.8 177.8s177.8-79.703 177.8-177.8c0-98.095-79.704-177.8-177.8-177.8zm0 8.467a169.333 169.333 0 0 1 169.333 169.333A169.333 169.333 0 0 1 406.4 440.267a169.333 169.333 0 0 1-169.333-169.334A169.333 169.333 0 0 1 406.4 101.6zm52.912 33.868c-5.402-.057-11.436 1.527-16.26.266-8.683 6.223-7.068 26.743-22.898 18.808-9.707-1.565-21.904 5.445-23.712-7.969-11.155-12.853-24.389 2.382-36.702 3.796-10.688 3.408-23.795 4.701-31.416 13.193.01 8.9-15.833-1.363-20.256 8.623-9.157 10.326 1.938 22.684 13.629 16.816 8.656.653-2.315 12.572 2.937 18.183 5.936 14.065-4.43 25.56-8.416 38.296-5.994 14.823-10.847 31.174-6.82 47.176 1.346 15.033-2.376 30.893 4.564 45.048 4.093 12.747 11.335 26.78 25.569 29.972 12.872 6.045 27.276 7.31 41.292 7.986 13.42 5.616 28.399 7.487 42.736 7.745 11.777 6.39 14.561 27.373 32.412 22.173 17.692-1.199 32.067-14.654 38.622-30.497 5.739-13.47 18.029-27.299 11.804-42.638-7.01-13.428-6.963-31.553-19.53-41.3-12.608-5.27-28.662-5.716-41.293.084-10.144 3.974-8.045 22.248-21.884 17.283-15.009-.905-26.442 11.683-40.43 12.49-9.691-9.902-3.183-30.13-13.28-42.063-9.655-8.295.296-21.527-2.06-32.731 1.147-11.074-1.103-25.106 7.673-33.322 10.904-7.18 30.617-11.157 28.09-28.139-.08-12.905 15.685-7.974 24.267-10.996 14.223 1.073 9.79 19.623 19.16 27.445 6.214 13.223 22.346 7.282 22.232-6.027 4.806-17.884 2.529-36.383.56-54.479-2.57-4.14-6.389-5.177-10.59-5.222zm-6.287 6.447a13.557 13.557 0 0 1 4.047.604c13.37 9.142 4.894 26.925 6.14 40.009 1.726 11.924-11.065 23.536-15.347 7.226-7.458-12.501-6.482-27.934-4.74-41.797 1.466-4.162 5.721-6.037 9.9-6.042zm-63.36 5.31c12.388 8.104-15.45 9.708-4.846.587 1.5.492 3.648.784 4.846-.588zm-25.115 8.247c16.219 4.984-12.36 16.69-1.2.849l1.2-.849zm-12.52 2.958c8.803.546 6.302 20.474-2.315 9.662-5.395-1.852-1.671-7.684 1.427-9.653a6.29 6.29 0 0 1 .888-.01zm64.673.77c5.428.141 11.157 1.634 16.28.084 4.407 14.8-30.954 14.452-25.533 2.073 2.846-1.839 5.995-2.24 9.253-2.156zm-77.573 4.627c13.33 5.088-10.135 16.105-3.682 2.728-.097-2.651 2.926-.758 3.682-2.728zm34.855.022c2.538 9.365 21.445-7.085 22.011 8.25 5.235 13.14.388 29.23-16.012 29.427-6.504.31-25.517 4.471-18.415-7.568.099-9.768 15.648-12.6 18.026-1.636 15.16.764 14.432-25.145-1.427-19.81-2.907-1.107-10.968-6.406-4.183-8.663zm27.117 8.505c3.54 4.419-5.194 4.73 0 0zm-82.24 2.737c7.62-.256 7.276 10.181-2.803 6.866-2.559-.933-2.337-4.213-.946-6.03 1.409-.545 2.66-.8 3.748-.836zm23.565 1.573c7.194 3.46.14 12.309 0 0zm-.546 13.499c16.115 6.048-5.758 26.934-9.418 8.528-2.806-6.529 4.505-8.59 9.418-8.528zm20.307 19.198c-1.818 5.679-10.758 4.396 0 0zm-12.916 1.63c12.93 5.757-10.861 16.809-1.66 23.455-8.215 4.053-6.98-2.755-5.505-6.524-4.034.038-12.842 5.709-6.83-2.418 4.484-5.02 7.734-11.377 13.995-14.513zm13.192 12.06c-1.537 7.11-8.022 2.995 0 0zm-5.035.737c.977 7.213-7.078 7.685 0 0zm-1.63 8.38c8.637 13.698 1.013 29.884.46 44.627-2.396 13.155-11.73 26.82-5.548 40.181.788 5.392-3.335 24.924 4.438 18.959 6.701-6.538 8.177-17.27 9.946-27.225 2.275-8.244-8.918-2.55-3.046-9.432.557-4.627 1.261-23.179 5.557-9.857 3.984 13.375 9.962 30.108-.527 42.095-4.674-.426 2.362 7.639-6.45 6.359-10.762 3.464.888 11.829 1.012 13.313-7.67 5.66-21.01 2.477-28.056 3.408-8.881-11.536-11.712-27.544-8.994-41.67 3.223-7.049.991-14.702 8.961-17.054 3.08-12.107 5.594-24.254 12.342-35.22 4.45-9.241 7.972-18.468 9.905-28.484zm-21.992 1.84c4.726 4.81-6.905 2.713 0 0zm4.316 2.829c-4.54 8.839-8.803 3.078 0 0zm4.789 6.576c-.99 6.098-11.422.925 0 0zm-15.804.142c5.127-.127-1.367 9.316-2.957.72 1.255-.489 2.225-.702 2.957-.72zm12.801 5.246c-3.682 8.92-9.584 1.267 0 0zm-12.743 7.383c.225.007.465.023.72.05-.9 8.654-7.7-.26-.72-.05zm7.205 6.547c-1.32 6.478-8.956 5.272 0 0zm-8.86 2.733c2.996 3.759 1.263 22.474-.637 16.093-.552-6.873-4.947-11.644.638-16.093zm8.824 2.745c-1.07 5.387-9.182 9.893-4.533 1.422 1.346-.897 2.964-1.202 4.533-1.422zm-5.377 18.647c11.812 2.896-7.583 4.766 0 0zm126.459 6.286c.134-.003.274.005.42.026 8.29-.552 5.431 9.892-.73 3.289-2.326-.735-1.702-3.273.31-3.315zm22.202 1.207c11.485 1.437-1.588 4.89-4.662 2.598 1.183-1.423 2.93-2.142 4.662-2.598zm-33.374 5.316c11.07 2.936-7.055 8.816 0 0zm22.153.905c9.148.723 4.023 7.188 0 0zm18.677.098c6.026 2.403 1.429 15.277 6.329 10.814 6.295 10.105-9.922 4.982-5.1-3.168 1.273-3.208-2.617-4.872-1.229-7.646zm-36.91 3.11c13.298 6.311 25.823 19.178 24.06 34.973.715 14.986-1.134 30.258-6.74 44.244 6.157 12.567-17.2 22.735-24.37 13.209-1.55-6.892 8.055 1.292 8.8-6.81 5.19-10.46 10.93-21.387 11.027-33.274 1.358-16.201 1.018-35.362-11.519-47.294-2.094-.986-5.207-3.639-1.258-5.047zm24.773.474c8.303-.075 1.906 6.871 0 0zm-50.97 10.453c1.31-.025 2.646.033 4.01.183 6.356.028 12.685 1.107 19.046.675 10.466 2.824 9.181 22.53-3.475 17.182-4.57 11.96-20.98-2.145-22.629 8.451 2.137 5.08-12.965-2.786-17.78-2.702-5.882-2.82-22.788.767-9.794-5.62 7.812-9.826 17.96-17.923 30.622-18.169zm53.829.647c2.913 5.13 9.841 11.936 6.606 14.963 9.076 2.693-.146 15.476-1.871 4.135.968-7.457-5.98-12.138-4.735-19.098zm18.341 7.397c8.164 2.514 1.661 11.517 0 0zm2.595 8.224c9.445 1.935-2.328 7.485 0 0zm3.273 8.44c6.464 4.913-4.776 17.344-3.518 6.171 1.143-2.075 2.482-4.038 3.518-6.172zm-13.132 1.042c2.172 5.427 1.209 23.452-4.445 19.293.533-5.256-2.654-18.108 4.445-19.293zm-50.091 2.574c5.992-.14 6.075 2.647-1.125 2.448-4.262.708-2.765-1.853-.152-2.38.451-.036.877-.058 1.277-.068zm-46.957 2.52c14.084 4.897 32.034 1.624 43.532 12.177 5.23 7.801-17.134 6.056-6.986 9.279 14.008 1.41-4.741 8.647-10.12 5.116-16.199-1.826-30.897-9.875-47.284-10.609-7.967.047-12.217-6.571-2.056-7.828 7.694-2.292 17.344-1.278 22.914-8.135zm104.564 4.832c9.555 1.333-5.182 15.144.627 3.042l-.153-1.565-.474-1.477zm-42.437 7.78c3.066 4.833-6.665.516 0 0zm-10.47.567c3.81.236 3.492 4.497-1.883.182a6.477 6.477 0 0 1 1.883-.182zm-4.67 1.04c7.777 2.926-6.393 5.31 0 0zm1.252 4.65c3.864 5.66 20.816-.244 13.292 10.97-7.312.438-22.488.39-13.129-9.59l-.163-1.38zm52.663 2.128c4.01 6.614-13.458 6.021-3.265 3.707.544-1.383 1.296-3.744 3.265-3.707zm-18.732 2.404c9.098.325 1.408 9.126 0 0zm12.92 5.868c2.33-.199 1.337 3.284 1.172 4.1-5.304 1.532-10.998 16.523-13.19 10.526 5.858-3.164 4.14-12.863 11.344-14.489.25-.075.474-.12.673-.137zm-13.233 2.411c.375-.003.8.018 1.279.07-1.46 5.713-6.912-.016-1.28-.07zm-26.161 8.527c4.232 3.23-5.951 1.817 0 0z"/><path fill="#fff000" d="M406.4 76.199c-107.648 0-194.734 87.087-194.734 194.735 0 107.648 87.086 194.732 194.735 194.732 107.648 0 194.732-87.084 194.732-194.732S514.049 76.199 406.4 76.199zm0 16.934c98.096 0 177.8 79.705 177.8 177.8 0 98.096-79.704 177.8-177.8 177.8s-177.8-79.704-177.8-177.8c0-98.095 79.705-177.8 177.8-177.8zm47.903 47.715c-13.741-.355-14.99 16.127-13.297 26.54.727 11.428 3.289 26.175 14.463 31.917 9.846-2.667 9.016-17.677 9.306-26.578-.908-10.309 4.53-26.7-7.115-31.746l-1.988-.046a18.42 18.42 0 0 0-1.369-.087zm-66.012 5.252c-17.322.995 7.718 18.962 4.818 3.667-.225-2.226-2.74-3.725-4.818-3.667zm-24.258 8.452c-14.485 6.772 11.142 17.212 6.28 3.58-.441-2.942-4.684-2.29-6.28-3.58zm-11.568 2.713c-16.04 2.066 5.987 23.235 6.828 11.16-2.608-3.425-.568-11.36-6.828-11.16zm80.345.982c-8.042 1.916-31.62-4.886-25.064 10.255 7.927 4.525 25.52 4.089 26.554-6.605-.039-.985-.058-3.65-1.49-3.65zm-57.715 3.606c-14.033 14.202 21.481 8.324 14.708 22.092-3.369 10.076-14.736 5.05-17.883-.85-10.004-.864-19.594 20.536-5.935 20.197 10.16-.502 22.966 1.407 29.48-8.489 7.702-8.199.914-19.533-.4-28.72-5.305-6.004-21.895 4.369-19.97-4.23zm-35.653.9a4.863 4.863 0 0 0-.692.016c-13.23 2.098 3.304 21.305 5.369 7.175 1.286-3.276-1.27-7.025-4.677-7.19zm60.89 8.877c-7.394 7.588 8.638 3.657 0 0zm-84.506 3.263c-12.084 8.364 14.474 11.275 9.144 1.59-2.806-1.52-6.08-1.22-9.144-1.59zm26.423.325c-7.796 6.447 11.05 12.113 2.594 3.033-.81-.72-1.168-2.976-2.594-3.033zm-3.413 13.806a6.128 6.128 0 0 0-.528.04c-17.514 2.814 2.96 29.951 10.282 12.337 2.744-5.63-4.24-12.556-9.754-12.377zm23.61 18.492c-6.387.107-7.306 10.857-.754 4.448.446-.903 3.727-3.977 1.39-4.424a5.95 5.95 0 0 0-.636-.024zm-13.769 2.598c-5.486 3.778-19.835 15.024-11.66 20.24 8.881-5.053.437 11.754-2.619 3.033-6.223.12-1.97 5.75-1.354 5.265-1.793 10.984 6.324-5.217 11.673-1.85 8.676-3.132-2.735-8.39 5.634-13.164 4.715-4.382 7.684-12.894-1.674-13.524zm10.344 11.277-.5.177-.77.496c-5.737 10.068-3.99 23.275-10.152 33.481-7.087 11.692-11.49 24.892-14.173 38.157-10.95 3.741-7.198 14.796-10.256 23.878-3.145 10.092.866 20.023 3.989 29.464 3.988 12.363 17.467 8.87 26.894 8.59 7.802-.406 10.516-8.33 3.282-11.36 6.286-8.187 17.401-15.68 16.694-28.28-.17-9.486-3.233-18.626-5.116-27.831-4.92-9.705-8.39-1.143-7.067 4.906-5.282 9.188 5.59 14.432.823 23.731-1.377 6.521-5.556 17.8-10.274 19.13-.603-13.827-3.903-28.154-.268-41.847 6.207-15.466 7.072-32.35 9.033-48.707.016-8.165-9.713-18.945 1.868-19.697 2.053-9.097-9.847 5.494-4.007-4.288zm-17.44 20.776a.736.736 0 0 0-.414.112c-11.217 1.917 3.462 9.18 2.79 2.03-.697-.125-1.44-2.101-2.377-2.142zm-15.78.941-.188.158c-8.33 8.564 15.662 1.428.187-.158zm14.84 4.585-.826.057c-8.61-.357-3.276 11.849.05 1.932l.775-1.989zm-14.19 7.511c-13.582 8.378 11.548 4.652 0 0zm9.743 5.227c-.155-.01-.427.15-.865.56-7.394 1.342-4.916 10.322.076 3.013-.077-.269 1.461-3.53.79-3.573zm-10.817 4.06a1.12 1.12 0 0 0-.295.03c-7.916 3.7-.775 20.843 1.232 20.405 4.12-4.377-1-12.73 4.877-8.979 3.192-3.902 7.114-11.569-1.85-7.813-2.742 9.141-1.067-3.532-3.964-3.643zm3.037 21.382-.178.227c-5.936 8.399 12.073.183.178-.227zm127.695 6.084c-.324 0-.616.093-.847.337-7.572 9.359 17.812 7.177 3.774.66-.71-.148-1.958-.995-2.927-.997zm20.627.892c-.19 0-.38.009-.566.025-6.38 2.197-2.153 8.87 2.45 5.251 11.201 1.778 4.014-5.29-1.884-5.276zm-33.149 5.505-.197.78c.228 12.086 16.923 17.007 15.542 30.645 2.539 13.866 2.47 28.434-2.354 41.783-2.386 8.476-5.592 19.868-15.503 21.744-1.66 11.83 17.533 9.563 22.79 1.891 5.688-5.472.822-17.959 10.3-16.404-1.516-5.249-8.73 2.337-4.115-6.672 3.94-17.289 6.047-36.773-1.469-53.273-6.944-8.382-16.533-13.851-24.994-20.494zm20.79.776.317.563.137.245c2.223 7.322 11.388 1.995 2.082-.67l-2.537-.138zm21.54.73a2.904 2.904 0 0 0-.475.001c-2.955 3.943-.186 24.79 8.998 17.357-1.768-5.868-6.092-8.12-5.91-15.557-.465-1.013-1.508-1.714-2.612-1.8zm-11.662 3.678c-8.005 1.314 7.62 8.741 2.595.597-.757-.542-1.7-.621-2.595-.597zm-47.004 10.146-1.283.015c-12.89.088-27.237 4.983-33.42 17.161-10.46 2.7-5.8 11.766 2.92 7.066 9.09-.211 22.13 12.513 26.97.502 11.42 1.542 24.568-.815 30.793-11.2 1.613-14.347-16.525-12.972-25.98-13.544zm47.865.908c-.274-.007-.418.202-.368.72 1.029 13.416 12.24 26.603 5.014 39.998 3.081 12.957 11.733 1.705 9.319-5.917-.183-10.554-3.824-20.946-8.427-29.936-.725-.736-4.35-4.835-5.538-4.865zm18.62 6.91c-5.887 7.95 12.3 8.793 2.681 1.09l-2.2-1.05-.48-.04zm3.03 8.309-.228.129c-6.907 9.345 14.199 3.275.228-.13zm2.541 8.898c-6.358 3.39-1.773 10.836-6.06 11.868-4.067 6.952 4.877 12.325 6.064 4.334-1.391-3.553 9.638-14.052-.004-16.202zm-63.702 3.28c-11.875 6.962 15.046 3.588 1.905.964l-.876-.663-1.03-.301zm-46.662 2.986c-6.546 10.118-27.973 1.39-29.045 15.44 15.683 2.586 31.104 6.32 46.297 10.914 8.099.896 24.456 6.257 27.205-1.967-3.67-4.24-10.66-3.736-1.656-5.7 7.99-9.75-10.887-15.863-18.565-14.804-8.002-1.297-16.465-3.184-24.236-3.883zm62.553 12.233c-11.51 5.344 8.452 4.47 0 0zm-10.405.27c-6.472.814-6.284 4.867-4.492 10.986-8.564 10.55 21.847 12.258 17.165.21-3.872-5.05-16.25.368-15.308-9.286 4.178 5.21 10.555.868 2.635-1.909zm49.018 8.227c-7.434 1.263-9.263 12.294-.047 6.225 1.947-1.249 3.69-6.029.047-6.225zm-16.492 2.7-1.137.006c-6.799 4.182 9.388 7.76 3.28.393l-2.143-.4zm10.96 5.458c-5.711 2.874-14.845 15.262-11.494 18.4 4.152-.63 21.88-17.919 11.493-18.4zm-39.55 10.93-.185.15c-10.172 7.297 9.745 2.504.185-.15z" paint-order="stroke markers fill"/></svg>