<svg xmlns="http://www.w3.org/2000/svg" xml:space="preserve" width="3072" height="2048" viewBox="0 0 812.8 541.867"><path fill="#e00000" d="M0 0h812.8v541.867H0Z" paint-order="stroke fill markers"/><path d="M571.622 378.953c-5.354.13-52.655 1.306-62.398 3.683-6.921 1.698-19.485-1.306-23.742-2.612a4.1 4.1 0 0 0-5.223 2.612 4.048 4.048 0 0 0 2.611 5.224 84.86 84.86 0 0 0 21.209 3.473 28.417 28.417 0 0 0 6.974-.757c7.496-1.828 46.308-3.082 60.622-3.421a4.1 4.1 0 0 0 4.022-4.18 4.127 4.127 0 0 0-4.231-3.996z"/><path fill="#fff" d="M417.703 67.745c-23.01 0-35.548 10.84-40.824 16.951a25.179 25.179 0 0 0-11.127-4.858c-11.126-1.88-22.932 3.265-31.577 13.739a53.492 53.492 0 0 0-11.519 40.354c-11.623 7.34-22.462 19.406-22.462 38.943a59.186 59.186 0 0 0 12.04 35.626c-28.991 11.832-47.98 38.082-48.998 39.493-.131.209-.21.417-.314.626v.183a4.231 4.231 0 0 0-.287 1.384v.314a4.048 4.048 0 0 0 .261 1.358 77.887 77.887 0 0 0 37.037 36.567 203.859 203.859 0 0 1-58.611 8.775 4.1 4.1 0 1 0 0 8.176c31.107 0 52.995-6.634 72.297-12.485 14.026-4.231 26.119-7.836 38.708-7.836 26.12 0 39.18 13.06 39.388 13.373l8.697 8.54a4.1 4.1 0 0 0 2.926 1.202 4.127 4.127 0 0 0 2.925-1.201 3.996 3.996 0 0 0 0-5.746l-1.985-1.96V236.71a2.037 2.037 0 0 1 4.075 0v59.5a4.153 4.153 0 0 0 8.28 0v-16.743a52.891 52.891 0 0 0 11.178 8.907 4.205 4.205 0 0 0 5.694-1.385 4.048 4.048 0 0 0-1.384-5.616 39.7 39.7 0 0 1-15.489-15.932v-11.258l18.754-.835 9.037 28.286a4.205 4.205 0 0 0 5.224 2.613 4.075 4.075 0 0 0 2.612-5.224l-8.358-26.12 12.85-.574 14.888 26.12a4.153 4.153 0 0 0 3.63 2.089 4.1 4.1 0 0 0 3.605-6.06l-12.877-22.671 26.328-1.176 18.545 29.854-3.16 1.385a4.022 4.022 0 0 0-2.221 5.224 4.127 4.127 0 0 0 3.814 2.611 4.336 4.336 0 0 0 1.593-.313 208.229 208.229 0 0 0 7.836-3.578h.208a143.655 143.655 0 0 0 48.765-39.936 3.709 3.709 0 0 0 .313-.653 2.09 2.09 0 0 0 .21-.418l-.053.078a4.466 4.466 0 0 0 .235-1.436v-.21a3.918 3.918 0 0 0-.313-1.175 2.377 2.377 0 0 0-.236-.444c0-.156-.156-.34-.26-.47a126.076 126.076 0 0 0-65.742-39.44 35.914 35.914 0 0 0 12.537-26.72c0-15.67-10.056-26.118-14.967-30.14a31.604 31.604 0 0 0 2.456-11.205 38.839 38.839 0 0 0-14.862-30.534 48.738 48.738 0 0 0-24.264-10.16v-.287a51.22 51.22 0 0 0-45.056-24.918zm-.235 8.097.079.13a43.384 43.384 0 0 1 34.712 16.194 90.45 90.45 0 0 0-18.283 1.515h-.706s-.157 0-.235.13a3.239 3.239 0 0 0-.705.445 1.384 1.384 0 0 0-.261.157 77.573 77.573 0 0 1-6.687 5.641c-3.474-8.723-9.899-13.686-18.283-13.686a25.936 25.936 0 0 0-21.574 10.343 31.343 31.343 0 0 0-3.187-6.086c3.657-4.57 14.183-14.783 35.13-14.783zM361.281 87.59c1.03.005 2.052.093 3.061.266a16.899 16.899 0 0 1 9.795 5.224 19.537 19.537 0 0 1 2.612 3.735 36.149 36.149 0 0 0-4.728 3.317 16.507 16.507 0 0 0-4.44 7.182 69.19 69.19 0 0 0-18.623 16.22 84.417 84.417 0 0 0-18.492 6.06 45.343 45.343 0 0 1 10.003-30.925l.13.026c5.897-7.13 13.474-11.141 20.682-11.105zm45.766 7.11c6.425 0 9.611 4.988 11.23 10.08a26.772 26.772 0 0 1-15.958 3.449 22.384 22.384 0 0 1-11.113-5.196 18.022 18.022 0 0 1 15.841-8.334zm47.536 5.614c8.985.444 19.38 2.612 26.955 8.933a30.794 30.794 0 0 1 12.015 24.186 24.552 24.552 0 0 1-6.164 15.254c-4.65-27.973-23.9-39.701-27.948-41.79a17.421 17.421 0 0 0-3.395-5.146 15.149 15.149 0 0 0-1.463-1.437zm-16.037 1.698a20.268 20.268 0 0 1 11.336 5.224 11.31 11.31 0 0 1 2.612 9.142c-.784 9.115-11.519 29.88-30.09 38.76-14.286 6.844-29.827 5.224-46.178-5.014a78.827 78.827 0 0 1-2.795-22.515l.157.026c6.4 5.224 16.586 11.988 27.32 12.38a24.813 24.813 0 0 0 18.284-7.078c14.052-13.242 18.283-24.787 19.354-30.925zm-57.775 2.168a32.335 32.335 0 0 0 20.269 12.093 27.79 27.79 0 0 0 4.152.314 40.432 40.432 0 0 0 22.437-7.836 63.992 63.992 0 0 1-14.079 18.283 16.507 16.507 0 0 1-12.354 4.806c-11.492-.392-23.194-10.944-26.955-14.626.261-2.09.523-4.206.889-6.347a9.769 9.769 0 0 1 2.324-4.415h.052a22.462 22.462 0 0 1 3.265-2.272zm79.95 13.582c7.392 5.955 19.302 19.276 19.302 43.593 0 17.63-5.59 30.402-16.193 36.906a50.906 50.906 0 0 0-6.139 1.201 1.384 1.384 0 0 0-.313 0 71.018 71.018 0 0 0-10.578 3.578l-1.489-.34a.705.705 0 0 0-.235 0 .836.836 0 0 0-.235 0c-.392 0-37.559-4.517-57.932-31.185a62.686 62.686 0 0 1-6.06-9.612 57.592 57.592 0 0 0 23.847 5.511l-.052.052a49.417 49.417 0 0 0 21.444-4.884c20.634-9.899 33.223-32.126 34.633-44.82zm-95.047.732a89.693 89.693 0 0 0 2.952 34.868 3.37 3.37 0 0 0 .209.731 70.652 70.652 0 0 0 11.414 22.332c16.246 21.235 41.163 29.567 54.484 32.65a155.93 155.93 0 0 0-24.996 18.282 10.448 10.448 0 0 0-3.761-.731v-.079a11.179 11.179 0 0 0-3.63.68c-3.213-3.866-16.534-17.866-43.28-22.75-13.504-21.313-17.996-40.72-13.269-57.618a55.346 55.346 0 0 1 19.877-28.365zm-23.167 15.174a57.75 57.75 0 0 0-4.388 10.918c-4.963 17.683-1.306 37.35 10.787 58.533-2.821-.21-5.72-.366-8.776-.366a71.488 71.488 0 0 0-19.903 2.821 51.925 51.925 0 0 1-11.962-32.753l.209.026c0-14.522 7.13-25.858 21.235-33.72a68.954 68.954 0 0 1 12.798-5.459zm152.718 18.388a31.891 31.891 0 0 1 10.865 22.88l-.026.105a28.26 28.26 0 0 1-15.384 24.526 137.23 137.23 0 0 0-14-1.41c6.373-7.157 11.727-18.598 11.727-36.802v-2.116a40.928 40.928 0 0 0 6.818-7.183zm-25.78 54.014a126.364 126.364 0 0 1 17.317 1.202l-29.906 37.037-12.98.57 17.942-37.973a38.29 38.29 0 0 1 7.627-.836zm26.615 2.821a124.614 124.614 0 0 1 16.481 4.806l-20.373 29.096-24.316 1.072 28.208-34.974zm-44.924 1.254-16.586 35.078-18.126.81V232.45a137.15 137.15 0 0 1 34.712-22.305zm-112.887.81h1.724a100.454 100.454 0 0 1 11.037.615l13.045 34.645h-18.231l-7.575-35.26zm-8.45.87 7.406 34.39h-19.25l-17.474-22.331a78.67 78.67 0 0 1 29.319-12.06zm30.6 1.219c21.469 4.675 32.36 15.671 35.234 19.015v14.156h-22.645l-12.59-33.171zm159.952 3.84a125.731 125.731 0 0 1 10.787 5.432l-10.761 19.224-17.84.784 17.814-25.44zm17.813 9.742A121.192 121.192 0 0 1 555.115 240l-25.048 1.123 8.097-14.496zm-244.517 2.116 13.677 17.473h-32.23a130.804 130.804 0 0 1 18.553-17.473zm261.494 19.328a142.087 142.087 0 0 1-14.6 13.921l-9.69-12.85 24.29-1.071zm-34.268 1.515 13.19 17.473a133.05 133.05 0 0 1-15.906 10.03l-16.56-26.641 19.276-.862zm-176.068 4.754h18.283l-13.399 22.749a103.536 103.536 0 0 0-22.253 3.474l.105-.105 17.264-26.118zm-71.41.025h34.66l-14.6 20.896a73.133 73.133 0 0 1-20.06-20.896zm99.41.027h23.141v11.1a39.179 39.179 0 0 1-16.141 16.324l-.027.027a74.204 74.204 0 0 0-20.503-4.623l13.53-22.828zm-54.72.026h16.743L315.42 283.67a1.07 1.07 0 0 0 0 .209l-3.474 1.045h-.078l-1.123-.523a78.017 78.017 0 0 1-10.291-4.701l17.63-25.283zm77.574 25.048v11.727a51.507 51.507 0 0 0-7.496-5.223v-.027a50.384 50.384 0 0 0 7.496-6.477zm29.906 42.659a4.179 4.179 0 0 0-2.925 1.195 4.048 4.048 0 0 0 0 5.772l54.301 53.466 1.202 1.149c4.257 4.1 15.671 14.992 15.671 23.193a6.87 6.87 0 0 1-2.22 5.224 10.448 10.448 0 0 1-7.261 3.213c-5.72 0-11.075-4.885-12.224-5.982-2.403-2.455-4.806-4.57-6.686-6.19-.81-.73-1.49-1.305-1.907-1.723l-17.917-17.657-5.851 5.773 17.891 17.63c.496.496 1.306 1.201 2.272 2.063 3.866 3.343 12.903 11.205 13.06 17.16a5.224 5.224 0 0 1-1.776 3.944 7.836 7.836 0 0 1-5.955 2.612c-4.258-.209-8.567-4.257-9.873-5.798a43.697 43.697 0 0 0-3.996-4.545l-21.522-21.235-5.851 5.773 21.522 21.235a21.653 21.653 0 0 1 6.32 9.35 7.313 7.313 0 0 1-2.611 7.47c-4.075 4.022-10.16 1.123-12.224 0a23.847 23.847 0 0 0-3.63-4.701c-5.015-4.91-17.84-19.146-17.97-19.302a4.179 4.179 0 0 0-5.825-.34 4.048 4.048 0 0 0-.365 5.772c.548.575 13.06 14.549 18.283 19.642a13.739 13.739 0 0 1 3.97 7.235 7.47 7.47 0 0 1-2.325 6.895 4.231 4.231 0 0 1-3.003 1.15c-2.769 0-9.325-1.96-21.862-14.732a4.179 4.179 0 0 0-5.85 0 4.048 4.048 0 0 0 0 5.773c11.335 11.518 20.425 17.134 27.764 17.212a12.302 12.302 0 0 0 8.802-3.552 15.671 15.671 0 0 0 4.832-11.231 19.406 19.406 0 0 0 4.284.496 15.149 15.149 0 0 0 10.943-4.414 16.063 16.063 0 0 0 5.224-10.787 17.134 17.134 0 0 0 4.519.914h.757a16.22 16.22 0 0 0 11.493-5.041 13.295 13.295 0 0 0 4.179-9.978 15.41 15.41 0 0 0-.445-3.055 19.85 19.85 0 0 0 3.344.365h.26a18.127 18.127 0 0 0 13.06-5.615 14.836 14.836 0 0 0 4.65-10.996c0-11.597-12.694-23.769-18.1-28.992l-.079-.053-1.123-1.097-54.301-53.465a4.179 4.179 0 0 0-2.926-1.195zm-169.322 56.871c-8.94-.187-15.274 1.005-15.94 1.132a4.075 4.075 0 0 0-3.239 4.806 4.127 4.127 0 0 0 4.806 3.187c.392 0 38.813-7.287 60.074 19.615a52.708 52.708 0 0 0 6.216 6.608 4.257 4.257 0 0 0 2.795 1.07 4.153 4.153 0 0 0 3.056-1.357 4.022 4.022 0 0 0-.261-5.746 43.567 43.567 0 0 1-5.224-5.564h-.026c-15.215-19.295-37.357-23.44-52.257-23.751z"/><path d="M476 273.903c-25.857 0-47.014 5.223-57.905 14.052-1.358 1.123-3.709 2.794-6.451 4.727-15.828 11.335-45.238 32.361-45.395 54.223-.209 2.324-1.541 22.254 7.6 32.127a17.343 17.343 0 0 0 13.217 5.641 14.94 14.94 0 0 0 11.205-4.336c5.955-6.164 5.433-17.082 4.989-25.884a41.79 41.79 0 0 1 0-9.115c4.806-6.112 15.253-15.15 22.357-15.15a4.075 4.075 0 1 0 0-8.148c-11.858 0-24.891 13.216-28.914 18.283-2.35 2.951-2.115 7.836-1.776 14.522.34 6.686.81 16.22-2.611 19.85a6.582 6.582 0 0 1-5.224 1.777 9.011 9.011 0 0 1-7.104-2.978c-5.851-6.295-5.93-20.895-5.46-26.119v-.26c0-17.788 28.366-38.082 42-47.825 2.951-2.115 5.224-3.761 6.843-5.04 9.35-7.628 29.018-12.198 52.63-12.198 18.283 0 33.25 8.28 42.652 15.227 11.806 8.698 49.078 8.854 53.179 8.854a4.075 4.075 0 1 0 0-8.149h-.392c-14.862 0-40.667-1.959-47.824-7.235-10.447-7.836-27.138-16.846-47.615-16.846zM339.687 380.677c-6.974 0-13.504 6.451-18.754 11.649l-1.018 1.045a77.626 77.626 0 0 0-11.754 14.339c-6.269 10.448-3.787 16.298-.6 19.432a11.31 11.31 0 0 0 8.07 3.396 13.817 13.817 0 0 0 4.1-.731 13.477 13.477 0 0 0 3.11 14.261 14.731 14.731 0 0 0 10.655 4.466 17.108 17.108 0 0 0 4.65-.68 13.634 13.634 0 0 0 13.373 15.882 21.992 21.992 0 0 0 12.093-4.493 12.459 12.459 0 0 0 2.612 11.44 10.108 10.108 0 0 0 7.835 3.448c12.146 0 28.731-18.284 33.563-30.142 3.396-8.332 1.228-12.824-1.201-15.096a11.936 11.936 0 0 0-8.384-3.317v-.105a14.418 14.418 0 0 0-3.788.548 22.932 22.932 0 0 0 2.613-9.611 14.992 14.992 0 0 0-4.65-10.944 12.642 12.642 0 0 0-9.037-3.761 17.317 17.317 0 0 0-6.608 1.436 13.974 13.974 0 0 0-4.91-10.003c-6.609-6.034-14.235-4.049-20.895 0v-1.045a11.44 11.44 0 0 0-3.658-8.41 10.578 10.578 0 0 0-7.417-3.004zm.052 8.097a2.35 2.35 0 0 1 1.698.757 3.291 3.291 0 0 1 1.07 2.612c0 5.015-6.111 13.373-12.25 19.433l-1.488 1.489c-3.213 3.238-9.194 9.298-13.06 9.271a2.925 2.925 0 0 1-2.22-1.018c-2.115-2.063.262-6.843 1.855-9.481a71.906 71.906 0 0 1 10.447-12.746l1.071-1.045c3.5-3.474 9.35-9.272 12.877-9.272zm22.192 8.924c.134-.002.266 0 .397.006 1.393.062 2.596.571 3.635 1.518 1.567 1.436 4.78 4.388-1.333 11.988a188.758 188.758 0 0 0-6.738 6.295 100.689 100.689 0 0 0-15.306 18.78c-3.448 2.873-9.429 6.45-13.921 2.037v-.105c-4.806-4.753 4.205-17.891 15.28-28.73 8.046-7.876 13.83-11.725 17.986-11.789zm21.14 12.337a4.205 4.205 0 0 1 3.16 1.358 6.817 6.817 0 0 1 2.246 5.223c0 7.993-11.257 18.937-16.063 23.508l-1.15 1.123c-.6.575-1.227 1.228-1.906 1.907-4.597 4.649-12.302 12.432-17.917 12.432a5.224 5.224 0 0 1-3.762-1.697h.026c-5.223-5.094 4.336-19.041 16.063-30.612 1.75-1.724 4.075-4.022 6.609-6.216l.34-.262c4.152-3.552 8.801-6.764 12.354-6.764zm14.94 23.69a3.709 3.709 0 0 1 2.612 1.07c.6.575.626 2.743-.758 6.165h.079c-4.493 10.996-18.99 25.021-25.885 25.021a1.959 1.959 0 0 1-1.619-.626c-3.16-3.579 2.142-13.478 12.877-24.056 4.805-4.727 9.56-7.575 12.694-7.575z"/></svg>