<svg xmlns="http://www.w3.org/2000/svg" xml:space="preserve" width="3072" height="2048" viewBox="0 0 812.8 541.867"><path fill="#e00000" d="M0 0h812.8v541.867H0Z" paint-order="stroke fill markers"/><path fill="#ffe000" d="M193.746 33.867 182.836 46.4l-15.292-6.502 8.55 14.248-10.91 12.534 16.193-3.727 8.55 14.248 1.459-16.553 16.193-3.727-15.292-6.502zM33.866 60.28l37.622 70.18H40.716v15.486h36.53v21.541h-36.53v15.584h36.53v30.971h19.356v-30.97h35.438v-15.585H96.602v-21.54h35.438V130.46h-30.177l38.118-70.181h-20.746l-26.404 54.2c-2.118 4.3-3.839 8.337-5.163 12.11h-.397c-1.853-4.7-3.507-8.57-4.963-11.615L56.002 60.28Zm186.6 19.842 2.35 16.45-14.919 7.318 16.37 2.848 2.35 16.45 7.768-14.689 16.371 2.849-11.57-11.928 7.768-14.69-14.919 7.32zm9.252 66.29-4.565 15.979-16.607.595 13.786 9.278-4.566 15.977 13.084-10.243 13.785 9.28-5.698-15.61 13.085-10.242-16.605.595zm-36.852 47.198-10.381 12.975-15.548-5.862 9.133 13.882-10.381 12.975 16.024-4.395 9.134 13.882.771-16.6 16.025-4.395-15.548-5.862z"/></svg>