<svg xmlns="http://www.w3.org/2000/svg" xml:space="preserve" width="3072" height="2048" viewBox="0 0 812.8 541.867"><path d="M0 0v541.867h812.8V0H0z"/><path fill="#fff" d="M406.4 67.733c-112.224 0-203.2 90.976-203.2 203.2 0 112.224 90.976 203.2 203.2 203.2 112.224 0 203.2-90.976 203.2-203.2 0-112.224-90.976-203.2-203.2-203.2zm0 20.32a184 184 0 0 1 30.48 2.544v38.096h-40.64v41.144a100.936 100.936 0 0 0-32.24 8.745l-10.573-18.313 35.195-20.32-26.797-46.414a183.25 183.25 0 0 1 44.575-5.482zm50.8 7.157c24.4 7.042 46.705 19.022 65.757 34.798l-19.042 32.982-35.195-20.32-20.562 35.614a100.95 100.95 0 0 0-31.598-8.447v-20.824h40.64zm-115.253 4.537 18.916 32.763-35.195 20.32 20.813 36.052a102.178 102.178 0 0 0-22.55 22.706l-18.037-10.414 20.32-35.195-46.554-26.878c17.715-17.035 38.857-30.528 62.287-39.354Zm196.285 44.448c17.103 17.786 30.635 39.026 39.46 62.568l-33.683 19.447-20.32-35.196-35.063 20.244a102.179 102.179 0 0 0-22.88-22.794l10.414-18.035 35.194 20.318zm-272.758 10.18 32.982 19.041-20.32 35.195 35.614 20.562a100.951 100.951 0 0 0-8.447 31.6H284.48v-40.64h-53.805c7.042-24.401 19.023-46.706 34.8-65.759zm130.766 35.909v14.374a67.056 67.056 0 0 0-14.835 4.07l-7.188-12.45a80.727 80.727 0 0 1 22.023-5.994zm20.32 0a80.726 80.726 0 0 1 21.37 5.713l-7.192 12.459a67.056 67.056 0 0 0-14.178-3.802Zm38.959 15.892a81.752 81.752 0 0 1 15.387 15.311l-12.449 7.189a67.056 67.056 0 0 0-10.12-10.06zm-98.803.432 7.202 12.476a67.056 67.056 0 0 0-9.834 9.912l-12.443-7.183a81.752 81.752 0 0 1 15.075-15.205zm159.536 12.165 20.32 35.195 47.3-27.31a183.251 183.251 0 0 1 5.408 44.275c0 10.387-.88 20.567-2.543 30.48H548.64v-40.64h-41.145a100.943 100.943 0 0 0-8.618-31.969zm-35.08 20.252a80.72 80.72 0 0 1 5.876 21.748h-14.37a67.056 67.056 0 0 0-3.951-14.562zm-149.708.374 12.458 7.193a67.056 67.056 0 0 0-3.799 14.181H325.75a80.728 80.728 0 0 1 5.714-21.374zm-105.402 1.054h38.098v40.64h41.143a100.937 100.937 0 0 0 8.284 31.223l-18.666 10.778-20.32-35.195-45.874 26.484a183.281 183.281 0 0 1-5.207-43.45c0-10.386.878-20.566 2.542-30.48zm99.688 40.64h14.373a67.056 67.056 0 0 0 3.663 13.788l-12.478 7.204a80.719 80.719 0 0 1-5.558-20.992zm146.925 0h14.373a80.725 80.725 0 0 1-5.713 21.373l-12.459-7.193a67.056 67.056 0 0 0 3.799-14.18zm34.82 0h20.825v40.64h53.802c-7.042 24.401-19.02 46.707-34.796 65.76l-32.984-19.043 20.32-35.196-35.614-20.561a100.943 100.943 0 0 0 8.447-31.6zm-153.667 31.453a67.056 67.056 0 0 0 10.635 10.703l-7.183 12.442a81.749 81.749 0 0 1-15.888-15.964zm104.886.324 12.443 7.184a81.752 81.752 0 0 1-16.202 16.067l-7.182-12.44a67.056 67.056 0 0 0 10.941-10.81zm-191.55 2.786 20.32 35.195 36.206-20.904a102.173 102.173 0 0 0 23.363 23.454l-10.414 18.037-35.195-20.32-26.876 46.553c-17.29-17.98-30.937-39.487-39.753-63.338zm221.703 14.623 18.038 10.414-20.32 35.195 46.551 26.878c-18.05 17.357-39.654 31.048-63.617 39.86l-19.209-33.27 35.195-20.32-20.333-35.22a102.175 102.175 0 0 0 23.695-23.537zm-106.808 3.13a67.056 67.056 0 0 0 14.181 3.8v14.373a80.737 80.737 0 0 1-21.374-5.714zm48.004.237 7.212 12.49a80.72 80.72 0 0 1-20.715 5.446v-14.374a67.056 67.056 0 0 0 13.503-3.562zM364.64 363.58a100.952 100.952 0 0 0 31.601 8.447v20.825H355.6v53.805c-24.402-7.041-46.706-19.024-65.759-34.8l19.042-32.983 35.195 20.32zm82.87.283 10.239 17.734-35.195 20.32 26.997 46.761a183.3 183.3 0 0 1-43.15 5.134c-10.386 0-20.566-.88-30.48-2.543v-38.097h40.64v-41.145a100.942 100.942 0 0 0 30.95-8.164z"/></svg>