<svg xmlns="http://www.w3.org/2000/svg" width="3072" height="2048" viewBox="0 0 812.8 541.867"><path d="M0 0v541.867h812.8V0H0z"/><path fill="#ffe000" d="M203.2 67.733v67.734l67.733-67.734H203.2zm203.2 0-47.895 47.895h30.962v114.425L249.04 89.627l-23.947 23.947L365.519 254H251.095v-30.961L203.2 270.933h-.001l47.895 47.895v-30.96h114.424L225.093 428.292 203.2 406.4v67.733h67.733l-21.892-21.892 140.426-140.426v114.424h-30.962l47.894 47.894h.001l47.895-47.894h-30.961V311.814L563.76 452.24l-21.893 21.893H609.6V406.4l-21.893 21.893-140.425-140.426h114.423v30.961l47.895-47.895-47.895-47.894V254H447.281l140.425-140.426-23.947-23.947-140.425 140.425V115.628h30.96L406.4 67.733zm135.467 0 67.733 67.734V67.733h-67.733z"/></svg>