<svg xmlns="http://www.w3.org/2000/svg" xml:space="preserve" width="3072" height="2048" viewBox="0 0 812.8 541.867"><path d="M0 541.867 812.8 0v541.867z" paint-order="stroke fill markers"/><path fill="#406000" d="M0 0h812.8L0 541.867Z" paint-order="stroke fill markers"/><path fill="#406000" d="M548.64 176.107 508 203.2l67.733 67.733L508 338.667l-67.733-67.734L508 203.2 304.8 338.667l-40.64 27.093L406.4 508l237.067-237.067-94.827-94.826zM406.4 304.8l67.733 67.733-67.733 67.734-67.733-67.734L406.4 304.8z" paint-order="stroke fill markers"/><path d="M406.4 33.867 169.333 270.933l94.827 94.827 40.64-27.093-67.733-67.734L304.8 203.2l67.733 67.733-67.733 67.734L508 203.2l40.64-27.093L406.4 33.867zm0 67.733 67.733 67.733-67.733 67.734-67.733-67.734L406.4 101.6z" paint-order="stroke fill markers"/></svg>