<svg xmlns="http://www.w3.org/2000/svg" xml:space="preserve" width="3072" height="2048" viewBox="0 0 812.8 541.867"><defs><filter id="a" width="1.003" height="1.003" x="-.002" y="-.001" color-interpolation-filters="sRGB"><feGaussianBlur stdDeviation=".364"/></filter></defs><path d="M0 541.867h812.8V0Z" paint-order="stroke fill markers"/><path fill="#fff000" d="M812.8 0H0v541.867Z" paint-order="stroke fill markers"/><g style="mix-blend-mode:normal"><path fill="#0080c0" d="M406.401 135.467v135.466h93.917V135.467Zm0 135.466h-93.918v61.126c12.556 42.9 72.772 72.306 93.918 74.341z" paint-order="markers fill stroke"/><path fill="#e0e0e0" d="M312.484 135.467v135.466H406.4V135.467ZM406.4 270.933V406.4c21.146-2.035 81.362-31.441 93.917-74.341v-61.125z" paint-order="markers fill stroke"/><path fill="#d91315" d="M340.401 135.467 500.165 314.68v17.511c-3.965 17.621-23.802 36.707-23.802 36.707l-163.881-183.54v-49.892Z" paint-order="markers fill stroke"/><path fill="gray" d="m117.647 49.27-7.196 27.424 12.229-12.363-2.516-7.53zm-7.196 27.424 15.835 5.215 5.263-5.943 5.264-5.945zm0 0-9.58 26.523 5.997-4.697 5.997-4.698 7.78 1.587 7.78 1.586zm0 0-28.746 5.772 7.067 2.845 7.066 2.845zm0 0L90.094 55.492l1.069 7.543 1.069 7.543zm76.758 56.979c-4.374.009-7.968 2.17-7.968 2.17l.136 20.239 14.943-20.033c-2.315-1.795-4.82-2.38-7.111-2.376zm-7.832 22.409 23.826 7.415c3.086-7.566-4.734-14.14-4.734-14.14zm0 0 .417 25.055c7.653-.357 9.206-5.022 11.658-8.532zm0 0-23.263 8.882c2.141 7.55 11.797 7.858 11.797 7.858zm0 0-14.678-19.79c-7.329 4.37-4.51 14.45-4.51 14.45zm74.136 45.748-7.196 27.424 12.229-12.364-2.517-7.53zm-7.196 27.424 15.835 5.215 5.263-5.944 5.264-5.944zm0 0-9.58 26.523 5.997-4.698 5.997-4.697 7.78 1.586 7.78 1.587zm0 0-28.746 5.771 7.067 2.845 7.066 2.846zm0 0-20.358-21.202 1.07 7.542 1.069 7.543zm-136.76-18.75c-9.129-.099-16.66 8.778-31.375 7.73l.919 52.983c26.752-3.925 59.432-2.255 83.515-.519l-1.236-52.937c-17.541-.094-26.622-13.087-41.837-3.467-3.723-2.727-6.943-3.757-9.986-3.79zm20.15 1.763c6.9-.021 14.997 6.992 29.043 8.483l-.25 46.125c-21.901-5.784-26.511-11.422-37.25-6.125V217c2.844-3.462 5.543-4.724 8.457-4.733zm-20.164.625c2.914.01 5.613 1.271 8.457 4.733v43.75c-10.739-5.298-15.35.341-37.25 6.125l-.25-46.125c14.046-1.492 22.144-8.504 29.043-8.483z" paint-order="markers fill stroke" style="mix-blend-mode:normal" transform="translate(267.712 130.18) scale(.78013)"/><path fill="#e0e0e0" d="M237.408 21.743c-1.621.01-3.14.719-4.473 2.088-4.034 3.965-1.72 8.514 1.441 10.406l.08 4.355c-.513.703-1.29.55-1.927.247-.653-.31-1.901-2.466-2.833-5.166-.95-2.758-2.95-4.838-3.898-5.202-1.098-.421-4.117.751-8.324 3.23-9.027 5.321-13.329 6.625-17.293 5.243-5.71-1.99-5.33.949.994 4.941.554.35 1.926-.384 2.274.078.348.463.071 1.725.601 1.913 1.061.375 3.008.166 3.508.035s1.015-.535 1.441-.37c1.032 1.09-.103 1.915 1.087 2.741 1.203.288 3.621-.636 4.126-.45 1.187.757.665 2.045 1.994 2.6 1.163.193 3.906-.547 4.44-.427 1.068.24.24 1.646 1.766 1.728 1.926.108 3.134-.65 4.773-1.828.427.105.42 1.886 1.353 2.04.934.152 4.144.129 6.151-1.087l.196 22.367 1.555.847 2.717-.084 1.478-.715-.393-22.18c2.192.363 4.013 1.473 6.265.185.436-.64.592-1.567 1.22-1.531.63.035 1.578.836 2.118 1.066 1.137.486 1.924.966 3.44.39.714-.273.514-1.075.777-1.26.263-.186.988.247 3.467.236 1.16-.005 1.93-.924 2.023-1.206.094-.281.289-.978.69-1.23.4-.252 1.006-.057 1.746.12 1.31.312 3.689.404 3.443-1.403-.067-.492-.045-.6.399-.76.443-.16 1.154-.042 1.625.139 1.067.124 2.584.426 3.658-.07.64-.258-.102-1.187.568-1.567.67-.38 1.867-.235 2.496-.688.63-.452 1.62-1.281 2.139-1.755.519-.474.966-.947 1.305-1.391.338-.445.57-.86.658-1.224.088-.364.033-.677-.2-.91-.186-.186-1.772.073-3.523.575-4.086 1.172-7.36.198-16.724-4.97-4.147-2.29-8.193-3.911-8.993-3.604-.8.307-2.861 2.654-3.71 5.268-.86 2.648-2.001 5.137-2.632 5.492-1.592.896-1.952.538-2.464-.373l-.01-4.326c3.507-2.122 6.472-7.222 1.314-11.284-1.347-.858-2.669-1.276-3.93-1.269zM117.648 49.27l-11.996 9.395-15.558-3.173 20.357 21.202 7.196-27.424zm-7.197 27.424 26.362-6.673-14.133-5.69-12.229 12.363zm0 0 17.974 20.301-2.14-15.086-15.834-5.215zm0 0L95.838 88.156l5.033 15.061 9.58-26.523zm0 0-18.219-6.116-10.527 11.888 28.746-5.772zm135.83-23.514c-.152-.003-.3 0-.442.01-1.71.112-2.715 1.036-2.873 1.702-.245 1.034 1.24 2.78 2.77 3.32 3.141.908 5.603-3.5 5.633 1.841-.006 4.375-3.2 8.545-6.907 10.928-1.625 1.045-3.313 1.467-3.515 2.041l4.322 2.995c.845-.373 2.768-1.79 4.738-3.972 3.127-3.46 4.459-6.92 4.459-11.189 0-.34-.991-3.417-2.134-4.705-1.178-1.328-2.856-2.331-4.553-2.762a6.556 6.556 0 0 0-1.498-.21zm-17.419.504c-2.368.023-5.3.954-6.573 2.844-2.265 3.359-1.892 9.025.72 13.309 1.102 1.808 4.65 5.051 8 7.094 3.35 2.042 7.983 4.233 9.992 5.978 3.153 2.74 3.872 4.39 3.87 8.125-.003 3.198-.736 5.285-2.807 7.996-1.311 1.716-2.607 2.712-2.74 3.34l4.098 2.815c.967-.701 2.098-1.96 3.593-3.92 2.08-2.728 3.879-4.813 4.203-9.3.633-8.753-3.23-12.798-14.23-18.048-9.545-4.556-13.24-8.581-13.24-13.465 0-4.06.732-3.666 2.58-2.664s6.268-.121 5.997-2.535c-.118-1.057-1.62-1.587-3.463-1.569zm1.095 25.094c-.89.352-2.47 1.683-3.649 3.781-4.706 8.374-3.521 16.792 9.01 26.07 7.88 5.836 8.054 8.228 8.05 11.26-.001 1.91-.86 4.879-1.908 6.598-.88 1.442-1.582 2.454-1.863 3.082l3.681 3.24c.705-.297 1.88-1.597 2.93-3.697 4.226-8.448 3.391-16.458-2.718-21.155-1.818-1.397-5.95-4.309-8.688-6.89-4.37-4.121-4.882-5.528-4.882-9.068 0-2.646.794-5.107 2.312-7.16 1.113-1.505 2.311-2.472 2.705-3.014l-4.98-3.047zm8.119 3.553-1.76.055-.813.897v16.12l1.2 1.141 1.737.012.98-1.152v-16.12l-1.344-.953zm-6.018 25.687c-2.933 2.978-6.698 5.078-6.873 12.479-.175 7.4 6.263 13.917 10.03 16.748 3.765 2.83 4.868 2.409 5.821 4.9.419 2.91-.303 5.242-.458 10.59.48.487 1.924-1.203 3.585-2.9 3.118-3.188 3.306-10.561.225-13.063-1.03-.836-3.52-3.129-7.406-7.007-3.887-3.88-5.512-5.812-5.61-9.116-.097-3.303 2.455-6.318 4.227-9.207l-3.541-3.424zm4.811 4.212-.653.976v14.478l.94.908 1.284-.022.73-1.074-.034-14.29-.918-.921-1.349-.055zm-64.349 22a14.48 14.48 0 0 0-7.821 2.062l14.678 19.79-.136-20.24s-2.818-1.53-6.72-1.612zm6.857 21.852 19.092-6.724s2.586-8.087-4.149-13.309l-14.943 20.033zm0 0 12.075 16.523c4.363-2.14 9.007-2.443 11.578-9.161l-23.653-7.362zm0 0-11.466 16.74s1.058 2.168 3.072 4.291c2.014 2.123 4.985 4.202 8.811 4.024l-.417-25.055zm0 0-19.189-5.34s-1.554 1.668-2.84 4.28c-1.287 2.612-2.305 6.167-1.234 9.942l23.263-8.882zm19.092-6.724s3.515 2.97 4.897 7.207c-1.293-4.306-4.897-7.207-4.897-7.207zm33.393-12.974c-7.718 5.883 1.316 18.005 2.645 16.478.9-.96-2.643-9.062.909-13.553l-3.554-2.925zm4.9 3.445-.471.535v15.377h2.396c0-5.125.088-10.273.088-15.399l-.732-.496-1.281-.017zm16.751 62-11.995 9.395-15.559-3.172 20.358 21.202 7.196-27.424zm-7.196 27.425 26.362-6.673-14.133-5.69-12.229 12.363zm0 0 17.973 20.3-2.138-15.085-15.835-5.215zm0 0-14.613 11.462 5.032 15.06 9.581-26.522zm0 0-18.219-6.117-10.527 11.888 28.746-5.771zm-116.61-16.987c-2.914.009-5.613 1.271-8.457 4.733v43.75c.671-.331 1.319-.62 1.948-.868 9.435-3.724 14.77 1.57 35.302 6.993l.25-46.125c-8.779-.932-15.234-4.02-20.525-6.201a58.654 58.654 0 0 0-3.045-1.175c-1.949-.678-3.748-1.112-5.473-1.107zm-20.164.625c-1.724-.005-3.524.43-5.473 1.107-.974.339-1.986.738-3.044 1.174-5.292 2.18-11.747 5.27-20.526 6.202l.25 46.125c20.532-5.422 25.867-10.717 35.302-6.993.63.248 1.277.537 1.948.868v-43.75c-2.844-3.462-5.543-4.724-8.457-4.733z" paint-order="markers fill stroke" style="mix-blend-mode:normal" transform="translate(267.712 130.18) scale(.78013)"/><path d="M467.925-395.678a1.965 1.895 0 0 0-1.966 1.895 1.965 1.895 0 0 0 1.966 1.896 1.965 1.895 0 0 0 1.964-1.896 1.965 1.895 0 0 0-1.964-1.895zm-52.5 1.895a1.965 1.895 0 0 0-1.964 1.896 1.965 1.895 0 0 0 1.964 1.895 1.965 1.895 0 0 0 1.966-1.895 1.965 1.895 0 0 0-1.966-1.896zM143.84 138.306v.814h.377c.756 0 1.29.455 1.6 1.366l6.163 17.036h1.512l5.407-14.855a8.06 8.06 0 0 1 .727-1.395c.95-1.435 1.9-2.152 2.85-2.152h.347v-.03h1.525c.136 0 .27.04.406.117.407.233.61.552.61.959v15.496c0 .136-.027.27-.085.406-.213.446-.524.669-.93.669h-1.542v.785h7.413v-.785h-1.51a.838.838 0 0 1-.38-.088c-.426-.194-.639-.522-.639-.987v-15.496a.83.83 0 0 1 .088-.377c.174-.466.485-.698.93-.698h1.51v-.785h-13.85v.814h.727c.891 0 1.444.262 1.658.785l.087.581c0 .446-.213 1.25-.64 2.412l-4.594 12.501-5.378-14.854a2.712 2.712 0 0 1-.144-.786c0-.426.204-.64.61-.64h1.309v-.813h-6.164zm27.938 0v.785h1.54a.82.82 0 0 1 .41.116c.406.233.61.552.61.959v15.496c0 .136-.03.27-.088.406-.213.446-.524.669-.931.669h-1.541v.785h7.414v-.785h-1.512a.838.838 0 0 1-.379-.088c-.426-.194-.64-.522-.64-.987v-15.496a.83.83 0 0 1 .088-.377c.175-.466.486-.698.931-.698h1.512v-.785h-7.414zm-79.384.445v.783h.365c.727 0 1.24.438 1.54 1.315l5.929 16.392h1.454l5.205-14.295c.168-.429.4-.875.697-1.341.914-1.38 1.83-2.07 2.744-2.07h.335v-.03h1.466c.13 0 .261.038.392.113.391.224.587.53.587.922v14.911a.987.987 0 0 1-.083.392c-.205.429-.504.644-.896.644h-1.483v.754h7.134v-.754h-1.454a.805.805 0 0 1-.364-.084c-.41-.186-.615-.504-.615-.952v-14.91c0-.131.028-.251.084-.363.167-.448.466-.673.895-.673h1.454v-.754h-13.328v.783h.7c.858 0 1.388.25 1.593.754l.086.56c0 .43-.207 1.204-.617 2.323l-4.42 12.028-5.176-14.294a2.62 2.62 0 0 1-.14-.756c0-.41.197-.615.588-.615h1.26v-.783h-5.932zm-88.014.171v.72h1.414c.125 0 .248.036.373.107.373.213.56.506.56.879v14.213c0 .125-.026.25-.079.375-.195.409-.48.612-.854.612H4.381v.721h6.8v-.72H9.794a.76.76 0 0 1-.346-.08c-.39-.177-.587-.481-.587-.908v-14.213c0-.125.028-.24.081-.346.16-.427.443-.64.852-.64h1.387v-.72h-6.8zm-31.27 30.11v.772h1.52a.79.79 0 0 1 .4.115c.402.23.605.546.605.948v15.28c0 .133-.03.265-.088.4-.21.439-.515.66-.916.66h-1.52v.774h7.31v-.775h-1.491a.822.822 0 0 1-.373-.085c-.42-.191-.63-.516-.63-.975v-15.28c0-.133.029-.258.086-.372.172-.459.477-.69.917-.69h1.491v-.772h-7.31zm8.848 0v.772h1.518c.134 0 .269.038.402.115.402.23.602.546.602.948v15.28c0 .133-.028.265-.085.4-.21.439-.517.66-.919.66h-1.518v.774h7.309v-.775h-1.49a.822.822 0 0 1-.372-.085c-.42-.191-.631-.516-.631-.975v-15.28c0-.133.028-.258.085-.372.172-.459.479-.69.919-.69h1.489v-.772h-7.309zm99.843.42v.798h.37c.743 0 1.267.449 1.571 1.343l6.053 16.73h1.485l5.31-14.588c.17-.438.41-.895.714-1.37.932-1.41 1.864-2.115 2.797-2.115h.344v-.027h1.497a.79.79 0 0 1 .398.112c.4.229.6.544.6.944v15.217c0 .133-.029.267-.086.4-.209.438-.512.656-.912.656h-1.514v.77h7.28v-.77h-1.484a.825.825 0 0 1-.372-.085c-.42-.19-.627-.514-.627-.97v-15.218c0-.133.028-.257.085-.37.171-.458.477-.686.914-.686h1.483v-.77h-13.6v.797h.712c.875 0 1.42.257 1.629.77l.085.573c0 .438-.21 1.227-.63 2.369l-4.508 12.276-5.282-14.588a2.676 2.676 0 0 1-.144-.77c0-.42.2-.63.6-.63h1.285v-.798h-6.053zm27.437 0v.771h1.512c.134 0 .267.036.4.112.4.229.6.544.6.944v15.217c0 .133-.028.267-.085.4-.21.438-.515.656-.915.656h-1.512v.77h7.28v-.77h-1.483a.825.825 0 0 1-.373-.085c-.419-.19-.627-.514-.627-.97v-15.218c0-.133.028-.257.085-.37.172-.458.477-.686.915-.686h1.483v-.77h-7.28zm8.81 0v.771h1.513c.133 0 .266.036.4.112.4.229.6.544.6.944v15.217c0 .133-.029.267-.086.4-.21.438-.515.656-.914.656h-1.512v.77h7.28v-.77h-1.486a.816.816 0 0 1-.37-.085c-.42-.19-.628-.514-.628-.97v-15.218c0-.133.029-.257.086-.37.171-.458.474-.686.912-.686h1.485v-.77h-7.28zm31.841.354v.777h1.527c.134 0 .267.04.402.117.403.23.606.546.606.95v15.352c0 .135-.03.268-.088.402-.21.442-.517.663-.92.663h-1.527v.779h7.344v-.78h-1.497a.827.827 0 0 1-.375-.085c-.423-.192-.634-.518-.634-.979V171.65c0-.135.03-.26.088-.375.173-.461.479-.692.92-.692h1.498v-.777h-7.344zm9.723 0v.721h.779c.499 0 1.016.461 1.553 1.383l4.695 7.602-3.657 5.416c-1.402 2.074-2.794 3.11-4.176 3.11h-.46v.808h6.394v-.809h-.721c-.403 0-.672-.123-.806-.372a.872.872 0 0 1-.144-.519c.02-.71.383-1.593 1.094-2.65l2.91-4.263 3.859 6.365c.115.192.173.443.173.75 0 .46-.163.69-.49.69h-1.297v.808h6.74v-.721h-1.035c-.116 0-.289-.078-.519-.231-.5-.365-.865-.739-1.096-1.123-3.379-5.53-5.08-8.296-5.098-8.296l3.226-4.75.173-.232c1.344-1.92 2.613-2.88 3.803-2.88h.604v-.807h-6.394v.806h.72c.461 0 .75.173.865.52l.027.518c-.077.787-.46 1.68-1.152 2.678l-2.333 3.458-3.628-5.761a1.88 1.88 0 0 1-.231-.434l-.115-.516c0-.307.183-.463.548-.463h1.296v-.806h-6.107zm-137.164.071v.75h1.471c.13 0 .26.036.39.11.388.223.583.528.583.917v14.8a.97.97 0 0 1-.084.388c-.203.426-.5.64-.889.64h-1.47v.75h7.079v-.75h-1.443a.793.793 0 0 1-.36-.084c-.408-.185-.613-.5-.613-.943v-14.801c0-.13.028-.25.083-.36.167-.445.464-.667.89-.667h1.443v-.75h-7.08zm8.57 0v.75h1.47c.13 0 .26.036.39.11.388.223.582.528.582.917v14.8c0 .13-.027.258-.083.388-.203.426-.5.64-.89.64h-1.47v.75h7.08v-.75h-1.444a.793.793 0 0 1-.36-.084c-.407-.185-.612-.5-.612-.943v-14.801c0-.13.028-.25.083-.36.167-.445.464-.667.89-.667h1.443v-.75h-7.08zm8.568 0v.75h1.47c.13 0 .26.036.39.11.389.223.583.528.583.917v14.8c0 .13-.028.258-.083.388-.204.426-.5.64-.89.64h-1.47v.75h7.08v-.75h-1.444a.802.802 0 0 1-.362-.084c-.407-.185-.61-.5-.61-.943v-14.801c0-.13.027-.25.083-.36.166-.445.463-.667.89-.667h1.443v-.75h-7.08zm88.546 37.406v.706h.762c.49 0 .998.452 1.525 1.356l4.603 7.454-3.585 5.307c-1.374 2.033-2.74 3.052-4.095 3.052h-.452v.79h6.268v-.79h-.704c-.396 0-.66-.124-.792-.369a.854.854 0 0 1-.142-.508c.02-.697.377-1.562 1.073-2.597l2.854-4.179 3.782 6.24c.113.189.17.433.17.734 0 .452-.16.679-.48.679h-1.27v.79h6.606v-.707h-1.016c-.113 0-.283-.074-.509-.225-.49-.357-.846-.725-1.072-1.102-3.313-5.421-4.978-8.131-4.997-8.131l3.162-4.66.168-.226c1.318-1.883 2.562-2.823 3.729-2.823h.591v-.791h-6.267v.791h.706c.452 0 .733.17.846.509l.029.508c-.076.772-.451 1.647-1.13 2.626l-2.286 3.387-3.56-5.647a1.825 1.825 0 0 1-.225-.422l-.112-.509c0-.3.178-.452.535-.452h1.27v-.791h-5.985zm-158.933.069v.78h1.53c.135 0 .272.038.407.115.404.231.606.55.606.954V224.6c0 .134-.03.269-.088.404-.212.443-.52.664-.924.664h-1.53v.781h7.367v-.78h-1.502a.824.824 0 0 1-.375-.086c-.424-.193-.635-.521-.635-.983v-15.4a.83.83 0 0 1 .085-.377c.173-.462.482-.691.925-.691h1.502v-.781H-30.8zm8.8 0v.808h.377c.75 0 1.28.453 1.589 1.358l6.123 16.931h1.502l5.374-14.763c.173-.443.414-.906.723-1.387.943-1.425 1.888-2.14 2.832-2.14h.346v-.807h-6.413v.808h.72c.887 0 1.436.26 1.648.78l.088.578c0 .443-.212 1.244-.636 2.4l-4.565 12.421-5.345-14.763c-.096-.308-.146-.567-.146-.779 0-.424.204-.637.609-.637h1.3v-.808H-22zm47.905.668v.73h.337c.678 0 1.157.41 1.435 1.226l5.526 15.273h1.356l4.847-13.32c.156-.399.374-.817.652-1.251.851-1.286 1.704-1.929 2.555-1.929h.313v-.729H37.14v.73h.652c.799 0 1.294.234 1.485.703l.077.523c0 .4-.19 1.12-.573 2.162l-4.118 11.21-4.822-13.32a2.445 2.445 0 0 1-.13-.704c0-.382.182-.575.547-.575h1.173v-.729h-5.526z" filter="url(#a)" font-family="Caslon" font-size="26.667" font-weight="700" letter-spacing="0" style="line-height:1.25;-inkscape-font-specification:&quot;Caslon Bold&quot;;white-space:pre" transform="translate(343.48 270.63) scale(.2481)" word-spacing="0"/></g></svg>