<svg xmlns="http://www.w3.org/2000/svg" xml:space="preserve" width="3072" height="2048" viewBox="0 0 812.8 541.867"><path d="M0 0v541.867h812.8V0H0z"/><path fill="#0000c0" d="M576.448 413.936h-76.84v-17.014c22.528-13.878 41.738-32.645 56.218-55.06 18.55-28.715 28.356-62.033 28.356-96.35 0-98.027-79.753-177.779-177.782-177.779-98.029 0-177.78 79.752-177.78 177.78 0 34.318 9.806 67.634 28.358 96.351a178.167 178.167 0 0 0 56.217 55.058v17.014h-76.843c-16.623 0-30.098 13.475-30.098 30.099 0 16.623 13.475 30.098 30.098 30.098h106.941c16.624 0 30.1-13.475 30.1-30.098V379.06a30.096 30.096 0 0 0-17.223-27.205c-40.915-19.365-67.352-61.106-67.352-106.342 0-64.834 52.746-117.582 117.582-117.582 64.836 0 117.584 52.748 117.584 117.582 0 45.234-26.437 86.977-67.352 106.342a30.1 30.1 0 0 0-17.221 27.205v64.975c0 16.623 13.475 30.098 30.099 30.098h106.938c16.623 0 30.098-13.475 30.098-30.098 0-16.624-13.475-30.1-30.098-30.1z"/></svg>