<svg xmlns="http://www.w3.org/2000/svg" xml:space="preserve" width="3072" height="2048" viewBox="0 0 812.8 541.867"><path fill="#e00000" d="M0 0h812.8v541.867H0Z" paint-order="stroke fill markers"/><path fill="#ffe000" d="M417.46679 0v254.9032H0v16.03022h433.49351V0Zm-222.9909 36.918202-.0706 12.389561c-13.944-16.563041-44.45284-13.977601-51.40678-2.36362-27.67128 46.203083 20.68174 84.708947 51.4597 110.303067l-.018 69.23266H216.67581l-.0212-69.23266c30.32645-25.59412 77.95709-64.099984 50.70127-110.303067-6.86366-11.613981-36.91753-14.199421-50.64483 2.36362l-.074-12.389561h-11.2889zm-153.998148.7232V227.20307h23.445622l.0882-51.99946c17.213281-22.46936 37.118646-40.15462 59.877006-52.4369l-.28928-85.125308zm267.031718 0V227.20307h23.42796l.0882-51.99946c17.21328-22.46936 37.13628-40.15462 59.89462-52.4369l-.28926-85.125308ZM98.619066 50.048603v73.875207c-11.668181 6.23146-23.334441 17.413-35.002622 30.81516V50.157963Zm267.031714 0v73.875207c-11.66818 6.23146-23.33444 17.413-35.00264 30.81516V50.157963Zm-187.56497 2.84338c8.04156-.23206 16.3826 2.80558 16.37242 9.602621l-.053 80.285186c-18.9111-19.47104-46.99984-48.223684-30.47294-83.643646 1.8254-3.903681 7.8989-6.063681 14.15344-6.244161zm54.70528 0c6.16284.1804 12.14447 2.34048 13.93825 6.244161h-.018c16.2921 35.419962-11.36005 64.172606-30.00025 83.643646l-.0564-80.285186c-.01-6.797041 8.2124-9.834681 16.13608-9.602621zm-97.08802 80.137027c-18.69436-.1084-29.11632 13.57956-32.96356 21.05732-3.178944 6.17726-2.22164 16.12972 0 21.36776 3.07058 7.261 11.06976 12.5002 18.3127 18.31622 8.10992 7.76674 9.0846 12.91648 7.40482 16.92628-.9573 2.2939-2.76142 4.20864-4.60376 6.01488-1.69784 1.66172-6.91798-.94154-6.91798-5.47512 9.97034 5.21994 8.79756-17.62772-5.47158-9.82488-3.8653 2.13134-6.34138 10.6734 2.92452 17.9705 14.23302 12.31844 28.44832 8.36282 42.73552 0 2.33002-1.37272 12.93242-11.39514 15.20826-27.18152h-22.0345c.1626 16.02118-3.93916 27.07414-19.2017 25.03312 1.01148-1.66172 1.8779-3.45158 2.58232-5.34812 2.56484-6.89974 2.81728-15.26162-1.33702-23.82308-2.83576-4.60588-5.65208-9.2301-8.48784-13.83596-.8128-5.6354-1.28242-11.08768 0-17.7165 3.97368-20.62702 24.86972-16.8159 24.16528 0 .0362 5.41866.0732 10.83692.1094 16.27364h24.29582c-.1626-16.79784-9.64542-39.61004-36.72066-39.75454zm130.26325 0c-18.69434-.1084-29.13395 13.57956-32.98121 21.05732-3.17896 6.17726-2.2036 16.12972 0 21.36776 3.07058 7.261 11.09137 12.5002 18.31623 18.31622 8.128 7.76674 9.10224 12.91648 7.42246 16.92628-.9573 2.2939-2.78258 4.20864-4.62492 6.01488-1.69786 1.66172-6.90034-.94154-6.90034-5.47512 9.95226 5.21994 8.79754-17.62772-5.47161-9.82488-3.88336 2.13134-6.35902 10.6734 2.90691 17.9705 14.25106 12.31844 28.46638 8.36282 42.7355 0 2.33004-1.37272 12.9505-11.39514 15.20828-27.18152h-22.01688c.1626 16.02118-3.95678 27.07414-19.21934 25.03312 1.0115-1.66172 1.87792-3.45158 2.58234-5.34812 2.5648-6.89974 2.8208-15.26162-1.3335-23.82308-2.81768-4.60588-5.6556-9.2301-8.49136-13.83596-.8128-5.6354-1.28242-11.08768 0-17.7165 3.99174-20.62702 24.87324-16.8159 24.1688 0 .0362 5.41866.0698 10.83692.1058 16.27364h24.29582c-.1626-16.79784-9.64584-39.61004-36.70302-39.75454z" overflow="visible"/></svg>