<svg xmlns="http://www.w3.org/2000/svg" xml:space="preserve" width="3072" height="2048" viewBox="0 0 812.8 541.867"><path fill="#e00000" d="M0 0h812.8v541.867H0Z" paint-order="stroke fill markers"/><path fill="#fff" d="M406.4 67.733a203.2 203.2 0 0 0-203.2 203.2 203.2 203.2 0 0 0 203.2 203.2 203.2 203.2 0 0 0 203.2-203.2 203.2 203.2 0 0 0-203.2-203.2zm0 33.867a169.333 169.333 0 0 1 169.333 169.333A169.333 169.333 0 0 1 406.4 440.267a169.333 169.333 0 0 1-169.333-169.334A169.333 169.333 0 0 1 406.4 101.6zm-59.038 67.733v31.881h33.256l9.588 26.755L304.8 363.345h38.34l61.152-94.579 41.71 103.767L508 354.966l-9.58-31.616-28.746 9.192-65.386-163.209h-56.926z" paint-order="stroke fill markers"/></svg>