<svg xmlns="http://www.w3.org/2000/svg" xml:space="preserve" width="3072" height="2048" viewBox="0 0 812.8 541.867"><path d="M812.8 0 434.261 252.36l90.01 90.01 6.222-1.19c23.363-4.47 48.716 4.869 64.011 23.578 4.785 5.852 11.232 18.683 13.08 26.032 1.58 6.286 2.22 21.034 1.169 26.987-.424 2.401-1.537 6.805-2.473 9.787l-1.703 5.42-22.096-22.086-22.097-22.085-18.052 18.052-18.052 18.053 22.085 22.096 22.086 22.096-5.42 1.695c-11.857 3.707-24.733 4.178-36.498 1.334-7.744-1.872-20.41-8.243-26.603-13.384-10.267-8.52-18.521-21.258-22.217-34.285-2.168-7.642-2.545-23.845-.744-31.968l1.117-5.035-94.11-94.11-4.485-4.485L0 541.867h812.8V0zM379.491 288.872l54.77-36.513-4.643-4.643-94.655-94.655 1.19-6.22c4.457-23.29-4.676-48.287-23.283-63.73-6.194-5.14-18.859-11.512-26.603-13.383-5.147-1.245-10.507-1.854-15.9-1.836a70.041 70.041 0 0 0-20.597 3.17l-5.42 1.694 22.085 22.097 22.085 22.096-18.052 18.053-18.052 18.052-22.097-22.086-22.096-22.085-1.695 5.42c-5.234 16.742-4.1 33.216 3.38 49.077 8.51 18.042 23.56 30.737 42.969 36.244 7.628 2.164 23.838 2.54 31.955.74l5.035-1.116 89.624 89.624z" paint-order="stroke fill markers"/><path fill="#800020" d="M0 0v541.867l379.491-252.995-89.624-89.624-5.035 1.116c-8.117 1.8-24.327 1.424-31.955-.74-19.41-5.507-34.46-18.202-42.968-36.244-7.48-15.86-8.615-32.335-3.38-49.077l1.694-5.42 22.096 22.085 22.097 22.086 18.052-18.052 18.052-18.053-22.085-22.096-22.086-22.097 5.42-1.694a70.041 70.041 0 0 1 20.597-3.17c5.394-.018 10.754.591 15.901 1.836 7.744 1.871 20.41 8.243 26.603 13.384 18.607 15.442 27.74 40.438 23.284 63.728l-1.191 6.221 94.655 94.655 4.643 4.643L812.8 0H0zm434.261 252.36-54.77 36.512 4.485 4.485 94.11 94.11-1.117 5.035c-1.8 8.123-1.424 24.326.744 31.968 3.696 13.027 11.95 25.764 22.217 34.285 6.194 5.14 18.859 11.512 26.603 13.384 11.765 2.844 24.64 2.373 36.497-1.334l5.42-1.695-22.085-22.096-22.085-22.096 18.052-18.053 18.052-18.052 22.097 22.085 22.096 22.086 1.703-5.42c.936-2.982 2.05-7.386 2.473-9.787 1.05-5.953.411-20.7-1.17-26.987-1.847-7.35-8.294-20.18-13.079-26.032-15.295-18.71-40.648-28.048-64.01-23.578l-6.222 1.19-90.01-90.01z"/></svg>