<svg xmlns="http://www.w3.org/2000/svg" xml:space="preserve" width="3072" height="2048" viewBox="0 0 812.8 541.867"><path fill="#e00000" d="M406.39999 0v541.86682l196.845.00016L209.555 0H0v138.887l812.8 264.09298V138.887L0 402.98099v138.88583h209.55512L603.24499 0Z"/><path fill="#ffc000" d="M406.40001 0v541.86682l-196.845.00016L603.245 0H812.8v138.887L0 402.97998V138.887l812.8 264.09399v138.88583H603.24488L209.55501 0Z"/><path fill="#a00000" d="M406.40012 67.733354 360.77861 208.14188H213.14519l119.43771 86.77664-45.621 140.40698 119.43822-86.77613 119.43823 86.77665-45.62152-140.40801 119.43823-86.77613H452.02164L406.40012 67.733354zm0 33.866676 38.01785 117.00737h123.02767l-99.53142 72.31343 38.01784 117.00633-99.53194-72.31395-99.53193 72.31344 38.01784-117.00582-99.53142-72.31343h123.02715l38.01836-117.00737z"/></svg>