<svg xmlns="http://www.w3.org/2000/svg" xml:space="preserve" width="3072" height="2048" viewBox="0 0 812.8 541.867"><path fill="#e00000" d="M0 0h812.8v541.867H0Z" paint-order="stroke fill markers"/><path fill-rule="evenodd" d="M368.636 67.736c-13.38 2.27 8.873 6.12-5.713 9.381-8.36 1.251-21.696 3.054-25.794 5.411 14.527 2.89-14.403 7.614-10.99 6.044.183-6.075-4.696 3.652-7.804-2.663-4.311 7.6-3.623 21.218-8.74 24.647-9.286-6.426-13.726-13.095-8.592 2.396 4.385 10.193-14.656-4.764-8.178 5.703-14.655-6.575 3.987 7.888-9.031 6.666 5.627 3.029-5.112 14.234-11.49 16.002-9.535-14.075 1.794 22.604-10.335 23.88-17.455 7.391-14.888 30.847-20.765 46.737-13.863 7.751-24.083 14.945-19.758 32.463-4.399 8.19-19.437.801-7.563 13.78-.226 2.093-12.847 1.448-1.361 7.435 7.533 3.044-5.198 18.982-5.99 4.49-8.278 8.757 14.533 30.447-3.332 19.454 4.769 10.64 13.376 15.98 12.115 29.007 4.14 1.693 4.81-6.868 6.08 6.338 2.118 10.138 3.2 10.475-4.027 2.993.522 12.83 16.694 17.068 16.798 19.313 1.59 7.433 2.739 10.754-1.419 7.815-.315 5.608 7.415 23.228 8.782 20.832 5.033-5.963-2.523 12.435-7.131-.05-3.127 11.751 17.23 8.359 13.594 19.064-3.197 13.021 11.97 15.434 10.695 10.406 7.805-.236-3.79 19.281 7.706 8.722 13.755-3.74 22.751 19.641 27.07 20.699-18.06-1.005 15.327 13.918 20.42 17.12 13.854-1.19 22.197 21.23 33.953 18.812-11.797 13.117 30.866-15.685 11.925-4.391 3.413 5.519 11.566-2.173 12.546 4.27 5.981-5.684 16.876-.38 22.01-3.54 8.49 1.906 22.32-.248 10.099-4.3 16.314-5.432.83 15.58 13.801 4.903 9.894-13.984 16.257-4.838 29.337-15.781 9.18-.289 13.369-2.649 12.463-5.453 9.08 2.176 12.98-2.554 5.511-5.787 12.19-9.296 40.78 7.038 50.73-14.038 4.953-13.829-10.5 8.36-4.156-6.826 8.852-6.57 28.022-5.455 26.303-14.095 17.613-5.478 21.702-16.352 23.166-30.156 2.385 12.533 6.639-18.005 5.213-22.93 2.148-12.753 2.89-12.514 4.902-3.076 2.057-11.953 15.225-11.697 9.188-21.89 4.768-15.48.72 10.582 6.856-3.33 13.672-9.437 19.85-21.514 18.494-38.478 8.873 8.806-2.585-18.274-2.279-22.712 8.65-8.916-6.72-12.472.674-15.698-10.06-5.82-.933-12.733-14.774-15.5-3.926-7.578-7.764-20.12-11.709-25.319-9.391-3.698-11.703-18.087-19.761-20.895 16.935 6.092-2.097-5.096-2.668-8.406-14.572 3.996-14.607-5.159-6.18-13.476-14.748 4.987-12.536-2.408-12.08-6.537-3.604-.57 5.705-5.212-4.061-6.606-6.738-7.666-8.67-19.998-.591-5.345 7.472-6.922-19.623-17.948-4.929-15.825-16.62-8.021-23.87-28.772-43.282-32.365-16.737-2.749-28.147-16.181-44.288-16.566-9.12-3.957-3.085 5.664-14.872-1.084-16.19-1.109-31.643-10.239-49.123-9.68l-3.377-1.049-4.288-.939zm8.693 9.282c4.112 7.665.983 15.913 7.234 4.791 9.588 7.629 3.622.372 5.828-3.594 4.212 9.148 4.088 8.134 7.432 3.993 1.329 14.132 5.59-8.97 14.288 4.017 4.376 6.246 13.628-2.04 12.694 3.92 4.74 8.759 16.43-3.831 16.822-.05-10.901 16.177 17.19-9.121 8.57 3.667-2.915 3.585 13.713-1.86-2.49 4.665-8.28 7.355 21.57-6.113 15.223 3.626 9.539-.894 36.04 3.083 30.453 10.102-4.765-8.52-29.462 4.006-9.67.472 8.222-2.058 30.006 13.15 10.134 9.447-16.361 7.157 18.676 1.218 1.695 8.925 8.426-1.853 17.83 9.624 20.053 16.613-.592 1.223 19.23 22.058 14.66 21.552-16.23-6.78 1.526 4.472 1.553 4.005-18.188 2.072 21.814 12.848 3.023 9.152 1.701 4.88 20.97 8.956 25 16.672-17.96-5.455 17.621 11.669 16.672 22.279 6.931 15.87-19.417-12.701-7.74 4.168 7.054 7.697 25.683 16.528 25.082 25.478-12.339-11.823-9.939-2.911-.175 3.735 6.24 7.167-13.809-6.626-15.006-11.968-9.168-14.43-7.761-7.013-7.907.505-5.439-11.283-10.15-9.805-3.043 1.854 8.157 1.43 16.694 15.283 19.954 14.428 13.454 4.223-2.601 6.974-1.27 4.461 14.426 8.883-4.662 1.309-5.363-5.527 2.334 12.08-10.438-20.021-5.519-.941-.727 7.702 13.625 25.977 3.71 19.78-1.758-6.55-18.686-31.673-12.647-10.92 4.24 14.968-3.276 3.085-6.06 1.255.284 6.119 12.577 21.649 1.059 11.706-8.928-8.824 3.175-23.661-8.318-30.442-5.175-4.23 3.006 23.128-5.21 21.324 10.617 13.61-.282 1.766-3.165 4.875-3.275-6.238-15.203-2.212-2.748 4.182-5.859 2.99-5.045 7.785-7.774-4.27-3.506 15.532-1.729-7.173-9.934-6.846 5.913 7.808 1.212 12.557-1.371 18.368 1.982-12.58-8.322-17.714-17.512-18.94-.593-2.61 14.51 2.907 4.835-5.194 5.573 4.512 10.523 11.841 5.241-1.394-6.204-5.008 20.722-11.89 10.618-14.199-7.563 15.164 3.72-16.058-5.892 1.373-10.056 7.194-15.156-8.265-22.91-9.433-3.265-12.268-1.725 3.466-8.405-1.226-8.266 5.672 8.47-8.936-.29-13.421 9.366 1.574-5.523-24.97-4.288-11.383-13.953-15.026 2.029 6.895 2.545 14.078 3.332 3.608-6.956 7.894-5.541 7.064-11.523-5.022 3.146 11.377 8.754 14.743 3.169-1.548 8.75-9.368 12.949-3.975-11.666.437 6.582 4.013-6.032 5.103 16.05 6.546 5.458 6.435 2.487 7.012 12.083 15.383-19.551-16.937-18.726-7.884.55 15.218-4.677-3.11-5.279 12.198-1.737 6.715-4.349 14.73-5.693 18.66 5.198 12.949-8.267-1.495-1.135 12.522-3.194 9.12-4.064 7.52-10.586.01 2.068 9.244 4.748 11.808-3.113 8.278 4.951 16.127-9.21-14.717-17.475-6.494-5.037-7.257-15.864-17.215-8.31-4.11-1.549 5.276-6.89-1.558-2.265 8.44-.162 4.217-14.795-25.28-11.108-8.409-5.254-5.307.095 9.524-5.521-3.544-6.58-9.723-19.275-3.887-4.888-16.27 1.584-8.474 11.847 8.578 3.491-5.756-5.362-12.507-5.234 16.844-16.58 6.118-7.805-5.335-27.141-.15-30.922-11.366-9.37 13.728 4.94-10.796-8.021 3.377-3.888 4.902-17.134 23.346-2.443 9.05 11.955-7.495-5.74 19.396-15.235 11.153-9.238.209-14.176 2.059-14.567-2.22-6.666-4.718-9.3-29.454-6.63-37.3 12.05 2.077 5.979-11.307 17.484-1.475 6.028-.97 27.44-7.482 8.668-5.971-22.396-6.619 24.442-2.092 22.347-4.86-.674 19.203 17.275-13.775 8.266-16.53-17.579-5.08-27.64-20.448-46.602-11.996-4.87 15.155-15.957 2.952-6.585-10.08 7.897-16.048-9.637-24.359 2.98-40.11 10.849-10.986 2.084-16.887-7.697-11.246-20.633 4.063 12.042.76 10.666 1.05-1.753 6.74-28.345 25.183-13.49 15.634 12.076-6.82-.23 14.93-2.498 7.987.229 8.973.473 35.447-8.564 34.226 5.37-6.893 3.595-33.5-.22-11.784-4.773 10.016-4.114 10.82-2.288 11.431-5.141 6.585-15.545 19.358-16.617 11.329-9.002 8.925-14.603 6.439-1.746-.496 11.327-7.18 3.415-16.086-5.075-6.914-13.732 7.978 5.652-.549-5.604 7.716-5.784 15.361-.493-12.568-7.835 3.955-1.522 4.353 1.29 20.262-6.438 21.665-6.764-.526 8.125 12.31 7.976-1.248 3.39-2.755-2.888 8.247 3.039 3.294 12.532 5.853-17.111 22.328-.941 12.934 16.681-.819 3.371-21.532 16.188-30.898-14.242 18.745-5.053-9.136 1.023-3.447 5.389-2.16 2.645 7.387 8.346-1.846 17.836-12.044-8.091 6.848-4.65 9.458-10.006 10.696 11.998-3.3 12.773-3.743-9.335 4.693-4.61 24.735-13.338 11.48-10.027 3.192-5.114 17.165-.568 5.96 8.887 10.038 5.99-2.086 11.775-7.184-2.932 9.825-1.743 6.961 5.953 4.593-.518 6.9-5.903 10.014 3.334 9.405-11.81 3.008-6.635 1.59-2.59 5.975 1.233 2.774-9.745-2.019-4.927 8.127-3.29-2.993-2.185 9.562-11.773 8.42-6.19 4.646 17.82-.735 3.338 3.781-12.079-2.916-17.895 15.28-21.15 15.317 2.149-5.863 10.265-19.896-.241-10.525 18.561-18.297-4.097-.77-1.18-4.841 7.17-5.412 20.031-16.4 3.974-7.639-9.212-5.487-24.163 6.315-22.556 16.011-4.199-3.39-4.37 15.569-5.098-.664-.098-11.107-15.116 19.828-9.01 4.358 9.388-19.443-18.218 10.33-6.296-3.933 10.18-5.706 10.194-25.465 5.722-19.194-2.01 5.947-18.244 19.846-11.893 6.717 5.977-5.33 16.415-18.37 20.97-20.335-3.818-8.697-1.956-11.496-9.546-.1-9.26 12.765-2.946-15.125 5.42-15.596 8.017-7.908-8.441 3.127-5.45-3.763-7.938 3.75 19.306-12.974 10.527 1.59-2.817 18.24 4.508-13.707 11.706-13.49 8.83-7.7 11.863-21.439 1.928-6.151-8.438 8.665-4.913 1.628-1.762-3.113-7.268 3.499 8.382-8.441 5.38-8.908 9.737.017 19.126-17.354 4.855-5.394 13.617-4.677-13.467-16.232-2.18-15.546.857 10.333 20.09 6.073 15.136 12.342 9.307-4.329 14.9-21.037 1.458-9.77-8.535 8.64-22.81-5.362-5.437-9.481 8.886-5.159 18.015-22.327 3.191-7.52 8.232-6.654 4.701-18.677.168-4.084-7.621-11.237 15.438-8.551 11.413-19.064 13.587 10.884 3.134-13.272 11.229-6.417 2.487-5.781 23.738-13.358 8.89-15.323 4.248-5.02 18.302 9.891 13.659 2.05-5.146-4.131 17.355 4.541 2.95-6.512 3.262 1.06 14.592 9.568 6.413 7.144 11.208 7.206-10.095 3.374-2.784 10.46-6.498-3.92-8.614 14.009.806 2.832 11.464-11.131 36.68-18.125 44.064-17.89-2.887-10.352-6.485-13.802-8.305-3.969-8.816-6.004.235 9.134-9.853-3.468-3.45-14.869-27.584-9.936-21.494-2.296 5.324-7.834 10.82-5.974 7.463-1.098 1.168-1.449-16.985 9.403-1.45 9.685-.27-10.56 16.467 4.298 3.643-.892 5.576 5.962 2.63 6.542-4.5 4.858-6.095-1.591-8.604-13.607-10.876-9.278-4.205-8.984 7.175-16.629 12.286-14.753-10.778-14.474 18.97 18.059 22.595 10.728-7.476-4.428-9.517-9.516.668-1.221.8-4.72-10.404-15.183-12.25-6.968-9.173-12.068 4.811-9.198 8.508-2.153-3.662-12.694-.931-9.678 8.156-3.436-6.284-15.183 9.873.313 8.741-14.02zM259.02 262.87c3.943-7.224 14.26-7.375 4.536-2.63 9.058 3.675 22.058-13.7 21.989-3.71 8.174-6.138-7.365 12.375 4.978 2.036 1.892-12.258-4.074-15.689-13.687-12.787-.2 3.49 7.325 5.84-4.143 4.496-7.145 2.157 10.652 3.815-1.879 3.937-6.9-4.201-21.029 11.377-14.079 1.722-10.626-2.194-1.614-24.221-11.592-14.7-2.365 6.259-.689 15.07.794 14.2.152 13.2-7.157-6.149-3.562 9.509.54 4.648-10.468 12.593 2.614 5.29 1.208 2.463 7.527-3.174 14.03-7.363zm67.27-170.555c8.09 1.084-.286 7.143 0 0zm-6.665 3.793c7.926 9.764.286 18.492 0 0zm-.72 7.735c3.266 9.082-.105 12.578 0 0zm60.17 1.798c-5.918 14.74 4.575 12.742 0 0zm-32.625.624c3.535 1.57 1.932 9.38 0 0zm-6.975 3.59c1.105 2.641-1.111 2.852 0 0zm14.44.027c4.342 4.384-.568 4.364 0 0zm94.74 5.99c-14.337.839 9.89 5.323 9.516 8.359 4.356 1.304 26.624 21.242 13.692 20.078 4.01 3.891 13.918 13.8 9.91 4.911 18.647 11.123-8.966-13.531-3.508-13.122 8.017 4.22-14.13-7.022-13.17-14.921-18.561-.47 23.172-4.806-1.264-5.18-5.6 2.74-9.63.59-15.176-.125zm-134.289 28.322c-6.28-.32-22.409 6.084-6.455 3.73 1.851.606 16.102-2.374 6.455-3.73zm-.436 3.816c-8.533 2.007-31.515 5.269-9.82 5.697 3.193-.622 15.19-2.803 9.82-5.697zm-13.258 11.329c-4.429 10.694-6.786-3.413-8.08 10.608-2.685 10.024-9.591 21.84-15.425 27.646 8.926-2.924 17.217-16.585 11.668-4.238-10.012 9.189 14.016-4.23 10.579-12.756 8.101-10.302 3.126-19.89-.154-4.267-1.196-5.777 1.218-12.116 1.412-16.993zm177.939 10.458c7.632 14.311 12.278 18.487 23.516 28.983 3.348-7.137-15.062-25.867-14.844-22.647 3.878 9.296-4.822-9.045-8.672-6.336zm-219.668 9.106c.774 5.068-.903 2.09 0 0zm214.719 4.842c-2.162 9.822 3.24 17.941 8.671 21.071-.795-7.973-2.071-13.324-8.671-21.071zm37.264 11.853c4.982 7.328 11.837 17.06 19.11 21.504.573-5.366-12.586-18.975-19.11-21.504zm-96.278 4.141c-.235 7.251-17.434.078-16.739 6.862-8.063-2.213-9.408 3.283-13.807 2.095 4.571 6.878-16.453-6.183-3.122 5.61 9.785 7.28 18.349 26.64 30.267 12.426 7.221 10.26 21.431-2.984 32.254 6.045 15.99 5.68 10.348-2.317.653-4.857-7.604-8.744-36.406-4.017-33.915-14.136 7.11-6.008 33.783-3.966 12.41-11.423-2.583-1.094-5.186-2.256-8.001-2.622zm97.997 1.447c-3.064 9.914 21.042 30.768 6.651 11.691-3.2-4.553-1.597-9.405-6.65-11.69zm37.96.375c3.813 6.275-1.032 28.938 10.11 14.493 1.172-8.89-3.88-5.463-10.11-14.493zm-268.657 2.197c-4.798 5.544-9.957 4.397 0 0zm153.167 4.115c3.098 6.224 8.898 10.4 16.338 16.315-2.471 8.276 14.879 3.23 1.974-3.238-7.664-2.606 12.944-3.602-2.643-5.94-2.116-1.193-10.95-5.225-15.67-7.137zm-99.64 6.44c11.694-.472 17.308 4.827 1.907 6.129-13.383 3.032-19.394-1.69-1.908-6.129zm-85.484 7.759c-2.367 5.098-6.544 24.088.488 10.432 6.571 3.101 2.141-9.176-.488-10.432zm171.12 2.595c4.92 1.97-5.984 1.834 0 0zm-75.273.875c4.334 1.906-4.393 1.848 0 0zm63.063 9.057c-2.924 3.864 5.776 7.448 12.083 2.322-3.82-1.506-8.016-1.985-12.083-2.322zm18.468 2.272c-11.352 2.115 9.32 1.574 0 0zm-130.288 2.621c-10.831 5.245 6.573 3.324 0 0zm51.268.349c-16.015 1.783 5.829 3.819 0 0zm-43.884.05c5.876.281-3.484 4.327 0 0zm226.904 5.064c9.084 11.007-4.752 19.459-12.798 15.937 8.625 8.175 35.519 6.25 30.06-3.486-4.273 7.706-12.33 7.912-1.797.992.59-11.611-1.566-8.249-4.327-1.253-4.807-1.41-4.873-11.104-11.138-12.19zm-42.755 9.83c7.227 3.285-3.556 9.04 8.952 10.358 7.094 6.286-13.529-3.06-2.488 5.495 11.851 2.916 7.511 1.914-1.078 5.808 8.785-.235 29.215 2.68 7.879 1.451-19.267 2.827 24.16 3.854 1.073 4.837 7.899 2.58 18.865 3.291 16.951 9.657 13.27 1.292-8.67 9.749-4.203-3.093-7.425-6.286 4.18 16.278-5.944 1.816-4.97-8.651-22.235-5.285-12.715-3.068-15.72 5.009-7.702 7.991 4.718 2.937-7.465 5.297-13.035 8.916-19.17 5.613.877 13.949 33.53-7.282 22.157 1.934-20.35 3.91 19.685 1.188 15.727 15.642 11.671 20.7-7.267-14.054-13.61-8.793 14.295 8.857 1.05 3.068-.834 4.652 8.412 3.89 10.706 20.523 1.664 5.332-17.652-13.04 15.678 20.294 8.91 16.609 13.396 19.382-17.906-19.941-5.093 1.076 2.297 10.165 24.095 16.665 19.58 27.377-1.562-10.918-29.55-22.413-10.957-7.966 8.552 9.77-12.67-8.068-.632 4.854-3.21 9.517-14.305-16.74-10.518.727 2.632 3.79 23.345 10.23 17.359 10.56-6.664-.312 2.988 18.814 2.974 2.943 7.812-14.464-1.501 13.683-.356 10.62 9.622 2.299-12.19 2.34-6.062-9.525-2.495-9.258-5.542-5.535-5.3 1.164-4.815-14.737-.023 21.233-4.8 3.107.768-10.31-10.595-16.958-4.641-2.48-7.057-8.825-24.097-4.163-5.999.837 5.474 13.892 2.309 8.136-5.496 3.021-8.944 1.648 6.414 4.422 1.62 12.113 1.155 24.287-6.931-19.278-8.027-5.282-8.436-3.698 15.21 30.705-.918 19.835-3.048-5.639-2.604-25.122-5.438-7.168 5.806 22.047-7.54-.617-10.084 1.758.13 7.946-12.878-7.715-4.609 4.88 5.89 5.025 31.173 15.322 13.408 18.28 2.29-12.417-6.16 9.963-12.003.084-10.735-2.563-21.56 8.528-4.305 3.355-7.447 3.975-20.212 10.785-9.34-2.742 6.28-5.819 2.702-25.271-1.707-5.446 6.103-8.848-13.03-26.07-3.126-8.053 3.092 6.972-14.773-13.612-4.097 3.062-3.433 2.522-17.912-14.513-7.604.627 7.287 5.233 8.528 10.263.325 5.25 11.727 2.925 2.558 23.61 6.104 6.679-6.485 12.734-12.368-6.39-14.338 2.77-4.177-17.079-5.17 8.345 4.613 7.772-14.543 6.31-4.65 2.723-5.584-1.162-7.14-1.9-13.304 5.407-18.255-6.887-4.014-.653 1.798 15.543-4.573 1.947.552 7.303 2.263 19.406-1.433 5.653 1.02-13.146-6.124-30.983 2.424-38.265-7.312 5.997-12.097 9.427-7.224-2.59-10.692 13.413.06-14.376-10.996-16.789-2.098-4.847 5.576-16.431-4.704-5.393 3.1-6.51 4.887-14.956-1.629-4.513 1.735-7.725 7.601-26.082-3.675-9.904-9.065-11.862 8.064 24.041-4.654 22.324-2.765-4.263-1.129-11.316 2.346-8.724.537-8.97-6.622-21.804-6.925-3.756-8.29 16.474 10.866 12.254 15.068 15.977-1.176 12.34 9.203-8.253 4.36 7.119-4.147 14.304 15.682 25.509 8.548 38.47.136-10.783-4.636-22.482-4.513-4.927-5.029 18.807 1.517-20.517-6.35-2.76-1.494-3.375 3.773-20.892-2.88-6.842-2.16 7.156 5.042 21.989-2.546 6.541 1.796-8.634-1.011-17.476-1.455-24.732 14.513-4.05-14.446-12.472-3.718-1.298.745 8.8-1.54 15.17-4.514 3.263 3.137-7.265-10.062 9.893-2.464-1.792 1.833-11.936-15.749 16.603.11 14.244 3.74-14.804 11.792 29.06 3.558 8.097-2.583-6.302-14.127-10.656-12.792-18.208-3.973 6.777 9.853-28.229 1.41-19.9 2.528 7.017-12.55 4.367-5.263 7.534-10.093-7.207-25.183 13.008-7.333 3.143 7.941-2.262-13.332 16.096 1.237 5.82 8.89-7.42 2.054 17.712 8.81 18.54-9.653-.673-4.01-28.394-10.847-9.316-.892 9.916-10.76-10.52-12.102-2.966-6.515-14.907-2.492 13.892 5.177 16.443 5.362 17.045-3.72-.96-5.536-3.09-4.997 3.328-11.358.635-8.952 4.788-16.595.069 18.652 1.13 3.622 8.953 12.439.08-11.832 6.73 5.786 6.407 9.15-7.836-3.97 21.018-3.252 14.533-8.288-2.635-4.454-6.26-4.812-8.998 13.776 4.747-6.089-8.095-1.01-11.912-7.642 9.215-17.204 1.977-26.876 7.835 2.842-12.849-3.006-16.556 6.93-8.004-11.507 6.65 32.463 1.26 11.01-2.772.601-7.441 12.846-20.312-1.693-9.64-6.689 12.788-15.29 5.724-5.143-3.688 10.661-21.499-5.023-4.977-2.898-10.705 6.763-11.203 15.633-16.275 22.927-30.894 9.017-3.792 20.118-27.668 3.416-14.43-8.388-1.245-27.361 20.382-11.464 8.563-8.615 11.087 25.57-13.849 3.596 1.569-4.484 9.947-16.533 16.61-21.964 18.597 7.731-20.063-11.642 12.79-3.093-5.96 2.513-7.868 13.198-6.428 9.25-11.16 10.38-11.279-9.555 5.094-4.028-8.133-6.422-1.443-13.535 16.813-18.67 26.152 6.883-5.21 16.482-17.186 5.63-2.216-8.01 8.34-15.91 3.494-6.657-1.278-6.891-3.25-14.026 12.37-8.572-2.083-7.883 5.89-10.727 12.667-4.234-1.89 1.799-7.865 26.437-6.224 19.962-11.849-9.71 7.745.193-8.583-12.408 1.338-8.27 1.641-20.367 27.618-19.377 7.766-9.107 7.072-6.671-5.158-2.662-4.376 15.22-2.046-12.013-4.245 4.106-8.02 3.578-10.242 12.983-14.702 20.073-28.576-5.82-1.874-14.983 18.325-7.19.137 4.972-4.685 33.464-14.488 15.35-2.622 4.508-1.004-13.073 4.507 1.273 3.954 17.386-3.528-9.21 7.785-8.732 5.597 12.853 6.643.822 3.562-3.754 5.89 8.138 5.616-8.96 16.737 5.702 6.86 9.387-1.999-5.083 4.038 6.285 4.343-9.13 6.751 12.17-2.747-.488-6.513 4.224-11.38 13.36-16.713 2.875-2.714 1.499 1.678 25.293-21.498 11.13-9.4 5.873 3.124 10.09.329.363 6.45 10.123 6.534 16.917-18.02 12.87.849 2.533-6.885 30.217-11.806 24.801-9.036-9.371 5.6 12.22 2.965 14.979-3.147 11.797-5.122 3.036-2.513 2.296 1.164 9.611-2.116 8.907 1.63 5.886 6.675 13.067-11.776 14.098-6.895 13.311 4.578 2.693-8.727 17.959-17.807 10.567-2.53-2.228 13.329 1.28 13.427 4.872.33 7.499-17.427 7.102 21.26 10.175-2.246-6.246-18.43 11.2 10.142 9.19-3.4 2.748 1.329.328-17.293 5.01-1.7 5.9-3.23 1.682 11.824 7.684 2.924 4.245-1.13 8.452-2.778-.224 6.144.905 2.075 15.181-1.709 7.894 8.977-4.838 8.999.607 17.276 2.333 2.994-1.718.47 4.265 25.307 2.874 4.336 5.964 6.535.775-24.325 3.977-5.897-.23 10.229-1.618 32.868 13.384 24.962-17.243-4.408-.425-31.638-18.053-38.599-.179-11.777 17.606 22.328 9.528-.367-19.626-19.097 12.217 2.115 11.529 12.545 1.766-11.443.724-1.847 4.305-3.337 2.758-8.692-19.718-16.26-2.066-10.628 20.289 2.312-6.903 23.966 8.378 17.884 2.677-7.06 5.77 2.485 9.694-10.131 6.19-10.549-2.562 18.746 5.29 4.377.934-8.185-5.394-19.256 4.09-6.634 4.741-10.626.67 16.683 6.989-2.047-4.722-8.41-10.33-7.12 3.071-10.32 3.859-4.404-27.674-17.798-13.058-4.944 6.121 6.652-8.563-.874-.68 7.193-6.762 3.77-35.986-6.425-13.061-4.636 9.951 3.92 8.089-.699 5.694-4.65-1.384-1.584 7.693-27.45-9.08-18.066 6.353-5.569 1.754-6.792-7.311-.597 3.551-6.356 2.262-23.363 10.337-9.209 5.817 8.119-4.666-28.477 4.602-9.382 7.442-9.878-6.334-11.11-4.397-15.844 6.93 1.202 15.131 16.217 8.772 1.219-8.165-10.05 11.782 9.954 2.152-4.268-2.966-6.893-3.246-12.587-9.383-10.48 2.99-3.378 6.948-6.174 9.817-9.533zm-239.596 1.598c6.404 2.295 1.607 5.7 0 0zm10.464 13.775c-5.942 6.09-14.75 3.605 0 0zm311.614 1.124c8.251 6.274-1.48 10.212 0 0zm-347.623 1.298c5.335 2.756-1.216 2.797 0 0zm326.054 1.745c2.298 4.118 4.293 2.371 0 0zm-262.347 2.57c-3.98 8.222 12.42-1.725 3.006 5.054 2.219-.118-10.031 14.957.288 8.573-.461 8.023 7.498-11.371 6.017 2.32-6.746 1.359-10.732 20.343-23.277 13.407-6.83 4.373-17.42 23-3.398 10.235 6.98-.841-16.186 14.774.795 5.752 12.717-10.562 23.319-25.587 39.486-32.082-2.735 9.14-7.214 8.21-13.787 17.683 13.744-10.755 4.984 1.084-.729 1.225 6.617-21.464-7.079 4.885-16.552 6.888-3.753 5.839-22.36 21.67-6.648 11.523 4.903-1.161 17.877-21.359 17.203-10.988-14.43 1.26 10.902 10.673-4.406 5.75-2.192-4.404-13.281 11.406-12.398 9.413 17.12-1.855-2.722 7.85-2.346 7.628-8.627.725-11.947-21.783-10.527-2.568-13.825-13.705 16.68-25.1 5.268-38.432 2.767 7.175 24.388 3.278 17.234-1.495-8.294 9.756 8.097-24.844-.873-13.848-2.38 10.322-1.51-9.09-6.975 6.213-1.105-4.994 6-13.557 12.62-12.252zm259.783 1.35c3.377 5.837-.457 8.168 0 0zm44.037 0c14.8 10.846-7.115 5.732 0 0zm-17.032 1.32c1.613 7.907.1 15.517-4.528 8.13-.674 5.635-8.231 7.948-8.115.979 5.952.524 9.043-5.57 12.643-9.109zm-223.695 2.695c-1.442 3.604-6.511.126 0 0zm248.497 2.521c3.783 4.466-5.23 4.591 0 0zm-259.551.124c5.507.496-4.546.81 0 0zm205.308 3.72c5.12 5.457 1.125 15.93 0 0zm-12.465.374c7.525 4.18 9.377 8.052 0 0zm50.934.15c2.39 8.689-5.01 9.425 0 0zm-253.985.248c-2.885 3.951-7.697 2.14 0 0zm224.595.375c8.204 4.28-4.562 3.474 0 0zm-279.84.25c-.635 8.168-8.617 7.55 0 0zm316.385.248c5.567 8.567-2.855 13.527 0 0zm-278.067 2.87c.708 3.035-6.9 4.361-2.053.873zm131.749 6.71c6.48 11.37 22.46 17.52 28.289 23.801-2.687 5.447-21.397 14.64-10.24 5.758-13.977-1.325 16.466-3.417-.273-8.992-10.324-3.17-14.607-13.313-17.776-20.566zm138.01 1.55c4.977 5.82-13.54 11.332-4.85 2.02 1.93.248 3.48-.897 4.85-2.02zm-141.24 1.198c5.947 6.73 8.486 12.977 6.411 19.449-1.745-12.523-12.061-11.804-6.411-19.45zm83.788 3.119c2.924 5.193-3.282 5.042 0 0zm11.081.972c5.396 8.62 7.53 22.98 1.153 5.665.196-1.99-1.517-3.685-1.153-5.665zm-104.746.176c1.95 5.917 7.542 9.027 4.718 1.181 13.117 11.862-4.473 8.563-4.766-1.131l.051-.053zm-156.216 1.646c5.415 6.81-11.618 2.408 0 0zm-13.745 3.893c-7.57 11.541-13.417 13.83-8.182 4.393-1.259 5.708 6.073-5.062 8.182-4.393zm232.16 2.87c-12.986 5.136 10.287 10.184 10.7 16.66.063-6.841-1.474-17.306-10.7-16.66zm-13.956 3.468c7.06 8.396-13.054 15.23-1.203 6.618 1.923-1.346-.806-5.189 1.203-6.618zm-181.94 4.367c-.607 4.6-9.283 4.557 0 0zm158.809.026c7.818 2.426-10.57 2.594 0 0zm-210.874 5.24c-7.041 7.872 7.236 19.38 3.93 5.296 14.246-.171-8.389 23.116-6.888 1.887-.034-2.495.487-5.85 2.958-7.183zm101.745 1.97c5.41 2.313 26.865-1.206 11.616 4.965-7.885-6.492-14.465 3.666-17.812-3.939 2.246.344 4.147-.11 6.196-1.025zm-17.442 6.213c26.48 6.436-9.513 2.355 0 0zm-71.275 1.373c3.445 12.25-6.59 5.176 0 0zm108.157 3.518c-6.79 3.622-19.923 6.724-16.364 18.964-.38 6.426 9.265-13.142 15.184-15.039-.567-.723 2.553-2.874 1.18-3.925zm13.155 1.049c-18.805-.704-12.393 46.392-9.585 16.17.266-6.045 8.69-11.474 9.585-16.17zm-36.057 3.342c-10.441 2.804-22.74 8.375-30.26 10.127 8.526 2.163-10.908 3.056 3.685 5.27 9.174-4.227 24.382-9.044 29.6-14.173l-1.29-.957zm22.49 1.247c-6.807 6.88-15.298 19.988-21.723 20.04 5.38 4.39 20.712-6.45 7.684 2.282 14.576 1.784-18.171.1-15.592 13.175-3.274 8.184-4.462 18.703 3.31 5.52 6.606-5.055 23.158-3.13 14.243-8.975 9.073-1.114 11.068-13.525 8.77-24.824 1.237-.059 6.42-6.43 3.308-7.218zm114.568.425c2.333 6.548-1.76 8.692 0 0zm-207.668 1.898c-2.922 5.382-9.415 2.24 0 0zm-11.848 2.644c-5.22 7.123 10.965 16.696-1.48 8.613-.746-2.807-1.013-6.54 1.48-8.613zm196.15 2.47c-4.466 7.956 6.803 32.306 8.183 15.022 1.474 9.33 2.941 17.243 4.59 3.12-.946-8.768-11.386-9.518-12.772-18.142zm-181.71 6.49c-1.974 7.32-9.445 22.85 3.12 11.175 8.909-1.678 16.707-15.118 4.111-7.784-5 2.613-3.161 4.76-7.23-3.391zm121.207.422c-6.242 8.566-1.717 28.86 10.145 16.737 5.106-12.794-11.07 9.374-8.092-7.702-.138-2.67 1.046-7.512-2.053-9.035zm-46.624 13.326c8.985 1.003-10.446 1.476 0 0zm-21.544.624c-.864 4.254-5.042 7.107 0 0zm39.085 2.044c-5.23 15.168 33.242 9.174 9.496 6.635-4.125-.585-6.057-4.817-9.496-6.635zm-49.706 6.115c1.497 7.308-17.628 24.135-22.285 35.159-11.993 6.254 9.077-6.599-5.788-1.685-19.655-2.738 23.024-3.38 2.787-5.799 7.978-9.652 17.054-18.546 25.286-27.675zm-57.448 3.196c4.892 2.898-3.693 4.608 0 0zm159.476 0c-6.265 7.934 15.136 27.993-3.526 15.025-5.802 1.54 12.38 11.332 7.322 20.458 8.887-1.788 4.808-25.107-2.875-33.538l-.268-1.46-.653-.485zm94.791.873c-7.563 8.644 18.847 1.744 10.649 9.987-8.65-6.72-24.833 6.679-10.649-9.987zm-186.376.249c-9.1 6.841-8.455 7.896-10.055 21.858 4.374 15.67 20.008-25.99 8.029-12.788.316-2.883 2.54-6.311 2.026-9.07zm-59.682 5.963c12.849 2.558 16.798 6.97 27.765 4.314-2.872 6.037-9.289 10.954-3.885 1.714-8.587 3.977-9.22.048-20.865 4.902 6.21-3.793 4.665-9.342-3.015-10.93zm191.172 6.063c6.003 11.263 21.797 17.457 2.26 18.592 3.081 6.943 27.46 3.855 11.826-8.221-4.75-3.364-9.05-7.468-14.086-10.371zm-51.295 5.69c-6.583 12.46 11.233 18.135 11.655 28.87 13.487-7.488-11.802-26.675-8.465-18.891-2.328-2.86-2.414-6.567-3.19-9.979zm95.384 4.815c-5.218 4.855-15.154 1.757 0 0zm-17.364.1c3.105 2.92-.574 3.212 0 0zm-51.78 2.346c-.827 10.673 11.905 23.512 4.349 5.115-1.834.303-2-5.305-4.35-5.115zm19.492 6.414c.547 3.948-3.002 1.805 0 0zm-35.75 7.785c3.097 2.993-.587 3.17 0 0zm-38.653.1c6.245 6.78.52 14.582 12.695 18.34 5.046 8.292-14.19-12.085-5.283 1.672-7.667-4.562-8.706-18.09-19.953-13.525-9.268-12.457 14.887 5.348 12.541-6.487zm-24.239 3.992c8.842-2.311-7.611 10.056 5.046 6.162-6.938 2.248-13.448 3.98-1.096 7.144 2.086 4.702-7.386 3.268-2.204 7.157-8.919-5.706-8.425 4.849-.334 8.433-16.108 2.574-7.79-27.293-1.412-28.896zm37.987 2.173c3.54 6.957 5.514 24.686 1.126 8.16-3.292-1.813-1.56-5.44-1.126-8.16zm59.372 1.32c1.266 4.07-7.229 3.562 0 0zm-135.445 4.092c-.599 5.263 6.06 5.834-6.385 4.294-3.901-2.524 6.314-3.415 6.385-4.294zm103.052 1.125c.03 5.056-7.719 5.218 0 0zm-93.305 4.39c-.79 3.063-5.718.769 0 0zm75.763 2.57c1.948 2.001-4.647 1.872 0 0zm2.64.128c7.007.1-3.933.974 0 0z"/></svg>