<svg xmlns="http://www.w3.org/2000/svg" xml:space="preserve" width="3072" height="2048" viewBox="0 0 812.8 541.867"><path d="M0 0h812.8v541.867H0Z"/><path fill="#fff" d="M406.4 67.733a203.2 203.2 0 0 0-203.2 203.2 203.2 203.2 0 0 0 203.2 203.2 203.2 203.2 0 0 0 203.2-203.2 203.2 203.2 0 0 0-203.2-203.2Z"/><path d="m318.316 370.832 15.502-52.502.095-8.555-15.702-1.59-20.516-44.388-8.583 45.657H262.87l2.182-6.34 11.757-57.031-39.743-30.632 66.004 1.423 17.142 41.85 11.772-43.12h30.993l-7.065 30.439h18.71l13.3-34.243h-21.46L405.19 84.667 442.98 211.8h-20.688l41.46 90.777-19.695-86.972 35.927.058 22.098 43.958 4.073-44.019 69.577.16-26.75 22.002 16.124 71.982-23.702-1.564-12.318-53.263-4.073 54.532h-21.656L479.01 259.99l9.899 49.461h-15.06v5.7l31.358 107.325-101.328-77.441-101.063 78.298 15.502-52.504zm45.055-99.51v-4.99H351.19l-10.244 43.12h4.164zm67.832 17.842h-48.09l-10.023 20.29h66.388zm-24.026-51.35-14.17 28.519h26.83z"/></svg>