<svg xmlns="http://www.w3.org/2000/svg" xml:space="preserve" width="3072" height="2048" viewBox="0 0 812.8 541.867"><path d="M0 0h812.8v541.867H0Z" paint-order="stroke fill markers"/><path fill="#e00000" d="M266.212 67.733c-18.996 14.982 55.83 100.592 55.83 100.592l-77.375-41.854c-7.644 20.927 71.584 69.915 71.584 69.915l-87.8-14.982c-7.876 22.354 91.507 42.33 91.507 42.33l-65.33 21.878c4.866 18.786 75.986.238 75.986.238l-54.44 37.811C282.197 301.734 351 261.307 351 261.307l-36.216 47.026c15.89 10.93 55.86-37.666 55.86-37.666l-24.08 49.437c11.302 8.408 47.996-43.888 47.996-43.888l10.418 40.5c-58.61-27.348-32.942 36.683-32.942 36.683S317.733 385.6 320.6 381.06c2.866-4.54-1.72-6.474-1.72-6.474s-.63-.872-5.8.946l-1.572-3.468 14.251-3.027-7.043-13.116-10.342 7.88L203.2 178.313l92.418 192.742-12.449 5.885 5.897 10.93 12.613-9.921 1.288 2.072c-11.635 6.432.105 12.81.105 12.81-4.177 5.885 5.324 10.51 5.324 10.51-2.294 5.716 7.862 6.725 7.862 6.725s1.89-1.386 3.705-2.7l4.814 7.745 1.474 7.903 8.845 3.7.984-9.08-6.061-4.709-4.318-9.53c1.064-.694 2.066-1.32 2.843-1.736 3.768-2.018-1.474-7.904-1.474-7.904l.655-3.698 51.017-29.05 12.869.295c-25.326-40.444 21.366-28.012 18.463-23.66 12.741 34.958-14.595 49.464-14.595 49.464l13.66 1.1s.327 18.33-14.12 27.522l14.12 1.045s.327 18.329-14.58 27.577l12.942-2.839 11.302 32.622 11.303-32.622 12.941 2.839c-14.907-9.248-14.579-27.577-14.579-27.577l14.12-1.045c-14.447-9.192-14.12-27.521-14.12-27.521l13.66-1.1s-27.337-14.507-14.595-49.464c-2.903-4.353 43.789-16.785 18.463 23.66l12.87-.296 51.016 29.05.654 3.698s-5.241 5.886-1.474 7.904c.605.324 1.355.783 2.15 1.288-4.212 5.893-7.39 10.907-7.934 13.277-1.853 8.085 8.109 7.134 8.109 7.134l9.909-13.33.052.038s10.156-1.009 7.863-6.726c0 0 9.5-4.624 5.324-10.51 0 0 6.147-3.325 5.193-7.594l11.967-16.098s-20.385-12.128-22.934-27.11c-2.548-14.982 6.487-32.817 31.506-35.195 25.02-2.378 36.37 29.726 36.37 29.726s-1.853-37.574-40.077-39.238c-38.224-1.665-46.332 38.048-43.784 46.61 2.549 8.56 1.622 11.176 15.522 27.585l9.266-2.14s-2.944 3.52-7.078 8.62c-10.736-4.887-11.759-3.41-11.759-3.41s-4.586 1.934-1.72 6.474c2.867 4.54-51.436-27.661-51.436-27.661s25.669-64.03-32.942-36.683l10.418-40.5s36.694 52.296 47.996 43.888l-24.08-49.437s39.97 48.596 55.86 37.666l-36.216-47.026s68.803 40.427 74.826 22.354l-54.44-37.811s71.12 18.548 75.985-.238l-65.33-21.878s99.384-19.976 91.507-42.33l-87.8 14.982s79.229-48.988 71.584-69.915l-77.375 41.854s74.827-85.61 55.83-100.592l-79.46 83.708s1.39-12.604-3.474-12.842c0 0-3.805 11.501-33.618 40.087 0 0-16.381 25.896 8.682 29.932 0 0-12.45 43.552-36.858-3.531l10.484 2.102-6.798-21.776 8.436 2.69-7.125-19.506 9.09 2.86-3.603-8.577-.901-1.093s.328-17.908-3.358-20.683c0 0 14.334 4.204 14.006-4.624l-7.29-.504-18.1-12.36s-9.502-4.372-14.089 2.775c0 0-13.595.084-9.828 15.47 0 0 7.453-6.894 15.808-1.43 8.354 5.466 10.156 19.17 10.156 19.17S411.924 148 406.6 151.782c0 0 18.412 12.542 4.34 53.305-24.407 47.083-36.857 3.531-36.857 3.531 25.063-4.036 8.682-29.932 8.682-29.932-29.813-28.586-33.618-40.087-33.618-40.087-4.865.238-3.475 12.842-3.475 12.842zm146.858 59.288 4.26 1.724s-3.4 3.152.531 4.582c3.932 1.43 4.464-2.144 4.464-2.144l6.962 4.919.328.588-.492.967-4.832-2.144s-14.538 4.919-11.221-8.492zm-30.714 6.936-1.065 2.523s9.255 20.935 18.183 13.62c8.927-7.314 19.657 1.177 19.657 1.177s-2.13-10.509-17.937-6.81c-15.808 3.7-18.838-10.51-18.838-10.51z"/></svg>