<svg xmlns="http://www.w3.org/2000/svg" xml:space="preserve" width="3072" height="2048" viewBox="0 0 812.8 541.867"><path fill="#e00000" d="M0 0h812.8v541.867H0Z" paint-order="stroke fill markers"/><path fill="#fff" d="M406.4 67.733a203.2 203.2 0 0 0-203.2 203.2 203.2 203.2 0 0 0 203.2 203.2 203.2 203.2 0 0 0 203.2-203.2 203.2 203.2 0 0 0-203.2-203.2z" paint-order="stroke fill markers"/><path d="M283.924 405.484c-5.671-2.114-9.75-6.234-11.953-12.072-1.567-4.154-1.322-12.186.486-15.929 2.023-4.186 4.07-6.143 17.48-16.71 22.024-17.36 24.972-19.941 26.531-23.234.755-1.593 1.531-3.88 1.726-5.08.831-5.118.092-4.641 7.197-4.641h6.338l8.95-6.586 8.95-6.585 3.705 2.97c13.18 10.572 30.083 18.838 45.623 22.312 4.83 1.08 7.176 1.265 16.047 1.265 6.718 0 11.453-.255 13.397-.72 5.235-1.254 13.671-4.018 13.671-4.48 0-.592-95.032-97.986-95.61-97.986-.248 0-7.173 6.457-15.39 14.349-8.216 7.892-15.112 14.28-15.324 14.195-.528-.212-36.064-40.475-36.077-40.877-.006-.176 4.839-4.844 10.766-10.373 5.928-5.529 21.205-19.852 33.949-31.829l23.171-21.776 19.232 4.147c10.578 2.28 24.646 5.29 31.263 6.687 6.616 1.397 12.216 2.71 12.442 2.918.341.313-16.213 16.522-36.974 36.204l-4.451 4.22 3.378 3.15c1.858 1.734 25.092 23.789 51.632 49.012 26.54 25.224 48.314 45.86 48.387 45.86.537 0 7.053-8.704 9.15-12.225 18.355-30.806 8.08-68.896-30.28-112.253-11.05-12.49-28.946-29.127-43.441-40.385-3.008-2.336-5.532-4.405-5.609-4.598-.076-.193 1.814-2.29 4.201-4.66l4.34-4.307 3.456 1.255c15.74 5.718 37.851 18.122 54.424 30.532 38.439 28.783 60.051 63.706 64.192 103.722.785 7.586.365 22.572-.81 28.895-3.235 17.423-9.946 32.969-20.335 47.109l-1.844 2.51 14.435 13.727c17.09 16.256 17.53 16.88 17.522 24.93-.004 4.264-.206 5.324-1.532 8.026-1.931 3.94-6.02 7.656-10.11 9.19-2.697 1.011-4.006 1.143-9.68.976-6.225-.184-6.737-.288-9.953-2.02-2.024-1.092-4.762-3.287-6.798-5.451-1.874-1.993-7.81-8.08-13.191-13.525l-9.784-9.9-4.199 2.367c-8.982 5.067-21.967 9.24-33.073 10.628-7.366.92-21.002.4-27.59-1.053-17.063-3.763-35.55-13.15-50.443-25.612-5.214-4.363-11.617-10.735-14.37-14.3l-1.476-1.911-.006 6.404-.006 6.405-1.504.303c-11.8 2.378-23.246 12.613-37.372 33.42-5.67 8.353-7.708 10.5-11.93 12.57-3.945 1.934-10.91 2.317-14.926.82z"/></svg>