<svg xmlns="http://www.w3.org/2000/svg" xml:space="preserve" width="3072" height="2048" viewBox="0 0 812.8 541.867"><path d="M0 0h812.8v541.867H0Z" paint-order="stroke fill markers"/><path fill="#e00000" d="M222.686 472.76c-8.507-3.172-14.626-9.352-17.93-18.109-2.35-6.23-1.983-18.279.73-23.892 3.034-6.28 6.104-9.215 26.218-25.068 33.038-26.038 37.46-29.91 39.798-34.848 1.132-2.39 2.297-5.82 2.59-7.622 1.246-7.676.137-6.96 10.795-6.96h9.507l13.425-9.88 13.426-9.878 5.556 4.457c19.771 15.857 45.124 28.256 68.435 33.467 7.244 1.62 10.764 1.897 24.07 1.897 10.077 0 17.179-.382 20.096-1.08 7.851-1.88 20.507-6.027 20.507-6.72 0-.888-142.549-146.98-143.416-146.98-.372 0-10.76 9.686-23.085 21.525-12.325 11.838-22.668 21.42-22.986 21.292-.792-.317-54.096-60.713-54.116-61.314-.008-.265 7.259-7.267 16.15-15.56 8.891-8.293 31.806-29.778 50.923-47.744l34.757-32.665 28.848 6.22c15.866 3.422 36.968 7.936 46.893 10.032 9.926 2.095 18.324 4.065 18.664 4.377.512.469-24.32 24.783-55.461 54.306l-6.677 6.33 5.067 4.726c2.787 2.6 37.639 35.682 77.449 73.517 39.81 37.835 72.47 68.791 72.58 68.791.806 0 10.58-13.057 13.726-18.339 27.531-46.208 12.12-103.344-45.42-168.379-16.575-18.734-43.42-43.69-65.163-60.578-4.511-3.504-8.297-6.608-8.412-6.897-.116-.29 2.72-3.434 6.3-6.988l6.512-6.463 5.182 1.883c23.611 8.577 56.777 27.183 81.637 45.798 57.657 43.175 90.077 95.559 96.287 155.583 1.178 11.379.548 33.859-1.213 43.343-4.854 26.134-14.92 49.453-30.503 70.663l-2.766 3.765 21.65 20.592c25.638 24.382 26.295 25.317 26.284 37.393-.006 6.398-.31 7.987-2.297 12.04-2.897 5.91-9.03 11.483-15.166 13.785-4.045 1.517-6.008 1.715-14.52 1.463-9.338-.275-10.105-.431-14.929-3.03-3.037-1.637-7.144-4.93-10.197-8.176-2.811-2.99-11.715-12.119-19.787-20.287l-14.676-14.851-6.297 3.552c-13.474 7.6-32.952 13.858-49.611 15.94-11.049 1.382-31.503.601-41.385-1.578-25.595-5.645-53.323-19.724-75.663-38.418-7.822-6.545-17.426-16.102-21.556-21.451l-2.214-2.866-.008 9.607-.008 9.607-2.256.454c-17.7 3.567-34.87 18.92-56.057 50.13-8.506 12.53-11.562 15.75-17.895 18.854-5.92 2.903-16.366 3.477-22.39 1.231z"/></svg>