<svg xmlns="http://www.w3.org/2000/svg" width="3072" height="2048" viewBox="0 0 812.8 541.867"><path d="M0 0v541.867h812.8V0Z"/><path fill="#ffe000" d="M50.8 33.867 152.4 101.6h508L762 33.867H50.8zM254 169.333l67.892 45.262a101.6 101.6 0 0 1 84.508-45.262H254zm152.4 0a101.6 101.6 0 0 1 84.532 45.246l67.868-45.246H406.4zm0 8.467a93.133 93.133 0 0 0-93.133 93.133 93.133 93.133 0 0 0 93.133 93.134 93.133 93.133 0 0 0 93.133-93.134A93.133 93.133 0 0 0 406.4 177.8zm0 8.467a84.667 84.667 0 0 1 84.667 84.666A84.667 84.667 0 0 1 406.4 355.6a84.667 84.667 0 0 1-84.667-84.667 84.667 84.667 0 0 1 84.667-84.666zm0 33.866A33.867 33.867 0 0 0 372.533 254H355.6v67.733h101.6V254h-16.933a33.867 33.867 0 0 0-33.867-33.867zm-84.508 107.139L254 372.533h152.4a101.6 101.6 0 0 1-84.508-45.261zm84.508 45.261h152.4l-67.892-45.261a101.6 101.6 0 0 1-84.508 45.261zm-254 67.734L50.8 508H762l-101.6-67.733h-508z"/></svg>