<svg xmlns="http://www.w3.org/2000/svg" xml:space="preserve" width="3072" height="2048" viewBox="0 0 812.8 541.867"><path d="M0 0h812.8v541.867H0Z" paint-order="stroke fill markers"/><path fill="#e00000" d="M393.2388 507.85881c-6.16813-.94788-11.51369-3.92659-15.02057-8.3699-1.44304-1.82837-1.62738-2.35165-2.19026-6.21686-2.04395-14.03575-1.97581-29.38186.22163-49.92531 1.05959-9.90571 3.57513-30.34169 3.90048-31.68697.46239-1.91197.45742-5.15725-.009-6.44856-.45607-1.26026-1.36642-2.22484-2.62081-2.77688-.8284-.36457-1.61733-.42605-5.51438-.4297-5.13454-.005-6.46558.1698-13.12278 1.72146-6.23188 1.45252-7.13748 1.59163-10.33658 1.58773-2.6449-.003-4.04322-.20238-5.61566-.79981-.7543-.28659-1.982-1.8951-2.49001-3.26237-.57305-1.54232-.66554-5.18067-.23687-9.31926.2102-2.02946.38235-4.4794.38255-5.44429.00087-4.13282 2.05532-5.11121 8.31641-3.96057 1.50298.27621 4.17622.58921 5.94056.69556 2.13615.12878 4.31937.44096 6.53464.93443 2.19898.48984 4.23397.78194 6.00305.86167 3.00349.13536 4.21586-.0922 5.83946-1.09608.98589-.60957 1.0458-.71548 1.65491-2.9254 1.54234-5.59577 2.06346-10.87105 2.07522-21.00754.004-3.97492.0953-9.41644.20162-12.09225.10629-2.67581.12924-6.95014.051-9.49854-.0783-2.54838-.0692-7.44825.0199-10.88858.0892-3.44033.0892-6.3258 0-6.41217-.0892-.0864-3.15621 1.09162-6.81558 2.61776-7.37438 3.07547-15.25249 6.17424-19.24743 7.57078-3.51456 1.22861-15.58605 6.1012-33.98 13.71586-20.76488 8.59616-27.85436 11.47457-39.08891 15.87059-5.29302 2.07113-11.28111 4.44104-13.30684 5.26645-2.02574.82541-7.91991 3.07931-13.09816 5.00865-5.17827 1.92936-10.95248 4.14267-12.83162 4.91847-1.87912.77581-4.80668 1.87817-6.5057 2.4497-7.12957 2.39835-17.46736 6.46588-26.34229 10.36472-2.20319.96789-4.29565 1.75979-4.64991 1.75979-1.11404 0-3.09971.68986-7.074 2.45762-4.2378 1.88499-5.98199 2.41916-7.78544 2.38439-2.12531-.0409-2.31006-.16204-2.63779-1.72851-.16022-.76572-.99449-2.90548-1.85395-4.75504-2.37547-5.11201-2.73856-7.13337-1.6727-9.31252.37667-.77008.66838-.94502 3.40228-2.04035 1.64468-.65892 6.19268-2.54663 10.10673-4.19488 7.87061-3.31442 14.5719-5.93733 18.52524-7.25085 1.42576-.47372 3.8317-1.38045 5.34652-2.01496 1.51481-.63452 6.44329-2.59445 10.95217-4.35542 8.7404-3.4136 15.59957-6.20777 17.34644-7.06628.58812-.28903 3.3683-1.36148 6.1782-2.38323 12.13799-4.41371 19.8745-7.51847 47.16805-18.9292 11.37022-4.75361 21.50014-8.97544 22.51092-9.38187 1.08907-.43791 2.07383-1.01245 2.41718-1.41028 1.76202-2.04161 2.18818-5.97165 1.01048-9.31837-.81413-2.31355-1.54153-3.70519-4.35306-8.32822-1.25987-2.07163-2.5431-4.31941-2.85159-4.99508-.3085-.67566-1.18611-2.18733-1.95027-3.35925-3.20369-4.91327-3.51835-6.65928-1.49872-8.31615 1.19125-.97727 2.66031-1.41238 4.40324-1.30418 2.88803.17929 5.12361 2.24733 8.59724 7.95292 1.00847 1.65646 2.19144 3.49091 2.6288 4.07656 1.33033 1.78138 2.63344 4.75967 3.8928 8.89707 1.48399 4.87533 2.47129 7.31403 3.24892 8.02498.5571.50931.78043.54593 3.25119.53315 2.89595-.015 5.0584-.4626 10.03475-2.07713 5.89961-1.91408 21.38509-8.46211 21.35365-9.0294-.007-.12742-1.18237-.79621-2.6118-1.48619-22.49396-10.85784-64.78272-31.48982-70.7966-34.54049-21.10607-10.70645-33.49412-17.5058-37.56483-20.61796-.98103-.75002-3.04475-1.81346-6.41581-3.30609-5.80193-2.56895-16.97484-7.81342-25.37344-11.91008-3.24988-1.5852-6.03335-2.83563-6.1855-2.77871-.15216.057-2.35052 3.63405-4.88527 7.94917-10.62903 18.0947-14.37514 24.02498-19.01078 30.0949-3.32533 4.35417-8.11179 9.67827-8.4132 9.35817-.0518-.055-.62263-1.19708-1.26854-2.53795-1.18293-2.45573-2.5808-4.92233-4.00136-7.0606-.57301-.86251-1.81326-4.38314-4.85596-13.78448-2.24753-6.94437-5.14062-15.85794-6.42907-19.80795-3.39822-10.41793-4.02509-12.69795-4.60235-16.73949l-.30625-2.14415 1.3965-3.30014c2.0251-4.78559 6.89977-14.24915 11.72397-22.76058 5.38744-9.50514 6.76496-11.96625 9.07689-16.21704 1.03952-1.91128 2.79913-4.93461 3.91026-6.71848 2.95648-4.74654 6.78846-11.67542 11.49922-20.79255 2.28784-4.42784 4.21089-8.0506 4.27345-8.0506.0625 0 1.29414.57718 2.73687 1.28261 5.02731 2.45815 13.50337 6.34565 18.14395 8.32164 3.16908 1.34939 5.68283 2.61189 7.81035 3.92262 2.90036 1.78686 9.74609 5.66501 15.52717 8.79624l2.40978 1.30523-3.44531 6.19832c-4.22474 7.60054-9.95317 18.17557-11.95403 22.06785-3.32248 6.46328-7.83882 15.87561-7.73914 16.12887.0585.14855 3.77641 2.24854 8.26211 4.66662 22.789 12.28481 39.39438 20.77465 86.21479 44.07903 44.12318 21.96186 43.04318 21.45452 45.97561 21.5973l1.18378.0577.1927-1.50587c.23233-1.81566.31363-10.14635.22717-23.28303-.0352-5.35162-.007-11.55464.0631-13.78448.18443-5.88348 1.00126-69.87042 1.68275-131.82132l.38865-35.329976 1.84989-3.590915c1.01744-1.975003 3.25746-6.770612 4.97784-10.656908 5.47802-12.374775 10.07552-20.850473 11.31001-20.850473.73353 0 2.32578 1.196116 3.14352 2.36146.97625 1.391228 1.32216 2.096596 2.14492 4.3738.39463 1.092292 1.53434 3.385844 2.53268 5.096782s4.2299 7.846357 7.18127 13.634263l5.36613 10.523464-.13272 80.871113c-.073 44.47911-.25381 88.79429-.40177 98.47818-.19824 12.97272-.19926 18.23967-.004 20.0105.14584 1.32189.26514 4.5772.26514 7.23403 0 2.65681.0836 4.88092.18563 4.94244.10206.0616 2.95653-.96403 6.34319-2.27898 19.82559-7.69781 37.81296-14.40237 48.84257-18.20546 1.78182-.61439 5.25706-2.05376 7.72272-3.1986 9.78772-4.54455 15.5702-7.03985 39.17594-16.90549 10.06331-4.20579 24.33848-10.27528 31.7226-13.48776 18.81847-8.18704 30.54405-13.22553 37.1879-15.97971 3.13662-1.30026 7.1465-3.02249 8.91085-3.82718 1.76434-.80468 5.1326-2.05858 7.485-2.78642 7.84152-2.42623 10.5743-4.23793 10.5743-7.01023 0-1.77339-1.63303-2.88322-6.18284-4.2019-7.9666-2.309-9.49161-3.70998-12.8087-11.76707-1.75178-4.25501-2.34789-5.48106-3.37749-6.94661-.37419-.53263-.68035-1.02007-.68035-1.08319 0-.34906-3.90383-8.22644-5.75276-11.60822-9.28641-16.98536-21.26785-32.8936-39.95688-53.05241-9.43932-10.181231-13.42725-14.113883-19.64087-19.368212-19.22926-16.260553-41.89038-29.236908-74.01543-42.383234-2.74453-1.123128-6.21978-2.558787-7.72275-3.19035-3.57037-1.500324-10.88206-4.003681-17.67479-6.051455-2.99049-.901528-5.58355-1.757515-5.76235-1.902192-.1788-.144675-.32509-.498264-.32509-.785753 0-.885909 1.02732-1.112254 4.45378-.981275 2.68556.102657 3.93932.318585 10.99169 1.893038 13.33705 2.977522 18.67409 4.410273 23.70627 6.364036 1.27236.493999 3.71933 1.275904 5.43771 1.737565 10.56796 2.839198 22.35567 7.028699 33.05324 11.747545 10.20304 4.500692 24.72941 12.118815 30.23791 15.85778.98018.665318 3.05267 1.95618 4.6055 2.86858 3.86067 2.268417 5.47873 3.34752 7.18534 4.791984.79986.676992 2.40382 1.764593 3.56435 2.41689 11.91506 6.697084 22.869 16.210552 35.8618 31.145893 3.03602 3.48992 15.21008 18.32219 21.39211 26.06308 8.92741 11.17855 15.96456 21.19533 20.58884 29.3065 3.24645 5.69441 5.46712 10.01024 5.76788 11.20975.17936.7153.44636 2.7001.59336 4.41068.30453 3.54396.83601 5.3125 1.92598 6.40891.62114.62479.97124.76547 2.23286.8972 5.0323.52541 9.02006 5.30271 10.33707 12.38368.25563 1.37441.24412 1.43808-.43272 2.39547-.90442 1.27925-2.88179 3.0848-4.67249 4.26646-2.72039 1.79516-5.55747 3.03657-13.40029 5.86358-2.14247.77227-6.25928 2.38212-9.14847 3.57745-4.95091 2.04831-7.72763 3.24193-18.91636 8.13145-8.83632 3.86149-22.96849 9.60944-23.62625 9.60944-.0722 0-.8091.45237-1.63744 1.00528-1.08985.72746-2.3875 1.28002-4.69536 1.99939-3.42424 1.06735-4.97622 1.73901-6.06627 2.62531-.37803.30738-1.64971.89925-2.82594 1.31528-7.4261 2.62655-18.07749 7.02647-36.47506 15.06725-20.88387 9.12745-29.41455 12.62615-33.12801 13.58681-2.18386.56497-3.10995.99719-6.53552 3.05026-1.1002.6594-2.59723 1.3693-3.32672 1.57758-.72947.20828-3.51838 1.24463-6.19758 2.30302-2.67919 1.05837-7.49106 2.92867-10.69301 4.15618-19.39517 7.43548-30.38868 11.97948-34.77192 14.37246-.93843.51234-1.09045.67968-.83168.91547.53167.48446 29.57576 15.20646 54.49459 27.62247 19.00588 9.46986 47.36233 23.42584 80.18174 39.46249 17.30803 8.45727 32.06153 15.72465 32.78556 16.14973.72406.42507 2.59386 1.30739 4.15514 1.96069 1.56128.6533 3.32562 1.50696 3.92076 1.89702 2.36722 1.5515 2.77164 3.36458 1.36095 6.10135-.4417.85691-1.19284 2.47763-1.6692 3.6016-2.11607 4.99286-3.80928 7.52914-5.78065 8.65892-.96087.55069-1.38984.64803-2.82151.64027l-1.68834-.009-10.4304-5.01049c-10.00374-4.80553-13.62685-6.47607-40.84608-18.83337-15.26493-6.93014-28.22016-13.04534-35.94467-16.9668-3.30235-1.67649-6.90768-3.42646-8.01184-3.88883-1.10417-.46237-4.01609-1.8741-6.47091-3.13717-2.45484-1.26308-5.26533-2.58139-6.24553-2.9296-.98019-.3482-3.54651-1.55288-5.70294-2.67705-2.15641-1.12417-8.25143-4.14073-13.54448-6.70346-5.29303-2.56273-11.6019-5.75756-14.01971-7.09965-11.91146-6.61182-34.57593-18.75602-34.7774-18.63462-.29288.17648-.0496 12.05532.46866 22.88458.35983 7.51889.39031 11.70244.25655 35.21412-.0159 2.79257.41308 4.21853 1.64686 5.47467 1.27659 1.29973 2.07687 1.45663 5.96789 1.17005 1.92877-.14206 6.07319-.67021 9.20981-1.17367 3.13662-.50345 6.74129-1.02819 8.01039-1.16609 4.28313-.46535 8.3548-.23617 11.29177.63558 1.51241.44891 1.6163.62663 2.46133 4.2105 1.0536 4.46854.79032 10.06608-.63696 13.54209-.56686 1.38052-.68874 1.51866-1.48593 1.68399-.47763.099-2.47238.16974-4.43278.15706-2.98103-.0193-4.43928-.16928-8.91082-.91654-5.34628-.89345-5.34676-.89348-11.40589-.84284-6.33222.0529-8.2018.24046-9.97716 1.00084-1.31194.5619-2.05043 1.21541-2.63994 2.33615-.58131 1.10513-.567 1.89996.13259 7.36481 1.64065 12.81593 2.96155 27.9782 3.68337 42.28013.41603 8.24339.76987 24.63015.66533 30.81237-.11842 7.00251-.37313 8.3529-2.31763 12.28748-3.65005 7.38558-9.54308 10.8288-19.01174 11.10829-1.76434.0521-3.84043-.002-4.6135-.12132z"/></svg>