<svg xmlns="http://www.w3.org/2000/svg" xml:space="preserve" width="3072" height="2048" viewBox="0 0 812.8 541.867"><path fill="#c080c0" d="M0 0h812.8v541.867H0Z" paint-order="stroke fill markers"/><path fill="#194619" d="M407.607 341.513a.084.084 0 0 0-.033.009c-.411.186-2.573 3.003-5.01 6.55-3.445 5.019-5.309 6.942-6.908 7.157-1.207.162-2.568.658-3.028 1.101-1.504 1.449-2.174.878-2.78-2.477-.328-1.817-.99-4.096-1.486-5.064-1.491-2.912-5.25-7.576-5.725-7.102-.244.244.025 1.007.605 1.706 1.37 1.65.906 10.411-.578 10.9-.605.2-1.1-.228-1.1-.936 0-.707-.595-1.764-1.322-2.367-1.082-.898-1.321-.84-1.321.33 0 .786-.595 1.432-1.321 1.432-.792 0-1.321-.823-1.321-2.037 0-2.8-1.699-4.42-3.276-3.11-.945.784-1.946.273-4.679-2.395-3.675-3.589-3.99-3.447-2.67 1.156.688 2.398.553 3.006-.825 3.744-2.18 1.167-2.643 1.105-2.643-.33 0-.964-6.115-5.836-7.322-5.836-.168 0-.122 1.136.083 2.532.54 3.685-1.281 4.214-4.404 1.294l-2.697-2.505.55 2.863.551 2.862-2.588-1.321c-3.52-1.82-3.7-1.728-3.385 1.542.24 2.497.95 3.222 5.56 5.697 9.008 4.835 24.165 9.332 35.204 10.46l5.091.522 1.047.11c16.71 1.181 34.532-.494 49.185-9.055-.633-.021-.853-.624-.522-1.487.472-1.23.148-1.4-2.175-.935-3.82.764-4.292-.619-1.569-4.734l2.313-3.496-6.166 3.11c-3.4 1.712-6.51 3.016-6.881 2.917-.37-.098-1.57.141-2.697.524-1.127.382-2.266.514-2.505.275-.642-.641 2.759-6.971 5.587-10.405 2.858-3.469 1.463-2.545-6.44 4.24-4.883 4.191-8.702 6.44-10.955 6.44-1.083 0-1.071-6.712.027-10.542.477-1.66.734-3.147.551-3.33a.029.029 0 0 0-.022-.009zm-122.322 7.382c-.516 0-1.116 2.959-2.009 8.89-.895 5.946-1.937 11.363-2.312 12.056-.49.907-1.33-.007-3-3.303-1.278-2.52-3.081-5.825-3.992-7.322l-1.651-2.697-.743 4.68-.743 4.679-3.523-4.817-3.524-4.79-.44 3.854-.44 3.853-3.826-3.193c-2.105-1.762-3.952-3.192-4.101-3.192-.149 0 .284 1.844.963 4.1 2.163 7.188 1.759 8.01-2.202 4.432-1.895-1.712-4.284-3.551-5.312-4.101-1.72-.92-1.84-.832-1.321 1.239.31 1.236.303 2.256-.028 2.256-.33 0-2.937-2.243-5.807-4.981-5.55-5.293-5.778-5.195-4.349 2.34.487 2.566.779 4.807.633 4.953-.146.147-2.225-.345-4.624-1.073-2.4-.728-5.893-1.666-7.762-2.092l-3.413-.77 2.312 2.394c1.263 1.32 2.284 2.627 2.284 2.918 0 .29-3.471-.404-7.706-1.569-9.283-2.554-9.324-2.559-8.175-.413 1.016 1.898.75 2.148-3.055 3.083l-2.643.66 4.404 1.734c6.49 2.559 6.784 3.36 1.266 3.386-4.967.024-13.038 2.902-10.514 3.743.727.242 4.888.913 9.248 1.486 4.36.574 9.909 1.518 12.33 2.093l4.405 1.045-4.184.248c-2.3.148-4.184.7-4.184 1.211 0 .859-1.86.657-6.385-.688-1.015-.301-1.541.01-1.541.936 0 1.205-.84 1.338-5.836.826-5.678-.582-5.815-.552-5.23 1.293.695 2.186.74 2.174-6.164.991a1285.51 1285.51 0 0 0-8.313-1.404l-3.083-.495 2.478 2.615 2.504 2.615-3.385.853-3.358.853 2.642 1.073c3.44 1.4 9.652 2.523 18.937 3.414l7.487.715-3.084 1.431-3.082 1.404 3.165.083c1.735.04 7.482-.718 12.772-1.68 13.07-2.375 15.31-2.25 9.606.496-5.508 2.653-4.162 2.653 7.486 0 5.087-1.158 9.416-1.949 9.606-1.761.19.188-.176.957-.798 1.706-.931 1.123-.927 1.266.083.908 2.656-.941 16.907-4.872 17.643-4.872 1.868 0 .467 1.73-3.413 4.267-2.301 1.505-3.683 2.747-3.083 2.752 2.391.023 18.544-5.605 22.68-7.899 2.422-1.343 5.593-2.702 7.046-3.028 1.453-.326 3.336-.794 4.184-1.045 1.119-.333 1.541.027 1.542 1.348 0 1.002.158 1.844.357 1.844.2 0 3.47-.595 7.267-1.321 7.788-1.49 9.991-1.632 9.991-.633 0 1.179-5.332 3.9-11.835 6.055l-6.221 2.065 5.257-.578c2.89-.315 11.61-1.845 19.377-3.414 7.768-1.568 14.275-2.717 14.45-2.559.177.158-.987 1.064-2.587 2.037l-2.917 1.789 6.991.248c7.576.284 7.61.13-.936 3.825-1.938.838-3.019 1.707-2.395 1.927.986.347 8.203-.649 15.167-2.092 2.043-.423 1.98-.263-.881 2.23-3.025 2.635-3.042 2.702-.881 2.725 1.21.013 5.313-.568 9.11-1.294 8.946-1.712 12.91-1.72 12.91-.028 0 .712-1.09 1.865-2.423 2.588-2.976 1.614-1.95 1.683 5.78.358 3.316-.569 6.734-.772 7.597-.441 1.457.559 1.472.759.165 2.752l-1.403 2.147 4.156-1.266c2.296-.696 4.282-1.26 4.403-1.266.122-.005.22.793.22 1.762 0 2.314.154 2.278 5.781-1.321 5.555-3.554 6.55-3.754 6.55-1.322 0 2.104.016 2.089 3.139.468 1.352-.701 2.794-1.071 3.192-.825 1.634 1.01.47 3.046-3.908 6.853-3.774 3.282-4.267 4.029-2.725 4.046 3.378.039 13.191-3.44 14.835-5.257.882-.974 2.373-1.761 3.331-1.761.958 0 3.09-.856 4.734-1.872 4.156-2.569 5.947-1.694 5.23 2.532l-.578 3.303 2.009-2.23c1.102-1.226 2.674-3.208 3.496-4.404l1.514-2.174.027 2.12.055 2.147 2.147-2.01c2.25-2.113 4.018-1.83 4.018.633 0 1.158.298 1.046 1.377-.495 1.323-1.89 1.424-1.896 3.688-.413 2.22 1.455 2.295 1.463 1.734 0-.725-1.888.889-2.005 3.248-.22 1.203.91 2.015 1.016 2.808.358.755-.628 2.132-.645 4.266-.055 2.135.589 3.137.562 3.137-.056 0-.857 5.124-.475 10.35.771 1.62.387 1.884.208 1.403-1.046-.53-1.384-.143-1.485 3.744-.935 2.378.336 5.118.843 6.083 1.128 1.596.47 1.63.388.44-1.046-1.195-1.44-1.16-1.525.523-.99 1.832.58 14.956 3.192 16.047 3.192.315 0-.96-1.09-2.835-2.422-3.97-2.82-3.05-3.286 4.211-2.147 4.439.696 5.136.584 5.89-.826.821-1.534 1.017-1.523 4.955.165 3.009 1.29 4.266 1.473 4.734.716.45-.728 2.117-.16 5.67 1.872 4.642 2.656 4.982 2.725 4.431.99-.691-2.177.56-2.494 2.174-.55.82.988 1.424 1.073 2.285.358.64-.53 2.003-.692 3.055-.358 1.214.385 2.18.198 2.643-.55.565-.916 1.324-.629 3.33 1.293 1.723 1.651 2.698 2.091 2.945 1.349.289-.865 1.226-.765 4.101.385 4.674 1.87 4.853 1.862 4.294-.275-.52-1.987.028-2.154 3.303-.909 1.617.615 2.782.563 3.991-.192 1.343-.838 1.96-.847 2.807 0 1.453 1.452 2.478 1.361 2.478-.22 0-1.044.452-1.103 2.34-.385 1.622.616 2.545.59 2.944-.056.856-1.383 19.243-1.635 20.093-.275 1.669 2.669 12.08 5.17 11.12 2.67-.587-1.53 12.754-4.975 18.634-4.817 3.436.093 5.434-.464 8.588-2.312 2.26-1.324 4.101-2.533 4.101-2.697 0-.165-1.486.232-3.303.88-2.216.791-7.507 1.167-16.075 1.13l-12.77-.056 6.605-1.211c3.633-.658 8.984-2.043 11.891-3.083 5.582-1.995 15.664-7.015 15.138-7.541-.17-.171-5.94.885-12.799 2.34-6.859 1.453-13.358 2.62-14.45 2.614-1.302-.007 1.138-1.86 7.074-5.395 4.981-2.965 8.921-5.528 8.752-5.697-.169-.17-3.055.47-6.413 1.43-9.13 2.612-10.09 2.21-4.184-1.733 4.724-3.155 9.169-7.074 8.01-7.074-.254 0-4.53 1.195-9.496 2.67-4.966 1.475-9.19 2.507-9.413 2.285-.222-.222.253-1.445 1.074-2.698 1.864-2.844 1.347-2.838-2.753-.055-1.785 1.211-3.786 2.202-4.459 2.202-.673 0-3.615 1.202-6.523 2.67-11.655 2.962-23.492 4.502-35.397 4.239-4.647-.37-12.589-5.038-15.22-5.34-.254-.969-4.442 1.074-5.258 1.074-.815 0-2.174-.874-3.027-1.927l-1.542-1.927-2.697 1.927c-3.434 2.445-3.498 2.423-4.211-.826l-.578-2.725-1.625 2.643c-2.328 3.829-3.495 4.247-3.495 1.266 0-1.394-.632-4.642-1.404-7.24l-1.404-4.734-2.174 4.35c-1.2 2.388-2.748 4.905-3.44 5.614-1.101 1.128-1.267 1.06-1.267-.66 0-1.69-.322-1.883-2.339-1.377-2.058.517-2.263.367-1.651-1.1.383-.92 1.416-3.53 2.312-5.808l1.651-4.129-5.753 4.019c-3.163 2.21-5.963 3.836-6.193 3.606-.23-.23.011-1.543.523-2.89.77-2.022-.09-1.467-4.981 3.11l-23.727 13.294-17.368 7.954c-2.184 1.288-5.882 3.427-8.752 4.047-5.833 1.258-11.341 1.538-27.965 1.513-18.617-.028-22.113-.271-34.708-2.477-7.702-1.349-17.676-3.37-22.185-4.514-19.314-4.9-38.53-17.372-47.094-30.58-3.212-4.953-3.287-5.024-4.845-3.303-1.571 1.737-1.6 1.736-4.073-.632-2.38-2.28-2.477-2.287-2.477-.496 0 1.031-.348 2.078-.77 2.34-.424.26-1.052-2.982-1.405-7.212-.494-5.932-.915-8.89-1.43-8.89z"/><path fill="#232800" d="m362.242 354.512 1.377 2.753c1.438 2.848 5.49 6.418 7.349 6.468.746.02.615-1.176-.44-4.156-1.377-3.886-1.488-4.027-1.762-1.68l-.303 2.533-3.11-2.973zm54.608.428h-.169c-1.04 0-3.605 6.508-3.605 9.138 0 .357-.085.642-.22.909 8.26-3.202 9.747-6.541 4.431-4.349-1.328.548-1.405.284-.66-2.312.957-3.34 1.013-3.393.223-3.386zm-17.22 1.974c-.155 0-.305.004-.452.008-2.057.064-3.199.737-5.312 2.918l-2.973 3.055-1.54-2.89c-1.297-2.43-1.539-2.58-1.57-.963-.02 1.052 1.047 3.193 2.367 4.761l1.707 2.065c1.085-.38 2.736-.928 3.605-1.68 2.275-1.966 2.45-1.99 2.863-.44.346 1.298.929.778 2.752-2.505l2.34-4.183-3.303-.138a10.045 10.045 0 0 0-.484-.008zm8.262.54c-.898-.016-3.497 3.178-6.977 8.7-1.281 2.034.783 1.172 3.082-1.293 2.123-2.276 4.239-5.655 4.239-6.77 0-.394-.105-.606-.303-.634a.278.278 0 0 0-.041-.003zm-31.183.107a.03.03 0 0 0-.016.007c-.29.24.75 5.442 1.321 6.413.91 1.547.95.434.11-2.643-.496-1.816-1.1-3.5-1.348-3.743-.024-.023-.048-.036-.067-.034zm-3.573.114c-.156.01-.085.349.171 1.076.314.887.644 2.473.716 3.523.093 1.346.23 1.176.496-.606.207-1.39-.095-2.976-.689-3.522-.311-.287-.541-.447-.66-.469a.215.215 0 0 0-.035-.003zM287.469 373.7c-.453.035-.468.498-.468 1.294 0 1.49-.402 1.777-1.982 1.404-1.09-.257-5.047-.764-8.808-1.1-6.088-.546-6.79-.444-6.303.825.434 1.13-.077 1.444-2.422 1.514-1.626.048-3.936.37-5.147.715-1.965.562-1.799.69 1.541 1.24 4.478.734 4.847 1.942.826 2.696-3.717.698-9.556-1.043-16.872-5.064-3.161-1.738-5.753-2.761-5.753-2.257s2.049 3.09 4.541 5.725l4.515 4.79-3.854.054c-3.432.053-3.656.171-1.9 1.019 1.09.525 1.982 1.219 1.982 1.54 0 .323-2.18 1.253-4.844 2.093-2.664.84-4.844 1.777-4.844 2.064 0 .288 2.675.254 5.945-.055 3.27-.309 7.285-.547 8.918-.55 2.422-.006 2.774-.223 1.954-1.211-.816-.984-.24-1.428 3.055-2.258 3.602-.907 3.938-1.182 2.89-2.449-1.08-1.306-.436-1.38 7.487-.908 8.51.505 8.637.481 7.13-1.184-1.727-1.907-1.402-1.988 3.577-.853l3.523.798-2.119-1.707c-3.202-2.625-1.765-2.89 4.982-.88 6.982 2.08 7.578 2.18 6.826.963-.754-1.219-.303-1.158 5.367.963 3.888 1.455 5.134 1.638 5.67.771.378-.611 1.316-.876 2.092-.578.898.345 1.404.081 1.404-.743 0-1.594.697-1.589 3.523.027 2.524 1.443 5.284 1.698 5.284.496 0-.45-2.433-2.313-5.422-4.129-6.096-3.703-11.295-4.547-11.973-1.954-.364 1.39-.909 1.288-5.587-1.073-2.844-1.436-4.152-2.081-4.734-2.037zm189.716 12.463c-.317-.02-1.306.442-2.918 1.376-11.048 6.404-11.878 6.955-9.688 6.523 7.565-1.492 8.347-1.567 7.046-.66-1.021.711-.567.925 2.01.936 3.138.013 3.266.115 2.311 1.9-.818 1.529-.778 1.817.193 1.458.662-.246 3.33-1.131 5.918-1.982 3.271-1.076 6.478-1.442 10.542-1.184l5.835.386-3.496-1.597c-1.926-.865-4.017-1.583-4.651-1.596-.634-.013-.915-.398-.633-.853.303-.491-.758-.6-2.588-.303-2.354.382-3.213.158-3.633-.936-.382-.995-1.618-1.432-4.073-1.432-3.203 0-3.435-.148-2.34-1.485.295-.36.355-.54.165-.551zm64.864 4.323-1.597 2.89c-2.072 2.41-2.085 2.415-3.082.551-.643-1.367-.61-2.837-2.285-2.624-.1.304-.228 1.534-.385 1.936-.661 1.692-.714 1.686-1.734-.22-1.326-2.478-2.752-2.537-2.752-.11 0 1.421-.36 1.697-1.542 1.21-4.286-1.764-4.65-1.64-4.073 1.24.63 3.149.606 3.137-5.808 1.43-2.642-.703-4.884-1.171-5.01-1.046-.125.126 3.112 1.903 7.212 3.936l7.459 3.689v-2.34c0-2.276.042-2.271 1.762-.715 1.703 1.54 1.761 1.54 1.788-.083.027-1.614.07-1.624 1.239-.083 1.145 1.51 1.26 1.521 2.064.083.773-1.38.918-1.351 1.487.44l.633 1.982 1.348-1.927c.946-1.349 1.556-1.615 2.01-.88.477.772 1.636.559 4.404-.854l3.77-1.926-.44 2.201-.413 2.23 4.432-1.761c2.444-.964 4.759-1.935 5.147-2.175 1.188-.734.802.905-.743 3.11l-1.46 2.092 4.762-.605c2.622-.343 5.753-.848 6.964-1.101l2.202-.441-2.202 1.79-2.202 1.816 8.808-.083c8.15-.078 8.496-.156 4.624-.963-2.301-.48-4.183-1.172-4.183-1.541 0-.37 1.783-1.151 3.963-1.762 2.18-.61 3.963-1.477 3.963-1.899 0-.421-3.765-.743-8.367-.743s-8.368-.327-8.368-.716c0-.389 1.685-1.553 3.744-2.587l3.743-1.872-3.523-.138c-2.614-.095-15.594 1.847-20.71 1.773-.42.401-2.593-.25-3.511.292l-2.642 1.569v-2.285zm15.012 1.32c-1.357 0-2.714.045-3.744.137-2.058.186-.374.33 3.744.33s5.802-.144 3.743-.33c-1.03-.092-2.386-.138-3.743-.138zm-100.905 2.119-5.12 1.844c-1.25 1.937-3.578 5.1-5.366 6.688-2.664 2.366-4.557 4.58-4.211 4.927.345.347 3.318-1.938 6.606-5.092 2.403-2.305 5.653-6.068 8.091-8.367zm-8.422 3.055-5.092 2.484c-.6 1.179-2.287 2.888-3.633 4.122-1.9 1.74-3.135 3.506-2.725 3.909.41.402 2.392-1.064 4.404-3.249 1.843-2.001 4.633-5.033 7.046-7.266z"/><path d="M315.892 67.733c-11.516 2.608-4.074 30.902 2.557 13.94 12.301 2.927 20.835 22.904 1.241 20.347-12.98 1.116-38.997-11.482-43.428-.989 8.36 5.575 35.13-5.146 41.63 10.24 14.46 4.988 30.867-4.058 46.307.003 29.91 1.289 59.611 22.58 63.9 53.418 5.942 18.978-19.73 2.273-30.306 4.619-22.908-2.323-52.532 2.1-62.623 25.87-8.67 13.135 6.79 24.991 4.921 35.436-19.142 8.488-30.425 33.378-20.695 52.689 12.97 15.643-19.151 22.216-21.709 37.258-13.661 21.793-3.319 51.02 17.615 63.9 26.084 17.235 58.69 20.238 89.14 21.282 33.497.76 68.368-12.142 88.187-40.226 8.396-3.046 19.905 14.899 31.223 17.93 19.208 11.52 44.378 12.299 63.232-.441 11.438-7.896 25.191-20.88 22.28-35.917-18.077-4.973-23.361 24.587-42.724 22.715-21.133 4.38-37.823-11.341-52.32-24.154-11.388-8.216 2.382-24.472-3.076-36.922-1.845-13.98-7.578-27.249-15.918-38.392-3.815-18.673 1.66-40.303-13.582-55.444-10.832-11.307-22.287-20.498-20.115-37.557-6.098-37.82-32.696-74.756-71.082-84.187-19.138-.184-34.71-11.583-51.39-17.327-7.913-2.237-15.218-6.275-23.265-8.09zm.138 2.588c15.705 6.801 33.431 8.856 46.993 20.591a604.56 604.56 0 0 1 16.576 6.1c-4.294 6.023 6.882 3.163.198.075 10.182 3.916 20.125 8.07 29.527 12.391-7.13 9.56 4.982 9.075.792.367 1.232.57 2.473 1.137 3.685 1.712 4.899 12.12-.152 22.53 13.112 27.03 3.454-3.83 5.552 10.619 11.348 3.849 7.223 5.39 15.02 14.652 2.703 15.297-11.167 10.476.308 24.438 9.268 25.577 1.884-6.023-5.315-35.602 1.322-15.482 3.98 9.132-5.495 21.976 5.477 23.445-.51 4.506-2.537 3.704-5.032 2.045 2.201 7.44-10.907 28.15-8.973 20.472 4.418-6.23 4.889-14.187 8.496-20.796-3.6-2.473-8.02-6.138-10.5 1.217-10.206 9.43-.675 16.81-5.499 27.269-6.939-4.147-17.034-2.814-6.692-7.36-6.426-.652 9.473-10.86 5.89-19.625 5.41-11.417-2.559-29.483-7.823-38.188-8.465-29.075-37.751-46.315-66.642-48.528-3.313 3.835-11.919-6.166-8.665.938-8.037-1.478-26.92 3.866-27.857 1.23 8.285-1.758 9.816-6.034 8.474-6.635 20.947-6.77-11.453-19.765-17.461-27.702-1.416-1.74-.584-4.27 1.283-5.29zm135.492 122.673c.158.109.322.22.477.324a4.268 4.268 0 0 0-.274-.707c-.071.126-.134.256-.203.383zM311.874 76.54c1.067 6.61-4.159 7.207 0 0zm2.89 2.587c2.646 6.578-5.861 7.28 0 0zm26.588 1.734c-2.273 10.023 16.223 9.261 3.058 1.959-1.071-.572-2.066-1.261-3.058-1.959zm13.9 10.542c-1.144 5.41 6.305.824 0 0zm16.46 3c-11.74.832 4.322 10.892 1.711 5.14 9.215 7.999 1.55-2.105-1.711-5.14zm18.933 1.23c8.66-.15 9.073 8.038-.883 2.788-2.202-.029-5.382-2.967-.957-2.642a15.36 15.36 0 0 1 1.84-.147zm-25.787 4.936c-10.257 8.532 7.928 9.762 0 0zm18.799 1.376c-5.544 2.628 3.701 5.098 0 0zm3.276 1.239c-5.922 11.82 17.22 4.13 1.688 4.314-.935-1.339-.138-3.311-1.688-4.314zm-17.01.523c-4.382 2.802 5.445.889 0 0zm5.202.44c-3.36 5.151 6.466 1.864 0 0zm5.56.028c-5.057 6.054 5.947 7.497 0 0zm17.423 3.082c-1.953 2.502 3.352 1.308 0 0zm5.532.909c-1.93 5.084 5.381 2.838 0 0zm-6.854 1.899c-5.487 3.117 5.83 2.796 0 0zm19.598 1.073c9.012 5.797 25.84 24.652 23.703 28.316-6.974-10.21-17.921-17.221-23.703-28.316zm-14.808 2.56c-4.11 1.178 2.42 2.269 0 0zm-1.294 3.22c-2.055 2.006 3.245 1.473 0 0zm9.303 2.67c-2.45 3.95 3.268 1.44 0 0zm1.514 4.377c-4.214 2.774 3.014 1.316 0 0zm9.055 11.45c-4.852 3.233 4.663 1.838 0 0zm4.02 6.193c-4.945 1.71 3.226 2.142 0 0zm3.467.165c-3.595 3.684 5.086 1.766 0 0zm9.661 4.294c-3.74 4.57 5.758 3.093 0 0zm-5.89 1.816c-1.774 2.89 4.46 5.368 0 0zm-3.33.166c-2.952 4.834 4.797 5.022 0 0zm12.66 1.458c-.966 3.826 4.361 3.095 0 0zm-2.56.881c-4.522 2.666 4.611 2.909 0 0zm-1.953 3.083c-1.581 7.162 5.358 6.94 0 0zm-1.9 3.413c-4.033 4.726 5.141 5.47 0 0zm-33.194 17.285c7.32 1.644 21.625 4.863 23.333 10.312-7.397-3.79-27.265-9.947-11.703 1.951 15.002 17.91-16.78 7.32-26.053 6.562-7.748-.786-12.55-.234-15.674-.988-10.535 10.255-11.35-10.831-13.942-14.918 10.852-6.935 8.46 14.41 21.56 12.848 11.564 6.19 24.547-7.378 22.48-15.767zm-10.542 1.872c5.998 4.957-36.929 2.607-11.08.463 3.69-.227 7.383-.415 11.08-.463zm13.68 4.321c-1.953 2.502 3.352 1.308 0 0zm-40.489.854c-5.32 3.28 4.917 2.733 0 0zm77.18.137c-6.694 3.978 6.392 5.067 0 0zm4.293 1.624c-3.892 3.906 3.128 3.211 0 0zm-45.608.083c-2.886 3.798 6.716 1.365 0 0zm-42.14.054c-2.874 6.762-14.032 16.069-4.812 4.165 1.349-1.63 2.76-3.383 4.812-4.165zm8.533 2.505c-5.45 2.005 4.234 4.257 0 0zm73.985.88c-5.544 2.628 3.701 5.099 0 0zm-42.607.028c1.553 4.697 6.2-.181 0 0zm14.34 1.762c-3.527 2.169 4.965 1.666 0 0zm-6.937.385c-3.579 5.032 6.384.426 0 0zm-64.241 1.074c-1.392 19.052 34.317.52 16.637 17.843-10.685-5.116-16.122 3.004-16.246 13.53-9.181-8.96-4.58-21.241-.391-31.373zm55.351.275c-3.843 2.274 3.738 2.129 0 0zm-29.065.88c-3.927 3.378 3.348 1.962 0 0zm34.35.083c-2.299 3.27 4.664 1.59 0 0zm9.028 1.156c-3.12 3.539 4.8 1.568 0 0zm48.333 4.927c5.438 8.814-12.081 29.542-3.525 9.374.949-3.193 1.535-6.6 3.525-9.374zm-80.258.293a31.17 31.17 0 0 1 4.675.313c12.38 1.735 40.861-.758 40.53 13.497-12.024 12.469-34.253 11.414-49.342 6.17-16.521-8.85-10.16-19.823 4.137-19.98zm-37.436.588c-5.699 4.237 5.549 4.524 0 0zm16.404 3.523c-8.118 7.602 6.402 3.24 0 0zm-12.716.881c-6.63 2.571 2.744 4.202 0 0zm5.56 0c-3.844 2.274 3.737 2.128 0 0zm-11.093 1.21c-4.15 1.985 2.68 3.614 0 0zm-.798 4.074c-3.943 4.6 5.115 4.922 0 0zm10.542 2.643c7.273 4.891 23.651 24.497 6.885 9.153-2.78-2.54-6.424-5.095-6.885-9.153zm83.757 2.037c-3.51 3.528 4.693 3.49 0 0zm42.414 2.367c4.376 6.126 15.37 20.557 10.364 24.825-7.91-18.668-22.305 19.94-22.997-2.589-5.812-9.862-12.815-22.499 1.524-10.215 5.819-.84 13.546 5.963 10.887-6.439l-.039-3.052zm-42.029 2.642c-3.747 1.813 3.408 1.621 0 0zm14.478 1.211c9.642 7.4-18.854 23.244-8.828 6.624-.917-5.448 5.145-6.081 8.828-6.624zm-78.28.853c15.323.937 14.73 8.141 2.326 11.9-.627 9.02 16.615 15.453 11.044 20.562 20.08-4.421-6.25 9.845-11.25.786-3.528 7.185-20.897 5.234-11.752-3.306-5.555-13.054 16.741-.564 17.466 1.624 2.634-12.416-30.65-14.803-24.351-21.04 8.353 4.865 21.806.57 16.517-10.526zm77.977.771c-7.11 1.072 2.346 4.743 0 0zm-33.415 1.927c-.99 1.514-1.588 3.21-1.855 4.955-.017-.01-.026-.018-.044-.028-1.868 1.105-1.032 1.628-.114 1.64-.304 8.311 6.572 16.84 15.605 11.848-5.688 7.622-28.495 9.453-27.941 3.95a15.837 15.837 0 0 0 2.77-1.107c-3.053 3.334 5.166 6.218 5.276-2.569-1.327.349-2.382.74-3.223 1.147 6.058-5.643-4-15.453-6.532-16.167 5.535.024 11.06-1.325 16.058-3.67zm-39.718.523c-5.45 2.005 4.234 4.257 0 0zm67.545.082c-4.587 5.559 8.028 4.082 0 0zm-63.195.799c-3.927 3.377 3.348 1.961 0 0zm55.957 1.21c-1.58 7.88-28.306 12.396-10.823 5.988 3.768-1.712 6.94-4.498 10.823-5.987zm44.451.551c-3.843 2.274 3.738 2.128 0 0zm-26.864.276c12.318 9.018-.012 18.522-5.335 6.693 1.227-2.625 3.774-4.295 5.335-6.693zm-46.24 1.486c-3.843 2.274 3.738 2.128 0 0zm34.79 1.761c-4.437 2.127 4.22 1.543 0 0zm-31.074.881c-4.214 2.775 3.013 1.316 0 0zm72.912 0c-6.238 6.154 7.17 6.155 0 0zm-15.937.193c-8.446 2.457 3.668 5.595 0 0zm12.771.137c-4.15 1.985 2.68 3.614 0 0zm-6.963 1.46c-2.45 3.948 3.267 1.439 0 0zm-125.814.522c14.37 4.808-8.18 7.593 0 0zm122.786.303c-3.196 1.984 3.448 3.61 0 0zm-92.675.633c6.82 2.867 37.494 3.736 15.153 4.374-5.24-.27-10.98-.823-15.153-4.374zm-10.817 1.156c-7.259 3.431 5.474 6.565 0 0zm-25.157.88c3.344 2.227-3.563 2.8 0 0zm125.043 1.047c-4.93 6.547 5.275 3.678 0 0zm5.643 0c-1.302 2.605 1.412 2.299 0 0zm-100.189.165c-4.4 3.62 4.644 3.717 0 0zm-17.78 1.954c-6.105 5.794-29.584 29.32-15.593 9.982 4.155-4.66 9.57-8.256 15.592-9.982zm125.456 1.294c.876 9.501 5.05 22.74-1.568 30.196 1.338-10.018.164-20.184 1.568-30.196zm-42.841.775c7.605.08 28.139 10.829 19.261 9.76-6.57-3.773-15.002-4.218-20.597-9.627.38-.096.829-.138 1.336-.133zm-24.099.16c-7.957 5.315 8.52 2.773 0 0zm5.752 1.074c-4.109 1.178 2.42 2.269 0 0zm-88.6 1.57c1.965 6.788-6.086 26.974 8.92 18.222 9.646-4.294 19.277-3.684 12.364 6.713-2.87 9.547 2.888 18.34-9.028 9.798-6.08-8.523-11.633-2.068-15.698 1.378-8.505-16.728 5.344 19.793-3.993 4.1-5.373-12.954-5.173-31.435 7.435-40.212zm102.855.906c2.088 7.908 14.43 21.87-1.713 18.151-7.341-1.165-19.501-16.337-18.294-6.488-12.04-10.785 21.167-2.357 20.007-11.663zm-68.34.745c-3.747 1.812 3.408 1.621 0 0zm-.495 3.523c-7.572 2.06 8.047.514 0 0zm7.762 0c-8.254 1.434 1.373 4.26 0 0zm-47.425 2.945c-4.11 1.177 2.42 2.268 0 0zm104.097.22c-4.965 5.853 7.796 2.446 0 0zm-64.6 1.294c-6.12.213-1.806 3.446.787.694zm101.593 1.376c7.955 3.502 12.974 29.13 20.442 10.917 2.6-12.405 7.297-7.604 2.714 1.574-1.312 7.423-15.22 30.022-13.134 9.989-7.772 1.207-30.633 9.857-17.04-5.563 3.117-5.272 5.526-10.973 7.018-16.917zm-30.827.33c-4.74 2.47 3.356 2.598 0 0zm24.965 0c7.381 13.236-16.035 22.618-14.544 8.202 4.33-3.598 10.676-3.988 14.544-8.202zm-38.287.028c-1.953 2.501 3.352 1.307 0 0zm7.294 1.761c.346 4.8 6.39.218 0 0zm-49.272 1.274a43.619 43.619 0 0 1 5.23.18 218.4 218.4 0 0 1 5.948-.078c21.17-.209 43.643 3.613 60.596 17.162-7.703 20.34-31.019 13.88-46.572 9.532-15.744-5.224-38.815 5.096-49.837-5.539-4.532-15.384 11.776-20.958 24.635-21.257zm77.677 1.534c-5.987 3.337 4.061 2.935 0 0zm-132.998.687c-3.747 1.813 3.408 1.622 0 0zm111.86 0c-3.844 2.274 3.737 2.129 0 0zm16.432 2.753c-12.427 3.906 8.209 4.58 0 0zm-114.034.082c-5.801 6.103 9.282 1.573 0 0zm-17.038.744c-3.452 8.395 9.054 7.977 0 0zm10.694 1.608c-.803-.005-1.781.09-2.96.319 2.16 9.2 10.726-.272 2.96-.32zm15.042.153c-9.804 6.505 9.03 6 0 0zm-20.313 1.707c-3.844 2.273 3.737 2.128 0 0zm143.237.88c-.381 3.53 4.525.915 0 0zm-129.943.882c-9.34.791 3.45 6.785 0 0zm127.63 2.642c-4.264 5.54 2.636 4.024 0 0zm-4.926.027c-15.454 2.972 9.579 4.778 0 0zm-118.162.138c-4.905 6.433 5.45 7.679 0 0zm-15.717 1.046c-4.15 1.984 2.68 3.613 0 0zm143.21.55c-3.748 1.813 3.407 1.622 0 0zm-132.035.413c-2.534 3.02 4.313 1.843 0 0zm-5.175 4.101c.906 10.15 17.419 21.02 16.282 25.493-9.423-4.767-15.454-15.129-16.282-25.493zm150.669 1.872c7.45 3.546 5.72 21.631 2.226 6.3-.939-1.993-2.623-3.912-2.226-6.3zm-13.845.964c.181 9.588-22.312 24.521-7.051 8.44 2.329-2.83 4.471-5.823 7.051-8.44zm26.368 1.98c7.15 11.942 13.863 29.116 7.64 41.398-5.753-6.022 5.525-9.326-5-8.938-14.24-10.577-1-20.4-2.64-32.46zm-45.085.359c1.323 13.187-1.7 28.298-18.727 21.67-10.074-2.484-18.983 9.02-23.79 15.773 4.703 4.878 25.33 6.698 8.182 7.21-7.99-.348-31.656-.092-28.293-1.178 23.319-3.696-4.049-18.555-7.923-21.813 8.727-7.811 19.78 11.35 18.05-.075 7.837.82 17.928-6.982 20.71-5.568-11.435 17.302 12.476-10.2 20.826-6.18 20.193 8.888-7.686-4.357 10.965-9.839zm-97.903 2.917c4.6 7.546 22.957 15.722 21.016 18.998-10.287-3.13-24.508-.028-14.99 11.967 11.5 12.424-20.35-5.069-6.226-1.377 3.806-16.573-12.055 5.343-13.368-8.86 11.07 5.232 19.788-5.224 11.475-15.667-1.045-1.905-.739-5.042 2.093-5.06zm30.304.606c7.556 2.44 24.5 20.156 7.312 14.65-5.903.233-14.156-2.096-15.864-5.36.597.658 3.677.155 1.01-1.363-.868.514-1.135.898-1.1 1.17-.858-1.956.636-4.23 6.354-6.483zm-29.369 3.523c-4.214 2.774 3.014 1.316 0 0zm34.158 0c-3.926 3.377 3.349 1.962 0 0zm111.336 1.211c-4.15 1.985 2.68 3.614 0 0zm-117.006 1.432c-4.729 1.438 3.233 1.992 0 0zm6.909 1.21c-4.151 1.985 2.68 3.614 0 0zm-34.269.578c-2.45 3.95 3.268 1.44 0 0zm3.524 0c-2.45 3.95 3.267 1.44 0 0zm77.398.138c-1.313 8.255 14.888-.244 0 0zm59.728 1.074c-7.66 6.776 6.826 5.828 0 0zm-110.844.072a12.96 12.96 0 0 0-1.208.12c-1.579 4.663 6.34-.35 1.208-.12zm93 .597c17.432.969.745 32.81-3.83 26.157-.485-8.514-6.98-18.3-.125-25.918 1.48-.23 2.793-.303 3.955-.239zm21.202.046c-3.595 3.685 5.086 1.767 0 0zm-65.343 1.597c-8.374 5.35 12.222 5.477 0 0zm-109.189.606c3.383 6.838-18.267 4.843-2.362.785.722-.442 1.57-.536 2.362-.785zm88.078.22c2.575 2.167-3.917 2.505 0 0zm-56.232.027c-3.927 3.377 3.348 1.961 0 0zm70.903.88c-4.25 2.705 4.465 2.488 0 0zm18.936 0c-3.843 2.274 3.738 2.129 0 0zm28.543.276c-4.287 2.149 2.341 2.723 0 0zm-33.277.055c-2.816 3.286 4.163 2.358 0 0zm58.627 1.046c-1.694 7.988 9.518 4.376 0 0zm-35.369.385c-.813 6.136-13.104 4.16-11.183 12.247-3.678 4.097-21.507 13.64-9.02 4.103.91-10.001 10.618-16.702 20.203-16.35zm-136.273.716c-6.115 7.112-22.18 20.284-18.96 25.422 8.381-2.442 31.011 1.921 20.311-13.078 2.725-11.644 7.66-7.094 8.56-.182-.05-.074-.081-.137-.14-.217-2.785 1.332-.632 2.495.28 2.03.108 4.784-1.794 10.086-7.537 11.885-5.89 6.065-1.713 26.881-14.58 14.262 1.864-10.789-9.094 1.946-13.532-7.01-.342 10.93-6.114 5.267-3.924.577-4.548 1.537-3.13 7.083-2.02 11.636-.287-.285-.66-.588-1.24-.928-4.245 2.926.508 3.525 1.579 2.368.801 3.538.931 6.027-3.179 4.605-3.92-9.565.351-36.393 9.934-27.77 6.496-9.228 12.937-20.158 24.448-23.6zm168.642 1.046c-1.777 9.138 8.89 8.886 0 0zm-19.872.165c-11.27 4.92.015 9.8 0 0zm4.21.715c-3.8 3.007 3.732 3.393 0 0zm-73.93.22c-15.932 1.755-.98 9.347 0 0zm87.142.661c-3.843 2.274 3.738 2.129 0 0zm-26.258.083c4.569 7.137-7.01 2.898 0 0zm-18.441 3c-4.388 6.963 4.034 6.066 0 0zm29.01.495c-6.145 2.214 2.382 5.034 0 0zm12.937.386c.27 9.233-.428 29.952-5.13 30.842 2.86-10.043 4.758-20.394 5.13-30.842zm11.34 0c-9.103 7.433 5.459 6.193 0 0zm-96.09.296a2.386 2.386 0 0 0-.576.117c-8.914 5.986.965 4.08 3.377 2.289-.054-1.483-1.443-2.511-2.8-2.406zm36.06.75c-4.245 7.942-38.247 10.173-15.014 5.55 5.139-1.465 10.068-3.55 15.013-5.55zm-108.53.275c-3.528 1.949 5.868 3.157 0 0zm58.352.33c-2.817 3.287 4.163 2.359 0 0zm81.995.716c-4.91 3.14 3.936 4.866 0 0zm-111.28.082c7.678 1.944 38.513 11.346 16.19 6.495-5.668-1.361-11.25-3.35-16.19-6.495zm118.079 1.074c-8.523.843-.25 6.414 0 0zm-148.687.77c-4.4 3.62 4.644 3.718 0 0zm72.967 2.34c-1.953 2.502 3.352 1.308 0 0zm-50.534.386c-2.534 3.02 4.313 1.842 0 0zm121.464.467c-3.843 2.274 3.738 2.129 0 0zm-24.579 1.79c-1.121 9.945 8.767 13.05 12.786 5.034 11.75-1.181-2.071 19.278-6.67 6.931-6.474-1.837-18.901-6.754-6.116-11.965zm-106.051.853c28.5 14.84 62.34 14.674 93.057 7.853 12.815-.616 30.464 14.801 11.712 22.549-17.076 16.758-43.295 19.953-66.154 18.066-19.175-2.061-40.434-7.4-52.632-23.507-4.92-10.525 6.743-19.456 14.017-24.961zm66.664 4.569c-1.301 2.605 1.413 2.299 0 0zm-12.578 1.706c-2.61 1.51 4.021.02 0 0zm64.214.77c-3.801 3.008 3.731 3.394 0 0zm-167.018 1.047c-1.302 2.605 1.412 2.3 0 0zm175.082.468c1.272 2.022 2.572 4.27 3.895 6.502-.674-.269-1.802-.517-3.702-.694-3.486 3.433 3.089 2.808 4.28 1.667 5.468 9.098 11.577 17.224 19.686 6.92.32 10.622-9.91 20.828-15.692 28.478.933-7.893 2.455-26.302-10.294-16.244-13.186-1.695-28.326 7.213-23.648 19.812-3.713-.632-6.302 2.58-6.786 6.063-.27-.266-.936-.513-2.199-.676-2.284 2.669 1.19 2.246 2.115 1.38-.212 3.858 2.228 7.757 8.724 6.955 12.796 3.035-12.74 8.159-16.507 11.728-19.834 7.284 18.358-19.863-5.64-18.512-11.989 2.901-20.4-11.422-4.93-9.31 9.28-3.038 17.66-6.81 24.915-12.384-.34 1.725 3.734.944 1.11-.865a56.775 56.775 0 0 0 9.119-9.258c6.57-4.678 15.333-9.625 12.31-15.711.96-1.904 3.155-3.508 3.244-5.85zm-156.173.055c-10.214 2.504 1.542 5.716 0 0zm188.735.248c3.182 9.076-12.318 16.048-1.716 3.847.455-1.307.266-3.077 1.716-3.847zm-183.285.55c-2.83 7.548 10.97 4.486 0 0zm-22.047 1.156c-3.892 3.906 3.127 3.211 0 0zm8.808 0c-3.843 2.274 3.738 2.129 0 0zm8.67 1.982c-4.674 2.6 3.516 2.562 0 0zm-12.634.66c-4.437 2.127 4.22 1.543 0 0zm3.083.964c-2.3 3.27 4.663 1.59 0 0zm12.33 1.679c-3.8 3.007 3.732 3.393 0 0zm2.643.88c-3.8 3.007 3.732 3.393 0 0zm-3.963 4.404c-5.321 3.28 4.916 2.734 0 0zm5.257.66c-4.741 2.855 4.753 2.242 0 0zm149.842.221c-4.74 2.47 3.356 2.598 0 0zm-5.12 1.762c-6.15 9.47 5.282 8.908 0 0zm9.167.44c-6.993 2.142 4.34 5.435 0 0zm-172.76.297c.929 7.69 18.006 23.106 10.762 21.622-6.138-5.442-10.345-13.37-10.762-21.622zm296.73 3.667c12.51 3.782-3.858 6.634 0 0zm-138.366.027c-8.549 2.572 4.593 8.037 0 0zm11.588.853c-3.747 1.813 3.408 1.622 0 0zm11.45 0c-3.843 2.274 3.738 2.129 0 0zm-158.348.028c4.97 3.618 8.388 21.598 7.42 6.787 4.697 10.122 34.437 12.864 10.498 15.537-13.362 5.582-24.71-2.475-18.564-16.581 1-2.424-3.192-4.844.646-5.743zm270.29 2.615c12.66 6.214 1.459 10.577 0 0zm-107.428.88c-5.688 1.836 2.423 2.36 0 0zm-25.322.166c-1.301 2.605 1.412 2.299 0 0zm-9.138.715c-3.747 1.813 3.408 1.622 0 0zm139.52 1.762c12.696 6.556 1.81 12.526 0 0zm-110.454.88c-8.295 5.297 9.178 7.05 0 0zm-8.45.138c-2.93 12.079-24.497 26.577-28.122 25.058 10.74-6.649 19.927-15.511 28.122-25.058zm21.753.871c7.19-.018 14.578 1.12 20.109 4.386-7.685 5.425 2.405 9.84.18.11 5.259 3.173 8.795 8.305 8.783 16.27 7.817 3.317 24.13-6.721 19.39 8.369-10.208 2.53-18.237-2.41-26.55-8.823-5.868 1.725-21.92-12.727-24.728-20.247a70.07 70.07 0 0 1 2.816-.064zm95.033 1.607c9.012 4.713 3.617 17.037 0 0zm-263.354.908c-3.8 3.007 3.732 3.393 0 0zm170.954.88c-.117 8.229 12.288 7.706 1.615.684zm5.973 0c-5.48 4.147 10.884 5.248 0 0zm83.316.11c9.968 9.775-.699 14.38 0 0zm-76.298.11c-4.549 2.355 3.454 2.171 0 0zm-184.908 3.304c-2.558 3.077 4.306 2.141 0 0zm11.533.192c-3.596 3.684 5.086 1.767 0 0zm246.288.936c8.618 10.408.292 11.163 0 0zm-75.83 1.514c-1.77 8.162 11.614 7.282 0 0zm-162.559.027c-3.527 2.169 4.965 1.666 0 0zm-15.441.854c-3.492 2.076 4.442.722 0 0zm102.776 0c-5.878 2.43 3.793 2.305 0 0zm146.732.055c7.743 3.432 3.193 20.101 0 0zm-241.526.826c-4.437 2.126 4.22 1.542 0 0zm99.556 0c-5.364 1.434 3.023 3.319 0 0zm-76.715.5a.259.259 0 0 1 .142.05c9.49 8.8 24.722 4.648 36.53 5.819-3.169 1.727 3.26 1.362 1.107.127 1.03.136 2.042.302 3.007.544-1.582 4.318-14.377 2.67-5.476 7.608-5.643 5.102-24.595 5.732-8.297 11.426 19.298 15.188-18.017 7.577-16.773 2.933-3.633 7.755-8.905.856-12.826-1.755 18.826 3.101 13.645-18.878-.36-23.535-2.518-1.428 1.986-3.327 2.946-3.216zm154.03.023c-2.329 8.38 10.42 2.224 0 0zm61.82.357c9.179 10.658-4.262 16.095 0 0zm-134.814.083c-7.285 3.358.623 3.67 0 0zm-15 1.982c-4.11 1.177 2.42 2.268 0 0zm145.41.165c6.964 9.087-2.991 14.395-1.863 1.832l.702-1.15zm-5.009 1.293c6.74 9.63-5.022 18.956 0 0zm-242.985.413c8.142 3.633 10.656 26.871-.674 12.408-8.527-.793-8.717-7.46-17.78-8.289 2.688-3.33 20.088-4.358 7.94-1.008 3.207 1.204 9.029.35 10.514-3.11zm109.107.055c-4.91 2.696 3.989 1.827 0 0zm-12.992.44c-4.944 1.711 3.227 2.143 0 0zm128.209.854c5.676 7.41-6.753 21.012-1.68 5.505.65-1.632-.32-4.43 1.68-5.505zm13.019.138c7.962 9.212-7.348 18.641-1.814 2.828l.492-1.808zm-7.24.11c8.717 4.525-6.33 20.903-1.873 5.619.194-1.87-.471-4.71 1.873-5.619zm-183.312.22c-10.89 2.697 8.19 4.968 0 0zm42.223.413c-3.843 2.273 3.738 2.128 0 0zm-35.7 1.541c-4.74 2.854 4.753 2.242 0 0zm-43.653.633c9.487 2.545 30.406 5.647 30.875 11.144-10.35-3.468-21.473-5.332-30.875-11.144zm91.133 0c-6.843.673.88 5.005 0 0zm-6.881.468c-4.729 1.438 3.233 1.992 0 0zm-31.295.22c-6.454 1.675 4.725 1.672 0 0zm-18.111.688c-1.953 2.502 3.352 1.308 0 0zm170.789 0c.017 8.8-20.041-2.23-7.959 5.169 3.397 1.26 13.448.768 7.959-5.169zm-218.434.056c-2.763 5.742 8.44 2.363 0 0zm109.217.082c-1.302 2.606 1.412 2.3 0 0zm-57.581.715c-3.844 2.274 3.738 2.129 0 0zm9.165.33c-4.15 1.985 2.68 3.614 0 0zm-54.085 2.313c-3.843 2.274 3.738 2.128 0 0zm48.938.88c-6.713 2.142 4.913 3.157 0 0zm-39.69.139c4.385 3.52-6.385 2.233 0 0zm45.773 2.532c-1.953 2.501 3.352 1.307 0 0zm55.407 1.899c-1.301 2.605 1.413 2.299 0 0zm-13.13.275c-8.71 7.272-33.164 3.249-35.167 2.09 11.698-1.113 23.56.056 35.168-2.09zm18.167 2.312c-5.22 1.674 3.152 3.566 0 0zm-66.802.771c-4.43 4.373 5.95 3.872 0 0zm59.205.66c-4.74 2.854 4.753 2.242 0 0zm-52.874 2.863c-3.492 2.076 4.442.721 0 0zm45.415 0c-3.843 2.273 3.738 2.128 0 0zm6.55.082c-7.284 3.358.624 3.671 0 0zm-47.92 1.68c-4.604 4.046 3.458 6.401 0 0zm-8.835.88c-4.662 3.837 6.38 1.74 0 0zm57.104 39.388c-.1-.002-.244.117-.501.267l-3.97 2.276c.17.628.506 1.263.57 1.887-3.97 9.424-7.896 18.867-11.895 28.278-.59 1.163-1.645 2.437-3.1 2.262h-2.058v2.535h13.37v-2.535c-1.077-.073-2.198.16-3.246-.143-1.142-.574-1.67-2.132-1.247-3.314 1.437-3.552 2.881-7.103 4.321-10.655h9.573c1.515 4.42 3.089 8.826 4.566 13.252.197.514-.225.989-.754.86h-2.432v2.535c9.356-.012 18.711.026 28.066-.018 4.675-.145 9.24-2.052 12.665-5.23 3.575-3.174 5.953-7.755 6.132-12.564.236-2.657-.203-5.355-1.021-7.884-1.243-3.675-3.565-7.226-7.157-8.947-2.447-1.243-5.247-1.427-7.943-1.345h-18.99v2.484c1.208.041 2.437-.081 3.633.061.763.264 1.148 1.07 1.018 1.84-.007 9.279.014 18.557-.01 27.834-.098.803-.86 1.446-1.677 1.288a25.2 25.2 0 0 1-2.19-.054c-1.349.121-2.951-.23-3.668-1.492-3.974-10.992-7.879-22.011-11.826-33.014-.076-.338-.13-.462-.23-.464zm-237.926.998a22.65 22.65 0 0 0-1.47.002c-4.646.098-9.364 1.875-12.511 5.375-4.004 4.415-5.61 10.7-4.735 16.544.776 5.858 4.372 11.473 9.804 14.008 3.87 1.792 8.333 2.07 12.486 1.262 5.037-1.007 9.512-4.459 11.72-9.104 1.665-3.34 2.295-7.13 2.017-10.84-.293-5.544-3.02-11.02-7.601-14.242-2.828-2-6.274-2.897-9.71-3.004zm321.52 0a22.65 22.65 0 0 0-1.47.002c-4.647.098-9.365 1.875-12.512 5.375-4.004 4.415-5.61 10.7-4.735 16.544.773 5.83 4.335 11.416 9.723 13.971 3.889 1.824 8.386 2.112 12.567 1.3 5.037-1.008 9.512-4.46 11.72-9.105 1.665-3.34 2.295-7.13 2.017-10.84-.293-5.544-3.02-11.02-7.601-14.242-2.828-2-6.274-2.897-9.71-3.004zm-153.617.516c-.75-.014-1.499-.004-2.233.003h-15.131v2.484c1.206.041 2.435-.08 3.628.06.81.246 1.144 1.11 1.023 1.891-.007 9.261.014 18.524-.01 27.784-.098.8-.858 1.449-1.677 1.287h-2.964v2.482h14.533v-2.482c-1.206-.038-2.43.079-3.625-.06-.803-.228-1.081-1.088-.974-1.84V453.73h4.82c3.167 5.506 6.274 11.05 9.477 16.532.973 1.678 2.822 2.875 4.8 2.757h30.61c1.01-3.804 2.018-7.609 3.027-11.414h-2.252c-1.088 2.683-2.248 5.58-4.724 7.289-1.59 1.166-3.62 1.427-5.54 1.325-1.965-.02-3.935.04-5.897-.03-1.144-.284-1.25-1.662-1.192-2.635v-13.03c1.808.036 3.624-.077 5.426.061 1.545.343 2.915 1.454 3.647 2.849.515.996.368 2.142.387 3.22h2.166v-14.48h-2.166c.034 1.291.09 2.716-.794 3.77-.989 1.372-2.67 2.196-4.365 2.044h-4.3c.016-3.466-.033-6.935.024-10.398.1-.819.569-1.883 1.563-1.758 2.553.037 5.111-.074 7.66.056 2.397.197 4.394 1.845 5.65 3.81 1.042 1.533 1.722 3.268 2.458 4.959h2.22l-2.557-11.626h-26.953v2.484c1.205.041 2.434-.08 3.626.06.766.26 1.157 1.068 1.024 1.842-.007 9.278.013 18.556-.01 27.833-.098.848-.923 1.464-1.766 1.287h-2.874c.175.671-.748.284-1.107.216-1.517-.396-2.667-1.584-3.342-2.96l-8.386-14.297c2.43-.418 4.798-1.836 5.839-4.146.708-1.473.91-3.126.819-4.744.07-2.375-1.072-4.804-3.14-6.045-1.931-1.228-4.198-1.49-6.448-1.533zm-224.059.003v2.484c1.209.041 2.438-.081 3.634.061.762.264 1.147 1.07 1.018 1.84-.007 9.278.014 18.557-.01 27.834-.098.803-.86 1.445-1.677 1.287h-2.965v2.482c5.497-.02 10.996.04 16.491-.03 4.855-.178 9.56-2.293 13.004-5.703 3.345-3.169 5.486-7.628 5.63-12.254.202-2.601-.233-5.235-1.034-7.709-1.243-3.675-3.565-7.226-7.157-8.947-2.447-1.243-5.247-1.427-7.943-1.345zm78.24 0v2.484c1.189.04 2.399-.08 3.574.06.748.233 1.214.98 1.078 1.755-.014 8.411.027 16.824-.02 25.235-.163 1.41-.676 3.034-2.015 3.739-1.045.363-2.188.1-3.273.18-.721-.189-.815.25-.717.88v1.655h13.687v-2.535c-1.079-.068-2.198.148-3.249-.134-1.535-.747-2.205-2.6-2.196-4.222v-23.452l19.69 30.343h4.198c.013-9.859-.026-19.72.019-29.578.167-1.378.61-3.018 1.956-3.689 1.094-.37 2.287-.104 3.422-.185.791.247.546-.541.574-1.056-.103-.45.213-1.317-.176-1.48h-13.457v2.536c1.134.078 2.322-.176 3.42.174 1.53.734 1.981 2.621 1.97 4.18v22.584L233.04 437.03zm38.59 0-.121.362c-1.097 3.288-2.19 6.576-3.29 9.864l2.464.096c.365-2.297 1.596-4.472 3.546-5.78 1.77-1.234 3.992-1.682 6.057-1.685.927.04 1.874-.096 2.788.07 1.134.584.908 2.061.932 3.122-.007 8.724.015 17.448-.01 26.17-.098.8-.858 1.449-1.677 1.287h-2.964v2.483h14.586v-2.483c-1.224-.04-2.465.08-3.678-.06-.802-.228-1.081-1.088-.974-1.84.012-8.956-.022-17.913.017-26.867.05-.865.555-2.043 1.61-1.885 1.93.07 3.888-.168 5.798.188 3.358.742 6.308 3.363 7.145 6.743-.031.755.676.487 1.185.494.38-.141 1.514.242 1.186-.39-1.08-3.296-2.16-6.592-3.238-9.889zm53.259 0-.12.362c-1.097 3.288-2.191 6.576-3.29 9.864l2.464.096c.365-2.297 1.596-4.472 3.546-5.78 1.77-1.234 3.991-1.682 6.056-1.685.927.04 1.875-.096 2.789.07 1.133.584.908 2.061.932 3.122-.007 8.724.014 17.448-.01 26.17-.098.8-.858 1.449-1.677 1.287h-2.964v2.483h14.586v-2.483c-1.224-.04-2.465.08-3.678-.06-.802-.228-1.081-1.088-.973-1.84.011-8.956-.023-17.913.017-26.867.05-.865.554-2.043 1.609-1.885 1.93.07 3.888-.168 5.798.188 3.357.742 6.308 3.363 7.145 6.743-.031.755.676.487 1.185.494.38-.141 1.514.242 1.186-.39l-3.239-9.889zm229.67 0v2.484c1.189.04 2.4-.08 3.575.06.747.233 1.213.98 1.077 1.755-.014 8.411.027 16.824-.02 25.235-.163 1.41-.675 3.034-2.015 3.739-1.045.363-2.188.1-3.273.18-.72-.189-.815.25-.717.88v1.655h13.687v-2.535c-1.078-.068-2.198.148-3.249-.134-1.534-.747-2.205-2.6-2.196-4.222v-23.452l19.69 30.343h4.198c.013-9.859-.025-19.72.02-29.578.167-1.378.61-3.018 1.955-3.689 1.094-.37 2.288-.104 3.423-.185.79.247.545-.541.573-1.056-.102-.45.214-1.317-.176-1.48h-13.457v2.536c1.135.078 2.322-.176 3.42.174 1.53.734 1.982 2.621 1.97 4.18v22.584L554.56 437.03zm49.24 0v2.484c1.208.042 2.438-.082 3.633.062.759.265 1.148 1.068 1.017 1.84-.013 8.383.026 16.767-.02 25.15-.181 1.347-.623 2.88-1.827 3.662-.971.479-2.101.163-3.142.255-.538-.005-1.224-.159-.982.616v1.92h13.633v-2.536c-1.099-.075-2.247.17-3.31-.167-1.62-.833-2.158-2.838-2.08-4.538v-21.896c3.827 9.712 7.651 19.425 11.48 29.137h3.736c3.77-9.912 7.543-19.823 11.314-29.734-.006 8.645.012 17.29-.009 25.933-.17.787-.877 1.49-1.732 1.318h-2.962v2.483h40.538c1.011-3.804 2.02-7.61 3.028-11.415h-2.252c-1.087 2.683-2.248 5.58-4.724 7.289-1.59 1.166-3.62 1.427-5.54 1.325-1.965-.02-3.935.04-5.896-.03-1.145-.284-1.25-1.662-1.192-2.635v-13.03c1.807.036 3.623-.077 5.425.061 1.545.343 2.915 1.454 3.647 2.849.515.996.368 2.142.387 3.22h2.166v-14.48h-2.166c.034 1.292.09 2.716-.794 3.77-.989 1.372-2.67 2.196-4.365 2.044h-4.3c.016-3.466-.033-6.935.024-10.398.1-.819.569-1.883 1.563-1.758 2.553.037 5.112-.074 7.66.056 2.397.197 4.394 1.845 5.65 3.81 1.042 1.533 1.722 3.268 2.459 4.959h2.219l-2.557-11.626h-35.849c-3.916 10.24-7.829 20.482-11.744 30.723-4.035-10.241-8.069-20.483-12.106-30.723zm-393.539 1.638c3.723-.06 7.24 2.142 9.142 5.285 2.61 4.248 3.282 9.438 2.79 14.331-.459 4.179-2.042 8.447-5.247 11.293-2.298 2.013-5.469 2.712-8.472 2.245-3.148-.433-5.783-2.62-7.383-5.284-2.744-4.39-3.29-9.862-2.656-14.865.406-2.925 1.375-5.77 3.006-8.195 1.597-2.472 4.206-4.352 7.17-4.698a14.234 14.234 0 0 1 1.65-.112zm321.52 0c3.722-.06 7.239 2.142 9.142 5.285 2.608 4.248 3.28 9.438 2.79 14.331-.46 4.179-2.043 8.447-5.248 11.293-2.298 2.013-5.469 2.712-8.472 2.245-3.148-.433-5.783-2.62-7.382-5.284-2.745-4.39-3.292-9.862-2.658-14.865.407-2.925 1.376-5.77 3.008-8.195 1.596-2.472 4.205-4.352 7.17-4.698a14.233 14.233 0 0 1 1.65-.112zm112.024.823c.096-.005.197.003.3.023h2.471c1.206.04 2.434-.081 3.627.06.765.26 1.156 1.068 1.023 1.842-.007 9.277.014 18.556-.01 27.833-.098.848-.923 1.464-1.765 1.287-1.96-.019-3.923.037-5.879-.027-.853-.179-1.149-1.102-1.037-1.874.006-9.273-.011-18.547.009-27.82.102-.658.586-1.29 1.26-1.324zm-477.813.34c.115-.019.238-.02.37 0h7.347c2.818-.068 5.53 1.385 7.21 3.62 1.377 1.715 2.263 3.776 2.78 5.844.933 3.786 1.002 7.875-.398 11.56-1.36 3.527-3.863 6.804-7.368 8.394-2.083.966-4.412 1.025-6.665.969-1.15-.042-2.321.084-3.459-.063-1.191-.501-1.093-1.973-1.073-3.044.011-8.465-.023-16.931.017-25.395.045-.757.435-1.753 1.24-1.885zm205.438 0h5.541c1.939.017 4.117.583 5.292 2.24.918 1.372.472 3.073.409 4.6-.258 1.778-1.365 3.531-3.154 4.072-1.945.656-4.03.308-6.042.397h-2.046zm103.593 0c.114-.019.237-.02.37 0h7.346c2.819-.068 5.53 1.385 7.21 3.62 1.377 1.715 2.263 3.776 2.78 5.844.933 3.786 1.002 7.875-.398 11.56-1.36 3.527-3.863 6.804-7.368 8.394-2.083.966-4.412 1.025-6.664.969-1.15-.042-2.322.084-3.46-.063-1.191-.501-1.094-1.973-1.073-3.044.011-8.465-.023-16.931.017-25.395.045-.757.436-1.753 1.24-1.885zm-28.645 3.776 3.485 10.282h-7.721l4.236-10.282z"/></svg>