<svg xmlns="http://www.w3.org/2000/svg" xml:space="preserve" width="3072" height="2048" viewBox="0 0 812.8 541.867"><path fill="#fff" d="M67.733 0v338.667h67.734V0ZM203.2 0v338.667h67.733V0Zm135.467 0v338.667H406.4V0Zm135.466 0v338.667h67.734V0ZM609.6 0v338.667h67.733V0Zm135.467 0v338.667H812.8V0Z" paint-order="stroke fill markers"/><path fill="#e00000" d="M0 0v338.667h67.733V0Zm135.467 0v338.667H203.2V0Zm135.466 0v338.667h67.734V0zM406.4 0v338.667h67.733V0zm135.467 0v338.667H609.6V0zm135.466 0v338.667h67.734V0z" paint-order="stroke fill markers"/><path fill="#0020a0" d="M382.861 67.734c-7.453-.017-10.38.317-18.76 2.142-11.29 2.458-17.115 3.983-21.326 5.584-2.927 1.113-8.905 3.532-12.747 5.158-3.656 1.547-10.229 3.72-18.68 6.173-8.36 2.426-12.452 3.779-17.478 5.776-15.024 5.973-25.315 12.966-29.743 20.213a99.077 99.077 0 0 1-4.645 6.96c-4.792 6.552-9.978 15.384-10.594 18.042-.482 2.077-1.95 5.546-5.527 13.065-3.902 8.201-4.348 9.517-6.258 18.462-1.795 8.405-3.589 15.193-4.342 16.433-.407.67-.581 2.24-.782 7.034-.195 4.676-.519 8.503-1.51 17.88a945.92 945.92 0 0 0-1.056 10.502c-.752 8.268-1.89 13.78-4.401 21.327-1.964 5.9-4.227 11.244-7.694 18.172-1.01 2.02-1.945 4.096-2.078 4.614-.958 3.744-1.158 11.627-.334 13.22.522 1.009 1.748.664 3.513-.987 3.422-3.201 7.951-10.473 10.077-16.18.734-1.968 1.028-3.13 1.219-4.81.214-1.888.464-2.543 2.268-5.933 3.489-6.56 6.002-12.71 7.923-19.382 1.177-4.09 1.993-7.71 3.056-13.569 1.664-9.16 3.614-18.243 4.638-21.597.43-1.41.914-2.245 1.16-2 .073.072.18 3.392.237 7.375.098 6.9.194 8.293.624 9.099.296.551.76 3.278 1.116 6.553.59 5.418 1.498 9.772 2.757 13.212 1.494 4.086 2.646 7.83 4.768 15.499 2.656 9.6 2.767 10.032 3.281 12.827 1.184 6.432 1.217 12.942.092 18.31-.96 4.582-3.1 9.494-5.892 13.519-3.323 4.789-8.049 9.389-13.878 13.508-4.649 3.285-5.537 3.945-7.823 5.812-2.854 2.332-7.857 7.166-10.043 9.702-2.138 2.48-3.936 5.014-4.817 6.789-.682 1.373-.758 1.642-.804 2.816-.09 2.345 1.111 5.877 3.048 9.613H0v203.2h812.8v-203.2H597.273c.732-2.652.94-3.726 1.073-5.499.165-2.195-.007-7.354-.31-9.31-.4-2.587-1.46-4.912-7.123-15.619-6.012-11.369-8.373-17.631-8.892-23.585-.358-4.11-.527-17.027-.345-26.432.2-10.347.357-13.147.896-15.979 1.266-6.646 1.84-14.768 1.84-26.136 0-12.32-.76-25.473-2.18-37.681-.537-4.609-.474-6.835.33-11.558.72-4.222.952-6.601.826-8.444-.321-4.682-1.576-7.727-6.195-15.028-2.69-4.252-4.299-8.894-6.893-19.888-1.01-4.28-1.714-6.65-2.665-8.98-2.657-6.508-6.675-10.552-14.086-14.18-10.277-5.03-11.381-5.61-12.752-6.7-3.374-2.685-6.5-4.256-10.178-5.116-1.011-.236-1.893-.299-4.168-.292-2.58.007-3.09.055-4.799.455-2.489.583-4.157 1.177-6.907 2.458-5.782 2.695-6.687 3.093-8.26 3.63-4.274 1.457-7.662 1.351-12.082-.377-.898-.35-3.542-1.584-5.877-2.74-2.335-1.156-5.004-2.412-5.93-2.791-.926-.38-3.343-1.446-5.371-2.37-6.823-3.11-7.094-3.166-18.12-3.81-7.928-.462-11.99-.863-16.355-1.613-4.565-.785-6.364-1.32-16.273-4.833-10.346-3.668-13.958-4.748-20.205-6.037-8.332-1.72-15.326-2.46-23.41-2.478zM516.504 211.8c.947.047 1.543.293 2.662.958 2.095 1.243 12.462 5.465 16.664 6.786 1.56.49 2.533 1.003 4.57 2.41 2.061 1.423 3.595 2.28 4.293 2.402 2.573.446 4.148 5.808 5.491 18.689.967 9.272 2.222 14.92 7.053 31.748 2.63 9.164 3.49 12.458 3.765 14.44.203 1.458.817 2.766 2.042 4.35 1.255 1.623 2.55 3.713 4.043 6.526 2.142 4.033 3.747 6.422 6.594 9.818 4.908 5.853 8.279 11.47 10 16.657 1.41 4.253 1.894 8.182 1.443 12.083H539.22c-.388-.376-.687-.688-1.127-1.103-2.807-2.65-4.645-5.621-5.774-9.332-.628-2.064-.775-2.868-1.05-5.737-.286-2.995-.87-4.792-3.044-9.36-2.379-5.002-3.491-8.159-4.093-11.616-.381-2.194-.458-3.026-.648-7.004-.141-2.964-.518-5.781-1.06-7.937-.347-1.377-3.43-11.276-4.37-14.03-1.686-4.94-2.409-6.415-4.746-9.692-.94-1.318-2.264-3.33-2.942-4.472-1.322-2.225-3.665-5.417-6.577-8.96l-1.808-2.2.06-13.514c.054-12.219.086-13.617.34-14.585.58-2.225 1.415-2.956 5.567-4.875 3.73-1.724 5.655-2.354 7.46-2.44.426-.02.78-.026 1.096-.01zm-103.641 47.718-.085.382c-.14.631-1.82 10.551-2.005 11.846-.498 3.462-1.543 13.922-2.339 23.41-.706 8.409-1.192 11.896-2.23 15.991-.945 3.731-1.664 5.688-3.55 9.666-.731 1.544-1.48 3.348-1.665 4.009-.392 1.407-.643 4.075-.648 6.893-.004 2.466-.262 4.358-1.045 6.952h-73.319c-.012-1.812.132-4.33.427-6.872.584-5.03.71-7.033.71-11.224.001-4.794-.24-7.08-1.101-10.453a66.806 66.806 0 0 1-.8-3.527c-.337-1.846-.468-6.28-.32-10.83l.12-3.645 2.989-2.116c10.325-7.308 13.943-10.727 18.303-17.292 2.225-3.35 2.701-3.899 3.897-4.486 1.591-.78 2.825-.862 9.57-.634 6.1.206 13.205.127 15.874-.177 2.86-.325 12.102-1.933 14.35-2.497 2.774-.695 4.546-1.203 9.461-2.715 6.588-2.026 8.625-2.498 11.193-2.596l2.213-.085zm47.31 17.682c.882-.002.976.044 3.287 1.575 1.309.867 3.72 2.39 5.358 3.383 3.432 2.083 5.015 3.323 6.036 4.731 1.252 1.726 5.473 9.89 7.567 14.634 1.266 2.87 1.937 4.128 2.975 5.576.926 1.29 2.479 2.802 3.565 3.469 2.62 1.609 2.838 1.86 3.316 3.842.15.616.703 3.661 1.232 6.767 1.38 8.112 2.17 11.435 3.66 15.4.318.846.543 1.5.699 2.09h-57.356c-.072-1.789.163-3.585.962-7.5 1.338-6.55 1.825-8.2 3.442-11.638 1.844-3.921 2.46-5.8 4.788-14.591.62-2.337 1.495-5.476 1.947-6.975 1.795-5.957 3.045-11.48 3.045-13.46 0-1.05.494-3.017 1.018-4.05.218-.431.745-1.17 1.17-1.643.972-1.082 2.048-1.608 3.29-1.61zm-174.427 37.358c.584 0 1.463.827 1.932 1.818 1.129 2.387 1.62 6.28 1.488 11.812-.1 4.157-.377 6.831-1.13 10.479H261.23c2.242-2.71 4.7-5.449 6.622-7.274 1.805-1.713 2.131-1.949 5.287-3.822 4.078-2.421 6.935-5.347 9.185-9.405 1.338-2.414 2.47-3.608 3.422-3.608z" paint-order="stroke fill markers"/><path fill="#fff" d="m169.333 372.533-16.776 51.692H98.035l44.114 32.063L125.366 508l43.967-31.955L213.301 508l-16.784-51.712 44.115-32.063H186.11l-16.777-51.692zm237.067 0-16.777 51.692h-54.522l44.115 32.063L362.433 508l43.967-31.955L450.367 508l-16.784-51.712 44.115-32.063h-54.521L406.4 372.533zm237.067 0-16.777 51.692h-54.522l44.115 32.063L599.499 508l43.968-31.955L687.434 508l-16.784-51.712 44.115-32.063h-54.522l-16.776-51.692z"/></svg>