<svg xmlns="http://www.w3.org/2000/svg" xml:space="preserve" width="3072" height="2048" viewBox="0 0 812.8 541.867"><path d="M0 0h812.8v541.867H0Z" paint-order="stroke fill markers"/><path fill="#fff" d="M406.4 67.733a203.2 203.2 0 0 0-203.2 203.2 203.2 203.2 0 0 0 203.2 203.2 203.2 203.2 0 0 0 203.2-203.2 203.2 203.2 0 0 0-203.2-203.2z" paint-order="stroke fill markers"/><path fill="#e00000" fill-rule="evenodd" d="M436.565 84.667c-62.83 48.905-97.696 102.806-116.714 183.524-34.113-5.999-70.35-16.35-99.718-28.074 49.091 63.26 103.226 98.155 184.535 117.133-5.987 34.189-16.316 70.516-28.03 99.95 63.016-49.05 97.814-103.134 116.794-184.25 33.972 6.011 70.007 16.405 99.235 28.073-48.993-63.132-103.015-98.128-184.052-117.132 6.006-33.974 16.32-70.001 27.95-99.224z"/></svg>