<svg xmlns="http://www.w3.org/2000/svg" xml:space="preserve" width="3072" height="2048" viewBox="0 0 812.8 541.867"><path d="M0 0v541.867h812.8V0Z"/><g fill="#e00000" stroke="#fff" stroke-linecap="round" stroke-linejoin="round" stroke-width="7.52"><path stroke-miterlimit="10" d="M420.72 354.207 202.053 135.543V91.81h43.733L464.45 310.475"/><path d="M460.65 309a11.597 30.924 45 0 0-26.271 15.142 11.597 30.924 45 0 0-13.666 30.067 11.597 30.924 45 0 0 30.067-13.666 11.597 30.924 45 0 0 13.666-30.067A11.597 30.924 45 0 0 460.65 309zm110.585 96.48a15.464 41.458 45 0 0-35.179 20.34 15.464 41.458 45 0 0-18.38 40.25 15.464 41.458 45 0 0 40.25-18.381 15.464 41.458 45 0 0 18.38-40.25 15.464 41.458 45 0 0-5.071-1.959z"/><path stroke-miterlimit="10" d="m400.408 358.118 21.788 11.013 28.59-28.59 21.866 21.867-43.58 43.58-38.42-21.714zm67.954-67.954 11.013 21.788-28.59 28.59 21.867 21.866 43.58-43.58-21.713-38.42z"/><path d="m487.688 347.383-30.066 30.066 63.565 63.565 30.066-30.066z"/><path stroke-miterlimit="10" d="m512.83 432.654 30.068-30.067m-7.926-7.926-30.067 30.066m22.14-37.993-30.067 30.065m-7.927-7.924 30.068-30.068m-7.927-7.927-30.068 30.067m22.14-37.992L473.2 393.021m-7.927-7.928 30.065-30.065m-60.952-30.887L226.653 116.409"/><g stroke-miterlimit="10"><path d="M542.442 87.799 192.488 426.64l43.732 43.733L575.061 120.42z"/><path d="M572.99 229.817 463.656 120.484 425.39 82.218l-.207-10.725 85.794 1.669 109.334 109.333z"/></g></g></svg>