<svg xmlns="http://www.w3.org/2000/svg" width="1032" height="136" viewBox="0 0 273.04999 35.983333"><path d="M102.65833 1.0583342H170.391667V34.9249992H102.65833z" style="fill:#202020;stroke:gray;stroke-width:2.11667;stroke-linecap:round;stroke-linejoin:round;stroke-dasharray:none;stroke-opacity:1;paint-order:stroke fill markers;fill-opacity:1"/><path d="M1.0583349 1.0583342H68.7916719V34.9249992H1.0583349z" style="fill:#fff;stroke:gray;stroke-width:2.11667;stroke-linecap:round;stroke-linejoin:round;stroke-dasharray:none;stroke-opacity:1;paint-order:stroke fill markers;fill-opacity:1"/><path d="M204.25833 1.0583342H271.991667V34.9249992H204.25833z" style="fill:#000;stroke:#fff;stroke-width:2.11667;stroke-linecap:round;stroke-linejoin:round;stroke-dasharray:none;stroke-opacity:1;paint-order:stroke fill markers"/><path d="m 34.286283,14.510742 -3.183268,6.829557 h 1.44694 l 0.425814,-0.930176 h 2.666504 l 0.421679,0.930176 h 1.451075 l -3.187403,-6.829557 z m -9.859863,0.0248 c -1.223697,0 -2.199349,0.760678 -2.199349,1.914095 0,1.062467 0.822689,1.471745 1.570963,1.843815 0.698665,0.347266 1.49655,0.731739 1.49655,1.219564 0,0.355534 -0.42168,0.611849 -1.050065,0.611849 -0.574642,0 -1.000456,-0.214974 -1.293978,-0.686263 l -1.070736,0.752409 c 0.446484,0.826822 1.252638,1.281576 2.344043,1.281576 1.426269,0 2.418457,-0.773081 2.418457,-1.98851 0,-1.025259 -0.694532,-1.5875 -1.79834,-2.108398 -0.76481,-0.359668 -1.269173,-0.496094 -1.269173,-0.892969 0,-0.343131 0.372071,-0.632519 0.872298,-0.632519 0.37207,0 0.756543,0.16123 0.954981,0.558105 l 0.988053,-0.690397 c -0.30179,-0.806152 -1.0542,-1.182357 -1.963704,-1.182357 z m 2.621028,0.14056 v 1.327051 h 1.641244 v 5.337142 h 1.343587 v -5.337142 h 1.637109 v -1.327051 z m 11.133171,0 0.0041,6.664193 h 1.339453 V 18.1901 l 2.120801,3.150195 h 1.637105 l -1.89342,-2.649968 c 0.715201,-0.25218 1.23197,-1.000456 1.23197,-1.856217 0,-1.198893 -1.021131,-2.158008 -2.265499,-2.158008 z m 5.167643,0 v 1.327051 h 1.64124 v 5.337142 h 1.34359 v -5.337142 h 1.63711 v -1.327051 z m -3.82819,1.327051 h 0.859896 c 0.450618,0 0.859896,0.363802 0.859896,0.839225 0,0.475423 -0.405144,0.84336 -0.859896,0.839225 l -0.859896,-0.0041 z m -5.208984,1.484147 0.810286,1.781803 h -1.624707 z" style="font-size:8.46667px;line-height:1;font-family:&quot;LEMON MILK&quot;;-inkscape-font-specification:&quot;LEMON MILK&quot;;text-align:center;text-anchor:middle;fill:#000;fill-opacity:1;stroke:none;stroke-width:2.11667;stroke-linecap:round;stroke-linejoin:round;stroke-dasharray:none;stroke-opacity:1;paint-order:stroke fill markers"/><path d="M135.43773 14.432194c-1.2237 0-2.19935.760679-2.19935 1.914095 0 1.062466.82269 1.471745 1.57097 1.843815.69866.347266 1.49655.731739 1.49655 1.219564 0 .355534-.42169.611849-1.05007.611849-.57464 0-1.00046-.214975-1.29398-.686263l-1.07073.752409c.44648.826821 1.25263 1.281575 2.34404 1.281575 1.42627 0 2.41846-.773081 2.41846-1.988509 0-1.025259-.69454-1.587501-1.79834-2.108398-.76481-.359668-1.26918-.496094-1.26918-.892969 0-.343131.37208-.63252.8723-.63252.37207 0 .75654.161231.95498.558106l.98806-.690397c-.30179-.806151-1.05421-1.182357-1.96371-1.182357zm-17.72295.0041c-1.90582 0-3.46439 1.562699-3.46439 3.47679 0 1.897557 1.55857 3.451986 3.46026 3.451986.57051 0 1.10794-.136426 1.58336-.384473.43822.301791.97979.525033 1.70739.570508l.10749-1.30638c-.27698-.01654-.51676-.06201-.73174-.124023.50436-.599447.80615-1.372527.80615-2.207618 0-1.914091-1.56269-3.47679-3.46852-3.47679zm31.39033 0c-1.90582 0-3.46438 1.562699-3.46438 3.47679 0 1.897557 1.55856 3.451986 3.46025 3.451986 1.90996 0 3.47266-1.554429 3.47266-3.451986 0-1.914091-1.5627-3.47679-3.46853-3.47679zm4.33669.0124v6.796485h1.33945v-3.733106l3.95635 3.848861h.062v-6.804753h-1.34359v3.733106l-3.94808-3.840593zm-31.44821.124024v4.20026c0 1.50895 1.15342 2.608627 2.57142 2.608627 1.418 0 2.57142-1.099677 2.57142-2.608627v-4.20026h-1.34772v4.196126c0 .723469-.58291 1.256771-1.22783 1.256771-.64492 0-1.21957-.529168-1.21957-1.256771v-4.196126zm6.24251 0v6.664193h4.01836v-1.331149h-2.6789v-1.37666h2.29856v-1.335319h-2.29856v-1.302247h2.6789v-1.318782zm9.82266 0v1.327051H139.7v5.337142h1.34359v-5.337142h1.63711v-1.327051zm5.37435 0v6.664193h1.33945v-6.664193zm-25.72246 1.21543c1.16582 0 2.11666.950848 2.11666 2.116666 0 .578776-.23978 1.107944-.62425 1.488281-.64905-.628384-1.11621-1.380795-2.39365-1.475878l-.0703 1.149283c.59945.04134 1.00873.42995 1.44281.888835-.14883.03721-.31006.05374-.47129.05374-1.16169 0-2.1084-.946714-2.1084-2.104265 0-1.165818.94671-2.116666 2.1084-2.116666zm31.39033 0c1.16582 0 2.11667.950848 2.11667 2.116666 0 1.157551-.95085 2.104265-2.11667 2.104265-1.16168 0-2.1084-.946714-2.1084-2.104265 0-1.165818.94672-2.116666 2.1084-2.116666zM236.11582 14.516943c-1.22369 0-2.19935.760678-2.19935 1.914095 0 1.062467.82269 1.471746 1.57097 1.843816.69866.347265 1.49655.731738 1.49655 1.219563 0 .355534-.42168.611849-1.05007.611849-.57464 0-1.00045-.214974-1.29398-.686263l-1.07073.752409c.44648.826823 1.25264 1.281576 2.34404 1.281576 1.42627 0 2.41846-.77308 2.41846-1.988509 0-1.02526-.69453-1.587501-1.79834-2.108399-.76481-.359668-1.26918-.496094-1.26918-.892969 0-.343131.37208-.632519.8723-.632519.37207 0 .75655.161231.95498.558105l.98806-.690397c-.30179-.806152-1.0542-1.182357-1.96371-1.182357zm-12.93978.14056.004 6.664193h1.33945v-3.150195l2.1208 3.150195h1.63711l-1.89342-2.649967c.7152-.252181 1.23196-1.000457 1.23196-1.856218 0-1.198892-1.02112-2.158008-2.26549-2.158008zm5.73815 0v6.664193h4.01836v-1.331185h-2.6789v-1.37666h2.29857v-1.335319h-2.29857v-1.302246h2.6789v-1.318783zm10.16993 0v4.200261c0 1.508951 1.15342 2.608626 2.57142 2.608626 1.418 0 2.57142-1.099675 2.57142-2.608626v-4.200261h-1.34773v4.196127c0 .723469-.58291 1.25677-1.22783 1.25677-.64492 0-1.21956-.529167-1.21956-1.25677v-4.196127zm6.24251 0v6.664193h4.01836v-1.331185h-2.67891v-5.333008zm3.12539 0v1.327051h1.64124v5.337142h1.34359v-5.337142h1.63711v-1.327051zm-23.93652 1.327051h.85989c.45062 0 .8599.363802.8599.839225 0 .475423-.40514.84336-.8599.839226l-.85989-.0041z" style="font-size:8.46667px;line-height:1;font-family:&quot;LEMON MILK&quot;;-inkscape-font-specification:&quot;LEMON MILK&quot;;text-align:center;text-anchor:middle;fill:#fff;fill-opacity:1;stroke:none;stroke-width:2.11667;stroke-linecap:round;stroke-linejoin:round;stroke-dasharray:none;stroke-opacity:1;paint-order:stroke fill markers"/></svg>